<?xml version="1.0" encoding="utf-8"?>
<!-- Generator: Adobe Illustrator 21.1.0, SVG Export Plug-In . SVG Version: 6.00 Build 0)  -->
<svg version="1.1" xmlns="http://www.w3.org/2000/svg" xmlns:xlink="http://www.w3.org/1999/xlink" x="0px" y="0px"
	 viewBox="0 0 320 415" style="enable-background:new 0 0 320 415;" xml:space="preserve">
<style type="text/css">
	.st0{fill:none;}
	.st1{fill:none;stroke:#1D1D1B;stroke-width:0.3;stroke-linejoin:round;}
	
		.FILET_x0020_ROUGE_x0020_4{fill:none;stroke:#D42E1A;stroke-width:3;stroke-linecap:round;stroke-linejoin:round;stroke-miterlimit:10;}
	.st2{fill:none;stroke:#000000;stroke-miterlimit:10;}
	.st3{stroke:#000000;stroke-width:0.5;stroke-miterlimit:10;}
	.st4{fill:#F6D5D1;}
	.st5{opacity:0.27;fill:url(#SVGID_1_);}
	.st6{fill:url(#SVGID_2_);}
	.st7{fill:none;stroke:#D42E1A;stroke-width:3;stroke-linecap:round;stroke-linejoin:round;stroke-miterlimit:10;}
	.st8{fill:#D42E1A;}
	.st9{fill:#808080;}
	.st10{fill:none;stroke:#871103;stroke-width:2;stroke-miterlimit:10;stroke-dasharray:2,2;}
	.st11{fill:#871103;}
	.st12{fill:#FFFFFF;stroke:#000000;stroke-width:0.75;stroke-miterlimit:10;}
	.st13{opacity:0.7;}
	.st14{fill:#FFFFFF;}
	.st15{display:none;}
	.st16{display:inline;}
	.st17{opacity:0.27;fill:url(#SVGID_3_);}
	.st18{display:inline;fill:url(#SVGID_4_);}
	.st19{display:inline;fill:none;stroke:#D42E1A;stroke-width:3;stroke-linecap:round;stroke-linejoin:round;stroke-miterlimit:10;}
	.st20{font-family:'AntennaCond-Medium';}
	.st21{font-size:18px;}
	.st22{font-family:'AntennaCond-Regular';}
	.st23{font-size:20px;}
	.st24{display:inline;fill:none;stroke:#871103;stroke-width:2;stroke-miterlimit:10;stroke-dasharray:2,2;}
	.st25{display:inline;fill:#D42E1A;}
	.st26{font-family:'AntennaExtraCond-Bold';}
	.st27{font-size:32.4075px;}
	.st28{display:inline;fill:none;stroke:#000000;stroke-miterlimit:10;}
	.st29{display:inline;fill:#FFFFFF;stroke:#000000;stroke-width:0.75;stroke-miterlimit:10;}
	.st30{display:inline;opacity:0.7;}
	.st31{display:inline;fill:#FFFFFF;}
	.st32{font-size:27px;}
	.st33{opacity:0.27;fill:url(#SVGID_5_);}
	.st34{fill:url(#SVGID_6_);}
	.st35{opacity:0.27;fill:url(#SVGID_7_);}
	.st36{fill:url(#SVGID_8_);}
	.st37{opacity:0.27;fill:url(#SVGID_9_);}
	.st38{display:inline;fill:url(#SVGID_10_);}
</style>
<pattern  x="-234.7" y="-22.5" width="72" height="72" patternUnits="userSpaceOnUse" id="Lignes_diagonales" viewBox="79.6 -148.6 72 72" style="overflow:visible;">
	<g>
		<rect x="79.6" y="-148.6" class="st0" width="72" height="72"/>
		<g>
			<line class="st1" x1="144.1" y1="-66.1" x2="162.1" y2="-84.1"/>
			<line class="st1" x1="144.1" y1="-60.1" x2="168.1" y2="-84.1"/>
			<line class="st1" x1="144.1" y1="-54.1" x2="174.1" y2="-84.1"/>
			<line class="st1" x1="144.1" y1="-48.1" x2="180.1" y2="-84.1"/>
			<line class="st1" x1="144.1" y1="-42.1" x2="186.1" y2="-84.1"/>
			<line class="st1" x1="144.1" y1="-36.1" x2="192.1" y2="-84.1"/>
			<line class="st1" x1="144.1" y1="-30.1" x2="198.1" y2="-84.1"/>
			<line class="st1" x1="144.1" y1="-24.1" x2="204.1" y2="-84.1"/>
			<line class="st1" x1="144.1" y1="-18.1" x2="210.1" y2="-84.1"/>
			<line class="st1" x1="144.1" y1="-12.1" x2="216.1" y2="-84.1"/>
			<line class="st1" x1="144.1" y1="-6.1" x2="222.1" y2="-84.1"/>
			<line class="st1" x1="144.1" y1="-0.1" x2="228.1" y2="-84.1"/>
			<line class="st1" x1="150.1" y1="-0.1" x2="228.1" y2="-78.1"/>
		</g>
		<g>
			<line class="st1" x1="72.1" y1="-66.1" x2="90.1" y2="-84.1"/>
			<line class="st1" x1="72.1" y1="-60.1" x2="96.1" y2="-84.1"/>
			<line class="st1" x1="72.1" y1="-54.1" x2="102.1" y2="-84.1"/>
			<line class="st1" x1="72.1" y1="-48.1" x2="108.1" y2="-84.1"/>
			<line class="st1" x1="72.1" y1="-42.1" x2="114.1" y2="-84.1"/>
			<line class="st1" x1="72.1" y1="-36.1" x2="120.1" y2="-84.1"/>
			<line class="st1" x1="72.1" y1="-30.1" x2="126.1" y2="-84.1"/>
			<line class="st1" x1="72.1" y1="-24.1" x2="132.1" y2="-84.1"/>
			<line class="st1" x1="72.1" y1="-18.1" x2="138.1" y2="-84.1"/>
			<line class="st1" x1="72.1" y1="-12.1" x2="144.1" y2="-84.1"/>
			<line class="st1" x1="72.1" y1="-6.1" x2="150.1" y2="-84.1"/>
			<line class="st1" x1="72.1" y1="-0.1" x2="156.1" y2="-84.1"/>
			<line class="st1" x1="78.1" y1="-0.1" x2="156.1" y2="-78.1"/>
		</g>
		<g>
			<line class="st1" x1="0.1" y1="-0.1" x2="84.1" y2="-84.1"/>
			<line class="st1" x1="6.1" y1="-0.1" x2="84.1" y2="-78.1"/>
		</g>
		<g>
			<line class="st1" x1="144.1" y1="-138.1" x2="162.1" y2="-156.1"/>
			<line class="st1" x1="144.1" y1="-132.1" x2="168.1" y2="-156.1"/>
			<line class="st1" x1="144.1" y1="-126.1" x2="174.1" y2="-156.1"/>
			<line class="st1" x1="144.1" y1="-120.1" x2="180.1" y2="-156.1"/>
			<line class="st1" x1="144.1" y1="-114.1" x2="186.1" y2="-156.1"/>
			<line class="st1" x1="144.1" y1="-108.1" x2="192.1" y2="-156.1"/>
			<line class="st1" x1="144.1" y1="-102.1" x2="198.1" y2="-156.1"/>
			<line class="st1" x1="144.1" y1="-96.1" x2="204.1" y2="-156.1"/>
			<line class="st1" x1="144.1" y1="-90.1" x2="210.1" y2="-156.1"/>
			<line class="st1" x1="144.1" y1="-84.1" x2="216.1" y2="-156.1"/>
			<line class="st1" x1="144.1" y1="-78.1" x2="222.1" y2="-156.1"/>
			<line class="st1" x1="144.1" y1="-72.1" x2="228.1" y2="-156.1"/>
			<line class="st1" x1="150.1" y1="-72.1" x2="228.1" y2="-150.1"/>
		</g>
		<g>
			<line class="st1" x1="72.1" y1="-138.1" x2="90.1" y2="-156.1"/>
			<line class="st1" x1="72.1" y1="-132.1" x2="96.1" y2="-156.1"/>
			<line class="st1" x1="72.1" y1="-126.1" x2="102.1" y2="-156.1"/>
			<line class="st1" x1="72.1" y1="-120.1" x2="108.1" y2="-156.1"/>
			<line class="st1" x1="72.1" y1="-114.1" x2="114.1" y2="-156.1"/>
			<line class="st1" x1="72.1" y1="-108.1" x2="120.1" y2="-156.1"/>
			<line class="st1" x1="72.1" y1="-102.1" x2="126.1" y2="-156.1"/>
			<line class="st1" x1="72.1" y1="-96.1" x2="132.1" y2="-156.1"/>
			<line class="st1" x1="72.1" y1="-90.1" x2="138.1" y2="-156.1"/>
			<line class="st1" x1="72.1" y1="-84.1" x2="144.1" y2="-156.1"/>
			<line class="st1" x1="72.1" y1="-78.1" x2="150.1" y2="-156.1"/>
			<line class="st1" x1="72.1" y1="-72.1" x2="156.1" y2="-156.1"/>
			<line class="st1" x1="78.1" y1="-72.1" x2="156.1" y2="-150.1"/>
			<line class="st1" x1="84.1" y1="-72.1" x2="156.1" y2="-144.1"/>
			<line class="st1" x1="90.1" y1="-72.1" x2="156.1" y2="-138.1"/>
			<line class="st1" x1="96.1" y1="-72.1" x2="156.1" y2="-132.1"/>
			<line class="st1" x1="102.1" y1="-72.1" x2="156.1" y2="-126.1"/>
			<line class="st1" x1="108.1" y1="-72.1" x2="156.1" y2="-120.1"/>
			<line class="st1" x1="114.1" y1="-72.1" x2="156.1" y2="-114.1"/>
			<line class="st1" x1="120.1" y1="-72.1" x2="156.1" y2="-108.1"/>
			<line class="st1" x1="126.1" y1="-72.1" x2="156.1" y2="-102.1"/>
			<line class="st1" x1="132.1" y1="-72.1" x2="156.1" y2="-96.1"/>
			<line class="st1" x1="138.1" y1="-72.1" x2="156.1" y2="-90.1"/>
			<line class="st1" x1="144.1" y1="-72.1" x2="156.1" y2="-84.1"/>
		</g>
		<g>
			<line class="st1" x1="0.1" y1="-72.1" x2="84.1" y2="-156.1"/>
			<line class="st1" x1="6.1" y1="-72.1" x2="84.1" y2="-150.1"/>
			<line class="st1" x1="12.1" y1="-72.1" x2="84.1" y2="-144.1"/>
			<line class="st1" x1="18.1" y1="-72.1" x2="84.1" y2="-138.1"/>
			<line class="st1" x1="24.1" y1="-72.1" x2="84.1" y2="-132.1"/>
			<line class="st1" x1="30.1" y1="-72.1" x2="84.1" y2="-126.1"/>
			<line class="st1" x1="36.1" y1="-72.1" x2="84.1" y2="-120.1"/>
			<line class="st1" x1="42.1" y1="-72.1" x2="84.1" y2="-114.1"/>
			<line class="st1" x1="48.1" y1="-72.1" x2="84.1" y2="-108.1"/>
			<line class="st1" x1="54.1" y1="-72.1" x2="84.1" y2="-102.1"/>
			<line class="st1" x1="60.1" y1="-72.1" x2="84.1" y2="-96.1"/>
			<line class="st1" x1="66.1" y1="-72.1" x2="84.1" y2="-90.1"/>
			<line class="st1" x1="72.1" y1="-72.1" x2="84.1" y2="-84.1"/>
		</g>
		<g>
			<line class="st1" x1="144.1" y1="-144.1" x2="228.1" y2="-228.1"/>
			<line class="st1" x1="150.1" y1="-144.1" x2="228.1" y2="-222.1"/>
		</g>
		<g>
			<line class="st1" x1="72.1" y1="-144.1" x2="156.1" y2="-228.1"/>
			<line class="st1" x1="78.1" y1="-144.1" x2="156.1" y2="-222.1"/>
			<line class="st1" x1="84.1" y1="-144.1" x2="156.1" y2="-216.1"/>
			<line class="st1" x1="90.1" y1="-144.1" x2="156.1" y2="-210.1"/>
			<line class="st1" x1="96.1" y1="-144.1" x2="156.1" y2="-204.1"/>
			<line class="st1" x1="102.1" y1="-144.1" x2="156.1" y2="-198.1"/>
			<line class="st1" x1="108.1" y1="-144.1" x2="156.1" y2="-192.1"/>
			<line class="st1" x1="114.1" y1="-144.1" x2="156.1" y2="-186.1"/>
			<line class="st1" x1="120.1" y1="-144.1" x2="156.1" y2="-180.1"/>
			<line class="st1" x1="126.1" y1="-144.1" x2="156.1" y2="-174.1"/>
			<line class="st1" x1="132.1" y1="-144.1" x2="156.1" y2="-168.1"/>
			<line class="st1" x1="138.1" y1="-144.1" x2="156.1" y2="-162.1"/>
			<line class="st1" x1="144.1" y1="-144.1" x2="156.1" y2="-156.1"/>
		</g>
		<g>
			<line class="st1" x1="0.1" y1="-144.1" x2="84.1" y2="-228.1"/>
			<line class="st1" x1="6.1" y1="-144.1" x2="84.1" y2="-222.1"/>
			<line class="st1" x1="12.1" y1="-144.1" x2="84.1" y2="-216.1"/>
			<line class="st1" x1="18.1" y1="-144.1" x2="84.1" y2="-210.1"/>
			<line class="st1" x1="24.1" y1="-144.1" x2="84.1" y2="-204.1"/>
			<line class="st1" x1="30.1" y1="-144.1" x2="84.1" y2="-198.1"/>
			<line class="st1" x1="36.1" y1="-144.1" x2="84.1" y2="-192.1"/>
			<line class="st1" x1="42.1" y1="-144.1" x2="84.1" y2="-186.1"/>
			<line class="st1" x1="48.1" y1="-144.1" x2="84.1" y2="-180.1"/>
			<line class="st1" x1="54.1" y1="-144.1" x2="84.1" y2="-174.1"/>
			<line class="st1" x1="60.1" y1="-144.1" x2="84.1" y2="-168.1"/>
			<line class="st1" x1="66.1" y1="-144.1" x2="84.1" y2="-162.1"/>
			<line class="st1" x1="72.1" y1="-144.1" x2="84.1" y2="-156.1"/>
		</g>
	</g>
</pattern>
<g id="SOURCE">
</g>
<g id="GraphProd">
	<g id="Flèche_6">
	</g>
</g>
<g id="A65_Source" class="st15">
	<g class="st16">
		<polygon class="st4" points="17.1,13.6 17.1,404.7 49.7,404.7 89.6,355.8 125.9,306.9 147.7,258 158.6,209.2 169.5,160.3 
			184,111.4 220.3,62.5 256.6,13.6 		"/>
		<pattern  id="SVGID_1_" xlink:href="#Lignes_diagonales" patternTransform="matrix(0 -1.104 -0.92 0 -15029.5312 -16257.5391)">
		</pattern>
		<polygon class="st5" points="17.1,13.6 17.1,404.7 49.7,404.7 89.6,355.8 125.9,306.9 147.7,258 158.6,209.2 169.5,160.3 
			184,111.4 220.3,62.5 256.6,13.6 		"/>
	</g>
	
		<linearGradient id="SVGID_2_" gradientUnits="userSpaceOnUse" x1="17.0667" y1="200.3495" x2="256.5525" y2="200.3495" gradientTransform="matrix(1 0 0 -1 0 409.5)">
		<stop  offset="0" style="stop-color:#FFFFFF"/>
		<stop  offset="6.456017e-02" style="stop-color:#FFFFFF;stop-opacity:0.9354"/>
		<stop  offset="1" style="stop-color:#FFFFFF;stop-opacity:0"/>
	</linearGradient>
	<polygon style="display:inline;fill:url(#SVGID_2_);" points="17.1,13.6 17.1,404.7 49.7,404.7 89.6,355.8 125.9,306.9 147.7,258 
		158.6,209.2 169.5,160.3 184,111.4 220.3,62.5 256.6,13.6 	"/>
	<polyline class="st19" points="49.7,404.7 89.6,355.8 125.9,306.9 147.7,258 158.6,209.2 169.5,160.3 184,111.4 220.3,62.5 
		256.6,13.6 	"/>
	<g class="st16">
		<text transform="matrix(1 0 0 1 119.2773 390.6357)"><tspan x="0" y="0" class="st9 st20 st21">2011</tspan><tspan x="0" y="21" class="st8 st22 st23">22,90 €</tspan></text>
	</g>
	<g class="st16">
		<text transform="matrix(1 0 0 1 168.2773 288.6357)"><tspan x="0" y="0" class="st9 st20 st21">2014</tspan><tspan x="0" y="21" class="st8 st22 st23">25,60 €</tspan></text>
	</g>
	<polyline class="st24" points="49.4,405.1 95.4,236.2 145.3,139 231.3,13 	"/>
	<g class="st16">
		<polygon class="st8" points="273.6,182.9 272.8,182.9 268.4,190.4 269.7,190.4 		"/>
		<polygon class="st8" points="262.9,199.7 247.2,226.7 250.9,226.7 264.9,199.7 		"/>
		<polygon class="st8" points="252.1,226.7 270.3,226.7 273.9,199.7 265.5,199.7 		"/>
		<polygon class="st8" points="276.4,201 276.4,201.5 276.4,211.1 276.4,215.9 276.4,226.7 277.3,226.7 277.3,215.9 277.3,211.1 
			277.3,201.5 277.3,201 277.3,199.7 276.4,199.7 		"/>
		<polygon class="st8" points="283.4,190.4 279.7,182.9 277.7,182.9 278.6,190.4 		"/>
		<rect x="276.4" y="182.9" class="st8" width="0.9" height="7.5"/>
		<polygon class="st8" points="279.8,199.7 283.4,226.7 299.6,226.7 301.5,226.7 288.1,199.7 		"/>
		<polygon class="st8" points="275.1,190.4 276,182.9 273.9,182.9 270.1,190.4 		"/>
		<polygon class="st8" points="290.6,199.7 288.7,199.7 302.7,226.7 306.4,226.7 		"/>
		<polygon class="st8" points="285.2,190.4 280.8,182.9 279.9,182.9 283.8,190.4 		"/>
		<polygon class="st8" points="288,198.4 289.8,198.4 294.2,198.4 294.6,199 295,199.7 296.8,202.9 298.7,202.9 298.7,199.7 
			298.7,199 298.7,198.5 298.7,198.4 301.4,198.4 301.4,191.7 286,191.7 284.5,191.7 284.1,191.7 278.8,191.7 277.3,191.7 
			277.3,191.7 276.4,191.7 276.4,191.7 274.8,191.7 269.4,191.7 269,191.7 267.6,191.7 252.5,191.7 252.5,198.4 255.2,198.4 
			255.2,198.5 255.2,199 255.2,199.7 255.2,202.9 257.1,202.9 258.9,199.7 259.3,199 259.7,198.4 263.7,198.4 265.5,198.4 
			266.1,198.4 274,198.4 276.4,198.4 277.3,198.4 279.7,198.4 287.4,198.4 		"/>
	</g>
	<text transform="matrix(1 0 0 1 253.9265 256.5996)" class="st25 st26 st27">A65</text>
	<g class="st16">
		<path class="st11" d="M42.2,34.7l0-0.4l-0.4,0.1l-0.1,1l-0.1,0l-0.1-0.3l-0.4,0.2l0.1,0.2l-0.5,0l-0.5,0.8l0.2,0.2l-0.2,0.2
			l0.2,0.1l0.2,0.5l-0.3,0.1l0.1,0.2l0.2,0l0,0.5l0.3,0.2c0,0-0.2,0.2-0.2,0.3l0.2,0.2l0.4,0l0.1,0.4l0.2,0l0-0.4L42,39l-0.3-0.2
			l0.3-0.4l0.2-0.8l0.2-0.4l-0.2-2L42.2,34.7z"/>
		<path class="st11" d="M40.3,35.3l0.9-0.5L41,34.5l0.4-0.5L41,33.5l-0.6,0l-0.8-0.8l0-0.7l0.3-0.4l-0.2-0.4l-0.3,0l-0.6-0.8
			l1.1-0.8l-0.1-0.5l-0.6-0.8l0.5-0.5l-0.1-0.4l-0.5-0.4l0.1-0.9l-0.3-0.1l-0.2,0.2L38.6,26l-0.2,0.1L38.2,26l-0.1,0.2L38,26.6
			l-0.7,0.2l0.4-0.6l-0.1-0.4l0.2-0.5l0.9-1.2l0.8-0.4l0.3-0.5l-0.2-0.6l0.5-0.2l0.4,0.2l0.3,0l0.4-0.7L41,21.2l0.3-0.3l-0.1-0.6
			l0.4-1.2l-0.1-0.5l1-1L42,17l-1-0.1l-2.2-0.4l-0.6-0.7l-0.8,0l-0.4-0.3l-0.8,0.1l-0.2-0.2l-0.5-0.6L35,14.7l-0.4-0.8l0.2-0.5
			l-0.4,0l-0.9,0.7l-0.4-0.3l0.3-0.8L33,12.7l-0.8,0.2l-0.1-0.6c0,0-0.5-0.1-0.6-0.1c-0.1,0,0-0.6,0-0.6L31,11.3
			c0,0-0.4,0.2-0.5,0.3c-0.1,0.1-0.5-0.4-0.5-0.4l-0.2-0.9L29,10.5L27.7,11l0,0.4l0,0.5l0,0.5l-0.1,0.4l0.3,0.3l-0.1,0.1l-0.3-0.1
			l-0.2,0.4l-0.6,0.4l-0.5,0.2L25.6,14l-0.9,0.4l-0.3,0.1l-0.3,0.5l0.2,0.1l0.4-0.1l0.4,0.2l-0.5,0.1l-0.8,0.1l-0.2,0.3l-0.4,0.2
			l0-0.2l-0.5-0.2l-1-0.3l-0.2,0.2l0-0.1l-0.2-0.1l0.1-0.2l-0.1-0.3l0.1-0.2l-0.1-0.2l-0.2,0c0,0-0.4,0.1-0.4,0.2
			c0,0-0.3-0.2-0.3-0.2L20,14.2l-0.1,0.1l0.2,0.2l0,0.4l0.2,0.4l0.1,0.1l0.1,0.4l0.1,0.2l-0.1,0.4l0.1,0.4l-0.1,0.6l0.2,0.2l0.2-0.1
			l0,0.3L20.4,18l-0.1-0.1l-0.4-0.1l0-0.3l-0.4,0.2l-0.2,0l-0.2,0.1L19,17.6l-0.1-0.1l-0.4,0.1L17.9,18l-0.3-0.3l0-0.2l-0.4-0.6
			l-0.3-0.1l-0.7-0.1l-0.3,0.3l-0.4,0l-0.1,0.2l-0.3-0.2l-0.1-0.2l-0.4,0.1l-0.3,0.2L14.3,17l-0.4,0l-0.2,0.2l-0.3,0l-0.3,0.7
			l0.4-0.1l0.4,0l0.2,0.1l0.2,0.3l-0.1,0.1l-0.2-0.1l-0.5-0.1l-0.1,0.2l0.2,0.1l0.5,0.1l-0.1,0.1l-0.6-0.1l-0.4,0.2l0.3,0.2l0.3,0.1
			l0.2,0.3l-0.1,0.4l0.4,0l0.2-0.2l0.1-0.3l0.1,0.4l0.2-0.2l0,0.2l0.2,0.2l0.1,0.1l0.4,0.1l0.1-0.2l0.2,0.3l0.2,0l0.1,0.1l0,0.2
			l0.3,0l0,0.2l0.1,0.1l0.2,0l0.2,0l0-0.1l0.5,0.1l0.1,0.2l0.2,0.1l0.1,0l0.1,0.2l0,0.3l-0.2,0l0.1,0.3L17.8,22l0.1,0.1l0.2-0.2
			l0.3,0.1l0.4-0.2l-0.1,0.2l-0.1,0.2l-0.2,0.3l0.4,0.2l0,0.3l-0.1,0.3l-0.2,0.1l0.3,0.3l0.2,1l0.8,0.1l0,0.2l0.6,0.3l0.2,0l0,0.2
			l-0.2,0.1l0.2,0.1l0.2,0.5l0,0.1l-0.2-0.2l0.1,0.4L20.6,27l0,0.2l-0.3,0.1l0,0.2l0.3,0.2l0.3,0.3l0.2,0.2l0.2,0.4l0.2,0.4l0,0.2
			l0,0.2l0.1,0.3l0.1,0.2l-0.2-0.1l-0.1-0.3l-0.7-1.4l-0.2,0.1L20.2,29L20,30.2L19.9,31l0.3-0.3l0.3,0.2L20.4,31l0.1,0l-0.1,0.1
			l-0.5,0l-0.2,0.3l-0.1,1.1L19.5,33l-0.7,1.6l-0.1,0.1l-0.2,0.1l-0.4,0l0.1,0.2l0.2,0.1c0,0,0.1,0.1,0.2,0.1c0,0.1,0.3,0.4,0.3,0.4
			l-0.2,0.5l0.1,0.1l0.2,0l0.2-0.1c0,0,0.2,0,0.2,0c0,0,0.1,0,0.2,0.1c0.1,0.1,0.2,0.1,0.2,0.2c0,0,0,0.2,0.1,0.2
			c0.1,0,0.2-0.2,0.3-0.1c0.1,0.1,0.3,0,0.3,0s0.2,0.2,0.2,0.2c0,0,0,0.2,0.1,0.2c0.1,0,0.5,0,0.5,0l0.2,0l0.4,0.5l0.1-0.2l0.3,0.1
			l1.2,0.1l0.1-0.1l0.2,0.1l0.4-0.3l0.2,0l1,0.4l0.2,0.3l0.4,0l0.3,0l0.1,0.2l0.1,0.5l0.3,0l0.4,0.4l0.3,0l0.3-0.2l0.2,0l0.9,0.3
			l0.7-0.3l0.8,0.2l-0.2-0.8l-0.2-0.1L30,37.9l0-0.3l0-0.5L30,36.8l0.1-0.1l0.2,0.3l0.2-0.4l0.4-0.3l0.3,0l0.3,0l0.3-0.2l0.1-0.2
			l0.8-0.3l0.3,0.1l0.2-0.2l0.1,0.3l0.5,0l0.2,0.3l0.4,0l0.2-0.2l0.2,0.1l0,0.2l0.7,0l0.1,0.2l-0.2,0.2l0.3,0.2l0.2-0.2l0.5,0.2
			l0,0.2l0.3,0l0.2-0.1l0-0.2l0.5,0.2l0.2,0.1l0.1-0.2l0.2-0.1l0.2,0.2l0.2,0l-0.1-0.2l0.4-0.2l0.2,0.2l0.2-0.2l0-0.2l-0.4,0
			l0.4-0.3l-0.1-0.2l0.4,0.2l0.2-0.3l0.2-0.2l0.3,0.3L40.3,35.3z"/>
	</g>
	<line class="st28" x1="48" y1="406.5" x2="115" y2="406.5"/>
	<circle class="st29" cx="50" cy="406" r="7.5"/>
	<polyline class="st28" points="148,256.5 189,256.5 189,267 	"/>
	<circle class="st29" cx="147.5" cy="256.5" r="7.5"/>
	<g class="st16">
		<text transform="matrix(1 0 0 1 181.2773 177.6357)"><tspan x="0" y="0" class="st9 st20 st21">2017</tspan><tspan x="0" y="21" class="st8 st22 st23">26,60 €</tspan></text>
	</g>
	<polyline class="st28" points="186,111.5 199,111.5 199,158 	"/>
	<circle class="st29" cx="185.5" cy="111.5" r="7.5"/>
	<g class="st16">
		<text transform="matrix(1 0 0 1 259.2773 54.6357)"><tspan x="0" y="0" class="st9 st20 st21">2019</tspan><tspan x="0" y="21" class="st8 st22 st23">27,60 €</tspan></text>
	</g>
	<g class="st16">
		<polyline class="st2" points="257,17.5 286,17.5 286,32.5 		"/>
		<circle class="st12" cx="256.5" cy="17.5" r="7.5"/>
	</g>
	<circle class="st25" cx="276.8" cy="130.5" r="41"/>
	<g class="st30">
		<polygon class="st14" points="262.2,110.2 269.4,110.2 269.4,119 284.1,119 284.1,110.5 291.3,110.5 276.9,95.5 		"/>
	</g>
	<text transform="matrix(0.8526 0 0 1 236.8593 147.7246)" class="st31 st26 st32">+20,52 %</text>
</g>
<g id="A65">
	<g>
		<polygon class="st4" points="17.1,13.6 17.1,404.7 49.7,404.7 89.6,355.8 125.9,306.9 147.7,258 158.6,209.2 169.5,160.3 
			184,111.4 220.3,62.5 256.6,13.6 		"/>
		<pattern  id="SVGID_3_" xlink:href="#Lignes_diagonales" patternTransform="matrix(0 -1.104 -0.92 0 -15029.5312 -16257.5391)">
		</pattern>
		<polygon class="st17" points="17.1,13.6 17.1,404.7 49.7,404.7 89.6,355.8 125.9,306.9 147.7,258 158.6,209.2 169.5,160.3 
			184,111.4 220.3,62.5 256.6,13.6 		"/>
	</g>
	
		<linearGradient id="SVGID_4_" gradientUnits="userSpaceOnUse" x1="17.0667" y1="200.3495" x2="256.5525" y2="200.3495" gradientTransform="matrix(1 0 0 -1 0 409.5)">
		<stop  offset="0" style="stop-color:#FFFFFF"/>
		<stop  offset="6.456017e-02" style="stop-color:#FFFFFF;stop-opacity:0.9354"/>
		<stop  offset="1" style="stop-color:#FFFFFF;stop-opacity:0"/>
	</linearGradient>
	<polygon style="fill:url(#SVGID_4_);" points="17.1,13.6 17.1,404.7 49.7,404.7 89.6,355.8 125.9,306.9 147.7,258 158.6,209.2 
		169.5,160.3 184,111.4 220.3,62.5 256.6,13.6 	"/>
	<polyline class="FILET_x0020_ROUGE_x0020_4" points="49.7,404.7 89.6,355.8 125.9,306.9 147.7,258 158.6,209.2 169.5,160.3 
		184,111.4 220.3,62.5 256.6,13.6 	"/>
	<g>
		<g>
			<path class="st9" d="M119.8,389l3.1-3.6c2.2-2.6,2.4-3.3,2.4-4.6c0-1.2-0.5-1.8-1.9-1.8c-1,0-1.9,0.3-2.7,0.6l-0.9-1.7
				c1-0.5,2.1-0.8,3.9-0.8c2.6,0,3.6,1.1,3.6,3.4c0,2-0.5,2.9-3,5.9l-2,2.4h5.2v1.8h-7.7V389z"/>
			<path class="st9" d="M129.4,384c0-4.4,0.6-6.8,4.5-6.8c3.8,0,4.4,2.4,4.4,6.8c0,4.6-0.6,6.8-4.4,6.8
				C130.1,390.8,129.4,388.5,129.4,384z M136.3,384c0-3.5-0.5-4.9-2.4-4.9c-2,0-2.4,1.3-2.4,4.9c0,3.6,0.4,4.9,2.4,4.9
				C135.9,388.9,136.3,387.5,136.3,384z"/>
			<path class="st9" d="M141.7,379.1h-1.9v-1.9h3.9v13.3h-2V379.1z"/>
			<path class="st9" d="M147.5,379.1h-1.9v-1.9h3.9v13.3h-2V379.1z"/>
			<path class="st8" d="M120,410.1l3.3-4.1c2.6-3.2,2.9-4,2.9-5.5c0-1.5-0.5-2.1-2.2-2.1c-1.2,0-2.2,0.3-3,0.7l-0.8-1.6
				c1-0.5,2.2-0.9,4.1-0.9c2.8,0,3.8,1.2,3.8,3.7c0,2.2-0.6,3.2-3.4,6.8l-2.3,2.9h5.9v1.7H120V410.1z"/>
			<path class="st8" d="M129.6,410.1l3.3-4.1c2.6-3.2,2.9-4,2.9-5.5c0-1.5-0.5-2.1-2.2-2.1c-1.2,0-2.2,0.3-3,0.7l-0.8-1.6
				c1-0.5,2.2-0.9,4.1-0.9c2.8,0,3.8,1.2,3.8,3.7c0,2.2-0.6,3.2-3.4,6.8L132,410h5.9v1.7h-8.2V410.1z"/>
			<path class="st8" d="M139.8,413c0.9-0.5,1.1-0.7,1.1-1.4h-1v-2.5h2.3v2.4c0,1.3-0.2,1.8-1.8,2.5L139.8,413z"/>
			<path class="st8" d="M144.9,410h1.3c3.7,0,4.2-1.6,4.4-4.3c-0.6,0.8-1.7,1.2-3.4,1.2c-3.3,0-3.9-1.9-3.9-4.8
				c0-3.5,0.9-5.4,4.5-5.4c4.2,0,4.7,2.2,4.7,6.2c0,6-0.4,8.8-6.4,8.8h-1.2V410z M150.5,402.1c0-2.6-0.5-3.7-2.8-3.7
				c-2.1,0-2.6,1.2-2.6,3.6c0,2.1,0.5,3.2,2.5,3.2C149.3,405.3,150.5,404.4,150.5,402.1z"/>
			<path class="st8" d="M154.7,404.2c0-5.1,0.7-7.6,4.8-7.6c4,0,4.7,2.5,4.7,7.6c0,5.2-0.7,7.6-4.7,7.6
				C155.4,411.8,154.7,409.4,154.7,404.2z M162.3,404.2c0-4.2-0.6-5.8-2.8-5.8c-2.3,0-2.8,1.6-2.8,5.8c0,4.2,0.5,5.8,2.8,5.8
				C161.8,410.1,162.3,408.5,162.3,404.2z"/>
			<path class="st8" d="M169.5,401.9h1.9c0.3-3.6,1.5-5.2,4.6-5.2c1.4,0,2.5,0.3,3.4,0.8l-0.9,1.6c-0.7-0.4-1.4-0.6-2.5-0.6
				c-1.9,0-2.6,1.1-2.8,3.4h4.2v1.5h-4.2v1.4h4.2v1.6h-4.2c0.2,2.5,0.9,3.7,2.8,3.7c1.1,0,1.9-0.4,2.5-0.7l0.9,1.5
				c-0.9,0.5-2,0.9-3.5,0.9c-3.1,0-4.3-1.7-4.5-5.4h-1.9v-1.6h1.8v-1.4h-1.8V401.9z"/>
		</g>
	</g>
	<g>
		<g>
			<path class="st9" d="M168.8,287l3.1-3.6c2.2-2.6,2.4-3.3,2.4-4.6c0-1.2-0.5-1.8-1.9-1.8c-1,0-1.9,0.3-2.7,0.6l-0.9-1.7
				c1-0.5,2.1-0.8,3.9-0.8c2.6,0,3.6,1.1,3.6,3.4c0,2-0.5,2.9-3,5.9l-2,2.4h5.2v1.8h-7.7V287z"/>
			<path class="st9" d="M178.4,282c0-4.4,0.6-6.8,4.5-6.8c3.8,0,4.4,2.4,4.4,6.8c0,4.6-0.6,6.8-4.4,6.8
				C179.1,288.8,178.4,286.5,178.4,282z M185.3,282c0-3.5-0.5-4.9-2.4-4.9c-2,0-2.4,1.3-2.4,4.9c0,3.6,0.4,4.9,2.4,4.9
				C184.9,286.9,185.3,285.5,185.3,282z"/>
			<path class="st9" d="M190.7,277.1h-1.9v-1.9h3.9v13.3h-2V277.1z"/>
			<path class="st9" d="M194.6,284.2l4.7-8.9h2.1l-4.6,8.8h3.3l0.4-4h1.5v4h1.7v1.7H202v2.9h-1.9v-2.9h-5.4V284.2z"/>
			<path class="st8" d="M169,308.1l3.3-4.1c2.6-3.2,2.9-4,2.9-5.5c0-1.5-0.5-2.1-2.2-2.1c-1.2,0-2.2,0.3-3,0.7l-0.8-1.6
				c1-0.5,2.2-0.9,4.1-0.9c2.8,0,3.8,1.2,3.8,3.7c0,2.2-0.6,3.2-3.4,6.8l-2.3,2.9h5.9v1.7H169V308.1z"/>
			<path class="st8" d="M178.8,308.8l0.9-1.5c0.8,0.5,1.8,0.8,3.3,0.8c1.9,0,2.8-0.6,2.8-3.3c0-2.7-0.9-3.2-2.6-3.2
				c-1.1,0-1.9,0.3-2.4,0.8l-1.5-0.4l0.4-7.2h7.2v1.7h-5.6l-0.2,4c0.6-0.4,1.4-0.6,2.7-0.6c2.7,0,3.9,1,3.9,4.9c0,4.1-1.5,5-4.6,5
				C181.2,309.8,179.9,309.4,178.8,308.8z"/>
			<path class="st8" d="M189.4,311c0.9-0.5,1.1-0.7,1.1-1.4h-1v-2.5h2.3v2.4c0,1.3-0.2,1.8-1.8,2.5L189.4,311z"/>
			<path class="st8" d="M193.6,303.6c0-5.9,0.3-8.8,6.4-8.8h1.1v1.7h-1.2c-3.8,0-4.2,1.7-4.4,4.3c0.6-0.8,1.7-1.2,3.4-1.2
				c3.3,0,3.9,1.9,3.9,4.8c0,3.5-0.9,5.3-4.5,5.3C194.2,309.8,193.6,307.6,193.6,303.6z M201,304.5c0-2.2-0.5-3.3-2.5-3.3
				c-1.7,0-2.9,0.9-2.9,3.1c0,2.6,0.5,3.7,2.8,3.7C200.5,308.1,201,306.9,201,304.5z"/>
			<path class="st8" d="M204.8,302.2c0-5.1,0.7-7.6,4.8-7.6c4,0,4.7,2.5,4.7,7.6c0,5.2-0.7,7.6-4.7,7.6
				C205.6,309.8,204.8,307.4,204.8,302.2z M212.4,302.2c0-4.2-0.6-5.8-2.8-5.8c-2.3,0-2.8,1.6-2.8,5.8c0,4.2,0.5,5.8,2.8,5.8
				C211.9,308.1,212.4,306.5,212.4,302.2z"/>
			<path class="st8" d="M219.7,299.9h1.9c0.3-3.6,1.5-5.2,4.6-5.2c1.4,0,2.5,0.3,3.4,0.8l-0.9,1.6c-0.7-0.4-1.4-0.6-2.5-0.6
				c-1.9,0-2.6,1.1-2.8,3.4h4.2v1.5h-4.2v1.4h4.2v1.6h-4.2c0.2,2.5,0.9,3.7,2.8,3.7c1.1,0,1.9-0.4,2.5-0.7l0.9,1.5
				c-0.9,0.5-2,0.9-3.5,0.9c-3.1,0-4.3-1.7-4.5-5.4h-1.9v-1.6h1.8v-1.4h-1.8V299.9z"/>
		</g>
	</g>
	<polyline class="st10" points="49.4,405.1 95.4,236.2 145.3,139 231.3,13 	"/>
	<g>
		<polygon class="st8" points="273.6,182.9 272.8,182.9 268.4,190.4 269.7,190.4 		"/>
		<polygon class="st8" points="262.9,199.7 247.2,226.7 250.9,226.7 264.9,199.7 		"/>
		<polygon class="st8" points="252.1,226.7 270.3,226.7 273.9,199.7 265.5,199.7 		"/>
		<polygon class="st8" points="276.4,201 276.4,201.5 276.4,211.1 276.4,215.9 276.4,226.7 277.3,226.7 277.3,215.9 277.3,211.1 
			277.3,201.5 277.3,201 277.3,199.7 276.4,199.7 		"/>
		<polygon class="st8" points="283.4,190.4 279.7,182.9 277.7,182.9 278.6,190.4 		"/>
		<rect x="276.4" y="182.9" class="st8" width="0.9" height="7.5"/>
		<polygon class="st8" points="279.8,199.7 283.4,226.7 299.6,226.7 301.5,226.7 288.1,199.7 		"/>
		<polygon class="st8" points="275.1,190.4 276,182.9 273.9,182.9 270.1,190.4 		"/>
		<polygon class="st8" points="290.6,199.7 288.7,199.7 302.7,226.7 306.4,226.7 		"/>
		<polygon class="st8" points="285.2,190.4 280.8,182.9 279.9,182.9 283.8,190.4 		"/>
		<polygon class="st8" points="288,198.4 289.8,198.4 294.2,198.4 294.6,199 295,199.7 296.8,202.9 298.7,202.9 298.7,199.7 
			298.7,199 298.7,198.5 298.7,198.4 301.4,198.4 301.4,191.7 286,191.7 284.5,191.7 284.1,191.7 278.8,191.7 277.3,191.7 
			277.3,191.7 276.4,191.7 276.4,191.7 274.8,191.7 269.4,191.7 269,191.7 267.6,191.7 252.5,191.7 252.5,198.4 255.2,198.4 
			255.2,198.5 255.2,199 255.2,199.7 255.2,202.9 257.1,202.9 258.9,199.7 259.3,199 259.7,198.4 263.7,198.4 265.5,198.4 
			266.1,198.4 274,198.4 276.4,198.4 277.3,198.4 279.7,198.4 287.4,198.4 		"/>
	</g>
	<g>
		<path class="st8" d="M259.5,232.5h5.2l5.5,24.1h-4.7l-0.7-3.6h-5.4l-0.7,3.6h-4.4L259.5,232.5z M263.8,248.9l-1.2-6.1l-0.6-3.1
			l-0.6,3.1l-1.2,6.1H263.8z"/>
		<path class="st8" d="M273.7,255.2c-1.9-1.8-2.1-4.9-2.1-9v-1.8c0-4.6,0.3-7.7,2.1-9.6c1.5-1.5,3.6-2.2,7.6-2.2h1.7v4.2h-1.7
			c-5.2,0-5.2,1.7-5.2,4.4c0.6-0.7,1.5-1.3,4-1.3c4.7,0,5,3.3,5,8c0,3.4-0.3,5.9-1.8,7.3c-1,0.9-2.6,1.5-4.8,1.5
			C276.2,256.8,274.7,256.2,273.7,255.2z M280.5,248.2c0-3.2-0.3-4.2-2-4.2c-1.5,0-2.3,0.6-2.3,4.1c0,3.7,0.2,4.8,2.3,4.8
			C280.3,252.9,280.5,251.7,280.5,248.2z"/>
		<path class="st8" d="M286.1,255.6l1.7-3.7c0.9,0.4,2.2,0.8,4.1,0.8c2.1,0,2.5-0.9,2.5-4.3c0-3.3-0.4-4-2.1-4c-1,0-1.6,0.3-2.1,0.6
			l-3.2-1l0.4-11.5h10.4v4.2h-6.5l-0.1,4.1c0.6-0.4,1.4-0.6,2.8-0.6c4.3,0,4.9,2.2,4.9,8.2c0,5.9-1,8.2-6.5,8.2
			C288.9,256.8,287.6,256.3,286.1,255.6z"/>
	</g>
	<g>
		<path class="st11" d="M47.2,380.7l0-0.4l-0.4,0.1l-0.1,1l-0.1,0l-0.1-0.3l-0.4,0.2l0.1,0.2l-0.5,0l-0.5,0.8l0.2,0.2l-0.2,0.2
			l0.2,0.1l0.2,0.5l-0.3,0.1l0.1,0.2l0.2,0l0,0.5l0.3,0.2c0,0-0.2,0.2-0.2,0.3l0.2,0.2l0.4,0l0.1,0.4l0.2,0l0-0.4L47,385l-0.3-0.2
			l0.3-0.4l0.2-0.8l0.2-0.4l-0.2-2L47.2,380.7z"/>
		<path class="st11" d="M45.3,381.3l0.9-0.5l-0.2-0.3l0.4-0.5l-0.4-0.6l-0.6,0l-0.8-0.8l0-0.7l0.3-0.4l-0.2-0.4l-0.3,0l-0.6-0.8
			l1.1-0.8l-0.1-0.5l-0.6-0.8l0.5-0.5l-0.1-0.4l-0.5-0.4l0.1-0.9l-0.3-0.1l-0.2,0.2l-0.2-0.1l-0.2,0.1l-0.2-0.1l-0.1,0.2l-0.1,0.4
			l-0.7,0.2l0.4-0.6l-0.1-0.4l0.2-0.5l0.9-1.2l0.8-0.4l0.3-0.5l-0.2-0.6l0.5-0.2l0.4,0.2l0.3,0l0.4-0.7l-0.1-0.7l0.3-0.3l-0.1-0.6
			l0.4-1.2l-0.1-0.5l1-1L47,363l-1-0.1l-2.2-0.4l-0.6-0.7l-0.8,0l-0.4-0.3l-0.8,0.1l-0.2-0.2l-0.5-0.6l-0.5-0.1l-0.4-0.8l0.2-0.5
			l-0.4,0l-0.9,0.7l-0.4-0.3l0.3-0.8l-0.3-0.3l-0.8,0.2l-0.1-0.6c0,0-0.5-0.1-0.6-0.1c-0.1,0,0-0.6,0-0.6l-0.5-0.3
			c0,0-0.4,0.2-0.5,0.3c-0.1,0.1-0.5-0.4-0.5-0.4l-0.2-0.9l-0.8,0.2l-1.3,0.5l0,0.4l0,0.5l0,0.5l-0.1,0.4l0.3,0.3l-0.1,0.1l-0.3-0.1
			l-0.2,0.4l-0.6,0.4l-0.5,0.2l-0.5-0.1l-0.9,0.4l-0.3,0.1l-0.3,0.5l0.2,0.1l0.4-0.1l0.4,0.2l-0.5,0.1l-0.8,0.1l-0.2,0.3l-0.4,0.2
			l0-0.2l-0.5-0.2l-1-0.3l-0.2,0.2l0-0.1l-0.2-0.1l0.1-0.2l-0.1-0.3l0.1-0.2l-0.1-0.2l-0.2,0c0,0-0.4,0.1-0.4,0.2
			c0,0-0.3-0.2-0.3-0.2l-0.4-0.1l-0.1,0.1l0.2,0.2l0,0.4l0.2,0.4l0.1,0.1l0.1,0.4l0.1,0.2l-0.1,0.4l0.1,0.4l-0.1,0.6l0.2,0.2
			l0.2-0.1l0,0.3l-0.5,0.2l-0.1-0.1l-0.4-0.1l0-0.3l-0.4,0.2l-0.2,0l-0.2,0.1l-0.1-0.2l-0.1-0.1l-0.4,0.1l-0.5,0.4l-0.3-0.3l0-0.2
			l-0.4-0.6l-0.3-0.1l-0.7-0.1l-0.3,0.3l-0.4,0l-0.1,0.2l-0.3-0.2l-0.1-0.2l-0.4,0.1l-0.3,0.2l-0.1-0.2l-0.4,0l-0.2,0.2l-0.3,0
			l-0.3,0.7l0.4-0.1l0.4,0l0.2,0.1l0.2,0.3l-0.1,0.1l-0.2-0.1l-0.5-0.1l-0.1,0.2l0.2,0.1l0.5,0.1l-0.1,0.1l-0.6-0.1l-0.4,0.2
			l0.3,0.2l0.3,0.1l0.2,0.3l-0.1,0.4l0.4,0l0.2-0.2l0.1-0.3l0.1,0.4l0.2-0.2l0,0.2l0.2,0.2l0.1,0.1l0.4,0.1l0.1-0.2l0.2,0.3l0.2,0
			l0.1,0.1l0,0.2l0.3,0l0,0.2l0.1,0.1l0.2,0l0.2,0l0-0.1l0.5,0.1l0.1,0.2l0.2,0.1l0.1,0l0.1,0.2l0,0.3l-0.2,0l0.1,0.3l-0.1,0.1
			l0.1,0.1l0.2-0.2l0.3,0.1l0.4-0.2l-0.1,0.2l-0.1,0.2l-0.2,0.3l0.4,0.2l0,0.3l-0.1,0.3l-0.2,0.1l0.3,0.3l0.2,1l0.8,0.1l0,0.2
			l0.6,0.3l0.2,0l0,0.2l-0.2,0.1l0.2,0.1l0.2,0.5l0,0.1l-0.2-0.2l0.1,0.4l-0.1,0.1l0,0.2l-0.3,0.1l0,0.2l0.3,0.2l0.3,0.3l0.2,0.2
			l0.2,0.4l0.2,0.4l0,0.2l0,0.2l0.1,0.3l0.1,0.2l-0.2-0.1l-0.1-0.3l-0.7-1.4l-0.2,0.1l-0.1,0.9l-0.2,1.2l-0.1,0.8l0.3-0.3l0.3,0.2
			l-0.1,0.1l0.1,0l-0.1,0.1l-0.5,0l-0.2,0.3l-0.1,1.1l-0.1,0.5l-0.7,1.6l-0.1,0.1l-0.2,0.1l-0.4,0l0.1,0.2l0.2,0.1
			c0,0,0.1,0.1,0.2,0.1c0,0.1,0.3,0.4,0.3,0.4l-0.2,0.5l0.1,0.1l0.2,0l0.2-0.1c0,0,0.2,0,0.2,0c0,0,0.1,0,0.2,0.1
			c0.1,0.1,0.2,0.1,0.2,0.2c0,0,0,0.2,0.1,0.2c0.1,0,0.2-0.2,0.3-0.1c0.1,0.1,0.3,0,0.3,0s0.2,0.2,0.2,0.2c0,0,0,0.2,0.1,0.2
			c0.1,0,0.5,0,0.5,0l0.2,0l0.4,0.5l0.1-0.2l0.3,0.1l1.2,0.1l0.1-0.1l0.2,0.1l0.4-0.3l0.2,0l1,0.4l0.2,0.3l0.4,0l0.3,0l0.1,0.2
			l0.1,0.5l0.3,0l0.4,0.4l0.3,0l0.3-0.2l0.2,0l0.9,0.3l0.7-0.3l0.8,0.2l-0.2-0.8l-0.2-0.1l-0.1-0.4l0-0.3l0-0.5l-0.1-0.2l0.1-0.1
			l0.2,0.3l0.2-0.4l0.4-0.3l0.3,0l0.3,0l0.3-0.2l0.1-0.2l0.8-0.3l0.3,0.1l0.2-0.2l0.1,0.3l0.5,0l0.2,0.3l0.4,0l0.2-0.2l0.2,0.1
			l0,0.2l0.7,0l0.1,0.2l-0.2,0.2l0.3,0.2l0.2-0.2l0.5,0.2l0,0.2l0.3,0l0.2-0.1l0-0.2l0.5,0.2l0.2,0.1l0.1-0.2l0.2-0.1l0.2,0.2l0.2,0
			l-0.1-0.2l0.4-0.2l0.2,0.2l0.2-0.2l0-0.2l-0.4,0l0.4-0.3l-0.1-0.2l0.4,0.2l0.2-0.3l0.2-0.2l0.3,0.3L45.3,381.3z"/>
	</g>
	<line class="st2" x1="48" y1="406.5" x2="115" y2="406.5"/>
	<circle class="st12" cx="50" cy="406" r="7.5"/>
	<polyline class="st2" points="148,256.5 189,256.5 189,267 	"/>
	<circle class="st12" cx="147.5" cy="256.5" r="7.5"/>
	<g>
		<g>
			<path class="st9" d="M181.8,176l3.1-3.6c2.2-2.6,2.4-3.3,2.4-4.6c0-1.2-0.5-1.8-1.9-1.8c-1,0-1.9,0.3-2.7,0.6l-0.9-1.7
				c1-0.5,2.1-0.8,3.9-0.8c2.6,0,3.6,1.1,3.6,3.4c0,2-0.5,2.9-3,5.9l-2,2.4h5.2v1.8h-7.7V176z"/>
			<path class="st9" d="M191.4,171c0-4.4,0.6-6.8,4.5-6.8c3.8,0,4.4,2.4,4.4,6.8c0,4.6-0.6,6.8-4.4,6.8
				C192.1,177.8,191.4,175.5,191.4,171z M198.3,171c0-3.5-0.5-4.9-2.4-4.9c-2,0-2.4,1.3-2.4,4.9c0,3.6,0.4,4.9,2.4,4.9
				C197.9,175.9,198.3,174.5,198.3,171z"/>
			<path class="st9" d="M203.7,166.1h-1.9v-1.9h3.9v13.3h-2V166.1z"/>
			<path class="st9" d="M212.7,166.1h-5.5v-1.9h7.7v1.6l-3.9,11.7h-2.2L212.7,166.1z"/>
			<path class="st8" d="M182,197.1l3.3-4.1c2.6-3.2,2.9-4,2.9-5.5c0-1.5-0.5-2.1-2.2-2.1c-1.2,0-2.2,0.3-3,0.7l-0.8-1.6
				c1-0.5,2.2-0.9,4.1-0.9c2.8,0,3.8,1.2,3.8,3.7c0,2.2-0.6,3.2-3.4,6.8l-2.3,2.9h5.9v1.7H182V197.1z"/>
			<path class="st8" d="M192.2,192.6c0-5.9,0.3-8.8,6.4-8.8h1.1v1.7h-1.2c-3.8,0-4.2,1.7-4.4,4.3c0.6-0.8,1.7-1.2,3.4-1.2
				c3.3,0,3.9,1.9,3.9,4.8c0,3.5-0.9,5.3-4.5,5.3C192.8,198.8,192.2,196.6,192.2,192.6z M199.6,193.5c0-2.2-0.5-3.3-2.5-3.3
				c-1.7,0-2.9,0.9-2.9,3.1c0,2.6,0.5,3.7,2.8,3.7C199.1,197.1,199.6,195.9,199.6,193.5z"/>
			<path class="st8" d="M203.1,200c0.9-0.5,1.1-0.7,1.1-1.4h-1v-2.5h2.3v2.4c0,1.3-0.2,1.8-1.8,2.5L203.1,200z"/>
			<path class="st8" d="M207.3,192.6c0-5.9,0.3-8.8,6.4-8.8h1.1v1.7h-1.2c-3.8,0-4.2,1.7-4.4,4.3c0.6-0.8,1.7-1.2,3.4-1.2
				c3.3,0,3.9,1.9,3.9,4.8c0,3.5-0.9,5.3-4.5,5.3C207.9,198.8,207.3,196.6,207.3,192.6z M214.7,193.5c0-2.2-0.5-3.3-2.5-3.3
				c-1.7,0-2.9,0.9-2.9,3.1c0,2.6,0.5,3.7,2.8,3.7C214.2,197.1,214.7,195.9,214.7,193.5z"/>
			<path class="st8" d="M218.5,191.2c0-5.1,0.7-7.6,4.8-7.6c4,0,4.7,2.5,4.7,7.6c0,5.2-0.7,7.6-4.7,7.6
				C219.3,198.8,218.5,196.4,218.5,191.2z M226.1,191.2c0-4.2-0.6-5.8-2.8-5.8c-2.3,0-2.8,1.6-2.8,5.8c0,4.2,0.5,5.8,2.8,5.8
				C225.6,197.1,226.1,195.5,226.1,191.2z"/>
			<path class="st8" d="M233.4,188.9h1.9c0.3-3.6,1.5-5.2,4.6-5.2c1.4,0,2.5,0.3,3.4,0.8l-0.9,1.6c-0.7-0.4-1.4-0.6-2.5-0.6
				c-1.9,0-2.6,1.1-2.8,3.4h4.2v1.5H237v1.4h4.2v1.6h-4.2c0.2,2.5,0.9,3.7,2.8,3.7c1.1,0,1.9-0.4,2.5-0.7l0.9,1.5
				c-0.9,0.5-2,0.9-3.5,0.9c-3.1,0-4.3-1.7-4.5-5.4h-1.9v-1.6h1.8v-1.4h-1.8V188.9z"/>
		</g>
	</g>
	<polyline class="st2" points="186,111.5 199,111.5 199,158 	"/>
	<circle class="st12" cx="185.5" cy="111.5" r="7.5"/>
	<g>
		<g>
			<path class="st9" d="M259.8,53l3.1-3.6c2.2-2.6,2.4-3.3,2.4-4.6c0-1.2-0.5-1.8-1.9-1.8c-1,0-1.9,0.3-2.7,0.6l-0.9-1.7
				c1-0.5,2.1-0.8,3.9-0.8c2.6,0,3.6,1.1,3.6,3.4c0,2-0.5,2.9-3,5.9l-2,2.4h5.2v1.8h-7.7V53z"/>
			<path class="st9" d="M269.4,48c0-4.4,0.6-6.8,4.5-6.8c3.8,0,4.4,2.4,4.4,6.8c0,4.6-0.6,6.8-4.4,6.8
				C270.1,54.8,269.4,52.5,269.4,48z M276.3,48c0-3.5-0.5-4.9-2.4-4.9c-2,0-2.4,1.3-2.4,4.9c0,3.6,0.4,4.9,2.4,4.9
				C275.9,52.9,276.3,51.5,276.3,48z"/>
			<path class="st9" d="M281.7,43.1h-1.9v-1.9h3.9v13.3h-2V43.1z"/>
			<path class="st9" d="M287.5,52.9h1.3c3.1,0,3.6-1.3,3.7-3.5c-0.5,0.7-1.5,1-3,1c-3,0-3.6-1.8-3.6-4.4c0-3.2,0.9-4.8,4.2-4.8
				c4,0,4.5,2.1,4.5,5.7c0,5.3-0.4,7.8-5.9,7.8h-1.2V52.9z M292.5,46c0-2.1-0.4-3.1-2.4-3.1c-1.7,0-2.2,1-2.2,3
				c0,1.8,0.5,2.7,2.1,2.7C291.5,48.7,292.5,48,292.5,46z"/>
			<path class="st8" d="M260,74.1l3.3-4.1c2.6-3.2,2.9-4,2.9-5.5c0-1.5-0.5-2.1-2.2-2.1c-1.2,0-2.2,0.3-3,0.7l-0.8-1.6
				c1-0.5,2.2-0.9,4.1-0.9c2.8,0,3.8,1.2,3.8,3.7c0,2.2-0.6,3.2-3.4,6.8l-2.3,2.9h5.9v1.7H260V74.1z"/>
			<path class="st8" d="M275.4,62.5h-6.1v-1.7h8.2v1.5L273,75.6h-2L275.4,62.5z"/>
			<path class="st8" d="M277.3,77c0.9-0.5,1.1-0.7,1.1-1.4h-1v-2.5h2.3v2.4c0,1.3-0.2,1.8-1.8,2.5L277.3,77z"/>
			<path class="st8" d="M281.5,69.6c0-5.9,0.3-8.8,6.4-8.8h1.1v1.7h-1.2c-3.8,0-4.2,1.7-4.4,4.3c0.6-0.8,1.7-1.2,3.4-1.2
				c3.3,0,3.9,1.9,3.9,4.8c0,3.5-0.9,5.3-4.5,5.3C282.1,75.8,281.5,73.6,281.5,69.6z M288.9,70.5c0-2.2-0.5-3.3-2.5-3.3
				c-1.7,0-2.9,0.9-2.9,3.1c0,2.6,0.5,3.7,2.8,3.7C288.4,74.1,288.9,72.9,288.9,70.5z"/>
			<path class="st8" d="M292.8,68.2c0-5.1,0.7-7.6,4.8-7.6c4,0,4.7,2.5,4.7,7.6c0,5.2-0.7,7.6-4.7,7.6
				C293.5,75.8,292.8,73.4,292.8,68.2z M300.4,68.2c0-4.2-0.6-5.8-2.8-5.8c-2.3,0-2.8,1.6-2.8,5.8c0,4.2,0.5,5.8,2.8,5.8
				C299.8,74.1,300.4,72.5,300.4,68.2z"/>
			<path class="st8" d="M307.6,65.9h1.9c0.3-3.6,1.5-5.2,4.6-5.2c1.4,0,2.5,0.3,3.4,0.8l-0.9,1.6c-0.7-0.4-1.4-0.6-2.5-0.6
				c-1.9,0-2.6,1.1-2.8,3.4h4.2v1.5h-4.2v1.4h4.2v1.6h-4.2c0.2,2.5,0.9,3.7,2.8,3.7c1.1,0,1.9-0.4,2.5-0.7l0.9,1.5
				c-0.9,0.5-2,0.9-3.5,0.9c-3.1,0-4.3-1.7-4.5-5.4h-1.9v-1.6h1.8v-1.4h-1.8V65.9z"/>
		</g>
	</g>
	<g>
		<polyline class="st2" points="257,17.5 286,17.5 286,32.5 		"/>
		<circle class="st12" cx="256.5" cy="17.5" r="7.5"/>
	</g>
	<circle class="st8" cx="276.8" cy="130.5" r="41"/>
	<g class="st13">
		<polygon class="st14" points="262.2,110.2 269.4,110.2 269.4,119 284.1,119 284.1,110.5 291.3,110.5 276.9,95.5 		"/>
	</g>
	<g>
		<path class="st14" d="M241.4,139.6h-2.8v-3.5h2.8v-4.5h3.1v4.5h2.8v3.5h-2.8v4.5h-3.1V139.6z"/>
		<path class="st14" d="M248.7,144.6l4.6-9.7c0.3-0.8,0.6-1.5,0.6-2.3c0-0.9-0.4-1.7-1.5-1.7c-1,0-1.8,0.3-2.6,0.7l-1.2-3.2
			c1-0.5,2.3-0.9,4.1-0.9c3.3,0,4.4,1.5,4.4,4.4c0,1.9-0.5,3.2-1.2,4.6l-3.7,7.9h4.8v3.3h-8.3V144.6z"/>
		<path class="st14" d="M260.2,146.6c-1.4-1.5-1.5-4.5-1.5-8.9c0-4,0.1-7.1,1.4-8.7c0.7-0.9,1.8-1.5,3.5-1.5c1.7,0,2.8,0.6,3.5,1.5
			c1.3,1.6,1.4,4.7,1.4,8.7c0,4.3-0.1,7.3-1.5,8.8c-0.7,0.8-1.8,1.3-3.4,1.3C262,147.9,260.9,147.3,260.2,146.6z M265.2,137.7
			c0-5.5,0-6.7-1.6-6.7c-1.6,0-1.7,1.2-1.7,6.7s0,6.7,1.7,6.7C265.1,144.5,265.2,143.2,265.2,137.7z"/>
		<path class="st14" d="M269.9,149.7c1.2-0.9,1.4-1,1.4-2h-1.4v-4.6h3.5v4.4c0,1.6-0.3,2.6-2.5,4L269.9,149.7z"/>
		<path class="st14" d="M274.3,146.9l1.2-3.1c0.6,0.3,1.5,0.7,2.9,0.7c1.5,0,1.8-0.7,1.8-3.6c0-2.8-0.3-3.3-1.5-3.3
			c-0.7,0-1.1,0.2-1.5,0.5l-2.3-0.8l0.3-9.6h7.4v3.5h-4.7l-0.1,3.5c0.4-0.3,1-0.5,2-0.5c3,0,3.5,1.9,3.5,6.8c0,4.9-0.7,6.9-4.7,6.9
			C276.3,147.9,275.3,147.5,274.3,146.9z"/>
		<path class="st14" d="M284.3,144.6l4.6-9.7c0.3-0.8,0.6-1.5,0.6-2.3c0-0.9-0.4-1.7-1.5-1.7c-1,0-1.8,0.3-2.6,0.7l-1.2-3.2
			c1-0.5,2.3-0.9,4.1-0.9c3.3,0,4.4,1.5,4.4,4.4c0,1.9-0.5,3.2-1.2,4.6l-3.7,7.9h4.8v3.3h-8.3V144.6z"/>
		<path class="st14" d="M297.9,139.5c-1-1.1-1.1-3-1.1-5.5c0-2.3,0.1-4.2,1-5.3c0.6-0.7,1.5-1.2,2.8-1.2c1.3,0,2.2,0.5,2.8,1.2
			c0.9,1.1,1,3,1,5.3c0,2.5-0.1,4.4-1.1,5.5c-0.6,0.6-1.5,1.1-2.7,1.1S298.5,140.1,297.9,139.5z M301.6,134.1c0-2.8-0.1-3.6-1-3.6
			c-1,0-1,0.8-1,3.6s0,3.6,1,3.6C301.5,137.7,301.6,136.8,301.6,134.1z M308,127.7h2.7l-6.1,20h-2.7L308,127.7z M309.3,146.9
			c-1-1.1-1.1-3-1.1-5.5c0-2.3,0.1-4.2,1-5.3c0.6-0.7,1.5-1.2,2.8-1.2c1.3,0,2.2,0.5,2.8,1.2c0.9,1.1,1,3,1,5.3
			c0,2.5-0.1,4.4-1.2,5.5c-0.6,0.6-1.5,1.1-2.6,1.1S309.9,147.5,309.3,146.9z M313,141.4c0-2.8,0-3.6-1-3.6c-1,0-1,0.8-1,3.6
			s0,3.6,1,3.6C313,145.1,313,144.2,313,141.4z"/>
	</g>
</g>
<g id="A62_Source">
</g>
<g id="A62" class="st15">
</g>
</svg>
