<?xml version="1.0" encoding="utf-8"?>
<!-- Generator: Adobe Illustrator 21.1.0, SVG Export Plug-In . SVG Version: 6.00 Build 0)  -->
<svg version="1.1" id="Calque_1" xmlns="http://www.w3.org/2000/svg" xmlns:xlink="http://www.w3.org/1999/xlink" x="0px" y="0px"
	 viewBox="0 0 320 415" style="enable-background:new 0 0 320 415;" xml:space="preserve">
<metadata><?xpacket begin="﻿" id="W5M0MpCehiHzreSzNTczkc9d"?>
<x:xmpmeta xmlns:x="adobe:ns:meta/" x:xmptk="Adobe XMP Core 5.6-c137 79.159768, 2016/08/11-13:24:42        ">
   <rdf:RDF xmlns:rdf="http://www.w3.org/1999/02/22-rdf-syntax-ns#">
      <rdf:Description rdf:about=""/>
   </rdf:RDF>
</x:xmpmeta>
                                                                                                    
                                                                                                    
                                                                                                    
                                                                                                    
                                                                                                    
                                                                                                    
                                                                                                    
                                                                                                    
                                                                                                    
                                                                                                    
                                                                                                    
                                                                                                    
                                                                                                    
                                                                                                    
                                                                                                    
                                                                                                    
                                                                                                    
                                                                                                    
                                                                                                    
                                                                                                    
                           
<?xpacket end="w"?></metadata>
<style type="text/css">
	.st0{fill:none;}
	.st1{fill:none;stroke:#1D1D1B;stroke-width:0.3;stroke-linejoin:round;}
	.st2{fill:#F6D5D1;}
	.st3{opacity:0.27;fill:url(#SVGID_1_);enable-background:new    ;}
	.st4{fill:url(#SVGID_2_);}
	.st5{fill:none;stroke:#871103;stroke-width:1.5;stroke-miterlimit:10;}
	.st6{fill:#D42E1A;}
	.st7{fill:none;stroke:#D42E1A;stroke-width:3;stroke-linecap:round;stroke-linejoin:round;stroke-miterlimit:10;}
	.st8{fill:none;stroke:#000000;stroke-miterlimit:10;}
	.st9{fill:#FFFFFF;stroke:#000000;stroke-width:0.75;stroke-miterlimit:10;}
	.st10{opacity:0.7;}
	.st11{fill:#FFFFFF;}
	.st12{enable-background:new    ;}
	.st13{fill:#808080;}
	.st14{fill:#871103;}
	.st15{fill:none;stroke:#871103;stroke-width:0.75;stroke-miterlimit:10;}
</style>
<pattern  y="415" width="72" height="72" patternUnits="userSpaceOnUse" id="SVGID_5_" viewBox="79.6 -148.6 72 72" style="overflow:visible;">
	<g>
		<rect x="79.6" y="-148.6" class="st0" width="72" height="72"/>
		<g>
			<rect x="79.6" y="-148.6" class="st0" width="72" height="72"/>
			<g>
				<rect x="79.6" y="-148.6" class="st0" width="72" height="72"/>
				<g>
					<line class="st1" x1="144.1" y1="-66.1" x2="162.1" y2="-84.1"/>
					<line class="st1" x1="144.1" y1="-60.1" x2="168.1" y2="-84.1"/>
					<line class="st1" x1="144.1" y1="-54.1" x2="174.1" y2="-84.1"/>
					<line class="st1" x1="144.1" y1="-48.1" x2="180.1" y2="-84.1"/>
					<line class="st1" x1="144.1" y1="-42.1" x2="186.1" y2="-84.1"/>
					<line class="st1" x1="144.1" y1="-36.1" x2="192.1" y2="-84.1"/>
					<line class="st1" x1="144.1" y1="-30.1" x2="198.1" y2="-84.1"/>
					<line class="st1" x1="144.1" y1="-24.1" x2="204.1" y2="-84.1"/>
					<line class="st1" x1="144.1" y1="-18.1" x2="210.1" y2="-84.1"/>
					<line class="st1" x1="144.1" y1="-12.1" x2="216.1" y2="-84.1"/>
					<line class="st1" x1="144.1" y1="-6.1" x2="222.1" y2="-84.1"/>
					<line class="st1" x1="144.1" y1="-0.1" x2="228.1" y2="-84.1"/>
					<line class="st1" x1="150.1" y1="-0.1" x2="228.1" y2="-78.1"/>
				</g>
				<g>
					<line class="st1" x1="72.1" y1="-66.1" x2="90.1" y2="-84.1"/>
					<line class="st1" x1="72.1" y1="-60.1" x2="96.1" y2="-84.1"/>
					<line class="st1" x1="72.1" y1="-54.1" x2="102.1" y2="-84.1"/>
					<line class="st1" x1="72.1" y1="-48.1" x2="108.1" y2="-84.1"/>
					<line class="st1" x1="72.1" y1="-42.1" x2="114.1" y2="-84.1"/>
					<line class="st1" x1="72.1" y1="-36.1" x2="120.1" y2="-84.1"/>
					<line class="st1" x1="72.1" y1="-30.1" x2="126.1" y2="-84.1"/>
					<line class="st1" x1="72.1" y1="-24.1" x2="132.1" y2="-84.1"/>
					<line class="st1" x1="72.1" y1="-18.1" x2="138.1" y2="-84.1"/>
					<line class="st1" x1="72.1" y1="-12.1" x2="144.1" y2="-84.1"/>
					<line class="st1" x1="72.1" y1="-6.1" x2="150.1" y2="-84.1"/>
					<line class="st1" x1="72.1" y1="-0.1" x2="156.1" y2="-84.1"/>
					<line class="st1" x1="78.1" y1="-0.1" x2="156.1" y2="-78.1"/>
				</g>
				<g>
					<line class="st1" x1="0.1" y1="-0.1" x2="84.1" y2="-84.1"/>
					<line class="st1" x1="6.1" y1="-0.1" x2="84.1" y2="-78.1"/>
				</g>
				<g>
					<line class="st1" x1="144.1" y1="-138.1" x2="162.1" y2="-156.1"/>
					<line class="st1" x1="144.1" y1="-132.1" x2="168.1" y2="-156.1"/>
					<line class="st1" x1="144.1" y1="-126.1" x2="174.1" y2="-156.1"/>
					<line class="st1" x1="144.1" y1="-120.1" x2="180.1" y2="-156.1"/>
					<line class="st1" x1="144.1" y1="-114.1" x2="186.1" y2="-156.1"/>
					<line class="st1" x1="144.1" y1="-108.1" x2="192.1" y2="-156.1"/>
					<line class="st1" x1="144.1" y1="-102.1" x2="198.1" y2="-156.1"/>
					<line class="st1" x1="144.1" y1="-96.1" x2="204.1" y2="-156.1"/>
					<line class="st1" x1="144.1" y1="-90.1" x2="210.1" y2="-156.1"/>
					<line class="st1" x1="144.1" y1="-84.1" x2="216.1" y2="-156.1"/>
					<line class="st1" x1="144.1" y1="-78.1" x2="222.1" y2="-156.1"/>
					<line class="st1" x1="144.1" y1="-72.1" x2="228.1" y2="-156.1"/>
					<line class="st1" x1="150.1" y1="-72.1" x2="228.1" y2="-150.1"/>
				</g>
				<g>
					<line class="st1" x1="72.1" y1="-138.1" x2="90.1" y2="-156.1"/>
					<line class="st1" x1="72.1" y1="-132.1" x2="96.1" y2="-156.1"/>
					<line class="st1" x1="72.1" y1="-126.1" x2="102.1" y2="-156.1"/>
					<line class="st1" x1="72.1" y1="-120.1" x2="108.1" y2="-156.1"/>
					<line class="st1" x1="72.1" y1="-114.1" x2="114.1" y2="-156.1"/>
					<line class="st1" x1="72.1" y1="-108.1" x2="120.1" y2="-156.1"/>
					<line class="st1" x1="72.1" y1="-102.1" x2="126.1" y2="-156.1"/>
					<line class="st1" x1="72.1" y1="-96.1" x2="132.1" y2="-156.1"/>
					<line class="st1" x1="72.1" y1="-90.1" x2="138.1" y2="-156.1"/>
					<line class="st1" x1="72.1" y1="-84.1" x2="144.1" y2="-156.1"/>
					<line class="st1" x1="72.1" y1="-78.1" x2="150.1" y2="-156.1"/>
					<line class="st1" x1="72.1" y1="-72.1" x2="156.1" y2="-156.1"/>
					<line class="st1" x1="78.1" y1="-72.1" x2="156.1" y2="-150.1"/>
					<line class="st1" x1="84.1" y1="-72.1" x2="156.1" y2="-144.1"/>
					<line class="st1" x1="90.1" y1="-72.1" x2="156.1" y2="-138.1"/>
					<line class="st1" x1="96.1" y1="-72.1" x2="156.1" y2="-132.1"/>
					<line class="st1" x1="102.1" y1="-72.1" x2="156.1" y2="-126.1"/>
					<line class="st1" x1="108.1" y1="-72.1" x2="156.1" y2="-120.1"/>
					<line class="st1" x1="114.1" y1="-72.1" x2="156.1" y2="-114.1"/>
					<line class="st1" x1="120.1" y1="-72.1" x2="156.1" y2="-108.1"/>
					<line class="st1" x1="126.1" y1="-72.1" x2="156.1" y2="-102.1"/>
					<line class="st1" x1="132.1" y1="-72.1" x2="156.1" y2="-96.1"/>
					<line class="st1" x1="138.1" y1="-72.1" x2="156.1" y2="-90.1"/>
					<line class="st1" x1="144.1" y1="-72.1" x2="156.1" y2="-84.1"/>
				</g>
				<g>
					<line class="st1" x1="0.1" y1="-72.1" x2="84.1" y2="-156.1"/>
					<line class="st1" x1="6.1" y1="-72.1" x2="84.1" y2="-150.1"/>
					<line class="st1" x1="12.1" y1="-72.1" x2="84.1" y2="-144.1"/>
					<line class="st1" x1="18.1" y1="-72.1" x2="84.1" y2="-138.1"/>
					<line class="st1" x1="24.1" y1="-72.1" x2="84.1" y2="-132.1"/>
					<line class="st1" x1="30.1" y1="-72.1" x2="84.1" y2="-126.1"/>
					<line class="st1" x1="36.1" y1="-72.1" x2="84.1" y2="-120.1"/>
					<line class="st1" x1="42.1" y1="-72.1" x2="84.1" y2="-114.1"/>
					<line class="st1" x1="48.1" y1="-72.1" x2="84.1" y2="-108.1"/>
					<line class="st1" x1="54.1" y1="-72.1" x2="84.1" y2="-102.1"/>
					<line class="st1" x1="60.1" y1="-72.1" x2="84.1" y2="-96.1"/>
					<line class="st1" x1="66.1" y1="-72.1" x2="84.1" y2="-90.1"/>
					<line class="st1" x1="72.1" y1="-72.1" x2="84.1" y2="-84.1"/>
				</g>
				<g>
					<line class="st1" x1="144.1" y1="-144.1" x2="228.1" y2="-228.1"/>
					<line class="st1" x1="150.1" y1="-144.1" x2="228.1" y2="-222.1"/>
				</g>
				<g>
					<line class="st1" x1="72.1" y1="-144.1" x2="156.1" y2="-228.1"/>
					<line class="st1" x1="78.1" y1="-144.1" x2="156.1" y2="-222.1"/>
					<line class="st1" x1="84.1" y1="-144.1" x2="156.1" y2="-216.1"/>
					<line class="st1" x1="90.1" y1="-144.1" x2="156.1" y2="-210.1"/>
					<line class="st1" x1="96.1" y1="-144.1" x2="156.1" y2="-204.1"/>
					<line class="st1" x1="102.1" y1="-144.1" x2="156.1" y2="-198.1"/>
					<line class="st1" x1="108.1" y1="-144.1" x2="156.1" y2="-192.1"/>
					<line class="st1" x1="114.1" y1="-144.1" x2="156.1" y2="-186.1"/>
					<line class="st1" x1="120.1" y1="-144.1" x2="156.1" y2="-180.1"/>
					<line class="st1" x1="126.1" y1="-144.1" x2="156.1" y2="-174.1"/>
					<line class="st1" x1="132.1" y1="-144.1" x2="156.1" y2="-168.1"/>
					<line class="st1" x1="138.1" y1="-144.1" x2="156.1" y2="-162.1"/>
					<line class="st1" x1="144.1" y1="-144.1" x2="156.1" y2="-156.1"/>
				</g>
				<g>
					<line class="st1" x1="0.1" y1="-144.1" x2="84.1" y2="-228.1"/>
					<line class="st1" x1="6.1" y1="-144.1" x2="84.1" y2="-222.1"/>
					<line class="st1" x1="12.1" y1="-144.1" x2="84.1" y2="-216.1"/>
					<line class="st1" x1="18.1" y1="-144.1" x2="84.1" y2="-210.1"/>
					<line class="st1" x1="24.1" y1="-144.1" x2="84.1" y2="-204.1"/>
					<line class="st1" x1="30.1" y1="-144.1" x2="84.1" y2="-198.1"/>
					<line class="st1" x1="36.1" y1="-144.1" x2="84.1" y2="-192.1"/>
					<line class="st1" x1="42.1" y1="-144.1" x2="84.1" y2="-186.1"/>
					<line class="st1" x1="48.1" y1="-144.1" x2="84.1" y2="-180.1"/>
					<line class="st1" x1="54.1" y1="-144.1" x2="84.1" y2="-174.1"/>
					<line class="st1" x1="60.1" y1="-144.1" x2="84.1" y2="-168.1"/>
					<line class="st1" x1="66.1" y1="-144.1" x2="84.1" y2="-162.1"/>
					<line class="st1" x1="72.1" y1="-144.1" x2="84.1" y2="-156.1"/>
				</g>
			</g>
		</g>
	</g>
</pattern>
<g id="A89">
	<g>
		<polygon class="st2" points="21.1,15.9 21.1,407 39.3,407.5 61.3,358.5 95.3,308.5 95.3,256.5 126,211.5 161.3,161.5 193.3,114.5 
			227.3,64.5 258.1,15.9 		"/>
		<pattern  id="SVGID_1_" xlink:href="#SVGID_5_" patternTransform="matrix(0 1.104 -0.92 0 -31475.0723 -522.8737)">
		</pattern>
		<polygon class="st3" points="21.1,15.9 21.1,407 39.3,407.5 61.3,358.5 95.3,308.5 95.3,256.5 126,211.5 161.3,161.5 193.3,114.5 
			227.3,64.5 258.1,15.9 		"/>
	</g>
	
		<linearGradient id="SVGID_2_" gradientUnits="userSpaceOnUse" x1="21.1" y1="587.45" x2="258.1" y2="587.45" gradientTransform="matrix(1 0 0 1 0 -376)">
		<stop  offset="0" style="stop-color:#FFFFFF"/>
		<stop  offset="1" style="stop-color:#FFFFFF;stop-opacity:0"/>
	</linearGradient>
	<polygon class="st4" points="21.1,15.9 21.1,407 38.3,406.5 63.3,353.5 94.3,306.5 95.3,256.5 126,211.5 161.3,162.5 192.3,114.5 
		227.3,65.5 258.1,15.9 	"/>
	<polyline class="st5" points="39.1,402.9 95.9,354.3 118.5,305.7 135.6,257 135.6,208.4 141.2,159.8 172.4,111.1 226.3,62.5 	"/>
	<g>
		<polygon class="st6" points="266.2,184.9 265.4,184.9 261.1,192.4 262.4,192.4 		"/>
		<polygon class="st6" points="255.6,201.7 239.8,228.7 243.5,228.7 257.5,201.7 		"/>
		<polygon class="st6" points="244.8,228.7 262.9,228.7 266.5,201.7 258.1,201.7 		"/>
		<polygon class="st6" points="269.1,203 269.1,203.5 269.1,213.1 269.1,217.9 269.1,228.7 269.9,228.7 269.9,217.9 269.9,213.1 
			269.9,203.5 269.9,203 269.9,201.7 269.1,201.7 		"/>
		<polygon class="st6" points="276.1,192.4 272.4,184.9 270.4,184.9 271.3,192.4 		"/>
		<rect x="269.1" y="184.9" class="st6" width="0.9" height="7.5"/>
		<polygon class="st6" points="272.5,201.7 276.1,228.7 292.2,228.7 294.1,228.7 280.7,201.7 		"/>
		<polygon class="st6" points="267.7,192.4 268.7,184.9 266.5,184.9 262.8,192.4 		"/>
		<polygon class="st6" points="283.3,201.7 281.4,201.7 295.3,228.7 299,228.7 		"/>
		<polygon class="st6" points="277.8,192.4 273.5,184.9 272.6,184.9 276.5,192.4 		"/>
		<polygon class="st6" points="280.7,200.4 282.5,200.4 286.9,200.4 287.3,201 287.7,201.7 289.5,204.9 291.4,204.9 291.4,201.7 
			291.4,201 291.4,200.5 291.4,200.4 294.1,200.4 294.1,193.7 278.6,193.7 277.2,193.7 276.7,193.7 271.5,193.7 269.9,193.7 
			269.9,193.7 269.1,193.7 269.1,193.7 267.5,193.7 262.1,193.7 261.7,193.7 260.3,193.7 245.1,193.7 245.1,200.4 247.9,200.4 
			247.9,200.5 247.9,201 247.9,201.7 247.9,204.9 249.7,204.9 251.6,201.7 251.9,201 252.4,200.4 256.4,200.4 258.2,200.4 
			258.7,200.4 266.6,200.4 269.1,200.4 269.9,200.4 272.4,200.4 280.1,200.4 		"/>
	</g>
	<g>
		<g>
			<polyline class="st7" points="40.3,404 62.4,355.1 95.6,306.2 95.6,257.4 128.7,208.5 161.9,159.6 195,110.7 228.2,61.8 
				261.3,12.9 			"/>
		</g>
	</g>
	<line class="st8" x1="47.3" y1="405" x2="114.3" y2="405"/>
	<circle class="st9" cx="39.7" cy="404" r="7.5"/>
	<line class="st8" x1="97.7" y1="256.5" x2="164.7" y2="256.5"/>
	<circle class="st9" cx="97.2" cy="256.5" r="7.5"/>
	<g>
		<polyline class="st8" points="260.7,15.5 276.7,15.5 276.7,30.5 		"/>
		<circle class="st9" cx="260.2" cy="15.5" r="7.5"/>
	</g>
	<circle class="st6" cx="269.4" cy="132.5" r="41"/>
	<g class="st10">
		<polygon class="st11" points="254.9,112.2 262.1,112.2 262.1,121 276.8,121 276.8,112.5 284,112.5 269.6,97.5 		"/>
	</g>
	<g>
		<g class="st12">
			<path class="st13" d="M117.5,387l3.1-3.6c2.3-2.6,2.4-3.3,2.4-4.6c0-1.2-0.5-1.8-1.9-1.8c-1,0-1.9,0.3-2.7,0.6l-0.9-1.7
				c1-0.5,2.1-0.8,3.9-0.8c2.6,0,3.6,1.1,3.6,3.4c0,2-0.5,2.9-3,5.9l-2,2.4h5.2v1.8h-7.7V387z"/>
			<path class="st13" d="M127.1,382c0-4.4,0.6-6.8,4.5-6.8c3.8,0,4.4,2.4,4.4,6.8c0,4.6-0.6,6.8-4.4,6.8
				C127.7,388.8,127.1,386.5,127.1,382z M134,382c0-3.5-0.4-4.9-2.4-4.9s-2.4,1.3-2.4,4.9s0.4,4.9,2.4,4.9S134,385.5,134,382z"/>
			<path class="st13" d="M139.3,377.1h-1.9v-1.9h3.9v13.3h-2V377.1z"/>
			<path class="st13" d="M145.2,377.1h-1.9v-1.9h3.9v13.3h-2V377.1z"/>
		</g>
		<g class="st12">
			<path class="st6" d="M117.5,408.9l0.9-1.5c0.9,0.5,1.7,0.8,2.9,0.8c2,0,2.7-0.7,2.7-2.9c0-1.6-0.3-2.6-2.8-2.6h-1.8V401h1.9
				c1.9,0,2.3-0.9,2.3-2.2c0-1.8-0.7-2.2-2.3-2.2c-1,0-2,0.3-2.8,0.7l-0.8-1.5c1-0.6,2.3-0.9,3.9-0.9c2.5,0,3.9,0.7,3.9,3.6
				c0,2-0.5,2.9-1.6,3.3c1.5,0.4,1.9,1.4,1.9,3.8c0,3.3-1.4,4.4-4.4,4.4C119.6,409.8,118.6,409.5,117.5,408.9z"/>
			<path class="st6" d="M129.4,396.5h-2.2v-1.7h4v14.8h-1.9L129.4,396.5L129.4,396.5z"/>
			<path class="st6" d="M134,411c0.9-0.5,1.1-0.7,1.1-1.4h-1v-2.5h2.3v2.4c0,1.3-0.2,1.8-1.8,2.5L134,411z"/>
			<path class="st6" d="M139.1,408h1.3c3.7,0,4.2-1.6,4.4-4.3c-0.6,0.8-1.7,1.2-3.4,1.2c-3.3,0-3.9-1.9-3.9-4.8
				c0-3.5,0.9-5.4,4.5-5.4c4.2,0,4.7,2.2,4.7,6.2c0,6-0.4,8.8-6.4,8.8h-1.2L139.1,408L139.1,408z M144.7,400.1
				c0-2.6-0.5-3.7-2.8-3.7c-2.1,0-2.6,1.2-2.6,3.6c0,2.1,0.5,3.2,2.5,3.2C143.5,403.3,144.7,402.4,144.7,400.1z"/>
			<path class="st6" d="M148.9,402.2c0-5.1,0.7-7.6,4.8-7.6c4,0,4.7,2.5,4.7,7.6c0,5.2-0.7,7.6-4.7,7.6
				C149.6,409.8,148.9,407.4,148.9,402.2z M156.5,402.2c0-4.2-0.6-5.8-2.8-5.8c-2.3,0-2.8,1.6-2.8,5.8c0,4.2,0.5,5.8,2.8,5.8
				C156,408.1,156.5,406.5,156.5,402.2z"/>
			<path class="st6" d="M163.7,399.9h1.9c0.3-3.6,1.5-5.2,4.6-5.2c1.4,0,2.5,0.3,3.4,0.8l-0.9,1.6c-0.7-0.4-1.4-0.6-2.5-0.6
				c-1.9,0-2.6,1.1-2.8,3.4h4.2v1.5h-4.2v1.4h4.2v1.6h-4.2c0.2,2.5,0.9,3.7,2.8,3.7c1.1,0,1.9-0.4,2.5-0.7l0.9,1.5
				c-0.9,0.5-2,0.9-3.5,0.9c-3.1,0-4.3-1.7-4.5-5.4h-1.9v-1.6h1.8v-1.4h-1.8V399.9z"/>
		</g>
	</g>
	<g>
		<g class="st12">
			<path class="st13" d="M167.8,261l3.1-3.6c2.3-2.6,2.4-3.3,2.4-4.6c0-1.2-0.5-1.8-1.9-1.8c-1,0-1.9,0.3-2.7,0.6l-0.9-1.7
				c1-0.5,2.1-0.8,3.9-0.8c2.6,0,3.6,1.1,3.6,3.4c0,2-0.5,2.9-3,5.9l-2,2.4h5.2v1.8h-7.7L167.8,261L167.8,261z"/>
			<path class="st13" d="M177.4,256c0-4.4,0.6-6.8,4.5-6.8c3.8,0,4.4,2.4,4.4,6.8c0,4.6-0.6,6.8-4.4,6.8S177.4,260.5,177.4,256z
				 M184.3,256c0-3.5-0.4-4.9-2.4-4.9s-2.4,1.3-2.4,4.9c0,3.6,0.4,4.9,2.4,4.9C183.9,260.9,184.3,259.5,184.3,256z"/>
			<path class="st13" d="M189.7,251.1h-1.9v-1.9h3.9v13.3h-2V251.1z"/>
			<path class="st13" d="M193.6,258.2l4.7-8.9h2.1l-4.6,8.8h3.3l0.4-4h1.5v4h1.7v1.7H201v2.9h-1.9v-2.9h-5.4v-1.6H193.6z"/>
		</g>
		<g class="st12">
			<path class="st6" d="M167.9,282.9l0.9-1.5c0.9,0.5,1.7,0.8,2.9,0.8c2,0,2.7-0.7,2.7-2.9c0-1.6-0.3-2.6-2.8-2.6h-1.8V275h1.9
				c1.9,0,2.3-0.9,2.3-2.2c0-1.8-0.7-2.2-2.3-2.2c-1,0-2,0.3-2.8,0.7l-0.8-1.5c1-0.6,2.3-0.9,3.9-0.9c2.5,0,3.9,0.7,3.9,3.6
				c0,2-0.5,2.9-1.6,3.3c1.5,0.4,1.9,1.4,1.9,3.8c0,3.3-1.4,4.4-4.4,4.4C170,283.8,168.9,283.5,167.9,282.9z"/>
			<path class="st6" d="M177.8,278.8l5.2-10h2l-5.2,9.9h4l0.4-4.6h1.4v4.6h2v1.6h-2v3.4h-1.8v-3.4h-5.9L177.8,278.8L177.8,278.8z"/>
			<path class="st6" d="M188.9,285c0.9-0.5,1.1-0.7,1.1-1.4h-1v-2.5h2.3v2.4c0,1.3-0.2,1.8-1.8,2.5L188.9,285z"/>
			<path class="st6" d="M193.1,277.6c0-5.9,0.3-8.8,6.4-8.8h1.1v1.7h-1.2c-3.8,0-4.2,1.7-4.4,4.3c0.6-0.8,1.7-1.2,3.4-1.2
				c3.3,0,3.9,1.9,3.9,4.8c0,3.5-0.9,5.3-4.5,5.3C193.7,283.8,193.1,281.6,193.1,277.6z M200.5,278.5c0-2.2-0.5-3.3-2.5-3.3
				c-1.7,0-2.9,0.9-2.9,3.1c0,2.6,0.5,3.7,2.8,3.7C200,282.1,200.5,280.9,200.5,278.5z"/>
			<path class="st6" d="M204.4,276.2c0-5.1,0.7-7.6,4.8-7.6c4,0,4.7,2.5,4.7,7.6c0,5.2-0.7,7.6-4.7,7.6
				C205.1,283.8,204.4,281.4,204.4,276.2z M212,276.2c0-4.2-0.6-5.8-2.8-5.8c-2.3,0-2.8,1.6-2.8,5.8c0,4.2,0.5,5.8,2.8,5.8
				C211.4,282.1,212,280.5,212,276.2z"/>
			<path class="st6" d="M219.2,273.9h1.9c0.3-3.6,1.5-5.2,4.6-5.2c1.4,0,2.5,0.3,3.4,0.8l-0.9,1.6c-0.7-0.4-1.4-0.6-2.5-0.6
				c-1.9,0-2.6,1.1-2.8,3.4h4.2v1.5h-4.2v1.4h4.2v1.6h-4.2c0.2,2.5,0.9,3.7,2.8,3.7c1.1,0,1.9-0.4,2.5-0.7l0.9,1.5
				c-0.9,0.5-2,0.9-3.5,0.9c-3.1,0-4.3-1.7-4.5-5.4h-1.9v-1.6h1.8v-1.4h-1.8V273.9z"/>
		</g>
	</g>
	<g>
		<g class="st12">
			<path class="st13" d="M256.8,47l3.1-3.6c2.3-2.6,2.4-3.3,2.4-4.6c0-1.2-0.5-1.8-1.9-1.8c-1,0-1.9,0.3-2.7,0.6l-0.9-1.7
				c1-0.5,2.1-0.8,3.9-0.8c2.6,0,3.6,1.1,3.6,3.4c0,2-0.5,2.9-3,5.9l-2,2.4h5.2v1.8h-7.7V47z"/>
			<path class="st13" d="M266.4,42c0-4.4,0.6-6.8,4.5-6.8c3.8,0,4.4,2.4,4.4,6.8c0,4.6-0.6,6.8-4.4,6.8S266.4,46.5,266.4,42z
				 M273.3,42c0-3.5-0.4-4.9-2.4-4.9s-2.4,1.3-2.4,4.9c0,3.6,0.4,4.9,2.4,4.9S273.3,45.5,273.3,42z"/>
			<path class="st13" d="M278.7,37.1h-1.9v-1.9h3.9v13.3h-2V37.1z"/>
			<path class="st13" d="M284.5,46.9h1.3c3.1,0,3.6-1.3,3.7-3.5c-0.5,0.7-1.5,1-3,1c-3,0-3.6-1.8-3.6-4.4c0-3.2,0.9-4.8,4.2-4.8
				c4,0,4.5,2.1,4.5,5.7c0,5.3-0.4,7.8-5.9,7.8h-1.2V46.9z M289.5,40c0-2.1-0.4-3.1-2.4-3.1c-1.7,0-2.2,1-2.2,3
				c0,1.8,0.5,2.7,2.1,2.7C288.5,42.7,289.5,42,289.5,40z"/>
		</g>
		<g class="st12">
			<path class="st6" d="M256.9,68.9l0.9-1.5c0.9,0.5,1.7,0.8,2.9,0.8c2,0,2.7-0.7,2.7-2.9c0-1.6-0.3-2.6-2.8-2.6h-1.8V61h1.9
				c1.9,0,2.3-0.9,2.3-2.2c0-1.8-0.7-2.2-2.3-2.2c-1,0-2,0.3-2.8,0.7l-0.8-1.5c1-0.6,2.3-0.9,3.9-0.9c2.5,0,3.9,0.7,3.9,3.6
				c0,2-0.5,2.9-1.6,3.3c1.5,0.4,1.9,1.4,1.9,3.8c0,3.3-1.4,4.4-4.4,4.4C259,69.8,257.9,69.5,256.9,68.9z"/>
			<path class="st6" d="M267.1,65.4c0-1.8,0.2-3.4,2-3.9c-1.4-0.6-1.6-1.8-1.6-3.2c0-1.9,0.7-3.6,4.2-3.6s4.2,1.7,4.2,3.6
				c0,1.4-0.2,2.7-1.6,3.2c1.9,0.6,2,2.1,2,3.9c0,2.3-0.6,4.4-4.6,4.4S267.1,67.7,267.1,65.4z M274.5,65.2c0-1.7-0.4-2.8-2.7-2.8
				c-2.3,0-2.7,1.1-2.7,2.8c0,1.7,0.4,2.9,2.7,2.9C274.1,68.2,274.5,66.9,274.5,65.2z M274.1,58.5c0-1.4-0.5-2.2-2.4-2.2
				s-2.4,0.9-2.4,2.2c0,1.4,0.5,2.3,2.4,2.3C273.7,60.8,274.1,59.9,274.1,58.5z"/>
			<path class="st6" d="M278.1,71c0.9-0.5,1.1-0.7,1.1-1.4h-1v-2.5h2.3v2.4c0,1.3-0.2,1.8-1.8,2.5L278.1,71z"/>
			<path class="st6" d="M282.2,68.1l3.3-4.1c2.6-3.2,2.9-4,2.9-5.5s-0.5-2.1-2.2-2.1c-1.2,0-2.2,0.3-3,0.7l-0.8-1.6
				c1-0.5,2.2-0.9,4.1-0.9c2.8,0,3.8,1.2,3.8,3.7c0,2.2-0.6,3.2-3.4,6.8l-2.3,2.9h5.9v1.7h-8.2L282.2,68.1L282.2,68.1z"/>
			<path class="st6" d="M292.5,62.2c0-5.1,0.7-7.6,4.8-7.6c4,0,4.7,2.5,4.7,7.6c0,5.2-0.7,7.6-4.7,7.6
				C293.2,69.8,292.5,67.4,292.5,62.2z M300.1,62.2c0-4.2-0.6-5.8-2.8-5.8c-2.3,0-2.8,1.6-2.8,5.8s0.5,5.8,2.8,5.8
				C299.6,68.1,300.1,66.5,300.1,62.2z"/>
			<path class="st6" d="M307.3,59.9h1.9c0.3-3.6,1.5-5.2,4.6-5.2c1.4,0,2.5,0.3,3.4,0.8l-0.9,1.6c-0.7-0.4-1.4-0.6-2.5-0.6
				c-1.9,0-2.6,1.1-2.8,3.4h4.2v1.5H311v1.4h4.2v1.6H311c0.2,2.5,0.9,3.7,2.8,3.7c1.1,0,1.9-0.4,2.5-0.7l0.9,1.5
				c-0.9,0.5-2,0.9-3.5,0.9c-3.1,0-4.3-1.7-4.5-5.4h-1.9v-1.6h1.8v-1.4h-1.8V59.9z"/>
		</g>
	</g>
	<g class="st12">
		<path class="st6" d="M251.7,234.5h5.2l5.5,24.1h-4.7L257,255h-5.4l-0.7,3.6h-4.4L251.7,234.5z M255.9,250.9l-1.2-6.1l-0.6-3.1
			l-0.6,3.1l-1.2,6.1H255.9z"/>
		<path class="st6" d="M265.1,257.3c-1.4-1.3-1.6-3.2-1.6-5.4c0-3.1,0.1-5.5,2.2-6.5c-1.6-1-1.7-2.9-1.7-5.4c0-1.7,0.2-3.2,1.3-4.2
			c0.9-1,2.5-1.6,4.9-1.6s4.1,0.6,5,1.6c1,1.1,1.2,2.6,1.2,4.2c0,2.6-0.1,4.5-1.8,5.4c2.2,0.9,2.2,3.4,2.2,6.5
			c0,2.2-0.2,4.2-1.6,5.4c-1,0.9-2.6,1.5-5.1,1.5C267.7,258.9,266.1,258.2,265.1,257.3z M272.4,251.5c0-2.6-0.3-3.8-2.2-3.8
			s-2.2,1.1-2.2,3.8s0.2,3.8,2.2,3.8S272.4,254.1,272.4,251.5z M272.1,240.9c0-2.1-0.4-2.9-1.9-2.9s-1.9,0.8-1.9,2.9
			c0,2,0.3,2.9,1.9,2.9S272.1,242.9,272.1,240.9z"/>
		<path class="st6" d="M281,254.5h1.7c5.2,0,5.2-1.8,5.2-4.6c-0.6,0.7-1.5,1.3-4,1.3c-4.7,0-5-3.3-5-8.1c0-3.4,0.3-5.9,1.8-7.3
			c1-0.9,2.6-1.5,4.8-1.5c2.2,0,3.7,0.6,4.7,1.6c1.9,1.8,2.1,4.9,2.1,9v1.8c0,4.6-0.3,7.9-2.1,9.7c-1.5,1.5-3.6,2.2-7.6,2.2H281
			V254.5z M287.7,243.1c0-3.8-0.2-4.8-2.2-4.8c-1.8,0-2.1,1.1-2.1,4.7c0,3.2,0.4,4.2,2,4.2C286.9,247.3,287.7,246.6,287.7,243.1z"/>
	</g>
	<g class="st12">
		<path class="st11" d="M245.2,141.6h-2.8v-3.5h2.8v-4.5h3.1v4.5h2.8v3.5h-2.8v4.5h-3.1V141.6z"/>
		<path class="st11" d="M252.5,146.6l4.6-9.7c0.3-0.8,0.6-1.5,0.6-2.3c0-0.9-0.4-1.7-1.5-1.7c-1,0-1.8,0.3-2.6,0.7l-1.2-3.2
			c1-0.5,2.3-0.9,4.1-0.9c3.3,0,4.4,1.5,4.4,4.4c0,1.9-0.5,3.2-1.2,4.6l-3.7,7.9h4.8v3.3h-8.3L252.5,146.6L252.5,146.6z"/>
		<path class="st11" d="M264,148.6c-1.4-1.5-1.5-4.5-1.5-8.9c0-4,0.1-7.1,1.4-8.7c0.7-0.9,1.8-1.5,3.5-1.5s2.8,0.6,3.5,1.5
			c1.3,1.6,1.4,4.7,1.4,8.7c0,4.3-0.1,7.3-1.5,8.8c-0.7,0.8-1.8,1.3-3.4,1.3C265.8,149.9,264.7,149.3,264,148.6z M269,139.7
			c0-5.5,0-6.7-1.6-6.7s-1.7,1.2-1.7,6.7s0,6.7,1.7,6.7C268.9,146.5,269,145.2,269,139.7z"/>
		<path class="st11" d="M277.7,141.5c-1-1.1-1.1-3-1.1-5.5c0-2.3,0.1-4.2,1-5.3c0.6-0.7,1.5-1.2,2.8-1.2s2.2,0.5,2.8,1.2
			c0.9,1.1,1,3,1,5.3c0,2.5-0.1,4.4-1.1,5.5c-0.6,0.6-1.5,1.1-2.7,1.1S278.2,142.1,277.7,141.5z M281.3,136.1c0-2.8-0.1-3.6-1-3.6
			c-1,0-1,0.8-1,3.6s0,3.6,1,3.6C281.3,139.7,281.3,138.8,281.3,136.1z M287.8,129.7h2.7l-6.1,20h-2.7L287.8,129.7z M289.1,148.9
			c-1-1.1-1.1-3-1.1-5.5c0-2.3,0.1-4.2,1-5.3c0.6-0.7,1.5-1.2,2.8-1.2s2.2,0.5,2.8,1.2c0.9,1.1,1,3,1,5.3c0,2.5-0.1,4.4-1.2,5.5
			c-0.6,0.6-1.4,1.1-2.6,1.1C290.5,149.9,289.6,149.5,289.1,148.9z M292.7,143.4c0-2.8,0-3.6-1-3.6s-1,0.8-1,3.6s0,3.6,1,3.6
			C292.7,147.1,292.7,146.2,292.7,143.4z"/>
	</g>
	<g class="st12">
		<path class="st14" d="M36.4,189.4H38l-2.7,15.5h-1.6L36.4,189.4z"/>
		<path class="st14" d="M40,193.5l1.2-0.1l-0.1,1c0.6-0.7,1.6-1.2,3.2-1.2c3.4,0,3.2,2.1,2.8,4.4l-1.3,7.3h-1.5l1.3-7.1
			c0.4-2,0.4-3.1-1.9-3.1c-2,0-2.7,1.4-3.1,4.1l-1.1,6.1H38L40,193.5z"/>
		<path class="st14" d="M49.5,193.4h1.7l0.3-1.8c0.3-1.9,1.1-2.8,3.4-2.8h1l-0.2,1.4h-0.8c-1.4,0-1.6,0.8-1.9,1.8l-0.3,1.4h2.4
			l-0.3,1.3h-2.4L50,208.2h-1.5l2.4-13.5h-1.8L49.5,193.4z M55,202.2l2.4-13.3h1.5l-2.4,13.4c-0.2,1-0.2,1.3,1.2,1.3l-0.2,1.4
			c-0.1,0-0.2,0-0.5,0C55,204.9,54.7,204.1,55,202.2z"/>
		<path class="st14" d="M59.2,202.3c0-3.9,2-5,5.5-5h1.5c0.3-1.5,0.3-2.7-1.9-2.7c-0.9,0-1.8,0.1-2.5,0.4l-0.5-1.3
			c0.9-0.4,2.1-0.6,3.2-0.6c3.4,0,3.6,1.6,3.1,4.4l-0.8,4.7c-0.2,0.9-0.2,1.2,0.7,1.2l-0.2,1.4c-0.2,0-0.3,0-0.5,0
			c-1.1,0-1.4-0.4-1.4-1.1c-0.7,0.8-1.9,1.2-3.1,1.2C60.2,205,59.2,204.1,59.2,202.3z M65.6,200.9l0.4-2.4h-1.2
			c-2.8,0-4.1,0.6-4.1,3.4c0,1.3,0.7,1.8,2,1.8C63.8,203.7,65.1,203.2,65.6,200.9z"/>
		<path class="st14" d="M70.5,193.4h1.8l0.8-3.2l1.3-0.3l-0.6,3.5h2.7l-0.3,1.3h-2.7l-1.2,7.1c-0.2,1.1-0.1,1.7,1.2,1.7h1.2
			l-0.2,1.4c-0.2,0-1.1,0-1.3,0c-2.4,0-2.7-1.1-2.3-3.1l1.2-7.1h-1.8L70.5,193.4z"/>
		<path class="st14" d="M78.6,193.4h1.5l-2,11.5h-1.5L78.6,193.4z M79.2,189.7h1.5l-0.4,2.2h-1.5L79.2,189.7z"/>
		<path class="st14" d="M80.9,201.1c0-0.7,0.1-1.5,0.3-2.4c0.6-3.3,1.8-5.6,5.1-5.6c2.9,0,3.8,1.6,3.8,3.8c0,0.8-0.1,1.6-0.3,2.5
			c-0.6,3.4-1.7,5.6-5,5.6C81.8,205.1,80.9,203.4,80.9,201.1z M88.2,199.4c0.1-0.8,0.3-1.6,0.3-2.2c0-1.5-0.5-2.5-2.4-2.5
			c-2.4,0-3,1.9-3.4,4.3c-0.1,0.8-0.2,1.5-0.2,2.2c0,1.5,0.5,2.6,2.4,2.6C87.2,203.7,87.8,201.9,88.2,199.4z"/>
		<path class="st14" d="M92.8,193.5l1.2-0.1l-0.1,1c0.6-0.7,1.6-1.2,3.2-1.2c3.4,0,3.2,2.1,2.8,4.4l-1.3,7.3h-1.5l1.3-7.1
			c0.4-2,0.4-3.1-1.9-3.1c-2,0-2.7,1.4-3.1,4.1l-1.1,6.1h-1.5L92.8,193.5z"/>
	</g>
	<g>
		<g>
			<path class="st15" d="M82,187.1c4.9-28.7,31.6-48.3,60.3-44.5"/>
			<g>
				<polygon class="st14" points="138.4,145.3 141.7,142.6 139.1,139.2 141.6,139.5 144.3,142.9 140.9,145.6 				"/>
			</g>
		</g>
	</g>
</g>
</svg>
