<?xml version="1.0" encoding="utf-8"?>
<!-- Generator: Adobe Illustrator 21.1.0, SVG Export Plug-In . SVG Version: 6.00 Build 0)  -->
<svg version="1.1" xmlns="http://www.w3.org/2000/svg" xmlns:xlink="http://www.w3.org/1999/xlink" x="0px" y="0px"
	 viewBox="0 0 320 415" style="enable-background:new 0 0 320 415;" xml:space="preserve">
<style type="text/css">
	.st0{fill:none;}
	.st1{fill:none;stroke:#1D1D1B;stroke-width:0.3;stroke-linejoin:round;}
	.st2{display:none;}
	.st3{display:inline;}
	.st4{fill:none;stroke:#000000;stroke-width:0.1732;stroke-miterlimit:10;}
	.st5{stroke:#000000;stroke-width:8.660254e-02;stroke-miterlimit:10;}
	.st6{fill:none;stroke:#000000;stroke-width:9;stroke-miterlimit:10;}
	.st7{fill:#F6D5D1;}
	.st8{opacity:0.27;fill:url(#SVGID_1_);}
	.st9{display:inline;fill:url(#SVGID_2_);}
	.st10{fill:#808080;}
	.st11{fill:#D42E1A;}
	.st12{display:inline;fill:none;stroke:#871103;stroke-width:1.5;stroke-miterlimit:10;}
	.st13{fill:none;stroke:#D42E1A;stroke-width:3.043;stroke-linecap:round;stroke-linejoin:round;stroke-miterlimit:10;}
	.st14{display:inline;fill:none;stroke:#000000;stroke-miterlimit:10;}
	.st15{display:inline;fill:#FFFFFF;stroke:#000000;stroke-width:0.75;stroke-miterlimit:10;}
	.st16{fill:none;stroke:#000000;stroke-miterlimit:10;}
	.st17{fill:#FFFFFF;stroke:#000000;stroke-width:0.75;stroke-miterlimit:10;}
	.st18{display:inline;fill:#D42E1A;}
	.st19{display:inline;opacity:0.7;}
	.st20{fill:#FFFFFF;}
	.st21{fill:#871103;}
	.st22{fill:none;stroke:#871103;stroke-width:0.75;stroke-miterlimit:10;}
	.st23{opacity:0.27;fill:url(#SVGID_3_);}
	.st24{fill:url(#SVGID_4_);}
	.st25{fill:none;stroke:#871103;stroke-width:1.5;stroke-miterlimit:10;}
	.st26{opacity:0.7;}
	.st27{opacity:0.27;fill:url(#SVGID_5_);}
	.st28{display:inline;fill:url(#SVGID_6_);}
	.st29{display:inline;fill:none;stroke:#D42E1A;stroke-width:3;stroke-linecap:round;stroke-linejoin:round;stroke-miterlimit:10;}
	.st30{opacity:0.27;fill:url(#SVGID_7_);}
	.st31{fill:url(#SVGID_8_);}
	.st32{fill:none;stroke:#D42E1A;stroke-width:3;stroke-linecap:round;stroke-linejoin:round;stroke-miterlimit:10;}
	.st33{opacity:0.27;fill:url(#SVGID_9_);}
	.st34{display:inline;fill:url(#SVGID_10_);}
	.st35{display:inline;fill:#871103;}
	.st36{font-family:'AntennaCond-LightItalic';}
	.st37{font-size:20.8708px;}
	.st38{fill:none;stroke:#D42E1A;stroke-width:2.7954;stroke-linecap:round;stroke-linejoin:round;stroke-miterlimit:10;}
	.st39{font-family:'AntennaCond-Medium';}
	.st40{font-size:18px;}
	.st41{font-family:'AntennaCond-Regular';}
	.st42{font-size:20px;}
	.st43{font-family:'AntennaExtraCond-Bold';}
	.st44{font-size:32.4075px;}
	.st45{display:inline;fill:#FFFFFF;}
	.st46{font-size:27px;}
	.st47{opacity:0.27;fill:url(#SVGID_11_);}
	.st48{fill:url(#SVGID_12_);}
	.st49{opacity:0.27;fill:url(#SVGID_13_);}
	.st50{display:inline;fill:url(#SVGID_14_);}
	.st51{fill:none;stroke:#D42E1A;stroke-width:2.8186;stroke-linecap:round;stroke-linejoin:round;stroke-miterlimit:10;}
	.st52{opacity:0.27;fill:url(#SVGID_15_);}
	.st53{fill:url(#SVGID_16_);}
	.st54{opacity:0.27;fill:url(#SVGID_17_);}
	.st55{display:inline;fill:url(#SVGID_18_);}
	.st56{opacity:0.27;fill:url(#SVGID_19_);}
	.st57{fill:url(#SVGID_20_);}
	.st58{opacity:0.27;fill:url(#SVGID_21_);}
	.st59{display:inline;fill:url(#SVGID_22_);}
	.st60{opacity:0.27;fill:url(#SVGID_23_);}
	.st61{fill:url(#SVGID_24_);}
</style>
<pattern  x="-886" y="-22.5" width="72" height="72" patternUnits="userSpaceOnUse" id="Lignes_diagonales" viewBox="79.6 -148.6 72 72" style="overflow:visible;">
	<g>
		<rect x="79.6" y="-148.6" class="st0" width="72" height="72"/>
		<g>
			<line class="st1" x1="144.1" y1="-66.1" x2="162.1" y2="-84.1"/>
			<line class="st1" x1="144.1" y1="-60.1" x2="168.1" y2="-84.1"/>
			<line class="st1" x1="144.1" y1="-54.1" x2="174.1" y2="-84.1"/>
			<line class="st1" x1="144.1" y1="-48.1" x2="180.1" y2="-84.1"/>
			<line class="st1" x1="144.1" y1="-42.1" x2="186.1" y2="-84.1"/>
			<line class="st1" x1="144.1" y1="-36.1" x2="192.1" y2="-84.1"/>
			<line class="st1" x1="144.1" y1="-30.1" x2="198.1" y2="-84.1"/>
			<line class="st1" x1="144.1" y1="-24.1" x2="204.1" y2="-84.1"/>
			<line class="st1" x1="144.1" y1="-18.1" x2="210.1" y2="-84.1"/>
			<line class="st1" x1="144.1" y1="-12.1" x2="216.1" y2="-84.1"/>
			<line class="st1" x1="144.1" y1="-6.1" x2="222.1" y2="-84.1"/>
			<line class="st1" x1="144.1" y1="-0.1" x2="228.1" y2="-84.1"/>
			<line class="st1" x1="150.1" y1="-0.1" x2="228.1" y2="-78.1"/>
		</g>
		<g>
			<line class="st1" x1="72.1" y1="-66.1" x2="90.1" y2="-84.1"/>
			<line class="st1" x1="72.1" y1="-60.1" x2="96.1" y2="-84.1"/>
			<line class="st1" x1="72.1" y1="-54.1" x2="102.1" y2="-84.1"/>
			<line class="st1" x1="72.1" y1="-48.1" x2="108.1" y2="-84.1"/>
			<line class="st1" x1="72.1" y1="-42.1" x2="114.1" y2="-84.1"/>
			<line class="st1" x1="72.1" y1="-36.1" x2="120.1" y2="-84.1"/>
			<line class="st1" x1="72.1" y1="-30.1" x2="126.1" y2="-84.1"/>
			<line class="st1" x1="72.1" y1="-24.1" x2="132.1" y2="-84.1"/>
			<line class="st1" x1="72.1" y1="-18.1" x2="138.1" y2="-84.1"/>
			<line class="st1" x1="72.1" y1="-12.1" x2="144.1" y2="-84.1"/>
			<line class="st1" x1="72.1" y1="-6.1" x2="150.1" y2="-84.1"/>
			<line class="st1" x1="72.1" y1="-0.1" x2="156.1" y2="-84.1"/>
			<line class="st1" x1="78.1" y1="-0.1" x2="156.1" y2="-78.1"/>
		</g>
		<g>
			<line class="st1" x1="0.1" y1="-0.1" x2="84.1" y2="-84.1"/>
			<line class="st1" x1="6.1" y1="-0.1" x2="84.1" y2="-78.1"/>
		</g>
		<g>
			<line class="st1" x1="144.1" y1="-138.1" x2="162.1" y2="-156.1"/>
			<line class="st1" x1="144.1" y1="-132.1" x2="168.1" y2="-156.1"/>
			<line class="st1" x1="144.1" y1="-126.1" x2="174.1" y2="-156.1"/>
			<line class="st1" x1="144.1" y1="-120.1" x2="180.1" y2="-156.1"/>
			<line class="st1" x1="144.1" y1="-114.1" x2="186.1" y2="-156.1"/>
			<line class="st1" x1="144.1" y1="-108.1" x2="192.1" y2="-156.1"/>
			<line class="st1" x1="144.1" y1="-102.1" x2="198.1" y2="-156.1"/>
			<line class="st1" x1="144.1" y1="-96.1" x2="204.1" y2="-156.1"/>
			<line class="st1" x1="144.1" y1="-90.1" x2="210.1" y2="-156.1"/>
			<line class="st1" x1="144.1" y1="-84.1" x2="216.1" y2="-156.1"/>
			<line class="st1" x1="144.1" y1="-78.1" x2="222.1" y2="-156.1"/>
			<line class="st1" x1="144.1" y1="-72.1" x2="228.1" y2="-156.1"/>
			<line class="st1" x1="150.1" y1="-72.1" x2="228.1" y2="-150.1"/>
		</g>
		<g>
			<line class="st1" x1="72.1" y1="-138.1" x2="90.1" y2="-156.1"/>
			<line class="st1" x1="72.1" y1="-132.1" x2="96.1" y2="-156.1"/>
			<line class="st1" x1="72.1" y1="-126.1" x2="102.1" y2="-156.1"/>
			<line class="st1" x1="72.1" y1="-120.1" x2="108.1" y2="-156.1"/>
			<line class="st1" x1="72.1" y1="-114.1" x2="114.1" y2="-156.1"/>
			<line class="st1" x1="72.1" y1="-108.1" x2="120.1" y2="-156.1"/>
			<line class="st1" x1="72.1" y1="-102.1" x2="126.1" y2="-156.1"/>
			<line class="st1" x1="72.1" y1="-96.1" x2="132.1" y2="-156.1"/>
			<line class="st1" x1="72.1" y1="-90.1" x2="138.1" y2="-156.1"/>
			<line class="st1" x1="72.1" y1="-84.1" x2="144.1" y2="-156.1"/>
			<line class="st1" x1="72.1" y1="-78.1" x2="150.1" y2="-156.1"/>
			<line class="st1" x1="72.1" y1="-72.1" x2="156.1" y2="-156.1"/>
			<line class="st1" x1="78.1" y1="-72.1" x2="156.1" y2="-150.1"/>
			<line class="st1" x1="84.1" y1="-72.1" x2="156.1" y2="-144.1"/>
			<line class="st1" x1="90.1" y1="-72.1" x2="156.1" y2="-138.1"/>
			<line class="st1" x1="96.1" y1="-72.1" x2="156.1" y2="-132.1"/>
			<line class="st1" x1="102.1" y1="-72.1" x2="156.1" y2="-126.1"/>
			<line class="st1" x1="108.1" y1="-72.1" x2="156.1" y2="-120.1"/>
			<line class="st1" x1="114.1" y1="-72.1" x2="156.1" y2="-114.1"/>
			<line class="st1" x1="120.1" y1="-72.1" x2="156.1" y2="-108.1"/>
			<line class="st1" x1="126.1" y1="-72.1" x2="156.1" y2="-102.1"/>
			<line class="st1" x1="132.1" y1="-72.1" x2="156.1" y2="-96.1"/>
			<line class="st1" x1="138.1" y1="-72.1" x2="156.1" y2="-90.1"/>
			<line class="st1" x1="144.1" y1="-72.1" x2="156.1" y2="-84.1"/>
		</g>
		<g>
			<line class="st1" x1="0.1" y1="-72.1" x2="84.1" y2="-156.1"/>
			<line class="st1" x1="6.1" y1="-72.1" x2="84.1" y2="-150.1"/>
			<line class="st1" x1="12.1" y1="-72.1" x2="84.1" y2="-144.1"/>
			<line class="st1" x1="18.1" y1="-72.1" x2="84.1" y2="-138.1"/>
			<line class="st1" x1="24.1" y1="-72.1" x2="84.1" y2="-132.1"/>
			<line class="st1" x1="30.1" y1="-72.1" x2="84.1" y2="-126.1"/>
			<line class="st1" x1="36.1" y1="-72.1" x2="84.1" y2="-120.1"/>
			<line class="st1" x1="42.1" y1="-72.1" x2="84.1" y2="-114.1"/>
			<line class="st1" x1="48.1" y1="-72.1" x2="84.1" y2="-108.1"/>
			<line class="st1" x1="54.1" y1="-72.1" x2="84.1" y2="-102.1"/>
			<line class="st1" x1="60.1" y1="-72.1" x2="84.1" y2="-96.1"/>
			<line class="st1" x1="66.1" y1="-72.1" x2="84.1" y2="-90.1"/>
			<line class="st1" x1="72.1" y1="-72.1" x2="84.1" y2="-84.1"/>
		</g>
		<g>
			<line class="st1" x1="144.1" y1="-144.1" x2="228.1" y2="-228.1"/>
			<line class="st1" x1="150.1" y1="-144.1" x2="228.1" y2="-222.1"/>
		</g>
		<g>
			<line class="st1" x1="72.1" y1="-144.1" x2="156.1" y2="-228.1"/>
			<line class="st1" x1="78.1" y1="-144.1" x2="156.1" y2="-222.1"/>
			<line class="st1" x1="84.1" y1="-144.1" x2="156.1" y2="-216.1"/>
			<line class="st1" x1="90.1" y1="-144.1" x2="156.1" y2="-210.1"/>
			<line class="st1" x1="96.1" y1="-144.1" x2="156.1" y2="-204.1"/>
			<line class="st1" x1="102.1" y1="-144.1" x2="156.1" y2="-198.1"/>
			<line class="st1" x1="108.1" y1="-144.1" x2="156.1" y2="-192.1"/>
			<line class="st1" x1="114.1" y1="-144.1" x2="156.1" y2="-186.1"/>
			<line class="st1" x1="120.1" y1="-144.1" x2="156.1" y2="-180.1"/>
			<line class="st1" x1="126.1" y1="-144.1" x2="156.1" y2="-174.1"/>
			<line class="st1" x1="132.1" y1="-144.1" x2="156.1" y2="-168.1"/>
			<line class="st1" x1="138.1" y1="-144.1" x2="156.1" y2="-162.1"/>
			<line class="st1" x1="144.1" y1="-144.1" x2="156.1" y2="-156.1"/>
		</g>
		<g>
			<line class="st1" x1="0.1" y1="-144.1" x2="84.1" y2="-228.1"/>
			<line class="st1" x1="6.1" y1="-144.1" x2="84.1" y2="-222.1"/>
			<line class="st1" x1="12.1" y1="-144.1" x2="84.1" y2="-216.1"/>
			<line class="st1" x1="18.1" y1="-144.1" x2="84.1" y2="-210.1"/>
			<line class="st1" x1="24.1" y1="-144.1" x2="84.1" y2="-204.1"/>
			<line class="st1" x1="30.1" y1="-144.1" x2="84.1" y2="-198.1"/>
			<line class="st1" x1="36.1" y1="-144.1" x2="84.1" y2="-192.1"/>
			<line class="st1" x1="42.1" y1="-144.1" x2="84.1" y2="-186.1"/>
			<line class="st1" x1="48.1" y1="-144.1" x2="84.1" y2="-180.1"/>
			<line class="st1" x1="54.1" y1="-144.1" x2="84.1" y2="-174.1"/>
			<line class="st1" x1="60.1" y1="-144.1" x2="84.1" y2="-168.1"/>
			<line class="st1" x1="66.1" y1="-144.1" x2="84.1" y2="-162.1"/>
			<line class="st1" x1="72.1" y1="-144.1" x2="84.1" y2="-156.1"/>
		</g>
	</g>
</pattern>
<g id="SOURCE" class="st2">
</g>
<g id="A10_Source" class="st2">
	<g id="Flèche_6" class="st3">
	</g>
</g>
<g id="A10">
</g>
<g id="A62_Source" class="st2">
</g>
<g id="A62">
</g>
<g id="A63_Source" class="st2">
	<g class="st3">
		<polygon class="st7" points="12.4,11.6 12.4,401.7 33.8,401.7 41.6,357.5 118.4,305.5 185.9,260.5 186.7,212.5 194.3,158.5 
			195.2,109.5 203.6,59.5 205.3,11.6 		"/>
		<pattern  id="SVGID_1_" xlink:href="#Lignes_diagonales" patternTransform="matrix(0 -1.104 -0.7764 0 -13132.8301 -15969.4609)">
		</pattern>
		<polygon class="st8" points="12.4,11.6 12.4,401.7 33.8,401.7 41.6,357.5 118.4,305.5 185.9,260.5 186.7,212.5 194.3,158.5 
			195.2,109.5 203.6,59.5 205.3,11.6 		"/>
	</g>
	
		<linearGradient id="SVGID_2_" gradientUnits="userSpaceOnUse" x1="12.3975" y1="202.3495" x2="240.9975" y2="202.3495" gradientTransform="matrix(1 0 0 -1 0 409.5)">
		<stop  offset="0" style="stop-color:#FFFFFF"/>
		<stop  offset="1" style="stop-color:#FFFFFF;stop-opacity:0"/>
	</linearGradient>
	<polygon class="st9" points="12.4,11.6 12.4,402.7 41,401.5 47,356.5 138,306.5 218,259.5 218,208.5 227,160.5 229,107.5 237,63.5 
		241,11.6 	"/>
	<text transform="matrix(1 0 0 1 17.7944 210.9062)" class="st35 st36 st37">Inflation</text>
	<g class="st3">
		<g>
			<path class="st22" d="M66.4,193.1c4.9-28.7,31.6-48.3,60.3-44.5"/>
			<g>
				<polygon class="st21" points="122.7,151.3 126.1,148.6 123.4,145.2 126,145.5 128.6,148.9 125.3,151.6 				"/>
			</g>
		</g>
	</g>
	<polyline class="st12" points="35.9,402.9 86.5,354.3 106.7,305.7 121.9,257 121.9,208.4 126.9,159.8 154.7,111.1 202.8,62.5 	"/>
	<g class="st3">
		<g>
			<polyline class="st38" points="36.5,406 40.8,357.1 115.4,308.2 185.9,259.4 185.9,210.5 192.9,161.6 195.7,112.7 201.4,63.8 
				207,14.9 			"/>
		</g>
	</g>
	<g class="st3">
		<text transform="matrix(1 0 0 1 117.9388 388.6357)"><tspan x="0" y="0" class="st10 st39 st40">2011</tspan><tspan x="0" y="21" class="st11 st41 st42">7 €</tspan></text>
	</g>
	<g class="st3">
		<text transform="matrix(1 0 0 1 227.2773 262.6357)"><tspan x="0" y="0" class="st10 st39 st40">2014</tspan><tspan x="0" y="21" class="st11 st41 st42">14,4 €</tspan></text>
	</g>
	<g class="st3">
		<polygon class="st11" points="274.6,146.9 273.8,146.9 269.4,154.4 270.7,154.4 		"/>
		<polygon class="st11" points="263.9,163.7 248.2,190.7 251.9,190.7 265.9,163.7 		"/>
		<polygon class="st11" points="253.1,190.7 271.3,190.7 274.9,163.7 266.5,163.7 		"/>
		<polygon class="st11" points="277.4,165 277.4,165.5 277.4,175.1 277.4,179.9 277.4,190.7 278.3,190.7 278.3,179.9 278.3,175.1 
			278.3,165.5 278.3,165 278.3,163.7 277.4,163.7 		"/>
		<polygon class="st11" points="284.4,154.4 280.7,146.9 278.7,146.9 279.6,154.4 		"/>
		<rect x="277.4" y="146.9" class="st11" width="0.9" height="7.5"/>
		<polygon class="st11" points="280.8,163.7 284.4,190.7 300.6,190.7 302.5,190.7 289.1,163.7 		"/>
		<polygon class="st11" points="276.1,154.4 277,146.9 274.9,146.9 271.1,154.4 		"/>
		<polygon class="st11" points="291.6,163.7 289.7,163.7 303.7,190.7 307.4,190.7 		"/>
		<polygon class="st11" points="286.2,154.4 281.8,146.9 280.9,146.9 284.8,154.4 		"/>
		<polygon class="st11" points="289,162.4 290.8,162.4 295.2,162.4 295.6,163 296,163.7 297.8,166.9 299.7,166.9 299.7,163.7 
			299.7,163 299.7,162.5 299.7,162.4 302.4,162.4 302.4,155.7 287,155.7 285.5,155.7 285.1,155.7 279.8,155.7 278.3,155.7 
			278.3,155.7 277.4,155.7 277.4,155.7 275.8,155.7 270.4,155.7 270,155.7 268.6,155.7 253.5,155.7 253.5,162.4 256.2,162.4 
			256.2,162.5 256.2,163 256.2,163.7 256.2,166.9 258.1,166.9 259.9,163.7 260.3,163 260.7,162.4 264.7,162.4 266.5,162.4 
			267.1,162.4 275,162.4 277.4,162.4 278.3,162.4 280.7,162.4 288.4,162.4 		"/>
	</g>
	<text transform="matrix(1 0 0 1 255.2181 220.5996)" class="st18 st43 st44">A63</text>
	<line class="st14" x1="47.7" y1="405" x2="114.7" y2="405"/>
	<circle class="st15" cx="40" cy="404" r="7.5"/>
	<line class="st14" x1="187" y1="256.5" x2="224" y2="256.5"/>
	<circle class="st15" cx="186.5" cy="256.5" r="7.5"/>
	<g class="st3">
		<text transform="matrix(1 0 0 1 242.2773 20.6357)"><tspan x="0" y="0" class="st10 st39 st40">2019</tspan><tspan x="0" y="21" class="st11 st41 st42">15,50 €</tspan></text>
	</g>
	<g class="st3">
		<line class="st16" x1="210" y1="15.5" x2="239" y2="15.5"/>
		<circle class="st17" cx="209.5" cy="15.5" r="7.5"/>
	</g>
	<circle class="st18" cx="277.8" cy="94.5" r="41"/>
	<g class="st19">
		<polygon class="st20" points="263.2,74.2 270.4,74.2 270.4,83 285.1,83 285.1,74.5 292.3,74.5 277.9,59.5 		"/>
	</g>
	<text transform="matrix(0.8526 0 0 1 248.9775 111.7246)" class="st45 st43 st46">+121 %</text>
	<text transform="matrix(1 0 0 1 196.9091 335.5)" class="st3"><tspan x="0" y="0" class="st10 st36 st40">Section landaise</tspan><tspan x="-27.6" y="17.9" class="st10 st36 st40">payante depuis 2013</tspan></text>
</g>
<g id="A63">
	<g>
		<polygon class="st7" points="12.4,11.6 12.4,401.7 33.8,401.7 41.6,357.5 118.4,305.5 185.9,260.5 186.7,212.5 194.3,158.5 
			195.2,109.5 203.6,59.5 205.3,11.6 		"/>
		<pattern  id="SVGID_3_" xlink:href="#Lignes_diagonales" patternTransform="matrix(0 -1.104 -0.7764 0 -13132.8301 -15969.4609)">
		</pattern>
		<polygon class="st23" points="12.4,11.6 12.4,401.7 33.8,401.7 41.6,357.5 118.4,305.5 185.9,260.5 186.7,212.5 194.3,158.5 
			195.2,109.5 203.6,59.5 205.3,11.6 		"/>
	</g>
	
		<linearGradient id="SVGID_4_" gradientUnits="userSpaceOnUse" x1="12.3975" y1="202.3495" x2="240.9975" y2="202.3495" gradientTransform="matrix(1 0 0 -1 0 409.5)">
		<stop  offset="0" style="stop-color:#FFFFFF"/>
		<stop  offset="1" style="stop-color:#FFFFFF;stop-opacity:0"/>
	</linearGradient>
	<polygon class="st24" points="12.4,11.6 12.4,402.7 41,401.5 47,356.5 138,306.5 218,259.5 218,208.5 227,160.5 229,107.5 
		237,63.5 241,11.6 	"/>
	<g>
		<path class="st21" d="M20.9,195.4h1.6l-2.7,15.5h-1.6L20.9,195.4z"/>
		<path class="st21" d="M24.5,199.5l1.2-0.1l-0.1,1c0.6-0.7,1.6-1.2,3.2-1.2c3.4,0,3.2,2.1,2.8,4.4l-1.3,7.3h-1.5l1.3-7.1
			c0.4-2,0.4-3.1-1.9-3.1c-2,0-2.7,1.4-3.1,4.1l-1.1,6.1h-1.5L24.5,199.5z"/>
		<path class="st21" d="M34,199.4h1.7l0.3-1.8c0.3-1.9,1.1-2.8,3.4-2.8h1l-0.2,1.4h-0.8c-1.4,0-1.6,0.8-1.9,1.8l-0.3,1.4h2.4
			l-0.3,1.3H37l-2.4,13.5h-1.5l2.4-13.5h-1.8L34,199.4z M39.6,208.2l2.4-13.3h1.5l-2.4,13.4c-0.2,1-0.2,1.3,1.2,1.3l-0.2,1.4
			c-0.1,0-0.2,0-0.5,0C39.5,210.9,39.2,210.1,39.6,208.2z"/>
		<path class="st21" d="M43.7,208.3c0-3.9,2-5,5.5-5h1.5c0.3-1.5,0.3-2.7-1.9-2.7c-0.9,0-1.8,0.1-2.5,0.4l-0.5-1.3
			c0.9-0.4,2.1-0.6,3.2-0.6c3.4,0,3.6,1.6,3.1,4.4l-0.8,4.7c-0.2,0.9-0.2,1.2,0.7,1.2l-0.2,1.4c-0.2,0-0.3,0-0.5,0
			c-1.1,0-1.4-0.4-1.4-1.1c-0.7,0.8-1.9,1.2-3.1,1.2C44.7,211,43.7,210.1,43.7,208.3z M50.1,206.9l0.4-2.4h-1.2
			c-2.8,0-4.1,0.6-4.1,3.4c0,1.3,0.7,1.8,2,1.8C48.3,209.7,49.7,209.2,50.1,206.9z"/>
		<path class="st21" d="M55,199.4h1.8l0.8-3.2l1.3-0.3l-0.6,3.5h2.7l-0.3,1.3H58l-1.2,7.1c-0.2,1.1-0.1,1.7,1.2,1.7h1.2l-0.2,1.4
			c-0.2,0-1.1,0-1.3,0c-2.4,0-2.7-1.1-2.3-3.1l1.2-7.1h-1.8L55,199.4z"/>
		<path class="st21" d="M63.1,199.4h1.5l-2,11.5H61L63.1,199.4z M63.7,195.7h1.5l-0.4,2.2h-1.5L63.7,195.7z"/>
		<path class="st21" d="M65.4,207.1c0-0.7,0.1-1.5,0.3-2.4c0.6-3.3,1.8-5.6,5.1-5.6c2.9,0,3.8,1.6,3.8,3.8c0,0.8-0.1,1.6-0.2,2.5
			c-0.6,3.4-1.7,5.6-5,5.6C66.3,211.1,65.4,209.4,65.4,207.1z M72.8,205.4c0.1-0.8,0.3-1.6,0.3-2.2c0-1.5-0.5-2.5-2.4-2.5
			c-2.4,0-3,1.9-3.4,4.3c-0.1,0.8-0.2,1.5-0.2,2.2c0,1.5,0.5,2.6,2.4,2.6C71.7,209.7,72.3,207.9,72.8,205.4z"/>
		<path class="st21" d="M77.3,199.5l1.2-0.1l-0.1,1c0.6-0.7,1.6-1.2,3.2-1.2c3.4,0,3.2,2.1,2.8,4.4l-1.3,7.3h-1.5l1.3-7.1
			c0.4-2,0.4-3.1-1.9-3.1c-2,0-2.7,1.4-3.1,4.1l-1.1,6.1h-1.5L77.3,199.5z"/>
	</g>
	<g>
		<g>
			<path class="st22" d="M66.4,193.1c4.9-28.7,31.6-48.3,60.3-44.5"/>
			<g>
				<polygon class="st21" points="122.7,151.3 126.1,148.6 123.4,145.2 126,145.5 128.6,148.9 125.3,151.6 				"/>
			</g>
		</g>
	</g>
	<polyline class="st25" points="35.9,402.9 86.5,354.3 106.7,305.7 121.9,257 121.9,208.4 126.9,159.8 154.7,111.1 202.8,62.5 	"/>
	<g>
		<g>
			<polyline class="st38" points="36.5,406 40.8,357.1 115.4,308.2 185.9,259.4 185.9,210.5 192.9,161.6 195.7,112.7 201.4,63.8 
				207,14.9 			"/>
		</g>
	</g>
	<g>
		<g>
			<path class="st10" d="M118.5,387l3.1-3.6c2.2-2.6,2.4-3.3,2.4-4.6c0-1.2-0.5-1.8-1.9-1.8c-1,0-1.9,0.3-2.7,0.6l-0.9-1.7
				c1-0.5,2.1-0.8,3.9-0.8c2.6,0,3.6,1.1,3.6,3.4c0,2-0.5,2.9-3,5.9l-2,2.4h5.2v1.8h-7.7V387z"/>
			<path class="st10" d="M128.1,382c0-4.4,0.6-6.8,4.5-6.8c3.8,0,4.4,2.4,4.4,6.8c0,4.6-0.6,6.8-4.4,6.8
				C128.7,388.8,128.1,386.5,128.1,382z M135,382c0-3.5-0.5-4.9-2.4-4.9c-2,0-2.4,1.3-2.4,4.9c0,3.6,0.4,4.9,2.4,4.9
				C134.6,386.9,135,385.5,135,382z"/>
			<path class="st10" d="M140.3,377.1h-1.9v-1.9h3.9v13.3h-2V377.1z"/>
			<path class="st10" d="M146.2,377.1h-1.9v-1.9h3.9v13.3h-2V377.1z"/>
			<path class="st11" d="M124.5,396.5h-6.1v-1.7h8.2v1.5l-4.4,13.3h-2L124.5,396.5z"/>
			<path class="st11" d="M130.9,399.9h1.9c0.3-3.6,1.5-5.2,4.6-5.2c1.4,0,2.5,0.3,3.4,0.8l-0.9,1.6c-0.7-0.4-1.4-0.6-2.5-0.6
				c-1.9,0-2.6,1.1-2.8,3.4h4.2v1.5h-4.2v1.4h4.2v1.6h-4.2c0.2,2.5,0.9,3.7,2.8,3.7c1.1,0,1.9-0.4,2.5-0.7l0.9,1.5
				c-0.9,0.5-2,0.9-3.5,0.9c-3.1,0-4.3-1.7-4.5-5.4h-1.9v-1.6h1.8v-1.4h-1.8V399.9z"/>
		</g>
	</g>
	<g>
		<g>
			<path class="st10" d="M227.8,261l3.1-3.6c2.3-2.6,2.4-3.3,2.4-4.6c0-1.2-0.5-1.8-1.9-1.8c-1,0-1.9,0.3-2.7,0.6l-0.9-1.7
				c1-0.5,2.1-0.8,3.9-0.8c2.6,0,3.6,1.1,3.6,3.4c0,2-0.5,2.9-3,5.9l-2,2.4h5.2v1.8h-7.7V261z"/>
			<path class="st10" d="M237.4,256c0-4.4,0.6-6.8,4.5-6.8c3.8,0,4.4,2.4,4.4,6.8c0,4.6-0.6,6.8-4.4,6.8
				C238.1,262.8,237.4,260.5,237.4,256z M244.3,256c0-3.5-0.4-4.9-2.4-4.9c-2,0-2.4,1.3-2.4,4.9c0,3.6,0.4,4.9,2.4,4.9
				C243.9,260.9,244.3,259.5,244.3,256z"/>
			<path class="st10" d="M249.7,251.1h-1.9v-1.9h3.9v13.3h-2V251.1z"/>
			<path class="st10" d="M253.6,258.2l4.7-8.9h2.1l-4.6,8.8h3.3l0.4-4h1.5v4h1.7v1.7H261v2.9h-1.9v-2.9h-5.4V258.2z"/>
			<path class="st11" d="M229.9,270.5h-2.2v-1.7h4v14.8h-1.9V270.5z"/>
			<path class="st11" d="M234,278.8l5.2-10h2l-5.2,9.9h4l0.4-4.6h1.4v4.6h2v1.6h-2v3.4H240v-3.4H234V278.8z"/>
			<path class="st11" d="M245.2,285c0.9-0.5,1.1-0.7,1.1-1.4h-1v-2.5h2.3v2.4c0,1.3-0.2,1.8-1.8,2.5L245.2,285z"/>
			<path class="st11" d="M248.4,278.8l5.2-10h2l-5.2,9.9h4l0.4-4.6h1.4v4.6h2v1.6h-2v3.4h-1.8v-3.4h-5.9V278.8z"/>
			<path class="st11" d="M262.8,273.9h1.9c0.3-3.6,1.5-5.2,4.6-5.2c1.4,0,2.5,0.3,3.4,0.8l-0.9,1.6c-0.7-0.4-1.4-0.6-2.5-0.6
				c-1.9,0-2.6,1.1-2.8,3.4h4.2v1.5h-4.2v1.4h4.2v1.6h-4.2c0.2,2.5,0.9,3.7,2.8,3.7c1.1,0,1.9-0.4,2.5-0.7l0.9,1.5
				c-0.9,0.5-2,0.9-3.5,0.9c-3.1,0-4.3-1.7-4.5-5.4h-1.9v-1.6h1.8v-1.4h-1.8V273.9z"/>
		</g>
	</g>
	<g>
		<polygon class="st11" points="274.6,146.9 273.8,146.9 269.4,154.4 270.7,154.4 		"/>
		<polygon class="st11" points="263.9,163.7 248.2,190.7 251.9,190.7 265.9,163.7 		"/>
		<polygon class="st11" points="253.1,190.7 271.3,190.7 274.9,163.7 266.5,163.7 		"/>
		<polygon class="st11" points="277.4,165 277.4,165.5 277.4,175.1 277.4,179.9 277.4,190.7 278.3,190.7 278.3,179.9 278.3,175.1 
			278.3,165.5 278.3,165 278.3,163.7 277.4,163.7 		"/>
		<polygon class="st11" points="284.4,154.4 280.7,146.9 278.7,146.9 279.6,154.4 		"/>
		<rect x="277.4" y="146.9" class="st11" width="0.9" height="7.5"/>
		<polygon class="st11" points="280.8,163.7 284.4,190.7 300.6,190.7 302.5,190.7 289.1,163.7 		"/>
		<polygon class="st11" points="276.1,154.4 277,146.9 274.9,146.9 271.1,154.4 		"/>
		<polygon class="st11" points="291.6,163.7 289.7,163.7 303.7,190.7 307.4,190.7 		"/>
		<polygon class="st11" points="286.2,154.4 281.8,146.9 280.9,146.9 284.8,154.4 		"/>
		<polygon class="st11" points="289,162.4 290.8,162.4 295.2,162.4 295.6,163 296,163.7 297.8,166.9 299.7,166.9 299.7,163.7 
			299.7,163 299.7,162.5 299.7,162.4 302.4,162.4 302.4,155.7 287,155.7 285.5,155.7 285.1,155.7 279.8,155.7 278.3,155.7 
			278.3,155.7 277.4,155.7 277.4,155.7 275.8,155.7 270.4,155.7 270,155.7 268.6,155.7 253.5,155.7 253.5,162.4 256.2,162.4 
			256.2,162.5 256.2,163 256.2,163.7 256.2,166.9 258.1,166.9 259.9,163.7 260.3,163 260.7,162.4 264.7,162.4 266.5,162.4 
			267.1,162.4 275,162.4 277.4,162.4 278.3,162.4 280.7,162.4 288.4,162.4 		"/>
	</g>
	<g>
		<path class="st11" d="M261,196.5h5.2l5.5,24.1h-4.7l-0.7-3.6h-5.4l-0.7,3.6h-4.4L261,196.5z M265.2,212.9l-1.2-6.1l-0.6-3.1
			l-0.6,3.1l-1.2,6.1H265.2z"/>
		<path class="st11" d="M275.1,219.2c-1.9-1.8-2.1-4.9-2.1-9v-1.8c0-4.6,0.3-7.7,2.1-9.6c1.5-1.5,3.6-2.2,7.6-2.2h1.7v4.2h-1.7
			c-5.2,0-5.3,1.7-5.3,4.4c0.6-0.7,1.5-1.3,4-1.3c4.7,0,5,3.3,5,8c0,3.4-0.3,5.9-1.8,7.3c-1,0.9-2.6,1.5-4.8,1.5
			C277.6,220.8,276.1,220.2,275.1,219.2z M282,212.2c0-3.2-0.3-4.2-2-4.2c-1.5,0-2.3,0.6-2.3,4.1c0,3.7,0.2,4.8,2.3,4.8
			C281.7,216.9,282,215.7,282,212.2z"/>
		<path class="st11" d="M287.2,219.7l1.7-3.7c0.7,0.3,2.1,0.7,3.4,0.7c2.2,0,2.5-1.1,2.5-3.7c0-2.7-0.3-3.2-3.9-3.2h-1v-4.1h1
			c3.4,0,3.6-0.7,3.6-2.8c0-1.7-0.2-2.7-2.4-2.7c-0.9,0-2.2,0.3-3.1,0.6l-1.6-3.8c0.8-0.4,2.5-1,5.5-1c4.8,0,5.9,2,5.9,5.8
			c0,2.8-0.2,4.4-1.8,5.1c2.1,0.8,2.1,2.5,2.1,6.2c0,4.9-1.5,7.3-6.4,7.3C289.9,220.8,288.3,220.2,287.2,219.7z"/>
	</g>
	<line class="st16" x1="47.7" y1="405" x2="114.7" y2="405"/>
	<circle class="st17" cx="40" cy="404" r="7.5"/>
	<line class="st16" x1="187" y1="256.5" x2="224" y2="256.5"/>
	<circle class="st17" cx="186.5" cy="256.5" r="7.5"/>
	<g>
		<g>
			<path class="st10" d="M242.8,19l3.1-3.6c2.3-2.6,2.4-3.3,2.4-4.6c0-1.2-0.5-1.8-1.9-1.8c-1,0-1.9,0.3-2.7,0.6L242.9,8
				c1-0.5,2.1-0.8,3.9-0.8c2.6,0,3.6,1.1,3.6,3.4c0,2-0.5,2.9-3,5.9l-2,2.4h5.2v1.8h-7.7V19z"/>
			<path class="st10" d="M252.4,14c0-4.4,0.6-6.8,4.5-6.8c3.8,0,4.4,2.4,4.4,6.8c0,4.6-0.6,6.8-4.4,6.8
				C253.1,20.8,252.4,18.5,252.4,14z M259.3,14c0-3.5-0.4-4.9-2.4-4.9c-2,0-2.4,1.3-2.4,4.9c0,3.6,0.4,4.9,2.4,4.9
				C258.9,18.9,259.3,17.5,259.3,14z"/>
			<path class="st10" d="M264.7,9.1h-1.9V7.3h3.9v13.3h-2V9.1z"/>
			<path class="st10" d="M270.5,18.9h1.3c3.1,0,3.6-1.3,3.7-3.5c-0.5,0.7-1.5,1-3,1c-3,0-3.6-1.8-3.6-4.4c0-3.2,0.9-4.8,4.2-4.8
				c4,0,4.5,2.1,4.5,5.7c0,5.3-0.4,7.8-5.9,7.8h-1.2V18.9z M275.5,12c0-2.1-0.4-3.1-2.4-3.1c-1.7,0-2.2,1-2.2,3
				c0,1.8,0.5,2.7,2.1,2.7C274.5,14.7,275.5,14,275.5,12z"/>
			<path class="st11" d="M244.9,28.5h-2.2v-1.7h4v14.8h-1.9V28.5z"/>
			<path class="st11" d="M249.2,40.8l0.9-1.5c0.8,0.5,1.8,0.8,3.3,0.8c1.9,0,2.8-0.6,2.8-3.3c0-2.7-0.9-3.2-2.6-3.2
				c-1.1,0-1.9,0.3-2.4,0.8l-1.5-0.4l0.4-7.2h7.2v1.7h-5.6l-0.2,4c0.6-0.4,1.4-0.6,2.7-0.6c2.7,0,3.9,1,3.9,4.9c0,4.1-1.5,5-4.6,5
				C251.5,41.8,250.2,41.4,249.2,40.8z"/>
			<path class="st11" d="M259.7,43c0.9-0.5,1.1-0.7,1.1-1.4h-1v-2.5h2.3v2.4c0,1.3-0.2,1.8-1.8,2.5L259.7,43z"/>
			<path class="st11" d="M263.7,40.8l0.9-1.5c0.8,0.5,1.8,0.8,3.3,0.8c1.9,0,2.8-0.6,2.8-3.3c0-2.7-0.9-3.2-2.6-3.2
				c-1.1,0-1.9,0.3-2.4,0.8l-1.5-0.4l0.4-7.2h7.2v1.7h-5.6l-0.2,4c0.6-0.4,1.4-0.6,2.7-0.6c2.7,0,3.9,1,3.9,4.9c0,4.1-1.5,5-4.6,5
				C266.1,41.8,264.8,41.4,263.7,40.8z"/>
			<path class="st11" d="M274.5,34.2c0-5.1,0.7-7.6,4.8-7.6c4,0,4.7,2.5,4.7,7.6c0,5.2-0.7,7.6-4.7,7.6
				C275.2,41.8,274.5,39.4,274.5,34.2z M282.1,34.2c0-4.2-0.6-5.8-2.8-5.8c-2.3,0-2.8,1.6-2.8,5.8c0,4.2,0.5,5.8,2.8,5.8
				C281.6,40.1,282.1,38.5,282.1,34.2z"/>
			<path class="st11" d="M289.3,31.9h1.9c0.3-3.6,1.5-5.2,4.6-5.2c1.4,0,2.5,0.3,3.4,0.8l-0.9,1.6c-0.7-0.4-1.4-0.6-2.5-0.6
				c-1.9,0-2.6,1.1-2.8,3.4h4.2v1.5H293v1.4h4.2v1.6H293c0.2,2.5,0.9,3.7,2.8,3.7c1.1,0,1.9-0.4,2.5-0.7l0.9,1.5
				c-0.9,0.5-2,0.9-3.5,0.9c-3.1,0-4.3-1.7-4.5-5.4h-1.9v-1.6h1.8v-1.4h-1.8V31.9z"/>
		</g>
	</g>
	<g>
		<line class="st16" x1="210" y1="15.5" x2="239" y2="15.5"/>
		<circle class="st17" cx="209.5" cy="15.5" r="7.5"/>
	</g>
	<circle class="st11" cx="277.8" cy="94.5" r="41"/>
	<g class="st26">
		<polygon class="st20" points="263.2,74.2 270.4,74.2 270.4,83 285.1,83 285.1,74.5 292.3,74.5 277.9,59.5 		"/>
	</g>
	<g>
		<path class="st20" d="M253.4,103.6h-2.8v-3.5h2.8v-4.5h3.1v4.5h2.8v3.5h-2.8v4.5h-3.1V103.6z"/>
		<path class="st20" d="M262.5,95.2h-1.9v-3.5h5v20h-3.2V95.2z"/>
		<path class="st20" d="M267.3,108.6l4.6-9.7c0.3-0.8,0.6-1.5,0.6-2.3c0-0.9-0.4-1.7-1.5-1.7c-1,0-1.8,0.3-2.6,0.7l-1.2-3.2
			c1-0.5,2.3-0.9,4.1-0.9c3.3,0,4.4,1.5,4.4,4.4c0,1.9-0.5,3.2-1.2,4.6l-3.7,7.9h4.8v3.3h-8.3V108.6z"/>
		<path class="st20" d="M278.7,95.2h-1.9v-3.5h5v20h-3.2V95.2z"/>
		<path class="st20" d="M287.9,103.5c-1-1.1-1.1-3-1.1-5.5c0-2.3,0.1-4.2,1-5.3c0.6-0.7,1.5-1.2,2.8-1.2c1.3,0,2.2,0.5,2.8,1.2
			c0.9,1.1,1,3,1,5.3c0,2.5-0.1,4.4-1.1,5.5c-0.6,0.6-1.5,1.1-2.7,1.1S288.5,104.1,287.9,103.5z M291.6,98.1c0-2.8-0.1-3.6-1-3.6
			c-1,0-1,0.8-1,3.6s0,3.6,1,3.6C291.5,101.7,291.6,100.8,291.6,98.1z M298,91.7h2.7l-6.1,20h-2.7L298,91.7z M299.3,110.9
			c-1-1.1-1.1-3-1.1-5.5c0-2.3,0.1-4.2,1-5.3c0.6-0.7,1.5-1.2,2.8-1.2c1.3,0,2.2,0.5,2.8,1.2c0.9,1.1,1,3,1,5.3
			c0,2.5-0.1,4.4-1.2,5.5c-0.6,0.6-1.5,1.1-2.6,1.1S299.9,111.5,299.3,110.9z M303,105.4c0-2.8,0-3.6-1-3.6c-1,0-1,0.8-1,3.6
			s0,3.6,1,3.6C302.9,109.1,303,108.2,303,105.4z"/>
	</g>
	<g>
		<path class="st10" d="M197.1,334.5l0.7-1c0.6,0.4,1.8,1,3.5,1c1.7,0,2.8-0.9,2.8-2.6c0-1.3-0.9-1.9-2.4-2.8
			c-1.6-0.9-2.6-1.7-2.6-3.3c0-2.5,1.7-3.8,4-3.8c1.6,0,2.7,0.4,3.4,0.8l-0.6,1.1c-0.6-0.3-1.5-0.7-2.8-0.7c-1.7,0-2.6,0.9-2.6,2.4
			c0,1,0.6,1.5,2,2.4c1.9,1.1,3,1.9,3,3.6c0,2.7-1.8,4-4.2,4C199.2,335.6,197.9,335,197.1,334.5z"/>
		<path class="st10" d="M206.9,332.4c0-0.7,0.1-1.4,0.2-2.2c0.5-3,1.6-4.8,4.1-4.8c2.4,0,3,1,3,2.6c0,0.8-0.2,2.1-0.4,3.1h-5.6
			c-0.1,0.5-0.1,0.9-0.1,1.3c0,1.3,0.5,2.1,2.2,2.1c0.9,0,1.5-0.2,2.2-0.4l0.4,1.1c-0.8,0.3-1.7,0.5-2.7,0.5
			C207.6,335.6,206.9,334.3,206.9,332.4z M208.4,329.9h4.3c0.1-0.6,0.2-1.2,0.2-1.7c0-1-0.3-1.6-1.8-1.6
			C209.4,326.6,208.8,327.8,208.4,329.9z"/>
		<path class="st10" d="M215,332.4c0-0.6,0.1-1.4,0.2-2.2c0.5-3.1,1.6-4.8,4.2-4.8c1.2,0,2,0.3,2.5,0.6l-0.7,1.1
			c-0.4-0.3-0.9-0.4-1.8-0.4c-1.8,0-2.4,1.3-2.9,3.7c-0.1,0.7-0.2,1.4-0.2,1.9c0,1.4,0.5,2.2,2.1,2.2c0.6,0,1.1-0.1,1.7-0.3l0.4,1.1
			c-0.8,0.3-1.5,0.4-2.2,0.4C215.8,335.6,215,334.3,215,332.4z"/>
		<path class="st10" d="M222.8,325.6h1.5l0.7-2.8l1.1-0.2l-0.5,3h2.3l-0.2,1.2h-2.3l-1.1,6.2c-0.2,0.9-0.1,1.4,1,1.4h1l-0.2,1.2
			c-0.2,0-1,0-1.1,0c-2.1,0-2.3-0.9-2-2.7l1.1-6.1h-1.5L222.8,325.6z"/>
		<path class="st10" d="M229.8,325.6h1.3l-1.7,9.9H228L229.8,325.6z M230.3,322.4h1.3l-0.3,1.9H230L230.3,322.4z"/>
		<path class="st10" d="M231.8,332.3c0-0.6,0.1-1.3,0.2-2.1c0.5-2.9,1.5-4.8,4.4-4.8c2.5,0,3.3,1.4,3.3,3.3c0,0.7-0.1,1.4-0.2,2.1
			c-0.5,2.9-1.4,4.8-4.3,4.8C232.5,335.6,231.8,334.2,231.8,332.3z M238.1,330.7c0.1-0.7,0.2-1.4,0.2-1.9c0-1.3-0.5-2.2-2.1-2.2
			c-2.1,0-2.6,1.7-3,3.7c-0.1,0.7-0.2,1.3-0.2,1.9c0,1.3,0.5,2.3,2.1,2.3C237.2,334.5,237.7,332.9,238.1,330.7z"/>
		<path class="st10" d="M242,325.7l1.1-0.1l-0.1,0.9c0.5-0.6,1.4-1.1,2.8-1.1c2.9,0,2.8,1.8,2.4,3.8l-1.1,6.3h-1.3l1.1-6.2
			c0.3-1.7,0.3-2.7-1.6-2.7c-1.7,0-2.3,1.2-2.7,3.5l-0.9,5.3h-1.3L242,325.7z"/>
		<path class="st10" d="M254.7,335.5c-1.8,0-2-0.7-1.7-2.4l2.1-11.5h1.3l-2.1,11.6c-0.2,0.8-0.2,1.1,1,1.1l-0.2,1.2
			C255,335.5,254.9,335.5,254.7,335.5z"/>
		<path class="st10" d="M256.5,333.2c0-3.4,1.8-4.3,4.8-4.3h1.3c0.2-1.3,0.2-2.3-1.6-2.3c-0.7,0-1.6,0.1-2.2,0.4l-0.4-1.1
			c0.8-0.3,1.8-0.5,2.8-0.5c3,0,3.1,1.4,2.7,3.8l-0.7,4.1c-0.1,0.8-0.1,1,0.6,1l-0.2,1.2c-0.1,0-0.3,0-0.4,0c-0.9,0-1.2-0.3-1.2-0.9
			c-0.6,0.7-1.7,1-2.7,1C257.3,335.6,256.5,334.8,256.5,333.2z M262,332.1l0.3-2h-1.1c-2.4,0-3.5,0.5-3.5,3c0,1.1,0.6,1.5,1.7,1.5
			C260.5,334.5,261.6,334,262,332.1z"/>
		<path class="st10" d="M266.9,325.7l1.1-0.1l-0.1,0.9c0.5-0.6,1.4-1.1,2.8-1.1c2.9,0,2.8,1.8,2.4,3.8l-1.1,6.3h-1.3l1.1-6.2
			c0.3-1.7,0.3-2.7-1.6-2.7c-1.7,0-2.3,1.2-2.7,3.5l-0.9,5.3h-1.3L266.9,325.7z"/>
		<path class="st10" d="M274.3,332.5c0-0.7,0.1-1.6,0.3-2.4c0.5-2.6,1.2-4.7,3.8-4.7c1.7,0,2.6,0.5,2.9,1.2l0.9-5h1.3l-2.4,13.8
			l-1.1,0.1l0.1-1c-0.6,0.6-1.5,1.1-2.9,1.1C274.9,335.6,274.3,334.3,274.3,332.5z M280.5,330.7c0.1-0.7,0.2-1.3,0.2-1.9
			c0-1.3-0.5-2.2-2.2-2.2c-1.8,0-2.3,1.4-2.7,3.7c-0.1,0.7-0.2,1.4-0.2,2c0,1.2,0.4,2.1,1.9,2.1
			C279.7,334.5,280.1,332.9,280.5,330.7z"/>
		<path class="st10" d="M283.1,333.2c0-3.4,1.8-4.3,4.8-4.3h1.3c0.2-1.3,0.2-2.3-1.6-2.3c-0.7,0-1.6,0.1-2.2,0.4l-0.4-1.1
			c0.8-0.3,1.8-0.5,2.8-0.5c3,0,3.1,1.4,2.7,3.8l-0.7,4.1c-0.1,0.8-0.1,1,0.6,1l-0.2,1.2c-0.1,0-0.3,0-0.4,0c-0.9,0-1.2-0.3-1.2-0.9
			c-0.6,0.7-1.7,1-2.7,1C284,335.6,283.1,334.8,283.1,333.2z M288.6,332.1l0.3-2h-1.1c-2.4,0-3.5,0.5-3.5,3c0,1.1,0.6,1.5,1.7,1.5
			C287.1,334.5,288.3,334,288.6,332.1z"/>
		<path class="st10" d="M293.7,325.6h1.3l-1.7,9.9h-1.3L293.7,325.6z M294.2,322.4h1.3l-0.3,1.9h-1.3L294.2,322.4z"/>
		<path class="st10" d="M294.8,334.8l0.7-1c0.5,0.3,1.3,0.7,2.6,0.7c0.9,0,1.8-0.4,1.8-1.7c0-0.8-0.5-1.2-1.6-1.9
			c-1.2-0.8-2-1.4-2-2.6c0-2.1,1.4-2.8,3-2.8c1.3,0,2.1,0.3,2.7,0.6l-0.7,1c-0.5-0.3-1.1-0.5-2.1-0.5c-1.1,0-1.7,0.6-1.7,1.6
			c0,0.7,0.7,1.2,1.6,1.8c1.2,0.8,2,1.5,2,2.8c0,2.2-1.5,2.9-3.1,2.9C296.4,335.6,295.5,335.2,294.8,334.8z"/>
		<path class="st10" d="M302.3,332.4c0-0.7,0.1-1.4,0.2-2.2c0.5-3,1.6-4.8,4.1-4.8c2.4,0,3,1,3,2.6c0,0.8-0.2,2.1-0.4,3.1h-5.6
			c-0.1,0.5-0.1,0.9-0.1,1.3c0,1.3,0.5,2.1,2.2,2.1c0.9,0,1.5-0.2,2.2-0.4l0.4,1.1c-0.8,0.3-1.7,0.5-2.7,0.5
			C303.1,335.6,302.3,334.3,302.3,332.4z M303.9,329.9h4.3c0.1-0.6,0.2-1.2,0.2-1.7c0-1-0.3-1.6-1.8-1.6
			C304.9,326.6,304.3,327.8,303.9,329.9z"/>
		<path class="st10" d="M172.1,343.6l1.1-0.1l-0.1,0.8c0.6-0.6,1.5-1,2.9-1c2.2,0,2.8,1.3,2.8,3.1c0,0.7-0.1,1.6-0.3,2.4
			c-0.5,2.6-1.2,4.8-3.8,4.8c-1.8,0-2.6-0.5-2.9-1.3l-0.7,4h-1.3L172.1,343.6z M177.3,348.7c0.1-0.7,0.2-1.4,0.2-2
			c0-1.2-0.4-2.1-1.9-2.1c-2.1,0-2.6,1.5-3,3.7c-0.1,0.7-0.2,1.3-0.2,1.9c0,1.3,0.5,2.2,2.2,2.2
			C176.4,352.4,176.9,350.9,177.3,348.7z"/>
		<path class="st10" d="M179.4,351.2c0-3.4,1.8-4.3,4.8-4.3h1.3c0.2-1.3,0.2-2.3-1.6-2.3c-0.7,0-1.6,0.1-2.2,0.4l-0.4-1.1
			c0.8-0.3,1.8-0.5,2.8-0.5c3,0,3.1,1.4,2.7,3.8l-0.7,4.1c-0.1,0.8-0.1,1,0.6,1l-0.2,1.2c-0.1,0-0.3,0-0.4,0c-0.9,0-1.2-0.3-1.2-0.9
			c-0.6,0.7-1.7,1-2.7,1C180.2,353.5,179.4,352.8,179.4,351.2z M184.9,350l0.3-2h-1.1c-2.4,0-3.5,0.5-3.5,3c0,1.1,0.6,1.5,1.7,1.5
			C183.4,352.4,184.5,352,184.9,350z"/>
		<path class="st10" d="M187.5,355.2h0.7c0.6,0,0.8-0.2,1.1-0.7l0.5-1l-1.2-9.9h1.4l0.8,8l3.6-8h1.3l-5.3,11.3
			c-0.6,1.2-1.2,1.5-2.2,1.5h-0.9L187.5,355.2z"/>
		<path class="st10" d="M194.9,351.2c0-3.4,1.8-4.3,4.8-4.3h1.3c0.2-1.3,0.2-2.3-1.6-2.3c-0.7,0-1.6,0.1-2.2,0.4l-0.4-1.1
			c0.8-0.3,1.8-0.5,2.8-0.5c3,0,3.1,1.4,2.7,3.8l-0.7,4.1c-0.1,0.8-0.1,1,0.6,1l-0.2,1.2c-0.1,0-0.3,0-0.4,0c-0.9,0-1.2-0.3-1.2-0.9
			c-0.6,0.7-1.7,1-2.7,1C195.8,353.5,194.9,352.8,194.9,351.2z M200.4,350l0.3-2h-1.1c-2.4,0-3.5,0.5-3.5,3c0,1.1,0.6,1.5,1.7,1.5
			C198.9,352.4,200,352,200.4,350z"/>
		<path class="st10" d="M205.3,343.6l1.1-0.1l-0.1,0.9c0.5-0.6,1.4-1.1,2.8-1.1c2.9,0,2.8,1.8,2.4,3.8l-1.1,6.3h-1.3l1.1-6.2
			c0.3-1.7,0.3-2.7-1.6-2.7c-1.7,0-2.3,1.2-2.7,3.5l-0.9,5.3h-1.3L205.3,343.6z"/>
		<path class="st10" d="M213.6,343.5h1.5l0.7-2.8l1.1-0.2l-0.5,3h2.3l-0.2,1.2h-2.3l-1.1,6.2c-0.2,0.9-0.1,1.4,1,1.4h1l-0.2,1.2
			c-0.2,0-1,0-1.1,0c-2.1,0-2.3-0.9-2-2.7l1.1-6.1h-1.5L213.6,343.5z"/>
		<path class="st10" d="M218.6,350.3c0-0.7,0.1-1.4,0.2-2.2c0.5-3,1.6-4.8,4.1-4.8c2.4,0,3,1,3,2.6c0,0.8-0.2,2.1-0.4,3.1h-5.6
			c-0.1,0.5-0.1,0.9-0.1,1.3c0,1.3,0.5,2.1,2.2,2.1c0.9,0,1.5-0.2,2.2-0.4l0.4,1.1c-0.8,0.3-1.7,0.5-2.7,0.5
			C219.3,353.6,218.6,352.3,218.6,350.3z M220.1,347.8h4.3c0.1-0.6,0.2-1.2,0.2-1.7c0-1-0.3-1.6-1.8-1.6
			C221.1,344.5,220.5,345.8,220.1,347.8z"/>
		<path class="st10" d="M230,350.5c0-0.7,0.1-1.6,0.3-2.4c0.5-2.6,1.2-4.7,3.8-4.7c1.7,0,2.6,0.5,2.9,1.2l0.9-5h1.3l-2.4,13.8
			l-1.1,0.1l0.1-1c-0.6,0.6-1.5,1.1-2.9,1.1C230.6,353.6,230,352.2,230,350.5z M236.2,348.7c0.1-0.7,0.2-1.3,0.2-1.9
			c0-1.3-0.5-2.2-2.2-2.2c-1.8,0-2.3,1.4-2.7,3.7c-0.1,0.7-0.2,1.4-0.2,2c0,1.2,0.4,2.1,1.9,2.1
			C235.3,352.4,235.8,350.9,236.2,348.7z"/>
		<path class="st10" d="M239.1,350.3c0-0.7,0.1-1.4,0.2-2.2c0.5-3,1.6-4.8,4.1-4.8c2.4,0,3,1,3,2.6c0,0.8-0.2,2.1-0.4,3.1h-5.6
			c-0.1,0.5-0.1,0.9-0.1,1.3c0,1.3,0.5,2.1,2.2,2.1c0.9,0,1.5-0.2,2.2-0.4l0.4,1.1c-0.8,0.3-1.7,0.5-2.7,0.5
			C239.8,353.6,239.1,352.3,239.1,350.3z M240.6,347.8h4.3c0.1-0.6,0.2-1.2,0.2-1.7c0-1-0.3-1.6-1.8-1.6
			C241.6,344.5,241,345.8,240.6,347.8z"/>
		<path class="st10" d="M248.7,343.6l1.1-0.1l-0.1,0.8c0.6-0.6,1.5-1,2.9-1c2.2,0,2.8,1.3,2.8,3.1c0,0.7-0.1,1.6-0.3,2.4
			c-0.5,2.6-1.2,4.8-3.8,4.8c-1.8,0-2.6-0.5-2.9-1.3l-0.7,4h-1.3L248.7,343.6z M253.8,348.7c0.1-0.7,0.2-1.4,0.2-2
			c0-1.2-0.4-2.1-1.9-2.1c-2.1,0-2.6,1.5-3,3.7c-0.1,0.7-0.2,1.3-0.2,1.9c0,1.3,0.5,2.2,2.2,2.2
			C252.9,352.4,253.4,350.9,253.8,348.7z"/>
		<path class="st10" d="M256.6,349.6l1.1-6.1h1.3l-1.1,6.1c-0.3,1.5-0.4,2.7,1.7,2.7c1.7,0,2-0.7,2.3-2.4l1.1-6.5h1.3l-1.2,6.6
			c-0.4,2.4-1.1,3.5-3.6,3.5C256.4,353.6,256.2,352.1,256.6,349.6z"/>
		<path class="st10" d="M266.5,343.5h1.3l-1.7,9.9h-1.3L266.5,343.5z M267,340.3h1.3l-0.3,1.9h-1.3L267,340.3z"/>
		<path class="st10" d="M267.6,352.7l0.7-1c0.5,0.3,1.3,0.7,2.6,0.7c0.9,0,1.8-0.4,1.8-1.7c0-0.8-0.5-1.2-1.6-1.9
			c-1.2-0.8-2-1.4-2-2.6c0-2.1,1.4-2.8,3-2.8c1.3,0,2.1,0.3,2.7,0.6l-0.7,1c-0.5-0.3-1.1-0.5-2.1-0.5c-1.1,0-1.7,0.6-1.7,1.6
			c0,0.7,0.7,1.2,1.6,1.8c1.2,0.8,2,1.5,2,2.8c0,2.2-1.5,2.9-3.1,2.9C269.2,353.6,268.3,353.2,267.6,352.7z"/>
		<path class="st10" d="M278.1,352.4l3.4-3.7c3-3.2,3.6-4.1,3.6-5.9c0-1-0.5-1.6-2-1.6c-0.7,0-1.5,0.1-2.3,0.5l-0.5-1.1
			c0.9-0.4,1.9-0.6,3-0.6c2.3,0,3.2,1,3.2,2.8c0,2.2-1.5,4.1-4,6.6l-2.7,2.8h5.1l-0.2,1.2h-6.7L278.1,352.4z"/>
		<path class="st10" d="M287.4,349.9c0-1,0.2-2.1,0.4-3.5c0.8-4.7,1.9-6.5,4.8-6.5c2.6,0,3.5,1.3,3.5,3.7c0,1-0.1,2.1-0.4,3.5
			c-0.8,4.8-1.9,6.4-4.7,6.4C288.3,353.6,287.4,352.3,287.4,349.9z M294.4,347c0.3-1.3,0.4-2.4,0.4-3.2c0-1.7-0.6-2.5-2.2-2.5
			c-2,0-2.7,1.4-3.4,5.3c-0.2,1.2-0.4,2.4-0.4,3.2c0,1.8,0.6,2.6,2.3,2.6C292.9,352.4,293.6,351.1,294.4,347z"/>
		<path class="st10" d="M300.2,341.3h-2l0.2-1.2h3.3l-2.4,13.3H298L300.2,341.3z"/>
		<path class="st10" d="M301.6,352.6l0.7-1.1c0.7,0.4,1.5,0.8,2.8,0.8c1.4,0,2.2-0.6,2.6-2.7c0.1-0.4,0.1-0.7,0.1-1
			c0-1.1-0.5-1.7-2.4-1.7h-1.1l0.2-1.2h1.7c1.5,0,2-0.7,2.3-2.1c0.1-0.3,0.1-0.6,0.1-0.8c0-1.2-0.6-1.5-2-1.5
			c-0.7,0-1.5,0.1-2.2,0.5l-0.5-1.1c0.9-0.4,2-0.7,3-0.7c2.1,0,3.1,0.6,3.1,2.4c0,0.3,0,0.7-0.1,1.1c-0.3,1.5-0.7,2.5-1.9,2.9
			c1,0.4,1.2,1.1,1.2,2.2c0,0.4-0.1,0.9-0.1,1.3c-0.5,2.9-1.8,3.7-3.9,3.7C303.4,353.6,302.5,353.2,301.6,352.6z"/>
	</g>
</g>
<g id="A64_Source" class="st2">
</g>
<g id="A64">
</g>
<g id="A89_Source" class="st2">
</g>
<g id="A89">
</g>
<g id="A65_Source" class="st2">
</g>
<g id="A65">
</g>
</svg>
