<?xml version="1.0" encoding="utf-8"?>
<!-- Generator: Adobe Illustrator 21.1.0, SVG Export Plug-In . SVG Version: 6.00 Build 0)  -->
<svg version="1.1" xmlns="http://www.w3.org/2000/svg" xmlns:xlink="http://www.w3.org/1999/xlink" x="0px" y="0px"
	 viewBox="0 0 320 415" style="enable-background:new 0 0 320 415;" xml:space="preserve">
<style type="text/css">
	.st0{fill:none;}
	.st1{fill:none;stroke:#1D1D1B;stroke-width:0.3;stroke-linejoin:round;}
	.st2{display:none;}
	.st3{display:inline;}
	.st4{fill:none;stroke:#000000;stroke-width:0.1732;stroke-miterlimit:10;}
	.st5{stroke:#000000;stroke-width:8.660254e-02;stroke-miterlimit:10;}
	.st6{fill:none;stroke:#000000;stroke-width:9;stroke-miterlimit:10;}
	.st7{fill:#F6D5D1;}
	.st8{opacity:0.27;fill:url(#SVGID_1_);}
	.st9{display:inline;fill:url(#SVGID_2_);}
	.st10{fill:#808080;}
	.st11{font-family:'AntennaCond-Medium';}
	.st12{font-size:18px;}
	.st13{fill:#D42E1A;}
	.st14{font-family:'AntennaCond-Regular';}
	.st15{font-size:20px;}
	.st16{display:inline;fill:#D42E1A;}
	.st17{font-family:'AntennaExtraCond-Bold';}
	.st18{font-size:32.4075px;}
	.st19{display:inline;fill:none;stroke:#871103;stroke-width:1.5;stroke-miterlimit:10;}
	.st20{fill:none;stroke:#D42E1A;stroke-width:3.043;stroke-linecap:round;stroke-linejoin:round;stroke-miterlimit:10;}
	.st21{display:inline;fill:none;stroke:#000000;stroke-miterlimit:10;}
	.st22{display:inline;fill:#FFFFFF;stroke:#000000;stroke-width:0.75;stroke-miterlimit:10;}
	.st23{fill:none;stroke:#000000;stroke-miterlimit:10;}
	.st24{fill:#FFFFFF;stroke:#000000;stroke-width:0.75;stroke-miterlimit:10;}
	.st25{display:inline;opacity:0.7;}
	.st26{fill:#FFFFFF;}
	.st27{display:inline;fill:#FFFFFF;}
	.st28{font-size:27px;}
	.st29{display:inline;fill:#871103;}
	.st30{font-family:'AntennaCond-LightItalic';}
	.st31{font-size:20.8708px;}
	.st32{fill:none;stroke:#871103;stroke-width:0.75;stroke-miterlimit:10;}
	.st33{fill:#871103;}
	.st34{opacity:0.27;fill:url(#SVGID_3_);}
	.st35{fill:url(#SVGID_4_);}
	.st36{fill:none;stroke:#871103;stroke-width:1.5;stroke-miterlimit:10;}
	.st37{opacity:0.7;}
	.st38{opacity:0.27;fill:url(#SVGID_5_);}
	.st39{display:inline;fill:url(#SVGID_6_);}
	.st40{display:inline;fill:none;stroke:#D42E1A;stroke-width:3;stroke-linecap:round;stroke-linejoin:round;stroke-miterlimit:10;}
	.st41{opacity:0.27;fill:url(#SVGID_7_);}
	.st42{fill:url(#SVGID_8_);}
	.st43{fill:none;stroke:#D42E1A;stroke-width:3;stroke-linecap:round;stroke-linejoin:round;stroke-miterlimit:10;}
	.st44{opacity:0.27;fill:url(#SVGID_9_);}
	.st45{display:inline;fill:url(#SVGID_10_);}
	.st46{fill:none;stroke:#D42E1A;stroke-width:2.7954;stroke-linecap:round;stroke-linejoin:round;stroke-miterlimit:10;}
	.st47{opacity:0.27;fill:url(#SVGID_11_);}
	.st48{fill:url(#SVGID_12_);}
	.st49{opacity:0.27;fill:url(#SVGID_13_);}
	.st50{display:inline;fill:url(#SVGID_14_);}
	.st51{fill:none;stroke:#D42E1A;stroke-width:2.8186;stroke-linecap:round;stroke-linejoin:round;stroke-miterlimit:10;}
	.st52{opacity:0.27;fill:url(#SVGID_15_);}
	.st53{fill:url(#SVGID_16_);}
	.st54{opacity:0.27;fill:url(#SVGID_17_);}
	.st55{display:inline;fill:url(#SVGID_18_);}
	.st56{opacity:0.27;fill:url(#SVGID_19_);}
	.st57{fill:url(#SVGID_20_);}
	.st58{opacity:0.27;fill:url(#SVGID_21_);}
	.st59{display:inline;fill:url(#SVGID_22_);}
	.st60{opacity:0.27;fill:url(#SVGID_23_);}
	.st61{fill:url(#SVGID_24_);}
</style>
<pattern  x="-560.3" y="-22.5" width="72" height="72" patternUnits="userSpaceOnUse" id="Lignes_diagonales" viewBox="79.6 -148.6 72 72" style="overflow:visible;">
	<g>
		<rect x="79.6" y="-148.6" class="st0" width="72" height="72"/>
		<g>
			<line class="st1" x1="144.1" y1="-66.1" x2="162.1" y2="-84.1"/>
			<line class="st1" x1="144.1" y1="-60.1" x2="168.1" y2="-84.1"/>
			<line class="st1" x1="144.1" y1="-54.1" x2="174.1" y2="-84.1"/>
			<line class="st1" x1="144.1" y1="-48.1" x2="180.1" y2="-84.1"/>
			<line class="st1" x1="144.1" y1="-42.1" x2="186.1" y2="-84.1"/>
			<line class="st1" x1="144.1" y1="-36.1" x2="192.1" y2="-84.1"/>
			<line class="st1" x1="144.1" y1="-30.1" x2="198.1" y2="-84.1"/>
			<line class="st1" x1="144.1" y1="-24.1" x2="204.1" y2="-84.1"/>
			<line class="st1" x1="144.1" y1="-18.1" x2="210.1" y2="-84.1"/>
			<line class="st1" x1="144.1" y1="-12.1" x2="216.1" y2="-84.1"/>
			<line class="st1" x1="144.1" y1="-6.1" x2="222.1" y2="-84.1"/>
			<line class="st1" x1="144.1" y1="-0.1" x2="228.1" y2="-84.1"/>
			<line class="st1" x1="150.1" y1="-0.1" x2="228.1" y2="-78.1"/>
		</g>
		<g>
			<line class="st1" x1="72.1" y1="-66.1" x2="90.1" y2="-84.1"/>
			<line class="st1" x1="72.1" y1="-60.1" x2="96.1" y2="-84.1"/>
			<line class="st1" x1="72.1" y1="-54.1" x2="102.1" y2="-84.1"/>
			<line class="st1" x1="72.1" y1="-48.1" x2="108.1" y2="-84.1"/>
			<line class="st1" x1="72.1" y1="-42.1" x2="114.1" y2="-84.1"/>
			<line class="st1" x1="72.1" y1="-36.1" x2="120.1" y2="-84.1"/>
			<line class="st1" x1="72.1" y1="-30.1" x2="126.1" y2="-84.1"/>
			<line class="st1" x1="72.1" y1="-24.1" x2="132.1" y2="-84.1"/>
			<line class="st1" x1="72.1" y1="-18.1" x2="138.1" y2="-84.1"/>
			<line class="st1" x1="72.1" y1="-12.1" x2="144.1" y2="-84.1"/>
			<line class="st1" x1="72.1" y1="-6.1" x2="150.1" y2="-84.1"/>
			<line class="st1" x1="72.1" y1="-0.1" x2="156.1" y2="-84.1"/>
			<line class="st1" x1="78.1" y1="-0.1" x2="156.1" y2="-78.1"/>
		</g>
		<g>
			<line class="st1" x1="0.1" y1="-0.1" x2="84.1" y2="-84.1"/>
			<line class="st1" x1="6.1" y1="-0.1" x2="84.1" y2="-78.1"/>
		</g>
		<g>
			<line class="st1" x1="144.1" y1="-138.1" x2="162.1" y2="-156.1"/>
			<line class="st1" x1="144.1" y1="-132.1" x2="168.1" y2="-156.1"/>
			<line class="st1" x1="144.1" y1="-126.1" x2="174.1" y2="-156.1"/>
			<line class="st1" x1="144.1" y1="-120.1" x2="180.1" y2="-156.1"/>
			<line class="st1" x1="144.1" y1="-114.1" x2="186.1" y2="-156.1"/>
			<line class="st1" x1="144.1" y1="-108.1" x2="192.1" y2="-156.1"/>
			<line class="st1" x1="144.1" y1="-102.1" x2="198.1" y2="-156.1"/>
			<line class="st1" x1="144.1" y1="-96.1" x2="204.1" y2="-156.1"/>
			<line class="st1" x1="144.1" y1="-90.1" x2="210.1" y2="-156.1"/>
			<line class="st1" x1="144.1" y1="-84.1" x2="216.1" y2="-156.1"/>
			<line class="st1" x1="144.1" y1="-78.1" x2="222.1" y2="-156.1"/>
			<line class="st1" x1="144.1" y1="-72.1" x2="228.1" y2="-156.1"/>
			<line class="st1" x1="150.1" y1="-72.1" x2="228.1" y2="-150.1"/>
		</g>
		<g>
			<line class="st1" x1="72.1" y1="-138.1" x2="90.1" y2="-156.1"/>
			<line class="st1" x1="72.1" y1="-132.1" x2="96.1" y2="-156.1"/>
			<line class="st1" x1="72.1" y1="-126.1" x2="102.1" y2="-156.1"/>
			<line class="st1" x1="72.1" y1="-120.1" x2="108.1" y2="-156.1"/>
			<line class="st1" x1="72.1" y1="-114.1" x2="114.1" y2="-156.1"/>
			<line class="st1" x1="72.1" y1="-108.1" x2="120.1" y2="-156.1"/>
			<line class="st1" x1="72.1" y1="-102.1" x2="126.1" y2="-156.1"/>
			<line class="st1" x1="72.1" y1="-96.1" x2="132.1" y2="-156.1"/>
			<line class="st1" x1="72.1" y1="-90.1" x2="138.1" y2="-156.1"/>
			<line class="st1" x1="72.1" y1="-84.1" x2="144.1" y2="-156.1"/>
			<line class="st1" x1="72.1" y1="-78.1" x2="150.1" y2="-156.1"/>
			<line class="st1" x1="72.1" y1="-72.1" x2="156.1" y2="-156.1"/>
			<line class="st1" x1="78.1" y1="-72.1" x2="156.1" y2="-150.1"/>
			<line class="st1" x1="84.1" y1="-72.1" x2="156.1" y2="-144.1"/>
			<line class="st1" x1="90.1" y1="-72.1" x2="156.1" y2="-138.1"/>
			<line class="st1" x1="96.1" y1="-72.1" x2="156.1" y2="-132.1"/>
			<line class="st1" x1="102.1" y1="-72.1" x2="156.1" y2="-126.1"/>
			<line class="st1" x1="108.1" y1="-72.1" x2="156.1" y2="-120.1"/>
			<line class="st1" x1="114.1" y1="-72.1" x2="156.1" y2="-114.1"/>
			<line class="st1" x1="120.1" y1="-72.1" x2="156.1" y2="-108.1"/>
			<line class="st1" x1="126.1" y1="-72.1" x2="156.1" y2="-102.1"/>
			<line class="st1" x1="132.1" y1="-72.1" x2="156.1" y2="-96.1"/>
			<line class="st1" x1="138.1" y1="-72.1" x2="156.1" y2="-90.1"/>
			<line class="st1" x1="144.1" y1="-72.1" x2="156.1" y2="-84.1"/>
		</g>
		<g>
			<line class="st1" x1="0.1" y1="-72.1" x2="84.1" y2="-156.1"/>
			<line class="st1" x1="6.1" y1="-72.1" x2="84.1" y2="-150.1"/>
			<line class="st1" x1="12.1" y1="-72.1" x2="84.1" y2="-144.1"/>
			<line class="st1" x1="18.1" y1="-72.1" x2="84.1" y2="-138.1"/>
			<line class="st1" x1="24.1" y1="-72.1" x2="84.1" y2="-132.1"/>
			<line class="st1" x1="30.1" y1="-72.1" x2="84.1" y2="-126.1"/>
			<line class="st1" x1="36.1" y1="-72.1" x2="84.1" y2="-120.1"/>
			<line class="st1" x1="42.1" y1="-72.1" x2="84.1" y2="-114.1"/>
			<line class="st1" x1="48.1" y1="-72.1" x2="84.1" y2="-108.1"/>
			<line class="st1" x1="54.1" y1="-72.1" x2="84.1" y2="-102.1"/>
			<line class="st1" x1="60.1" y1="-72.1" x2="84.1" y2="-96.1"/>
			<line class="st1" x1="66.1" y1="-72.1" x2="84.1" y2="-90.1"/>
			<line class="st1" x1="72.1" y1="-72.1" x2="84.1" y2="-84.1"/>
		</g>
		<g>
			<line class="st1" x1="144.1" y1="-144.1" x2="228.1" y2="-228.1"/>
			<line class="st1" x1="150.1" y1="-144.1" x2="228.1" y2="-222.1"/>
		</g>
		<g>
			<line class="st1" x1="72.1" y1="-144.1" x2="156.1" y2="-228.1"/>
			<line class="st1" x1="78.1" y1="-144.1" x2="156.1" y2="-222.1"/>
			<line class="st1" x1="84.1" y1="-144.1" x2="156.1" y2="-216.1"/>
			<line class="st1" x1="90.1" y1="-144.1" x2="156.1" y2="-210.1"/>
			<line class="st1" x1="96.1" y1="-144.1" x2="156.1" y2="-204.1"/>
			<line class="st1" x1="102.1" y1="-144.1" x2="156.1" y2="-198.1"/>
			<line class="st1" x1="108.1" y1="-144.1" x2="156.1" y2="-192.1"/>
			<line class="st1" x1="114.1" y1="-144.1" x2="156.1" y2="-186.1"/>
			<line class="st1" x1="120.1" y1="-144.1" x2="156.1" y2="-180.1"/>
			<line class="st1" x1="126.1" y1="-144.1" x2="156.1" y2="-174.1"/>
			<line class="st1" x1="132.1" y1="-144.1" x2="156.1" y2="-168.1"/>
			<line class="st1" x1="138.1" y1="-144.1" x2="156.1" y2="-162.1"/>
			<line class="st1" x1="144.1" y1="-144.1" x2="156.1" y2="-156.1"/>
		</g>
		<g>
			<line class="st1" x1="0.1" y1="-144.1" x2="84.1" y2="-228.1"/>
			<line class="st1" x1="6.1" y1="-144.1" x2="84.1" y2="-222.1"/>
			<line class="st1" x1="12.1" y1="-144.1" x2="84.1" y2="-216.1"/>
			<line class="st1" x1="18.1" y1="-144.1" x2="84.1" y2="-210.1"/>
			<line class="st1" x1="24.1" y1="-144.1" x2="84.1" y2="-204.1"/>
			<line class="st1" x1="30.1" y1="-144.1" x2="84.1" y2="-198.1"/>
			<line class="st1" x1="36.1" y1="-144.1" x2="84.1" y2="-192.1"/>
			<line class="st1" x1="42.1" y1="-144.1" x2="84.1" y2="-186.1"/>
			<line class="st1" x1="48.1" y1="-144.1" x2="84.1" y2="-180.1"/>
			<line class="st1" x1="54.1" y1="-144.1" x2="84.1" y2="-174.1"/>
			<line class="st1" x1="60.1" y1="-144.1" x2="84.1" y2="-168.1"/>
			<line class="st1" x1="66.1" y1="-144.1" x2="84.1" y2="-162.1"/>
			<line class="st1" x1="72.1" y1="-144.1" x2="84.1" y2="-156.1"/>
		</g>
	</g>
</pattern>
<g id="SOURCE" class="st2">
</g>
<g id="A10_Source" class="st2">
	<g class="st3">
		<polygon class="st7" points="12.4,11.6 12.4,402.7 37.8,402.7 88.6,353.8 134.3,304.9 159.7,256 159.7,207.2 180,158.3 
			195.3,109.4 220.7,60.5 248.7,11.5 		"/>
		<pattern  id="SVGID_1_" xlink:href="#Lignes_diagonales" patternTransform="matrix(0 -1.104 -0.92 0 -14703.8623 -16329)">
		</pattern>
		<polygon class="st8" points="12.4,11.6 12.4,402.7 37.8,402.7 88.6,353.8 134.3,304.9 159.7,256 159.7,207.2 180,158.3 
			195.3,109.4 220.7,60.5 248.7,11.5 		"/>
	</g>
	
		<linearGradient id="SVGID_2_" gradientUnits="userSpaceOnUse" x1="12.3975" y1="202.4101" x2="247.6614" y2="202.4101" gradientTransform="matrix(1 0 0 -1 0 409.5)">
		<stop  offset="0" style="stop-color:#FFFFFF"/>
		<stop  offset="1" style="stop-color:#FFFFFF;stop-opacity:0"/>
	</linearGradient>
	<polygon class="st9" points="12.4,11.6 12.4,402.7 37.8,402.7 88.6,353.8 134.3,304.9 159.7,256 159.7,207.2 180,158.3 
		195.3,109.4 220.7,60.5 247.7,11.5 	"/>
	<g id="Flèche_6" class="st3">
	</g>
	<g class="st3">
		<text transform="matrix(1 0 0 1 117.9388 388.6357)"><tspan x="0" y="0" class="st10 st11 st12">2011</tspan><tspan x="0" y="21" class="st13 st14 st15">52 €</tspan></text>
	</g>
	<g class="st3">
		<text transform="matrix(1 0 0 1 175.2773 293.6357)"><tspan x="0" y="0" class="st10 st11 st12">2014</tspan><tspan x="0" y="21" class="st13 st14 st15">54,40 €</tspan></text>
	</g>
	<g class="st3">
		<polygon class="st13" points="274.6,182.9 273.8,182.9 269.4,190.4 270.7,190.4 		"/>
		<polygon class="st13" points="263.9,199.7 248.2,226.7 251.9,226.7 265.9,199.7 		"/>
		<polygon class="st13" points="253.1,226.7 271.3,226.7 274.9,199.7 266.5,199.7 		"/>
		<polygon class="st13" points="277.4,201 277.4,201.5 277.4,211.1 277.4,215.9 277.4,226.7 278.3,226.7 278.3,215.9 278.3,211.1 
			278.3,201.5 278.3,201 278.3,199.7 277.4,199.7 		"/>
		<polygon class="st13" points="284.4,190.4 280.7,182.9 278.7,182.9 279.6,190.4 		"/>
		<rect x="277.4" y="182.9" class="st13" width="0.9" height="7.5"/>
		<polygon class="st13" points="280.8,199.7 284.4,226.7 300.6,226.7 302.5,226.7 289.1,199.7 		"/>
		<polygon class="st13" points="276.1,190.4 277,182.9 274.9,182.9 271.1,190.4 		"/>
		<polygon class="st13" points="291.6,199.7 289.7,199.7 303.7,226.7 307.4,226.7 		"/>
		<polygon class="st13" points="286.2,190.4 281.8,182.9 280.9,182.9 284.8,190.4 		"/>
		<polygon class="st13" points="289,198.4 290.8,198.4 295.2,198.4 295.6,199 296,199.7 297.8,202.9 299.7,202.9 299.7,199.7 
			299.7,199 299.7,198.5 299.7,198.4 302.4,198.4 302.4,191.7 287,191.7 285.5,191.7 285.1,191.7 279.8,191.7 278.3,191.7 
			278.3,191.7 277.4,191.7 277.4,191.7 275.8,191.7 270.4,191.7 270,191.7 268.6,191.7 253.5,191.7 253.5,198.4 256.2,198.4 
			256.2,198.5 256.2,199 256.2,199.7 256.2,202.9 258.1,202.9 259.9,199.7 260.3,199 260.7,198.4 264.7,198.4 266.5,198.4 
			267.1,198.4 275,198.4 277.4,198.4 278.3,198.4 280.7,198.4 288.4,198.4 		"/>
	</g>
	<text transform="matrix(1 0 0 1 256.6438 256.5996)" class="st16 st17 st18">A10</text>
	<polyline class="st19" points="42.5,402.9 95.9,354.3 117.2,305.7 133.2,257 133.2,208.4 138.6,159.8 167.9,111.1 218.7,62.5 	"/>
	<g class="st3">
		<g>
			<polyline class="st20" points="39.5,404 89,355.1 135.8,306.2 159.2,257.4 159.2,208.5 180,159.6 195.6,110.7 219,61.8 
				247.7,12.9 			"/>
		</g>
	</g>
	<line class="st21" x1="47.7" y1="405" x2="114.7" y2="405"/>
	<circle class="st22" cx="40" cy="404" r="7.5"/>
	<polyline class="st21" points="160,254.5 197,254.5 197,275 	"/>
	<circle class="st22" cx="159.5" cy="254.5" r="7.5"/>
	<g class="st3">
		<text transform="matrix(1 0 0 1 256.2773 48.6357)"><tspan x="0" y="0" class="st10 st11 st12">2019</tspan><tspan x="0" y="21" class="st13 st14 st15">56,20 €</tspan></text>
	</g>
	<g class="st3">
		<polyline class="st23" points="246,15.5 273,15.5 273,30.5 		"/>
		<circle class="st24" cx="245.5" cy="15.5" r="7.5"/>
	</g>
	<circle class="st16" cx="277.8" cy="130.5" r="41"/>
	<g class="st25">
		<polygon class="st26" points="263.2,110.2 270.4,110.2 270.4,119 285.1,119 285.1,110.5 292.3,110.5 277.9,95.5 		"/>
	</g>
	<text transform="matrix(0.8526 0 0 1 255.123 147.7246)" class="st27 st17 st28">+8 %</text>
	<text transform="matrix(1 0 0 1 27.7944 210.9062)" class="st29 st30 st31">Inflation</text>
	<g class="st3">
		<g>
			<path class="st32" d="M76.4,193.1c4.9-28.7,31.6-48.3,60.3-44.5"/>
			<g>
				<polygon class="st33" points="132.7,151.3 136.1,148.6 133.4,145.2 136,145.5 138.6,148.9 135.3,151.6 				"/>
			</g>
		</g>
	</g>
</g>
<g id="A10">
	<g>
		<polygon class="st7" points="12.4,11.6 12.4,402.7 37.8,402.7 88.6,353.8 134.3,304.9 159.7,256 159.7,207.2 180,158.3 
			195.3,109.4 220.7,60.5 248.7,11.5 		"/>
		<pattern  id="SVGID_3_" xlink:href="#Lignes_diagonales" patternTransform="matrix(0 -1.104 -0.92 0 -14703.8623 -16329)">
		</pattern>
		<polygon class="st34" points="12.4,11.6 12.4,402.7 37.8,402.7 88.6,353.8 134.3,304.9 159.7,256 159.7,207.2 180,158.3 
			195.3,109.4 220.7,60.5 248.7,11.5 		"/>
	</g>
	
		<linearGradient id="SVGID_4_" gradientUnits="userSpaceOnUse" x1="12.3975" y1="202.4101" x2="247.6614" y2="202.4101" gradientTransform="matrix(1 0 0 -1 0 409.5)">
		<stop  offset="0" style="stop-color:#FFFFFF"/>
		<stop  offset="1" style="stop-color:#FFFFFF;stop-opacity:0"/>
	</linearGradient>
	<polygon class="st35" points="12.4,11.6 12.4,402.7 37.8,402.7 88.6,353.8 134.3,304.9 159.7,256 159.7,207.2 180,158.3 
		195.3,109.4 220.7,60.5 247.7,11.5 	"/>
	<g>
		<g>
			<path class="st10" d="M118.5,387l3.1-3.6c2.3-2.6,2.4-3.3,2.4-4.6c0-1.2-0.5-1.8-1.9-1.8c-1,0-1.9,0.3-2.7,0.6l-0.9-1.7
				c1-0.5,2.1-0.8,3.9-0.8c2.6,0,3.6,1.1,3.6,3.4c0,2-0.5,2.9-3,5.9l-2,2.4h5.2v1.8h-7.7V387z"/>
			<path class="st10" d="M128.1,382c0-4.4,0.6-6.8,4.5-6.8c3.8,0,4.4,2.4,4.4,6.8c0,4.6-0.6,6.8-4.4,6.8
				C128.7,388.8,128.1,386.5,128.1,382z M135,382c0-3.5-0.4-4.9-2.4-4.9c-2,0-2.4,1.3-2.4,4.9c0,3.6,0.4,4.9,2.4,4.9
				C134.6,386.9,135,385.5,135,382z"/>
			<path class="st10" d="M140.3,377.1h-1.9v-1.9h3.9v13.3h-2V377.1z"/>
			<path class="st10" d="M146.2,377.1h-1.9v-1.9h3.9v13.3h-2V377.1z"/>
			<path class="st13" d="M118.6,408.8l0.9-1.5c0.8,0.5,1.8,0.8,3.3,0.8c1.9,0,2.8-0.6,2.8-3.3c0-2.7-0.9-3.2-2.6-3.2
				c-1.1,0-1.9,0.3-2.4,0.8l-1.5-0.4l0.4-7.2h7.2v1.7h-5.6l-0.2,4c0.6-0.4,1.4-0.6,2.7-0.6c2.7,0,3.9,1,3.9,4.9c0,4.1-1.5,5-4.6,5
				C121,409.8,119.7,409.4,118.6,408.8z"/>
			<path class="st13" d="M128.8,408.1l3.3-4.1c2.6-3.2,2.9-4,2.9-5.5c0-1.5-0.5-2.1-2.2-2.1c-1.2,0-2.2,0.3-3,0.7l-0.8-1.6
				c1-0.5,2.2-0.9,4.1-0.9c2.8,0,3.8,1.2,3.8,3.7c0,2.2-0.6,3.2-3.4,6.8l-2.3,2.9h5.9v1.7h-8.2V408.1z"/>
			<path class="st13" d="M142.1,399.9h1.9c0.3-3.6,1.5-5.2,4.6-5.2c1.4,0,2.5,0.3,3.4,0.8l-0.9,1.6c-0.7-0.4-1.4-0.6-2.5-0.6
				c-1.9,0-2.6,1.1-2.8,3.4h4.2v1.5h-4.2v1.4h4.2v1.6h-4.2c0.2,2.5,0.9,3.7,2.8,3.7c1.1,0,1.9-0.4,2.5-0.7l0.9,1.5
				c-0.9,0.5-2,0.9-3.5,0.9c-3.1,0-4.3-1.7-4.5-5.4h-1.9v-1.6h1.8v-1.4h-1.8V399.9z"/>
		</g>
	</g>
	<g>
		<g>
			<path class="st10" d="M175.8,292l3.1-3.6c2.3-2.6,2.4-3.3,2.4-4.6c0-1.2-0.5-1.8-1.9-1.8c-1,0-1.9,0.3-2.7,0.6l-0.9-1.7
				c1-0.5,2.1-0.8,3.9-0.8c2.6,0,3.6,1.1,3.6,3.4c0,2-0.5,2.9-3,5.9l-2,2.4h5.2v1.8h-7.7V292z"/>
			<path class="st10" d="M185.4,287c0-4.4,0.6-6.8,4.5-6.8c3.8,0,4.4,2.4,4.4,6.8c0,4.6-0.6,6.8-4.4,6.8
				C186.1,293.8,185.4,291.5,185.4,287z M192.3,287c0-3.5-0.4-4.9-2.4-4.9c-2,0-2.4,1.3-2.4,4.9c0,3.6,0.4,4.9,2.4,4.9
				C191.9,291.9,192.3,290.5,192.3,287z"/>
			<path class="st10" d="M197.7,282.1h-1.9v-1.9h3.9v13.3h-2V282.1z"/>
			<path class="st10" d="M201.6,289.2l4.7-8.9h2.1l-4.6,8.8h3.3l0.4-4h1.5v4h1.7v1.7H209v2.9h-1.9v-2.9h-5.4V289.2z"/>
			<path class="st13" d="M175.9,313.8l0.9-1.5c0.8,0.5,1.8,0.8,3.3,0.8c1.9,0,2.8-0.6,2.8-3.3c0-2.7-0.9-3.2-2.6-3.2
				c-1.1,0-1.9,0.3-2.4,0.8l-1.5-0.4l0.4-7.2h7.2v1.7h-5.6l-0.2,4c0.6-0.4,1.4-0.6,2.7-0.6c2.7,0,3.9,1,3.9,4.9c0,4.1-1.5,5-4.6,5
				C178.3,314.8,177,314.4,175.9,313.8z"/>
			<path class="st13" d="M186.3,309.8l5.2-10h2l-5.2,9.9h4l0.4-4.6h1.4v4.6h2v1.6h-2v3.4h-1.8v-3.4h-5.9V309.8z"/>
			<path class="st13" d="M197.4,316c0.9-0.5,1.1-0.7,1.1-1.4h-1v-2.5h2.3v2.4c0,1.3-0.2,1.8-1.8,2.5L197.4,316z"/>
			<path class="st13" d="M200.7,309.8l5.2-10h2l-5.2,9.9h4l0.4-4.6h1.4v4.6h2v1.6h-2v3.4h-1.8v-3.4h-5.9V309.8z"/>
			<path class="st13" d="M212,307.2c0-5.1,0.7-7.6,4.8-7.6c4,0,4.7,2.5,4.7,7.6c0,5.2-0.7,7.6-4.7,7.6
				C212.7,314.8,212,312.4,212,307.2z M219.6,307.2c0-4.2-0.6-5.8-2.8-5.8c-2.3,0-2.8,1.6-2.8,5.8c0,4.2,0.5,5.8,2.8,5.8
				C219.1,313.1,219.6,311.5,219.6,307.2z"/>
			<path class="st13" d="M226.8,304.9h1.9c0.3-3.6,1.5-5.2,4.6-5.2c1.4,0,2.5,0.3,3.4,0.8l-0.9,1.6c-0.7-0.4-1.4-0.6-2.5-0.6
				c-1.9,0-2.6,1.1-2.8,3.4h4.2v1.5h-4.2v1.4h4.2v1.6h-4.2c0.2,2.5,0.9,3.7,2.8,3.7c1.1,0,1.9-0.4,2.5-0.7l0.9,1.5
				c-0.9,0.5-2,0.9-3.5,0.9c-3.1,0-4.3-1.7-4.5-5.4h-1.9v-1.6h1.8v-1.4h-1.8V304.9z"/>
		</g>
	</g>
	<g>
		<polygon class="st13" points="274.6,182.9 273.8,182.9 269.4,190.4 270.7,190.4 		"/>
		<polygon class="st13" points="263.9,199.7 248.2,226.7 251.9,226.7 265.9,199.7 		"/>
		<polygon class="st13" points="253.1,226.7 271.3,226.7 274.9,199.7 266.5,199.7 		"/>
		<polygon class="st13" points="277.4,201 277.4,201.5 277.4,211.1 277.4,215.9 277.4,226.7 278.3,226.7 278.3,215.9 278.3,211.1 
			278.3,201.5 278.3,201 278.3,199.7 277.4,199.7 		"/>
		<polygon class="st13" points="284.4,190.4 280.7,182.9 278.7,182.9 279.6,190.4 		"/>
		<rect x="277.4" y="182.9" class="st13" width="0.9" height="7.5"/>
		<polygon class="st13" points="280.8,199.7 284.4,226.7 300.6,226.7 302.5,226.7 289.1,199.7 		"/>
		<polygon class="st13" points="276.1,190.4 277,182.9 274.9,182.9 271.1,190.4 		"/>
		<polygon class="st13" points="291.6,199.7 289.7,199.7 303.7,226.7 307.4,226.7 		"/>
		<polygon class="st13" points="286.2,190.4 281.8,182.9 280.9,182.9 284.8,190.4 		"/>
		<polygon class="st13" points="289,198.4 290.8,198.4 295.2,198.4 295.6,199 296,199.7 297.8,202.9 299.7,202.9 299.7,199.7 
			299.7,199 299.7,198.5 299.7,198.4 302.4,198.4 302.4,191.7 287,191.7 285.5,191.7 285.1,191.7 279.8,191.7 278.3,191.7 
			278.3,191.7 277.4,191.7 277.4,191.7 275.8,191.7 270.4,191.7 270,191.7 268.6,191.7 253.5,191.7 253.5,198.4 256.2,198.4 
			256.2,198.5 256.2,199 256.2,199.7 256.2,202.9 258.1,202.9 259.9,199.7 260.3,199 260.7,198.4 264.7,198.4 266.5,198.4 
			267.1,198.4 275,198.4 277.4,198.4 278.3,198.4 280.7,198.4 288.4,198.4 		"/>
	</g>
	<g>
		<path class="st13" d="M262.3,232.5h5.2l5.5,24.1h-4.7l-0.7-3.6H262l-0.7,3.6h-4.4L262.3,232.5z M266.5,248.9l-1.2-6.1l-0.6-3.1
			l-0.6,3.1l-1.2,6.1H266.5z"/>
		<path class="st13" d="M276.3,236.8h-2.7v-4.2h7.1v24h-4.4V236.8z"/>
		<path class="st13" d="M286.1,255.2c-2-1.8-2.1-5.4-2.1-10.6c0-4.9,0.1-8.6,1.9-10.5c1-1.1,2.6-1.8,5-1.8c2.3,0,3.9,0.7,4.9,1.8
			c1.8,1.9,1.9,5.6,1.9,10.5c0,5.2-0.1,8.8-2.1,10.6c-1,1-2.5,1.6-4.8,1.6C288.6,256.8,287.1,256.1,286.1,255.2z M293.1,244.6
			c0-6.6,0-8.1-2.3-8.1c-2.3,0-2.3,1.5-2.3,8.1c0,6.6,0,8.1,2.3,8.1C293.1,252.7,293.1,251.2,293.1,244.6z"/>
	</g>
	<polyline class="st36" points="42.5,402.9 95.9,354.3 117.2,305.7 133.2,257 133.2,208.4 138.6,159.8 167.9,111.1 218.7,62.5 	"/>
	<g>
		<g>
			<polyline class="st20" points="39.5,404 89,355.1 135.8,306.2 159.2,257.4 159.2,208.5 180,159.6 195.6,110.7 219,61.8 
				247.7,12.9 			"/>
		</g>
	</g>
	<line class="st23" x1="47.7" y1="405" x2="114.7" y2="405"/>
	<circle class="st24" cx="40" cy="404" r="7.5"/>
	<polyline class="st23" points="160,254.5 197,254.5 197,275 	"/>
	<circle class="st24" cx="159.5" cy="254.5" r="7.5"/>
	<g>
		<g>
			<path class="st10" d="M256.8,47l3.1-3.6c2.3-2.6,2.4-3.3,2.4-4.6c0-1.2-0.5-1.8-1.9-1.8c-1,0-1.9,0.3-2.7,0.6l-0.9-1.7
				c1-0.5,2.1-0.8,3.9-0.8c2.6,0,3.6,1.1,3.6,3.4c0,2-0.5,2.9-3,5.9l-2,2.4h5.2v1.8h-7.7V47z"/>
			<path class="st10" d="M266.4,42c0-4.4,0.6-6.8,4.5-6.8c3.8,0,4.4,2.4,4.4,6.8c0,4.6-0.6,6.8-4.4,6.8
				C267.1,48.8,266.4,46.5,266.4,42z M273.3,42c0-3.5-0.4-4.9-2.4-4.9c-2,0-2.4,1.3-2.4,4.9c0,3.6,0.4,4.9,2.4,4.9
				C272.9,46.9,273.3,45.5,273.3,42z"/>
			<path class="st10" d="M278.7,37.1h-1.9v-1.9h3.9v13.3h-2V37.1z"/>
			<path class="st10" d="M284.5,46.9h1.3c3.1,0,3.6-1.3,3.7-3.5c-0.5,0.7-1.5,1-3,1c-3,0-3.6-1.8-3.6-4.4c0-3.2,0.9-4.8,4.2-4.8
				c4,0,4.5,2.1,4.5,5.7c0,5.3-0.4,7.8-5.9,7.8h-1.2V46.9z M289.5,40c0-2.1-0.4-3.1-2.4-3.1c-1.7,0-2.2,1-2.2,3
				c0,1.8,0.5,2.7,2.1,2.7C288.5,42.7,289.5,42,289.5,40z"/>
			<path class="st13" d="M256.9,68.8l0.9-1.5c0.8,0.5,1.8,0.8,3.3,0.8c1.9,0,2.8-0.6,2.8-3.3c0-2.7-0.9-3.2-2.6-3.2
				c-1.1,0-1.9,0.3-2.4,0.8l-1.5-0.4l0.4-7.2h7.2v1.7h-5.6l-0.2,4c0.6-0.4,1.4-0.6,2.7-0.6c2.7,0,3.9,1,3.9,4.9c0,4.1-1.5,5-4.6,5
				C259.3,69.8,258,69.4,256.9,68.8z"/>
			<path class="st13" d="M267.6,63.6c0-5.9,0.3-8.8,6.4-8.8h1.1v1.7h-1.2c-3.8,0-4.2,1.7-4.4,4.3c0.6-0.8,1.7-1.2,3.4-1.2
				c3.3,0,3.9,1.9,3.9,4.8c0,3.5-0.9,5.3-4.5,5.3C268.2,69.8,267.6,67.6,267.6,63.6z M275,64.5c0-2.2-0.5-3.3-2.5-3.3
				c-1.7,0-2.9,0.9-2.9,3.1c0,2.6,0.5,3.7,2.8,3.7C274.5,68.1,275,66.9,275,64.5z"/>
			<path class="st13" d="M278.5,71c0.9-0.5,1.1-0.7,1.1-1.4h-1v-2.5h2.3v2.4c0,1.3-0.2,1.8-1.8,2.5L278.5,71z"/>
			<path class="st13" d="M282.5,68.1l3.3-4.1c2.6-3.2,2.9-4,2.9-5.5c0-1.5-0.5-2.1-2.2-2.1c-1.2,0-2.2,0.3-3,0.7l-0.8-1.6
				c1-0.5,2.2-0.9,4.1-0.9c2.8,0,3.8,1.2,3.8,3.7c0,2.2-0.6,3.2-3.4,6.8l-2.3,2.9h5.9v1.7h-8.2V68.1z"/>
			<path class="st13" d="M292.8,62.2c0-5.1,0.7-7.6,4.8-7.6c4,0,4.7,2.5,4.7,7.6c0,5.2-0.7,7.6-4.7,7.6
				C293.6,69.8,292.8,67.4,292.8,62.2z M300.4,62.2c0-4.2-0.6-5.8-2.8-5.8c-2.3,0-2.8,1.6-2.8,5.8c0,4.2,0.5,5.8,2.8,5.8
				C299.9,68.1,300.4,66.5,300.4,62.2z"/>
			<path class="st13" d="M307.7,59.9h1.9c0.3-3.6,1.5-5.2,4.6-5.2c1.4,0,2.5,0.3,3.4,0.8l-0.9,1.6c-0.7-0.4-1.4-0.6-2.5-0.6
				c-1.9,0-2.6,1.1-2.8,3.4h4.2v1.5h-4.2v1.4h4.2v1.6h-4.2c0.2,2.5,0.9,3.7,2.8,3.7c1.1,0,1.9-0.4,2.5-0.7l0.9,1.5
				c-0.9,0.5-2,0.9-3.5,0.9c-3.1,0-4.3-1.7-4.5-5.4h-1.9v-1.6h1.8v-1.4h-1.8V59.9z"/>
		</g>
	</g>
	<g>
		<polyline class="st23" points="246,15.5 273,15.5 273,30.5 		"/>
		<circle class="st24" cx="245.5" cy="15.5" r="7.5"/>
	</g>
	<circle class="st13" cx="277.8" cy="130.5" r="41"/>
	<g class="st37">
		<polygon class="st26" points="263.2,110.2 270.4,110.2 270.4,119 285.1,119 285.1,110.5 292.3,110.5 277.9,95.5 		"/>
	</g>
	<g>
		<path class="st26" d="M259.2,139.6h-2.8v-3.5h2.8v-4.5h3.1v4.5h2.8v3.5h-2.8v4.5h-3.1V139.6z"/>
		<path class="st26" d="M268.4,146.7c-1-1.1-1.1-2.7-1.1-4.5c0-2.6,0-4.6,1.6-5.4c-1.2-0.8-1.2-2.4-1.2-4.5c0-1.4,0.2-2.6,0.9-3.5
			c0.6-0.8,1.8-1.3,3.5-1.3s2.9,0.5,3.5,1.3c0.7,0.9,0.9,2.1,0.9,3.5c0,2.1,0,3.8-1.2,4.5c1.6,0.8,1.6,2.8,1.6,5.4
			c0,1.8-0.1,3.5-1.1,4.5c-0.7,0.8-1.9,1.2-3.6,1.2C270.2,147.9,269.1,147.4,268.4,146.7z M273.6,141.8c0-2.2-0.2-3.1-1.6-3.1
			s-1.5,0.9-1.5,3.1s0.2,3.1,1.5,3.1S273.6,144,273.6,141.8z M273.4,133c0-1.8-0.3-2.4-1.4-2.4s-1.3,0.7-1.3,2.4
			c0,1.7,0.2,2.4,1.3,2.4S273.4,134.7,273.4,133z"/>
		<path class="st26" d="M282.1,139.5c-1-1.1-1.1-3-1.1-5.5c0-2.3,0.1-4.2,1-5.3c0.6-0.7,1.5-1.2,2.8-1.2c1.3,0,2.2,0.5,2.8,1.2
			c0.9,1.1,1,3,1,5.3c0,2.5-0.1,4.4-1.1,5.5c-0.6,0.6-1.5,1.1-2.7,1.1S282.7,140.1,282.1,139.5z M285.8,134.1c0-2.8-0.1-3.6-1-3.6
			c-1,0-1,0.8-1,3.6s0,3.6,1,3.6C285.7,137.7,285.8,136.8,285.8,134.1z M292.2,127.7h2.7l-6.1,20H286L292.2,127.7z M293.5,146.9
			c-1-1.1-1.1-3-1.1-5.5c0-2.3,0.1-4.2,1-5.3c0.6-0.7,1.5-1.2,2.8-1.2c1.3,0,2.2,0.5,2.8,1.2c0.9,1.1,1,3,1,5.3
			c0,2.5-0.1,4.4-1.2,5.5c-0.6,0.6-1.5,1.1-2.6,1.1S294.1,147.5,293.5,146.9z M297.2,141.4c0-2.8,0-3.6-1-3.6c-1,0-1,0.8-1,3.6
			s0,3.6,1,3.6C297.1,145.1,297.2,144.2,297.2,141.4z"/>
	</g>
	<g>
		<path class="st33" d="M30.9,195.4h1.6l-2.7,15.5h-1.6L30.9,195.4z"/>
		<path class="st33" d="M34.5,199.5l1.2-0.1l-0.1,1c0.6-0.7,1.6-1.2,3.2-1.2c3.4,0,3.2,2.1,2.8,4.4l-1.3,7.3h-1.5l1.3-7.1
			c0.4-2,0.4-3.1-1.9-3.1c-2,0-2.7,1.4-3.1,4.1l-1.1,6.1h-1.5L34.5,199.5z"/>
		<path class="st33" d="M44,199.4h1.7l0.3-1.8c0.3-1.9,1.1-2.8,3.4-2.8h1l-0.2,1.4h-0.8c-1.4,0-1.6,0.8-1.9,1.8l-0.3,1.4h2.4
			l-0.3,1.3H47l-2.4,13.5h-1.5l2.4-13.5h-1.8L44,199.4z M49.6,208.2l2.4-13.3h1.5l-2.4,13.4c-0.2,1-0.2,1.3,1.2,1.3l-0.2,1.4
			c-0.1,0-0.2,0-0.5,0C49.5,210.9,49.2,210.1,49.6,208.2z"/>
		<path class="st33" d="M53.7,208.3c0-3.9,2-5,5.5-5h1.5c0.3-1.5,0.3-2.7-1.9-2.7c-0.9,0-1.8,0.1-2.5,0.4l-0.5-1.3
			c0.9-0.4,2.1-0.6,3.2-0.6c3.4,0,3.6,1.6,3.1,4.4l-0.8,4.7c-0.2,0.9-0.2,1.2,0.7,1.2l-0.2,1.4c-0.2,0-0.3,0-0.5,0
			c-1.1,0-1.4-0.4-1.4-1.1c-0.7,0.8-1.9,1.2-3.1,1.2C54.7,211,53.7,210.1,53.7,208.3z M60.1,206.9l0.4-2.4h-1.2
			c-2.8,0-4.1,0.6-4.1,3.4c0,1.3,0.7,1.8,2,1.8C58.3,209.7,59.7,209.2,60.1,206.9z"/>
		<path class="st33" d="M65,199.4h1.8l0.8-3.2l1.3-0.3l-0.6,3.5h2.7l-0.2,1.3H68l-1.2,7.1c-0.2,1.1-0.1,1.7,1.2,1.7h1.2l-0.2,1.4
			c-0.2,0-1.1,0-1.3,0c-2.4,0-2.7-1.1-2.3-3.1l1.2-7.1h-1.8L65,199.4z"/>
		<path class="st33" d="M73.1,199.4h1.5l-2,11.5H71L73.1,199.4z M73.7,195.7h1.5l-0.4,2.2h-1.5L73.7,195.7z"/>
		<path class="st33" d="M75.4,207.1c0-0.7,0.1-1.5,0.3-2.4c0.6-3.3,1.8-5.6,5.1-5.6c2.9,0,3.8,1.6,3.8,3.8c0,0.8-0.1,1.6-0.3,2.5
			c-0.6,3.4-1.7,5.6-5,5.6C76.3,211.1,75.4,209.4,75.4,207.1z M82.8,205.4c0.1-0.8,0.2-1.6,0.2-2.2c0-1.5-0.5-2.5-2.4-2.5
			c-2.4,0-3,1.9-3.4,4.3c-0.1,0.8-0.2,1.5-0.2,2.2c0,1.5,0.5,2.6,2.4,2.6C81.7,209.7,82.3,207.9,82.8,205.4z"/>
		<path class="st33" d="M87.3,199.5l1.2-0.1l-0.1,1c0.6-0.7,1.6-1.2,3.2-1.2c3.4,0,3.2,2.1,2.8,4.4l-1.3,7.3h-1.5l1.3-7.1
			c0.4-2,0.4-3.1-1.9-3.1c-2,0-2.7,1.4-3.1,4.1l-1.1,6.1h-1.5L87.3,199.5z"/>
	</g>
	<g>
		<g>
			<path class="st32" d="M76.4,193.1c4.9-28.7,31.6-48.3,60.3-44.5"/>
			<g>
				<polygon class="st33" points="132.7,151.3 136.1,148.6 133.4,145.2 136,145.5 138.6,148.9 135.3,151.6 				"/>
			</g>
		</g>
	</g>
</g>
<g id="A62_Source" class="st2">
</g>
<g id="A62">
</g>
<g id="A63_Source" class="st2">
</g>
<g id="A63">
</g>
<g id="A64_Source" class="st2">
</g>
<g id="A64">
</g>
<g id="A89_Source" class="st2">
</g>
<g id="A89">
</g>
<g id="A65_Source" class="st2">
</g>
<g id="A65">
</g>
</svg>
