<?xml version="1.0" encoding="utf-8"?>
<!-- Generator: Adobe Illustrator 21.1.0, SVG Export Plug-In . SVG Version: 6.00 Build 0)  -->
<svg version="1.1" xmlns="http://www.w3.org/2000/svg" xmlns:xlink="http://www.w3.org/1999/xlink" x="0px" y="0px"
	 viewBox="0 0 320 415" style="enable-background:new 0 0 320 415;" xml:space="preserve">
<style type="text/css">
	.st0{fill:none;}
	.st1{fill:none;stroke:#1D1D1B;stroke-width:0.3;stroke-linejoin:round;}
	.DEGRADE_x0020_2{fill:url(#SVGID_1_);}
	.DEGRADE_x0020_3{fill:url(#SVGID_2_);}
	.st2{display:none;}
	.st3{display:inline;}
	.st4{fill:none;stroke:#000000;stroke-width:0.1732;stroke-miterlimit:10;}
	.st5{stroke:#000000;stroke-width:8.660254e-02;stroke-miterlimit:10;}
	.st6{fill:none;stroke:#000000;stroke-width:9;stroke-miterlimit:10;}
	.st7{fill:#F6D5D1;}
	.st8{opacity:0.27;fill:url(#SVGID_3_);}
	.st9{display:inline;fill:url(#SVGID_4_);}
	.st10{fill:#808080;}
	.st11{fill:#D42E1A;}
	.st12{display:inline;fill:none;stroke:#871103;stroke-width:1.5;stroke-miterlimit:10;}
	.st13{fill:none;stroke:#D42E1A;stroke-width:3.043;stroke-linecap:round;stroke-linejoin:round;stroke-miterlimit:10;}
	.st14{display:inline;fill:none;stroke:#000000;stroke-miterlimit:10;}
	.st15{display:inline;fill:#FFFFFF;stroke:#000000;stroke-width:0.75;stroke-miterlimit:10;}
	.st16{fill:none;stroke:#000000;stroke-miterlimit:10;}
	.st17{fill:#FFFFFF;stroke:#000000;stroke-width:0.75;stroke-miterlimit:10;}
	.st18{display:inline;fill:#D42E1A;}
	.st19{display:inline;opacity:0.7;}
	.st20{fill:#FFFFFF;}
	.st21{fill:#871103;}
	.st22{fill:none;stroke:#871103;stroke-width:0.75;stroke-miterlimit:10;}
	.st23{opacity:0.27;fill:url(#SVGID_5_);}
	.st24{fill:url(#SVGID_6_);}
	.st25{fill:none;stroke:#871103;stroke-width:1.5;stroke-miterlimit:10;}
	.st26{opacity:0.7;}
	.st27{opacity:0.27;fill:url(#SVGID_7_);}
	.st28{display:inline;fill:url(#SVGID_8_);}
	.st29{font-family:'AntennaCond-Medium';}
	.st30{font-size:18px;}
	.st31{font-family:'AntennaCond-Regular';}
	.st32{font-size:20px;}
	.st33{font-family:'AntennaExtraCond-Bold';}
	.st34{font-size:32.4075px;}
	.st35{display:inline;fill:none;stroke:#D42E1A;stroke-width:3;stroke-linecap:round;stroke-linejoin:round;stroke-miterlimit:10;}
	.st36{display:inline;fill:#FFFFFF;}
	.st37{font-size:27px;}
	.st38{display:inline;fill:#871103;}
	.st39{font-family:'AntennaCond-LightItalic';}
	.st40{font-size:20.8708px;}
	.st41{opacity:0.27;fill:url(#SVGID_9_);}
	.st42{fill:url(#SVGID_10_);}
	.st43{fill:none;stroke:#D42E1A;stroke-width:3;stroke-linecap:round;stroke-linejoin:round;stroke-miterlimit:10;}
	.st44{opacity:0.27;fill:url(#SVGID_11_);}
	.st45{display:inline;fill:url(#SVGID_12_);}
	.st46{fill:none;stroke:#D42E1A;stroke-width:2.7954;stroke-linecap:round;stroke-linejoin:round;stroke-miterlimit:10;}
	.st47{opacity:0.27;fill:url(#SVGID_13_);}
	.st48{fill:url(#SVGID_14_);}
	.st49{opacity:0.27;fill:url(#SVGID_15_);}
	.st50{display:inline;fill:url(#SVGID_16_);}
	.st51{fill:none;stroke:#D42E1A;stroke-width:2.8186;stroke-linecap:round;stroke-linejoin:round;stroke-miterlimit:10;}
	.st52{opacity:0.27;fill:url(#SVGID_17_);}
	.st53{fill:url(#SVGID_18_);}
	.st54{opacity:0.27;fill:url(#SVGID_19_);}
	.st55{display:inline;fill:url(#SVGID_20_);}
	.st56{opacity:0.27;fill:url(#SVGID_21_);}
	.st57{fill:url(#SVGID_22_);}
	.st58{opacity:0.27;fill:url(#SVGID_23_);}
	.st59{display:inline;fill:url(#SVGID_24_);}
	.st60{opacity:0.27;fill:url(#SVGID_25_);}
	.st61{fill:url(#SVGID_26_);}
</style>
<pattern  x="91" y="-22.5" width="72" height="72" patternUnits="userSpaceOnUse" id="Lignes_diagonales" viewBox="79.6 -148.6 72 72" style="overflow:visible;">
	<g>
		<rect x="79.6" y="-148.6" class="st0" width="72" height="72"/>
		<g>
			<line class="st1" x1="144.1" y1="-66.1" x2="162.1" y2="-84.1"/>
			<line class="st1" x1="144.1" y1="-60.1" x2="168.1" y2="-84.1"/>
			<line class="st1" x1="144.1" y1="-54.1" x2="174.1" y2="-84.1"/>
			<line class="st1" x1="144.1" y1="-48.1" x2="180.1" y2="-84.1"/>
			<line class="st1" x1="144.1" y1="-42.1" x2="186.1" y2="-84.1"/>
			<line class="st1" x1="144.1" y1="-36.1" x2="192.1" y2="-84.1"/>
			<line class="st1" x1="144.1" y1="-30.1" x2="198.1" y2="-84.1"/>
			<line class="st1" x1="144.1" y1="-24.1" x2="204.1" y2="-84.1"/>
			<line class="st1" x1="144.1" y1="-18.1" x2="210.1" y2="-84.1"/>
			<line class="st1" x1="144.1" y1="-12.1" x2="216.1" y2="-84.1"/>
			<line class="st1" x1="144.1" y1="-6.1" x2="222.1" y2="-84.1"/>
			<line class="st1" x1="144.1" y1="-0.1" x2="228.1" y2="-84.1"/>
			<line class="st1" x1="150.1" y1="-0.1" x2="228.1" y2="-78.1"/>
		</g>
		<g>
			<line class="st1" x1="72.1" y1="-66.1" x2="90.1" y2="-84.1"/>
			<line class="st1" x1="72.1" y1="-60.1" x2="96.1" y2="-84.1"/>
			<line class="st1" x1="72.1" y1="-54.1" x2="102.1" y2="-84.1"/>
			<line class="st1" x1="72.1" y1="-48.1" x2="108.1" y2="-84.1"/>
			<line class="st1" x1="72.1" y1="-42.1" x2="114.1" y2="-84.1"/>
			<line class="st1" x1="72.1" y1="-36.1" x2="120.1" y2="-84.1"/>
			<line class="st1" x1="72.1" y1="-30.1" x2="126.1" y2="-84.1"/>
			<line class="st1" x1="72.1" y1="-24.1" x2="132.1" y2="-84.1"/>
			<line class="st1" x1="72.1" y1="-18.1" x2="138.1" y2="-84.1"/>
			<line class="st1" x1="72.1" y1="-12.1" x2="144.1" y2="-84.1"/>
			<line class="st1" x1="72.1" y1="-6.1" x2="150.1" y2="-84.1"/>
			<line class="st1" x1="72.1" y1="-0.1" x2="156.1" y2="-84.1"/>
			<line class="st1" x1="78.1" y1="-0.1" x2="156.1" y2="-78.1"/>
		</g>
		<g>
			<line class="st1" x1="0.1" y1="-0.1" x2="84.1" y2="-84.1"/>
			<line class="st1" x1="6.1" y1="-0.1" x2="84.1" y2="-78.1"/>
		</g>
		<g>
			<line class="st1" x1="144.1" y1="-138.1" x2="162.1" y2="-156.1"/>
			<line class="st1" x1="144.1" y1="-132.1" x2="168.1" y2="-156.1"/>
			<line class="st1" x1="144.1" y1="-126.1" x2="174.1" y2="-156.1"/>
			<line class="st1" x1="144.1" y1="-120.1" x2="180.1" y2="-156.1"/>
			<line class="st1" x1="144.1" y1="-114.1" x2="186.1" y2="-156.1"/>
			<line class="st1" x1="144.1" y1="-108.1" x2="192.1" y2="-156.1"/>
			<line class="st1" x1="144.1" y1="-102.1" x2="198.1" y2="-156.1"/>
			<line class="st1" x1="144.1" y1="-96.1" x2="204.1" y2="-156.1"/>
			<line class="st1" x1="144.1" y1="-90.1" x2="210.1" y2="-156.1"/>
			<line class="st1" x1="144.1" y1="-84.1" x2="216.1" y2="-156.1"/>
			<line class="st1" x1="144.1" y1="-78.1" x2="222.1" y2="-156.1"/>
			<line class="st1" x1="144.1" y1="-72.1" x2="228.1" y2="-156.1"/>
			<line class="st1" x1="150.1" y1="-72.1" x2="228.1" y2="-150.1"/>
		</g>
		<g>
			<line class="st1" x1="72.1" y1="-138.1" x2="90.1" y2="-156.1"/>
			<line class="st1" x1="72.1" y1="-132.1" x2="96.1" y2="-156.1"/>
			<line class="st1" x1="72.1" y1="-126.1" x2="102.1" y2="-156.1"/>
			<line class="st1" x1="72.1" y1="-120.1" x2="108.1" y2="-156.1"/>
			<line class="st1" x1="72.1" y1="-114.1" x2="114.1" y2="-156.1"/>
			<line class="st1" x1="72.1" y1="-108.1" x2="120.1" y2="-156.1"/>
			<line class="st1" x1="72.1" y1="-102.1" x2="126.1" y2="-156.1"/>
			<line class="st1" x1="72.1" y1="-96.1" x2="132.1" y2="-156.1"/>
			<line class="st1" x1="72.1" y1="-90.1" x2="138.1" y2="-156.1"/>
			<line class="st1" x1="72.1" y1="-84.1" x2="144.1" y2="-156.1"/>
			<line class="st1" x1="72.1" y1="-78.1" x2="150.1" y2="-156.1"/>
			<line class="st1" x1="72.1" y1="-72.1" x2="156.1" y2="-156.1"/>
			<line class="st1" x1="78.1" y1="-72.1" x2="156.1" y2="-150.1"/>
			<line class="st1" x1="84.1" y1="-72.1" x2="156.1" y2="-144.1"/>
			<line class="st1" x1="90.1" y1="-72.1" x2="156.1" y2="-138.1"/>
			<line class="st1" x1="96.1" y1="-72.1" x2="156.1" y2="-132.1"/>
			<line class="st1" x1="102.1" y1="-72.1" x2="156.1" y2="-126.1"/>
			<line class="st1" x1="108.1" y1="-72.1" x2="156.1" y2="-120.1"/>
			<line class="st1" x1="114.1" y1="-72.1" x2="156.1" y2="-114.1"/>
			<line class="st1" x1="120.1" y1="-72.1" x2="156.1" y2="-108.1"/>
			<line class="st1" x1="126.1" y1="-72.1" x2="156.1" y2="-102.1"/>
			<line class="st1" x1="132.1" y1="-72.1" x2="156.1" y2="-96.1"/>
			<line class="st1" x1="138.1" y1="-72.1" x2="156.1" y2="-90.1"/>
			<line class="st1" x1="144.1" y1="-72.1" x2="156.1" y2="-84.1"/>
		</g>
		<g>
			<line class="st1" x1="0.1" y1="-72.1" x2="84.1" y2="-156.1"/>
			<line class="st1" x1="6.1" y1="-72.1" x2="84.1" y2="-150.1"/>
			<line class="st1" x1="12.1" y1="-72.1" x2="84.1" y2="-144.1"/>
			<line class="st1" x1="18.1" y1="-72.1" x2="84.1" y2="-138.1"/>
			<line class="st1" x1="24.1" y1="-72.1" x2="84.1" y2="-132.1"/>
			<line class="st1" x1="30.1" y1="-72.1" x2="84.1" y2="-126.1"/>
			<line class="st1" x1="36.1" y1="-72.1" x2="84.1" y2="-120.1"/>
			<line class="st1" x1="42.1" y1="-72.1" x2="84.1" y2="-114.1"/>
			<line class="st1" x1="48.1" y1="-72.1" x2="84.1" y2="-108.1"/>
			<line class="st1" x1="54.1" y1="-72.1" x2="84.1" y2="-102.1"/>
			<line class="st1" x1="60.1" y1="-72.1" x2="84.1" y2="-96.1"/>
			<line class="st1" x1="66.1" y1="-72.1" x2="84.1" y2="-90.1"/>
			<line class="st1" x1="72.1" y1="-72.1" x2="84.1" y2="-84.1"/>
		</g>
		<g>
			<line class="st1" x1="144.1" y1="-144.1" x2="228.1" y2="-228.1"/>
			<line class="st1" x1="150.1" y1="-144.1" x2="228.1" y2="-222.1"/>
		</g>
		<g>
			<line class="st1" x1="72.1" y1="-144.1" x2="156.1" y2="-228.1"/>
			<line class="st1" x1="78.1" y1="-144.1" x2="156.1" y2="-222.1"/>
			<line class="st1" x1="84.1" y1="-144.1" x2="156.1" y2="-216.1"/>
			<line class="st1" x1="90.1" y1="-144.1" x2="156.1" y2="-210.1"/>
			<line class="st1" x1="96.1" y1="-144.1" x2="156.1" y2="-204.1"/>
			<line class="st1" x1="102.1" y1="-144.1" x2="156.1" y2="-198.1"/>
			<line class="st1" x1="108.1" y1="-144.1" x2="156.1" y2="-192.1"/>
			<line class="st1" x1="114.1" y1="-144.1" x2="156.1" y2="-186.1"/>
			<line class="st1" x1="120.1" y1="-144.1" x2="156.1" y2="-180.1"/>
			<line class="st1" x1="126.1" y1="-144.1" x2="156.1" y2="-174.1"/>
			<line class="st1" x1="132.1" y1="-144.1" x2="156.1" y2="-168.1"/>
			<line class="st1" x1="138.1" y1="-144.1" x2="156.1" y2="-162.1"/>
			<line class="st1" x1="144.1" y1="-144.1" x2="156.1" y2="-156.1"/>
		</g>
		<g>
			<line class="st1" x1="0.1" y1="-144.1" x2="84.1" y2="-228.1"/>
			<line class="st1" x1="6.1" y1="-144.1" x2="84.1" y2="-222.1"/>
			<line class="st1" x1="12.1" y1="-144.1" x2="84.1" y2="-216.1"/>
			<line class="st1" x1="18.1" y1="-144.1" x2="84.1" y2="-210.1"/>
			<line class="st1" x1="24.1" y1="-144.1" x2="84.1" y2="-204.1"/>
			<line class="st1" x1="30.1" y1="-144.1" x2="84.1" y2="-198.1"/>
			<line class="st1" x1="36.1" y1="-144.1" x2="84.1" y2="-192.1"/>
			<line class="st1" x1="42.1" y1="-144.1" x2="84.1" y2="-186.1"/>
			<line class="st1" x1="48.1" y1="-144.1" x2="84.1" y2="-180.1"/>
			<line class="st1" x1="54.1" y1="-144.1" x2="84.1" y2="-174.1"/>
			<line class="st1" x1="60.1" y1="-144.1" x2="84.1" y2="-168.1"/>
			<line class="st1" x1="66.1" y1="-144.1" x2="84.1" y2="-162.1"/>
			<line class="st1" x1="72.1" y1="-144.1" x2="84.1" y2="-156.1"/>
		</g>
	</g>
</pattern>
<linearGradient id="SVGID_1_" gradientUnits="userSpaceOnUse" x1="91" y1="-22.5" x2="92" y2="-22.5">
	<stop  offset="0" style="stop-color:#FFFFFF"/>
	<stop  offset="1" style="stop-color:#FFFFFF;stop-opacity:0"/>
</linearGradient>
<linearGradient id="SVGID_2_" gradientUnits="userSpaceOnUse" x1="91" y1="-22.5" x2="92" y2="-22.5">
	<stop  offset="0" style="stop-color:#FFFFFF"/>
	<stop  offset="1" style="stop-color:#FFFFFF;stop-opacity:0"/>
</linearGradient>
<g id="SOURCE" class="st2">
</g>
<g id="A10_Source" class="st2">
	<g id="Flèche_6" class="st3">
	</g>
</g>
<g id="A10">
</g>
<g id="A62_Source" class="st2">
	<g class="st3">
		<polygon class="st7" points="29,13.6 29,399.8 81.5,399.8 106.4,351.8 137.6,303.7 156.4,255.7 156.4,207.7 175.1,159.7 
			187.6,111.6 214,13.6 		"/>
		<pattern  id="SVGID_3_" xlink:href="#Lignes_diagonales" patternTransform="matrix(0 -1.104 -0.92 0 -15355.2002 -16624.0781)">
		</pattern>
		<polygon class="st8" points="29,13.6 29,399.8 81.5,399.8 106.4,351.8 137.6,303.7 156.4,255.7 156.4,207.7 175.1,159.7 
			187.6,111.6 214,13.6 		"/>
	</g>
	
		<linearGradient id="SVGID_4_" gradientUnits="userSpaceOnUse" x1="16.9997" y1="196.8056" x2="212.0397" y2="196.8056" gradientTransform="matrix(1 0 0 -1 0 403.5)">
		<stop  offset="0" style="stop-color:#FFFFFF"/>
		<stop  offset="1" style="stop-color:#FFFFFF;stop-opacity:0"/>
	</linearGradient>
	<polygon class="st9" points="17,13.6 17,399.8 79.5,399.8 104.4,351.8 135.6,303.7 154.4,255.7 154.4,207.7 173.1,159.7 
		185.6,111.6 212,13.6 	"/>
	<g class="st3">
		<text transform="matrix(1 0 0 1 153.2773 384.6357)"><tspan x="0" y="0" class="st10 st29 st30">2011</tspan><tspan x="0" y="21" class="st11 st31 st32">17,90 €</tspan></text>
	</g>
	<g class="st3">
		<text transform="matrix(1 0 0 1 228.2773 261.6357)"><tspan x="0" y="0" class="st10 st29 st30">2014</tspan><tspan x="0" y="21" class="st11 st31 st32">19,10 €</tspan></text>
	</g>
	<g class="st3">
		<polygon class="st11" points="273.6,152.9 272.8,152.9 268.4,160.4 269.7,160.4 		"/>
		<polygon class="st11" points="262.9,169.7 247.2,196.7 250.9,196.7 264.9,169.7 		"/>
		<polygon class="st11" points="252.1,196.7 270.3,196.7 273.9,169.7 265.5,169.7 		"/>
		<polygon class="st11" points="276.4,171 276.4,171.5 276.4,181.1 276.4,185.9 276.4,196.7 277.3,196.7 277.3,185.9 277.3,181.1 
			277.3,171.5 277.3,171 277.3,169.7 276.4,169.7 		"/>
		<polygon class="st11" points="283.4,160.4 279.7,152.9 277.7,152.9 278.6,160.4 		"/>
		<rect x="276.4" y="152.9" class="st11" width="0.9" height="7.5"/>
		<polygon class="st11" points="279.8,169.7 283.4,196.7 299.6,196.7 301.5,196.7 288.1,169.7 		"/>
		<polygon class="st11" points="275.1,160.4 276,152.9 273.9,152.9 270.1,160.4 		"/>
		<polygon class="st11" points="290.6,169.7 288.7,169.7 302.7,196.7 306.4,196.7 		"/>
		<polygon class="st11" points="285.2,160.4 280.8,152.9 279.9,152.9 283.8,160.4 		"/>
		<polygon class="st11" points="288,168.4 289.8,168.4 294.2,168.4 294.6,169 295,169.7 296.8,172.9 298.7,172.9 298.7,169.7 
			298.7,169 298.7,168.5 298.7,168.4 301.4,168.4 301.4,161.7 286,161.7 284.5,161.7 284.1,161.7 278.8,161.7 277.3,161.7 
			277.3,161.7 276.4,161.7 276.4,161.7 274.8,161.7 269.4,161.7 269,161.7 267.6,161.7 252.5,161.7 252.5,168.4 255.2,168.4 
			255.2,168.5 255.2,169 255.2,169.7 255.2,172.9 257.1,172.9 258.9,169.7 259.3,169 259.7,168.4 263.7,168.4 265.5,168.4 
			266.1,168.4 274,168.4 276.4,168.4 277.3,168.4 279.7,168.4 287.4,168.4 		"/>
	</g>
	<text transform="matrix(1 0 0 1 254.0561 226.5996)" class="st18 st33 st34">A62</text>
	<polyline class="st12" points="86,402.9 120.8,354.3 134.8,305.7 145.2,257 145.2,208.4 148.7,159.8 167.9,111.1 201,62.5 	"/>
	<polyline class="st35" points="81.2,403 105.7,354.5 136.7,306.1 155.8,257.5 156.5,208.6 175.6,160 188.2,111.3 200.8,62.6 
		216.7,13.9 	"/>
	<line class="st14" x1="82" y1="399.5" x2="149" y2="399.5"/>
	<circle class="st15" cx="84" cy="399" r="7.5"/>
	<line class="st14" x1="157" y1="255.5" x2="224" y2="255.5"/>
	<circle class="st15" cx="156.5" cy="255.5" r="7.5"/>
	<g class="st3">
		<text transform="matrix(1 0 0 1 253.2773 22.6357)"><tspan x="0" y="0" class="st10 st29 st30">2019</tspan><tspan x="0" y="21" class="st11 st31 st32">20 €</tspan></text>
	</g>
	<g class="st3">
		<line class="st16" x1="216" y1="16.5" x2="250" y2="16.5"/>
		<circle class="st17" cx="215.5" cy="16.5" r="7.5"/>
	</g>
	<circle class="st18" cx="276.8" cy="98.5" r="41"/>
	<g class="st19">
		<polygon class="st20" points="262.2,78.2 269.4,78.2 269.4,87 284.1,87 284.1,78.5 291.3,78.5 276.9,63.5 		"/>
	</g>
	<text transform="matrix(0.8526 0 0 1 252.892 115.7246)" class="st36 st33 st37">+12%</text>
	<text transform="matrix(1 0 0 1 37.7944 210.9062)" class="st38 st39 st40">Inflation</text>
	<g class="st3">
		<g>
			<path class="st22" d="M86.4,193.1c4.9-28.7,31.6-48.3,60.3-44.5"/>
			<g>
				<polygon class="st21" points="142.7,151.3 146.1,148.6 143.4,145.2 146,145.5 148.6,148.9 145.3,151.6 				"/>
			</g>
		</g>
	</g>
</g>
<g id="A62">
	<g>
		<polygon class="st7" points="29,13.6 29,399.8 81.5,399.8 106.4,351.8 137.6,303.7 156.4,255.7 156.4,207.7 175.1,159.7 
			187.6,111.6 214,13.6 		"/>
		<pattern  id="SVGID_5_" xlink:href="#Lignes_diagonales" patternTransform="matrix(0 -1.104 -0.92 0 -15355.2002 -16624.0781)">
		</pattern>
		<polygon class="st23" points="29,13.6 29,399.8 81.5,399.8 106.4,351.8 137.6,303.7 156.4,255.7 156.4,207.7 175.1,159.7 
			187.6,111.6 214,13.6 		"/>
	</g>
	
		<linearGradient id="SVGID_6_" gradientUnits="userSpaceOnUse" x1="16.9997" y1="196.8056" x2="212.0397" y2="196.8056" gradientTransform="matrix(1 0 0 -1 0 403.5)">
		<stop  offset="0" style="stop-color:#FFFFFF"/>
		<stop  offset="1" style="stop-color:#FFFFFF;stop-opacity:0"/>
	</linearGradient>
	<polygon class="st24" points="17,13.6 17,399.8 79.5,399.8 104.4,351.8 135.6,303.7 154.4,255.7 154.4,207.7 173.1,159.7 
		185.6,111.6 212,13.6 	"/>
	<g>
		<g>
			<path class="st10" d="M153.8,383l3.1-3.6c2.3-2.6,2.4-3.3,2.4-4.6c0-1.2-0.5-1.8-1.9-1.8c-1,0-1.9,0.3-2.7,0.6l-0.9-1.7
				c1-0.5,2.1-0.8,3.9-0.8c2.6,0,3.6,1.1,3.6,3.4c0,2-0.5,2.9-3,5.9l-2,2.4h5.2v1.8h-7.7V383z"/>
			<path class="st10" d="M163.4,378c0-4.4,0.6-6.8,4.5-6.8c3.8,0,4.4,2.4,4.4,6.8c0,4.6-0.6,6.8-4.4,6.8
				C164.1,384.8,163.4,382.5,163.4,378z M170.3,378c0-3.5-0.4-4.9-2.4-4.9c-2,0-2.4,1.3-2.4,4.9c0,3.6,0.4,4.9,2.4,4.9
				C169.9,382.9,170.3,381.5,170.3,378z"/>
			<path class="st10" d="M175.7,373.1h-1.9v-1.9h3.9v13.3h-2V373.1z"/>
			<path class="st10" d="M181.5,373.1h-1.9v-1.9h3.9v13.3h-2V373.1z"/>
			<path class="st11" d="M155.9,392.5h-2.2v-1.7h4v14.8h-1.9V392.5z"/>
			<path class="st11" d="M165.6,392.5h-6.1v-1.7h8.2v1.5l-4.4,13.3h-2L165.6,392.5z"/>
			<path class="st11" d="M167.6,407c0.9-0.5,1.1-0.7,1.1-1.4h-1v-2.5h2.3v2.4c0,1.3-0.2,1.8-1.8,2.5L167.6,407z"/>
			<path class="st11" d="M172.6,404h1.3c3.7,0,4.2-1.6,4.4-4.3c-0.6,0.8-1.7,1.2-3.4,1.2c-3.3,0-3.9-1.9-3.9-4.8
				c0-3.5,0.9-5.4,4.5-5.4c4.2,0,4.7,2.2,4.7,6.2c0,6-0.4,8.8-6.4,8.8h-1.2V404z M178.3,396.1c0-2.6-0.5-3.7-2.8-3.7
				c-2.1,0-2.6,1.2-2.6,3.6c0,2.1,0.5,3.2,2.5,3.2C177.1,399.3,178.3,398.4,178.3,396.1z"/>
			<path class="st11" d="M182.4,398.2c0-5.1,0.7-7.6,4.8-7.6c4,0,4.7,2.5,4.7,7.6c0,5.2-0.7,7.6-4.7,7.6
				C183.2,405.8,182.4,403.4,182.4,398.2z M190,398.2c0-4.2-0.6-5.8-2.8-5.8c-2.3,0-2.8,1.6-2.8,5.8c0,4.2,0.5,5.8,2.8,5.8
				C189.5,404.1,190,402.5,190,398.2z"/>
			<path class="st11" d="M197.3,395.9h1.9c0.3-3.6,1.5-5.2,4.6-5.2c1.4,0,2.5,0.3,3.4,0.8l-0.9,1.6c-0.7-0.4-1.4-0.6-2.5-0.6
				c-1.9,0-2.6,1.1-2.8,3.4h4.2v1.5h-4.2v1.4h4.2v1.6H201c0.2,2.5,0.9,3.7,2.8,3.7c1.1,0,1.9-0.4,2.5-0.7l0.9,1.5
				c-0.9,0.5-2,0.9-3.5,0.9c-3.1,0-4.3-1.7-4.5-5.4h-1.9v-1.6h1.8v-1.4h-1.8V395.9z"/>
		</g>
	</g>
	<g>
		<g>
			<path class="st10" d="M228.8,260l3.1-3.6c2.3-2.6,2.4-3.3,2.4-4.6c0-1.2-0.5-1.8-1.9-1.8c-1,0-1.9,0.3-2.7,0.6l-0.9-1.7
				c1-0.5,2.1-0.8,3.9-0.8c2.6,0,3.6,1.1,3.6,3.4c0,2-0.5,2.9-3,5.9l-2,2.4h5.2v1.8h-7.7V260z"/>
			<path class="st10" d="M238.4,255c0-4.4,0.6-6.8,4.5-6.8c3.8,0,4.4,2.4,4.4,6.8c0,4.6-0.6,6.8-4.4,6.8
				C239.1,261.8,238.4,259.5,238.4,255z M245.3,255c0-3.5-0.4-4.9-2.4-4.9c-2,0-2.4,1.3-2.4,4.9c0,3.6,0.4,4.9,2.4,4.9
				C244.9,259.9,245.3,258.5,245.3,255z"/>
			<path class="st10" d="M250.7,250.1h-1.9v-1.9h3.9v13.3h-2V250.1z"/>
			<path class="st10" d="M254.6,257.2l4.7-8.9h2.1l-4.6,8.8h3.3l0.4-4h1.5v4h1.7v1.7H262v2.9h-1.9v-2.9h-5.4V257.2z"/>
			<path class="st11" d="M230.9,269.5h-2.2v-1.7h4v14.8h-1.9V269.5z"/>
			<path class="st11" d="M237,281h1.3c3.7,0,4.2-1.6,4.4-4.3c-0.6,0.8-1.7,1.2-3.4,1.2c-3.3,0-3.9-1.9-3.9-4.8
				c0-3.5,0.9-5.4,4.5-5.4c4.2,0,4.7,2.2,4.7,6.2c0,6-0.4,8.8-6.4,8.8H237V281z M242.6,273.1c0-2.6-0.5-3.7-2.8-3.7
				c-2.1,0-2.6,1.2-2.6,3.6c0,2.1,0.5,3.2,2.5,3.2C241.4,276.3,242.6,275.4,242.6,273.1z"/>
			<path class="st11" d="M246,284c0.9-0.5,1.1-0.7,1.1-1.4h-1v-2.5h2.3v2.4c0,1.3-0.2,1.8-1.8,2.5L246,284z"/>
			<path class="st11" d="M251.4,269.5h-2.2v-1.7h4v14.8h-1.9V269.5z"/>
			<path class="st11" d="M256.1,275.2c0-5.1,0.7-7.6,4.8-7.6c4,0,4.7,2.5,4.7,7.6c0,5.2-0.7,7.6-4.7,7.6
				C256.9,282.8,256.1,280.4,256.1,275.2z M263.7,275.2c0-4.2-0.6-5.8-2.8-5.8c-2.3,0-2.8,1.6-2.8,5.8c0,4.2,0.5,5.8,2.8,5.8
				C263.2,281.1,263.7,279.5,263.7,275.2z"/>
			<path class="st11" d="M271,272.9h1.9c0.3-3.6,1.5-5.2,4.6-5.2c1.4,0,2.5,0.3,3.4,0.8l-0.9,1.6c-0.7-0.4-1.4-0.6-2.5-0.6
				c-1.9,0-2.6,1.1-2.8,3.4h4.2v1.5h-4.2v1.4h4.2v1.6h-4.2c0.2,2.5,0.9,3.7,2.8,3.7c1.1,0,1.9-0.4,2.5-0.7l0.9,1.5
				c-0.9,0.5-2,0.9-3.5,0.9c-3.1,0-4.3-1.7-4.5-5.4H271v-1.6h1.8v-1.4H271V272.9z"/>
		</g>
	</g>
	<g>
		<polygon class="st11" points="273.6,152.9 272.8,152.9 268.4,160.4 269.7,160.4 		"/>
		<polygon class="st11" points="262.9,169.7 247.2,196.7 250.9,196.7 264.9,169.7 		"/>
		<polygon class="st11" points="252.1,196.7 270.3,196.7 273.9,169.7 265.5,169.7 		"/>
		<polygon class="st11" points="276.4,171 276.4,171.5 276.4,181.1 276.4,185.9 276.4,196.7 277.3,196.7 277.3,185.9 277.3,181.1 
			277.3,171.5 277.3,171 277.3,169.7 276.4,169.7 		"/>
		<polygon class="st11" points="283.4,160.4 279.7,152.9 277.7,152.9 278.6,160.4 		"/>
		<rect x="276.4" y="152.9" class="st11" width="0.9" height="7.5"/>
		<polygon class="st11" points="279.8,169.7 283.4,196.7 299.6,196.7 301.5,196.7 288.1,169.7 		"/>
		<polygon class="st11" points="275.1,160.4 276,152.9 273.9,152.9 270.1,160.4 		"/>
		<polygon class="st11" points="290.6,169.7 288.7,169.7 302.7,196.7 306.4,196.7 		"/>
		<polygon class="st11" points="285.2,160.4 280.8,152.9 279.9,152.9 283.8,160.4 		"/>
		<polygon class="st11" points="288,168.4 289.8,168.4 294.2,168.4 294.6,169 295,169.7 296.8,172.9 298.7,172.9 298.7,169.7 
			298.7,169 298.7,168.5 298.7,168.4 301.4,168.4 301.4,161.7 286,161.7 284.5,161.7 284.1,161.7 278.8,161.7 277.3,161.7 
			277.3,161.7 276.4,161.7 276.4,161.7 274.8,161.7 269.4,161.7 269,161.7 267.6,161.7 252.5,161.7 252.5,168.4 255.2,168.4 
			255.2,168.5 255.2,169 255.2,169.7 255.2,172.9 257.1,172.9 258.9,169.7 259.3,169 259.7,168.4 263.7,168.4 265.5,168.4 
			266.1,168.4 274,168.4 276.4,168.4 277.3,168.4 279.7,168.4 287.4,168.4 		"/>
	</g>
	<g>
		<path class="st11" d="M259.8,202.5h5.2l5.5,24.1h-4.7L265,223h-5.4l-0.7,3.6h-4.4L259.8,202.5z M264,218.9l-1.2-6.1l-0.6-3.1
			l-0.6,3.1l-1.2,6.1H264z"/>
		<path class="st11" d="M273.9,225.2c-1.9-1.8-2.1-4.9-2.1-9v-1.8c0-4.6,0.3-7.7,2.1-9.6c1.5-1.5,3.6-2.2,7.6-2.2h1.7v4.2h-1.7
			c-5.2,0-5.3,1.7-5.3,4.4c0.6-0.7,1.5-1.3,4-1.3c4.7,0,5,3.3,5,8c0,3.4-0.3,5.9-1.8,7.3c-1,0.9-2.6,1.5-4.8,1.5
			C276.4,226.8,274.9,226.2,273.9,225.2z M280.8,218.2c0-3.2-0.3-4.2-2-4.2c-1.5,0-2.3,0.6-2.3,4.1c0,3.7,0.2,4.8,2.3,4.8
			C280.5,222.9,280.8,221.7,280.8,218.2z"/>
		<path class="st11" d="M286.6,222.9l6.4-11.7c0.5-0.9,0.8-1.8,0.8-2.8c0-1.1-0.6-2-2.2-2c-1.4,0-2.6,0.3-3.6,0.8l-1.7-3.8
			c1.4-0.6,3.3-1.1,5.7-1.1c4.6,0,6.2,1.8,6.2,5.2c0,2.3-0.7,3.9-1.6,5.6l-5.2,9.5h6.8v4h-11.7V222.9z"/>
	</g>
	<polyline class="st25" points="86,402.9 120.8,354.3 134.8,305.7 145.2,257 145.2,208.4 148.7,159.8 167.9,111.1 201,62.5 	"/>
	<polyline class="st43" points="81.2,403 105.7,354.5 136.7,306.1 155.8,257.5 156.5,208.6 175.6,160 188.2,111.3 200.8,62.6 
		216.7,13.9 	"/>
	<line class="st16" x1="82" y1="399.5" x2="149" y2="399.5"/>
	<circle class="st17" cx="84" cy="399" r="7.5"/>
	<line class="st16" x1="157" y1="255.5" x2="224" y2="255.5"/>
	<circle class="st17" cx="156.5" cy="255.5" r="7.5"/>
	<g>
		<g>
			<path class="st10" d="M253.8,21l3.1-3.6c2.3-2.6,2.4-3.3,2.4-4.6c0-1.2-0.5-1.8-1.9-1.8c-1,0-1.9,0.3-2.7,0.6l-0.9-1.7
				c1-0.5,2.1-0.8,3.9-0.8c2.6,0,3.6,1.1,3.6,3.4c0,2-0.5,2.9-3,5.9l-2,2.4h5.2v1.8h-7.7V21z"/>
			<path class="st10" d="M263.4,16c0-4.4,0.6-6.8,4.5-6.8c3.8,0,4.4,2.4,4.4,6.8c0,4.6-0.6,6.8-4.4,6.8
				C264.1,22.8,263.4,20.5,263.4,16z M270.3,16c0-3.5-0.4-4.9-2.4-4.9c-2,0-2.4,1.3-2.4,4.9c0,3.6,0.4,4.9,2.4,4.9
				C269.9,20.9,270.3,19.5,270.3,16z"/>
			<path class="st10" d="M275.7,11.1h-1.9V9.3h3.9v13.3h-2V11.1z"/>
			<path class="st10" d="M281.5,20.9h1.3c3.1,0,3.6-1.3,3.7-3.5c-0.5,0.7-1.5,1-3,1c-3,0-3.6-1.8-3.6-4.4c0-3.2,0.9-4.8,4.2-4.8
				c4,0,4.5,2.1,4.5,5.7c0,5.3-0.4,7.8-5.9,7.8h-1.2V20.9z M286.5,14c0-2.1-0.4-3.1-2.4-3.1c-1.7,0-2.2,1-2.2,3
				c0,1.8,0.5,2.7,2.1,2.7C285.5,16.7,286.5,16,286.5,14z"/>
			<path class="st11" d="M254,42.1l3.3-4.1c2.6-3.2,2.9-4,2.9-5.5c0-1.5-0.5-2.1-2.2-2.1c-1.2,0-2.2,0.3-3,0.7l-0.8-1.6
				c1-0.5,2.2-0.9,4.1-0.9c2.8,0,3.8,1.2,3.8,3.7c0,2.2-0.6,3.2-3.4,6.8l-2.3,2.9h5.9v1.7H254V42.1z"/>
			<path class="st11" d="M264.3,36.2c0-5.1,0.7-7.6,4.8-7.6c4,0,4.7,2.5,4.7,7.6c0,5.2-0.7,7.6-4.7,7.6
				C265,43.8,264.3,41.4,264.3,36.2z M271.9,36.2c0-4.2-0.6-5.8-2.8-5.8c-2.3,0-2.8,1.6-2.8,5.8c0,4.2,0.5,5.8,2.8,5.8
				C271.4,42.1,271.9,40.5,271.9,36.2z"/>
			<path class="st11" d="M279.1,33.9h1.9c0.3-3.6,1.5-5.2,4.6-5.2c1.4,0,2.5,0.3,3.4,0.8l-0.9,1.6c-0.7-0.4-1.4-0.6-2.5-0.6
				c-1.9,0-2.6,1.1-2.8,3.4h4.2v1.5h-4.2v1.4h4.2v1.6h-4.2c0.2,2.5,0.9,3.7,2.8,3.7c1.1,0,1.9-0.4,2.5-0.7l0.9,1.5
				c-0.9,0.5-2,0.9-3.5,0.9c-3.1,0-4.3-1.7-4.5-5.4h-1.9v-1.6h1.8v-1.4h-1.8V33.9z"/>
		</g>
	</g>
	<g>
		<line class="st16" x1="216" y1="16.5" x2="250" y2="16.5"/>
		<circle class="st17" cx="215.5" cy="16.5" r="7.5"/>
	</g>
	<circle class="st11" cx="276.8" cy="98.5" r="41"/>
	<g class="st26">
		<polygon class="st20" points="262.2,78.2 269.4,78.2 269.4,87 284.1,87 284.1,78.5 291.3,78.5 276.9,63.5 		"/>
	</g>
	<g>
		<path class="st20" d="M257.4,107.6h-2.8v-3.5h2.8v-4.5h3.1v4.5h2.8v3.5h-2.8v4.5h-3.1V107.6z"/>
		<path class="st20" d="M266.4,99.2h-1.9v-3.5h5v20h-3.2V99.2z"/>
		<path class="st20" d="M271.3,112.6l4.6-9.7c0.3-0.8,0.6-1.5,0.6-2.3c0-0.9-0.4-1.7-1.5-1.7c-1,0-1.8,0.3-2.6,0.7l-1.2-3.2
			c1-0.5,2.3-0.9,4.1-0.9c3.3,0,4.4,1.5,4.4,4.4c0,1.9-0.5,3.2-1.2,4.6l-3.7,7.9h4.8v3.3h-8.3V112.6z"/>
		<path class="st20" d="M282,107.5c-1-1.1-1.1-3-1.1-5.5c0-2.3,0.1-4.2,1-5.3c0.6-0.7,1.5-1.2,2.8-1.2c1.3,0,2.2,0.5,2.8,1.2
			c0.9,1.1,1,3,1,5.3c0,2.5-0.1,4.4-1.1,5.5c-0.6,0.6-1.5,1.1-2.7,1.1S282.6,108.1,282,107.5z M285.6,102.1c0-2.8-0.1-3.6-1-3.6
			c-1,0-1,0.8-1,3.6s0,3.6,1,3.6C285.6,105.7,285.6,104.8,285.6,102.1z M292.1,95.7h2.7l-6.1,20h-2.7L292.1,95.7z M293.4,114.9
			c-1-1.1-1.1-3-1.1-5.5c0-2.3,0.1-4.2,1-5.3c0.6-0.7,1.5-1.2,2.8-1.2c1.3,0,2.2,0.5,2.8,1.2c0.9,1.1,1,3,1,5.3
			c0,2.5-0.1,4.4-1.2,5.5c-0.6,0.6-1.5,1.1-2.6,1.1S294,115.5,293.4,114.9z M297,109.4c0-2.8,0-3.6-1-3.6c-1,0-1,0.8-1,3.6
			s0,3.6,1,3.6C297,113.1,297,112.2,297,109.4z"/>
	</g>
	<g>
		<path class="st21" d="M40.9,195.4h1.6l-2.7,15.5h-1.6L40.9,195.4z"/>
		<path class="st21" d="M44.5,199.5l1.2-0.1l-0.1,1c0.6-0.7,1.6-1.2,3.2-1.2c3.4,0,3.2,2.1,2.8,4.4l-1.3,7.3h-1.5l1.3-7.1
			c0.4-2,0.4-3.1-1.9-3.1c-2,0-2.7,1.4-3.1,4.1l-1.1,6.1h-1.5L44.5,199.5z"/>
		<path class="st21" d="M54,199.4h1.7l0.3-1.8c0.3-1.9,1.1-2.8,3.4-2.8h1l-0.2,1.4h-0.8c-1.4,0-1.6,0.8-1.9,1.8l-0.3,1.4h2.4
			l-0.3,1.3H57l-2.4,13.5h-1.5l2.4-13.5h-1.8L54,199.4z M59.6,208.2l2.4-13.3h1.5l-2.4,13.4c-0.2,1-0.2,1.3,1.2,1.3l-0.2,1.4
			c-0.1,0-0.2,0-0.5,0C59.5,210.9,59.2,210.1,59.6,208.2z"/>
		<path class="st21" d="M63.7,208.3c0-3.9,2-5,5.5-5h1.5c0.3-1.5,0.3-2.7-1.9-2.7c-0.9,0-1.8,0.1-2.5,0.4l-0.5-1.3
			c0.9-0.4,2.1-0.6,3.2-0.6c3.4,0,3.6,1.6,3.1,4.4l-0.8,4.7c-0.2,0.9-0.2,1.2,0.7,1.2l-0.2,1.4c-0.2,0-0.3,0-0.5,0
			c-1.1,0-1.4-0.4-1.4-1.1c-0.7,0.8-1.9,1.2-3.1,1.2C64.7,211,63.7,210.1,63.7,208.3z M70.1,206.9l0.4-2.4h-1.2
			c-2.8,0-4.1,0.6-4.1,3.4c0,1.3,0.7,1.8,2,1.8C68.3,209.7,69.7,209.2,70.1,206.9z"/>
		<path class="st21" d="M75,199.4h1.8l0.8-3.2l1.3-0.3l-0.6,3.5h2.7l-0.3,1.3H78l-1.2,7.1c-0.2,1.1-0.1,1.7,1.2,1.7h1.2l-0.2,1.4
			c-0.2,0-1.1,0-1.3,0c-2.4,0-2.7-1.1-2.3-3.1l1.2-7.1h-1.8L75,199.4z"/>
		<path class="st21" d="M83.1,199.4h1.5l-2,11.5H81L83.1,199.4z M83.7,195.7h1.5l-0.4,2.2h-1.5L83.7,195.7z"/>
		<path class="st21" d="M85.4,207.1c0-0.7,0.1-1.5,0.3-2.4c0.6-3.3,1.8-5.6,5.1-5.6c2.9,0,3.8,1.6,3.8,3.8c0,0.8-0.1,1.6-0.3,2.5
			c-0.6,3.4-1.7,5.6-5,5.6C86.3,211.1,85.4,209.4,85.4,207.1z M92.8,205.4c0.1-0.8,0.3-1.6,0.3-2.2c0-1.5-0.5-2.5-2.4-2.5
			c-2.4,0-3,1.9-3.4,4.3c-0.1,0.8-0.2,1.5-0.2,2.2c0,1.5,0.5,2.6,2.4,2.6C91.7,209.7,92.3,207.9,92.8,205.4z"/>
		<path class="st21" d="M97.3,199.5l1.2-0.1l-0.1,1c0.6-0.7,1.6-1.2,3.2-1.2c3.4,0,3.2,2.1,2.8,4.4l-1.3,7.3h-1.5l1.3-7.1
			c0.4-2,0.4-3.1-1.9-3.1c-2,0-2.7,1.4-3.1,4.1l-1.1,6.1h-1.5L97.3,199.5z"/>
	</g>
	<g>
		<g>
			<path class="st22" d="M86.4,193.1c4.9-28.7,31.6-48.3,60.3-44.5"/>
			<g>
				<polygon class="st21" points="142.7,151.3 146.1,148.6 143.4,145.2 146,145.5 148.6,148.9 145.3,151.6 				"/>
			</g>
		</g>
	</g>
</g>
<g id="A63_Source" class="st2">
</g>
<g id="A63">
</g>
<g id="A64_Source" class="st2">
</g>
<g id="A64">
</g>
<g id="A89_Source" class="st2">
</g>
<g id="A89">
</g>
<g id="A65_Source" class="st2">
</g>
<g id="A65">
</g>
</svg>
