<?xml version="1.0" encoding="utf-8"?>
<!-- Generator: Adobe Illustrator 21.1.0, SVG Export Plug-In . SVG Version: 6.00 Build 0)  -->
<svg version="1.1" xmlns="http://www.w3.org/2000/svg" xmlns:xlink="http://www.w3.org/1999/xlink" x="0px" y="0px"
	 viewBox="0 0 320 415" style="enable-background:new 0 0 320 415;" xml:space="preserve">
<style type="text/css">
	.st0{fill:none;}
	.st1{fill:none;stroke:#1D1D1B;stroke-width:0.3;stroke-linejoin:round;}
	.st2{display:none;}
	.st3{display:inline;}
	.st4{fill:none;stroke:#000000;stroke-width:0.1732;stroke-miterlimit:10;}
	.st5{stroke:#000000;stroke-width:8.660254e-02;stroke-miterlimit:10;}
	.st6{fill:none;stroke:#000000;stroke-width:9;stroke-miterlimit:10;}
	.st7{fill:#F6D5D1;}
	.st8{opacity:0.27;fill:url(#SVGID_1_);}
	.st9{display:inline;fill:url(#SVGID_2_);}
	.st10{fill:#808080;}
	.st11{fill:#D42E1A;}
	.st12{display:inline;fill:none;stroke:#871103;stroke-width:1.5;stroke-miterlimit:10;}
	.st13{fill:none;stroke:#D42E1A;stroke-width:3.043;stroke-linecap:round;stroke-linejoin:round;stroke-miterlimit:10;}
	.st14{display:inline;fill:none;stroke:#000000;stroke-miterlimit:10;}
	.st15{display:inline;fill:#FFFFFF;stroke:#000000;stroke-width:0.75;stroke-miterlimit:10;}
	.st16{fill:none;stroke:#000000;stroke-miterlimit:10;}
	.st17{fill:#FFFFFF;stroke:#000000;stroke-width:0.75;stroke-miterlimit:10;}
	.st18{display:inline;fill:#D42E1A;}
	.st19{display:inline;opacity:0.7;}
	.st20{fill:#FFFFFF;}
	.st21{fill:#871103;}
	.st22{fill:none;stroke:#871103;stroke-width:0.75;stroke-miterlimit:10;}
	.st23{opacity:0.27;fill:url(#SVGID_3_);}
	.st24{fill:url(#SVGID_4_);}
	.st25{fill:none;stroke:#871103;stroke-width:1.5;stroke-miterlimit:10;}
	.st26{opacity:0.7;}
	.st27{opacity:0.27;fill:url(#SVGID_5_);}
	.st28{display:inline;fill:url(#SVGID_6_);}
	.st29{display:inline;fill:none;stroke:#D42E1A;stroke-width:3;stroke-linecap:round;stroke-linejoin:round;stroke-miterlimit:10;}
	.st30{opacity:0.27;fill:url(#SVGID_7_);}
	.st31{fill:url(#SVGID_8_);}
	.st32{fill:none;stroke:#D42E1A;stroke-width:3;stroke-linecap:round;stroke-linejoin:round;stroke-miterlimit:10;}
	.st33{opacity:0.27;fill:url(#SVGID_9_);}
	.st34{display:inline;fill:url(#SVGID_10_);}
	.st35{fill:none;stroke:#D42E1A;stroke-width:2.7954;stroke-linecap:round;stroke-linejoin:round;stroke-miterlimit:10;}
	.st36{opacity:0.27;fill:url(#SVGID_11_);}
	.st37{fill:url(#SVGID_12_);}
	.st38{opacity:0.27;fill:url(#SVGID_13_);}
	.st39{display:inline;fill:url(#SVGID_14_);}
	.st40{font-family:'AntennaCond-Medium';}
	.st41{font-size:18px;}
	.st42{font-family:'AntennaCond-Regular';}
	.st43{font-size:20px;}
	.st44{font-family:'AntennaExtraCond-Bold';}
	.st45{font-size:32.4075px;}
	.st46{fill:none;stroke:#D42E1A;stroke-width:2.8186;stroke-linecap:round;stroke-linejoin:round;stroke-miterlimit:10;}
	.st47{display:inline;fill:#FFFFFF;}
	.st48{font-size:27px;}
	.st49{display:inline;fill:#871103;}
	.st50{font-family:'AntennaCond-LightItalic';}
	.st51{font-size:20.8708px;}
	.st52{opacity:0.27;fill:url(#SVGID_15_);}
	.st53{fill:url(#SVGID_16_);}
	.st54{opacity:0.27;fill:url(#SVGID_17_);}
	.st55{display:inline;fill:url(#SVGID_18_);}
	.st56{opacity:0.27;fill:url(#SVGID_19_);}
	.st57{fill:url(#SVGID_20_);}
	.st58{opacity:0.27;fill:url(#SVGID_21_);}
	.st59{display:inline;fill:url(#SVGID_22_);}
	.st60{opacity:0.27;fill:url(#SVGID_23_);}
	.st61{fill:url(#SVGID_24_);}
</style>
<pattern  x="-1211.7" y="-22.5" width="72" height="72" patternUnits="userSpaceOnUse" id="Lignes_diagonales" viewBox="79.6 -148.6 72 72" style="overflow:visible;">
	<g>
		<rect x="79.6" y="-148.6" class="st0" width="72" height="72"/>
		<g>
			<line class="st1" x1="144.1" y1="-66.1" x2="162.1" y2="-84.1"/>
			<line class="st1" x1="144.1" y1="-60.1" x2="168.1" y2="-84.1"/>
			<line class="st1" x1="144.1" y1="-54.1" x2="174.1" y2="-84.1"/>
			<line class="st1" x1="144.1" y1="-48.1" x2="180.1" y2="-84.1"/>
			<line class="st1" x1="144.1" y1="-42.1" x2="186.1" y2="-84.1"/>
			<line class="st1" x1="144.1" y1="-36.1" x2="192.1" y2="-84.1"/>
			<line class="st1" x1="144.1" y1="-30.1" x2="198.1" y2="-84.1"/>
			<line class="st1" x1="144.1" y1="-24.1" x2="204.1" y2="-84.1"/>
			<line class="st1" x1="144.1" y1="-18.1" x2="210.1" y2="-84.1"/>
			<line class="st1" x1="144.1" y1="-12.1" x2="216.1" y2="-84.1"/>
			<line class="st1" x1="144.1" y1="-6.1" x2="222.1" y2="-84.1"/>
			<line class="st1" x1="144.1" y1="-0.1" x2="228.1" y2="-84.1"/>
			<line class="st1" x1="150.1" y1="-0.1" x2="228.1" y2="-78.1"/>
		</g>
		<g>
			<line class="st1" x1="72.1" y1="-66.1" x2="90.1" y2="-84.1"/>
			<line class="st1" x1="72.1" y1="-60.1" x2="96.1" y2="-84.1"/>
			<line class="st1" x1="72.1" y1="-54.1" x2="102.1" y2="-84.1"/>
			<line class="st1" x1="72.1" y1="-48.1" x2="108.1" y2="-84.1"/>
			<line class="st1" x1="72.1" y1="-42.1" x2="114.1" y2="-84.1"/>
			<line class="st1" x1="72.1" y1="-36.1" x2="120.1" y2="-84.1"/>
			<line class="st1" x1="72.1" y1="-30.1" x2="126.1" y2="-84.1"/>
			<line class="st1" x1="72.1" y1="-24.1" x2="132.1" y2="-84.1"/>
			<line class="st1" x1="72.1" y1="-18.1" x2="138.1" y2="-84.1"/>
			<line class="st1" x1="72.1" y1="-12.1" x2="144.1" y2="-84.1"/>
			<line class="st1" x1="72.1" y1="-6.1" x2="150.1" y2="-84.1"/>
			<line class="st1" x1="72.1" y1="-0.1" x2="156.1" y2="-84.1"/>
			<line class="st1" x1="78.1" y1="-0.1" x2="156.1" y2="-78.1"/>
		</g>
		<g>
			<line class="st1" x1="0.1" y1="-0.1" x2="84.1" y2="-84.1"/>
			<line class="st1" x1="6.1" y1="-0.1" x2="84.1" y2="-78.1"/>
		</g>
		<g>
			<line class="st1" x1="144.1" y1="-138.1" x2="162.1" y2="-156.1"/>
			<line class="st1" x1="144.1" y1="-132.1" x2="168.1" y2="-156.1"/>
			<line class="st1" x1="144.1" y1="-126.1" x2="174.1" y2="-156.1"/>
			<line class="st1" x1="144.1" y1="-120.1" x2="180.1" y2="-156.1"/>
			<line class="st1" x1="144.1" y1="-114.1" x2="186.1" y2="-156.1"/>
			<line class="st1" x1="144.1" y1="-108.1" x2="192.1" y2="-156.1"/>
			<line class="st1" x1="144.1" y1="-102.1" x2="198.1" y2="-156.1"/>
			<line class="st1" x1="144.1" y1="-96.1" x2="204.1" y2="-156.1"/>
			<line class="st1" x1="144.1" y1="-90.1" x2="210.1" y2="-156.1"/>
			<line class="st1" x1="144.1" y1="-84.1" x2="216.1" y2="-156.1"/>
			<line class="st1" x1="144.1" y1="-78.1" x2="222.1" y2="-156.1"/>
			<line class="st1" x1="144.1" y1="-72.1" x2="228.1" y2="-156.1"/>
			<line class="st1" x1="150.1" y1="-72.1" x2="228.1" y2="-150.1"/>
		</g>
		<g>
			<line class="st1" x1="72.1" y1="-138.1" x2="90.1" y2="-156.1"/>
			<line class="st1" x1="72.1" y1="-132.1" x2="96.1" y2="-156.1"/>
			<line class="st1" x1="72.1" y1="-126.1" x2="102.1" y2="-156.1"/>
			<line class="st1" x1="72.1" y1="-120.1" x2="108.1" y2="-156.1"/>
			<line class="st1" x1="72.1" y1="-114.1" x2="114.1" y2="-156.1"/>
			<line class="st1" x1="72.1" y1="-108.1" x2="120.1" y2="-156.1"/>
			<line class="st1" x1="72.1" y1="-102.1" x2="126.1" y2="-156.1"/>
			<line class="st1" x1="72.1" y1="-96.1" x2="132.1" y2="-156.1"/>
			<line class="st1" x1="72.1" y1="-90.1" x2="138.1" y2="-156.1"/>
			<line class="st1" x1="72.1" y1="-84.1" x2="144.1" y2="-156.1"/>
			<line class="st1" x1="72.1" y1="-78.1" x2="150.1" y2="-156.1"/>
			<line class="st1" x1="72.1" y1="-72.1" x2="156.1" y2="-156.1"/>
			<line class="st1" x1="78.1" y1="-72.1" x2="156.1" y2="-150.1"/>
			<line class="st1" x1="84.1" y1="-72.1" x2="156.1" y2="-144.1"/>
			<line class="st1" x1="90.1" y1="-72.1" x2="156.1" y2="-138.1"/>
			<line class="st1" x1="96.1" y1="-72.1" x2="156.1" y2="-132.1"/>
			<line class="st1" x1="102.1" y1="-72.1" x2="156.1" y2="-126.1"/>
			<line class="st1" x1="108.1" y1="-72.1" x2="156.1" y2="-120.1"/>
			<line class="st1" x1="114.1" y1="-72.1" x2="156.1" y2="-114.1"/>
			<line class="st1" x1="120.1" y1="-72.1" x2="156.1" y2="-108.1"/>
			<line class="st1" x1="126.1" y1="-72.1" x2="156.1" y2="-102.1"/>
			<line class="st1" x1="132.1" y1="-72.1" x2="156.1" y2="-96.1"/>
			<line class="st1" x1="138.1" y1="-72.1" x2="156.1" y2="-90.1"/>
			<line class="st1" x1="144.1" y1="-72.1" x2="156.1" y2="-84.1"/>
		</g>
		<g>
			<line class="st1" x1="0.1" y1="-72.1" x2="84.1" y2="-156.1"/>
			<line class="st1" x1="6.1" y1="-72.1" x2="84.1" y2="-150.1"/>
			<line class="st1" x1="12.1" y1="-72.1" x2="84.1" y2="-144.1"/>
			<line class="st1" x1="18.1" y1="-72.1" x2="84.1" y2="-138.1"/>
			<line class="st1" x1="24.1" y1="-72.1" x2="84.1" y2="-132.1"/>
			<line class="st1" x1="30.1" y1="-72.1" x2="84.1" y2="-126.1"/>
			<line class="st1" x1="36.1" y1="-72.1" x2="84.1" y2="-120.1"/>
			<line class="st1" x1="42.1" y1="-72.1" x2="84.1" y2="-114.1"/>
			<line class="st1" x1="48.1" y1="-72.1" x2="84.1" y2="-108.1"/>
			<line class="st1" x1="54.1" y1="-72.1" x2="84.1" y2="-102.1"/>
			<line class="st1" x1="60.1" y1="-72.1" x2="84.1" y2="-96.1"/>
			<line class="st1" x1="66.1" y1="-72.1" x2="84.1" y2="-90.1"/>
			<line class="st1" x1="72.1" y1="-72.1" x2="84.1" y2="-84.1"/>
		</g>
		<g>
			<line class="st1" x1="144.1" y1="-144.1" x2="228.1" y2="-228.1"/>
			<line class="st1" x1="150.1" y1="-144.1" x2="228.1" y2="-222.1"/>
		</g>
		<g>
			<line class="st1" x1="72.1" y1="-144.1" x2="156.1" y2="-228.1"/>
			<line class="st1" x1="78.1" y1="-144.1" x2="156.1" y2="-222.1"/>
			<line class="st1" x1="84.1" y1="-144.1" x2="156.1" y2="-216.1"/>
			<line class="st1" x1="90.1" y1="-144.1" x2="156.1" y2="-210.1"/>
			<line class="st1" x1="96.1" y1="-144.1" x2="156.1" y2="-204.1"/>
			<line class="st1" x1="102.1" y1="-144.1" x2="156.1" y2="-198.1"/>
			<line class="st1" x1="108.1" y1="-144.1" x2="156.1" y2="-192.1"/>
			<line class="st1" x1="114.1" y1="-144.1" x2="156.1" y2="-186.1"/>
			<line class="st1" x1="120.1" y1="-144.1" x2="156.1" y2="-180.1"/>
			<line class="st1" x1="126.1" y1="-144.1" x2="156.1" y2="-174.1"/>
			<line class="st1" x1="132.1" y1="-144.1" x2="156.1" y2="-168.1"/>
			<line class="st1" x1="138.1" y1="-144.1" x2="156.1" y2="-162.1"/>
			<line class="st1" x1="144.1" y1="-144.1" x2="156.1" y2="-156.1"/>
		</g>
		<g>
			<line class="st1" x1="0.1" y1="-144.1" x2="84.1" y2="-228.1"/>
			<line class="st1" x1="6.1" y1="-144.1" x2="84.1" y2="-222.1"/>
			<line class="st1" x1="12.1" y1="-144.1" x2="84.1" y2="-216.1"/>
			<line class="st1" x1="18.1" y1="-144.1" x2="84.1" y2="-210.1"/>
			<line class="st1" x1="24.1" y1="-144.1" x2="84.1" y2="-204.1"/>
			<line class="st1" x1="30.1" y1="-144.1" x2="84.1" y2="-198.1"/>
			<line class="st1" x1="36.1" y1="-144.1" x2="84.1" y2="-192.1"/>
			<line class="st1" x1="42.1" y1="-144.1" x2="84.1" y2="-186.1"/>
			<line class="st1" x1="48.1" y1="-144.1" x2="84.1" y2="-180.1"/>
			<line class="st1" x1="54.1" y1="-144.1" x2="84.1" y2="-174.1"/>
			<line class="st1" x1="60.1" y1="-144.1" x2="84.1" y2="-168.1"/>
			<line class="st1" x1="66.1" y1="-144.1" x2="84.1" y2="-162.1"/>
			<line class="st1" x1="72.1" y1="-144.1" x2="84.1" y2="-156.1"/>
		</g>
	</g>
</pattern>
<g id="SOURCE" class="st2">
</g>
<g id="A10_Source" class="st2">
	<g id="Flèche_6" class="st3">
	</g>
</g>
<g id="A10">
</g>
<g id="A62_Source" class="st2">
</g>
<g id="A62">
</g>
<g id="A63_Source" class="st2">
</g>
<g id="A63">
</g>
<g id="A64_Source" class="st2">
	<g class="st3">
		<polygon class="st7" points="15.1,13.9 15.1,405 36.5,404.5 76.2,360.5 121.2,307.5 135.3,257.5 135.3,209.5 177.7,161.5 
			191,113.5 220.1,64.5 232.3,13.9 		"/>
		<pattern  id="SVGID_1_" xlink:href="#Lignes_diagonales" patternTransform="matrix(0 1.104 -0.8121 0 -13161.5527 -707.8353)">
		</pattern>
		<polygon class="st8" points="15.1,13.9 15.1,405 36.5,404.5 76.2,360.5 121.2,307.5 135.3,257.5 135.3,209.5 177.7,161.5 
			191,113.5 220.1,64.5 232.3,13.9 		"/>
	</g>
	<linearGradient id="SVGID_2_" gradientUnits="userSpaceOnUse" x1="15.0589" y1="209.4754" x2="231.3228" y2="209.4754">
		<stop  offset="0" style="stop-color:#FFFFFF"/>
		<stop  offset="1" style="stop-color:#FFFFFF;stop-opacity:0"/>
	</linearGradient>
	<polygon class="st9" points="15.1,13.9 15.1,405 36.4,404.5 78.6,355.5 121.6,308.5 135.7,257.5 134.8,210.5 177,161.5 
		191.9,110.5 220.1,62.5 231.3,13.9 	"/>
	<polyline class="st12" points="36.8,402.9 92.4,354.3 114.6,305.7 131.2,257 131.2,208.4 136.8,159.8 167.3,111.1 220.1,62.5 	"/>
	<g class="st3">
		<text transform="matrix(1 0 0 1 117.9388 388.6357)"><tspan x="0" y="0" class="st10 st40 st41">2011</tspan><tspan x="0" y="21" class="st11 st42 st43">21,80 €</tspan></text>
	</g>
	<g class="st3">
		<text transform="matrix(1 0 0 1 206.2773 262.6357)"><tspan x="0" y="0" class="st10 st40 st41">2014</tspan><tspan x="0" y="21" class="st11 st42 st43">23,40 €</tspan></text>
	</g>
	<g class="st3">
		<polygon class="st11" points="274.6,154.9 273.8,154.9 269.4,162.4 270.7,162.4 		"/>
		<polygon class="st11" points="263.9,171.7 248.2,198.7 251.9,198.7 265.9,171.7 		"/>
		<polygon class="st11" points="253.1,198.7 271.3,198.7 274.9,171.7 266.5,171.7 		"/>
		<polygon class="st11" points="277.4,173 277.4,173.5 277.4,183.1 277.4,187.9 277.4,198.7 278.3,198.7 278.3,187.9 278.3,183.1 
			278.3,173.5 278.3,173 278.3,171.7 277.4,171.7 		"/>
		<polygon class="st11" points="284.4,162.4 280.7,154.9 278.7,154.9 279.6,162.4 		"/>
		<rect x="277.4" y="154.9" class="st11" width="0.9" height="7.5"/>
		<polygon class="st11" points="280.8,171.7 284.4,198.7 300.6,198.7 302.5,198.7 289.1,171.7 		"/>
		<polygon class="st11" points="276.1,162.4 277,154.9 274.9,154.9 271.1,162.4 		"/>
		<polygon class="st11" points="291.6,171.7 289.7,171.7 303.7,198.7 307.4,198.7 		"/>
		<polygon class="st11" points="286.2,162.4 281.8,154.9 280.9,154.9 284.8,162.4 		"/>
		<polygon class="st11" points="289,170.4 290.8,170.4 295.2,170.4 295.6,171 296,171.7 297.8,174.9 299.7,174.9 299.7,171.7 
			299.7,171 299.7,170.5 299.7,170.4 302.4,170.4 302.4,163.7 287,163.7 285.5,163.7 285.1,163.7 279.8,163.7 278.3,163.7 
			278.3,163.7 277.4,163.7 277.4,163.7 275.8,163.7 270.4,163.7 270,163.7 268.6,163.7 253.5,163.7 253.5,170.4 256.2,170.4 
			256.2,170.5 256.2,171 256.2,171.7 256.2,174.9 258.1,174.9 259.9,171.7 260.3,171 260.7,170.4 264.7,170.4 266.5,170.4 
			267.1,170.4 275,170.4 277.4,170.4 278.3,170.4 280.7,170.4 288.4,170.4 		"/>
	</g>
	<text transform="matrix(1 0 0 1 254.1649 228.5996)" class="st18 st44 st45">A64</text>
	<g class="st3">
		<g>
			<polyline class="st46" points="37.3,405 79.3,356.1 121.3,307.2 135.3,258.4 135.3,209.5 177.3,160.6 191.3,111.7 219.3,62.8 
				233.3,13.9 			"/>
		</g>
	</g>
	<line class="st14" x1="47.7" y1="405" x2="114.7" y2="405"/>
	<circle class="st15" cx="40" cy="404" r="7.5"/>
	<line class="st14" x1="136" y1="256.5" x2="203" y2="256.5"/>
	<circle class="st15" cx="135.5" cy="256.5" r="7.5"/>
	<g class="st3">
		<text transform="matrix(1 0 0 1 256.2773 21.6357)"><tspan x="0" y="0" class="st10 st40 st41">2019</tspan><tspan x="0" y="21" class="st11 st42 st43">24,90 €</tspan></text>
	</g>
	<g class="st3">
		<line class="st16" x1="233" y1="15.5" x2="252" y2="15.5"/>
		<circle class="st17" cx="232.5" cy="15.5" r="7.5"/>
	</g>
	<circle class="st18" cx="277.8" cy="102.5" r="41"/>
	<g class="st19">
		<polygon class="st20" points="263.2,82.2 270.4,82.2 270.4,91 285.1,91 285.1,82.5 292.3,82.5 277.9,67.5 		"/>
	</g>
	<text transform="matrix(0.8526 0 0 1 251.7744 119.7246)" class="st47 st44 st48">+14 %</text>
	<text transform="matrix(1 0 0 1 27.7944 210.9062)" class="st49 st50 st51">Inflation</text>
	<g class="st3">
		<g>
			<path class="st22" d="M76.4,193.1c4.9-28.7,31.6-48.3,60.3-44.5"/>
			<g>
				<polygon class="st21" points="132.7,151.3 136.1,148.6 133.4,145.2 136,145.5 138.6,148.9 135.3,151.6 				"/>
			</g>
		</g>
	</g>
</g>
<g id="A64">
	<g>
		<polygon class="st7" points="15.1,13.9 15.1,405 36.5,404.5 76.2,360.5 121.2,307.5 135.3,257.5 135.3,209.5 177.7,161.5 
			191,113.5 220.1,64.5 232.3,13.9 		"/>
		<pattern  id="SVGID_3_" xlink:href="#Lignes_diagonales" patternTransform="matrix(0 1.104 -0.8121 0 -13161.5527 -707.8353)">
		</pattern>
		<polygon class="st23" points="15.1,13.9 15.1,405 36.5,404.5 76.2,360.5 121.2,307.5 135.3,257.5 135.3,209.5 177.7,161.5 
			191,113.5 220.1,64.5 232.3,13.9 		"/>
	</g>
	<linearGradient id="SVGID_4_" gradientUnits="userSpaceOnUse" x1="15.0589" y1="209.4754" x2="231.3228" y2="209.4754">
		<stop  offset="0" style="stop-color:#FFFFFF"/>
		<stop  offset="1" style="stop-color:#FFFFFF;stop-opacity:0"/>
	</linearGradient>
	<polygon class="st24" points="15.1,13.9 15.1,405 36.4,404.5 78.6,355.5 121.6,308.5 135.7,257.5 134.8,210.5 177,161.5 
		191.9,110.5 220.1,62.5 231.3,13.9 	"/>
	<polyline class="st25" points="36.8,402.9 92.4,354.3 114.6,305.7 131.2,257 131.2,208.4 136.8,159.8 167.3,111.1 220.1,62.5 	"/>
	<g>
		<g>
			<path class="st10" d="M118.5,387l3.1-3.6c2.3-2.6,2.4-3.3,2.4-4.6c0-1.2-0.5-1.8-1.9-1.8c-1,0-1.9,0.3-2.7,0.6l-0.9-1.7
				c1-0.5,2.1-0.8,3.9-0.8c2.6,0,3.6,1.1,3.6,3.4c0,2-0.5,2.9-3,5.9l-2,2.4h5.2v1.8h-7.7V387z"/>
			<path class="st10" d="M128.1,382c0-4.4,0.6-6.8,4.5-6.8c3.8,0,4.4,2.4,4.4,6.8c0,4.6-0.6,6.8-4.4,6.8
				C128.7,388.8,128.1,386.5,128.1,382z M135,382c0-3.5-0.4-4.9-2.4-4.9c-2,0-2.4,1.3-2.4,4.9c0,3.6,0.4,4.9,2.4,4.9
				C134.6,386.9,135,385.5,135,382z"/>
			<path class="st10" d="M140.3,377.1h-1.9v-1.9h3.9v13.3h-2V377.1z"/>
			<path class="st10" d="M146.2,377.1h-1.9v-1.9h3.9v13.3h-2V377.1z"/>
			<path class="st11" d="M118.6,408.1l3.3-4.1c2.6-3.2,2.9-4,2.9-5.5c0-1.5-0.5-2.1-2.2-2.1c-1.2,0-2.2,0.3-3,0.7l-0.8-1.6
				c1-0.5,2.2-0.9,4.1-0.9c2.8,0,3.8,1.2,3.8,3.7c0,2.2-0.6,3.2-3.4,6.8l-2.3,2.9h5.9v1.7h-8.2V408.1z"/>
			<path class="st11" d="M130.4,396.5h-2.2v-1.7h4v14.8h-1.9V396.5z"/>
			<path class="st11" d="M135,411c0.9-0.5,1.1-0.7,1.1-1.4h-1v-2.5h2.3v2.4c0,1.3-0.2,1.8-1.8,2.5L135,411z"/>
			<path class="st11" d="M139.1,405.4c0-1.8,0.2-3.4,2-3.9c-1.4-0.6-1.6-1.8-1.6-3.2c0-1.9,0.7-3.6,4.2-3.6c3.5,0,4.2,1.7,4.2,3.6
				c0,1.4-0.2,2.7-1.6,3.2c1.9,0.6,2,2.1,2,3.9c0,2.3-0.6,4.4-4.6,4.4C139.7,409.8,139.1,407.7,139.1,405.4z M146.5,405.2
				c0-1.7-0.4-2.8-2.7-2.8c-2.3,0-2.7,1.1-2.7,2.8c0,1.7,0.4,2.9,2.7,2.9C146.1,408.2,146.5,406.9,146.5,405.2z M146.2,398.5
				c0-1.4-0.5-2.2-2.4-2.2c-1.9,0-2.4,0.9-2.4,2.2c0,1.4,0.5,2.3,2.4,2.3C145.7,400.8,146.2,399.9,146.2,398.5z"/>
			<path class="st11" d="M150.5,402.2c0-5.1,0.7-7.6,4.8-7.6c4,0,4.7,2.5,4.7,7.6c0,5.2-0.7,7.6-4.7,7.6
				C151.3,409.8,150.5,407.4,150.5,402.2z M158.1,402.2c0-4.2-0.6-5.8-2.8-5.8c-2.3,0-2.8,1.6-2.8,5.8c0,4.2,0.5,5.8,2.8,5.8
				C157.6,408.1,158.1,406.5,158.1,402.2z"/>
			<path class="st11" d="M165.3,399.9h1.9c0.3-3.6,1.5-5.2,4.6-5.2c1.4,0,2.5,0.3,3.4,0.8l-0.9,1.6c-0.7-0.4-1.4-0.6-2.5-0.6
				c-1.9,0-2.6,1.1-2.8,3.4h4.2v1.5H169v1.4h4.2v1.6h-4.2c0.2,2.5,0.9,3.7,2.8,3.7c1.1,0,1.9-0.4,2.5-0.7l0.9,1.5
				c-0.9,0.5-2,0.9-3.5,0.9c-3.1,0-4.3-1.7-4.5-5.4h-1.9v-1.6h1.8v-1.4h-1.8V399.9z"/>
		</g>
	</g>
	<g>
		<g>
			<path class="st10" d="M206.8,261l3.1-3.6c2.2-2.6,2.4-3.3,2.4-4.6c0-1.2-0.5-1.8-1.9-1.8c-1,0-1.9,0.3-2.7,0.6l-0.9-1.7
				c1-0.5,2.1-0.8,3.9-0.8c2.6,0,3.6,1.1,3.6,3.4c0,2-0.5,2.9-3,5.9l-2,2.4h5.2v1.8h-7.7V261z"/>
			<path class="st10" d="M216.4,256c0-4.4,0.6-6.8,4.5-6.8c3.8,0,4.4,2.4,4.4,6.8c0,4.6-0.6,6.8-4.4,6.8
				C217.1,262.8,216.4,260.5,216.4,256z M223.3,256c0-3.5-0.5-4.9-2.4-4.9c-2,0-2.4,1.3-2.4,4.9c0,3.6,0.4,4.9,2.4,4.9
				C222.9,260.9,223.3,259.5,223.3,256z"/>
			<path class="st10" d="M228.7,251.1h-1.9v-1.9h3.9v13.3h-2V251.1z"/>
			<path class="st10" d="M232.6,258.2l4.7-8.9h2.1l-4.6,8.8h3.3l0.4-4h1.5v4h1.7v1.7H240v2.9h-1.9v-2.9h-5.4V258.2z"/>
			<path class="st11" d="M207,282.1l3.3-4.1c2.6-3.2,2.9-4,2.9-5.5c0-1.5-0.5-2.1-2.2-2.1c-1.2,0-2.2,0.3-3,0.7l-0.8-1.6
				c1-0.5,2.2-0.9,4.1-0.9c2.8,0,3.8,1.2,3.8,3.7c0,2.2-0.6,3.2-3.4,6.8l-2.3,2.9h5.9v1.7H207V282.1z"/>
			<path class="st11" d="M216.7,282.9l0.9-1.5c0.9,0.5,1.7,0.8,2.9,0.8c2,0,2.7-0.7,2.7-2.9c0-1.6-0.3-2.6-2.8-2.6h-1.8v-1.7h1.9
				c1.9,0,2.3-0.9,2.3-2.2c0-1.8-0.7-2.2-2.3-2.2c-1,0-2,0.3-2.8,0.7l-0.8-1.5c1-0.6,2.3-0.9,3.9-0.9c2.5,0,3.9,0.7,3.9,3.6
				c0,2-0.5,2.9-1.6,3.3c1.5,0.4,1.9,1.4,1.9,3.8c0,3.3-1.4,4.4-4.4,4.4C218.9,283.8,217.8,283.5,216.7,282.9z"/>
			<path class="st11" d="M227,285c0.9-0.5,1.1-0.7,1.1-1.4h-1v-2.5h2.3v2.4c0,1.3-0.2,1.8-1.8,2.5L227,285z"/>
			<path class="st11" d="M230.2,278.8l5.2-10h2l-5.2,9.9h4l0.4-4.6h1.4v4.6h2v1.6h-2v3.4h-1.8v-3.4h-5.9V278.8z"/>
			<path class="st11" d="M241.6,276.2c0-5.1,0.7-7.6,4.8-7.6c4,0,4.7,2.5,4.7,7.6c0,5.2-0.7,7.6-4.7,7.6
				C242.3,283.8,241.6,281.4,241.6,276.2z M249.2,276.2c0-4.2-0.6-5.8-2.8-5.8c-2.3,0-2.8,1.6-2.8,5.8c0,4.2,0.5,5.8,2.8,5.8
				C248.6,282.1,249.2,280.5,249.2,276.2z"/>
			<path class="st11" d="M256.4,273.9h1.9c0.3-3.6,1.5-5.2,4.6-5.2c1.4,0,2.5,0.3,3.4,0.8l-0.9,1.6c-0.7-0.4-1.4-0.6-2.5-0.6
				c-1.9,0-2.6,1.1-2.8,3.4h4.2v1.5H260v1.4h4.2v1.6h-4.2c0.2,2.5,0.9,3.7,2.8,3.7c1.1,0,1.9-0.4,2.5-0.7l0.9,1.5
				c-0.9,0.5-2,0.9-3.5,0.9c-3.1,0-4.3-1.7-4.5-5.4h-1.9v-1.6h1.8v-1.4h-1.8V273.9z"/>
		</g>
	</g>
	<g>
		<polygon class="st11" points="274.6,154.9 273.8,154.9 269.4,162.4 270.7,162.4 		"/>
		<polygon class="st11" points="263.9,171.7 248.2,198.7 251.9,198.7 265.9,171.7 		"/>
		<polygon class="st11" points="253.1,198.7 271.3,198.7 274.9,171.7 266.5,171.7 		"/>
		<polygon class="st11" points="277.4,173 277.4,173.5 277.4,183.1 277.4,187.9 277.4,198.7 278.3,198.7 278.3,187.9 278.3,183.1 
			278.3,173.5 278.3,173 278.3,171.7 277.4,171.7 		"/>
		<polygon class="st11" points="284.4,162.4 280.7,154.9 278.7,154.9 279.6,162.4 		"/>
		<rect x="277.4" y="154.9" class="st11" width="0.9" height="7.5"/>
		<polygon class="st11" points="280.8,171.7 284.4,198.7 300.6,198.7 302.5,198.7 289.1,171.7 		"/>
		<polygon class="st11" points="276.1,162.4 277,154.9 274.9,154.9 271.1,162.4 		"/>
		<polygon class="st11" points="291.6,171.7 289.7,171.7 303.7,198.7 307.4,198.7 		"/>
		<polygon class="st11" points="286.2,162.4 281.8,154.9 280.9,154.9 284.8,162.4 		"/>
		<polygon class="st11" points="289,170.4 290.8,170.4 295.2,170.4 295.6,171 296,171.7 297.8,174.9 299.7,174.9 299.7,171.7 
			299.7,171 299.7,170.5 299.7,170.4 302.4,170.4 302.4,163.7 287,163.7 285.5,163.7 285.1,163.7 279.8,163.7 278.3,163.7 
			278.3,163.7 277.4,163.7 277.4,163.7 275.8,163.7 270.4,163.7 270,163.7 268.6,163.7 253.5,163.7 253.5,170.4 256.2,170.4 
			256.2,170.5 256.2,171 256.2,171.7 256.2,174.9 258.1,174.9 259.9,171.7 260.3,171 260.7,170.4 264.7,170.4 266.5,170.4 
			267.1,170.4 275,170.4 277.4,170.4 278.3,170.4 280.7,170.4 288.4,170.4 		"/>
	</g>
	<g>
		<path class="st11" d="M259.8,204.5h5.2l5.5,24.1h-4.7L265,225h-5.4l-0.7,3.6h-4.4L259.8,204.5z M264,220.9l-1.2-6.1l-0.6-3.1
			l-0.6,3.1l-1.2,6.1H264z"/>
		<path class="st11" d="M273.9,227.2c-1.9-1.8-2.1-4.9-2.1-9v-1.8c0-4.6,0.3-7.7,2.1-9.6c1.5-1.5,3.6-2.2,7.6-2.2h1.7v4.2h-1.7
			c-5.2,0-5.2,1.7-5.2,4.4c0.6-0.7,1.5-1.3,4-1.3c4.7,0,5,3.3,5,8c0,3.4-0.3,5.9-1.8,7.3c-1,0.9-2.6,1.5-4.8,1.5
			C276.4,228.8,274.9,228.2,273.9,227.2z M280.8,220.2c0-3.2-0.3-4.2-2-4.2c-1.5,0-2.3,0.6-2.3,4.1c0,3.7,0.2,4.8,2.3,4.8
			C280.5,224.9,280.8,223.7,280.8,220.2z"/>
		<path class="st11" d="M286.8,220.2l6.3-15.7h4.5l-6.2,15.4h3.1l0.8-5.9h3.2v5.9h2.2v4h-2.2v4.6h-4.1V224h-7.6V220.2z"/>
	</g>
	<g>
		<g>
			<polyline class="st46" points="37.3,405 79.3,356.1 121.3,307.2 135.3,258.4 135.3,209.5 177.3,160.6 191.3,111.7 219.3,62.8 
				233.3,13.9 			"/>
		</g>
	</g>
	<line class="st16" x1="47.7" y1="405" x2="114.7" y2="405"/>
	<circle class="st17" cx="40" cy="404" r="7.5"/>
	<line class="st16" x1="136" y1="256.5" x2="203" y2="256.5"/>
	<circle class="st17" cx="135.5" cy="256.5" r="7.5"/>
	<g>
		<g>
			<path class="st10" d="M256.8,20l3.1-3.6c2.2-2.6,2.4-3.3,2.4-4.6c0-1.2-0.5-1.8-1.9-1.8c-1,0-1.9,0.3-2.7,0.6L256.9,9
				c1-0.5,2.1-0.8,3.9-0.8c2.6,0,3.6,1.1,3.6,3.4c0,2-0.5,2.9-3,5.9l-2,2.4h5.2v1.8h-7.7V20z"/>
			<path class="st10" d="M266.4,15c0-4.4,0.6-6.8,4.5-6.8c3.8,0,4.4,2.4,4.4,6.8c0,4.6-0.6,6.8-4.4,6.8
				C267.1,21.8,266.4,19.5,266.4,15z M273.3,15c0-3.5-0.5-4.9-2.4-4.9c-2,0-2.4,1.3-2.4,4.9c0,3.6,0.4,4.9,2.4,4.9
				C272.9,19.9,273.3,18.5,273.3,15z"/>
			<path class="st10" d="M278.7,10.1h-1.9V8.3h3.9v13.3h-2V10.1z"/>
			<path class="st10" d="M284.5,19.9h1.3c3.1,0,3.6-1.3,3.7-3.5c-0.5,0.7-1.5,1-3,1c-3,0-3.6-1.8-3.6-4.4c0-3.2,0.9-4.8,4.2-4.8
				c4,0,4.5,2.1,4.5,5.7c0,5.3-0.4,7.8-5.9,7.8h-1.2V19.9z M289.5,13c0-2.1-0.4-3.1-2.4-3.1c-1.7,0-2.2,1-2.2,3
				c0,1.8,0.5,2.7,2.1,2.7C288.5,15.7,289.5,15,289.5,13z"/>
			<path class="st11" d="M257,41.1l3.3-4.1c2.6-3.2,2.9-4,2.9-5.5c0-1.5-0.5-2.1-2.2-2.1c-1.2,0-2.2,0.3-3,0.7l-0.8-1.6
				c1-0.5,2.2-0.9,4.1-0.9c2.8,0,3.8,1.2,3.8,3.7c0,2.2-0.6,3.2-3.4,6.8l-2.3,2.9h5.9v1.7H257V41.1z"/>
			<path class="st11" d="M266.5,37.8l5.2-10h2l-5.2,9.9h4l0.4-4.6h1.4v4.6h2v1.6h-2v3.4h-1.8v-3.4h-5.9V37.8z"/>
			<path class="st11" d="M277.6,44c0.9-0.5,1.1-0.7,1.1-1.4h-1v-2.5h2.3v2.4c0,1.3-0.2,1.8-1.8,2.5L277.6,44z"/>
			<path class="st11" d="M282.7,41h1.3c3.7,0,4.2-1.6,4.4-4.3c-0.6,0.8-1.7,1.2-3.4,1.2c-3.3,0-3.9-1.9-3.9-4.8
				c0-3.5,0.9-5.4,4.5-5.4c4.2,0,4.7,2.2,4.7,6.2c0,6-0.4,8.8-6.4,8.8h-1.2V41z M288.4,33.1c0-2.6-0.5-3.7-2.8-3.7
				c-2.1,0-2.6,1.2-2.6,3.6c0,2.1,0.5,3.2,2.5,3.2C287.2,36.3,288.4,35.4,288.4,33.1z"/>
			<path class="st11" d="M292.5,35.2c0-5.1,0.7-7.6,4.8-7.6c4,0,4.7,2.5,4.7,7.6c0,5.2-0.7,7.6-4.7,7.6
				C293.3,42.8,292.5,40.4,292.5,35.2z M300.1,35.2c0-4.2-0.6-5.8-2.8-5.8c-2.3,0-2.8,1.6-2.8,5.8c0,4.2,0.5,5.8,2.8,5.8
				C299.6,41.1,300.1,39.5,300.1,35.2z"/>
			<path class="st11" d="M307.3,32.9h1.9c0.3-3.6,1.5-5.2,4.6-5.2c1.4,0,2.5,0.3,3.4,0.8l-0.9,1.6c-0.7-0.4-1.4-0.6-2.5-0.6
				c-1.9,0-2.6,1.1-2.8,3.4h4.2v1.5H311v1.4h4.2v1.6h-4.2c0.2,2.5,0.9,3.7,2.8,3.7c1.1,0,1.9-0.4,2.5-0.7l0.9,1.5
				c-0.9,0.5-2,0.9-3.5,0.9c-3.1,0-4.3-1.7-4.5-5.4h-1.9v-1.6h1.8v-1.4h-1.8V32.9z"/>
		</g>
	</g>
	<g>
		<line class="st16" x1="233" y1="15.5" x2="252" y2="15.5"/>
		<circle class="st17" cx="232.5" cy="15.5" r="7.5"/>
	</g>
	<circle class="st11" cx="277.8" cy="102.5" r="41"/>
	<g class="st26">
		<polygon class="st20" points="263.2,82.2 270.4,82.2 270.4,91 285.1,91 285.1,82.5 292.3,82.5 277.9,67.5 		"/>
	</g>
	<g>
		<path class="st20" d="M256.2,111.6h-2.8v-3.5h2.8v-4.5h3.1v4.5h2.8v3.5h-2.8v4.5h-3.1V111.6z"/>
		<path class="st20" d="M265.3,103.2h-1.9v-3.5h5v20h-3.2V103.2z"/>
		<path class="st20" d="M270.2,112.8l4.4-13h3.2l-4.4,12.8h2.2l0.6-4.9h2.3v4.9h1.6v3.3h-1.6v3.9h-2.9v-3.9h-5.4V112.8z"/>
		<path class="st20" d="M285.1,111.5c-1-1.1-1.1-3-1.1-5.5c0-2.3,0.1-4.2,1-5.3c0.6-0.7,1.5-1.2,2.8-1.2c1.3,0,2.2,0.5,2.8,1.2
			c0.9,1.1,1,3,1,5.3c0,2.5-0.1,4.4-1.1,5.5c-0.6,0.6-1.5,1.1-2.7,1.1S285.7,112.1,285.1,111.5z M288.8,106.1c0-2.8-0.1-3.6-1-3.6
			c-1,0-1,0.8-1,3.6s0,3.6,1,3.6C288.7,109.7,288.8,108.8,288.8,106.1z M295.2,99.7h2.7l-6.1,20H289L295.2,99.7z M296.5,118.9
			c-1-1.1-1.1-3-1.1-5.5c0-2.3,0.1-4.2,1-5.3c0.6-0.7,1.5-1.2,2.8-1.2c1.3,0,2.2,0.5,2.8,1.2c0.9,1.1,1,3,1,5.3
			c0,2.5-0.1,4.4-1.2,5.5c-0.6,0.6-1.5,1.1-2.6,1.1S297.1,119.5,296.5,118.9z M300.2,113.4c0-2.8,0-3.6-1-3.6c-1,0-1,0.8-1,3.6
			s0,3.6,1,3.6C300.1,117.1,300.2,116.2,300.2,113.4z"/>
	</g>
	<g>
		<path class="st21" d="M30.9,195.4h1.6l-2.7,15.5h-1.6L30.9,195.4z"/>
		<path class="st21" d="M34.5,199.5l1.2-0.1l-0.1,1c0.6-0.7,1.6-1.2,3.2-1.2c3.4,0,3.2,2.1,2.8,4.4l-1.3,7.3h-1.5l1.3-7.1
			c0.4-2,0.4-3.1-1.9-3.1c-2,0-2.7,1.4-3.1,4.1l-1.1,6.1h-1.5L34.5,199.5z"/>
		<path class="st21" d="M44,199.4h1.7l0.3-1.8c0.3-1.9,1.1-2.8,3.4-2.8h1l-0.2,1.4h-0.8c-1.4,0-1.6,0.8-1.9,1.8l-0.3,1.4h2.4
			l-0.3,1.3H47l-2.4,13.5h-1.5l2.4-13.5h-1.8L44,199.4z M49.6,208.2l2.4-13.3h1.5l-2.4,13.4c-0.2,1-0.2,1.3,1.2,1.3l-0.2,1.4
			c-0.1,0-0.2,0-0.5,0C49.5,210.9,49.2,210.1,49.6,208.2z"/>
		<path class="st21" d="M53.7,208.3c0-3.9,2-5,5.5-5h1.5c0.3-1.5,0.3-2.7-1.9-2.7c-0.9,0-1.8,0.1-2.5,0.4l-0.5-1.3
			c0.9-0.4,2.1-0.6,3.2-0.6c3.4,0,3.6,1.6,3.1,4.4l-0.8,4.7c-0.2,0.9-0.2,1.2,0.7,1.2l-0.2,1.4c-0.2,0-0.3,0-0.5,0
			c-1.1,0-1.4-0.4-1.4-1.1c-0.7,0.8-1.9,1.2-3.1,1.2C54.7,211,53.7,210.1,53.7,208.3z M60.1,206.9l0.4-2.4h-1.2
			c-2.8,0-4.1,0.6-4.1,3.4c0,1.3,0.7,1.8,2,1.8C58.3,209.7,59.7,209.2,60.1,206.9z"/>
		<path class="st21" d="M65,199.4h1.8l0.8-3.2l1.3-0.3l-0.6,3.5h2.7l-0.3,1.3H68l-1.2,7.1c-0.2,1.1-0.1,1.7,1.2,1.7h1.2l-0.2,1.4
			c-0.2,0-1.1,0-1.3,0c-2.4,0-2.7-1.1-2.3-3.1l1.2-7.1h-1.8L65,199.4z"/>
		<path class="st21" d="M73.1,199.4h1.5l-2,11.5H71L73.1,199.4z M73.7,195.7h1.5l-0.4,2.2h-1.5L73.7,195.7z"/>
		<path class="st21" d="M75.4,207.1c0-0.7,0.1-1.5,0.3-2.4c0.6-3.3,1.8-5.6,5.1-5.6c2.9,0,3.8,1.6,3.8,3.8c0,0.8-0.1,1.6-0.2,2.5
			c-0.6,3.4-1.7,5.6-5,5.6C76.3,211.1,75.4,209.4,75.4,207.1z M82.8,205.4c0.1-0.8,0.3-1.6,0.3-2.2c0-1.5-0.5-2.5-2.4-2.5
			c-2.4,0-3,1.9-3.4,4.3c-0.1,0.8-0.2,1.5-0.2,2.2c0,1.5,0.5,2.6,2.4,2.6C81.7,209.7,82.3,207.9,82.8,205.4z"/>
		<path class="st21" d="M87.3,199.5l1.2-0.1l-0.1,1c0.6-0.7,1.6-1.2,3.2-1.2c3.4,0,3.2,2.1,2.8,4.4l-1.3,7.3h-1.5l1.3-7.1
			c0.4-2,0.4-3.1-1.9-3.1c-2,0-2.7,1.4-3.1,4.1l-1.1,6.1h-1.5L87.3,199.5z"/>
	</g>
	<g>
		<g>
			<path class="st22" d="M76.4,193.1c4.9-28.7,31.6-48.3,60.3-44.5"/>
			<g>
				<polygon class="st21" points="132.7,151.3 136.1,148.6 133.4,145.2 136,145.5 138.6,148.9 135.3,151.6 				"/>
			</g>
		</g>
	</g>
</g>
<g id="A89_Source" class="st2">
	<text transform="matrix(0.8526 0 0 1 251.7744 119.7246)" class="st47 st44 st48">+14 %</text>
</g>
<g id="A89">
</g>
<g id="A65_Source" class="st2">
</g>
<g id="A65">
</g>
</svg>
