<?xml version="1.0" encoding="utf-8"?>
<!-- Generator: Adobe Illustrator 21.1.0, SVG Export Plug-In . SVG Version: 6.00 Build 0)  -->
<svg version="1.1" xmlns="http://www.w3.org/2000/svg" xmlns:xlink="http://www.w3.org/1999/xlink" x="0px" y="0px"
	 viewBox="0 0 320 415" style="enable-background:new 0 0 320 415;" xml:space="preserve">
<style type="text/css">
	.st0{fill:none;}
	.st1{fill:none;stroke:#1D1D1B;stroke-width:0.3;stroke-linejoin:round;}
	.st2{display:none;}
	.st3{display:inline;}
	.st4{fill:none;stroke:#000000;stroke-width:0.1732;stroke-miterlimit:10;}
	.st5{stroke:#000000;stroke-width:8.660254e-02;stroke-miterlimit:10;}
	.st6{fill:none;stroke:#000000;stroke-width:9;stroke-miterlimit:10;}
	.st7{fill:#F6D5D1;}
	.st8{opacity:0.27;fill:url(#SVGID_1_);}
	.st9{display:inline;fill:url(#SVGID_2_);}
	.st10{fill:#808080;}
	.st11{fill:#D42E1A;}
	.st12{display:inline;fill:none;stroke:#871103;stroke-width:1.5;stroke-miterlimit:10;}
	.st13{fill:none;stroke:#D42E1A;stroke-width:3.043;stroke-linecap:round;stroke-linejoin:round;stroke-miterlimit:10;}
	.st14{display:inline;fill:none;stroke:#000000;stroke-miterlimit:10;}
	.st15{display:inline;fill:#FFFFFF;stroke:#000000;stroke-width:0.75;stroke-miterlimit:10;}
	.st16{fill:none;stroke:#000000;stroke-miterlimit:10;}
	.st17{fill:#FFFFFF;stroke:#000000;stroke-width:0.75;stroke-miterlimit:10;}
	.st18{display:inline;fill:#D42E1A;}
	.st19{display:inline;opacity:0.7;}
	.st20{fill:#FFFFFF;}
	.st21{fill:#871103;}
	.st22{fill:none;stroke:#871103;stroke-width:0.75;stroke-miterlimit:10;}
	.st23{opacity:0.27;fill:url(#SVGID_3_);}
	.st24{fill:url(#SVGID_4_);}
	.st25{fill:none;stroke:#871103;stroke-width:1.5;stroke-miterlimit:10;}
	.st26{opacity:0.7;}
	.st27{opacity:0.27;fill:url(#SVGID_5_);}
	.st28{display:inline;fill:url(#SVGID_6_);}
	.st29{display:inline;fill:none;stroke:#D42E1A;stroke-width:3;stroke-linecap:round;stroke-linejoin:round;stroke-miterlimit:10;}
	.st30{opacity:0.27;fill:url(#SVGID_7_);}
	.st31{fill:url(#SVGID_8_);}
	.st32{fill:none;stroke:#D42E1A;stroke-width:3;stroke-linecap:round;stroke-linejoin:round;stroke-miterlimit:10;}
	.st33{opacity:0.27;fill:url(#SVGID_9_);}
	.st34{display:inline;fill:url(#SVGID_10_);}
	.st35{fill:none;stroke:#D42E1A;stroke-width:2.7954;stroke-linecap:round;stroke-linejoin:round;stroke-miterlimit:10;}
	.st36{opacity:0.27;fill:url(#SVGID_11_);}
	.st37{fill:url(#SVGID_12_);}
	.st38{opacity:0.27;fill:url(#SVGID_13_);}
	.st39{display:inline;fill:url(#SVGID_14_);}
	.st40{fill:none;stroke:#D42E1A;stroke-width:2.8186;stroke-linecap:round;stroke-linejoin:round;stroke-miterlimit:10;}
	.st41{opacity:0.27;fill:url(#SVGID_15_);}
	.st42{fill:url(#SVGID_16_);}
	.st43{opacity:0.27;fill:url(#SVGID_17_);}
	.st44{display:inline;fill:url(#SVGID_18_);}
	.st45{opacity:0.27;fill:url(#SVGID_19_);}
	.st46{fill:url(#SVGID_20_);}
	.st47{opacity:0.27;fill:url(#SVGID_21_);}
	.st48{display:inline;fill:url(#SVGID_22_);}
	.st49{font-family:'AntennaCond-Medium';}
	.st50{font-size:18px;}
	.st51{font-family:'AntennaCond-Regular';}
	.st52{font-size:20px;}
	.st53{font-family:'AntennaExtraCond-Bold';}
	.st54{font-size:32.4075px;}
	.st55{display:inline;fill:#FFFFFF;}
	.st56{font-size:27px;}
	.st57{display:inline;fill:#871103;}
	.st58{font-family:'AntennaCond-LightItalic';}
	.st59{font-size:20.8708px;}
	.st60{opacity:0.27;fill:url(#SVGID_23_);}
	.st61{fill:url(#SVGID_24_);}
</style>
<pattern  x="-234.7" y="-22.5" width="72" height="72" patternUnits="userSpaceOnUse" id="Lignes_diagonales" viewBox="79.6 -148.6 72 72" style="overflow:visible;">
	<g>
		<rect x="79.6" y="-148.6" class="st0" width="72" height="72"/>
		<g>
			<line class="st1" x1="144.1" y1="-66.1" x2="162.1" y2="-84.1"/>
			<line class="st1" x1="144.1" y1="-60.1" x2="168.1" y2="-84.1"/>
			<line class="st1" x1="144.1" y1="-54.1" x2="174.1" y2="-84.1"/>
			<line class="st1" x1="144.1" y1="-48.1" x2="180.1" y2="-84.1"/>
			<line class="st1" x1="144.1" y1="-42.1" x2="186.1" y2="-84.1"/>
			<line class="st1" x1="144.1" y1="-36.1" x2="192.1" y2="-84.1"/>
			<line class="st1" x1="144.1" y1="-30.1" x2="198.1" y2="-84.1"/>
			<line class="st1" x1="144.1" y1="-24.1" x2="204.1" y2="-84.1"/>
			<line class="st1" x1="144.1" y1="-18.1" x2="210.1" y2="-84.1"/>
			<line class="st1" x1="144.1" y1="-12.1" x2="216.1" y2="-84.1"/>
			<line class="st1" x1="144.1" y1="-6.1" x2="222.1" y2="-84.1"/>
			<line class="st1" x1="144.1" y1="-0.1" x2="228.1" y2="-84.1"/>
			<line class="st1" x1="150.1" y1="-0.1" x2="228.1" y2="-78.1"/>
		</g>
		<g>
			<line class="st1" x1="72.1" y1="-66.1" x2="90.1" y2="-84.1"/>
			<line class="st1" x1="72.1" y1="-60.1" x2="96.1" y2="-84.1"/>
			<line class="st1" x1="72.1" y1="-54.1" x2="102.1" y2="-84.1"/>
			<line class="st1" x1="72.1" y1="-48.1" x2="108.1" y2="-84.1"/>
			<line class="st1" x1="72.1" y1="-42.1" x2="114.1" y2="-84.1"/>
			<line class="st1" x1="72.1" y1="-36.1" x2="120.1" y2="-84.1"/>
			<line class="st1" x1="72.1" y1="-30.1" x2="126.1" y2="-84.1"/>
			<line class="st1" x1="72.1" y1="-24.1" x2="132.1" y2="-84.1"/>
			<line class="st1" x1="72.1" y1="-18.1" x2="138.1" y2="-84.1"/>
			<line class="st1" x1="72.1" y1="-12.1" x2="144.1" y2="-84.1"/>
			<line class="st1" x1="72.1" y1="-6.1" x2="150.1" y2="-84.1"/>
			<line class="st1" x1="72.1" y1="-0.1" x2="156.1" y2="-84.1"/>
			<line class="st1" x1="78.1" y1="-0.1" x2="156.1" y2="-78.1"/>
		</g>
		<g>
			<line class="st1" x1="0.1" y1="-0.1" x2="84.1" y2="-84.1"/>
			<line class="st1" x1="6.1" y1="-0.1" x2="84.1" y2="-78.1"/>
		</g>
		<g>
			<line class="st1" x1="144.1" y1="-138.1" x2="162.1" y2="-156.1"/>
			<line class="st1" x1="144.1" y1="-132.1" x2="168.1" y2="-156.1"/>
			<line class="st1" x1="144.1" y1="-126.1" x2="174.1" y2="-156.1"/>
			<line class="st1" x1="144.1" y1="-120.1" x2="180.1" y2="-156.1"/>
			<line class="st1" x1="144.1" y1="-114.1" x2="186.1" y2="-156.1"/>
			<line class="st1" x1="144.1" y1="-108.1" x2="192.1" y2="-156.1"/>
			<line class="st1" x1="144.1" y1="-102.1" x2="198.1" y2="-156.1"/>
			<line class="st1" x1="144.1" y1="-96.1" x2="204.1" y2="-156.1"/>
			<line class="st1" x1="144.1" y1="-90.1" x2="210.1" y2="-156.1"/>
			<line class="st1" x1="144.1" y1="-84.1" x2="216.1" y2="-156.1"/>
			<line class="st1" x1="144.1" y1="-78.1" x2="222.1" y2="-156.1"/>
			<line class="st1" x1="144.1" y1="-72.1" x2="228.1" y2="-156.1"/>
			<line class="st1" x1="150.1" y1="-72.1" x2="228.1" y2="-150.1"/>
		</g>
		<g>
			<line class="st1" x1="72.1" y1="-138.1" x2="90.1" y2="-156.1"/>
			<line class="st1" x1="72.1" y1="-132.1" x2="96.1" y2="-156.1"/>
			<line class="st1" x1="72.1" y1="-126.1" x2="102.1" y2="-156.1"/>
			<line class="st1" x1="72.1" y1="-120.1" x2="108.1" y2="-156.1"/>
			<line class="st1" x1="72.1" y1="-114.1" x2="114.1" y2="-156.1"/>
			<line class="st1" x1="72.1" y1="-108.1" x2="120.1" y2="-156.1"/>
			<line class="st1" x1="72.1" y1="-102.1" x2="126.1" y2="-156.1"/>
			<line class="st1" x1="72.1" y1="-96.1" x2="132.1" y2="-156.1"/>
			<line class="st1" x1="72.1" y1="-90.1" x2="138.1" y2="-156.1"/>
			<line class="st1" x1="72.1" y1="-84.1" x2="144.1" y2="-156.1"/>
			<line class="st1" x1="72.1" y1="-78.1" x2="150.1" y2="-156.1"/>
			<line class="st1" x1="72.1" y1="-72.1" x2="156.1" y2="-156.1"/>
			<line class="st1" x1="78.1" y1="-72.1" x2="156.1" y2="-150.1"/>
			<line class="st1" x1="84.1" y1="-72.1" x2="156.1" y2="-144.1"/>
			<line class="st1" x1="90.1" y1="-72.1" x2="156.1" y2="-138.1"/>
			<line class="st1" x1="96.1" y1="-72.1" x2="156.1" y2="-132.1"/>
			<line class="st1" x1="102.1" y1="-72.1" x2="156.1" y2="-126.1"/>
			<line class="st1" x1="108.1" y1="-72.1" x2="156.1" y2="-120.1"/>
			<line class="st1" x1="114.1" y1="-72.1" x2="156.1" y2="-114.1"/>
			<line class="st1" x1="120.1" y1="-72.1" x2="156.1" y2="-108.1"/>
			<line class="st1" x1="126.1" y1="-72.1" x2="156.1" y2="-102.1"/>
			<line class="st1" x1="132.1" y1="-72.1" x2="156.1" y2="-96.1"/>
			<line class="st1" x1="138.1" y1="-72.1" x2="156.1" y2="-90.1"/>
			<line class="st1" x1="144.1" y1="-72.1" x2="156.1" y2="-84.1"/>
		</g>
		<g>
			<line class="st1" x1="0.1" y1="-72.1" x2="84.1" y2="-156.1"/>
			<line class="st1" x1="6.1" y1="-72.1" x2="84.1" y2="-150.1"/>
			<line class="st1" x1="12.1" y1="-72.1" x2="84.1" y2="-144.1"/>
			<line class="st1" x1="18.1" y1="-72.1" x2="84.1" y2="-138.1"/>
			<line class="st1" x1="24.1" y1="-72.1" x2="84.1" y2="-132.1"/>
			<line class="st1" x1="30.1" y1="-72.1" x2="84.1" y2="-126.1"/>
			<line class="st1" x1="36.1" y1="-72.1" x2="84.1" y2="-120.1"/>
			<line class="st1" x1="42.1" y1="-72.1" x2="84.1" y2="-114.1"/>
			<line class="st1" x1="48.1" y1="-72.1" x2="84.1" y2="-108.1"/>
			<line class="st1" x1="54.1" y1="-72.1" x2="84.1" y2="-102.1"/>
			<line class="st1" x1="60.1" y1="-72.1" x2="84.1" y2="-96.1"/>
			<line class="st1" x1="66.1" y1="-72.1" x2="84.1" y2="-90.1"/>
			<line class="st1" x1="72.1" y1="-72.1" x2="84.1" y2="-84.1"/>
		</g>
		<g>
			<line class="st1" x1="144.1" y1="-144.1" x2="228.1" y2="-228.1"/>
			<line class="st1" x1="150.1" y1="-144.1" x2="228.1" y2="-222.1"/>
		</g>
		<g>
			<line class="st1" x1="72.1" y1="-144.1" x2="156.1" y2="-228.1"/>
			<line class="st1" x1="78.1" y1="-144.1" x2="156.1" y2="-222.1"/>
			<line class="st1" x1="84.1" y1="-144.1" x2="156.1" y2="-216.1"/>
			<line class="st1" x1="90.1" y1="-144.1" x2="156.1" y2="-210.1"/>
			<line class="st1" x1="96.1" y1="-144.1" x2="156.1" y2="-204.1"/>
			<line class="st1" x1="102.1" y1="-144.1" x2="156.1" y2="-198.1"/>
			<line class="st1" x1="108.1" y1="-144.1" x2="156.1" y2="-192.1"/>
			<line class="st1" x1="114.1" y1="-144.1" x2="156.1" y2="-186.1"/>
			<line class="st1" x1="120.1" y1="-144.1" x2="156.1" y2="-180.1"/>
			<line class="st1" x1="126.1" y1="-144.1" x2="156.1" y2="-174.1"/>
			<line class="st1" x1="132.1" y1="-144.1" x2="156.1" y2="-168.1"/>
			<line class="st1" x1="138.1" y1="-144.1" x2="156.1" y2="-162.1"/>
			<line class="st1" x1="144.1" y1="-144.1" x2="156.1" y2="-156.1"/>
		</g>
		<g>
			<line class="st1" x1="0.1" y1="-144.1" x2="84.1" y2="-228.1"/>
			<line class="st1" x1="6.1" y1="-144.1" x2="84.1" y2="-222.1"/>
			<line class="st1" x1="12.1" y1="-144.1" x2="84.1" y2="-216.1"/>
			<line class="st1" x1="18.1" y1="-144.1" x2="84.1" y2="-210.1"/>
			<line class="st1" x1="24.1" y1="-144.1" x2="84.1" y2="-204.1"/>
			<line class="st1" x1="30.1" y1="-144.1" x2="84.1" y2="-198.1"/>
			<line class="st1" x1="36.1" y1="-144.1" x2="84.1" y2="-192.1"/>
			<line class="st1" x1="42.1" y1="-144.1" x2="84.1" y2="-186.1"/>
			<line class="st1" x1="48.1" y1="-144.1" x2="84.1" y2="-180.1"/>
			<line class="st1" x1="54.1" y1="-144.1" x2="84.1" y2="-174.1"/>
			<line class="st1" x1="60.1" y1="-144.1" x2="84.1" y2="-168.1"/>
			<line class="st1" x1="66.1" y1="-144.1" x2="84.1" y2="-162.1"/>
			<line class="st1" x1="72.1" y1="-144.1" x2="84.1" y2="-156.1"/>
		</g>
	</g>
</pattern>
<g id="SOURCE" class="st2">
</g>
<g id="A10_Source" class="st2">
	<g id="Flèche_6" class="st3">
	</g>
</g>
<g id="A10">
</g>
<g id="A62_Source" class="st2">
</g>
<g id="A62">
</g>
<g id="A63_Source" class="st2">
</g>
<g id="A63">
</g>
<g id="A64_Source" class="st2">
</g>
<g id="A64">
</g>
<g id="A89_Source" class="st2">
</g>
<g id="A89">
</g>
<g id="A65_Source" class="st2">
	<g class="st3">
		<polygon class="st7" points="17.1,13.6 17.1,404.7 49.7,404.7 89.6,355.8 125.9,306.9 147.7,258 158.6,209.2 169.5,160.3 
			185.3,111.5 221.3,63.5 253.3,13.5 		"/>
		<pattern  id="SVGID_1_" xlink:href="#Lignes_diagonales" patternTransform="matrix(0 -1.104 -0.92 0 -15029.5312 -16257.5391)">
		</pattern>
		<polygon class="st8" points="17.1,13.6 17.1,404.7 49.7,404.7 89.6,355.8 125.9,306.9 147.7,258 158.6,209.2 169.5,160.3 
			185.3,111.5 221.3,63.5 253.3,13.5 		"/>
	</g>
	
		<linearGradient id="SVGID_2_" gradientUnits="userSpaceOnUse" x1="17.0667" y1="200.4101" x2="252.3307" y2="200.4101" gradientTransform="matrix(1 0 0 -1 0 409.5)">
		<stop  offset="0" style="stop-color:#FFFFFF"/>
		<stop  offset="6.456017e-02" style="stop-color:#FFFFFF;stop-opacity:0.9354"/>
		<stop  offset="1" style="stop-color:#FFFFFF;stop-opacity:0"/>
	</linearGradient>
	<polygon class="st9" points="17.1,13.6 17.1,404.7 49.7,404.7 89.6,355.8 125.9,306.9 147.7,258 158.6,209.2 169.5,160.3 
		185.3,111.5 221.3,64.5 252.3,13.5 	"/>
	<g class="st3">
		<text transform="matrix(1 0 0 1 119.2773 390.6357)"><tspan x="0" y="0" class="st10 st49 st50">2011</tspan><tspan x="0" y="21" class="st11 st51 st52">22,90 €</tspan></text>
	</g>
	<g class="st3">
		<text transform="matrix(1 0 0 1 194.2773 262.6357)"><tspan x="0" y="0" class="st10 st49 st50">2014</tspan><tspan x="0" y="21" class="st11 st51 st52">25,60 €</tspan></text>
	</g>
	<g class="st3">
		<polygon class="st11" points="274.6,176.9 273.8,176.9 269.4,184.4 270.7,184.4 		"/>
		<polygon class="st11" points="263.9,193.7 248.2,220.7 251.9,220.7 265.9,193.7 		"/>
		<polygon class="st11" points="253.1,220.7 271.3,220.7 274.9,193.7 266.5,193.7 		"/>
		<polygon class="st11" points="277.4,195 277.4,195.5 277.4,205.1 277.4,209.9 277.4,220.7 278.3,220.7 278.3,209.9 278.3,205.1 
			278.3,195.5 278.3,195 278.3,193.7 277.4,193.7 		"/>
		<polygon class="st11" points="284.4,184.4 280.7,176.9 278.7,176.9 279.6,184.4 		"/>
		<rect x="277.4" y="176.9" class="st11" width="0.9" height="7.5"/>
		<polygon class="st11" points="280.8,193.7 284.4,220.7 300.6,220.7 302.5,220.7 289.1,193.7 		"/>
		<polygon class="st11" points="276.1,184.4 277,176.9 274.9,176.9 271.1,184.4 		"/>
		<polygon class="st11" points="291.6,193.7 289.7,193.7 303.7,220.7 307.4,220.7 		"/>
		<polygon class="st11" points="286.2,184.4 281.8,176.9 280.9,176.9 284.8,184.4 		"/>
		<polygon class="st11" points="289,192.4 290.8,192.4 295.2,192.4 295.6,193 296,193.7 297.8,196.9 299.7,196.9 299.7,193.7 
			299.7,193 299.7,192.5 299.7,192.4 302.4,192.4 302.4,185.7 287,185.7 285.5,185.7 285.1,185.7 279.8,185.7 278.3,185.7 
			278.3,185.7 277.4,185.7 277.4,185.7 275.8,185.7 270.4,185.7 270,185.7 268.6,185.7 253.5,185.7 253.5,192.4 256.2,192.4 
			256.2,192.5 256.2,193 256.2,193.7 256.2,196.9 258.1,196.9 259.9,193.7 260.3,193 260.7,192.4 264.7,192.4 266.5,192.4 
			267.1,192.4 275,192.4 277.4,192.4 278.3,192.4 280.7,192.4 288.4,192.4 		"/>
	</g>
	<text transform="matrix(1 0 0 1 254.9265 250.5996)" class="st18 st53 st54">A65</text>
	<polyline class="st12" points="51.1,402.9 102.4,354.3 122.9,305.7 138.3,257 138.3,208.4 143.4,159.8 171.6,111.1 220.3,62.5 	"/>
	<g class="st3">
		<g>
			<polyline class="st13" points="45.6,410 86.9,360.4 124.8,310.9 147.2,261.3 158.4,211.8 169.6,162.2 185.1,112.6 222.2,63.1 
				252.3,13.5 			"/>
		</g>
	</g>
	<line class="st14" x1="48" y1="406.5" x2="115" y2="406.5"/>
	<circle class="st15" cx="50" cy="406" r="7.5"/>
	<line class="st14" x1="148" y1="256.5" x2="189" y2="256.5"/>
	<circle class="st15" cx="147.5" cy="256.5" r="7.5"/>
	<g class="st3">
		<text transform="matrix(1 0 0 1 255.2773 54.6357)"><tspan x="0" y="0" class="st10 st49 st50">2019</tspan><tspan x="0" y="21" class="st11 st51 st52">28,30 €</tspan></text>
	</g>
	<g class="st3">
		<polyline class="st16" points="257,17.5 275,17.5 275,32.5 		"/>
		<circle class="st17" cx="251.5" cy="17.5" r="7.5"/>
	</g>
	<circle class="st18" cx="277.8" cy="124.5" r="41"/>
	<g class="st19">
		<polygon class="st20" points="263.2,104.2 270.4,104.2 270.4,113 285.1,113 285.1,104.5 292.3,104.5 277.9,89.5 		"/>
	</g>
	<text transform="matrix(0.8526 0 0 1 250.4042 141.7246)" class="st55 st53 st56">+24 %</text>
	<text transform="matrix(1 0 0 1 33.7944 210.9062)" class="st57 st58 st59">Inflation</text>
	<g class="st3">
		<g>
			<path class="st22" d="M82.4,193.1c4.9-28.7,31.6-48.3,60.3-44.5"/>
			<g>
				<polygon class="st21" points="138.7,151.3 142.1,148.6 139.4,145.2 142,145.5 144.6,148.9 141.3,151.6 				"/>
			</g>
		</g>
	</g>
</g>
<g id="A65">
	<g>
		<polygon class="st7" points="17.1,13.6 17.1,404.7 49.7,404.7 89.6,355.8 125.9,306.9 147.7,258 158.6,209.2 169.5,160.3 
			185.3,111.5 221.3,63.5 253.3,13.5 		"/>
		<pattern  id="SVGID_3_" xlink:href="#Lignes_diagonales" patternTransform="matrix(0 -1.104 -0.92 0 -15029.5312 -16257.5391)">
		</pattern>
		<polygon class="st23" points="17.1,13.6 17.1,404.7 49.7,404.7 89.6,355.8 125.9,306.9 147.7,258 158.6,209.2 169.5,160.3 
			185.3,111.5 221.3,63.5 253.3,13.5 		"/>
	</g>
	
		<linearGradient id="SVGID_4_" gradientUnits="userSpaceOnUse" x1="17.0667" y1="200.4101" x2="252.3307" y2="200.4101" gradientTransform="matrix(1 0 0 -1 0 409.5)">
		<stop  offset="0" style="stop-color:#FFFFFF"/>
		<stop  offset="6.456017e-02" style="stop-color:#FFFFFF;stop-opacity:0.9354"/>
		<stop  offset="1" style="stop-color:#FFFFFF;stop-opacity:0"/>
	</linearGradient>
	<polygon class="st24" points="17.1,13.6 17.1,404.7 49.7,404.7 89.6,355.8 125.9,306.9 147.7,258 158.6,209.2 169.5,160.3 
		185.3,111.5 221.3,64.5 252.3,13.5 	"/>
	<g>
		<g>
			<path class="st10" d="M119.8,389l3.1-3.6c2.2-2.6,2.4-3.3,2.4-4.6c0-1.2-0.5-1.8-1.9-1.8c-1,0-1.9,0.3-2.7,0.6l-0.9-1.7
				c1-0.5,2.1-0.8,3.9-0.8c2.6,0,3.6,1.1,3.6,3.4c0,2-0.5,2.9-3,5.9l-2,2.4h5.2v1.8h-7.7V389z"/>
			<path class="st10" d="M129.4,384c0-4.4,0.6-6.8,4.5-6.8c3.8,0,4.4,2.4,4.4,6.8c0,4.6-0.6,6.8-4.4,6.8
				C130.1,390.8,129.4,388.5,129.4,384z M136.3,384c0-3.5-0.5-4.9-2.4-4.9c-2,0-2.4,1.3-2.4,4.9c0,3.6,0.4,4.9,2.4,4.9
				C135.9,388.9,136.3,387.5,136.3,384z"/>
			<path class="st10" d="M141.7,379.1h-1.9v-1.9h3.9v13.3h-2V379.1z"/>
			<path class="st10" d="M147.5,379.1h-1.9v-1.9h3.9v13.3h-2V379.1z"/>
			<path class="st11" d="M120,410.1l3.3-4.1c2.6-3.2,2.9-4,2.9-5.5c0-1.5-0.5-2.1-2.2-2.1c-1.2,0-2.2,0.3-3,0.7l-0.8-1.6
				c1-0.5,2.2-0.9,4.1-0.9c2.8,0,3.8,1.2,3.8,3.7c0,2.2-0.6,3.2-3.4,6.8l-2.3,2.9h5.9v1.7H120V410.1z"/>
			<path class="st11" d="M129.6,410.1l3.3-4.1c2.6-3.2,2.9-4,2.9-5.5c0-1.5-0.5-2.1-2.2-2.1c-1.2,0-2.2,0.3-3,0.7l-0.8-1.6
				c1-0.5,2.2-0.9,4.1-0.9c2.8,0,3.8,1.2,3.8,3.7c0,2.2-0.6,3.2-3.4,6.8L132,410h5.9v1.7h-8.2V410.1z"/>
			<path class="st11" d="M139.8,413c0.9-0.5,1.1-0.7,1.1-1.4h-1v-2.5h2.3v2.4c0,1.3-0.2,1.8-1.8,2.5L139.8,413z"/>
			<path class="st11" d="M144.9,410h1.3c3.7,0,4.2-1.6,4.4-4.3c-0.6,0.8-1.7,1.2-3.4,1.2c-3.3,0-3.9-1.9-3.9-4.8
				c0-3.5,0.9-5.4,4.5-5.4c4.2,0,4.7,2.2,4.7,6.2c0,6-0.4,8.8-6.4,8.8h-1.2V410z M150.5,402.1c0-2.6-0.5-3.7-2.8-3.7
				c-2.1,0-2.6,1.2-2.6,3.6c0,2.1,0.5,3.2,2.5,3.2C149.3,405.3,150.5,404.4,150.5,402.1z"/>
			<path class="st11" d="M154.7,404.2c0-5.1,0.7-7.6,4.8-7.6c4,0,4.7,2.5,4.7,7.6c0,5.2-0.7,7.6-4.7,7.6
				C155.4,411.8,154.7,409.4,154.7,404.2z M162.3,404.2c0-4.2-0.6-5.8-2.8-5.8c-2.3,0-2.8,1.6-2.8,5.8c0,4.2,0.5,5.8,2.8,5.8
				C161.8,410.1,162.3,408.5,162.3,404.2z"/>
			<path class="st11" d="M169.5,401.9h1.9c0.3-3.6,1.5-5.2,4.6-5.2c1.4,0,2.5,0.3,3.4,0.8l-0.9,1.6c-0.7-0.4-1.4-0.6-2.5-0.6
				c-1.9,0-2.6,1.1-2.8,3.4h4.2v1.5h-4.2v1.4h4.2v1.6h-4.2c0.2,2.5,0.9,3.7,2.8,3.7c1.1,0,1.9-0.4,2.5-0.7l0.9,1.5
				c-0.9,0.5-2,0.9-3.5,0.9c-3.1,0-4.3-1.7-4.5-5.4h-1.9v-1.6h1.8v-1.4h-1.8V401.9z"/>
		</g>
	</g>
	<g>
		<g>
			<path class="st10" d="M194.8,261l3.1-3.6c2.2-2.6,2.4-3.3,2.4-4.6c0-1.2-0.5-1.8-1.9-1.8c-1,0-1.9,0.3-2.7,0.6l-0.9-1.7
				c1-0.5,2.1-0.8,3.9-0.8c2.6,0,3.6,1.1,3.6,3.4c0,2-0.5,2.9-3,5.9l-2,2.4h5.2v1.8h-7.7V261z"/>
			<path class="st10" d="M204.4,256c0-4.4,0.6-6.8,4.5-6.8c3.8,0,4.4,2.4,4.4,6.8c0,4.6-0.6,6.8-4.4,6.8
				C205.1,262.8,204.4,260.5,204.4,256z M211.3,256c0-3.5-0.5-4.9-2.4-4.9c-2,0-2.4,1.3-2.4,4.9c0,3.6,0.4,4.9,2.4,4.9
				C210.9,260.9,211.3,259.5,211.3,256z"/>
			<path class="st10" d="M216.7,251.1h-1.9v-1.9h3.9v13.3h-2V251.1z"/>
			<path class="st10" d="M220.6,258.2l4.7-8.9h2.1l-4.6,8.8h3.3l0.4-4h1.5v4h1.7v1.7H228v2.9h-1.9v-2.9h-5.4V258.2z"/>
			<path class="st11" d="M195,282.1l3.3-4.1c2.6-3.2,2.9-4,2.9-5.5c0-1.5-0.5-2.1-2.2-2.1c-1.2,0-2.2,0.3-3,0.7l-0.8-1.6
				c1-0.5,2.2-0.9,4.1-0.9c2.8,0,3.8,1.2,3.8,3.7c0,2.2-0.6,3.2-3.4,6.8l-2.3,2.9h5.9v1.7H195V282.1z"/>
			<path class="st11" d="M204.8,282.8l0.9-1.5c0.8,0.5,1.8,0.8,3.3,0.8c1.9,0,2.8-0.6,2.8-3.3c0-2.7-0.9-3.2-2.6-3.2
				c-1.1,0-1.9,0.3-2.4,0.8l-1.5-0.4l0.4-7.2h7.2v1.7h-5.6l-0.2,4c0.6-0.4,1.4-0.6,2.7-0.6c2.7,0,3.9,1,3.9,4.9c0,4.1-1.5,5-4.6,5
				C207.2,283.8,205.9,283.4,204.8,282.8z"/>
			<path class="st11" d="M215.4,285c0.9-0.5,1.1-0.7,1.1-1.4h-1v-2.5h2.3v2.4c0,1.3-0.2,1.8-1.8,2.5L215.4,285z"/>
			<path class="st11" d="M219.6,277.6c0-5.9,0.3-8.8,6.4-8.8h1.1v1.7h-1.2c-3.8,0-4.2,1.7-4.4,4.3c0.6-0.8,1.7-1.2,3.4-1.2
				c3.3,0,3.9,1.9,3.9,4.8c0,3.5-0.9,5.3-4.5,5.3C220.2,283.8,219.6,281.6,219.6,277.6z M227,278.5c0-2.2-0.5-3.3-2.5-3.3
				c-1.7,0-2.9,0.9-2.9,3.1c0,2.6,0.5,3.7,2.8,3.7C226.5,282.1,227,280.9,227,278.5z"/>
			<path class="st11" d="M230.8,276.2c0-5.1,0.7-7.6,4.8-7.6c4,0,4.7,2.5,4.7,7.6c0,5.2-0.7,7.6-4.7,7.6
				C231.6,283.8,230.8,281.4,230.8,276.2z M238.4,276.2c0-4.2-0.6-5.8-2.8-5.8c-2.3,0-2.8,1.6-2.8,5.8c0,4.2,0.5,5.8,2.8,5.8
				C237.9,282.1,238.4,280.5,238.4,276.2z"/>
			<path class="st11" d="M245.7,273.9h1.9c0.3-3.6,1.5-5.2,4.6-5.2c1.4,0,2.5,0.3,3.4,0.8l-0.9,1.6c-0.7-0.4-1.4-0.6-2.5-0.6
				c-1.9,0-2.6,1.1-2.8,3.4h4.2v1.5h-4.2v1.4h4.2v1.6h-4.2c0.2,2.5,0.9,3.7,2.8,3.7c1.1,0,1.9-0.4,2.5-0.7l0.9,1.5
				c-0.9,0.5-2,0.9-3.5,0.9c-3.1,0-4.3-1.7-4.5-5.4h-1.9v-1.6h1.8v-1.4h-1.8V273.9z"/>
		</g>
	</g>
	<g>
		<polygon class="st11" points="274.6,176.9 273.8,176.9 269.4,184.4 270.7,184.4 		"/>
		<polygon class="st11" points="263.9,193.7 248.2,220.7 251.9,220.7 265.9,193.7 		"/>
		<polygon class="st11" points="253.1,220.7 271.3,220.7 274.9,193.7 266.5,193.7 		"/>
		<polygon class="st11" points="277.4,195 277.4,195.5 277.4,205.1 277.4,209.9 277.4,220.7 278.3,220.7 278.3,209.9 278.3,205.1 
			278.3,195.5 278.3,195 278.3,193.7 277.4,193.7 		"/>
		<polygon class="st11" points="284.4,184.4 280.7,176.9 278.7,176.9 279.6,184.4 		"/>
		<rect x="277.4" y="176.9" class="st11" width="0.9" height="7.5"/>
		<polygon class="st11" points="280.8,193.7 284.4,220.7 300.6,220.7 302.5,220.7 289.1,193.7 		"/>
		<polygon class="st11" points="276.1,184.4 277,176.9 274.9,176.9 271.1,184.4 		"/>
		<polygon class="st11" points="291.6,193.7 289.7,193.7 303.7,220.7 307.4,220.7 		"/>
		<polygon class="st11" points="286.2,184.4 281.8,176.9 280.9,176.9 284.8,184.4 		"/>
		<polygon class="st11" points="289,192.4 290.8,192.4 295.2,192.4 295.6,193 296,193.7 297.8,196.9 299.7,196.9 299.7,193.7 
			299.7,193 299.7,192.5 299.7,192.4 302.4,192.4 302.4,185.7 287,185.7 285.5,185.7 285.1,185.7 279.8,185.7 278.3,185.7 
			278.3,185.7 277.4,185.7 277.4,185.7 275.8,185.7 270.4,185.7 270,185.7 268.6,185.7 253.5,185.7 253.5,192.4 256.2,192.4 
			256.2,192.5 256.2,193 256.2,193.7 256.2,196.9 258.1,196.9 259.9,193.7 260.3,193 260.7,192.4 264.7,192.4 266.5,192.4 
			267.1,192.4 275,192.4 277.4,192.4 278.3,192.4 280.7,192.4 288.4,192.4 		"/>
	</g>
	<g>
		<path class="st11" d="M260.5,226.5h5.2l5.5,24.1h-4.7l-0.7-3.6h-5.4l-0.7,3.6h-4.4L260.5,226.5z M264.8,242.9l-1.2-6.1l-0.6-3.1
			l-0.6,3.1l-1.2,6.1H264.8z"/>
		<path class="st11" d="M274.7,249.2c-1.9-1.8-2.1-4.9-2.1-9v-1.8c0-4.6,0.3-7.7,2.1-9.6c1.5-1.5,3.6-2.2,7.6-2.2h1.7v4.2h-1.7
			c-5.2,0-5.2,1.7-5.2,4.4c0.6-0.7,1.5-1.3,4-1.3c4.7,0,5,3.3,5,8c0,3.4-0.3,5.9-1.8,7.3c-1,0.9-2.6,1.5-4.8,1.5
			C277.2,250.8,275.7,250.2,274.7,249.2z M281.5,242.2c0-3.2-0.3-4.2-2-4.2c-1.5,0-2.3,0.6-2.3,4.1c0,3.7,0.2,4.8,2.3,4.8
			C281.3,246.9,281.5,245.7,281.5,242.2z"/>
		<path class="st11" d="M287.1,249.6l1.7-3.7c0.9,0.4,2.2,0.8,4.1,0.8c2.1,0,2.5-0.9,2.5-4.3c0-3.3-0.4-4-2.1-4
			c-1,0-1.6,0.3-2.1,0.6l-3.2-1l0.4-11.5h10.4v4.2h-6.5l-0.1,4.1c0.6-0.4,1.4-0.6,2.8-0.6c4.3,0,4.9,2.2,4.9,8.2
			c0,5.9-1,8.2-6.5,8.2C289.9,250.8,288.6,250.3,287.1,249.6z"/>
	</g>
	<polyline class="st25" points="51.1,402.9 102.4,354.3 122.9,305.7 138.3,257 138.3,208.4 143.4,159.8 171.6,111.1 220.3,62.5 	"/>
	<g>
		<g>
			<polyline class="st13" points="45.6,410 86.9,360.4 124.8,310.9 147.2,261.3 158.4,211.8 169.6,162.2 185.1,112.6 222.2,63.1 
				252.3,13.5 			"/>
		</g>
	</g>
	<line class="st16" x1="48" y1="406.5" x2="115" y2="406.5"/>
	<circle class="st17" cx="50" cy="406" r="7.5"/>
	<line class="st16" x1="148" y1="256.5" x2="189" y2="256.5"/>
	<circle class="st17" cx="147.5" cy="256.5" r="7.5"/>
	<g>
		<g>
			<path class="st10" d="M255.8,53l3.1-3.6c2.2-2.6,2.4-3.3,2.4-4.6c0-1.2-0.5-1.8-1.9-1.8c-1,0-1.9,0.3-2.7,0.6l-0.9-1.7
				c1-0.5,2.1-0.8,3.9-0.8c2.6,0,3.6,1.1,3.6,3.4c0,2-0.5,2.9-3,5.9l-2,2.4h5.2v1.8h-7.7V53z"/>
			<path class="st10" d="M265.4,48c0-4.4,0.6-6.8,4.5-6.8c3.8,0,4.4,2.4,4.4,6.8c0,4.6-0.6,6.8-4.4,6.8
				C266.1,54.8,265.4,52.5,265.4,48z M272.3,48c0-3.5-0.5-4.9-2.4-4.9c-2,0-2.4,1.3-2.4,4.9c0,3.6,0.4,4.9,2.4,4.9
				C271.9,52.9,272.3,51.5,272.3,48z"/>
			<path class="st10" d="M277.7,43.1h-1.9v-1.9h3.9v13.3h-2V43.1z"/>
			<path class="st10" d="M283.5,52.9h1.3c3.1,0,3.6-1.3,3.7-3.5c-0.5,0.7-1.5,1-3,1c-3,0-3.6-1.8-3.6-4.4c0-3.2,0.9-4.8,4.2-4.8
				c4,0,4.5,2.1,4.5,5.7c0,5.3-0.4,7.8-5.9,7.8h-1.2V52.9z M288.5,46c0-2.1-0.4-3.1-2.4-3.1c-1.7,0-2.2,1-2.2,3
				c0,1.8,0.5,2.7,2.1,2.7C287.5,48.7,288.5,48,288.5,46z"/>
			<path class="st11" d="M256,74.1l3.3-4.1c2.6-3.2,2.9-4,2.9-5.5c0-1.5-0.5-2.1-2.2-2.1c-1.2,0-2.2,0.3-3,0.7l-0.8-1.6
				c1-0.5,2.2-0.9,4.1-0.9c2.8,0,3.8,1.2,3.8,3.7c0,2.2-0.6,3.2-3.4,6.8l-2.3,2.9h5.9v1.7H256V74.1z"/>
			<path class="st11" d="M266.1,71.4c0-1.8,0.2-3.4,2-3.9c-1.4-0.6-1.6-1.8-1.6-3.2c0-1.9,0.7-3.6,4.2-3.6c3.5,0,4.2,1.7,4.2,3.6
				c0,1.4-0.2,2.7-1.6,3.2c1.9,0.6,2,2.1,2,3.9c0,2.3-0.6,4.4-4.6,4.4C266.7,75.8,266.1,73.7,266.1,71.4z M273.5,71.2
				c0-1.7-0.4-2.8-2.7-2.8c-2.3,0-2.7,1.1-2.7,2.8c0,1.7,0.4,2.9,2.7,2.9C273.1,74.2,273.5,72.9,273.5,71.2z M273.2,64.5
				c0-1.4-0.5-2.2-2.4-2.2c-1.9,0-2.4,0.9-2.4,2.2c0,1.4,0.5,2.3,2.4,2.3C272.7,66.8,273.2,65.9,273.2,64.5z"/>
			<path class="st11" d="M277.2,77c0.9-0.5,1.1-0.7,1.1-1.4h-1v-2.5h2.3v2.4c0,1.3-0.2,1.8-1.8,2.5L277.2,77z"/>
			<path class="st11" d="M281.1,74.9l0.9-1.5c0.9,0.5,1.7,0.8,2.9,0.8c2,0,2.7-0.7,2.7-2.9c0-1.6-0.3-2.6-2.8-2.6H283v-1.7h1.9
				c1.9,0,2.3-0.9,2.3-2.2c0-1.8-0.7-2.2-2.3-2.2c-1,0-2,0.3-2.8,0.7l-0.8-1.5c1-0.6,2.3-0.9,3.9-0.9c2.5,0,3.9,0.7,3.9,3.6
				c0,2-0.5,2.9-1.6,3.3c1.5,0.4,1.9,1.4,1.9,3.8c0,3.3-1.4,4.4-4.4,4.4C283.2,75.8,282.2,75.5,281.1,74.9z"/>
			<path class="st11" d="M291.5,68.2c0-5.1,0.7-7.6,4.8-7.6c4,0,4.7,2.5,4.7,7.6c0,5.2-0.7,7.6-4.7,7.6
				C292.2,75.8,291.5,73.4,291.5,68.2z M299.1,68.2c0-4.2-0.6-5.8-2.8-5.8c-2.3,0-2.8,1.6-2.8,5.8c0,4.2,0.5,5.8,2.8,5.8
				C298.6,74.1,299.1,72.5,299.1,68.2z"/>
			<path class="st11" d="M306.3,65.9h1.9c0.3-3.6,1.5-5.2,4.6-5.2c1.4,0,2.5,0.3,3.4,0.8l-0.9,1.6c-0.7-0.4-1.4-0.6-2.5-0.6
				c-1.9,0-2.6,1.1-2.8,3.4h4.2v1.5H310v1.4h4.2v1.6h-4.2c0.2,2.5,0.9,3.7,2.8,3.7c1.1,0,1.9-0.4,2.5-0.7l0.9,1.5
				c-0.9,0.5-2,0.9-3.5,0.9c-3.1,0-4.3-1.7-4.5-5.4h-1.9v-1.6h1.8v-1.4h-1.8V65.9z"/>
		</g>
	</g>
	<g>
		<polyline class="st16" points="257,17.5 275,17.5 275,32.5 		"/>
		<circle class="st17" cx="251.5" cy="17.5" r="7.5"/>
	</g>
	<circle class="st11" cx="277.8" cy="124.5" r="41"/>
	<g class="st26">
		<polygon class="st20" points="263.2,104.2 270.4,104.2 270.4,113 285.1,113 285.1,104.5 292.3,104.5 277.9,89.5 		"/>
	</g>
	<g>
		<path class="st20" d="M255,133.6h-2.8v-3.5h2.8v-4.5h3.1v4.5h2.8v3.5h-2.8v4.5H255V133.6z"/>
		<path class="st20" d="M262.3,138.6l4.6-9.7c0.3-0.8,0.6-1.5,0.6-2.3c0-0.9-0.4-1.7-1.5-1.7c-1,0-1.8,0.3-2.6,0.7l-1.2-3.2
			c1-0.5,2.3-0.9,4.1-0.9c3.3,0,4.4,1.5,4.4,4.4c0,1.9-0.5,3.2-1.2,4.6l-3.7,7.9h4.8v3.3h-8.3V138.6z"/>
		<path class="st20" d="M271.4,134.8l4.4-13h3.2l-4.4,12.8h2.2l0.6-4.9h2.3v4.9h1.6v3.3h-1.6v3.9h-2.9v-3.9h-5.4V134.8z"/>
		<path class="st20" d="M286.3,133.5c-1-1.1-1.1-3-1.1-5.5c0-2.3,0.1-4.2,1-5.3c0.6-0.7,1.5-1.2,2.8-1.2c1.3,0,2.2,0.5,2.8,1.2
			c0.9,1.1,1,3,1,5.3c0,2.5-0.1,4.4-1.1,5.5c-0.6,0.6-1.5,1.1-2.7,1.1S286.9,134.1,286.3,133.5z M290,128.1c0-2.8-0.1-3.6-1-3.6
			c-1,0-1,0.8-1,3.6s0,3.6,1,3.6C289.9,131.7,290,130.8,290,128.1z M296.4,121.7h2.7l-6.1,20h-2.7L296.4,121.7z M297.7,140.9
			c-1-1.1-1.1-3-1.1-5.5c0-2.3,0.1-4.2,1-5.3c0.6-0.7,1.5-1.2,2.8-1.2c1.3,0,2.2,0.5,2.8,1.2c0.9,1.1,1,3,1,5.3
			c0,2.5-0.1,4.4-1.2,5.5c-0.6,0.6-1.5,1.1-2.6,1.1S298.3,141.5,297.7,140.9z M301.4,135.4c0-2.8,0-3.6-1-3.6c-1,0-1,0.8-1,3.6
			s0,3.6,1,3.6C301.3,139.1,301.4,138.2,301.4,135.4z"/>
	</g>
	<g>
		<path class="st21" d="M36.9,195.4h1.6l-2.7,15.5h-1.6L36.9,195.4z"/>
		<path class="st21" d="M40.5,199.5l1.2-0.1l-0.1,1c0.6-0.7,1.6-1.2,3.2-1.2c3.4,0,3.2,2.1,2.8,4.4l-1.3,7.3h-1.5l1.3-7.1
			c0.4-2,0.4-3.1-1.9-3.1c-2,0-2.7,1.4-3.1,4.1l-1.1,6.1h-1.5L40.5,199.5z"/>
		<path class="st21" d="M50,199.4h1.7l0.3-1.8c0.3-1.9,1.1-2.8,3.4-2.8h1l-0.2,1.4h-0.8c-1.4,0-1.6,0.8-1.9,1.8l-0.3,1.4h2.4
			l-0.3,1.3H53l-2.4,13.5h-1.5l2.4-13.5h-1.8L50,199.4z M55.6,208.2l2.4-13.3h1.5l-2.4,13.4c-0.2,1-0.2,1.3,1.2,1.3l-0.2,1.4
			c-0.1,0-0.2,0-0.5,0C55.5,210.9,55.2,210.1,55.6,208.2z"/>
		<path class="st21" d="M59.7,208.3c0-3.9,2-5,5.5-5h1.5c0.3-1.5,0.3-2.7-1.9-2.7c-0.9,0-1.8,0.1-2.5,0.4l-0.5-1.3
			c0.9-0.4,2.1-0.6,3.2-0.6c3.4,0,3.6,1.6,3.1,4.4l-0.8,4.7c-0.2,0.9-0.2,1.2,0.7,1.2l-0.2,1.4c-0.2,0-0.3,0-0.5,0
			c-1.1,0-1.4-0.4-1.4-1.1c-0.7,0.8-1.9,1.2-3.1,1.2C60.7,211,59.7,210.1,59.7,208.3z M66.1,206.9l0.4-2.4h-1.2
			c-2.8,0-4.1,0.6-4.1,3.4c0,1.3,0.7,1.8,2,1.8C64.3,209.7,65.7,209.2,66.1,206.9z"/>
		<path class="st21" d="M71,199.4h1.8l0.8-3.2l1.3-0.3l-0.6,3.5h2.7l-0.3,1.3H74l-1.2,7.1c-0.2,1.1-0.1,1.7,1.2,1.7h1.2l-0.2,1.4
			c-0.2,0-1.1,0-1.3,0c-2.4,0-2.7-1.1-2.3-3.1l1.2-7.1h-1.8L71,199.4z"/>
		<path class="st21" d="M79.1,199.4h1.5l-2,11.5H77L79.1,199.4z M79.7,195.7h1.5l-0.4,2.2h-1.5L79.7,195.7z"/>
		<path class="st21" d="M81.4,207.1c0-0.7,0.1-1.5,0.3-2.4c0.6-3.3,1.8-5.6,5.1-5.6c2.9,0,3.8,1.6,3.8,3.8c0,0.8-0.1,1.6-0.2,2.5
			c-0.6,3.4-1.7,5.6-5,5.6C82.3,211.1,81.4,209.4,81.4,207.1z M88.8,205.4c0.1-0.8,0.3-1.6,0.3-2.2c0-1.5-0.5-2.5-2.4-2.5
			c-2.4,0-3,1.9-3.4,4.3c-0.1,0.8-0.2,1.5-0.2,2.2c0,1.5,0.5,2.6,2.4,2.6C87.7,209.7,88.3,207.9,88.8,205.4z"/>
		<path class="st21" d="M93.3,199.5l1.2-0.1l-0.1,1c0.6-0.7,1.6-1.2,3.2-1.2c3.4,0,3.2,2.1,2.8,4.4l-1.3,7.3h-1.5l1.3-7.1
			c0.4-2,0.4-3.1-1.9-3.1c-2,0-2.7,1.4-3.1,4.1l-1.1,6.1h-1.5L93.3,199.5z"/>
	</g>
	<g>
		<g>
			<path class="st22" d="M82.4,193.1c4.9-28.7,31.6-48.3,60.3-44.5"/>
			<g>
				<polygon class="st21" points="138.7,151.3 142.1,148.6 139.4,145.2 142,145.5 144.6,148.9 141.3,151.6 				"/>
			</g>
		</g>
	</g>
</g>
</svg>
