<?xml version="1.0" encoding="utf-8"?>
<!-- Generator: Adobe Illustrator 21.1.0, SVG Export Plug-In . SVG Version: 6.00 Build 0)  -->
<svg version="1.1" xmlns="http://www.w3.org/2000/svg" xmlns:xlink="http://www.w3.org/1999/xlink" x="0px" y="0px"
	 viewBox="0 0 320 544" style="enable-background:new 0 0 320 544;" xml:space="preserve">
<style type="text/css">
	.st0{fill:none;stroke:#E6E6E6;stroke-width:7;stroke-miterlimit:10;}
	.st1{fill:#E6E6E6;}
	.st2{fill:none;stroke:#FEABA6;stroke-width:9.8873;stroke-miterlimit:10;}
	.st3{fill:none;stroke:#70C25C;stroke-width:9.8873;stroke-miterlimit:10;}
	.st4{fill:none;stroke:#C5C6C8;stroke-width:7;stroke-miterlimit:10;}
	.st5{fill:none;stroke:#D42E1A;stroke-width:9.8873;stroke-miterlimit:10;}
	.st6{enable-background:new    ;}
	.st7{fill:#808080;}
	.st8{fill:#FFFFFF;stroke:#000000;stroke-width:0.5;stroke-miterlimit:10;}
	.st9{fill:none;stroke:#000000;stroke-miterlimit:10;}
	.st10{fill:#D42E1A;}
	.st11{fill:#70C25C;}
	.st12{fill:#4D4D4D;}
	.st13{fill:none;stroke:#808080;stroke-width:0.75;stroke-miterlimit:10;}
	.st14{fill:none;stroke:#000000;stroke-width:4;stroke-miterlimit:10;}
	.st15{display:none;}
	.st16{display:inline;fill:none;stroke:#E6E6E6;stroke-width:7;stroke-miterlimit:10;}
	.st17{display:inline;fill:#E6E6E6;}
	.st18{display:inline;fill:none;stroke:#FEABA6;stroke-width:9.8873;stroke-miterlimit:10;}
	.st19{display:inline;fill:none;stroke:#70C25C;stroke-width:9.8873;stroke-miterlimit:10;}
	.st20{display:inline;fill:none;stroke:#C5C6C8;stroke-width:7;stroke-miterlimit:10;}
	.st21{display:inline;fill:none;stroke:#D42E1A;stroke-width:9.8873;stroke-miterlimit:10;}
	.st22{display:inline;}
	.st23{display:inline;enable-background:new    ;}
	.st24{display:inline;fill:none;stroke:#808080;stroke-width:0.75;stroke-miterlimit:10;}
	.st25{display:inline;fill:none;stroke:#000000;stroke-width:4;stroke-miterlimit:10;}
	.st26{fill:#B0B2B3;}
	.st27{fill:none;stroke:#4A170D;stroke-width:9.8873;stroke-miterlimit:10;}
	.st28{fill:none;stroke:#FFFFFF;stroke-width:3.5406;stroke-miterlimit:10;}
	.st29{fill:none;stroke:#C5C6C8;stroke-width:16.301;stroke-miterlimit:10;}
	.st30{display:inline;fill:none;stroke:#C5C6C8;stroke-width:16.301;stroke-miterlimit:10;}
	.st31{fill:none;stroke:#C5C6C8;stroke-width:13.3148;stroke-miterlimit:10;}
	.st32{fill:none;stroke:#C6C6C6;stroke-width:7;stroke-miterlimit:10;}
	.st33{fill:none;stroke:#FFFFFF;stroke-width:3.3287;stroke-miterlimit:10;}
	.st34{display:inline;fill:none;stroke:#C5C6C8;stroke-width:13.3148;stroke-miterlimit:10;}
	.st35{display:inline;fill:none;stroke:#C6C6C6;stroke-width:7;stroke-miterlimit:10;}
	.st36{display:inline;fill:none;stroke:#FFFFFF;stroke-width:3.3287;stroke-miterlimit:10;}
	.st37{fill:none;stroke:#FFFFFF;stroke-width:2.4718;stroke-miterlimit:10;}
	.st38{display:inline;fill:#808080;}
	.st39{font-family:'AntennaCond-Medium';}
	.st40{font-size:18px;}
	.st41{display:inline;fill:#D42E1A;}
	.st42{font-family:'AntennaCond-Regular';}
	.st43{font-size:20px;}
	.st44{font-size:27px;}
	.st45{font-size:19px;}
	.st46{font-family:'AntennaCond-Light';}
	.st47{font-family:'Webdings';}
	.st48{font-size:14px;}
	.st49{font-family:'AntennaCond-LightItalic';}
</style>
<g id="A63_Source">
</g>
<g id="A63" class="st15">
</g>
<g id="A20">
</g>
<g id="A837">
</g>
<g id="A10">
</g>
<g id="A89">
</g>
<g id="A65_Source">
</g>
<g id="A65" class="st15">
</g>
<g id="A64_Source">
</g>
<g id="A64" class="st15">
</g>
<g id="A62_Source" class="st15">
	<g id="GraphProd" class="st22">
		<g id="Flèche_6">
			<line class="st0" x1="197.3" y1="384.6" x2="245.6" y2="384.2"/>
			<line class="st0" x1="200.5" y1="447.2" x2="177.5" y2="447.2"/>
			<line class="st0" x1="154.7" y1="485.1" x2="154.7" y2="465.4"/>
			<line class="st0" x1="140.2" y1="450.9" x2="107.2" y2="451"/>
			<line class="st0" x1="134.7" y1="155.4" x2="100.7" y2="189.4"/>
			<line class="st0" x1="145.7" y1="56.3" x2="165.9" y2="76.5"/>
			<polyline class="st5" points="135,79.2 134.7,155.4 150,170.7 149.4,303 197.3,351 197.3,403.6 169.3,431.5 			"/>
			<line class="st4" x1="135.1" y1="61.2" x2="135" y2="79.2"/>
			<polyline class="st0" points="145.7,46.7 74.5,46.7 37.5,83.7 			"/>
			<polyline class="st0" points="200.3,13.9 167.5,46.7 145.7,46.7 			"/>
			<path class="st0" d="M155,465.7c-2.6,0.7-6.2,0.5-9.8-3.2c-7.3-7.3-2.3-15.4-2.3-15.4l11.7-11.7"/>
			<path class="st0" d="M154.5,435.4l2.4-2.4c0,0,7.3-4.7,14.7,2.6c7.3,7.3,1.7,13.8,1.7,13.8l-14.1,14.1c0,0-1.7,1.6-4.2,2.2"/>
			<polyline class="st37" points="135,79.2 134.7,155.4 150,170.7 149.4,303 197.3,351 197.3,403.6 171.7,429.2 			"/>
			<g>
				<g>
					
						<ellipse transform="matrix(0.7071 -0.7071 0.7071 0.7071 -191.4274 260.7187)" class="st1" cx="219" cy="361.4" rx="7.5" ry="7.5"/>
				</g>
			</g>
			<g>
				<g>
					
						<ellipse transform="matrix(0.7071 -0.7071 0.7071 0.7071 -271.0407 242.6427)" class="st8" cx="157.4" cy="448.5" rx="9.1" ry="9.1"/>
				</g>
			</g>
			<g>
				<g>
					
						<ellipse transform="matrix(0.7071 -0.7071 0.7071 0.7071 2.5313 113.0055)" class="st8" cx="137.7" cy="53.4" rx="9.1" ry="9.1"/>
				</g>
			</g>
		</g>
	</g>
	<line class="st21" x1="186.8" y1="414" x2="169.3" y2="431.5"/>
	<polyline class="st21" points="197.3,399.3 197.3,403.6 186.8,414 	"/>
	<line class="st21" x1="197.3" y1="385.3" x2="197.3" y2="399.3"/>
	<polyline class="st18" points="176.5,330.2 197.3,351 197.3,385.3 	"/>
	<polyline class="st19" points="149.5,274 149.4,303 176.5,330.2 	"/>
	<line class="st19" x1="149.7" y1="238" x2="149.5" y2="274"/>
	<line class="st18" x1="149.8" y1="208.6" x2="149.7" y2="238"/>
	<polyline class="st18" points="147.3,168 150,170.7 149.8,208.6 	"/>
	<polyline class="st18" points="134.7,148 134.7,155.4 147.3,168 	"/>
	<line class="st18" x1="134.9" y1="110.6" x2="134.7" y2="148"/>
	<line class="st21" x1="135" y1="79.2" x2="134.9" y2="110.6"/>
	<g>
		<text transform="matrix(1 0 0 1 213.608 82.4502)" class="st38 st39 st40">Saint-Selve</text>
		<text transform="matrix(1 0 0 1 213.608 103.4502)" class="st41 st42 st43">Péage</text>
	</g>
	<g class="st22">
		<text transform="matrix(1 0 0 1 20.4773 238.7803)" class="st6"><tspan x="0" y="0" class="st7 st39 st40">Aiguillon</tspan><tspan x="39" y="18" class="st10 st42 st40">n°6</tspan></text>
	</g>
	<g class="st22">
		<g>
			<line class="st9" x1="148.3" y1="238.8" x2="90.3" y2="238.8"/>
			<g>
				<polygon points="146.4,237.1 148.1,238.8 146.4,240.5 147.8,240.5 149.5,238.8 147.8,237.1 				"/>
			</g>
		</g>
	</g>
	<g class="st22">
		<text transform="matrix(1 0 0 1 8.8313 83.7803)" class="st6"><tspan x="0" y="0" class="st7 st39 st40">Saint-Selve</tspan><tspan x="41.6" y="18" class="st10 st42 st40">Péage</tspan></text>
	</g>
	<g class="st22">
		<g>
			<line class="st9" x1="134.3" y1="80.8" x2="99.3" y2="80.8"/>
			<g>
				<polygon points="132.4,79.1 134.1,80.8 132.4,82.5 133.8,82.5 135.5,80.8 133.8,79.1 				"/>
			</g>
		</g>
	</g>
	<g class="st22">
		<text transform="matrix(1 0 0 1 82.2433 372.292)" class="st6"><tspan x="0" y="0" class="st7 st39 st40">Montauban</tspan><tspan x="53.3" y="18" class="st10 st42 st40">n°10</tspan></text>
	</g>
	<g class="st22">
		<g>
			<line class="st9" x1="197.3" y1="385.8" x2="172.3" y2="385.8"/>
			<g>
				<polygon points="195.4,384.1 197.1,385.8 195.4,387.5 196.8,387.5 198.5,385.8 196.8,384.1 				"/>
			</g>
		</g>
	</g>
	<g class="st22">
		<g>
			<line class="st9" x1="173.3" y1="426.8" x2="110.3" y2="426.8"/>
			<g>
				<polygon points="171.4,425.1 173.1,426.8 171.4,428.5 172.8,428.5 174.5,426.8 172.8,425.1 				"/>
			</g>
		</g>
	</g>
	<g class="st22">
		<text transform="matrix(1 0 0 1 214.608 111.1235)" class="st6"><tspan x="0" y="0" class="st7 st39 st40">Podensac</tspan><tspan x="0" y="18" class="st10 st42 st40">n°2 </tspan></text>
	</g>
	<g class="st22">
		<g>
			<line class="st9" x1="135.3" y1="111.3" x2="211.3" y2="111.3"/>
			<g>
				<polygon points="137.3,113 135.6,111.3 137.3,109.6 135.8,109.6 134.1,111.3 135.8,113 				"/>
			</g>
		</g>
	</g>
	<g class="st22">
		<text transform="matrix(1 0 0 1 212.608 313.4497)" class="st6"><tspan x="0" y="0" class="st7 st39 st40">Castelsarrasin</tspan><tspan x="0" y="18" class="st10 st42 st40">n°9</tspan></text>
	</g>
	<g class="st22">
		<g>
			<line class="st9" x1="175.3" y1="330.8" x2="210.3" y2="330.8"/>
			<g>
				<polygon points="177.3,332.5 175.6,330.8 177.3,329.1 175.8,329.1 174.1,330.8 175.8,332.5 				"/>
			</g>
		</g>
	</g>
	<g class="st22">
		<g>
			<text transform="matrix(1 0 0 1 26.3508 428.7804)" class="st6"><tspan x="0" y="0" class="st7 st39 st40">Toulouse</tspan><tspan x="23.4" y="18" class="st10 st42 st40">Péage</tspan></text>
		</g>
	</g>
	<g class="st22">
		<g>
			<text transform="matrix(1 0 0 1 47.5729 31.5)" class="st7 st42 st44">BORDEAUX</text>
		</g>
	</g>
	<g class="st22">
		<text transform="matrix(1 0 0 1 206.5289 349.9819)" class="st1 st42 st45">MONTAUBAN</text>
	</g>
	<g class="st22">
		<g>
			<text transform="matrix(1 0 0 1 26.0065 503.9368)" class="st7 st42 st44">TOULOUSE</text>
		</g>
	</g>
	<g class="st22">
		<text transform="matrix(1 0 0 1 250.0377 389.729)" class="st1 st46 st45">A20</text>
	</g>
	<g class="st22">
		<text transform="matrix(1 0 0 1 108.0866 200.8386)" class="st1 st46 st45">A65</text>
	</g>
	<g class="st22">
		<text transform="matrix(1 0 0 1 22.2868 58.4392)" class="st1 st46 st45">A63</text>
	</g>
	<g class="st22">
		<text transform="matrix(1 0 0 1 166.4756 83.7146)" class="st1 st46 st45">A89</text>
	</g>
	<g class="st22">
		<text transform="matrix(1 0 0 1 197.3 41.7144)" class="st1 st46 st45">A10</text>
	</g>
	<g class="st22">
		<text transform="matrix(1 0 0 1 163.9313 487.1243)" class="st1 st46 st45">A61</text>
	</g>
	<g class="st22">
		<text transform="matrix(1 0 0 1 203.3444 455.241)" class="st1 st46 st45">A68</text>
	</g>
	<g class="st22">
		<g>
			<text transform="matrix(1 0 0 1 9.9225 533.976)" class="st6"><tspan x="0" y="0" class="st11 st47 st48"></tspan><tspan x="14" y="1" class="st7 st49 st48"> </tspan><tspan x="16.6" y="1" class="st12 st49 st48">Sections les moins chères   </tspan><tspan x="159.4" y="0" class="st10 st47 st48"></tspan><tspan x="173.4" y="1" class="st7 st49 st48"> </tspan><tspan x="176" y="1" class="st12 st49 st48">Sections les plus chères</tspan></text>
		</g>
	</g>
	<line class="st24" x1="6" y1="519.8" x2="312.1" y2="519.8"/>
	<line class="st24" x1="312.1" y1="540.3" x2="6" y2="540.3"/>
</g>
<g id="A62">
	<g id="GraphProd_1_">
		<g id="Flèche_6_1_">
			<line class="st0" x1="197.3" y1="384.6" x2="245.6" y2="384.2"/>
			<line class="st0" x1="200.5" y1="447.2" x2="177.5" y2="447.2"/>
			<line class="st0" x1="154.7" y1="485.1" x2="154.7" y2="465.4"/>
			<line class="st0" x1="140.2" y1="450.9" x2="107.2" y2="451"/>
			<line class="st0" x1="134.7" y1="155.4" x2="100.7" y2="189.4"/>
			<line class="st0" x1="145.7" y1="56.3" x2="165.9" y2="76.5"/>
			<polyline class="st5" points="135,79.2 134.7,155.4 150,170.7 149.4,303 197.3,351 197.3,403.6 169.3,431.5 			"/>
			<line class="st4" x1="135.1" y1="61.2" x2="135" y2="79.2"/>
			<polyline class="st0" points="145.7,46.7 74.5,46.7 37.5,83.7 			"/>
			<polyline class="st0" points="200.3,13.9 167.5,46.7 145.7,46.7 			"/>
			<path class="st0" d="M155,465.7c-2.6,0.7-6.2,0.5-9.8-3.2c-7.3-7.3-2.3-15.4-2.3-15.4l11.7-11.7"/>
			<path class="st0" d="M154.5,435.4l2.4-2.4c0,0,7.3-4.7,14.7,2.6c7.3,7.3,1.7,13.8,1.7,13.8l-14.1,14.1c0,0-1.7,1.6-4.2,2.2"/>
			<polyline class="st37" points="135,79.2 134.7,155.4 150,170.7 149.4,303 197.3,351 197.3,403.6 171.7,429.2 			"/>
			<g>
				<g>
					
						<ellipse transform="matrix(0.7071 -0.7071 0.7071 0.7071 -191.4274 260.7187)" class="st1" cx="219" cy="361.4" rx="7.5" ry="7.5"/>
				</g>
			</g>
			<g>
				<g>
					
						<ellipse transform="matrix(0.7071 -0.7071 0.7071 0.7071 -271.0407 242.6427)" class="st8" cx="157.4" cy="448.5" rx="9.1" ry="9.1"/>
				</g>
			</g>
			<g>
				<g>
					
						<ellipse transform="matrix(0.7071 -0.7071 0.7071 0.7071 2.5313 113.0055)" class="st8" cx="137.7" cy="53.4" rx="9.1" ry="9.1"/>
				</g>
			</g>
		</g>
	</g>
	<line class="st5" x1="186.8" y1="414" x2="169.3" y2="431.5"/>
	<polyline class="st5" points="197.3,399.3 197.3,403.6 186.8,414 	"/>
	<line class="st5" x1="197.3" y1="385.3" x2="197.3" y2="399.3"/>
	<polyline class="st2" points="176.5,330.2 197.3,351 197.3,385.3 	"/>
	<polyline class="st3" points="149.5,274 149.4,303 176.5,330.2 	"/>
	<line class="st3" x1="149.7" y1="238" x2="149.5" y2="274"/>
	<line class="st2" x1="149.8" y1="208.6" x2="149.7" y2="238"/>
	<polyline class="st2" points="147.3,168 150,170.7 149.8,208.6 	"/>
	<polyline class="st2" points="134.7,148 134.7,155.4 147.3,168 	"/>
	<line class="st2" x1="134.9" y1="110.6" x2="134.7" y2="148"/>
	<line class="st5" x1="135" y1="79.2" x2="134.9" y2="110.6"/>
	<g class="st15">
		<text transform="matrix(1 0 0 1 213.608 82.4502)" class="st38 st39 st40">Saint-Selve</text>
		<text transform="matrix(1 0 0 1 213.608 103.4502)" class="st41 st42 st43">Péage</text>
	</g>
	<g>
		<g class="st6">
			<path class="st7" d="M25.5,225.3h2.2l4.1,13.4h-2.1l-0.8-2.5h-4.8l-0.7,2.5h-2.1L25.5,225.3z M28.4,234.4l-1.8-6.1l-1.9,6.1H28.4
				z"/>
			<path class="st7" d="M33.2,225.4h2v2.2h-2V225.4z M33.2,228.7h2v10.1h-2V228.7z"/>
			<path class="st7" d="M39.5,235.1c-0.1,0.1-0.1,0.3-0.1,0.5c0,0.5,0.3,0.6,1.5,0.6c3.2,0,4.1,0.6,4.1,2.6c0,2.2-1.3,3-4.2,3
				c-3,0-4.2-0.5-4.2-2.4c0-1.2,0.5-2,1.7-2.3c-0.4-0.3-0.6-0.8-0.6-1.3c0-0.4,0.1-0.8,0.4-1.2c-0.7-0.5-1.1-1.4-1.1-2.6
				c0-2.4,1.4-3.4,3.7-3.4c0.2,0,0.5,0,0.7,0l3.4-0.6v1.6h-1.4c0.6,0.4,1,1.2,1,2.4c0,2.5-1.5,3.3-3.7,3.3
				C40.3,235.2,39.8,235.2,39.5,235.1z M42.9,238.9c0-0.8-0.4-1.1-2.2-1.1c-1.7,0-2.2,0.4-2.2,1.3c0,1,0.5,1.2,2.2,1.2
				C42.5,240.3,42.9,239.9,42.9,238.9z M42.4,231.9c0-1.2-0.5-1.7-1.7-1.7c-1.2,0-1.7,0.5-1.7,1.7s0.6,1.7,1.7,1.7
				C41.9,233.6,42.4,233.1,42.4,231.9z"/>
			<path class="st7" d="M46.3,234.9v-6.2h2v6.1c0,1.5,0.1,2.3,1.8,2.3c1.6,0,1.8-0.8,1.8-2.3v-6.1h2v6.2c0,2.8-0.6,4-3.8,4
				C47,238.9,46.3,237.7,46.3,234.9z"/>
			<path class="st7" d="M55.8,225.4h2v2.2h-2V225.4z M55.8,228.7h2v10.1h-2V228.7z"/>
			<path class="st7" d="M62.3,238.8c-1.8,0-2.4-0.6-2.4-2.5v-11.3h2V236c0,0.8,0.1,1,1.2,1v1.8C63,238.8,62.8,238.8,62.3,238.8z"/>
			<path class="st7" d="M67,238.8c-1.8,0-2.4-0.6-2.4-2.5v-11.3h2V236c0,0.8,0.1,1,1.2,1v1.8C67.6,238.8,67.4,238.8,67,238.8z"/>
			<path class="st7" d="M68.6,233.7c0-3,0.7-5.2,4.2-5.2c3.5,0,4.2,2.2,4.2,5.2c0,3.1-0.7,5.2-4.2,5.2
				C69.3,238.9,68.6,236.8,68.6,233.7z M74.9,233.8c0-2-0.2-3.4-2.1-3.4c-1.9,0-2.1,1.4-2.1,3.4c0,2,0.2,3.4,2.1,3.4
				C74.7,237.2,74.9,235.8,74.9,233.8z"/>
			<path class="st7" d="M78.4,228.8l1.6-0.1l0.2,0.9c0.5-0.6,1.2-1.1,3-1.1c2.5,0,2.9,1.5,2.9,3.7v6.6h-2v-6.1
				c0-1.5-0.2-2.2-1.6-2.2c-1.8,0-2.1,1-2.1,3v5.4h-2V228.8z"/>
			<path class="st10" d="M60.5,246.9l1.4-0.1l0.1,1c0.4-0.7,1.2-1.2,3-1.2c2.6,0,2.9,1.5,2.9,3.7v6.5h-1.7v-6.1
				c0-1.6-0.2-2.4-1.8-2.4c-1.9,0-2.2,1.1-2.2,3.3v5.3h-1.7V246.9z"/>
			<path class="st10" d="M69.6,247.5c0-2.4,0.6-4.2,3.3-4.2c2.7,0,3.3,1.9,3.3,4.2c0,2.4-0.6,4.2-3.3,4.2
				C70.2,251.8,69.6,249.9,69.6,247.5z M74.8,247.6c0-1.7-0.3-2.9-1.9-2.9c-1.6,0-1.9,1.2-1.9,2.9c0,1.7,0.3,2.9,1.9,2.9
				C74.5,250.5,74.8,249.2,74.8,247.6z"/>
			<path class="st10" d="M78,251.4c0-5.3,0.3-7.9,5.8-7.9h1v1.5h-1.1c-3.5,0-3.8,1.5-3.9,3.9c0.5-0.7,1.5-1.1,3.1-1.1
				c3,0,3.5,1.7,3.5,4.4c0,3.2-0.8,4.8-4,4.8C78.5,256.9,78,255,78,251.4z M84.6,252.2c0-1.9-0.5-2.9-2.3-2.9
				c-1.5,0-2.6,0.8-2.6,2.8c0,2.3,0.4,3.4,2.6,3.4C84.2,255.4,84.6,254.3,84.6,252.2z"/>
		</g>
	</g>
	<g>
		<g>
			<line class="st9" x1="148.3" y1="238.8" x2="90.3" y2="238.8"/>
			<g>
				<polygon points="146.4,237.1 148.1,238.8 146.4,240.5 147.8,240.5 149.5,238.8 147.8,237.1 				"/>
			</g>
		</g>
	</g>
	<g>
		<g class="st6">
			<path class="st7" d="M10.4,82.8l1-1.6c0.7,0.4,1.9,0.9,3.5,0.9c1.7,0,2.4-0.6,2.4-1.8c0-1.4-0.7-1.7-2.9-2.6
				c-2.3-0.9-3.5-1.7-3.5-3.9c0-2.3,1.5-3.6,4.2-3.6c1.6,0,2.7,0.3,3.7,0.8L18,72.8c-0.7-0.3-1.5-0.6-2.8-0.6
				c-1.5,0-2.2,0.6-2.2,1.6c0,1.1,0.5,1.5,2.4,2.2c2.9,1.1,4,1.8,4,4.3c0,2.3-1.4,3.6-4.4,3.6C12.9,83.9,11.4,83.5,10.4,82.8z"/>
			<path class="st7" d="M20.4,80.8c0-2.9,1.7-3.7,5.2-3.7H26c0-1.2-0.3-1.7-1.6-1.7c-1.1,0-1.9,0.3-2.5,0.5L21,74.3
				c0.8-0.4,2-0.7,3.5-0.7c2.7,0,3.4,1,3.4,3.5v4.1c0,0.7,0.1,0.9,0.8,0.9v1.8c-0.2,0-0.4,0-0.6,0c-1.1,0-1.6-0.2-1.8-0.9
				c-0.6,0.7-1.5,1-2.8,1C21.1,83.9,20.4,82.7,20.4,80.8z M26,79.9v-1.2h-0.4c-2.3,0-3.3,0.3-3.3,1.9c0,1.3,0.5,1.7,1.5,1.7
				C25,82.2,26,81.7,26,79.9z"/>
			<path class="st7" d="M30.3,70.4h2v2.2h-2V70.4z M30.3,73.7h2v10.1h-2V73.7z"/>
			<path class="st7" d="M34.3,73.8l1.6-0.1l0.2,0.9c0.5-0.6,1.2-1.1,3-1.1c2.5,0,2.9,1.5,2.9,3.7v6.6h-2v-6.1c0-1.5-0.2-2.2-1.6-2.2
				c-1.8,0-2.1,1-2.1,3v5.4h-2V73.8z"/>
			<path class="st7" d="M43.2,73.7h1.6l0.3-2.5l1.6-0.3v2.9h2.3v1.8h-2.3v5.3c0,0.8,0.1,1.3,1.2,1.3h1.1v1.8c-0.3,0-1.1,0.1-1.4,0.1
				c-2.4,0-3-0.8-3-2.9v-5.5h-1.6V73.7z"/>
			<path class="st7" d="M50.1,77.1h5v1.9h-5V77.1z"/>
			<path class="st7" d="M55.8,82.8l1-1.6c0.7,0.4,1.9,0.9,3.5,0.9c1.7,0,2.4-0.6,2.4-1.8c0-1.4-0.7-1.7-2.9-2.6
				c-2.3-0.9-3.5-1.7-3.5-3.9c0-2.3,1.5-3.6,4.2-3.6c1.6,0,2.7,0.3,3.7,0.8l-0.9,1.8c-0.7-0.3-1.5-0.6-2.8-0.6
				c-1.5,0-2.2,0.6-2.2,1.6c0,1.1,0.5,1.5,2.4,2.2c2.9,1.1,4,1.8,4,4.3c0,2.3-1.4,3.6-4.4,3.6C58.3,83.9,56.8,83.5,55.8,82.8z"/>
			<path class="st7" d="M65.9,78.7c0-3.2,0.8-5.2,4.1-5.2c3.6,0,3.6,2.3,3.6,6.2h-5.7c0.1,1.7,0.5,2.5,2.2,2.5c1.3,0,2-0.3,2.6-0.6
				l0.8,1.5c-0.8,0.5-1.9,0.8-3.5,0.8C66.6,83.9,65.9,81.9,65.9,78.7z M67.9,77.9h3.9c0-1.6-0.1-2.6-1.8-2.6
				C68.3,75.3,67.9,76.3,67.9,77.9z"/>
			<path class="st7" d="M77.6,83.8c-1.8,0-2.4-0.6-2.4-2.5V69.9h2V81c0,0.8,0.1,1,1.2,1v1.8C78.2,83.8,78,83.8,77.6,83.8z"/>
			<path class="st7" d="M78.9,73.7H81l2.2,7.5l2.1-7.5h2l-3.2,10.1h-2.1L78.9,73.7z"/>
			<path class="st7" d="M87.8,78.7c0-3.2,0.8-5.2,4.1-5.2c3.6,0,3.6,2.3,3.6,6.2h-5.7c0.1,1.7,0.5,2.5,2.2,2.5c1.3,0,2-0.3,2.6-0.6
				l0.8,1.5c-0.8,0.5-1.9,0.8-3.5,0.8C88.5,83.9,87.8,81.9,87.8,78.7z M89.8,77.9h3.9c0-1.6-0.1-2.6-1.8-2.6
				C90.2,75.3,89.8,76.3,89.8,77.9z"/>
			<path class="st10" d="M52.5,88.4h4.5c2.8,0,4,1.3,4,4.1c0,2.7-1.2,4.2-4,4.2h-2.8v5.1h-1.7V88.4z M57,95.2c1.6,0,2.3-0.7,2.3-2.6
				S58.6,90,57,90h-2.7v5.1H57z"/>
			<path class="st10" d="M61.9,96.8c0-3.1,0.7-5.1,3.9-5.1c3.4,0,3.5,2.2,3.4,5.9h-5.8c0.1,1.9,0.5,2.9,2.4,2.9
				c1.3,0,1.9-0.3,2.5-0.6l0.6,1.3c-0.8,0.4-1.7,0.7-3.3,0.7C62.5,101.9,61.9,99.9,61.9,96.8z M63.5,96h4.2c0-1.8-0.1-2.9-1.9-2.9
				C64,93.1,63.6,94.2,63.5,96z M66.4,87.8h1.9l-2.4,2.9h-1.5L66.4,87.8z"/>
			<path class="st10" d="M70.3,98.8c0-2.9,1.7-3.7,5.1-3.7h0.4c0-1.3-0.3-2-1.8-2c-1,0-1.9,0.3-2.5,0.5l-0.7-1.4
				c0.8-0.4,1.9-0.7,3.3-0.7c2.7,0,3.3,1.1,3.3,3.5v4.2c0,0.8,0.1,1,0.8,1v1.5c-0.1,0-0.3,0-0.5,0c-1.1,0-1.5-0.2-1.7-1
				c-0.6,0.8-1.5,1-2.8,1C71.1,101.9,70.3,100.7,70.3,98.8z M75.9,97.9v-1.4h-0.4c-2.5,0-3.5,0.3-3.5,2.1c0,1.4,0.6,1.9,1.7,1.9
				C74.8,100.5,75.9,100,75.9,97.9z"/>
			<path class="st10" d="M81.8,98.1c-0.1,0.2-0.1,0.4-0.1,0.5c0,0.5,0.3,0.7,1.5,0.7c3,0,3.9,0.7,3.9,2.5c0,2.1-1.3,3-4,3
				c-2.8,0-4-0.6-4-2.4c0-1.2,0.5-2.1,1.7-2.4c-0.4-0.3-0.6-0.7-0.6-1.2c0-0.4,0.1-0.8,0.4-1.2c-0.7-0.5-1.1-1.3-1.1-2.6
				c0-2.4,1.3-3.3,3.5-3.3c0.3,0,0.5,0,0.8,0l3.2-0.5v1.4h-1.4c0.6,0.4,1,1.2,1,2.4c0,2.4-1.4,3.3-3.5,3.3
				C82.6,98.2,82.2,98.2,81.8,98.1z M85.4,101.9c0-0.9-0.4-1.3-2.3-1.3c-1.8,0-2.3,0.5-2.3,1.5c0,1.1,0.5,1.4,2.3,1.4
				C85,103.5,85.4,103,85.4,101.9z M85,95c0-1.3-0.6-1.9-1.9-1.9c-1.2,0-1.9,0.6-1.9,1.9s0.6,1.9,1.9,1.9C84.4,96.8,85,96.3,85,95z"
				/>
			<path class="st10" d="M88.1,96.8c0-3.1,0.7-5.1,3.9-5.1c3.4,0,3.5,2.2,3.4,5.9h-5.8c0.1,1.9,0.5,2.9,2.4,2.9
				c1.3,0,1.9-0.3,2.5-0.6l0.6,1.3c-0.8,0.4-1.7,0.7-3.3,0.7C88.7,101.9,88.1,99.9,88.1,96.8z M89.7,96h4.2c0-1.8-0.1-2.9-1.9-2.9
				C90.2,93.1,89.8,94.2,89.7,96z"/>
		</g>
	</g>
	<g>
		<g>
			<line class="st9" x1="134.3" y1="80.8" x2="99.3" y2="80.8"/>
			<g>
				<polygon points="132.4,79.1 134.1,80.8 132.4,82.5 133.8,82.5 135.5,80.8 133.8,79.1 				"/>
			</g>
		</g>
	</g>
	<g>
		<g class="st6">
			<path class="st7" d="M83.6,359h2.6l3.1,9.8l3.1-9.8h2.6v13.3H93v-9.5l-3,9.5h-1.5l-3-9.5v9.5h-1.9V359z"/>
			<path class="st7" d="M96.8,367.2c0-3,0.7-5.2,4.2-5.2c3.5,0,4.2,2.2,4.2,5.2c0,3.1-0.7,5.2-4.2,5.2
				C97.5,372.4,96.8,370.3,96.8,367.2z M103.1,367.3c0-2-0.2-3.4-2.1-3.4c-1.9,0-2.1,1.4-2.1,3.4c0,2,0.2,3.4,2.1,3.4
				C102.9,370.7,103.1,369.3,103.1,367.3z"/>
			<path class="st7" d="M106.7,362.4l1.6-0.1l0.2,0.9c0.5-0.6,1.2-1.1,3-1.1c2.5,0,2.9,1.5,2.9,3.7v6.6h-2v-6.1
				c0-1.5-0.2-2.2-1.6-2.2c-1.8,0-2.1,1-2.1,3v5.4h-2V362.4z"/>
			<path class="st7" d="M115.6,362.2h1.6l0.3-2.5l1.6-0.3v2.9h2.3v1.8h-2.3v5.3c0,0.8,0.1,1.3,1.2,1.3h1.1v1.8
				c-0.3,0-1.1,0.1-1.4,0.1c-2.4,0-3-0.8-3-2.9V364h-1.6V362.2z"/>
			<path class="st7" d="M122.5,369.3c0-2.9,1.7-3.7,5.2-3.7h0.4c0-1.2-0.3-1.7-1.6-1.7c-1.1,0-1.9,0.3-2.5,0.5l-0.8-1.6
				c0.8-0.4,2-0.7,3.5-0.7c2.7,0,3.4,1,3.4,3.5v4.1c0,0.7,0.1,0.9,0.8,0.9v1.8c-0.2,0-0.4,0-0.6,0c-1.1,0-1.6-0.2-1.8-0.9
				c-0.6,0.7-1.5,1-2.8,1C123.2,372.4,122.5,371.2,122.5,369.3z M128.1,368.4v-1.2h-0.4c-2.3,0-3.3,0.3-3.3,1.9
				c0,1.3,0.5,1.7,1.5,1.7C127.2,370.7,128.1,370.3,128.1,368.4z"/>
			<path class="st7" d="M132.2,368.4v-6.2h2v6.1c0,1.5,0.1,2.3,1.8,2.3c1.6,0,1.8-0.8,1.8-2.3v-6.1h2v6.2c0,2.8-0.6,4-3.8,4
				C133,372.4,132.2,371.2,132.2,368.4z"/>
			<path class="st7" d="M141.7,358.4h2v4.7c0.5-0.7,1.3-1.1,2.8-1.1c3,0,3.3,2.4,3.3,5.2c0,2.8-0.4,5.2-3.4,5.2c-1.9,0-2.4-0.4-3-1
				l-0.3,1l-1.5-0.1V358.4z M147.9,367.3c0-2-0.2-3.4-2-3.4c-2,0-2.2,1.4-2.2,3.4s0.2,3.3,2.2,3.3
				C147.6,370.7,147.9,369.4,147.9,367.3z"/>
			<path class="st7" d="M150.9,369.3c0-2.9,1.7-3.7,5.2-3.7h0.4c0-1.2-0.3-1.7-1.6-1.7c-1.1,0-1.9,0.3-2.5,0.5l-0.8-1.6
				c0.8-0.4,2-0.7,3.5-0.7c2.7,0,3.4,1,3.4,3.5v4.1c0,0.7,0.1,0.9,0.8,0.9v1.8c-0.2,0-0.4,0-0.6,0c-1.1,0-1.6-0.2-1.8-0.9
				c-0.6,0.7-1.5,1-2.8,1C151.6,372.4,150.9,371.2,150.9,369.3z M156.5,368.4v-1.2h-0.4c-2.3,0-3.3,0.3-3.3,1.9
				c0,1.3,0.5,1.7,1.5,1.7C155.6,370.7,156.5,370.3,156.5,368.4z"/>
			<path class="st7" d="M160.7,362.4l1.6-0.1l0.2,0.9c0.5-0.6,1.2-1.1,3-1.1c2.5,0,2.9,1.5,2.9,3.7v6.6h-2v-6.1
				c0-1.5-0.2-2.2-1.6-2.2c-1.8,0-2.1,1-2.1,3v5.4h-2V362.4z"/>
			<path class="st10" d="M136.6,380.4l1.4-0.1l0.1,1c0.4-0.7,1.2-1.2,3-1.2c2.6,0,2.9,1.5,2.9,3.7v6.5h-1.7v-6.1
				c0-1.6-0.2-2.4-1.8-2.4c-1.9,0-2.2,1.1-2.2,3.3v5.3h-1.7V380.4z"/>
			<path class="st10" d="M145.8,381.1c0-2.4,0.6-4.2,3.3-4.2c2.7,0,3.3,1.9,3.3,4.2c0,2.4-0.6,4.2-3.3,4.2
				C146.3,385.3,145.8,383.4,145.8,381.1z M150.9,381.1c0-1.7-0.3-2.9-1.9-2.9c-1.6,0-1.9,1.2-1.9,2.9c0,1.7,0.3,2.9,1.9,2.9
				C150.7,384,150.9,382.7,150.9,381.1z"/>
			<path class="st10" d="M155.5,378.5h-1.9V377h3.6v13.3h-1.7V378.5z"/>
			<path class="st10" d="M159.8,383.6c0-4.6,0.6-6.8,4.3-6.8c3.6,0,4.2,2.3,4.2,6.8c0,4.6-0.6,6.8-4.2,6.8
				C160.4,390.4,159.8,388.2,159.8,383.6z M166.6,383.6c0-3.8-0.5-5.2-2.5-5.2c-2.1,0-2.6,1.4-2.6,5.2c0,3.8,0.5,5.2,2.6,5.2
				C166.1,388.9,166.6,387.4,166.6,383.6z"/>
		</g>
	</g>
	<g>
		<g>
			<line class="st9" x1="197.3" y1="385.8" x2="172.3" y2="385.8"/>
			<g>
				<polygon points="195.4,384.1 197.1,385.8 195.4,387.5 196.8,387.5 198.5,385.8 196.8,384.1 				"/>
			</g>
		</g>
	</g>
	<g>
		<g>
			<line class="st9" x1="173.3" y1="426.8" x2="110.3" y2="426.8"/>
			<g>
				<polygon points="171.4,425.1 173.1,426.8 171.4,428.5 172.8,428.5 174.5,426.8 172.8,425.1 				"/>
			</g>
		</g>
	</g>
	<g>
		<g class="st6">
			<path class="st7" d="M215.7,97.8h4.7c2.9,0,4.1,1.4,4.1,4.1c0,2.7-1.2,4.4-4.1,4.4h-2.6v4.8h-2.1V97.8z M220.4,104.4
				c1.5,0,2.1-0.6,2.1-2.4c0-1.8-0.7-2.4-2.1-2.4h-2.6v4.8H220.4z"/>
			<path class="st7" d="M225.4,106.1c0-3,0.7-5.2,4.2-5.2c3.5,0,4.2,2.2,4.2,5.2c0,3.1-0.7,5.2-4.2,5.2
				C226.1,111.3,225.4,109.1,225.4,106.1z M231.6,106.1c0-2-0.2-3.4-2.1-3.4c-1.9,0-2.1,1.4-2.1,3.4c0,2,0.2,3.4,2.1,3.4
				C231.4,109.5,231.6,108.1,231.6,106.1z"/>
			<path class="st7" d="M234.8,106c0-2.8,0.4-5.2,3.4-5.2c1.6,0,2.3,0.3,2.8,0.9v-4.5h2v13.8l-1.6,0.1l-0.2-1
				c-0.5,0.7-1.3,1.1-3.1,1.1C235.2,111.2,234.8,108.8,234.8,106z M241,106.1c0-2-0.2-3.3-2.2-3.3c-1.7,0-2,1.3-2,3.3
				c0,2.1,0.2,3.4,2,3.4C240.8,109.5,241,108.1,241,106.1z"/>
			<path class="st7" d="M244.6,106.1c0-3.2,0.8-5.2,4.1-5.2c3.6,0,3.6,2.3,3.6,6.2h-5.7c0.1,1.7,0.5,2.5,2.2,2.5
				c1.3,0,2-0.3,2.6-0.6l0.8,1.5c-0.8,0.5-1.9,0.8-3.5,0.8C245.2,111.2,244.6,109.3,244.6,106.1z M246.5,105.3h3.9
				c0-1.6-0.1-2.6-1.8-2.6C247,102.7,246.6,103.6,246.5,105.3z"/>
			<path class="st7" d="M253.8,101.2l1.6-0.1l0.2,0.9c0.5-0.6,1.2-1.1,3-1.1c2.5,0,2.9,1.5,2.9,3.7v6.6h-2V105
				c0-1.5-0.2-2.2-1.6-2.2c-1.8,0-2.1,1-2.1,3v5.4h-2V101.2z"/>
			<path class="st7" d="M262.6,110.5l0.8-1.6c0.7,0.3,1.7,0.6,2.8,0.6c1,0,1.5-0.3,1.5-1.2c0-0.8-0.5-1.1-2-1.7
				c-1.7-0.7-2.7-1.3-2.7-3c0-2,1.3-2.9,3.4-2.9c1.3,0,2.1,0.2,2.9,0.5l-0.8,1.7c-0.6-0.2-1.3-0.4-2.1-0.4c-1,0-1.4,0.4-1.4,1
				c0,0.7,0.5,1,1.9,1.5c1.8,0.7,2.8,1.3,2.8,3.2c0,1.9-1.2,2.8-3.4,2.8C264.8,111.2,263.6,111,262.6,110.5z"/>
			<path class="st7" d="M270.5,108.1c0-2.9,1.7-3.7,5.2-3.7h0.4c0-1.2-0.3-1.7-1.6-1.7c-1.1,0-1.9,0.3-2.5,0.5l-0.8-1.6
				c0.8-0.4,2-0.7,3.5-0.7c2.7,0,3.4,1,3.4,3.5v4.1c0,0.7,0.1,0.9,0.8,0.9v1.8c-0.2,0-0.4,0-0.6,0c-1.1,0-1.6-0.2-1.8-0.9
				c-0.6,0.7-1.5,1-2.8,1C271.1,111.2,270.5,110,270.5,108.1z M276,107.3V106h-0.4c-2.3,0-3.3,0.3-3.3,1.9c0,1.3,0.5,1.7,1.5,1.7
				C275.1,109.6,276,109.1,276,107.3z"/>
			<path class="st7" d="M279.9,106.1c0-3.2,0.7-5.2,4.1-5.2c1.1,0,1.9,0.2,2.6,0.5l-0.9,1.7c-0.5-0.3-1-0.4-1.6-0.4
				c-1.7,0-2.2,1.1-2.2,3.3c0,2.3,0.4,3.4,2.2,3.4c0.7,0,1.3-0.2,1.8-0.5l0.8,1.5c-0.9,0.5-1.7,0.7-2.8,0.7
				C280.6,111.3,279.9,109.3,279.9,106.1z"/>
			<path class="st10" d="M215.6,119.2l1.4-0.1l0.1,1c0.4-0.7,1.2-1.2,3-1.2c2.6,0,2.9,1.5,2.9,3.7v6.5h-1.7V123
				c0-1.6-0.2-2.4-1.8-2.4c-1.9,0-2.2,1.1-2.2,3.3v5.3h-1.7V119.2z"/>
			<path class="st10" d="M224.8,119.9c0-2.4,0.6-4.2,3.3-4.2s3.3,1.9,3.3,4.2c0,2.4-0.6,4.2-3.3,4.2S224.8,122.3,224.8,119.9z
				 M229.9,119.9c0-1.7-0.3-2.9-1.9-2.9c-1.6,0-1.9,1.2-1.9,2.9c0,1.7,0.3,2.9,1.9,2.9C229.7,122.8,229.9,121.6,229.9,119.9z"/>
			<path class="st10" d="M232.4,127.8l3-3.7c2.4-2.9,2.6-3.6,2.6-4.9c0-1.3-0.5-1.9-2-1.9c-1.1,0-2,0.3-2.7,0.6l-0.7-1.4
				c0.9-0.5,2-0.8,3.7-0.8c2.5,0,3.4,1.1,3.4,3.3c0,1.9-0.5,2.9-3.1,6.1l-2.1,2.6h5.3v1.5h-7.4V127.8z"/>
		</g>
	</g>
	<g>
		<g>
			<line class="st9" x1="135.3" y1="111.3" x2="211.3" y2="111.3"/>
			<g>
				<polygon points="137.3,113 135.6,111.3 137.3,109.6 135.8,109.6 134.1,111.3 135.8,113 				"/>
			</g>
		</g>
	</g>
	<g>
		<g class="st6">
			<path class="st7" d="M213.2,306.8c0-4.1,0.9-6.8,5.2-6.8c1.4,0,2.6,0.3,3.4,0.9l-1.1,1.7c-0.5-0.3-1.3-0.6-2.3-0.6
				c-2.3,0-3,1.4-3,4.8s0.7,4.9,3,4.9c1.1,0,1.8-0.2,2.5-0.7l1,1.6c-1,0.6-1.9,1-3.6,1C214.2,313.6,213.2,310.9,213.2,306.8z"/>
			<path class="st7" d="M222.5,310.4c0-2.9,1.7-3.7,5.2-3.7h0.4c0-1.2-0.3-1.7-1.6-1.7c-1.1,0-1.9,0.3-2.5,0.5l-0.8-1.6
				c0.8-0.4,2-0.7,3.5-0.7c2.7,0,3.4,1,3.4,3.5v4.1c0,0.7,0.1,0.9,0.8,0.9v1.8c-0.2,0-0.4,0-0.6,0c-1.1,0-1.6-0.2-1.8-0.9
				c-0.6,0.7-1.5,1-2.8,1C223.2,313.6,222.5,312.3,222.5,310.4z M228.1,309.6v-1.2h-0.4c-2.3,0-3.3,0.3-3.3,1.9
				c0,1.3,0.5,1.7,1.5,1.7C227.1,311.9,228.1,311.4,228.1,309.6z"/>
			<path class="st7" d="M231.6,312.9l0.8-1.6c0.7,0.3,1.7,0.6,2.8,0.6c1,0,1.5-0.3,1.5-1.2c0-0.8-0.5-1.1-2-1.7
				c-1.7-0.7-2.7-1.3-2.7-3c0-2,1.3-2.9,3.4-2.9c1.3,0,2.1,0.2,2.9,0.5l-0.8,1.7c-0.6-0.2-1.3-0.4-2.1-0.4c-1,0-1.4,0.4-1.4,1
				c0,0.7,0.5,1,1.9,1.5c1.8,0.7,2.8,1.3,2.8,3.2c0,1.9-1.2,2.8-3.4,2.8C233.7,313.6,232.5,313.3,231.6,312.9z"/>
			<path class="st7" d="M239.2,303.4h1.6l0.3-2.5l1.6-0.3v2.9h2.3v1.8h-2.3v5.3c0,0.8,0.1,1.3,1.2,1.3h1.1v1.8
				c-0.3,0-1.1,0.1-1.4,0.1c-2.4,0-3-0.8-3-2.9v-5.5h-1.6V303.4z"/>
			<path class="st7" d="M246,308.4c0-3.2,0.8-5.2,4.1-5.2c3.6,0,3.6,2.3,3.6,6.2h-5.7c0.1,1.7,0.5,2.5,2.2,2.5c1.3,0,2-0.3,2.6-0.6
				l0.8,1.5c-0.8,0.5-1.9,0.8-3.5,0.8C246.6,313.6,246,311.6,246,308.4z M247.9,307.6h3.9c0-1.6-0.1-2.6-1.8-2.6
				C248.4,305,248,305.9,247.9,307.6z"/>
			<path class="st7" d="M257.7,313.5c-1.8,0-2.4-0.6-2.4-2.5v-11.3h2v11.1c0,0.8,0.1,1,1.2,1v1.8
				C258.3,313.5,258.1,313.5,257.7,313.5z"/>
			<path class="st7" d="M259.1,312.9l0.8-1.6c0.7,0.3,1.7,0.6,2.8,0.6c1,0,1.5-0.3,1.5-1.2c0-0.8-0.5-1.1-2-1.7
				c-1.7-0.7-2.7-1.3-2.7-3c0-2,1.3-2.9,3.4-2.9c1.3,0,2.1,0.2,2.9,0.5l-0.8,1.7c-0.6-0.2-1.3-0.4-2.1-0.4c-1,0-1.4,0.4-1.4,1
				c0,0.7,0.5,1,1.9,1.5c1.8,0.7,2.8,1.3,2.8,3.2c0,1.9-1.2,2.8-3.4,2.8C261.3,313.6,260,313.3,259.1,312.9z"/>
			<path class="st7" d="M266.9,310.4c0-2.9,1.7-3.7,5.2-3.7h0.4c0-1.2-0.3-1.7-1.6-1.7c-1.1,0-1.9,0.3-2.5,0.5l-0.8-1.6
				c0.8-0.4,2-0.7,3.5-0.7c2.7,0,3.4,1,3.4,3.5v4.1c0,0.7,0.1,0.9,0.8,0.9v1.8c-0.2,0-0.4,0-0.6,0c-1.1,0-1.6-0.2-1.8-0.9
				c-0.6,0.7-1.5,1-2.8,1C267.6,313.6,266.9,312.3,266.9,310.4z M272.5,309.6v-1.2h-0.4c-2.3,0-3.3,0.3-3.3,1.9
				c0,1.3,0.5,1.7,1.5,1.7C271.6,311.9,272.5,311.4,272.5,309.6z"/>
			<path class="st7" d="M276.8,303.5l1.6-0.1l0.2,1.1c0.4-0.6,1.2-1.1,2.8-1.1v1.9c-2.4,0-2.6,1.5-2.6,3.2v5h-2V303.5z"/>
			<path class="st7" d="M282.4,303.5l1.6-0.1l0.2,1.1c0.4-0.6,1.2-1.1,2.8-1.1v1.9c-2.4,0-2.6,1.5-2.6,3.2v5h-2V303.5z"/>
			<path class="st7" d="M287.3,310.4c0-2.9,1.7-3.7,5.2-3.7h0.4c0-1.2-0.3-1.7-1.6-1.7c-1.1,0-1.9,0.3-2.5,0.5l-0.8-1.6
				c0.8-0.4,2-0.7,3.5-0.7c2.7,0,3.4,1,3.4,3.5v4.1c0,0.7,0.1,0.9,0.8,0.9v1.8c-0.2,0-0.4,0-0.6,0c-1.1,0-1.6-0.2-1.8-0.9
				c-0.6,0.7-1.5,1-2.8,1C288,313.6,287.3,312.3,287.3,310.4z M292.9,309.6v-1.2h-0.4c-2.3,0-3.3,0.3-3.3,1.9c0,1.3,0.5,1.7,1.5,1.7
				C292,311.9,292.9,311.4,292.9,309.6z"/>
			<path class="st7" d="M296.4,312.9l0.8-1.6c0.7,0.3,1.7,0.6,2.8,0.6c1,0,1.5-0.3,1.5-1.2c0-0.8-0.5-1.1-2-1.7
				c-1.7-0.7-2.7-1.3-2.7-3c0-2,1.3-2.9,3.4-2.9c1.3,0,2.1,0.2,2.9,0.5l-0.8,1.7c-0.6-0.2-1.3-0.4-2.1-0.4c-1,0-1.4,0.4-1.4,1
				c0,0.7,0.5,1,1.9,1.5c1.8,0.7,2.8,1.3,2.8,3.2c0,1.9-1.2,2.8-3.4,2.8C298.6,313.6,297.4,313.3,296.4,312.9z"/>
			<path class="st7" d="M304.8,300.1h2v2.2h-2V300.1z M304.8,303.4h2v10.1h-2V303.4z"/>
			<path class="st7" d="M308.8,303.5l1.6-0.1l0.2,0.9c0.5-0.6,1.2-1.1,3-1.1c2.5,0,2.9,1.5,2.9,3.7v6.6h-2v-6.1
				c0-1.5-0.2-2.2-1.6-2.2c-1.8,0-2.1,1-2.1,3v5.4h-2V303.5z"/>
			<path class="st10" d="M213.6,321.5l1.4-0.1l0.1,1c0.4-0.7,1.2-1.2,3-1.2c2.6,0,2.9,1.5,2.9,3.7v6.5h-1.7v-6.1
				c0-1.6-0.2-2.4-1.8-2.4c-1.9,0-2.2,1.1-2.2,3.3v5.3h-1.7V321.5z"/>
			<path class="st10" d="M222.8,322.2c0-2.4,0.6-4.2,3.3-4.2s3.3,1.9,3.3,4.2c0,2.4-0.6,4.2-3.3,4.2S222.8,324.6,222.8,322.2z
				 M227.9,322.2c0-1.7-0.3-2.9-1.9-2.9c-1.6,0-1.9,1.2-1.9,2.9c0,1.7,0.3,2.9,1.9,2.9C227.7,325.1,227.9,323.9,227.9,322.2z"/>
			<path class="st10" d="M232.4,330h1.2c3.3,0,3.8-1.5,3.9-3.9c-0.5,0.7-1.6,1.1-3,1.1c-3,0-3.5-1.7-3.5-4.4c0-3.2,0.8-4.8,4.1-4.8
				c3.8,0,4.3,2,4.3,5.5c0,5.4-0.3,7.9-5.8,7.9h-1.1V330z M237.5,322.9c0-2.3-0.4-3.3-2.6-3.3c-1.9,0-2.3,1.1-2.3,3.3
				c0,1.9,0.5,2.9,2.3,2.9C236.4,325.7,237.5,324.9,237.5,322.9z"/>
		</g>
	</g>
	<g>
		<g>
			<line class="st9" x1="175.3" y1="330.8" x2="210.3" y2="330.8"/>
			<g>
				<polygon points="177.3,332.5 175.6,330.8 177.3,329.1 175.8,329.1 174.1,330.8 175.8,332.5 				"/>
			</g>
		</g>
	</g>
	<g>
		<g>
			<g class="st6">
				<path class="st7" d="M32.6,417.3h-3.7v-1.9h9.5v1.9h-3.7v11.4h-2.1V417.3z"/>
				<path class="st7" d="M37.4,423.7c0-3,0.7-5.2,4.2-5.2c3.5,0,4.2,2.2,4.2,5.2c0,3.1-0.7,5.2-4.2,5.2
					C38.1,428.9,37.4,426.8,37.4,423.7z M43.7,423.8c0-2-0.2-3.4-2.1-3.4c-1.9,0-2.1,1.4-2.1,3.4c0,2,0.2,3.4,2.1,3.4
					C43.5,427.2,43.7,425.8,43.7,423.8z"/>
				<path class="st7" d="M47.2,424.9v-6.2h2v6.1c0,1.5,0.1,2.3,1.8,2.3c1.6,0,1.8-0.8,1.8-2.3v-6.1h2v6.2c0,2.8-0.6,4-3.8,4
					C47.9,428.9,47.2,427.7,47.2,424.9z"/>
				<path class="st7" d="M59.1,428.8c-1.8,0-2.4-0.6-2.4-2.5v-11.3h2V426c0,0.8,0.1,1,1.2,1v1.8C59.7,428.8,59.5,428.8,59.1,428.8z"
					/>
				<path class="st7" d="M60.7,423.7c0-3,0.7-5.2,4.2-5.2c3.5,0,4.2,2.2,4.2,5.2c0,3.1-0.7,5.2-4.2,5.2
					C61.5,428.9,60.7,426.8,60.7,423.7z M67,423.8c0-2-0.2-3.4-2.1-3.4c-1.9,0-2.1,1.4-2.1,3.4c0,2,0.2,3.4,2.1,3.4
					C66.8,427.2,67,425.8,67,423.8z"/>
				<path class="st7" d="M70.5,424.9v-6.2h2v6.1c0,1.5,0.1,2.3,1.8,2.3c1.6,0,1.8-0.8,1.8-2.3v-6.1h2v6.2c0,2.8-0.6,4-3.8,4
					C71.2,428.9,70.5,427.7,70.5,424.9z"/>
				<path class="st7" d="M79.3,428.2l0.8-1.6c0.7,0.3,1.7,0.6,2.8,0.6c1,0,1.5-0.3,1.5-1.2c0-0.8-0.5-1.1-2-1.7
					c-1.7-0.7-2.7-1.3-2.7-3c0-2,1.3-2.9,3.4-2.9c1.3,0,2.1,0.2,2.9,0.5l-0.8,1.7c-0.6-0.2-1.3-0.4-2.1-0.4c-1,0-1.4,0.4-1.4,1
					c0,0.7,0.5,1,1.9,1.5c1.8,0.7,2.8,1.3,2.8,3.2c0,1.9-1.2,2.8-3.4,2.8C81.4,428.9,80.2,428.7,79.3,428.2z"/>
				<path class="st7" d="M87.1,423.7c0-3.2,0.8-5.2,4.1-5.2c3.6,0,3.6,2.3,3.6,6.2H89c0.1,1.7,0.5,2.5,2.2,2.5c1.3,0,2-0.3,2.6-0.6
					l0.8,1.5c-0.8,0.5-1.9,0.8-3.5,0.8C87.7,428.9,87.1,426.9,87.1,423.7z M89,422.9h3.9c0-1.6-0.1-2.6-1.8-2.6
					C89.5,420.3,89.1,421.3,89,422.9z"/>
				<path class="st10" d="M51.8,433.4h4.5c2.8,0,4,1.3,4,4.1c0,2.7-1.2,4.2-4,4.2h-2.8v5.1h-1.7V433.4z M56.2,440.2
					c1.6,0,2.3-0.7,2.3-2.6s-0.7-2.6-2.3-2.6h-2.7v5.1H56.2z"/>
				<path class="st10" d="M61.1,441.8c0-3.1,0.7-5.1,3.9-5.1c3.4,0,3.5,2.2,3.4,5.9h-5.8c0.1,1.9,0.5,2.9,2.4,2.9
					c1.3,0,1.9-0.3,2.5-0.6l0.6,1.3c-0.8,0.4-1.7,0.7-3.3,0.7C61.7,446.9,61.1,444.9,61.1,441.8z M62.8,441h4.2
					c0-1.8-0.1-2.9-1.9-2.9C63.2,438.1,62.8,439.2,62.8,441z M65.6,432.8h1.9l-2.4,2.9h-1.5L65.6,432.8z"/>
				<path class="st10" d="M69.6,443.8c0-2.9,1.7-3.7,5.1-3.7h0.4c0-1.3-0.3-2-1.8-2c-1,0-1.9,0.3-2.5,0.5l-0.7-1.4
					c0.8-0.4,1.9-0.7,3.3-0.7c2.7,0,3.3,1.1,3.3,3.5v4.2c0,0.8,0.1,1,0.8,1v1.5c-0.1,0-0.3,0-0.5,0c-1.1,0-1.5-0.2-1.7-1
					c-0.6,0.8-1.5,1-2.8,1C70.3,446.9,69.6,445.7,69.6,443.8z M75.1,442.9v-1.4h-0.4c-2.5,0-3.5,0.3-3.5,2.1c0,1.4,0.6,1.9,1.7,1.9
					C74.1,445.5,75.1,445,75.1,442.9z"/>
				<path class="st10" d="M81.1,443.1c-0.1,0.2-0.1,0.4-0.1,0.5c0,0.5,0.3,0.7,1.5,0.7c3,0,3.9,0.7,3.9,2.5c0,2.1-1.3,3-4,3
					c-2.8,0-4-0.6-4-2.4c0-1.2,0.5-2.1,1.7-2.4c-0.4-0.3-0.6-0.7-0.6-1.2c0-0.4,0.1-0.8,0.4-1.2c-0.7-0.5-1.1-1.3-1.1-2.6
					c0-2.4,1.3-3.3,3.5-3.3c0.3,0,0.5,0,0.8,0l3.2-0.5v1.4h-1.4c0.6,0.4,1,1.2,1,2.4c0,2.4-1.4,3.3-3.5,3.3
					C81.9,443.2,81.5,443.2,81.1,443.1z M84.7,446.9c0-0.9-0.4-1.3-2.3-1.3c-1.8,0-2.3,0.5-2.3,1.5c0,1.1,0.5,1.4,2.3,1.4
					C84.3,448.5,84.7,448,84.7,446.9z M84.2,440c0-1.3-0.6-1.9-1.9-1.9c-1.2,0-1.9,0.6-1.9,1.9s0.6,1.9,1.9,1.9
					C83.6,441.8,84.2,441.3,84.2,440z"/>
				<path class="st10" d="M87.4,441.8c0-3.1,0.7-5.1,3.9-5.1c3.4,0,3.5,2.2,3.4,5.9H89c0.1,1.9,0.5,2.9,2.4,2.9
					c1.3,0,1.9-0.3,2.5-0.6l0.6,1.3c-0.8,0.4-1.7,0.7-3.3,0.7C87.9,446.9,87.4,444.9,87.4,441.8z M89,441h4.2c0-1.8-0.1-2.9-1.9-2.9
					C89.5,438.1,89,439.2,89,441z"/>
			</g>
		</g>
	</g>
	<g>
		<g>
			<g class="st6">
				<path class="st7" d="M49.3,11.5h6.4c3.9,0,5.8,1.5,5.8,5c0,2.6-1,3.9-2.5,4.5c1.9,0.6,2.9,2,2.9,5c0,4.1-2.3,5.5-6.1,5.5h-6.5
					V11.5z M55.6,20c2.1,0,3.3-0.7,3.3-3.2c0-2.4-1.2-3.1-3.3-3.1h-3.7V20H55.6z M55.8,29.3c2.1,0,3.5-0.7,3.5-3.5
					c0-2.7-1.4-3.4-3.5-3.4h-3.9v6.9H55.8z"/>
				<path class="st7" d="M63.9,21.5c0-5.5,0.9-10.2,7.6-10.2c6.7,0,7.6,4.7,7.6,10.2s-0.8,10.2-7.6,10.2
					C64.7,31.7,63.9,27,63.9,21.5z M76.4,21.6c0-4.5-0.5-7.8-4.9-7.8c-4.5,0-5,3.3-5,7.8s0.5,7.8,5,7.8
					C75.9,29.4,76.4,26.1,76.4,21.6z"/>
				<path class="st7" d="M87.9,23.8h-3.6v7.7h-2.6v-20h6.7c4.2,0,5.9,2,5.9,6c0,3.2-1.2,5.4-3.9,6.1l3.6,8h-2.7L87.9,23.8z
					 M88.3,21.4c2.4,0,3.4-1,3.4-3.8c0-2.8-1-3.8-3.4-3.8h-4.1v7.6H88.3z"/>
				<path class="st7" d="M97.3,11.5h5.7c6.3,0,7.9,3.2,7.9,10c0,6.9-1.5,10-8,10h-5.6V11.5z M103.1,29.2c4.3,0,5.2-2.5,5.2-7.7
					c0-5.2-0.8-7.6-5.1-7.6h-3.2v15.3H103.1z"/>
				<path class="st7" d="M113.5,11.5h11v2.4h-8.4V20h8v2.4h-8v6.8h8.5v2.3h-11.1V11.5z"/>
				<path class="st7" d="M132.2,11.4h2.8l6.2,20.1h-2.6l-1.2-4.2h-7.4l-1.2,4.2H126L132.2,11.4z M136.5,25l-3-9.9l-3,9.9H136.5z"/>
				<path class="st7" d="M142.6,24.8V11.5h2.6v13.1c0,3.1,0.8,4.7,4.2,4.7c3.4,0,4.3-1.6,4.3-4.7V11.5h2.5v13.3
					c0,4.4-1.5,6.9-6.8,6.9C144.2,31.8,142.6,29.3,142.6,24.8z"/>
				<path class="st7" d="M165.3,23.4l-4.2,8.1h-2.8L164,21l-5.2-9.5h2.9l3.9,7.2l3.8-7.2h2.8l-5.2,9.6l5.7,10.4h-2.9L165.3,23.4z"/>
			</g>
		</g>
	</g>
	<g>
		<g class="st6">
			<path class="st1" d="M207.8,335.9h2.3l3.5,10.9l3.5-10.9h2.3V350h-1.8v-10.6l-3.4,10.6h-1.3l-3.4-10.6V350h-1.6V335.9z"/>
			<path class="st1" d="M221.3,343c0-3.9,0.6-7.2,5.4-7.2c4.7,0,5.3,3.3,5.3,7.2s-0.6,7.2-5.3,7.2
				C221.9,350.1,221.3,346.8,221.3,343z M230.1,343c0-3.2-0.3-5.5-3.5-5.5c-3.2,0-3.5,2.3-3.5,5.5c0,3.2,0.3,5.5,3.5,5.5
				C229.8,348.5,230.1,346.2,230.1,343z"/>
			<path class="st1" d="M233.8,335.9h2l5.7,10.4v-10.4h1.8V350h-1.7l-6-10.9V350h-1.7V335.9z"/>
			<path class="st1" d="M248.7,337.6h-4v-1.7h9.8v1.7h-4V350h-1.8V337.6z"/>
			<path class="st1" d="M258.1,335.8h1.9l4.3,14.2h-1.9l-0.9-2.9h-5.2l-0.8,2.9h-1.8L258.1,335.8z M261.1,345.4l-2.1-7l-2.1,7H261.1
				z"/>
			<path class="st1" d="M265.4,345.3v-9.4h1.8v9.3c0,2.2,0.6,3.3,3,3.3c2.4,0,3-1.1,3-3.3v-9.3h1.8v9.4c0,3.1-1,4.9-4.8,4.9
				C266.5,350.2,265.4,348.4,265.4,345.3z"/>
			<path class="st1" d="M277.4,335.9h4.5c2.8,0,4.1,1,4.1,3.6c0,1.8-0.7,2.8-1.7,3.1c1.3,0.4,2,1.4,2,3.5c0,2.9-1.7,3.9-4.3,3.9
				h-4.6V335.9z M281.8,341.9c1.5,0,2.3-0.5,2.3-2.2c0-1.7-0.8-2.2-2.3-2.2h-2.6v4.4H281.8z M281.9,348.4c1.5,0,2.5-0.5,2.5-2.4
				c0-1.9-1-2.4-2.5-2.4h-2.8v4.8H281.9z"/>
			<path class="st1" d="M291.4,335.8h1.9l4.3,14.2h-1.9l-0.9-2.9h-5.2l-0.8,2.9h-1.8L291.4,335.8z M294.5,345.4l-2.1-7l-2.1,7H294.5
				z"/>
			<path class="st1" d="M299.3,335.9h2l5.7,10.4v-10.4h1.8V350h-1.7l-6-10.9V350h-1.7V335.9z"/>
		</g>
	</g>
	<g>
		<g>
			<g class="st6">
				<path class="st7" d="M32.1,486.3h-5.6v-2.4h13.9v2.4h-5.6v17.6h-2.6V486.3z"/>
				<path class="st7" d="M41,493.9c0-5.5,0.9-10.2,7.6-10.2c6.7,0,7.6,4.7,7.6,10.2s-0.8,10.2-7.6,10.2
					C41.8,504.2,41,499.5,41,493.9z M53.5,494c0-4.5-0.5-7.8-4.9-7.8c-4.5,0-5,3.3-5,7.8s0.5,7.8,5,7.8
					C53.1,501.8,53.5,498.5,53.5,494z"/>
				<path class="st7" d="M58.5,497.3v-13.3h2.6v13.1c0,3.1,0.8,4.7,4.2,4.7c3.4,0,4.3-1.6,4.3-4.7v-13.1h2.5v13.3
					c0,4.4-1.5,6.9-6.8,6.9C60.1,504.2,58.5,501.7,58.5,497.3z"/>
				<path class="st7" d="M75.5,483.9h2.6v17.7h8.2v2.3H75.5V483.9z"/>
				<path class="st7" d="M86.9,493.9c0-5.5,0.9-10.2,7.6-10.2c6.7,0,7.6,4.7,7.6,10.2s-0.8,10.2-7.6,10.2
					C87.8,504.2,86.9,499.5,86.9,493.9z M99.5,494c0-4.5-0.5-7.8-4.9-7.8c-4.5,0-5,3.3-5,7.8s0.5,7.8,5,7.8
					C99,501.8,99.5,498.5,99.5,494z"/>
				<path class="st7" d="M104.5,497.3v-13.3h2.6v13.1c0,3.1,0.8,4.7,4.2,4.7c3.4,0,4.3-1.6,4.3-4.7v-13.1h2.5v13.3
					c0,4.4-1.5,6.9-6.8,6.9C106.1,504.2,104.5,501.7,104.5,497.3z"/>
				<path class="st7" d="M120.3,502.5l1.3-2c1,0.6,2.7,1.4,5.2,1.4c2.6,0,3.8-1.1,3.8-3c0-2.3-1.2-2.9-4.4-4.2
					c-3.3-1.4-5.1-2.6-5.1-5.7c0-3.2,2.1-5.2,6-5.2c2.3,0,3.9,0.4,5.3,1.1l-1.1,2.2c-1-0.5-2.3-0.9-4.2-0.9c-2.4,0-3.5,1.1-3.5,2.7
					c0,1.9,0.8,2.4,3.7,3.6c4.1,1.7,5.8,2.7,5.8,6.3c0,3.3-2.1,5.3-6.3,5.3C123.7,504.2,121.6,503.4,120.3,502.5z"/>
				<path class="st7" d="M135.8,483.9h11v2.4h-8.4v6.1h8v2.4h-8v6.8h8.5v2.3h-11.1V483.9z"/>
			</g>
		</g>
	</g>
	<g>
		<g class="st6">
			<path class="st1" d="M254.8,375.6h1.5l4.3,14.2h-1.4l-1-3.2h-5.4l-1,3.2h-1.4L254.8,375.6z M257.8,385.2l-2.3-7.6l-2.3,7.6H257.8
				z"/>
			<path class="st1" d="M261.7,388.6l2.9-3.9c2.6-3.4,2.9-4.2,2.9-5.7c0-1.5-0.5-2.2-2.2-2.2c-1.2,0-2.1,0.2-2.9,0.6l-0.6-1.2
				c0.9-0.5,2-0.8,3.6-0.8c2.5,0,3.4,1.1,3.4,3.4c0,2-0.6,3.1-3.3,6.6l-2.3,3h5.7v1.2h-7.4V388.6z"/>
			<path class="st1" d="M271.2,382.7c0-5,0.7-7.2,4.3-7.2c3.5,0,4.3,2.3,4.3,7.2c0,5-0.7,7.2-4.3,7.2
				C271.9,389.9,271.2,387.7,271.2,382.7z M278.4,382.7c0-4.3-0.6-5.9-2.9-5.9c-2.3,0-2.9,1.6-2.9,5.9s0.5,5.9,2.9,5.9
				C277.8,388.6,278.4,387,278.4,382.7z"/>
		</g>
	</g>
	<g>
		<g class="st6">
			<path class="st1" d="M112.8,186.7h1.5l4.3,14.2h-1.4l-1-3.2h-5.4l-0.9,3.2h-1.4L112.8,186.7z M115.8,196.3l-2.3-7.6l-2.3,7.6
				H115.8z"/>
			<path class="st1" d="M120.1,195.3c0-5.7,0.2-8.5,5.9-8.5h0.9v1.3h-1c-3.9,0-4.2,1.8-4.4,4.6c0.6-0.8,1.7-1.2,3.2-1.2
				c3.1,0,3.6,1.7,3.6,4.5c0,3.3-0.8,5-4,5C120.6,201,120.1,199,120.1,195.3z M127,196c0-2.2-0.5-3.3-2.6-3.3
				c-1.7,0-2.9,0.9-2.9,3.2c0,2.7,0.5,3.9,2.9,3.9C126.6,199.7,127,198.5,127,196z"/>
			<path class="st1" d="M130,200.1l0.6-1.1c0.7,0.4,1.6,0.7,3,0.7c1.9,0,2.8-0.6,2.8-3.4c0-2.8-0.9-3.3-2.6-3.3
				c-1.1,0-1.9,0.4-2.4,0.8l-1.1-0.3l0.3-6.7h6.4v1.3h-5.2l-0.2,4.3c0.5-0.4,1.3-0.6,2.5-0.6c2.5,0,3.6,0.9,3.6,4.6
				c0,3.9-1.3,4.8-4.1,4.8C132,201,130.9,200.6,130,200.1z"/>
		</g>
	</g>
	<g>
		<g class="st6">
			<path class="st1" d="M27,44.3h1.5l4.3,14.2h-1.4l-1-3.2h-5.4l-0.9,3.2h-1.4L27,44.3z M30,53.9l-2.3-7.6l-2.3,7.6H30z"/>
			<path class="st1" d="M34.3,52.9c0-5.7,0.2-8.5,5.9-8.5h0.9v1.3h-1c-3.9,0-4.2,1.8-4.4,4.6c0.6-0.8,1.7-1.2,3.2-1.2
				c3.1,0,3.6,1.7,3.6,4.5c0,3.3-0.8,5-4,5C34.8,58.6,34.3,56.6,34.3,52.9z M41.2,53.6c0-2.2-0.5-3.3-2.6-3.3
				c-1.7,0-2.9,0.9-2.9,3.2c0,2.7,0.5,3.9,2.9,3.9C40.8,57.3,41.2,56.1,41.2,53.6z"/>
			<path class="st1" d="M43.9,57.8l0.6-1.1c0.8,0.4,1.6,0.7,2.8,0.7c1.9,0,2.7-0.8,2.7-3c0-1.7-0.3-2.8-2.8-2.8h-1.6v-1.3h1.7
				c1.9,0,2.3-1.1,2.3-2.4c0-1.9-0.7-2.3-2.3-2.3c-1,0-1.9,0.3-2.7,0.6L44.1,45c0.9-0.5,2.1-0.8,3.4-0.8c2.2,0,3.5,0.6,3.5,3.4
				c0,1.9-0.5,2.8-1.5,3.2c1.4,0.4,1.9,1.3,1.9,3.7c0,3.1-1.3,4.2-4,4.2C45.8,58.6,44.9,58.3,43.9,57.8z"/>
		</g>
	</g>
	<g>
		<g class="st6">
			<path class="st1" d="M171.2,69.5h1.5l4.3,14.2h-1.4l-1-3.2h-5.4l-0.9,3.2h-1.4L171.2,69.5z M174.2,79.2l-2.3-7.6l-2.3,7.6H174.2z
				"/>
			<path class="st1" d="M178.4,79.7c0-1.8,0.2-3.2,2-3.8c-1.4-0.5-1.6-1.7-1.6-3.1c0-1.8,0.6-3.4,3.8-3.4c3.2,0,3.8,1.6,3.8,3.4
				c0,1.4-0.2,2.6-1.6,3.1c1.8,0.5,2,2,2,3.8c0,2.2-0.6,4.1-4.2,4.1C179,83.9,178.4,81.9,178.4,79.7z M185.4,79.6
				c0-1.7-0.4-2.9-2.8-2.9c-2.3,0-2.8,1.2-2.8,2.9c0,1.7,0.5,3,2.8,3C184.9,82.6,185.4,81.3,185.4,79.6z M185,73.1
				c0-1.4-0.5-2.4-2.4-2.4c-2,0-2.4,1-2.4,2.4c0,1.4,0.5,2.3,2.4,2.3C184.6,75.4,185,74.5,185,73.1z"/>
			<path class="st1" d="M189.9,82.5h1c3.8,0,4.2-1.7,4.4-4.6c-0.6,0.8-1.7,1.2-3.2,1.2c-3.1,0-3.6-1.8-3.6-4.5c0-3.3,0.8-5.1,4-5.1
				c3.8,0,4.3,2,4.3,5.7c0,5.7-0.2,8.5-5.9,8.5h-0.9V82.5z M195.3,74.7c0-2.7-0.5-3.9-2.9-3.9c-2.1,0-2.6,1.3-2.6,3.8
				c0,2.2,0.5,3.3,2.6,3.3C194.1,77.9,195.3,76.9,195.3,74.7z"/>
		</g>
	</g>
	<g>
		<g class="st6">
			<path class="st1" d="M202,27.5h1.5l4.3,14.2h-1.4l-1-3.2h-5.4l-0.9,3.2h-1.4L202,27.5z M205.1,37.2l-2.3-7.6l-2.3,7.6H205.1z"/>
			<path class="st1" d="M210.8,28.9h-2.1v-1.3h3.5v14.1h-1.4V28.9z"/>
			<path class="st1" d="M215,34.7c0-5,0.7-7.2,4.3-7.2c3.5,0,4.3,2.3,4.3,7.2c0,5-0.7,7.2-4.3,7.2C215.7,41.9,215,39.7,215,34.7z
				 M222.2,34.7c0-4.3-0.6-5.9-2.9-5.9c-2.3,0-2.9,1.6-2.9,5.9s0.5,5.9,2.9,5.9C221.6,40.6,222.2,39,222.2,34.7z"/>
		</g>
	</g>
	<g>
		<g class="st6">
			<path class="st1" d="M168.7,473h1.5l4.3,14.2H173l-1-3.2h-5.4l-1,3.2h-1.4L168.7,473z M171.7,482.6l-2.3-7.6l-2.3,7.6H171.7z"/>
			<path class="st1" d="M176,481.5c0-5.7,0.2-8.5,5.9-8.5h0.9v1.3h-1c-3.9,0-4.2,1.8-4.4,4.6c0.6-0.8,1.7-1.2,3.2-1.2
				c3.1,0,3.6,1.7,3.6,4.5c0,3.3-0.8,5-4,5C176.5,487.3,176,485.3,176,481.5z M182.9,482.3c0-2.2-0.5-3.3-2.6-3.3
				c-1.7,0-2.9,0.9-2.9,3.2c0,2.7,0.5,3.9,2.9,3.9C182.4,486,182.9,484.7,182.9,482.3z"/>
			<path class="st1" d="M187.7,474.3h-2.1V473h3.5v14.1h-1.4V474.3z"/>
		</g>
	</g>
	<g>
		<g class="st6">
			<path class="st1" d="M208.1,441.1h1.5l4.3,14.2h-1.4l-1-3.2h-5.4l-1,3.2h-1.4L208.1,441.1z M211.1,450.7l-2.3-7.6l-2.3,7.6H211.1
				z"/>
			<path class="st1" d="M215.4,449.7c0-5.7,0.2-8.5,5.9-8.5h0.9v1.3h-1c-3.9,0-4.2,1.8-4.4,4.6c0.6-0.8,1.7-1.2,3.2-1.2
				c3.1,0,3.6,1.7,3.6,4.5c0,3.3-0.8,5-4,5C215.9,455.4,215.4,453.4,215.4,449.7z M222.3,450.4c0-2.2-0.5-3.3-2.6-3.3
				c-1.7,0-2.9,0.9-2.9,3.2c0,2.7,0.5,3.9,2.9,3.9C221.8,454.1,222.3,452.9,222.3,450.4z"/>
			<path class="st1" d="M225.5,451.3c0-1.8,0.2-3.2,2-3.8c-1.4-0.5-1.6-1.7-1.6-3.1c0-1.8,0.6-3.4,3.8-3.4s3.8,1.6,3.8,3.4
				c0,1.4-0.2,2.6-1.6,3.1c1.8,0.5,2,2,2,3.8c0,2.2-0.6,4.1-4.2,4.1C226.1,455.4,225.5,453.5,225.5,451.3z M232.5,451.1
				c0-1.7-0.4-2.9-2.8-2.9s-2.8,1.2-2.8,2.9c0,1.7,0.5,3,2.8,3S232.5,452.8,232.5,451.1z M232.1,444.6c0-1.4-0.5-2.4-2.4-2.4
				c-2,0-2.4,1-2.4,2.4c0,1.4,0.5,2.3,2.4,2.3C231.7,446.9,232.1,446,232.1,444.6z"/>
		</g>
	</g>
	<g>
		<g>
			<g class="st6">
				<path class="st11" d="M23.9,536.8h-14v-14h14V536.8z"/>
				<path class="st12" d="M26.1,534.2l0.6-0.8c0.4,0.3,1.4,0.8,2.7,0.8c1.3,0,2.2-0.7,2.2-2.1c0-1-0.7-1.5-1.9-2.2
					c-1.2-0.7-2-1.3-2-2.5c0-1.9,1.3-2.9,3.1-2.9c1.3,0,2.1,0.3,2.6,0.6L33,526c-0.5-0.3-1.2-0.5-2.2-0.5c-1.3,0-2,0.7-2,1.9
					c0,0.8,0.4,1.2,1.6,1.8c1.4,0.8,2.3,1.5,2.3,2.8c0,2.1-1.4,3.1-3.2,3.1C27.8,535.1,26.8,534.6,26.1,534.2z"/>
				<path class="st12" d="M33.8,532.6c0-0.5,0.1-1.1,0.2-1.7c0.4-2.4,1.3-3.7,3.2-3.7c1.8,0,2.3,0.8,2.3,2c0,0.6-0.2,1.6-0.3,2.4
					h-4.3c-0.1,0.4-0.1,0.7-0.1,1c0,1,0.4,1.7,1.7,1.7c0.7,0,1.2-0.1,1.7-0.3l0.3,0.8c-0.6,0.2-1.3,0.4-2.1,0.4
					C34.4,535.1,33.8,534.1,33.8,532.6z M35,530.6h3.4c0.1-0.5,0.2-1,0.2-1.3c0-0.7-0.3-1.2-1.4-1.2C35.8,528,35.3,529,35,530.6z"/>
				<path class="st12" d="M40.1,532.6c0-0.5,0.1-1.1,0.2-1.7c0.4-2.4,1.2-3.7,3.2-3.7c1,0,1.5,0.2,1.9,0.4l-0.6,0.8
					c-0.3-0.2-0.7-0.3-1.4-0.3c-1.4,0-1.9,1-2.2,2.9c-0.1,0.6-0.2,1.1-0.2,1.5c0,1.1,0.4,1.7,1.6,1.7c0.4,0,0.8-0.1,1.3-0.3l0.3,0.8
					c-0.6,0.3-1.2,0.3-1.8,0.3C40.7,535.1,40.1,534.1,40.1,532.6z"/>
				<path class="st12" d="M46.2,527.3h1.2l0.5-2.2l0.9-0.2l-0.4,2.3h1.8l-0.2,0.9h-1.8l-0.8,4.8c-0.1,0.7-0.1,1.1,0.8,1.1h0.8
					l-0.2,0.9c-0.1,0-0.8,0-0.9,0c-1.6,0-1.8-0.7-1.6-2.1l0.8-4.7H46L46.2,527.3z"/>
				<path class="st12" d="M51.6,527.3h1l-1.4,7.7h-1L51.6,527.3z M52,524.8h1l-0.3,1.5h-1L52,524.8z"/>
				<path class="st12" d="M53.2,532.5c0-0.5,0.1-1,0.2-1.6c0.4-2.2,1.2-3.7,3.4-3.7c2,0,2.6,1.1,2.6,2.6c0,0.5-0.1,1.1-0.2,1.7
					c-0.4,2.3-1.1,3.7-3.4,3.7C53.8,535.1,53.2,534,53.2,532.5z M58.1,531.3c0.1-0.5,0.2-1.1,0.2-1.5c0-1-0.4-1.7-1.6-1.7
					c-1.6,0-2,1.3-2.3,2.9c-0.1,0.5-0.2,1-0.2,1.4c0,1,0.4,1.8,1.6,1.8C57.4,534.2,57.8,533,58.1,531.3z"/>
				<path class="st12" d="M61.1,527.3l0.8-0.1l-0.1,0.7c0.4-0.5,1.1-0.8,2.1-0.8c2.3,0,2.2,1.4,1.9,3L65,535h-1l0.8-4.8
					c0.3-1.3,0.3-2.1-1.3-2.1c-1.3,0-1.8,1-2.1,2.8l-0.7,4.1h-1L61.1,527.3z"/>
				<path class="st12" d="M66.2,534.4l0.5-0.8c0.4,0.3,1,0.6,2,0.6c0.7,0,1.4-0.3,1.4-1.4c0-0.6-0.4-0.9-1.3-1.5
					c-0.9-0.6-1.6-1.1-1.6-2c0-1.6,1.1-2.2,2.4-2.2c1,0,1.7,0.2,2.1,0.5l-0.5,0.8c-0.4-0.2-0.8-0.4-1.6-0.4c-0.8,0-1.3,0.4-1.3,1.3
					c0,0.6,0.5,0.9,1.2,1.4c1,0.6,1.5,1.1,1.5,2.1c0,1.7-1.2,2.3-2.4,2.3C67.5,535.1,66.7,534.8,66.2,534.4z"/>
				<path class="st12" d="M76.2,535c-1.4,0-1.6-0.6-1.4-1.8l1.6-9h1l-1.6,9c-0.1,0.6-0.1,0.9,0.8,0.9l-0.2,0.9
					C76.5,535,76.4,535,76.2,535z"/>
				<path class="st12" d="M77.8,532.6c0-0.5,0.1-1.1,0.2-1.7c0.4-2.4,1.3-3.7,3.2-3.7c1.8,0,2.3,0.8,2.3,2c0,0.6-0.2,1.6-0.3,2.4
					h-4.3c-0.1,0.4-0.1,0.7-0.1,1c0,1,0.4,1.7,1.7,1.7c0.7,0,1.2-0.1,1.7-0.3l0.3,0.8c-0.6,0.2-1.3,0.4-2.1,0.4
					C78.4,535.1,77.8,534.1,77.8,532.6z M79,530.6h3.4c0.1-0.5,0.2-1,0.2-1.3c0-0.7-0.3-1.2-1.4-1.2C79.8,528,79.3,529,79,530.6z"/>
				<path class="st12" d="M83.5,534.4l0.5-0.8c0.4,0.3,1,0.6,2,0.6c0.7,0,1.4-0.3,1.4-1.4c0-0.6-0.4-0.9-1.3-1.5
					c-0.9-0.6-1.6-1.1-1.6-2c0-1.6,1.1-2.2,2.4-2.2c1,0,1.7,0.2,2.1,0.5l-0.5,0.8c-0.4-0.2-0.8-0.4-1.6-0.4c-0.8,0-1.3,0.4-1.3,1.3
					c0,0.6,0.5,0.9,1.2,1.4c1,0.6,1.5,1.1,1.5,2.1c0,1.7-1.2,2.3-2.4,2.3C84.8,535.1,84,534.8,83.5,534.4z"/>
				<path class="st12" d="M93.1,527.3l0.8-0.1l-0.1,0.7c0.4-0.5,1.1-0.8,2.1-0.8c1.1,0,1.6,0.2,1.8,0.9c0.4-0.6,1.2-0.9,2.3-0.9
					c2.2,0,2.1,1.4,1.8,3L101,535h-1l0.8-4.8c0.2-1.3,0.3-2.1-1.2-2.1c-1.3,0-1.7,1-2,2.8l-0.7,4.1h-1l0.8-4.8
					c0.3-1.3,0.3-2.1-1.2-2.1c-1.3,0-1.7,1-2,2.8l-0.7,4.1h-1L93.1,527.3z"/>
				<path class="st12" d="M102.7,532.5c0-0.5,0.1-1,0.2-1.6c0.4-2.2,1.2-3.7,3.4-3.7c2,0,2.6,1.1,2.6,2.6c0,0.5-0.1,1.1-0.2,1.7
					c-0.4,2.3-1.1,3.7-3.4,3.7C103.3,535.1,102.7,534,102.7,532.5z M107.6,531.3c0.1-0.5,0.2-1.1,0.2-1.5c0-1-0.4-1.7-1.6-1.7
					c-1.6,0-2,1.3-2.3,2.9c-0.1,0.5-0.2,1-0.2,1.4c0,1,0.4,1.8,1.6,1.8C106.9,534.2,107.3,533,107.6,531.3z"/>
				<path class="st12" d="M110.7,527.3h1l-1.4,7.7h-1L110.7,527.3z M111.2,524.8h1l-0.3,1.5h-1L111.2,524.8z"/>
				<path class="st12" d="M113.4,527.3l0.8-0.1l-0.1,0.7c0.4-0.5,1.1-0.8,2.1-0.8c2.3,0,2.2,1.4,1.9,3l-0.9,4.9h-1l0.8-4.8
					c0.3-1.3,0.3-2.1-1.3-2.1c-1.3,0-1.8,1-2.1,2.8l-0.7,4.1h-1L113.4,527.3z"/>
				<path class="st12" d="M118.5,534.4l0.5-0.8c0.4,0.3,1,0.6,2,0.6c0.7,0,1.4-0.3,1.4-1.4c0-0.6-0.4-0.9-1.3-1.5
					c-0.9-0.6-1.6-1.1-1.6-2c0-1.6,1.1-2.2,2.4-2.2c1,0,1.7,0.2,2.1,0.5l-0.5,0.8c-0.4-0.2-0.8-0.4-1.6-0.4c-0.8,0-1.3,0.4-1.3,1.3
					c0,0.6,0.5,0.9,1.2,1.4c1,0.6,1.5,1.1,1.5,2.1c0,1.7-1.2,2.3-2.4,2.3C119.8,535.1,119.1,534.8,118.5,534.4z"/>
				<path class="st12" d="M127,532.6c0-0.5,0.1-1.1,0.2-1.7c0.4-2.4,1.2-3.7,3.2-3.7c1,0,1.5,0.2,1.9,0.4l-0.6,0.8
					c-0.3-0.2-0.7-0.3-1.4-0.3c-1.4,0-1.9,1-2.2,2.9c-0.1,0.6-0.2,1.1-0.2,1.5c0,1.1,0.4,1.7,1.6,1.7c0.4,0,0.8-0.1,1.3-0.3l0.3,0.8
					c-0.6,0.3-1.2,0.3-1.8,0.3C127.6,535.1,127,534.1,127,532.6z"/>
				<path class="st12" d="M134.3,524.2h1l-0.7,3.7c0.4-0.4,1-0.8,2-0.8c2.3,0,2.2,1.4,1.9,3l-0.9,4.9h-1l0.8-4.8
					c0.2-1.3,0.3-2.1-1.3-2.1c-1.4,0-1.8,1-2.1,2.8l-0.7,4.1h-1L134.3,524.2z"/>
				<path class="st12" d="M139.5,532.6c0-0.5,0.1-1.1,0.2-1.7c0.4-2.4,1.3-3.7,3.2-3.7c1.8,0,2.3,0.8,2.3,2c0,0.6-0.2,1.6-0.3,2.4
					h-4.3c-0.1,0.4-0.1,0.7-0.1,1c0,1,0.4,1.7,1.7,1.7c0.7,0,1.2-0.1,1.7-0.3l0.3,0.8c-0.6,0.2-1.3,0.4-2.1,0.4
					C140.1,535.1,139.5,534.1,139.5,532.6z M140.7,530.6h3.4c0.1-0.5,0.2-1,0.2-1.3c0-0.7-0.3-1.2-1.4-1.2
					C141.5,528,141,529,140.7,530.6z M141.6,524.3h1.1l1.2,2.2H143L141.6,524.3z"/>
				<path class="st12" d="M147,527.3l0.8-0.1l-0.1,0.8c0.4-0.5,1.1-0.9,2.3-0.9l-0.2,1c-1.9,0-2.2,1.3-2.5,2.8l-0.7,4h-1L147,527.3z
					"/>
				<path class="st12" d="M149.6,532.6c0-0.5,0.1-1.1,0.2-1.7c0.4-2.4,1.3-3.7,3.2-3.7c1.8,0,2.3,0.8,2.3,2c0,0.6-0.2,1.6-0.3,2.4
					h-4.3c-0.1,0.4-0.1,0.7-0.1,1c0,1,0.4,1.7,1.7,1.7c0.7,0,1.2-0.1,1.7-0.3l0.3,0.8c-0.6,0.2-1.3,0.4-2.1,0.4
					C150.2,535.1,149.6,534.1,149.6,532.6z M150.8,530.6h3.4c0.1-0.5,0.2-1,0.2-1.3c0-0.7-0.3-1.2-1.4-1.2
					C151.6,528,151.1,529,150.8,530.6z"/>
				<path class="st12" d="M155.3,534.4l0.5-0.8c0.4,0.3,1,0.6,2,0.6c0.7,0,1.4-0.3,1.4-1.4c0-0.6-0.4-0.9-1.3-1.5
					c-0.9-0.6-1.6-1.1-1.6-2c0-1.6,1.1-2.2,2.4-2.2c1,0,1.7,0.2,2.1,0.5l-0.5,0.8c-0.3-0.2-0.8-0.4-1.6-0.4c-0.8,0-1.3,0.4-1.3,1.3
					c0,0.6,0.5,0.9,1.2,1.4c1,0.6,1.5,1.1,1.5,2.1c0,1.7-1.2,2.3-2.4,2.3C156.6,535.1,155.8,534.8,155.3,534.4z"/>
				<path class="st10" d="M182.8,536.8h-14v-14h14V536.8z"/>
				<path class="st12" d="M185,534.2l0.6-0.8c0.4,0.3,1.4,0.8,2.7,0.8c1.3,0,2.2-0.7,2.2-2.1c0-1-0.7-1.5-1.9-2.2
					c-1.2-0.7-2-1.3-2-2.5c0-1.9,1.3-2.9,3.1-2.9c1.3,0,2.1,0.3,2.6,0.6l-0.5,0.9c-0.5-0.3-1.2-0.5-2.2-0.5c-1.3,0-2,0.7-2,1.9
					c0,0.8,0.4,1.2,1.6,1.8c1.4,0.8,2.3,1.5,2.3,2.8c0,2.1-1.4,3.1-3.2,3.1C186.7,535.1,185.6,534.6,185,534.2z"/>
				<path class="st12" d="M192.6,532.6c0-0.5,0.1-1.1,0.2-1.7c0.4-2.4,1.3-3.7,3.2-3.7c1.8,0,2.3,0.8,2.3,2c0,0.6-0.2,1.6-0.3,2.4
					h-4.3c-0.1,0.4-0.1,0.7-0.1,1c0,1,0.4,1.7,1.7,1.7c0.7,0,1.2-0.1,1.7-0.3l0.3,0.8c-0.6,0.2-1.3,0.4-2.1,0.4
					C193.2,535.1,192.6,534.1,192.6,532.6z M193.8,530.6h3.4c0.1-0.5,0.2-1,0.2-1.3c0-0.7-0.3-1.2-1.4-1.2
					C194.6,528,194.1,529,193.8,530.6z"/>
				<path class="st12" d="M199,532.6c0-0.5,0.1-1.1,0.2-1.7c0.4-2.4,1.2-3.7,3.2-3.7c1,0,1.5,0.2,1.9,0.4l-0.6,0.8
					c-0.3-0.2-0.7-0.3-1.4-0.3c-1.4,0-1.9,1-2.2,2.9c-0.1,0.6-0.2,1.1-0.2,1.5c0,1.1,0.4,1.7,1.6,1.7c0.4,0,0.8-0.1,1.3-0.3l0.3,0.8
					c-0.6,0.3-1.2,0.3-1.8,0.3C199.6,535.1,199,534.1,199,532.6z"/>
				<path class="st12" d="M205,527.3h1.2l0.5-2.2l0.9-0.2l-0.4,2.3h1.8l-0.2,0.9H207l-0.8,4.8c-0.1,0.7-0.1,1.1,0.8,1.1h0.8
					l-0.2,0.9c-0.1,0-0.8,0-0.9,0c-1.6,0-1.8-0.7-1.6-2.1l0.8-4.7h-1.2L205,527.3z"/>
				<path class="st12" d="M210.4,527.3h1l-1.4,7.7h-1L210.4,527.3z M210.9,524.8h1l-0.3,1.5h-1L210.9,524.8z"/>
				<path class="st12" d="M212,532.5c0-0.5,0.1-1,0.2-1.6c0.4-2.2,1.2-3.7,3.4-3.7c2,0,2.6,1.1,2.6,2.6c0,0.5-0.1,1.1-0.2,1.7
					c-0.4,2.3-1.1,3.7-3.4,3.7C212.6,535.1,212,534,212,532.5z M216.9,531.3c0.1-0.5,0.2-1.1,0.2-1.5c0-1-0.3-1.7-1.6-1.7
					c-1.6,0-2,1.3-2.3,2.9c-0.1,0.5-0.2,1-0.2,1.4c0,1,0.4,1.8,1.6,1.8C216.2,534.2,216.6,533,216.9,531.3z"/>
				<path class="st12" d="M219.9,527.3l0.8-0.1l-0.1,0.7c0.4-0.5,1.1-0.8,2.1-0.8c2.3,0,2.2,1.4,1.9,3l-0.9,4.9h-1l0.8-4.8
					c0.3-1.3,0.3-2.1-1.3-2.1c-1.3,0-1.8,1-2.1,2.8l-0.7,4.1h-1L219.9,527.3z"/>
				<path class="st12" d="M225,534.4l0.5-0.8c0.4,0.3,1,0.6,2,0.6c0.7,0,1.4-0.3,1.4-1.4c0-0.6-0.4-0.9-1.3-1.5
					c-0.9-0.6-1.6-1.1-1.6-2c0-1.6,1.1-2.2,2.4-2.2c1,0,1.7,0.2,2.1,0.5l-0.5,0.8c-0.3-0.2-0.8-0.4-1.6-0.4c-0.8,0-1.3,0.4-1.3,1.3
					c0,0.6,0.5,0.9,1.2,1.4c1,0.6,1.5,1.1,1.5,2.1c0,1.7-1.2,2.3-2.4,2.3C226.3,535.1,225.6,534.8,225,534.4z"/>
				<path class="st12" d="M235,535c-1.4,0-1.6-0.6-1.4-1.8l1.6-9h1l-1.6,9c-0.1,0.6-0.1,0.9,0.8,0.9l-0.2,0.9
					C235.3,535,235.2,535,235,535z"/>
				<path class="st12" d="M236.7,532.6c0-0.5,0.1-1.1,0.2-1.7c0.4-2.4,1.3-3.7,3.2-3.7c1.8,0,2.3,0.8,2.3,2c0,0.6-0.2,1.6-0.3,2.4
					h-4.3c-0.1,0.4-0.1,0.7-0.1,1c0,1,0.4,1.7,1.7,1.7c0.7,0,1.2-0.1,1.7-0.3l0.3,0.8c-0.6,0.2-1.3,0.4-2.1,0.4
					C237.2,535.1,236.7,534.1,236.7,532.6z M237.9,530.6h3.4c0.1-0.5,0.2-1,0.2-1.3c0-0.7-0.3-1.2-1.4-1.2
					C238.6,528,238.2,529,237.9,530.6z"/>
				<path class="st12" d="M242.3,534.4l0.5-0.8c0.4,0.3,1,0.6,2,0.6c0.7,0,1.4-0.3,1.4-1.4c0-0.6-0.4-0.9-1.3-1.5
					c-0.9-0.6-1.6-1.1-1.6-2c0-1.6,1.1-2.2,2.4-2.2c1,0,1.7,0.2,2.1,0.5l-0.5,0.8c-0.3-0.2-0.8-0.4-1.6-0.4c-0.8,0-1.3,0.4-1.3,1.3
					c0,0.6,0.5,0.9,1.2,1.4c1,0.6,1.5,1.1,1.5,2.1c0,1.7-1.2,2.3-2.4,2.3C243.6,535.1,242.9,534.8,242.3,534.4z"/>
				<path class="st12" d="M251.9,527.3l0.8-0.1l-0.1,0.7c0.5-0.5,1.2-0.8,2.3-0.8c1.7,0,2.2,1,2.2,2.4c0,0.6-0.1,1.2-0.2,1.8
					c-0.4,2.1-1,3.7-2.9,3.7c-1.4,0-2-0.4-2.3-1l-0.5,3.1h-1L251.9,527.3z M255.9,531.3c0.1-0.6,0.2-1.1,0.2-1.6
					c0-1-0.3-1.6-1.5-1.6c-1.7,0-2,1.2-2.3,2.9c-0.1,0.5-0.2,1-0.2,1.5c0,1,0.4,1.7,1.7,1.7C255.2,534.2,255.6,533,255.9,531.3z"/>
				<path class="st12" d="M259.3,535c-1.4,0-1.6-0.6-1.4-1.8l1.6-9h1l-1.6,9c-0.1,0.6-0.1,0.9,0.8,0.9l-0.2,0.9
					C259.6,535,259.5,535,259.3,535z"/>
				<path class="st12" d="M261.2,532l0.8-4.8h1l-0.8,4.8c-0.2,1.2-0.3,2.1,1.3,2.1c1.3,0,1.5-0.6,1.8-1.9l0.9-5h1l-0.9,5.1
					c-0.3,1.9-0.8,2.7-2.8,2.7C261.1,535.1,260.9,533.9,261.2,532z"/>
				<path class="st12" d="M267,534.4l0.5-0.8c0.4,0.3,1,0.6,2,0.6c0.7,0,1.4-0.3,1.4-1.4c0-0.6-0.4-0.9-1.3-1.5
					c-0.9-0.6-1.6-1.1-1.6-2c0-1.6,1.1-2.2,2.4-2.2c1,0,1.7,0.2,2.1,0.5l-0.5,0.8c-0.3-0.2-0.8-0.4-1.6-0.4c-0.8,0-1.3,0.4-1.3,1.3
					c0,0.6,0.5,0.9,1.2,1.4c1,0.6,1.5,1.1,1.5,2.1c0,1.7-1.2,2.3-2.4,2.3C268.3,535.1,267.6,534.8,267,534.4z"/>
				<path class="st12" d="M275.5,532.6c0-0.5,0.1-1.1,0.2-1.7c0.4-2.4,1.2-3.7,3.2-3.7c1,0,1.5,0.2,1.9,0.4l-0.6,0.8
					c-0.3-0.2-0.7-0.3-1.4-0.3c-1.4,0-1.9,1-2.2,2.9c-0.1,0.6-0.2,1.1-0.2,1.5c0,1.1,0.4,1.7,1.6,1.7c0.4,0,0.8-0.1,1.3-0.3l0.3,0.8
					c-0.6,0.3-1.2,0.3-1.8,0.3C276.1,535.1,275.5,534.1,275.5,532.6z"/>
				<path class="st12" d="M282.8,524.2h1l-0.7,3.7c0.4-0.4,1-0.8,2-0.8c2.3,0,2.2,1.4,1.9,3l-0.9,4.9h-1l0.8-4.8
					c0.2-1.3,0.3-2.1-1.3-2.1c-1.4,0-1.8,1-2.1,2.8l-0.7,4.1h-1L282.8,524.2z"/>
				<path class="st12" d="M288,532.6c0-0.5,0.1-1.1,0.2-1.7c0.4-2.4,1.3-3.7,3.2-3.7c1.8,0,2.3,0.8,2.3,2c0,0.6-0.2,1.6-0.3,2.4
					h-4.3c-0.1,0.4-0.1,0.7-0.1,1c0,1,0.4,1.7,1.7,1.7c0.7,0,1.2-0.1,1.7-0.3l0.3,0.8c-0.6,0.2-1.3,0.4-2.1,0.4
					C288.6,535.1,288,534.1,288,532.6z M289.2,530.6h3.4c0.1-0.5,0.2-1,0.2-1.3c0-0.7-0.3-1.2-1.4-1.2
					C290,528,289.5,529,289.2,530.6z M290.1,524.3h1.1l1.2,2.2h-0.9L290.1,524.3z"/>
				<path class="st12" d="M295.5,527.3l0.8-0.1l-0.1,0.8c0.4-0.5,1.1-0.9,2.3-0.9l-0.2,1c-1.9,0-2.2,1.3-2.5,2.8l-0.7,4h-1
					L295.5,527.3z"/>
				<path class="st12" d="M298.1,532.6c0-0.5,0.1-1.1,0.2-1.7c0.4-2.4,1.3-3.7,3.2-3.7c1.8,0,2.3,0.8,2.3,2c0,0.6-0.2,1.6-0.3,2.4
					h-4.3c-0.1,0.4-0.1,0.7-0.1,1c0,1,0.4,1.7,1.7,1.7c0.7,0,1.2-0.1,1.7-0.3l0.3,0.8c-0.6,0.2-1.3,0.4-2.1,0.4
					C298.7,535.1,298.1,534.1,298.1,532.6z M299.3,530.6h3.4c0.1-0.5,0.2-1,0.2-1.3c0-0.7-0.3-1.2-1.4-1.2
					C300.1,528,299.7,529,299.3,530.6z"/>
				<path class="st12" d="M303.8,534.4l0.5-0.8c0.4,0.3,1,0.6,2,0.6c0.7,0,1.4-0.3,1.4-1.4c0-0.6-0.4-0.9-1.3-1.5
					c-0.9-0.6-1.6-1.1-1.6-2c0-1.6,1.1-2.2,2.4-2.2c1,0,1.7,0.2,2.1,0.5l-0.5,0.8c-0.3-0.2-0.8-0.4-1.6-0.4c-0.8,0-1.3,0.4-1.3,1.3
					c0,0.6,0.5,0.9,1.2,1.4c1,0.6,1.5,1.1,1.5,2.1c0,1.7-1.2,2.3-2.4,2.3C305.1,535.1,304.3,534.8,303.8,534.4z"/>
			</g>
		</g>
	</g>
	<line class="st13" x1="6" y1="519.8" x2="312.1" y2="519.8"/>
	<line class="st13" x1="312.1" y1="540.3" x2="6" y2="540.3"/>
</g>
<g id="TEXTE_MASQUE" class="st15">
</g>
</svg>
