<?xml version="1.0" encoding="utf-8"?>
<!-- Generator: Adobe Illustrator 21.1.0, SVG Export Plug-In . SVG Version: 6.00 Build 0)  -->
<svg version="1.1" xmlns="http://www.w3.org/2000/svg" xmlns:xlink="http://www.w3.org/1999/xlink" x="0px" y="0px"
	 viewBox="0 0 320 529" style="enable-background:new 0 0 320 529;" xml:space="preserve">
<style type="text/css">
	.st0{fill:none;stroke:#E6E6E6;stroke-width:7;stroke-miterlimit:10;}
	.st1{fill:#E6E6E6;}
	.st2{fill:none;stroke:#FEABA6;stroke-width:9.8873;stroke-miterlimit:10;}
	.st3{fill:none;stroke:#70C25C;stroke-width:9.8873;stroke-miterlimit:10;}
	.st4{fill:none;stroke:#C5C6C8;stroke-width:7;stroke-miterlimit:10;}
	.st5{fill:none;stroke:#D42E1A;stroke-width:9.8873;stroke-miterlimit:10;}
	.st6{enable-background:new    ;}
	.st7{fill:#808080;}
	.st8{fill:#FFFFFF;stroke:#000000;stroke-width:0.5;stroke-miterlimit:10;}
	.st9{fill:none;stroke:#000000;stroke-miterlimit:10;}
	.st10{fill:#D42E1A;}
	.st11{fill:#70C25C;}
	.st12{fill:#4D4D4D;}
	.st13{fill:none;stroke:#808080;stroke-width:0.75;stroke-miterlimit:10;}
	.st14{fill:none;stroke:#000000;stroke-width:4;stroke-miterlimit:10;}
	.st15{display:none;}
	.st16{display:inline;fill:none;stroke:#E6E6E6;stroke-width:7;stroke-miterlimit:10;}
	.st17{display:inline;fill:#E6E6E6;}
	.st18{display:inline;fill:none;stroke:#FEABA6;stroke-width:9.8873;stroke-miterlimit:10;}
	.st19{display:inline;fill:none;stroke:#70C25C;stroke-width:9.8873;stroke-miterlimit:10;}
	.st20{display:inline;fill:none;stroke:#C5C6C8;stroke-width:7;stroke-miterlimit:10;}
	.st21{display:inline;fill:none;stroke:#D42E1A;stroke-width:9.8873;stroke-miterlimit:10;}
	.st22{display:inline;}
	.st23{display:inline;enable-background:new    ;}
	.st24{display:inline;fill:none;stroke:#808080;stroke-width:0.75;stroke-miterlimit:10;}
	.st25{display:inline;fill:none;stroke:#000000;stroke-width:4;stroke-miterlimit:10;}
	.st26{fill:#B0B2B3;}
	.st27{fill:none;stroke:#4A170D;stroke-width:9.8873;stroke-miterlimit:10;}
	.st28{display:inline;fill:none;stroke:#4A170D;stroke-width:9.8873;stroke-miterlimit:10;}
	.st29{fill:none;stroke:#FFFFFF;stroke-width:3.5406;stroke-miterlimit:10;}
	.st30{fill:none;stroke:#C6C6C6;stroke-width:7;stroke-miterlimit:10;}
	.st31{fill:#C6C6C6;}
	.st32{display:inline;fill:none;stroke:#FFFFFF;stroke-width:3.5406;stroke-miterlimit:10;}
	.st33{display:inline;fill:none;stroke:#C6C6C6;stroke-width:7;stroke-miterlimit:10;}
	.st34{display:inline;fill:#C6C6C6;}
	.st35{font-family:'AntennaCond-Light';}
	.st36{font-size:19px;}
	.st37{font-family:'AntennaCond-Medium';}
	.st38{font-size:18px;}
	.st39{font-family:'AntennaCond-Regular';}
	.st40{font-size:27px;}
	.st41{font-family:'Webdings';}
	.st42{font-size:14px;}
	.st43{font-family:'AntennaCond-LightItalic';}
	.st44{fill:none;stroke:#C5C6C8;stroke-width:16.301;stroke-miterlimit:10;}
	.st45{display:inline;fill:none;stroke:#C5C6C8;stroke-width:16.301;stroke-miterlimit:10;}
	.st46{fill:none;stroke:#C5C6C8;stroke-width:13.3148;stroke-miterlimit:10;}
	.st47{fill:none;stroke:#FFFFFF;stroke-width:3.3287;stroke-miterlimit:10;}
	.st48{display:inline;fill:none;stroke:#C5C6C8;stroke-width:13.3148;stroke-miterlimit:10;}
	.st49{display:inline;fill:none;stroke:#FFFFFF;stroke-width:3.3287;stroke-miterlimit:10;}
	.st50{fill:none;stroke:#FFFFFF;stroke-width:2.4718;stroke-miterlimit:10;}
	.st51{font-size:20px;}
</style>
<g id="A63_Source">
</g>
<g id="A63" class="st15">
</g>
<g id="A20">
</g>
<g id="A837" class="st15">
</g>
<g id="A10_Source">
</g>
<g id="A10" class="st15">
</g>
<g id="A89_Source" class="st15">
	<g class="st22">
		<g>
			
				<ellipse transform="matrix(0.7071 -0.7071 0.7071 0.7071 -268.9617 258.9633)" class="st8" cx="178.1" cy="454.1" rx="9.1" ry="9.1"/>
		</g>
	</g>
	<g class="st22">
		<g>
			
				<ellipse transform="matrix(0.7071 -0.7071 0.7071 0.7071 -7.7433 89.0243)" class="st8" cx="103.6" cy="53.9" rx="9.1" ry="9.1"/>
		</g>
	</g>
	
		<ellipse transform="matrix(0.7071 -0.7071 0.7071 0.7071 -145.6293 225.391)" class="st17" cx="199.3" cy="288.5" rx="7.5" ry="7.5"/>
	<line class="st20" x1="175.7" y1="426.4" x2="175.7" y2="387.8"/>
	<line class="st20" x1="103.4" y1="105.9" x2="103.4" y2="70.8"/>
	<polyline class="st20" points="116.8,120.4 103.4,107.5 103.4,103.7 	"/>
	<line class="st18" x1="128.5" y1="131.7" x2="116.8" y2="120.4"/>
	<polyline class="st19" points="142.9,148.3 142.9,145.6 128.5,131.7 	"/>
	<line class="st19" x1="142.9" y1="185.6" x2="142.9" y2="148.3"/>
	<line class="st19" x1="142.9" y1="226.3" x2="142.9" y2="185.6"/>
	<polyline class="st19" points="151.2,239.7 142.9,231.2 142.9,226.3 	"/>
	<line class="st18" x1="168.9" y1="257.7" x2="151.2" y2="239.7"/>
	<polyline class="st18" points="175.7,271.8 175.7,264.6 168.9,257.7 	"/>
	<line class="st18" x1="175.7" y1="286.6" x2="175.7" y2="271.8"/>
	<line class="st18" x1="175.7" y1="307.5" x2="175.7" y2="286.6"/>
	<line class="st21" x1="175.7" y1="328.6" x2="175.7" y2="307.5"/>
	<line class="st18" x1="175.7" y1="331.9" x2="175.7" y2="328.6"/>
	<line class="st18" x1="175.7" y1="372.8" x2="175.7" y2="331.9"/>
	<line class="st18" x1="175.7" y1="387.8" x2="175.7" y2="372.8"/>
	<g class="st22">
		<text transform="matrix(1 0 0 1 123.5941 449.6415)" class="st1 st35 st36">A20</text>
	</g>
	<g class="st22">
		<text transform="matrix(1 0 0 1 207.7465 465.9051)" class="st1 st35 st36">A89</text>
	</g>
	<g class="st22">
		<text transform="matrix(1 0 0 1 134.1104 73.1952)" class="st1 st35 st36">A10</text>
	</g>
	<g class="st22">
		<text transform="matrix(1 0 0 1 40.4024 84.253)" class="st1 st35 st36">A62</text>
	</g>
	<g class="st22">
		<text transform="matrix(1 0 0 1 42.1024 33.9415)" class="st1 st35 st36">A63</text>
	</g>
	<g class="st22">
		<text transform="matrix(1 0 0 1 16.3095 139.4208)" class="st6"><tspan x="0" y="0" class="st7 st37 st38">Libourne-</tspan><tspan x="37.5" y="21" class="st7 st37 st38">nord</tspan><tspan x="38.2" y="39" class="st10 st39 st38">n°10</tspan></text>
	</g>
	<g class="st22">
		<g>
			<line class="st9" x1="124.9" y1="134.9" x2="92.2" y2="134.9"/>
			<g>
				<polygon points="123,133.2 124.7,134.9 123,136.6 124.4,136.6 126.1,134.9 124.4,133.2 				"/>
			</g>
		</g>
	</g>
	<g class="st22">
		<text transform="matrix(1 0 0 1 54.7424 291.7061)" class="st6"><tspan x="0" y="0" class="st7 st37 st38">Périgueux est</tspan><tspan x="67.7" y="21" class="st10 st39 st38">n°16</tspan></text>
	</g>
	<g class="st22">
		<g>
			<line class="st9" x1="167.3" y1="307.5" x2="157.3" y2="307.5"/>
			<g>
				<polygon points="165.4,305.8 167.1,307.5 165.4,309.2 166.8,309.2 168.5,307.5 166.8,305.8 				"/>
			</g>
		</g>
	</g>
	<g class="st22">
		<g>
			<text transform="matrix(1 0 0 1 40.3566 333.9806)" class="st6"><tspan x="0" y="0" class="st7 st37 st38">La Bachellerie</tspan><tspan x="58.9" y="18" class="st10 st39 st38">Péage</tspan></text>
		</g>
	</g>
	<g class="st22">
		<g>
			<line class="st9" x1="170" y1="328.3" x2="148.6" y2="328.3"/>
			<g>
				<polygon points="168.1,326.6 169.8,328.3 168.1,330 169.5,330 171.2,328.3 169.5,326.6 				"/>
			</g>
		</g>
	</g>
	<g class="st22">
		<g>
			<line class="st9" x1="179.4" y1="387.8" x2="197.7" y2="387.8"/>
			<g>
				<polygon points="181.4,389.5 179.7,387.8 181.4,386.1 179.9,386.1 178.2,387.8 179.9,389.5 				"/>
			</g>
		</g>
	</g>
	<g class="st22">
		<text transform="matrix(1 0 0 1 200.7259 392.8309)" class="st6"><tspan x="0" y="0" class="st7 st37 st38">Brive ouest</tspan><tspan x="0" y="18" class="st10 st39 st38">n°19</tspan></text>
	</g>
	<g class="st22">
		<g>
			<line class="st9" x1="120.2" y1="117.7" x2="166.8" y2="117.7"/>
			<g>
				<polygon points="122.2,119.4 120.5,117.7 122.2,116 120.7,116 119,117.7 120.7,119.4 				"/>
			</g>
		</g>
	</g>
	<g class="st22">
		<g>
			<text transform="matrix(1 0 0 1 169.2226 107.1363)" class="st6"><tspan x="0" y="0" class="st7 st37 st38">Arveyres</tspan><tspan x="0" y="18" class="st10 st39 st38">Péage</tspan></text>
		</g>
	</g>
	<line class="st16" x1="227.7" y1="429.9" x2="149.5" y2="429.9"/>
	<line class="st16" x1="208.8" y1="449.6" x2="208.8" y2="429.9"/>
	<line class="st20" x1="103.4" y1="103.7" x2="103.4" y2="67.2"/>
	<line class="st16" x1="91.1" y1="63.5" x2="75.4" y2="79.2"/>
	<line class="st16" x1="76.7" y1="26.4" x2="92.5" y2="42.1"/>
	<circle class="st16" cx="103.4" cy="53.7" r="14.2"/>
	<polyline class="st16" points="112.6,61.2 130.6,79.2 142.9,79.2 	"/>
	<g class="st22">
		<text transform="matrix(1 0 0 1 121.9902 38.8425)" class="st7 st39 st40">BORDEAUX</text>
	</g>
	<text transform="matrix(1 0 0 1 6.9902 118.676)" class="st17 st39 st36">LIBOURNE</text>
	<text transform="matrix(1 0 0 1 197.3001 312.3193)" class="st17 st39 st36">PÉRIGUEUX</text>
	<g class="st22">
		<text transform="matrix(1 0 0 1 47.4827 493.4807)" class="st7 st39 st40">BRIVE-LA-GAILLARDE</text>
	</g>
	<ellipse transform="matrix(0.7071 -0.7071 0.7071 0.7071 -49.55 102.7259)" class="st17" cx="99.2" cy="111.2" rx="7.5" ry="7.5"/>
	<g class="st22">
		<g>
			<line class="st9" x1="155.9" y1="235.8" x2="202.5" y2="235.8"/>
			<g>
				<polygon points="157.9,237.5 156.2,235.8 157.9,234.1 156.4,234.1 154.7,235.8 156.4,237.5 				"/>
			</g>
		</g>
	</g>
	<g class="st22">
		<g>
			<text transform="matrix(1 0 0 1 204.9191 243.0865)" class="st6"><tspan x="0" y="0" class="st7 st37 st38">Mussidan</tspan><tspan x="0" y="18" class="st10 st39 st38">Péage</tspan></text>
		</g>
	</g>
	<g class="st22">
		<g>
			<g>
				<text transform="matrix(1 0 0 1 9.9225 518.9366)" class="st6"><tspan x="0" y="0" class="st11 st41 st42"></tspan><tspan x="14" y="1" class="st7 st43 st42"> </tspan><tspan x="16.6" y="1" class="st12 st43 st42">Sections les moins chères   </tspan><tspan x="159.4" y="0" class="st10 st41 st42"></tspan><tspan x="173.4" y="1" class="st7 st43 st42"> </tspan><tspan x="176" y="1" class="st12 st43 st42">Sections les plus chères</tspan></text>
			</g>
		</g>
		<line class="st13" x1="6" y1="504.7" x2="312.1" y2="504.7"/>
		<line class="st13" x1="312.1" y1="525.2" x2="6" y2="525.2"/>
	</g>
</g>
<g id="A89">
	<g>
		<g>
			
				<ellipse transform="matrix(0.7071 -0.7071 0.7071 0.7071 -268.9617 258.9633)" class="st8" cx="178.1" cy="454.1" rx="9.1" ry="9.1"/>
		</g>
	</g>
	<g>
		<g>
			
				<ellipse transform="matrix(0.7071 -0.7071 0.7071 0.7071 -7.7433 89.0243)" class="st8" cx="103.6" cy="53.9" rx="9.1" ry="9.1"/>
		</g>
	</g>
	
		<ellipse transform="matrix(0.7071 -0.7071 0.7071 0.7071 -145.6293 225.391)" class="st1" cx="199.3" cy="288.5" rx="7.5" ry="7.5"/>
	<line class="st4" x1="175.7" y1="426.4" x2="175.7" y2="387.8"/>
	<line class="st4" x1="103.4" y1="105.9" x2="103.4" y2="70.8"/>
	<polyline class="st4" points="116.8,120.4 103.4,107.5 103.4,103.7 	"/>
	<line class="st2" x1="128.5" y1="131.7" x2="116.8" y2="120.4"/>
	<polyline class="st3" points="142.9,148.3 142.9,145.6 128.5,131.7 	"/>
	<line class="st3" x1="142.9" y1="185.6" x2="142.9" y2="148.3"/>
	<line class="st3" x1="142.9" y1="226.3" x2="142.9" y2="185.6"/>
	<polyline class="st3" points="151.2,239.7 142.9,231.2 142.9,226.3 	"/>
	<line class="st2" x1="168.9" y1="257.7" x2="151.2" y2="239.7"/>
	<polyline class="st2" points="175.7,271.8 175.7,264.6 168.9,257.7 	"/>
	<line class="st2" x1="175.7" y1="286.6" x2="175.7" y2="271.8"/>
	<line class="st2" x1="175.7" y1="307.5" x2="175.7" y2="286.6"/>
	<line class="st5" x1="175.7" y1="328.6" x2="175.7" y2="307.5"/>
	<line class="st2" x1="175.7" y1="331.9" x2="175.7" y2="328.6"/>
	<line class="st2" x1="175.7" y1="372.8" x2="175.7" y2="331.9"/>
	<line class="st2" x1="175.7" y1="387.8" x2="175.7" y2="372.8"/>
	<g>
		<g class="st6">
			<path class="st1" d="M128.3,435.5h1.5l4.3,14.2h-1.4l-1-3.2h-5.4l-0.9,3.2H124L128.3,435.5z M131.3,445.1l-2.3-7.6l-2.3,7.6
				H131.3z"/>
			<path class="st1" d="M135.3,448.5l2.9-3.9c2.6-3.4,2.9-4.2,2.9-5.7c0-1.5-0.5-2.2-2.2-2.2c-1.2,0-2.1,0.2-2.9,0.6l-0.6-1.2
				c0.9-0.5,2-0.8,3.6-0.8c2.5,0,3.4,1.1,3.4,3.4c0,2-0.6,3.1-3.3,6.6l-2.3,3h5.7v1.2h-7.4V448.5z"/>
			<path class="st1" d="M144.8,442.6c0-5,0.7-7.2,4.3-7.2c3.5,0,4.3,2.3,4.3,7.2c0,5-0.7,7.2-4.3,7.2
				C145.5,449.8,144.8,447.6,144.8,442.6z M151.9,442.6c0-4.3-0.6-5.9-2.9-5.9c-2.3,0-2.9,1.6-2.9,5.9s0.5,5.9,2.9,5.9
				C151.4,448.5,151.9,446.9,151.9,442.6z"/>
		</g>
	</g>
	<g>
		<g class="st6">
			<path class="st1" d="M212.5,451.7h1.5l4.3,14.2h-1.4l-1-3.2h-5.4l-0.9,3.2h-1.4L212.5,451.7z M215.5,461.4l-2.3-7.6l-2.3,7.6
				H215.5z"/>
			<path class="st1" d="M219.7,461.9c0-1.8,0.2-3.2,2-3.8c-1.4-0.5-1.6-1.7-1.6-3.1c0-1.8,0.6-3.4,3.8-3.4c3.2,0,3.8,1.6,3.8,3.4
				c0,1.4-0.2,2.6-1.6,3.1c1.8,0.5,2,2,2,3.8c0,2.2-0.6,4.1-4.2,4.1C220.2,466.1,219.7,464.1,219.7,461.9z M226.7,461.8
				c0-1.7-0.4-2.9-2.8-2.9c-2.3,0-2.8,1.2-2.8,2.9c0,1.7,0.5,3,2.8,3C226.2,464.8,226.7,463.5,226.7,461.8z M226.3,455.3
				c0-1.4-0.5-2.4-2.4-2.4c-2,0-2.4,1-2.4,2.4c0,1.4,0.5,2.3,2.4,2.3C225.9,457.6,226.3,456.7,226.3,455.3z"/>
			<path class="st1" d="M231.2,464.7h1c3.8,0,4.2-1.7,4.4-4.6c-0.6,0.8-1.7,1.2-3.2,1.2c-3.1,0-3.6-1.8-3.6-4.5c0-3.3,0.8-5.1,4-5.1
				c3.8,0,4.3,2,4.3,5.7c0,5.7-0.2,8.5-5.9,8.5h-0.9V464.7z M236.5,456.8c0-2.7-0.5-3.9-2.9-3.9c-2.1,0-2.6,1.3-2.6,3.8
				c0,2.2,0.5,3.3,2.6,3.3C235.3,460.1,236.5,459.1,236.5,456.8z"/>
		</g>
	</g>
	<g>
		<g class="st6">
			<path class="st1" d="M138.9,59h1.5l4.3,14.2h-1.4l-1-3.2h-5.4l-0.9,3.2h-1.4L138.9,59z M141.9,68.7l-2.3-7.6l-2.3,7.6H141.9z"/>
			<path class="st1" d="M147.6,60.4h-2.1v-1.3h3.5v14.1h-1.4V60.4z"/>
			<path class="st1" d="M151.8,66.2c0-5,0.7-7.2,4.3-7.2c3.5,0,4.3,2.3,4.3,7.2c0,5-0.7,7.2-4.3,7.2
				C152.5,73.3,151.8,71.1,151.8,66.2z M159,66.2c0-4.3-0.6-5.9-2.9-5.9c-2.3,0-2.9,1.6-2.9,5.9s0.5,5.9,2.9,5.9
				C158.4,72.1,159,70.4,159,66.2z"/>
		</g>
	</g>
	<g>
		<g class="st6">
			<path class="st1" d="M45.2,70.1h1.5l4.3,14.2h-1.4l-1-3.2h-5.4l-0.9,3.2h-1.4L45.2,70.1z M48.2,79.7l-2.3-7.6l-2.3,7.6H48.2z"/>
			<path class="st1" d="M52.4,78.7c0-5.7,0.2-8.5,5.9-8.5h0.9v1.3h-1c-3.9,0-4.2,1.8-4.4,4.6c0.6-0.8,1.7-1.2,3.2-1.2
				c3.1,0,3.6,1.7,3.6,4.5c0,3.3-0.8,5-4,5C52.9,84.4,52.4,82.4,52.4,78.7z M59.3,79.4c0-2.2-0.5-3.3-2.6-3.3
				c-1.7,0-2.9,0.9-2.9,3.2c0,2.7,0.5,3.9,2.9,3.9C58.9,83.2,59.3,81.9,59.3,79.4z"/>
			<path class="st1" d="M62.2,83.1l2.9-3.9c2.6-3.4,2.9-4.2,2.9-5.7c0-1.5-0.5-2.2-2.2-2.2c-1.2,0-2.1,0.2-2.9,0.6l-0.6-1.2
				c0.9-0.5,2-0.8,3.6-0.8c2.5,0,3.4,1.1,3.4,3.4c0,2-0.6,3.1-3.3,6.6l-2.3,3h5.7v1.2h-7.4V83.1z"/>
		</g>
	</g>
	<g>
		<g class="st6">
			<path class="st1" d="M46.9,19.8h1.5l4.3,14.2h-1.4l-1-3.2h-5.4l-0.9,3.2h-1.4L46.9,19.8z M49.9,29.4l-2.3-7.6l-2.3,7.6H49.9z"/>
			<path class="st1" d="M54.1,28.4c0-5.7,0.2-8.5,5.9-8.5h0.9v1.3h-1c-3.9,0-4.2,1.8-4.4,4.6c0.6-0.8,1.7-1.2,3.2-1.2
				c3.1,0,3.6,1.7,3.6,4.5c0,3.3-0.8,5-4,5C54.6,34.1,54.1,32.1,54.1,28.4z M61,29.1c0-2.2-0.5-3.3-2.6-3.3c-1.7,0-2.9,0.9-2.9,3.2
				c0,2.7,0.5,3.9,2.9,3.9C60.6,32.8,61,31.6,61,29.1z"/>
			<path class="st1" d="M63.7,33.3l0.6-1.1c0.8,0.4,1.6,0.7,2.8,0.7c1.9,0,2.7-0.8,2.7-3c0-1.7-0.3-2.8-2.8-2.8h-1.6v-1.3h1.7
				c1.9,0,2.3-1.1,2.3-2.4c0-1.9-0.7-2.3-2.3-2.3c-1,0-1.9,0.3-2.7,0.6L64,20.5c0.9-0.5,2.1-0.8,3.4-0.8c2.2,0,3.5,0.6,3.5,3.4
				c0,1.9-0.5,2.8-1.5,3.2c1.4,0.4,1.9,1.3,1.9,3.7c0,3.1-1.3,4.2-4,4.2C65.6,34.1,64.7,33.8,63.7,33.3z"/>
		</g>
	</g>
	<g>
		<g class="st6">
			<path class="st7" d="M17.4,126.1h2.1v11.5h5.4v1.9h-7.5V126.1z"/>
			<path class="st7" d="M26.2,126.1h2v2.2h-2V126.1z M26.2,129.4h2v10.1h-2V129.4z"/>
			<path class="st7" d="M30.2,125.6h2v4.7c0.5-0.7,1.3-1.1,2.8-1.1c3,0,3.3,2.4,3.3,5.2c0,2.8-0.4,5.2-3.4,5.2c-1.9,0-2.4-0.4-3-1
				l-0.3,1l-1.5-0.1V125.6z M36.4,134.5c0-2-0.2-3.4-2-3.4c-2,0-2.2,1.4-2.2,3.4s0.2,3.3,2.2,3.3C36.1,137.8,36.4,136.5,36.4,134.5z
				"/>
			<path class="st7" d="M39.6,134.4c0-3,0.7-5.2,4.2-5.2c3.5,0,4.2,2.2,4.2,5.2c0,3.1-0.7,5.2-4.2,5.2
				C40.3,139.6,39.6,137.4,39.6,134.4z M45.8,134.4c0-2-0.2-3.4-2.1-3.4c-1.9,0-2.1,1.4-2.1,3.4c0,2,0.2,3.4,2.1,3.4
				C45.7,137.8,45.8,136.4,45.8,134.4z"/>
			<path class="st7" d="M49.4,135.6v-6.2h2v6.1c0,1.5,0.1,2.3,1.8,2.3c1.6,0,1.8-0.8,1.8-2.3v-6.1h2v6.2c0,2.8-0.6,4-3.8,4
				C50.1,139.6,49.4,138.3,49.4,135.6z"/>
			<path class="st7" d="M58.8,129.5l1.6-0.1l0.2,1.1c0.4-0.6,1.2-1.1,2.8-1.1v1.9c-2.4,0-2.6,1.5-2.6,3.2v5h-2V129.5z"/>
			<path class="st7" d="M64.5,129.5l1.6-0.1l0.2,0.9c0.5-0.6,1.2-1.1,3-1.1c2.5,0,2.9,1.5,2.9,3.7v6.6h-2v-6.1
				c0-1.5-0.2-2.2-1.6-2.2c-1.8,0-2.1,1-2.1,3v5.4h-2V129.5z"/>
			<path class="st7" d="M73.7,134.4c0-3.2,0.8-5.2,4.1-5.2c3.6,0,3.6,2.3,3.6,6.2h-5.7c0.1,1.7,0.5,2.5,2.2,2.5c1.3,0,2-0.3,2.6-0.6
				l0.8,1.5c-0.8,0.5-1.9,0.8-3.5,0.8C74.4,139.5,73.7,137.6,73.7,134.4z M75.7,133.6h3.9c0-1.6-0.1-2.6-1.8-2.6
				C76.1,131,75.7,131.9,75.7,133.6z"/>
			<path class="st7" d="M82.6,132.7h5v1.9h-5V132.7z"/>
			<path class="st7" d="M55,150.5l1.6-0.1l0.2,0.9c0.5-0.6,1.2-1.1,3-1.1c2.5,0,2.9,1.5,2.9,3.7v6.6h-2v-6.1c0-1.5-0.2-2.2-1.6-2.2
				c-1.8,0-2.1,1-2.1,3v5.4h-2V150.5z"/>
			<path class="st7" d="M64.2,155.4c0-3,0.7-5.2,4.2-5.2c3.5,0,4.2,2.2,4.2,5.2c0,3.1-0.7,5.2-4.2,5.2
				C64.9,160.6,64.2,158.4,64.2,155.4z M70.5,155.4c0-2-0.2-3.4-2.1-3.4c-1.9,0-2.1,1.4-2.1,3.4c0,2,0.2,3.4,2.1,3.4
				C70.3,158.8,70.5,157.4,70.5,155.4z"/>
			<path class="st7" d="M74,150.5l1.6-0.1l0.2,1.1c0.4-0.6,1.2-1.1,2.8-1.1v1.9c-2.4,0-2.6,1.5-2.6,3.2v5h-2V150.5z"/>
			<path class="st7" d="M79.1,155.3c0-2.8,0.4-5.2,3.4-5.2c1.6,0,2.3,0.3,2.8,0.9v-4.5h2v13.8l-1.6,0.1l-0.2-1
				c-0.5,0.7-1.3,1.1-3.1,1.1C79.5,160.5,79.1,158.1,79.1,155.3z M85.3,155.4c0-2-0.2-3.3-2.2-3.3c-1.7,0-2,1.3-2,3.3
				c0,2.1,0.2,3.4,2,3.4C85.1,158.8,85.3,157.4,85.3,155.4z"/>
			<path class="st10" d="M55.5,168.5l1.4-0.1l0.1,1c0.4-0.7,1.2-1.2,3-1.2c2.6,0,2.9,1.5,2.9,3.7v6.5h-1.7v-6.1
				c0-1.6-0.2-2.4-1.8-2.4c-1.9,0-2.2,1.1-2.2,3.3v5.3h-1.7V168.5z"/>
			<path class="st10" d="M64.7,169.2c0-2.4,0.6-4.2,3.3-4.2c2.7,0,3.3,1.9,3.3,4.2c0,2.4-0.6,4.2-3.3,4.2
				C65.3,173.4,64.7,171.6,64.7,169.2z M69.8,169.2c0-1.7-0.3-2.9-1.9-2.9c-1.6,0-1.9,1.2-1.9,2.9c0,1.7,0.3,2.9,1.9,2.9
				C69.6,172.1,69.8,170.9,69.8,169.2z"/>
			<path class="st10" d="M74.4,166.6h-1.9v-1.5h3.6v13.3h-1.7V166.6z"/>
			<path class="st10" d="M78.7,171.8c0-4.6,0.6-6.8,4.3-6.8c3.6,0,4.2,2.3,4.2,6.8c0,4.6-0.6,6.8-4.2,6.8
				C79.3,178.6,78.7,176.4,78.7,171.8z M85.5,171.8c0-3.8-0.5-5.2-2.5-5.2c-2.1,0-2.6,1.4-2.6,5.2c0,3.8,0.5,5.2,2.6,5.2
				C85.1,177,85.5,175.6,85.5,171.8z"/>
		</g>
	</g>
	<g>
		<g>
			<line class="st9" x1="124.9" y1="134.9" x2="92.2" y2="134.9"/>
			<g>
				<polygon points="123,133.2 124.7,134.9 123,136.6 124.4,136.6 126.1,134.9 124.4,133.2 				"/>
			</g>
		</g>
	</g>
	<g>
		<g class="st6">
			<path class="st7" d="M56.5,278.4h4.7c2.9,0,4.1,1.4,4.1,4.1c0,2.7-1.2,4.4-4.1,4.4h-2.6v4.8h-2.1V278.4z M61.1,285
				c1.5,0,2.1-0.6,2.1-2.4c0-1.8-0.7-2.4-2.1-2.4h-2.6v4.8H61.1z"/>
			<path class="st7" d="M66.1,286.6c0-3.2,0.8-5.2,4.1-5.2c3.6,0,3.6,2.3,3.6,6.2H68c0.1,1.7,0.5,2.5,2.2,2.5c1.3,0,2-0.3,2.6-0.6
				l0.8,1.5c-0.8,0.5-1.9,0.8-3.5,0.8C66.7,291.8,66.1,289.9,66.1,286.6z M68,285.9h3.9c0-1.6-0.1-2.6-1.8-2.6
				C68.5,283.2,68.1,284.2,68,285.9z M70.6,277.6h2.3l-2.5,3h-1.7L70.6,277.6z"/>
			<path class="st7" d="M75.3,281.8l1.6-0.1l0.2,1.1c0.4-0.6,1.2-1.1,2.8-1.1v1.9c-2.4,0-2.6,1.5-2.6,3.2v5h-2V281.8z"/>
			<path class="st7" d="M81.1,278.3h2v2.2h-2V278.3z M81.1,281.6h2v10.1h-2V281.6z"/>
			<path class="st7" d="M87.3,288c-0.1,0.1-0.1,0.3-0.1,0.5c0,0.5,0.3,0.6,1.5,0.6c3.2,0,4.1,0.6,4.1,2.6c0,2.2-1.3,3-4.2,3
				c-3,0-4.2-0.5-4.2-2.4c0-1.2,0.5-2,1.7-2.3c-0.4-0.3-0.6-0.8-0.6-1.3c0-0.4,0.1-0.8,0.4-1.2c-0.7-0.5-1.1-1.4-1.1-2.6
				c0-2.4,1.4-3.4,3.7-3.4c0.2,0,0.5,0,0.7,0l3.4-0.6v1.6h-1.4c0.6,0.4,1,1.2,1,2.4c0,2.5-1.5,3.3-3.7,3.3
				C88.1,288.1,87.7,288.1,87.3,288z M90.8,291.8c0-0.8-0.4-1.1-2.2-1.1c-1.7,0-2.2,0.4-2.2,1.3c0,1,0.5,1.2,2.2,1.2
				C90.4,293.2,90.8,292.8,90.8,291.8z M90.3,284.9c0-1.2-0.5-1.7-1.7-1.7c-1.2,0-1.7,0.5-1.7,1.7s0.6,1.7,1.7,1.7
				C89.8,286.5,90.3,286,90.3,284.9z"/>
			<path class="st7" d="M94.2,287.9v-6.2h2v6.1c0,1.5,0.1,2.3,1.8,2.3c1.6,0,1.8-0.8,1.8-2.3v-6.1h2v6.2c0,2.8-0.6,4-3.8,4
				C94.9,291.9,94.2,290.6,94.2,287.9z"/>
			<path class="st7" d="M103.2,286.6c0-3.2,0.8-5.2,4.1-5.2c3.6,0,3.6,2.3,3.6,6.2h-5.7c0.1,1.7,0.5,2.5,2.2,2.5
				c1.3,0,2-0.3,2.6-0.6l0.8,1.5c-0.8,0.5-1.9,0.8-3.5,0.8C103.9,291.8,103.2,289.9,103.2,286.6z M105.2,285.9h3.9
				c0-1.6-0.1-2.6-1.8-2.6C105.6,283.2,105.2,284.2,105.2,285.9z"/>
			<path class="st7" d="M112.4,287.9v-6.2h2v6.1c0,1.5,0.1,2.3,1.8,2.3c1.6,0,1.8-0.8,1.8-2.3v-6.1h2v6.2c0,2.8-0.6,4-3.8,4
				C113.1,291.9,112.4,290.6,112.4,287.9z"/>
			<path class="st7" d="M124.8,288.1l-1.9,3.6h-2.1l3-5.3l-2.7-4.8h2.2l1.8,3.1l1.7-3.1h2.1l-2.7,4.9l3,5.2h-2.2L124.8,288.1z"/>
			<path class="st7" d="M133,286.6c0-3.2,0.8-5.2,4.1-5.2c3.6,0,3.6,2.3,3.6,6.2h-5.7c0.1,1.7,0.5,2.5,2.2,2.5c1.3,0,2-0.3,2.6-0.6
				l0.8,1.5c-0.8,0.5-1.9,0.8-3.5,0.8C133.6,291.8,133,289.9,133,286.6z M134.9,285.9h3.9c0-1.6-0.1-2.6-1.8-2.6
				C135.4,283.2,135,284.2,134.9,285.9z"/>
			<path class="st7" d="M141.4,291.1l0.8-1.6c0.7,0.3,1.7,0.6,2.8,0.6c1,0,1.5-0.3,1.5-1.2c0-0.8-0.5-1.1-2-1.7
				c-1.7-0.7-2.7-1.3-2.7-3c0-2,1.3-2.9,3.4-2.9c1.3,0,2.1,0.2,2.9,0.5l-0.8,1.7c-0.6-0.2-1.3-0.4-2.1-0.4c-1,0-1.4,0.4-1.4,1
				c0,0.7,0.5,1,1.9,1.5c1.8,0.7,2.8,1.3,2.8,3.2c0,1.9-1.2,2.8-3.4,2.8C143.6,291.8,142.4,291.6,141.4,291.1z"/>
			<path class="st7" d="M149.1,281.6h1.6l0.3-2.5l1.6-0.3v2.9h2.3v1.8h-2.3v5.3c0,0.8,0.1,1.3,1.2,1.3h1.1v1.8
				c-0.3,0-1.1,0.1-1.4,0.1c-2.4,0-3-0.8-3-2.9v-5.5h-1.6V281.6z"/>
			<path class="st10" d="M123.4,302.8l1.4-0.1l0.1,1c0.4-0.7,1.2-1.2,3-1.2c2.6,0,2.9,1.5,2.9,3.7v6.5h-1.7v-6.1
				c0-1.6-0.2-2.4-1.8-2.4c-1.9,0-2.2,1.1-2.2,3.3v5.3h-1.7V302.8z"/>
			<path class="st10" d="M132.6,303.5c0-2.4,0.6-4.2,3.3-4.2c2.7,0,3.3,1.9,3.3,4.2c0,2.4-0.6,4.2-3.3,4.2
				C133.2,307.7,132.6,305.8,132.6,303.5z M137.8,303.5c0-1.7-0.3-2.9-1.9-2.9c-1.6,0-1.9,1.2-1.9,2.9c0,1.7,0.3,2.9,1.9,2.9
				C137.5,306.4,137.8,305.2,137.8,303.5z"/>
			<path class="st10" d="M142.3,300.9h-1.9v-1.5h3.6v13.3h-1.7V300.9z"/>
			<path class="st10" d="M146.6,307.3c0-5.3,0.3-7.9,5.8-7.9h1v1.5h-1.1c-3.5,0-3.8,1.5-3.9,3.9c0.5-0.7,1.5-1.1,3.1-1.1
				c3,0,3.5,1.7,3.5,4.4c0,3.2-0.8,4.8-4,4.8C147,312.9,146.6,310.9,146.6,307.3z M153.2,308.1c0-1.9-0.5-2.9-2.3-2.9
				c-1.5,0-2.6,0.8-2.6,2.8c0,2.3,0.4,3.4,2.6,3.4C152.7,311.4,153.2,310.3,153.2,308.1z"/>
		</g>
	</g>
	<g>
		<g>
			<line class="st9" x1="167.3" y1="307.5" x2="157.3" y2="307.5"/>
			<g>
				<polygon points="165.4,305.8 167.1,307.5 165.4,309.2 166.8,309.2 168.5,307.5 166.8,305.8 				"/>
			</g>
		</g>
	</g>
	<g>
		<g>
			<g class="st6">
				<path class="st7" d="M42.2,320.6h2.1v11.5h5.4v1.9h-7.5V320.6z"/>
				<path class="st7" d="M50.2,331c0-2.9,1.7-3.7,5.2-3.7h0.4c0-1.2-0.3-1.7-1.6-1.7c-1.1,0-1.9,0.3-2.5,0.5l-0.8-1.6
					c0.8-0.4,2-0.7,3.5-0.7c2.7,0,3.4,1,3.4,3.5v4.1c0,0.7,0.1,0.9,0.8,0.9v1.8c-0.2,0-0.4,0-0.6,0c-1.1,0-1.6-0.2-1.8-0.9
					c-0.6,0.7-1.5,1-2.8,1C50.9,334.1,50.2,332.9,50.2,331z M55.8,330.1v-1.2h-0.4c-2.3,0-3.3,0.3-3.3,1.9c0,1.3,0.5,1.7,1.5,1.7
					C54.9,332.4,55.8,331.9,55.8,330.1z"/>
				<path class="st7" d="M63.4,320.6h4.4c2.8,0,4,1.1,4,3.4c0,1.7-0.6,2.6-1.7,3c1.3,0.4,1.9,1.4,1.9,3.3c0,2.7-1.6,3.7-4.2,3.7
					h-4.6V320.6z M67.8,326.2c1.3,0,2-0.5,2-1.9s-0.7-1.9-2-1.9h-2.3v3.8H67.8z M67.9,332.2c1.3,0,2.1-0.5,2.1-2.1
					c0-1.6-0.8-2.1-2.1-2.1h-2.5v4.1H67.9z"/>
				<path class="st7" d="M73.3,331c0-2.9,1.7-3.7,5.2-3.7h0.4c0-1.2-0.3-1.7-1.6-1.7c-1.1,0-1.9,0.3-2.5,0.5l-0.8-1.6
					c0.8-0.4,2-0.7,3.5-0.7c2.7,0,3.4,1,3.4,3.5v4.1c0,0.7,0.1,0.9,0.8,0.9v1.8c-0.2,0-0.4,0-0.6,0c-1.1,0-1.6-0.2-1.8-0.9
					c-0.6,0.7-1.5,1-2.8,1C74,334.1,73.3,332.9,73.3,331z M78.9,330.1v-1.2h-0.4c-2.3,0-3.3,0.3-3.3,1.9c0,1.3,0.5,1.7,1.5,1.7
					C78,332.4,78.9,331.9,78.9,330.1z"/>
				<path class="st7" d="M82.7,328.9c0-3.2,0.7-5.2,4.1-5.2c1.1,0,1.9,0.2,2.6,0.5l-0.9,1.7c-0.5-0.3-1-0.4-1.6-0.4
					c-1.7,0-2.2,1.1-2.2,3.3c0,2.3,0.4,3.4,2.2,3.4c0.7,0,1.3-0.2,1.8-0.5l0.8,1.5c-0.9,0.5-1.7,0.7-2.8,0.7
					C83.5,334.1,82.7,332.1,82.7,328.9z"/>
				<path class="st7" d="M90.9,320.1h2v4.6c0.4-0.6,1.1-1,2.8-1c2.5,0,2.9,1.5,2.9,3.7v6.6h-2v-6.1c0-1.5-0.2-2.2-1.6-2.2
					c-1.7,0-2.1,0.9-2.1,3v5.4h-2V320.1z"/>
				<path class="st7" d="M100.1,328.9c0-3.2,0.8-5.2,4.1-5.2c3.6,0,3.6,2.3,3.6,6.2H102c0.1,1.7,0.5,2.5,2.2,2.5
					c1.3,0,2-0.3,2.6-0.6l0.8,1.5c-0.8,0.5-1.9,0.8-3.5,0.8C100.7,334.1,100.1,332.1,100.1,328.9z M102,328.1h3.9
					c0-1.6-0.1-2.6-1.8-2.6C102.5,325.5,102.1,326.5,102,328.1z"/>
				<path class="st7" d="M111.8,334c-1.8,0-2.4-0.6-2.4-2.5v-11.3h2v11.1c0,0.8,0.1,1,1.2,1v1.8C112.4,334,112.2,334,111.8,334z"/>
				<path class="st7" d="M116.4,334c-1.8,0-2.4-0.6-2.4-2.5v-11.3h2v11.1c0,0.8,0.1,1,1.2,1v1.8C117,334,116.8,334,116.4,334z"/>
				<path class="st7" d="M118,328.9c0-3.2,0.8-5.2,4.1-5.2c3.6,0,3.6,2.3,3.6,6.2H120c0.1,1.7,0.5,2.5,2.2,2.5c1.3,0,2-0.3,2.6-0.6
					l0.8,1.5c-0.8,0.5-1.9,0.8-3.5,0.8C118.7,334.1,118,332.1,118,328.9z M120,328.1h3.9c0-1.6-0.1-2.6-1.8-2.6
					C120.4,325.5,120,326.5,120,328.1z"/>
				<path class="st7" d="M127.2,324l1.6-0.1l0.2,1.1c0.4-0.6,1.2-1.1,2.8-1.1v1.9c-2.4,0-2.6,1.5-2.6,3.2v5h-2V324z"/>
				<path class="st7" d="M133,320.6h2v2.2h-2V320.6z M133,323.9h2V334h-2V323.9z"/>
				<path class="st7" d="M136.6,328.9c0-3.2,0.8-5.2,4.1-5.2c3.6,0,3.6,2.3,3.6,6.2h-5.7c0.1,1.7,0.5,2.5,2.2,2.5
					c1.3,0,2-0.3,2.6-0.6l0.8,1.5c-0.8,0.5-1.9,0.8-3.5,0.8C137.2,334.1,136.6,332.1,136.6,328.9z M138.5,328.1h3.9
					c0-1.6-0.1-2.6-1.8-2.6C139,325.5,138.6,326.5,138.5,328.1z"/>
				<path class="st10" d="M101.3,338.6h4.5c2.8,0,4,1.3,4,4.1c0,2.7-1.2,4.2-4,4.2H103v5.1h-1.7V338.6z M105.8,345.4
					c1.6,0,2.3-0.7,2.3-2.6s-0.7-2.6-2.3-2.6H103v5.1H105.8z"/>
				<path class="st10" d="M110.7,347c0-3.1,0.7-5.1,3.9-5.1c3.4,0,3.5,2.2,3.4,5.9h-5.8c0.1,1.9,0.5,2.9,2.4,2.9
					c1.3,0,1.9-0.3,2.5-0.6l0.6,1.3c-0.8,0.4-1.7,0.7-3.3,0.7C111.3,352.1,110.7,350.1,110.7,347z M112.3,346.2h4.2
					c0-1.8-0.1-2.9-1.9-2.9C112.8,343.3,112.4,344.4,112.3,346.2z M115.1,338h1.9l-2.4,2.9h-1.5L115.1,338z"/>
				<path class="st10" d="M119.1,349c0-2.9,1.7-3.7,5.1-3.7h0.4c0-1.3-0.3-2-1.8-2c-1,0-1.9,0.3-2.5,0.5l-0.7-1.4
					c0.8-0.4,1.9-0.7,3.3-0.7c2.7,0,3.3,1.1,3.3,3.5v4.2c0,0.8,0.1,1,0.8,1v1.5c-0.1,0-0.3,0-0.5,0c-1.1,0-1.5-0.2-1.7-1
					c-0.6,0.8-1.5,1-2.8,1C119.8,352.1,119.1,350.9,119.1,349z M124.7,348.1v-1.4h-0.4c-2.5,0-3.5,0.3-3.5,2.1
					c0,1.4,0.6,1.9,1.7,1.9C123.6,350.7,124.7,350.2,124.7,348.1z"/>
				<path class="st10" d="M130.6,348.3c-0.1,0.2-0.1,0.4-0.1,0.5c0,0.5,0.3,0.7,1.5,0.7c3,0,3.9,0.7,3.9,2.5c0,2.1-1.3,3-4,3
					c-2.8,0-4-0.6-4-2.4c0-1.2,0.5-2.1,1.7-2.4c-0.4-0.3-0.6-0.7-0.6-1.2c0-0.4,0.1-0.8,0.4-1.2c-0.7-0.5-1.1-1.3-1.1-2.6
					c0-2.4,1.3-3.3,3.5-3.3c0.3,0,0.5,0,0.8,0l3.2-0.5v1.4h-1.4c0.6,0.4,1,1.2,1,2.4c0,2.4-1.4,3.3-3.5,3.3
					C131.4,348.4,131,348.4,130.6,348.3z M134.2,352.1c0-0.9-0.4-1.3-2.3-1.3c-1.8,0-2.3,0.5-2.3,1.5c0,1.1,0.5,1.4,2.3,1.4
					C133.8,353.7,134.2,353.2,134.2,352.1z M133.8,345.2c0-1.3-0.6-1.9-1.9-1.9c-1.2,0-1.9,0.6-1.9,1.9s0.6,1.9,1.9,1.9
					C133.1,347,133.8,346.5,133.8,345.2z"/>
				<path class="st10" d="M136.9,347c0-3.1,0.7-5.1,3.9-5.1c3.4,0,3.5,2.2,3.4,5.9h-5.8c0.1,1.9,0.5,2.9,2.4,2.9
					c1.3,0,1.9-0.3,2.5-0.6l0.6,1.3c-0.8,0.4-1.7,0.7-3.3,0.7C137.5,352.1,136.9,350.1,136.9,347z M138.5,346.2h4.2
					c0-1.8-0.1-2.9-1.9-2.9C139,343.3,138.6,344.4,138.5,346.2z"/>
			</g>
		</g>
	</g>
	<g>
		<g>
			<line class="st9" x1="170" y1="328.3" x2="148.6" y2="328.3"/>
			<g>
				<polygon points="168.1,326.6 169.8,328.3 168.1,330 169.5,330 171.2,328.3 169.5,326.6 				"/>
			</g>
		</g>
	</g>
	<g>
		<g>
			<line class="st9" x1="179.4" y1="387.8" x2="197.7" y2="387.8"/>
			<g>
				<polygon points="181.4,389.5 179.7,387.8 181.4,386.1 179.9,386.1 178.2,387.8 179.9,389.5 				"/>
			</g>
		</g>
	</g>
	<g>
		<g class="st6">
			<path class="st7" d="M201.9,379.5h4.4c2.8,0,4,1.1,4,3.4c0,1.7-0.6,2.6-1.7,3c1.3,0.4,1.9,1.4,1.9,3.3c0,2.7-1.6,3.7-4.2,3.7
				h-4.6V379.5z M206.2,385.1c1.3,0,2-0.5,2-1.9s-0.7-1.9-2-1.9h-2.3v3.8H206.2z M206.4,391c1.3,0,2.1-0.5,2.1-2.1
				c0-1.6-0.8-2.1-2.1-2.1h-2.5v4.1H206.4z"/>
			<path class="st7" d="M212.2,382.9l1.6-0.1l0.2,1.1c0.4-0.6,1.2-1.1,2.8-1.1v1.9c-2.4,0-2.6,1.5-2.6,3.2v5h-2V382.9z"/>
			<path class="st7" d="M218,379.5h2v2.2h-2V379.5z M218,382.8h2v10.1h-2V382.8z"/>
			<path class="st7" d="M221.1,382.8h2.1l2.2,7.5l2.1-7.5h2l-3.2,10.1h-2.1L221.1,382.8z"/>
			<path class="st7" d="M230,387.8c0-3.2,0.8-5.2,4.1-5.2c3.6,0,3.6,2.3,3.6,6.2H232c0.1,1.7,0.5,2.5,2.2,2.5c1.3,0,2-0.3,2.6-0.6
				l0.8,1.5c-0.8,0.5-1.9,0.8-3.5,0.8C230.7,393,230,391,230,387.8z M232,387h3.9c0-1.6-0.1-2.6-1.8-2.6
				C232.4,384.4,232,385.3,232,387z"/>
			<path class="st7" d="M242,387.8c0-3,0.7-5.2,4.2-5.2c3.5,0,4.2,2.2,4.2,5.2c0,3.1-0.7,5.2-4.2,5.2C242.8,393,242,390.8,242,387.8
				z M248.3,387.8c0-2-0.2-3.4-2.1-3.4c-1.9,0-2.1,1.4-2.1,3.4c0,2,0.2,3.4,2.1,3.4C248.1,391.2,248.3,389.8,248.3,387.8z"/>
			<path class="st7" d="M251.8,389v-6.2h2v6.1c0,1.5,0.1,2.3,1.8,2.3c1.6,0,1.8-0.8,1.8-2.3v-6.1h2v6.2c0,2.8-0.6,4-3.8,4
				C252.5,393,251.8,391.7,251.8,389z"/>
			<path class="st7" d="M260.9,387.8c0-3.2,0.8-5.2,4.1-5.2c3.6,0,3.6,2.3,3.6,6.2h-5.7c0.1,1.7,0.5,2.5,2.2,2.5
				c1.3,0,2-0.3,2.6-0.6l0.8,1.5c-0.8,0.5-1.9,0.8-3.5,0.8C261.5,393,260.9,391,260.9,387.8z M262.8,387h3.9c0-1.6-0.1-2.6-1.8-2.6
				C263.3,384.4,262.9,385.3,262.8,387z"/>
			<path class="st7" d="M269.4,392.3l0.8-1.6c0.7,0.3,1.7,0.6,2.8,0.6c1,0,1.5-0.3,1.5-1.2c0-0.8-0.5-1.1-2-1.7
				c-1.7-0.7-2.7-1.3-2.7-3c0-2,1.3-2.9,3.4-2.9c1.3,0,2.1,0.2,2.9,0.5l-0.8,1.7c-0.6-0.2-1.3-0.4-2.1-0.4c-1,0-1.4,0.4-1.4,1
				c0,0.7,0.5,1,1.9,1.5c1.8,0.7,2.8,1.3,2.8,3.2c0,1.9-1.2,2.8-3.4,2.8C271.5,393,270.3,392.7,269.4,392.3z"/>
			<path class="st7" d="M277,382.8h1.6l0.3-2.5l1.6-0.3v2.9h2.3v1.8h-2.3v5.3c0,0.8,0.1,1.3,1.2,1.3h1.1v1.8c-0.3,0-1.1,0.1-1.4,0.1
				c-2.4,0-3-0.8-3-2.9v-5.5H277V382.8z"/>
			<path class="st10" d="M201.7,400.9l1.4-0.1l0.1,1c0.4-0.7,1.2-1.2,3-1.2c2.6,0,2.9,1.5,2.9,3.7v6.5h-1.7v-6.1
				c0-1.6-0.2-2.4-1.8-2.4c-1.9,0-2.2,1.1-2.2,3.3v5.3h-1.7V400.9z"/>
			<path class="st10" d="M210.9,401.6c0-2.4,0.6-4.2,3.3-4.2c2.7,0,3.3,1.9,3.3,4.2c0,2.4-0.6,4.2-3.3,4.2
				C211.5,405.8,210.9,404,210.9,401.6z M216.1,401.6c0-1.7-0.3-2.9-1.9-2.9c-1.6,0-1.9,1.2-1.9,2.9c0,1.7,0.3,2.9,1.9,2.9
				C215.8,404.5,216.1,403.3,216.1,401.6z"/>
			<path class="st10" d="M220.7,399h-1.9v-1.5h3.6v13.3h-1.7V399z"/>
			<path class="st10" d="M226.1,409.3h1.2c3.3,0,3.8-1.5,3.9-3.9c-0.5,0.7-1.6,1.1-3,1.1c-3,0-3.5-1.7-3.5-4.4
				c0-3.2,0.8-4.8,4.1-4.8c3.8,0,4.3,2,4.3,5.5c0,5.4-0.3,7.9-5.8,7.9h-1.1V409.3z M231.2,402.2c0-2.3-0.4-3.3-2.6-3.3
				c-1.9,0-2.3,1.1-2.3,3.3c0,1.9,0.5,2.9,2.3,2.9C230.1,405.1,231.2,404.3,231.2,402.2z"/>
		</g>
	</g>
	<g>
		<g>
			<line class="st9" x1="120.2" y1="117.7" x2="166.8" y2="117.7"/>
			<g>
				<polygon points="122.2,119.4 120.5,117.7 122.2,116 120.7,116 119,117.7 120.7,119.4 				"/>
			</g>
		</g>
	</g>
	<g>
		<g>
			<g class="st6">
				<path class="st7" d="M173.7,93.7h2.2l4.1,13.4h-2.1l-0.8-2.5h-4.8l-0.7,2.5h-2.1L173.7,93.7z M176.6,102.7l-1.8-6.1l-1.9,6.1
					H176.6z"/>
				<path class="st7" d="M181.3,97.2l1.6-0.1l0.2,1.1c0.4-0.6,1.2-1.1,2.8-1.1v1.9c-2.4,0-2.6,1.5-2.6,3.2v5h-2V97.2z"/>
				<path class="st7" d="M186.2,97.1h2.1l2.2,7.5l2.1-7.5h2l-3.2,10.1h-2.1L186.2,97.1z"/>
				<path class="st7" d="M195.1,102.1c0-3.2,0.8-5.2,4.1-5.2c3.6,0,3.6,2.3,3.6,6.2H197c0.1,1.7,0.5,2.5,2.2,2.5
					c1.3,0,2-0.3,2.6-0.6l0.8,1.5c-0.8,0.5-1.9,0.8-3.5,0.8C195.7,107.3,195.1,105.3,195.1,102.1z M197,101.3h3.9
					c0-1.6-0.1-2.6-1.8-2.6C197.5,98.7,197.1,99.6,197,101.3z"/>
				<path class="st7" d="M204.4,108.3h1c0.5,0,0.7-0.2,0.8-0.6l0.2-0.6l-3.1-10.1h2.1l2.1,7.2l2-7.2h2l-3.4,11.1
					c-0.4,1.5-1.2,1.8-2.7,1.8h-1V108.3z"/>
				<path class="st7" d="M212.6,97.2l1.6-0.1l0.2,1.1c0.4-0.6,1.2-1.1,2.8-1.1v1.9c-2.4,0-2.6,1.5-2.6,3.2v5h-2V97.2z"/>
				<path class="st7" d="M217.6,102.1c0-3.2,0.8-5.2,4.1-5.2c3.6,0,3.6,2.3,3.6,6.2h-5.7c0.1,1.7,0.5,2.5,2.2,2.5
					c1.3,0,2-0.3,2.6-0.6l0.8,1.5c-0.8,0.5-1.9,0.8-3.5,0.8C218.3,107.3,217.6,105.3,217.6,102.1z M219.6,101.3h3.9
					c0-1.6-0.1-2.6-1.8-2.6C220.1,98.7,219.7,99.6,219.6,101.3z"/>
				<path class="st7" d="M226.1,106.6l0.8-1.6c0.7,0.3,1.7,0.6,2.8,0.6c1,0,1.5-0.3,1.5-1.2c0-0.8-0.5-1.1-2-1.7
					c-1.7-0.7-2.7-1.3-2.7-3c0-2,1.3-2.9,3.4-2.9c1.3,0,2.1,0.2,2.9,0.5l-0.8,1.7c-0.6-0.2-1.3-0.4-2.1-0.4c-1,0-1.4,0.4-1.4,1
					c0,0.7,0.5,1,1.9,1.5c1.8,0.7,2.8,1.3,2.8,3.2c0,1.9-1.2,2.8-3.4,2.8C228.3,107.3,227.1,107,226.1,106.6z"/>
				<path class="st10" d="M170.4,111.8h4.5c2.8,0,4,1.3,4,4.1c0,2.7-1.2,4.2-4,4.2h-2.8v5.1h-1.7V111.8z M174.9,118.5
					c1.6,0,2.3-0.7,2.3-2.6s-0.7-2.6-2.3-2.6h-2.7v5.1H174.9z"/>
				<path class="st10" d="M179.8,120.1c0-3.1,0.7-5.1,3.9-5.1c3.4,0,3.5,2.2,3.4,5.9h-5.8c0.1,1.9,0.5,2.9,2.4,2.9
					c1.3,0,1.9-0.3,2.5-0.6l0.6,1.3c-0.8,0.4-1.7,0.7-3.3,0.7C180.3,125.3,179.8,123.3,179.8,120.1z M181.4,119.4h4.2
					c0-1.8-0.1-2.9-1.9-2.9C181.9,116.5,181.4,117.6,181.4,119.4z M184.2,111.2h1.9l-2.4,2.9h-1.5L184.2,111.2z"/>
				<path class="st10" d="M188.2,122.1c0-2.9,1.7-3.7,5.1-3.7h0.4c0-1.3-0.3-2-1.8-2c-1,0-1.9,0.3-2.5,0.5l-0.7-1.4
					c0.8-0.4,1.9-0.7,3.3-0.7c2.7,0,3.3,1.1,3.3,3.5v4.2c0,0.8,0.1,1,0.8,1v1.5c-0.1,0-0.3,0-0.5,0c-1.1,0-1.5-0.2-1.7-1
					c-0.6,0.8-1.5,1-2.8,1C188.9,125.2,188.2,124.1,188.2,122.1z M193.7,121.3v-1.4h-0.4c-2.5,0-3.5,0.3-3.5,2.1
					c0,1.4,0.6,1.9,1.7,1.9C192.7,123.8,193.7,123.3,193.7,121.3z"/>
				<path class="st10" d="M199.7,121.4c-0.1,0.2-0.1,0.4-0.1,0.5c0,0.5,0.3,0.7,1.5,0.7c3,0,3.9,0.7,3.9,2.5c0,2.1-1.3,3-4,3
					c-2.8,0-4-0.6-4-2.4c0-1.2,0.5-2.1,1.7-2.4c-0.4-0.3-0.6-0.7-0.6-1.2c0-0.4,0.1-0.8,0.4-1.2c-0.7-0.5-1.1-1.3-1.1-2.6
					c0-2.4,1.3-3.3,3.5-3.3c0.3,0,0.5,0,0.8,0l3.2-0.5v1.4h-1.4c0.6,0.4,1,1.2,1,2.4c0,2.4-1.4,3.3-3.5,3.3
					C200.5,121.6,200.1,121.5,199.7,121.4z M203.3,125.2c0-0.9-0.4-1.3-2.3-1.3c-1.8,0-2.3,0.5-2.3,1.5c0,1.1,0.5,1.4,2.3,1.4
					C202.9,126.8,203.3,126.4,203.3,125.2z M202.8,118.3c0-1.3-0.6-1.9-1.9-1.9c-1.2,0-1.9,0.6-1.9,1.9s0.6,1.9,1.9,1.9
					C202.2,120.2,202.8,119.6,202.8,118.3z"/>
				<path class="st10" d="M206,120.1c0-3.1,0.7-5.1,3.9-5.1c3.4,0,3.5,2.2,3.4,5.9h-5.8c0.1,1.9,0.5,2.9,2.4,2.9
					c1.3,0,1.9-0.3,2.5-0.6l0.6,1.3c-0.8,0.4-1.7,0.7-3.3,0.7C206.6,125.3,206,123.3,206,120.1z M207.6,119.4h4.2
					c0-1.8-0.1-2.9-1.9-2.9C208.1,116.5,207.7,117.6,207.6,119.4z"/>
			</g>
		</g>
	</g>
	<line class="st0" x1="227.7" y1="429.9" x2="149.5" y2="429.9"/>
	<line class="st0" x1="208.8" y1="449.6" x2="208.8" y2="429.9"/>
	<line class="st4" x1="103.4" y1="103.7" x2="103.4" y2="67.2"/>
	<line class="st0" x1="91.1" y1="63.5" x2="75.4" y2="79.2"/>
	<line class="st0" x1="76.7" y1="26.4" x2="92.5" y2="42.1"/>
	<circle class="st0" cx="103.4" cy="53.7" r="14.2"/>
	<polyline class="st0" points="112.6,61.2 130.6,79.2 142.9,79.2 	"/>
	<g>
		<g>
			<path class="st7" d="M123.7,18.8h6.4c3.9,0,5.8,1.5,5.8,5c0,2.6-1,3.9-2.5,4.5c1.9,0.6,2.9,2,2.9,5c0,4.1-2.3,5.5-6.1,5.5h-6.5
				V18.8z M130,27.4c2.1,0,3.3-0.7,3.3-3.2c0-2.4-1.2-3.1-3.3-3.1h-3.7v6.2H130z M130.2,36.6c2.1,0,3.5-0.7,3.5-3.5
				c0-2.7-1.4-3.4-3.5-3.4h-3.9v6.9H130.2z"/>
			<path class="st7" d="M138.3,28.9c0-5.5,0.9-10.2,7.6-10.2c6.7,0,7.6,4.7,7.6,10.2s-0.8,10.2-7.6,10.2
				C139.1,39.1,138.3,34.4,138.3,28.9z M150.8,28.9c0-4.5-0.5-7.8-4.9-7.8c-4.5,0-5,3.3-5,7.8s0.5,7.8,5,7.8
				C150.4,36.7,150.8,33.4,150.8,28.9z"/>
			<path class="st7" d="M162.3,31.1h-3.6v7.7h-2.6v-20h6.7c4.2,0,5.9,2,5.9,6c0,3.2-1.2,5.4-3.9,6.1l3.6,8h-2.7L162.3,31.1z
				 M162.8,28.8c2.4,0,3.4-1,3.4-3.8c0-2.8-1-3.8-3.4-3.8h-4.1v7.6H162.8z"/>
			<path class="st7" d="M171.7,18.8h5.7c6.3,0,7.9,3.2,7.9,10c0,6.9-1.5,10-8,10h-5.6V18.8z M177.5,36.5c4.3,0,5.2-2.5,5.2-7.7
				c0-5.2-0.8-7.6-5.1-7.6h-3.2v15.3H177.5z"/>
			<path class="st7" d="M187.9,18.8h11v2.4h-8.4v6.1h8v2.4h-8v6.8h8.5v2.3h-11.1V18.8z"/>
			<path class="st7" d="M206.6,18.7h2.8l6.2,20.1h-2.6l-1.2-4.2h-7.4l-1.2,4.2h-2.6L206.6,18.7z M211,32.3l-3-9.9l-3,9.9H211z"/>
			<path class="st7" d="M217,32.2V18.8h2.6V32c0,3.1,0.8,4.7,4.2,4.7c3.4,0,4.3-1.6,4.3-4.7V18.8h2.5v13.3c0,4.4-1.5,6.9-6.8,6.9
				C218.6,39.1,217,36.6,217,32.2z"/>
			<path class="st7" d="M239.7,30.7l-4.2,8.1h-2.8l5.7-10.5l-5.2-9.5h2.9L240,26l3.8-7.2h2.8l-5.2,9.6l5.7,10.4h-2.9L239.7,30.7z"/>
		</g>
	</g>
	<g class="st6">
		<path class="st1" d="M8.2,104.6h1.8V117h5.8v1.7H8.2V104.6z"/>
		<path class="st1" d="M17.5,104.6h1.8v14.1h-1.8V104.6z"/>
		<path class="st1" d="M21.9,104.6h4.5c2.8,0,4.1,1,4.1,3.6c0,1.8-0.7,2.8-1.7,3.1c1.3,0.4,2,1.4,2,3.5c0,2.9-1.7,3.9-4.3,3.9h-4.6
			V104.6z M26.4,110.6c1.5,0,2.3-0.5,2.3-2.2c0-1.7-0.8-2.2-2.3-2.2h-2.6v4.4H26.4z M26.5,117.1c1.5,0,2.5-0.5,2.5-2.4
			c0-1.9-1-2.4-2.5-2.4h-2.8v4.8H26.5z"/>
		<path class="st1" d="M32.2,111.6c0-3.9,0.6-7.2,5.4-7.2c4.7,0,5.3,3.3,5.3,7.2s-0.6,7.2-5.3,7.2C32.8,118.8,32.2,115.5,32.2,111.6
			z M41,111.7c0-3.2-0.3-5.5-3.5-5.5c-3.2,0-3.5,2.3-3.5,5.5c0,3.2,0.3,5.5,3.5,5.5C40.7,117.2,41,114.9,41,111.7z"/>
		<path class="st1" d="M44.5,114v-9.4h1.8v9.3c0,2.2,0.6,3.3,3,3.3c2.4,0,3-1.1,3-3.3v-9.3h1.8v9.4c0,3.1-1,4.9-4.8,4.9
			C45.6,118.9,44.5,117.1,44.5,114z"/>
		<path class="st1" d="M60.9,113.2h-2.6v5.4h-1.8v-14.1h4.7c2.9,0,4.2,1.4,4.2,4.2c0,2.3-0.8,3.8-2.7,4.3l2.5,5.6h-1.9L60.9,113.2z
			 M61.2,111.6c1.7,0,2.4-0.7,2.4-2.7c0-1.9-0.7-2.6-2.4-2.6h-2.9v5.3H61.2z"/>
		<path class="st1" d="M67.5,104.6h2l5.7,10.4v-10.4h1.8v14.1h-1.7l-6-10.9v10.9h-1.7V104.6z"/>
		<path class="st1" d="M79.4,104.6h7.7v1.7h-5.9v4.3h5.6v1.7h-5.6v4.8h6v1.7h-7.8V104.6z"/>
	</g>
	<g class="st6">
		<path class="st1" d="M198.5,298.2h4.8c2.9,0,4.2,1.4,4.2,4.3c0,2.8-1.2,4.5-4.2,4.5h-2.9v5.3h-1.8V298.2z M203.2,305.3
			c1.7,0,2.5-0.7,2.5-2.7s-0.8-2.7-2.5-2.7h-2.9v5.4H203.2z"/>
		<path class="st1" d="M209.4,298.2h7.7v1.7h-5.9v4.3h5.6v1.7h-5.6v4.8h6v1.7h-7.8V298.2z M213.9,294.4h2l-2.5,3.1h-1.6L213.9,294.4
			z"/>
		<path class="st1" d="M223.6,306.9H221v5.4h-1.8v-14.1h4.8c2.9,0,4.2,1.4,4.2,4.2c0,2.3-0.8,3.8-2.7,4.3l2.5,5.6h-1.9L223.6,306.9z
			 M223.9,305.2c1.7,0,2.4-0.7,2.4-2.7c0-1.9-0.7-2.6-2.4-2.6H221v5.3H223.9z"/>
		<path class="st1" d="M230.4,298.2h1.8v14.1h-1.8V298.2z"/>
		<path class="st1" d="M234.2,305.3c0-5.2,1.4-7.2,5.3-7.2c1.7,0,2.8,0.4,3.7,1l-0.9,1.5c-0.6-0.4-1.4-0.7-2.8-0.7
			c-2.4,0-3.4,1.1-3.4,5.5c0,4.1,0.8,5.6,3.4,5.6c2.2,0,2.7-1,2.7-4.4V306h-3.3v-1.6h5.1v1.8c0,4.8-0.9,6.3-4.7,6.3
			C235.3,312.5,234.2,310,234.2,305.3z"/>
		<path class="st1" d="M245.5,307.6v-9.4h1.8v9.3c0,2.2,0.6,3.3,3,3.3c2.4,0,3-1.1,3-3.3v-9.3h1.8v9.4c0,3.1-1,4.9-4.8,4.9
			C246.6,312.5,245.5,310.7,245.5,307.6z"/>
		<path class="st1" d="M257.4,298.2h7.7v1.7h-5.9v4.3h5.6v1.7h-5.6v4.8h6v1.7h-7.8V298.2z"/>
		<path class="st1" d="M267.1,307.6v-9.4h1.8v9.3c0,2.2,0.6,3.3,3,3.3c2.4,0,3-1.1,3-3.3v-9.3h1.8v9.4c0,3.1-1,4.9-4.8,4.9
			C268.2,312.5,267.1,310.7,267.1,307.6z"/>
		<path class="st1" d="M283.1,306.6l-3,5.7h-2l4-7.4l-3.7-6.7h2l2.8,5.1l2.6-5.1h2l-3.7,6.7l4,7.4h-2L283.1,306.6z"/>
	</g>
	<g>
		<g>
			<path class="st7" d="M49.2,473.5h6.4c3.9,0,5.8,1.5,5.8,5c0,2.6-1,3.9-2.5,4.5c1.9,0.6,2.9,2,2.9,5c0,4.1-2.3,5.5-6.1,5.5h-6.5
				V473.5z M55.5,482c2.1,0,3.3-0.7,3.3-3.2c0-2.4-1.2-3.1-3.3-3.1h-3.7v6.2H55.5z M55.7,491.2c2.1,0,3.5-0.7,3.5-3.5
				c0-2.7-1.4-3.4-3.5-3.4h-3.9v6.9H55.7z"/>
			<path class="st7" d="M70.9,485.8h-3.6v7.7h-2.6v-20h6.7c4.2,0,5.9,2,5.9,6c0,3.2-1.2,5.4-3.9,6.1l3.6,8h-2.7L70.9,485.8z
				 M71.3,483.4c2.4,0,3.4-1,3.4-3.8c0-2.8-1-3.8-3.4-3.8h-4.1v7.6H71.3z"/>
			<path class="st7" d="M80.4,473.5h2.6v20h-2.6V473.5z"/>
			<path class="st7" d="M85.5,473.5h2.6l4.9,16.3l4.8-16.3h2.6l-6.1,20.1h-2.8L85.5,473.5z"/>
			<path class="st7" d="M102.8,473.5h11v2.4h-8.4v6.1h8v2.4h-8v6.8h8.5v2.3h-11.1V473.5z"/>
			<path class="st7" d="M116,483.8h7.5v2.3H116V483.8z"/>
			<path class="st7" d="M126.3,473.5h2.6v17.7h8.2v2.3h-10.8V473.5z"/>
			<path class="st7" d="M144.3,473.3h2.8l6.2,20.1h-2.6l-1.2-4.2h-7.4l-1.2,4.2h-2.6L144.3,473.3z M148.6,486.9l-3-9.9l-3,9.9H148.6
				z"/>
			<path class="st7" d="M154.2,483.8h7.5v2.3h-7.5V483.8z"/>
			<path class="st7" d="M163.6,483.5c0-7.4,2-10.2,7.6-10.2c2.4,0,4,0.6,5.2,1.4l-1.3,2.2c-0.9-0.5-2.1-1-4-1
				c-3.3,0-4.9,1.6-4.9,7.8c0,5.8,1.1,7.9,4.8,7.9c3.2,0,3.9-1.3,3.9-6.3v-0.7h-4.7v-2.3h7.2v2.6c0,6.8-1.3,8.9-6.6,8.9
				C165.1,493.7,163.6,490.2,163.6,483.5z"/>
			<path class="st7" d="M184.3,473.3h2.8l6.2,20.1h-2.6l-1.2-4.2h-7.4l-1.2,4.2h-2.6L184.3,473.3z M188.7,486.9l-3-9.9l-3,9.9H188.7
				z"/>
			<path class="st7" d="M195.7,473.5h2.6v20h-2.6V473.5z"/>
			<path class="st7" d="M202,473.5h2.6v17.7h8.2v2.3H202V473.5z"/>
			<path class="st7" d="M215,473.5h2.6v17.7h8.2v2.3H215V473.5z"/>
			<path class="st7" d="M233,473.3h2.8l6.2,20.1h-2.6l-1.2-4.2h-7.4l-1.2,4.2h-2.6L233,473.3z M237.3,486.9l-3-9.9l-3,9.9H237.3z"/>
			<path class="st7" d="M250.4,485.8h-3.6v7.7h-2.6v-20h6.7c4.2,0,5.9,2,5.9,6c0,3.2-1.2,5.4-3.9,6.1l3.6,8h-2.7L250.4,485.8z
				 M250.8,483.4c2.4,0,3.4-1,3.4-3.8c0-2.8-1-3.8-3.4-3.8h-4.1v7.6H250.8z"/>
			<path class="st7" d="M259.8,473.5h5.7c6.3,0,7.9,3.2,7.9,10c0,6.9-1.5,10-8,10h-5.6V473.5z M265.6,491.2c4.3,0,5.2-2.5,5.2-7.7
				c0-5.2-0.8-7.6-5.1-7.6h-3.2v15.3H265.6z"/>
			<path class="st7" d="M276,473.5h11v2.4h-8.4v6.1h8v2.4h-8v6.8h8.5v2.3H276V473.5z"/>
		</g>
	</g>
	<ellipse transform="matrix(0.7071 -0.7071 0.7071 0.7071 -49.55 102.7259)" class="st1" cx="99.2" cy="111.2" rx="7.5" ry="7.5"/>
	<g>
		<g>
			<line class="st9" x1="155.9" y1="235.8" x2="202.5" y2="235.8"/>
			<g>
				<polygon points="157.9,237.5 156.2,235.8 157.9,234.1 156.4,234.1 154.7,235.8 156.4,237.5 				"/>
			</g>
		</g>
	</g>
	<g>
		<g>
			<g class="st6">
				<path class="st7" d="M206.1,229.7h2.6l3.1,9.8l3.1-9.8h2.6v13.3h-2.1v-9.5l-3,9.5H211l-3-9.5v9.5h-1.9V229.7z"/>
				<path class="st7" d="M219.5,239.2V233h2v6.1c0,1.5,0.1,2.3,1.8,2.3c1.6,0,1.8-0.8,1.8-2.3V233h2v6.2c0,2.8-0.6,4-3.8,4
					C220.3,243.2,219.5,242,219.5,239.2z"/>
				<path class="st7" d="M228.3,242.5l0.8-1.6c0.7,0.3,1.7,0.6,2.8,0.6c1,0,1.5-0.3,1.5-1.2c0-0.8-0.5-1.1-2-1.7
					c-1.7-0.7-2.7-1.3-2.7-3c0-2,1.3-2.9,3.4-2.9c1.3,0,2.1,0.2,2.9,0.5l-0.8,1.7c-0.6-0.2-1.3-0.4-2.1-0.4c-1,0-1.4,0.4-1.4,1
					c0,0.7,0.5,1,1.9,1.5c1.8,0.7,2.8,1.3,2.8,3.2c0,1.9-1.2,2.8-3.4,2.8C230.4,243.2,229.2,243,228.3,242.5z"/>
				<path class="st7" d="M235.9,242.5l0.8-1.6c0.7,0.3,1.7,0.6,2.8,0.6c1,0,1.5-0.3,1.5-1.2c0-0.8-0.5-1.1-2-1.7
					c-1.7-0.7-2.7-1.3-2.7-3c0-2,1.3-2.9,3.4-2.9c1.3,0,2.1,0.2,2.9,0.5l-0.8,1.7c-0.6-0.2-1.3-0.4-2.1-0.4c-1,0-1.4,0.4-1.4,1
					c0,0.7,0.5,1,1.9,1.5c1.8,0.7,2.8,1.3,2.8,3.2c0,1.9-1.2,2.8-3.4,2.8C238,243.2,236.8,243,235.9,242.5z"/>
				<path class="st7" d="M244.2,229.7h2v2.2h-2V229.7z M244.2,233h2v10.1h-2V233z"/>
				<path class="st7" d="M247.9,238c0-2.8,0.4-5.2,3.4-5.2c1.6,0,2.3,0.3,2.8,0.9v-4.5h2V243l-1.6,0.1l-0.2-1
					c-0.5,0.7-1.3,1.1-3.1,1.1C248.2,243.2,247.9,240.8,247.9,238z M254,238c0-2-0.2-3.3-2.2-3.3c-1.7,0-2,1.3-2,3.3
					c0,2.1,0.2,3.4,2,3.4C253.8,241.4,254,240.1,254,238z"/>
				<path class="st7" d="M257.5,240.1c0-2.9,1.7-3.7,5.2-3.7h0.4c0-1.2-0.3-1.7-1.6-1.7c-1.1,0-1.9,0.3-2.5,0.5l-0.8-1.6
					c0.8-0.4,2-0.7,3.5-0.7c2.7,0,3.4,1,3.4,3.5v4.1c0,0.7,0.1,0.9,0.8,0.9v1.8c-0.2,0-0.4,0-0.6,0c-1.1,0-1.6-0.2-1.8-0.9
					c-0.6,0.7-1.5,1-2.8,1C258.2,243.2,257.5,242,257.5,240.1z M263.1,239.2V238h-0.4c-2.3,0-3.3,0.3-3.3,1.9c0,1.3,0.5,1.7,1.5,1.7
					C262.2,241.5,263.1,241.1,263.1,239.2z"/>
				<path class="st7" d="M267.4,233.1l1.6-0.1l0.2,0.9c0.5-0.6,1.2-1.1,3-1.1c2.5,0,2.9,1.5,2.9,3.7v6.6h-2V237
					c0-1.5-0.2-2.2-1.6-2.2c-1.8,0-2.1,1-2.1,3v5.4h-2V233.1z"/>
				<path class="st10" d="M206.1,247.7h4.5c2.8,0,4,1.3,4,4.1c0,2.7-1.2,4.2-4,4.2h-2.8v5.1h-1.7V247.7z M210.6,254.5
					c1.6,0,2.3-0.7,2.3-2.6s-0.7-2.6-2.3-2.6h-2.7v5.1H210.6z"/>
				<path class="st10" d="M215.4,256.1c0-3.1,0.7-5.1,3.9-5.1c3.4,0,3.5,2.2,3.4,5.9h-5.8c0.1,1.9,0.5,2.9,2.4,2.9
					c1.3,0,1.9-0.3,2.5-0.6l0.6,1.3c-0.8,0.4-1.7,0.7-3.3,0.7C216,261.2,215.4,259.2,215.4,256.1z M217.1,255.3h4.2
					c0-1.8-0.1-2.9-1.9-2.9C217.6,252.4,217.1,253.5,217.1,255.3z M219.9,247.1h1.9l-2.4,2.9h-1.5L219.9,247.1z"/>
				<path class="st10" d="M223.9,258.1c0-2.9,1.7-3.7,5.1-3.7h0.4c0-1.3-0.3-2-1.8-2c-1,0-1.9,0.3-2.5,0.5l-0.7-1.4
					c0.8-0.4,1.9-0.7,3.3-0.7c2.7,0,3.3,1.1,3.3,3.5v4.2c0,0.8,0.1,1,0.8,1v1.5c-0.1,0-0.3,0-0.5,0c-1.1,0-1.5-0.2-1.7-1
					c-0.6,0.8-1.5,1-2.8,1C224.6,261.2,223.9,260,223.9,258.1z M229.4,257.2v-1.4H229c-2.5,0-3.5,0.3-3.5,2.1c0,1.4,0.6,1.9,1.7,1.9
					C228.4,259.8,229.4,259.3,229.4,257.2z"/>
				<path class="st10" d="M235.4,257.4c-0.1,0.2-0.1,0.4-0.1,0.5c0,0.5,0.3,0.7,1.5,0.7c3,0,3.9,0.7,3.9,2.5c0,2.1-1.3,3-4,3
					c-2.8,0-4-0.6-4-2.4c0-1.2,0.5-2.1,1.7-2.4c-0.4-0.3-0.6-0.7-0.6-1.2c0-0.4,0.1-0.8,0.4-1.2c-0.7-0.5-1.1-1.3-1.1-2.6
					c0-2.4,1.3-3.3,3.5-3.3c0.3,0,0.5,0,0.8,0l3.2-0.5v1.4h-1.4c0.6,0.4,1,1.2,1,2.4c0,2.4-1.4,3.3-3.5,3.3
					C236.2,257.5,235.8,257.5,235.4,257.4z M239,261.2c0-0.9-0.4-1.3-2.3-1.3c-1.8,0-2.3,0.5-2.3,1.5c0,1.1,0.5,1.4,2.3,1.4
					C238.6,262.8,239,262.3,239,261.2z M238.5,254.3c0-1.3-0.6-1.9-1.9-1.9c-1.2,0-1.9,0.6-1.9,1.9s0.6,1.9,1.9,1.9
					C237.9,256.1,238.5,255.6,238.5,254.3z"/>
				<path class="st10" d="M241.7,256.1c0-3.1,0.7-5.1,3.9-5.1c3.4,0,3.5,2.2,3.4,5.9h-5.8c0.1,1.9,0.5,2.9,2.4,2.9
					c1.3,0,1.9-0.3,2.5-0.6l0.6,1.3c-0.8,0.4-1.7,0.7-3.3,0.7C242.3,261.2,241.7,259.2,241.7,256.1z M243.3,255.3h4.2
					c0-1.8-0.1-2.9-1.9-2.9C243.8,252.4,243.4,253.5,243.3,255.3z"/>
			</g>
		</g>
	</g>
	<g>
		<g>
			<g>
				<g class="st6">
					<path class="st11" d="M23.9,521.7h-14v-14h14V521.7z"/>
					<path class="st12" d="M26.1,519.1l0.6-0.8c0.4,0.3,1.4,0.8,2.7,0.8c1.3,0,2.2-0.7,2.2-2.1c0-1-0.7-1.5-1.9-2.2
						c-1.2-0.7-2-1.3-2-2.5c0-1.9,1.3-2.9,3.1-2.9c1.3,0,2.1,0.3,2.6,0.6l-0.5,0.9c-0.5-0.3-1.2-0.5-2.2-0.5c-1.3,0-2,0.7-2,1.9
						c0,0.8,0.4,1.2,1.6,1.8c1.4,0.8,2.3,1.5,2.3,2.8c0,2.1-1.4,3.1-3.2,3.1C27.8,520,26.8,519.6,26.1,519.1z"/>
					<path class="st12" d="M33.8,517.5c0-0.5,0.1-1.1,0.2-1.7c0.4-2.4,1.3-3.7,3.2-3.7c1.8,0,2.3,0.8,2.3,2c0,0.6-0.2,1.6-0.3,2.4
						h-4.3c-0.1,0.4-0.1,0.7-0.1,1c0,1,0.4,1.7,1.7,1.7c0.7,0,1.2-0.1,1.7-0.3l0.3,0.8c-0.6,0.2-1.3,0.4-2.1,0.4
						C34.4,520,33.8,519,33.8,517.5z M35,515.6h3.4c0.1-0.5,0.2-1,0.2-1.3c0-0.7-0.3-1.2-1.4-1.2C35.8,513,35.3,514,35,515.6z"/>
					<path class="st12" d="M40.1,517.5c0-0.5,0.1-1.1,0.2-1.7c0.4-2.4,1.2-3.7,3.2-3.7c1,0,1.5,0.2,1.9,0.4l-0.6,0.8
						c-0.3-0.2-0.7-0.3-1.4-0.3c-1.4,0-1.9,1-2.2,2.9c-0.1,0.6-0.2,1.1-0.2,1.5c0,1.1,0.4,1.7,1.6,1.7c0.4,0,0.8-0.1,1.3-0.3
						l0.3,0.8c-0.6,0.3-1.2,0.3-1.8,0.3C40.7,520,40.1,519,40.1,517.5z"/>
					<path class="st12" d="M46.2,512.2h1.2l0.5-2.2l0.9-0.2l-0.4,2.3h1.8l-0.2,0.9h-1.8l-0.8,4.8c-0.1,0.7-0.1,1.1,0.8,1.1h0.8
						l-0.2,0.9c-0.1,0-0.8,0-0.9,0c-1.6,0-1.8-0.7-1.6-2.1l0.8-4.7H46L46.2,512.2z"/>
					<path class="st12" d="M51.6,512.2h1l-1.4,7.7h-1L51.6,512.2z M52,509.7h1l-0.3,1.5h-1L52,509.7z"/>
					<path class="st12" d="M53.2,517.4c0-0.5,0.1-1,0.2-1.6c0.4-2.2,1.2-3.7,3.4-3.7c2,0,2.6,1.1,2.6,2.6c0,0.5-0.1,1.1-0.2,1.7
						c-0.4,2.3-1.1,3.7-3.4,3.7C53.8,520,53.2,518.9,53.2,517.4z M58.1,516.2c0.1-0.5,0.2-1.1,0.2-1.5c0-1-0.4-1.7-1.6-1.7
						c-1.6,0-2,1.3-2.3,2.9c-0.1,0.5-0.2,1-0.2,1.4c0,1,0.4,1.8,1.6,1.8C57.4,519.1,57.8,517.9,58.1,516.2z"/>
					<path class="st12" d="M61.1,512.3l0.8-0.1l-0.1,0.7c0.4-0.5,1.1-0.8,2.1-0.8c2.3,0,2.2,1.4,1.9,3l-0.9,4.9h-1l0.8-4.8
						c0.3-1.3,0.3-2.1-1.3-2.1c-1.3,0-1.8,1-2.1,2.8l-0.7,4.1h-1L61.1,512.3z"/>
					<path class="st12" d="M66.2,519.4l0.5-0.8c0.4,0.3,1,0.6,2,0.6c0.7,0,1.4-0.3,1.4-1.4c0-0.6-0.4-0.9-1.3-1.5
						c-0.9-0.6-1.6-1.1-1.6-2c0-1.6,1.1-2.2,2.4-2.2c1,0,1.7,0.2,2.1,0.5l-0.5,0.8c-0.4-0.2-0.8-0.4-1.6-0.4c-0.8,0-1.3,0.4-1.3,1.3
						c0,0.6,0.5,0.9,1.2,1.4c1,0.6,1.5,1.1,1.5,2.1c0,1.7-1.2,2.3-2.4,2.3C67.5,520,66.7,519.7,66.2,519.4z"/>
					<path class="st12" d="M76.2,520c-1.4,0-1.6-0.6-1.4-1.8l1.6-9h1l-1.6,9c-0.1,0.6-0.1,0.9,0.8,0.9l-0.2,0.9
						C76.5,520,76.4,520,76.2,520z"/>
					<path class="st12" d="M77.8,517.5c0-0.5,0.1-1.1,0.2-1.7c0.4-2.4,1.3-3.7,3.2-3.7c1.8,0,2.3,0.8,2.3,2c0,0.6-0.2,1.6-0.3,2.4
						h-4.3c-0.1,0.4-0.1,0.7-0.1,1c0,1,0.4,1.7,1.7,1.7c0.7,0,1.2-0.1,1.7-0.3l0.3,0.8c-0.6,0.2-1.3,0.4-2.1,0.4
						C78.4,520,77.8,519,77.8,517.5z M79,515.6h3.4c0.1-0.5,0.2-1,0.2-1.3c0-0.7-0.3-1.2-1.4-1.2C79.8,513,79.3,514,79,515.6z"/>
					<path class="st12" d="M83.5,519.4l0.5-0.8c0.4,0.3,1,0.6,2,0.6c0.7,0,1.4-0.3,1.4-1.4c0-0.6-0.4-0.9-1.3-1.5
						c-0.9-0.6-1.6-1.1-1.6-2c0-1.6,1.1-2.2,2.4-2.2c1,0,1.7,0.2,2.1,0.5l-0.5,0.8c-0.4-0.2-0.8-0.4-1.6-0.4c-0.8,0-1.3,0.4-1.3,1.3
						c0,0.6,0.5,0.9,1.2,1.4c1,0.6,1.5,1.1,1.5,2.1c0,1.7-1.2,2.3-2.4,2.3C84.8,520,84,519.7,83.5,519.4z"/>
					<path class="st12" d="M93.1,512.3l0.8-0.1l-0.1,0.7c0.4-0.5,1.1-0.8,2.1-0.8c1.1,0,1.6,0.2,1.8,0.9c0.4-0.6,1.2-0.9,2.3-0.9
						c2.2,0,2.1,1.4,1.8,3l-0.9,4.9h-1l0.8-4.8c0.2-1.3,0.3-2.1-1.2-2.1c-1.3,0-1.7,1-2,2.8l-0.7,4.1h-1l0.8-4.8
						c0.3-1.3,0.3-2.1-1.2-2.1c-1.3,0-1.7,1-2,2.8l-0.7,4.1h-1L93.1,512.3z"/>
					<path class="st12" d="M102.7,517.4c0-0.5,0.1-1,0.2-1.6c0.4-2.2,1.2-3.7,3.4-3.7c2,0,2.6,1.1,2.6,2.6c0,0.5-0.1,1.1-0.2,1.7
						c-0.4,2.3-1.1,3.7-3.4,3.7C103.3,520,102.7,518.9,102.7,517.4z M107.6,516.2c0.1-0.5,0.2-1.1,0.2-1.5c0-1-0.4-1.7-1.6-1.7
						c-1.6,0-2,1.3-2.3,2.9c-0.1,0.5-0.2,1-0.2,1.4c0,1,0.4,1.8,1.6,1.8C106.9,519.1,107.3,517.9,107.6,516.2z"/>
					<path class="st12" d="M110.7,512.2h1l-1.4,7.7h-1L110.7,512.2z M111.2,509.7h1l-0.3,1.5h-1L111.2,509.7z"/>
					<path class="st12" d="M113.4,512.3l0.8-0.1l-0.1,0.7c0.4-0.5,1.1-0.8,2.1-0.8c2.3,0,2.2,1.4,1.9,3l-0.9,4.9h-1l0.8-4.8
						c0.3-1.3,0.3-2.1-1.3-2.1c-1.3,0-1.8,1-2.1,2.8l-0.7,4.1h-1L113.4,512.3z"/>
					<path class="st12" d="M118.5,519.4l0.5-0.8c0.4,0.3,1,0.6,2,0.6c0.7,0,1.4-0.3,1.4-1.4c0-0.6-0.4-0.9-1.3-1.5
						c-0.9-0.6-1.6-1.1-1.6-2c0-1.6,1.1-2.2,2.4-2.2c1,0,1.7,0.2,2.1,0.5l-0.5,0.8c-0.4-0.2-0.8-0.4-1.6-0.4c-0.8,0-1.3,0.4-1.3,1.3
						c0,0.6,0.5,0.9,1.2,1.4c1,0.6,1.5,1.1,1.5,2.1c0,1.7-1.2,2.3-2.4,2.3C119.8,520,119.1,519.7,118.5,519.4z"/>
					<path class="st12" d="M127,517.5c0-0.5,0.1-1.1,0.2-1.7c0.4-2.4,1.2-3.7,3.2-3.7c1,0,1.5,0.2,1.9,0.4l-0.6,0.8
						c-0.3-0.2-0.7-0.3-1.4-0.3c-1.4,0-1.9,1-2.2,2.9c-0.1,0.6-0.2,1.1-0.2,1.5c0,1.1,0.4,1.7,1.6,1.7c0.4,0,0.8-0.1,1.3-0.3
						l0.3,0.8c-0.6,0.3-1.2,0.3-1.8,0.3C127.6,520,127,519,127,517.5z"/>
					<path class="st12" d="M134.3,509.2h1l-0.7,3.7c0.4-0.4,1-0.8,2-0.8c2.3,0,2.2,1.4,1.9,3l-0.9,4.9h-1l0.8-4.8
						c0.2-1.3,0.3-2.1-1.3-2.1c-1.4,0-1.8,1-2.1,2.8l-0.7,4.1h-1L134.3,509.2z"/>
					<path class="st12" d="M139.5,517.5c0-0.5,0.1-1.1,0.2-1.7c0.4-2.4,1.3-3.7,3.2-3.7c1.8,0,2.3,0.8,2.3,2c0,0.6-0.2,1.6-0.3,2.4
						h-4.3c-0.1,0.4-0.1,0.7-0.1,1c0,1,0.4,1.7,1.7,1.7c0.7,0,1.2-0.1,1.7-0.3l0.3,0.8c-0.6,0.2-1.3,0.4-2.1,0.4
						C140.1,520,139.5,519,139.5,517.5z M140.7,515.6h3.4c0.1-0.5,0.2-1,0.2-1.3c0-0.7-0.3-1.2-1.4-1.2
						C141.5,513,141,514,140.7,515.6z M141.6,509.2h1.1l1.2,2.2H143L141.6,509.2z"/>
					<path class="st12" d="M147,512.3l0.8-0.1l-0.1,0.8c0.4-0.5,1.1-0.9,2.3-0.9l-0.2,1c-1.9,0-2.2,1.3-2.5,2.8l-0.7,4h-1L147,512.3
						z"/>
					<path class="st12" d="M149.6,517.5c0-0.5,0.1-1.1,0.2-1.7c0.4-2.4,1.3-3.7,3.2-3.7c1.8,0,2.3,0.8,2.3,2c0,0.6-0.2,1.6-0.3,2.4
						h-4.3c-0.1,0.4-0.1,0.7-0.1,1c0,1,0.4,1.7,1.7,1.7c0.7,0,1.2-0.1,1.7-0.3l0.3,0.8c-0.6,0.2-1.3,0.4-2.1,0.4
						C150.2,520,149.6,519,149.6,517.5z M150.8,515.6h3.4c0.1-0.5,0.2-1,0.2-1.3c0-0.7-0.3-1.2-1.4-1.2
						C151.6,513,151.1,514,150.8,515.6z"/>
					<path class="st12" d="M155.3,519.4l0.5-0.8c0.4,0.3,1,0.6,2,0.6c0.7,0,1.4-0.3,1.4-1.4c0-0.6-0.4-0.9-1.3-1.5
						c-0.9-0.6-1.6-1.1-1.6-2c0-1.6,1.1-2.2,2.4-2.2c1,0,1.7,0.2,2.1,0.5l-0.5,0.8c-0.3-0.2-0.8-0.4-1.6-0.4c-0.8,0-1.3,0.4-1.3,1.3
						c0,0.6,0.5,0.9,1.2,1.4c1,0.6,1.5,1.1,1.5,2.1c0,1.7-1.2,2.3-2.4,2.3C156.6,520,155.8,519.7,155.3,519.4z"/>
					<path class="st10" d="M182.8,521.7h-14v-14h14V521.7z"/>
					<path class="st12" d="M185,519.1l0.6-0.8c0.4,0.3,1.4,0.8,2.7,0.8c1.3,0,2.2-0.7,2.2-2.1c0-1-0.7-1.5-1.9-2.2
						c-1.2-0.7-2-1.3-2-2.5c0-1.9,1.3-2.9,3.1-2.9c1.3,0,2.1,0.3,2.6,0.6l-0.5,0.9c-0.5-0.3-1.2-0.5-2.2-0.5c-1.3,0-2,0.7-2,1.9
						c0,0.8,0.4,1.2,1.6,1.8c1.4,0.8,2.3,1.5,2.3,2.8c0,2.1-1.4,3.1-3.2,3.1C186.7,520,185.6,519.6,185,519.1z"/>
					<path class="st12" d="M192.6,517.5c0-0.5,0.1-1.1,0.2-1.7c0.4-2.4,1.3-3.7,3.2-3.7c1.8,0,2.3,0.8,2.3,2c0,0.6-0.2,1.6-0.3,2.4
						h-4.3c-0.1,0.4-0.1,0.7-0.1,1c0,1,0.4,1.7,1.7,1.7c0.7,0,1.2-0.1,1.7-0.3l0.3,0.8c-0.6,0.2-1.3,0.4-2.1,0.4
						C193.2,520,192.6,519,192.6,517.5z M193.8,515.6h3.4c0.1-0.5,0.2-1,0.2-1.3c0-0.7-0.3-1.2-1.4-1.2
						C194.6,513,194.1,514,193.8,515.6z"/>
					<path class="st12" d="M199,517.5c0-0.5,0.1-1.1,0.2-1.7c0.4-2.4,1.2-3.7,3.2-3.7c1,0,1.5,0.2,1.9,0.4l-0.6,0.8
						c-0.3-0.2-0.7-0.3-1.4-0.3c-1.4,0-1.9,1-2.2,2.9c-0.1,0.6-0.2,1.1-0.2,1.5c0,1.1,0.4,1.7,1.6,1.7c0.4,0,0.8-0.1,1.3-0.3
						l0.3,0.8c-0.6,0.3-1.2,0.3-1.8,0.3C199.6,520,199,519,199,517.5z"/>
					<path class="st12" d="M205,512.2h1.2l0.5-2.2l0.9-0.2l-0.4,2.3h1.8l-0.2,0.9H207l-0.8,4.8c-0.1,0.7-0.1,1.1,0.8,1.1h0.8
						l-0.2,0.9c-0.1,0-0.8,0-0.9,0c-1.6,0-1.8-0.7-1.6-2.1l0.8-4.7h-1.2L205,512.2z"/>
					<path class="st12" d="M210.4,512.2h1l-1.4,7.7h-1L210.4,512.2z M210.9,509.7h1l-0.3,1.5h-1L210.9,509.7z"/>
					<path class="st12" d="M212,517.4c0-0.5,0.1-1,0.2-1.6c0.4-2.2,1.2-3.7,3.4-3.7c2,0,2.6,1.1,2.6,2.6c0,0.5-0.1,1.1-0.2,1.7
						c-0.4,2.3-1.1,3.7-3.4,3.7C212.6,520,212,518.9,212,517.4z M216.9,516.2c0.1-0.5,0.2-1.1,0.2-1.5c0-1-0.3-1.7-1.6-1.7
						c-1.6,0-2,1.3-2.3,2.9c-0.1,0.5-0.2,1-0.2,1.4c0,1,0.4,1.8,1.6,1.8C216.2,519.1,216.6,517.9,216.9,516.2z"/>
					<path class="st12" d="M219.9,512.3l0.8-0.1l-0.1,0.7c0.4-0.5,1.1-0.8,2.1-0.8c2.3,0,2.2,1.4,1.9,3l-0.9,4.9h-1l0.8-4.8
						c0.3-1.3,0.3-2.1-1.3-2.1c-1.3,0-1.8,1-2.1,2.8l-0.7,4.1h-1L219.9,512.3z"/>
					<path class="st12" d="M225,519.4l0.5-0.8c0.4,0.3,1,0.6,2,0.6c0.7,0,1.4-0.3,1.4-1.4c0-0.6-0.4-0.9-1.3-1.5
						c-0.9-0.6-1.6-1.1-1.6-2c0-1.6,1.1-2.2,2.4-2.2c1,0,1.7,0.2,2.1,0.5l-0.5,0.8c-0.3-0.2-0.8-0.4-1.6-0.4c-0.8,0-1.3,0.4-1.3,1.3
						c0,0.6,0.5,0.9,1.2,1.4c1,0.6,1.5,1.1,1.5,2.1c0,1.7-1.2,2.3-2.4,2.3C226.3,520,225.6,519.7,225,519.4z"/>
					<path class="st12" d="M235,520c-1.4,0-1.6-0.6-1.4-1.8l1.6-9h1l-1.6,9c-0.1,0.6-0.1,0.9,0.8,0.9l-0.2,0.9
						C235.3,520,235.2,520,235,520z"/>
					<path class="st12" d="M236.7,517.5c0-0.5,0.1-1.1,0.2-1.7c0.4-2.4,1.3-3.7,3.2-3.7c1.8,0,2.3,0.8,2.3,2c0,0.6-0.2,1.6-0.3,2.4
						h-4.3c-0.1,0.4-0.1,0.7-0.1,1c0,1,0.4,1.7,1.7,1.7c0.7,0,1.2-0.1,1.7-0.3l0.3,0.8c-0.6,0.2-1.3,0.4-2.1,0.4
						C237.2,520,236.7,519,236.7,517.5z M237.9,515.6h3.4c0.1-0.5,0.2-1,0.2-1.3c0-0.7-0.3-1.2-1.4-1.2
						C238.6,513,238.2,514,237.9,515.6z"/>
					<path class="st12" d="M242.3,519.4l0.5-0.8c0.4,0.3,1,0.6,2,0.6c0.7,0,1.4-0.3,1.4-1.4c0-0.6-0.4-0.9-1.3-1.5
						c-0.9-0.6-1.6-1.1-1.6-2c0-1.6,1.1-2.2,2.4-2.2c1,0,1.7,0.2,2.1,0.5l-0.5,0.8c-0.3-0.2-0.8-0.4-1.6-0.4c-0.8,0-1.3,0.4-1.3,1.3
						c0,0.6,0.5,0.9,1.2,1.4c1,0.6,1.5,1.1,1.5,2.1c0,1.7-1.2,2.3-2.4,2.3C243.6,520,242.9,519.7,242.3,519.4z"/>
					<path class="st12" d="M251.9,512.3l0.8-0.1l-0.1,0.7c0.5-0.5,1.2-0.8,2.3-0.8c1.7,0,2.2,1,2.2,2.4c0,0.6-0.1,1.2-0.2,1.8
						c-0.4,2.1-1,3.7-2.9,3.7c-1.4,0-2-0.4-2.3-1l-0.5,3.1h-1L251.9,512.3z M255.9,516.3c0.1-0.6,0.2-1.1,0.2-1.6
						c0-1-0.3-1.6-1.5-1.6c-1.7,0-2,1.2-2.3,2.9c-0.1,0.5-0.2,1-0.2,1.5c0,1,0.4,1.7,1.7,1.7C255.2,519.1,255.6,518,255.9,516.3z"/>
					<path class="st12" d="M259.3,520c-1.4,0-1.6-0.6-1.4-1.8l1.6-9h1l-1.6,9c-0.1,0.6-0.1,0.9,0.8,0.9l-0.2,0.9
						C259.6,520,259.5,520,259.3,520z"/>
					<path class="st12" d="M261.2,517l0.8-4.8h1l-0.8,4.8c-0.2,1.2-0.3,2.1,1.3,2.1c1.3,0,1.5-0.6,1.8-1.9l0.9-5h1l-0.9,5.1
						c-0.3,1.9-0.8,2.7-2.8,2.7C261.1,520,260.9,518.9,261.2,517z"/>
					<path class="st12" d="M267,519.4l0.5-0.8c0.4,0.3,1,0.6,2,0.6c0.7,0,1.4-0.3,1.4-1.4c0-0.6-0.4-0.9-1.3-1.5
						c-0.9-0.6-1.6-1.1-1.6-2c0-1.6,1.1-2.2,2.4-2.2c1,0,1.7,0.2,2.1,0.5l-0.5,0.8c-0.3-0.2-0.8-0.4-1.6-0.4c-0.8,0-1.3,0.4-1.3,1.3
						c0,0.6,0.5,0.9,1.2,1.4c1,0.6,1.5,1.1,1.5,2.1c0,1.7-1.2,2.3-2.4,2.3C268.3,520,267.6,519.7,267,519.4z"/>
					<path class="st12" d="M275.5,517.5c0-0.5,0.1-1.1,0.2-1.7c0.4-2.4,1.2-3.7,3.2-3.7c1,0,1.5,0.2,1.9,0.4l-0.6,0.8
						c-0.3-0.2-0.7-0.3-1.4-0.3c-1.4,0-1.9,1-2.2,2.9c-0.1,0.6-0.2,1.1-0.2,1.5c0,1.1,0.4,1.7,1.6,1.7c0.4,0,0.8-0.1,1.3-0.3
						l0.3,0.8c-0.6,0.3-1.2,0.3-1.8,0.3C276.1,520,275.5,519,275.5,517.5z"/>
					<path class="st12" d="M282.8,509.2h1l-0.7,3.7c0.4-0.4,1-0.8,2-0.8c2.3,0,2.2,1.4,1.9,3l-0.9,4.9h-1l0.8-4.8
						c0.2-1.3,0.3-2.1-1.3-2.1c-1.4,0-1.8,1-2.1,2.8l-0.7,4.1h-1L282.8,509.2z"/>
					<path class="st12" d="M288,517.5c0-0.5,0.1-1.1,0.2-1.7c0.4-2.4,1.3-3.7,3.2-3.7c1.8,0,2.3,0.8,2.3,2c0,0.6-0.2,1.6-0.3,2.4
						h-4.3c-0.1,0.4-0.1,0.7-0.1,1c0,1,0.4,1.7,1.7,1.7c0.7,0,1.2-0.1,1.7-0.3l0.3,0.8c-0.6,0.2-1.3,0.4-2.1,0.4
						C288.6,520,288,519,288,517.5z M289.2,515.6h3.4c0.1-0.5,0.2-1,0.2-1.3c0-0.7-0.3-1.2-1.4-1.2C290,513,289.5,514,289.2,515.6z
						 M290.1,509.2h1.1l1.2,2.2h-0.9L290.1,509.2z"/>
					<path class="st12" d="M295.5,512.3l0.8-0.1l-0.1,0.8c0.4-0.5,1.1-0.9,2.3-0.9l-0.2,1c-1.9,0-2.2,1.3-2.5,2.8l-0.7,4h-1
						L295.5,512.3z"/>
					<path class="st12" d="M298.1,517.5c0-0.5,0.1-1.1,0.2-1.7c0.4-2.4,1.3-3.7,3.2-3.7c1.8,0,2.3,0.8,2.3,2c0,0.6-0.2,1.6-0.3,2.4
						h-4.3c-0.1,0.4-0.1,0.7-0.1,1c0,1,0.4,1.7,1.7,1.7c0.7,0,1.2-0.1,1.7-0.3l0.3,0.8c-0.6,0.2-1.3,0.4-2.1,0.4
						C298.7,520,298.1,519,298.1,517.5z M299.3,515.6h3.4c0.1-0.5,0.2-1,0.2-1.3c0-0.7-0.3-1.2-1.4-1.2
						C300.1,513,299.7,514,299.3,515.6z"/>
					<path class="st12" d="M303.8,519.4l0.5-0.8c0.4,0.3,1,0.6,2,0.6c0.7,0,1.4-0.3,1.4-1.4c0-0.6-0.4-0.9-1.3-1.5
						c-0.9-0.6-1.6-1.1-1.6-2c0-1.6,1.1-2.2,2.4-2.2c1,0,1.7,0.2,2.1,0.5l-0.5,0.8c-0.3-0.2-0.8-0.4-1.6-0.4c-0.8,0-1.3,0.4-1.3,1.3
						c0,0.6,0.5,0.9,1.2,1.4c1,0.6,1.5,1.1,1.5,2.1c0,1.7-1.2,2.3-2.4,2.3C305.1,520,304.3,519.7,303.8,519.4z"/>
				</g>
			</g>
		</g>
		<line class="st13" x1="6" y1="504.7" x2="312.1" y2="504.7"/>
		<line class="st13" x1="312.1" y1="525.2" x2="6" y2="525.2"/>
	</g>
</g>
<g id="A65_Source">
</g>
<g id="A65" class="st15">
</g>
<g id="A64_Source">
</g>
<g id="A64" class="st15">
</g>
<g id="A62_Source">
</g>
<g id="A62" class="st15">
</g>
<g id="TEXTE_MASQUE" class="st15">
	<g class="st22">
		<g>
			<line class="st9" x1="108.4" y1="104.2" x2="155" y2="104.2"/>
			<g>
				<polygon points="110.4,105.9 108.7,104.2 110.4,102.5 108.9,102.5 107.2,104.2 108.9,105.9 				"/>
			</g>
		</g>
	</g>
	<g class="st22">
		<text transform="matrix(1 0 0 1 23.8809 182.697)" class="st6"><tspan x="0" y="0" class="st7 st37 st38">Montpon-</tspan><tspan x="-9.4" y="21" class="st7 st37 st38">Ménestérol</tspan><tspan x="39.1" y="42" class="st10 st39 st51">n°12</tspan></text>
	</g>
	<g class="st22">
		<g>
			<line class="st9" x1="137.9" y1="185.6" x2="105.3" y2="185.6"/>
			<g>
				<polygon points="136,183.9 137.7,185.6 136,187.3 137.4,187.3 139.1,185.6 137.4,183.9 				"/>
			</g>
		</g>
	</g>
	<g class="st22">
		<text transform="matrix(1 0 0 1 35.1225 249.197)" class="st6"><tspan x="0" y="0" class="st7 st37 st38">Neuvic </tspan><tspan x="53.4" y="0" class="st10 st39 st51">n°13.1</tspan></text>
	</g>
	<g class="st22">
		<g>
			<line class="st9" x1="147" y1="243.1" x2="137.1" y2="243.1"/>
			<g>
				<polygon points="145.1,241.4 146.8,243.1 145.1,244.8 146.5,244.8 148.2,243.1 146.5,241.4 				"/>
			</g>
		</g>
	</g>
	<g class="st22">
		<text transform="matrix(1 0 0 1 -7.0029 292.7746)" class="st6"><tspan x="0" y="0" class="st7 st37 st38">Périgueux centre </tspan><tspan x="128.3" y="0" class="st10 st39 st51">n°15</tspan></text>
	</g>
	<g class="st22">
		<g>
			<line class="st9" x1="168.9" y1="286.6" x2="159" y2="286.6"/>
			<g>
				<polygon points="167,284.9 168.7,286.6 167,288.3 168.4,288.3 170.1,286.6 168.4,284.9 				"/>
			</g>
		</g>
	</g>
	<g class="st22">
		<text transform="matrix(1 0 0 1 158.2832 107.4757)" class="st6"><tspan x="0" y="0" class="st7 st37 st38">Libourne-ouest </tspan><tspan x="117.3" y="0" class="st10 st39 st51">n°9</tspan></text>
	</g>
	<g class="st22">
		<g>
			<line class="st9" x1="148.3" y1="148.3" x2="194.9" y2="148.3"/>
			<g>
				<polygon points="150.3,150 148.6,148.3 150.3,146.6 148.8,146.6 147.1,148.3 148.8,150 				"/>
			</g>
		</g>
	</g>
	<g class="st22">
		<text transform="matrix(1 0 0 1 197.8918 152.4553)" class="st6"><tspan x="0" y="0" class="st7 st37 st38">Coutras </tspan><tspan x="61.2" y="0" class="st10 st39 st51">n°11</tspan></text>
	</g>
	<g class="st22">
		<text transform="matrix(1 0 0 1 173.6798 226.3413)" class="st6"><tspan x="0" y="0" class="st7 st37 st38">Mussidan </tspan><tspan x="74.2" y="0" class="st10 st39 st51">n°13</tspan></text>
	</g>
	<g class="st22">
		<g>
			<line class="st9" x1="171.3" y1="257.8" x2="189.6" y2="257.8"/>
			<g>
				<polygon points="173.3,259.5 171.6,257.8 173.3,256.1 171.8,256.1 170.1,257.8 171.8,259.5 				"/>
			</g>
		</g>
	</g>
	<g class="st22">
		<text transform="matrix(1 0 0 1 192.6539 259.9807)" class="st6"><tspan x="0" y="0" class="st7 st37 st38">Périgueux ouest</tspan><tspan x="0" y="21" class="st10 st39 st51">n°14</tspan></text>
	</g>
	<g class="st22">
		<g>
			<line class="st9" x1="147.9" y1="226.3" x2="171.9" y2="226.3"/>
			<g>
				<polygon points="149.9,228 148.2,226.3 149.9,224.6 148.4,224.6 146.7,226.3 148.4,228 				"/>
			</g>
		</g>
	</g>
	<g class="st22">
		<text transform="matrix(1 0 0 1 45.0034 378.3982)" class="st6"><tspan x="0" y="0" class="st7 st37 st38">Terrasson </tspan><tspan x="77" y="0" class="st10 st39 st51">n°18</tspan></text>
	</g>
	<g class="st22">
		<g>
			<line class="st9" x1="169.9" y1="372.8" x2="159.9" y2="372.8"/>
			<g>
				<polygon points="168,371.1 169.7,372.8 168,374.5 169.4,374.5 171.1,372.8 169.4,371.1 				"/>
			</g>
		</g>
	</g>
	<g class="st22">
		<g>
			<line class="st9" x1="179.4" y1="332" x2="197.7" y2="332"/>
			<g>
				<polygon points="181.4,333.7 179.7,332 181.4,330.3 179.9,330.3 178.2,332 179.9,333.7 				"/>
			</g>
		</g>
	</g>
	<g class="st22">
		<text transform="matrix(1 0 0 1 197.8913 336.9788)" class="st6"><tspan x="0" y="0" class="st7 st37 st38">Thenon </tspan><tspan x="60.3" y="0" class="st10 st39 st51">n°17</tspan></text>
	</g>
</g>
</svg>
