<?xml version="1.0" encoding="utf-8"?>
<!-- Generator: Adobe Illustrator 21.1.0, SVG Export Plug-In . SVG Version: 6.00 Build 0)  -->
<svg version="1.1" xmlns="http://www.w3.org/2000/svg" xmlns:xlink="http://www.w3.org/1999/xlink" x="0px" y="0px"
	 viewBox="0 0 320 575.7" style="enable-background:new 0 0 320 575.7;" xml:space="preserve">
<style type="text/css">
	.st0{fill:none;stroke:#C5C6C8;stroke-width:7;stroke-miterlimit:10;}
	.st1{fill:none;stroke:#E6E6E6;stroke-width:7;stroke-miterlimit:10;}
	.st2{fill:#E6E6E6;}
	.st3{enable-background:new    ;}
	.st4{fill:#808080;}
	.st5{fill:none;stroke:#4A170D;stroke-width:9.8873;stroke-miterlimit:10;}
	.st6{fill:none;stroke:#FEABA6;stroke-width:9.8873;stroke-miterlimit:10;}
	.st7{fill:none;stroke:#D42E1A;stroke-width:9.8873;stroke-miterlimit:10;}
	.st8{fill:#FFFFFF;stroke:#000000;stroke-width:0.5;stroke-miterlimit:10;}
	.st9{fill:none;stroke:#000000;stroke-miterlimit:10;}
	.st10{fill:#D42E1A;}
	.st11{fill:#B0B2B3;}
	.st12{fill:none;stroke:#FFFFFF;stroke-width:3.5406;stroke-miterlimit:10;}
	.st13{fill:none;stroke:#C5C6C8;stroke-width:16.301;stroke-miterlimit:10;}
	.st14{display:none;}
	.st15{display:inline;fill:none;stroke:#C5C6C8;stroke-width:13.3148;stroke-miterlimit:10;}
	.st16{display:inline;fill:none;stroke:#E6E6E6;stroke-width:7;stroke-miterlimit:10;}
	.st17{display:inline;fill:none;stroke:#C5C6C8;stroke-width:7;stroke-miterlimit:10;}
	.st18{display:inline;fill:none;stroke:#FEABA6;stroke-width:9.8873;stroke-miterlimit:10;}
	.st19{display:inline;fill:none;stroke:#C6C6C6;stroke-width:7;stroke-miterlimit:10;}
	.st20{display:inline;fill:none;stroke:#FFFFFF;stroke-width:3.3287;stroke-miterlimit:10;}
	.st21{display:inline;fill:#808080;}
	.st22{font-family:'AntennaCond-Regular';}
	.st23{font-size:27px;}
	.st24{display:inline;fill:#E6E6E6;}
	.st25{font-size:19px;}
	.st26{display:inline;}
	.st27{font-family:'AntennaCond-Light';}
	.st28{display:inline;fill:none;stroke:#D42E1A;stroke-width:9.8873;stroke-miterlimit:10;}
	.st29{font-family:'AntennaCond-Medium';}
	.st30{font-size:18px;}
	.st31{display:inline;fill:none;stroke:#70C25C;stroke-width:9.8873;stroke-miterlimit:10;}
	.st32{fill:#70C25C;}
	.st33{font-family:'Webdings';}
	.st34{font-size:14px;}
	.st35{font-family:'AntennaCond-LightItalic';}
	.st36{display:inline;fill:none;stroke:#C6C6C6;stroke-width:0.75;stroke-miterlimit:10;}
	.st37{fill:none;stroke:#C5C6C8;stroke-width:13.3148;stroke-miterlimit:10;}
	.st38{fill:none;stroke:#C6C6C6;stroke-width:7;stroke-miterlimit:10;}
	.st39{fill:none;stroke:#FFFFFF;stroke-width:3.3287;stroke-miterlimit:10;}
	.st40{fill:none;stroke:#70C25C;stroke-width:9.8873;stroke-miterlimit:10;}
	.st41{fill:#4D4D4D;}
	.st42{fill:none;stroke:#808080;stroke-width:0.75;stroke-miterlimit:10;}
	.st43{fill:none;stroke:#FFFFFF;stroke-width:2.4718;stroke-miterlimit:10;}
	.st44{fill:none;stroke:#79170D;stroke-width:9.8873;stroke-miterlimit:10;}
</style>
<g id="A63">
</g>
<g id="A20">
</g>
<g id="A837">
</g>
<g id="A10">
</g>
<g id="A89">
</g>
<g id="A65">
</g>
<g id="A64_Source" class="st14">
	<line class="st16" x1="217.4" y1="508.7" x2="201.8" y2="493"/>
	<line class="st16" x1="155" y1="508.7" x2="173.9" y2="489.8"/>
	<polyline class="st17" points="171.8,94.4 166.7,89.8 166.7,58.7 173.6,51.8 	"/>
	<polyline class="st18" points="171.8,94.4 184.6,105.9 184.6,108 	"/>
	<polyline class="st19" points="173.9,470.1 151.3,447.8 120.8,417.5 106.5,403.3 106.5,239.6 184.6,161.5 184.6,105.9 	"/>
	<line class="st19" x1="200.8" y1="114.4" x2="184.6" y2="114.4"/>
	<line class="st17" x1="106.5" y1="348.9" x2="91.8" y2="335"/>
	<path class="st16" d="M173.9,490.2c-2.3-1.3-4.5-3.9-4.5-8.8c0-9.9,8.9-12.1,8.9-12.1h15.9"/>
	<path class="st16" d="M194.2,469.3h3.2c0,0,8.2,1.8,8.2,11.8s-8.2,10.5-8.2,10.5h-19.1c0,0-2.2-0.1-4.4-1.4"/>
	<line class="st17" x1="155" y1="240.7" x2="129.4" y2="216.7"/>
	<text transform="matrix(1 0 0 1 181.5319 537.239)" class="st21 st22 st23">TOULOUSE</text>
	<text transform="matrix(1 0 0 1 38.9098 26.0089)" class="st21 st22 st23">BAYONNE</text>
	<text transform="matrix(1 0 0 1 87.137 216.676)" class="st24 st22 st25">PAU</text>
	
		<ellipse transform="matrix(0.7071 -0.7071 0.7071 0.7071 -129.6726 141.9114)" class="st24" cx="106.5" cy="227.5" rx="7.5" ry="7.5"/>
	<g class="st26">
		<g>
			
				<ellipse transform="matrix(0.7071 -0.7071 0.7071 0.7071 -284.2517 273.2802)" class="st8" cx="187.8" cy="479.8" rx="9.1" ry="9.1"/>
		</g>
	</g>
	<polyline class="st16" points="221,80.6 195.5,55.1 175.3,55.1 150.7,30.6 	"/>
	<g class="st26">
		<g>
			
				<ellipse transform="matrix(0.7071 -0.7071 0.7071 0.7071 10.2841 136.0176)" class="st8" cx="169.3" cy="55.6" rx="9.1" ry="9.1"/>
		</g>
	</g>
	<g class="st26">
		<text transform="matrix(1 0 0 1 211.3027 62.6107)" class="st2 st27 st25">A63</text>
	</g>
	<g class="st26">
		<text transform="matrix(1 0 0 1 150.7099 228.8603)" class="st2 st27 st25">A65</text>
	</g>
	<g class="st26">
		<text transform="matrix(1 0 0 1 43.5087 351.6114)" class="st2 st27 st25">A645</text>
	</g>
	<g class="st26">
		<text transform="matrix(1 0 0 1 210.9943 497.8264)" class="st2 st27 st25">A68</text>
	</g>
	<g class="st26">
		<text transform="matrix(1 0 0 1 129.2261 494.8476)" class="st2 st27 st25">A61</text>
	</g>
	<g class="st26">
		<text transform="matrix(1 0 0 1 200.7793 126.1843)" class="st2 st27 st25">A641</text>
	</g>
	<line class="st28" x1="184.6" y1="114.4" x2="184.6" y2="105.9"/>
	<g class="st26">
		<text transform="matrix(1 0 0 1 36.6874 100.0312)" class="st3"><tspan x="0" y="0" class="st4 st29 st30">Peyrehorade</tspan><tspan x="67.3" y="18" class="st10 st22 st30">n°6</tspan></text>
	</g>
	<g class="st26">
		<g>
			<text transform="matrix(1 0 0 1 247.1127 116.425)" class="st3"><tspan x="0" y="0" class="st4 st29 st30">Sames</tspan><tspan x="0" y="18" class="st10 st22 st30">Péage</tspan></text>
		</g>
	</g>
	<g class="st26">
		<g>
			<line class="st9" x1="189.2" y1="105.9" x2="244.2" y2="105.9"/>
			<g>
				<polygon points="191.2,107.6 189.5,105.9 191.2,104.2 189.7,104.2 188,105.9 189.7,107.6 				"/>
			</g>
		</g>
	</g>
	<line class="st18" x1="184.6" y1="158.4" x2="184.6" y2="114.4"/>
	<g class="st26">
		<text transform="matrix(1 0 0 1 84.0739 163.9558)" class="st3"><tspan x="0" y="0" class="st4 st29 st30">Salies</tspan><tspan x="19.1" y="18" class="st10 st22 st30">n°7</tspan></text>
	</g>
	<polyline class="st31" points="184.6,158.4 184.6,161.5 168.8,177.3 	"/>
	<g class="st26">
		<g>
			<line class="st9" x1="178" y1="158.4" x2="132" y2="158.4"/>
			<g>
				<polygon points="176,156.7 177.7,158.4 176,160.1 177.5,160.1 179.2,158.4 177.5,156.7 				"/>
			</g>
		</g>
	</g>
	<g class="st26">
		<text transform="matrix(1 0 0 1 251.1502 79.4356)" class="st3"><tspan x="0" y="0" class="st4 st29 st30">Urt</tspan><tspan x="0" y="18" class="st10 st22 st30">n°4</tspan></text>
	</g>
	<g class="st26">
		<g>
			<line class="st9" x1="172.7" y1="93.9" x2="247.7" y2="93.9"/>
			<g>
				<polygon points="174.7,95.6 173,93.9 174.7,92.2 173.2,92.2 171.5,93.9 173.2,95.6 				"/>
			</g>
		</g>
	</g>
	<g class="st26">
		<g>
			<line class="st9" x1="180.2" y1="114.7" x2="136.2" y2="114.7"/>
			<g>
				<polygon points="178.3,113 180,114.7 178.3,116.4 179.7,116.4 181.4,114.7 179.7,113 				"/>
			</g>
		</g>
	</g>
	<line class="st31" x1="142.2" y1="203.9" x2="168.8" y2="177.3"/>
	<line class="st31" x1="121" y1="225" x2="142.2" y2="203.9"/>
	<line class="st31" x1="109.9" y1="236.2" x2="121.2" y2="224.9"/>
	<g class="st26">
		<text transform="matrix(1 0 0 1 194.8567 242.6579)" class="st3"><tspan x="0" y="0" class="st4 st29 st30">Pau centre</tspan><tspan x="0" y="18" class="st10 st22 st30">n°10</tspan></text>
	</g>
	<polyline class="st18" points="107.5,238.6 106.5,239.6 106.5,248.6 	"/>
	<line class="st31" x1="115.2" y1="230.9" x2="107.5" y2="238.6"/>
	<g class="st26">
		<g>
			<line class="st9" x1="116.4" y1="238.1" x2="191.4" y2="238.1"/>
			<g>
				<polygon points="118.4,239.8 116.7,238.1 118.4,236.4 116.9,236.4 115.2,238.1 116.9,239.8 				"/>
			</g>
		</g>
	</g>
	<line class="st31" x1="106.5" y1="294.8" x2="106.5" y2="248.6"/>
	<line class="st31" x1="106.5" y1="299.4" x2="106.5" y2="290.1"/>
	<line class="st31" x1="106.5" y1="309.5" x2="106.5" y2="299.4"/>
	<line class="st28" x1="106.5" y1="395.5" x2="106.5" y2="379.7"/>
	<line class="st28" x1="106.5" y1="399.8" x2="106.5" y2="395.5"/>
	<line class="st31" x1="106.5" y1="318.8" x2="106.5" y2="309.5"/>
	<line class="st18" x1="106.5" y1="340.4" x2="106.5" y2="329.4"/>
	<line class="st18" x1="106.5" y1="379.7" x2="106.5" y2="340.1"/>
	<line class="st18" x1="106.5" y1="324.1" x2="106.5" y2="318.8"/>
	<line class="st18" x1="106.5" y1="329.4" x2="106.5" y2="324.1"/>
	<line class="st28" x1="169.2" y1="465.9" x2="165.8" y2="462.6"/>
	<polyline class="st28" points="109,405.7 106.5,403.3 106.5,399.8 	"/>
	<g class="st26">
		<text transform="matrix(1 0 0 1 249.434 462.1871)" class="st3"><tspan x="0" y="0" class="st4 st29 st30">Muret-</tspan><tspan x="0" y="18" class="st4 st29 st30">nord</tspan><tspan x="0" y="36" class="st10 st22 st30">n°35</tspan></text>
	</g>
	<g class="st26">
		<g>
			<text transform="matrix(1 0 0 1 192.0221 402.1888)" class="st3"><tspan x="0" y="0" class="st4 st29 st30">Lestelle</tspan><tspan x="0" y="18" class="st10 st22 st30">Péage</tspan></text>
		</g>
	</g>
	<g class="st26">
		<g>
			<line class="st9" x1="113.5" y1="395.5" x2="188.5" y2="395.5"/>
			<g>
				<polygon points="115.5,397.2 113.8,395.5 115.5,393.8 114,393.8 112.3,395.5 114,397.2 				"/>
			</g>
		</g>
	</g>
	<g class="st26">
		<g>
			<line class="st9" x1="101.8" y1="248.4" x2="88.8" y2="248.4"/>
			<g>
				<polygon points="99.9,246.7 101.6,248.4 99.9,250.1 101.3,250.1 103,248.4 101.3,246.7 				"/>
			</g>
		</g>
	</g>
	<g class="st26">
		<text transform="matrix(1 0 0 1 1.1176 253.2178)" class="st3"><tspan x="0" y="0" class="st4 st29 st30">Soumoulou</tspan><tspan x="57.4" y="18" class="st10 st22 st30">n°11</tspan></text>
	</g>
	<g class="st26">
		<g>
			<line class="st9" x1="101.8" y1="318.7" x2="86.8" y2="318.7"/>
			<g>
				<polygon points="99.9,317 101.6,318.7 99.9,320.4 101.3,320.4 103,318.7 101.3,317 				"/>
			</g>
		</g>
	</g>
	<g class="st26">
		<text transform="matrix(1 0 0 1 22.7773 303.1115)" class="st3"><tspan x="0" y="0" class="st4 st29 st30">Capvern</tspan><tspan x="29.1" y="18" class="st10 st22 st30">n°15</tspan></text>
	</g>
	<g class="st26">
		<g>
			<line class="st9" x1="114" y1="379.6" x2="158" y2="379.6"/>
			<g>
				<polygon points="115.9,381.3 114.2,379.6 115.9,377.9 114.5,377.9 112.8,379.6 114.5,381.3 				"/>
			</g>
		</g>
	</g>
	<g class="st26">
		<text transform="matrix(1 0 0 1 160.5974 362.018)" class="st3"><tspan x="0" y="0" class="st4 st29 st30">Saint-Gaudens</tspan><tspan x="0" y="18" class="st10 st22 st30">n°18</tspan></text>
	</g>
	<g class="st26">
		<g>
			<line class="st9" x1="105.3" y1="409.2" x2="78.3" y2="409.2"/>
			<g>
				<polygon points="103.4,407.5 105.1,409.2 103.4,410.9 104.8,410.9 106.5,409.2 104.8,407.5 				"/>
			</g>
		</g>
	</g>
	<g class="st26">
		<text transform="matrix(1 0 0 1 26.5613 416.4336)" class="st3"><tspan x="0" y="0" class="st4 st29 st30">Saint-</tspan><tspan x="-13" y="18" class="st4 st29 st30">Martory</tspan><tspan x="9.1" y="36" class="st10 st22 st30">n°20</tspan></text>
	</g>
	<g class="st26">
		<g>
			<text transform="matrix(1 0 0 1 71.2594 481.6295)" class="st3"><tspan x="0" y="0" class="st4 st29 st30"> Muret</tspan><tspan x="2.1" y="18" class="st10 st22 st30">Péage</tspan></text>
		</g>
	</g>
	<g class="st26">
		<g>
			<text transform="matrix(1 0 0 1 9.9225 565.6295)" class="st3"><tspan x="0" y="0" class="st32 st33 st34"></tspan><tspan x="14" y="1" class="st4 st35 st34"> Sections les moins chères   </tspan><tspan x="159.4" y="0" class="st10 st33 st34"></tspan><tspan x="173.4" y="1" class="st4 st35 st34"> Sections les plus chères</tspan></text>
		</g>
	</g>
	<g class="st26">
		<g>
			<line class="st9" x1="170.9" y1="460" x2="245.9" y2="460"/>
			<g>
				<polygon points="172.9,461.7 171.2,460 172.9,458.3 171.4,458.3 169.7,460 171.4,461.7 				"/>
			</g>
		</g>
	</g>
	<g class="st26">
		<g>
			<line class="st9" x1="164.6" y1="469.4" x2="120.6" y2="469.4"/>
			<g>
				<polygon points="162.7,467.7 164.4,469.4 162.7,471.1 164.1,471.1 165.8,469.4 164.1,467.7 				"/>
			</g>
		</g>
	</g>
	<line class="st36" x1="6" y1="551.4" x2="312.1" y2="551.4"/>
	<line class="st36" x1="312.1" y1="571.9" x2="6" y2="571.9"/>
</g>
<g id="A64">
	<line class="st1" x1="217.4" y1="508.7" x2="201.8" y2="493"/>
	<line class="st1" x1="155" y1="508.7" x2="173.9" y2="489.8"/>
	<polyline class="st0" points="171.8,94.4 166.7,89.8 166.7,58.7 173.6,51.8 	"/>
	<polyline class="st6" points="171.8,94.4 184.6,105.9 184.6,108 	"/>
	<polyline class="st38" points="173.9,470.1 151.3,447.8 120.8,417.5 106.5,403.3 106.5,239.6 184.6,161.5 184.6,105.9 	"/>
	<line class="st38" x1="200.8" y1="114.4" x2="184.6" y2="114.4"/>
	<line class="st0" x1="106.5" y1="348.9" x2="91.8" y2="335"/>
	<path class="st1" d="M173.9,490.2c-2.3-1.3-4.5-3.9-4.5-8.8c0-9.9,8.9-12.1,8.9-12.1h15.9"/>
	<path class="st1" d="M194.2,469.3h3.2c0,0,8.2,1.8,8.2,11.8s-8.2,10.5-8.2,10.5h-19.1c0,0-2.2-0.1-4.4-1.4"/>
	<line class="st0" x1="155" y1="240.7" x2="129.4" y2="216.7"/>
	<g class="st3">
		<path class="st4" d="M187.6,519.6H182v-2.4h13.9v2.4h-5.6v17.6h-2.6V519.6z"/>
		<path class="st4" d="M196.5,527.3c0-5.5,0.9-10.2,7.6-10.2c6.7,0,7.6,4.7,7.6,10.2s-0.8,10.2-7.6,10.2
			C197.4,537.5,196.5,532.8,196.5,527.3z M209,527.3c0-4.5-0.5-7.8-4.9-7.8c-4.5,0-5,3.3-5,7.8c0,4.5,0.5,7.8,5,7.8
			C208.6,535.1,209,531.8,209,527.3z"/>
		<path class="st4" d="M214,530.6v-13.3h2.6v13.1c0,3.1,0.8,4.7,4.2,4.7c3.4,0,4.3-1.6,4.3-4.7v-13.1h2.5v13.3
			c0,4.4-1.5,6.9-6.8,6.9C215.6,537.5,214,535,214,530.6z"/>
		<path class="st4" d="M231,517.2h2.6v17.7h8.2v2.3H231V517.2z"/>
		<path class="st4" d="M242.5,527.3c0-5.5,0.9-10.2,7.6-10.2c6.7,0,7.6,4.7,7.6,10.2s-0.8,10.2-7.6,10.2
			C243.3,537.5,242.5,532.8,242.5,527.3z M255,527.3c0-4.5-0.5-7.8-4.9-7.8c-4.5,0-5,3.3-5,7.8c0,4.5,0.5,7.8,5,7.8
			C254.6,535.1,255,531.8,255,527.3z"/>
		<path class="st4" d="M260,530.6v-13.3h2.6v13.1c0,3.1,0.8,4.7,4.2,4.7c3.4,0,4.3-1.6,4.3-4.7v-13.1h2.5v13.3
			c0,4.4-1.5,6.9-6.8,6.9C261.6,537.5,260,535,260,530.6z"/>
		<path class="st4" d="M275.8,535.8l1.3-2c1,0.6,2.7,1.4,5.2,1.4c2.6,0,3.8-1.1,3.8-3c0-2.3-1.2-2.9-4.4-4.2
			c-3.3-1.4-5.1-2.6-5.1-5.7c0-3.2,2.1-5.2,6-5.2c2.3,0,3.9,0.4,5.3,1.1l-1.1,2.2c-1-0.5-2.3-0.9-4.2-0.9c-2.4,0-3.5,1.1-3.5,2.7
			c0,1.9,0.8,2.4,3.7,3.6c4.1,1.7,5.8,2.7,5.8,6.3c0,3.3-2.1,5.3-6.3,5.3C279.3,537.5,277.2,536.7,275.8,535.8z"/>
		<path class="st4" d="M291.3,517.2h11v2.4h-8.4v6.1h8v2.4h-8v6.8h8.5v2.3h-11.1V517.2z"/>
	</g>
	<g class="st3">
		<path class="st4" d="M40.7,6H47c3.9,0,5.8,1.5,5.8,5c0,2.6-1,3.9-2.5,4.5c1.9,0.6,2.9,2,2.9,5c0,4.1-2.3,5.5-6.1,5.5h-6.5V6z
			 M47,14.5c2.1,0,3.3-0.7,3.3-3.2c0-2.4-1.2-3.1-3.3-3.1h-3.7v6.2H47z M47.2,23.8c2.1,0,3.5-0.7,3.5-3.5c0-2.7-1.4-3.4-3.5-3.4
			h-3.9v6.9H47.2z"/>
		<path class="st4" d="M60.6,5.9h2.8L69.6,26h-2.6l-1.2-4.2h-7.4L57.1,26h-2.6L60.6,5.9z M65,19.5l-3-9.9l-3,9.9H65z"/>
		<path class="st4" d="M74.4,18.8L68.2,6H71l4.8,10l4.8-10h2.7L77,18.8V26h-2.6V18.8z"/>
		<path class="st4" d="M83.6,16c0-5.5,0.9-10.2,7.6-10.2c6.7,0,7.6,4.7,7.6,10.2S98,26.2,91.3,26.2C84.5,26.2,83.6,21.6,83.6,16z
			 M96.2,16.1c0-4.5-0.5-7.8-4.9-7.8c-4.5,0-5,3.3-5,7.8c0,4.5,0.5,7.8,5,7.8C95.7,23.9,96.2,20.6,96.2,16.1z"/>
		<path class="st4" d="M101.5,6h2.8l8.1,14.8V6h2.5v20h-2.4L104,10.5V26h-2.5V6z"/>
		<path class="st4" d="M118.4,6h2.8l8.1,14.8V6h2.5v20h-2.4l-8.5-15.5V26h-2.5V6z"/>
		<path class="st4" d="M135.3,6h11v2.4h-8.4v6.1h8v2.4h-8v6.8h8.5V26h-11.1V6z"/>
	</g>
	<g class="st3">
		<path class="st2" d="M88.4,202.6h4.8c2.9,0,4.2,1.4,4.2,4.3c0,2.8-1.2,4.5-4.2,4.5h-2.9v5.3h-1.8V202.6z M93.1,209.7
			c1.7,0,2.5-0.7,2.5-2.7s-0.8-2.7-2.5-2.7h-2.9v5.4H93.1z"/>
		<path class="st2" d="M101.2,202.5h1.9l4.3,14.2h-1.9l-0.9-2.9h-5.2l-0.8,2.9h-1.8L101.2,202.5z M104.2,212.1l-2.1-7l-2.1,7H104.2z
			"/>
		<path class="st2" d="M108.5,212v-9.4h1.8v9.3c0,2.2,0.6,3.3,3,3.3c2.4,0,3-1.1,3-3.3v-9.3h1.8v9.4c0,3.1-1,4.9-4.8,4.9
			C109.6,216.9,108.5,215.1,108.5,212z"/>
	</g>
	
		<ellipse transform="matrix(0.7071 -0.7071 0.7071 0.7071 -129.6726 141.9114)" class="st2" cx="106.5" cy="227.5" rx="7.5" ry="7.5"/>
	<g>
		<g>
			
				<ellipse transform="matrix(0.7071 -0.7071 0.7071 0.7071 -284.2517 273.2802)" class="st8" cx="187.8" cy="479.8" rx="9.1" ry="9.1"/>
		</g>
	</g>
	<polyline class="st1" points="221,80.6 195.5,55.1 175.3,55.1 150.7,30.6 	"/>
	<g>
		<g>
			
				<ellipse transform="matrix(0.7071 -0.7071 0.7071 0.7071 10.2841 136.0176)" class="st8" cx="169.3" cy="55.6" rx="9.1" ry="9.1"/>
		</g>
	</g>
	<g>
		<g class="st3">
			<path class="st2" d="M216.1,48.4h1.5l4.3,14.2h-1.4l-1-3.2h-5.4l-0.9,3.2h-1.4L216.1,48.4z M219.1,58.1l-2.3-7.6l-2.3,7.6H219.1z
				"/>
			<path class="st2" d="M223.3,57c0-5.7,0.2-8.5,5.9-8.5h0.9v1.3h-1c-3.9,0-4.2,1.8-4.4,4.6c0.6-0.8,1.7-1.2,3.2-1.2
				c3.1,0,3.6,1.7,3.6,4.5c0,3.3-0.8,5-4,5C223.8,62.8,223.3,60.8,223.3,57z M230.2,57.7c0-2.2-0.5-3.3-2.6-3.3
				c-1.7,0-2.9,0.9-2.9,3.2c0,2.7,0.5,3.9,2.9,3.9C229.8,61.5,230.2,60.2,230.2,57.7z"/>
			<path class="st2" d="M232.9,61.9l0.6-1.1c0.8,0.4,1.6,0.7,2.8,0.7c1.9,0,2.7-0.8,2.7-3c0-1.7-0.3-2.8-2.8-2.8h-1.6v-1.3h1.7
				c1.9,0,2.3-1.1,2.3-2.4c0-1.9-0.7-2.3-2.3-2.3c-1,0-1.9,0.3-2.7,0.6l-0.6-1.1c0.9-0.5,2.1-0.8,3.4-0.8c2.2,0,3.5,0.6,3.5,3.4
				c0,1.9-0.5,2.8-1.5,3.2c1.4,0.4,1.9,1.3,1.9,3.7c0,3.1-1.3,4.2-4,4.2C234.8,62.8,233.9,62.5,232.9,61.9z"/>
		</g>
	</g>
	<g>
		<g class="st3">
			<path class="st2" d="M155.5,214.7h1.5l4.3,14.2h-1.4l-1-3.2h-5.4l-0.9,3.2h-1.4L155.5,214.7z M158.5,224.3l-2.3-7.6l-2.3,7.6
				H158.5z"/>
			<path class="st2" d="M162.8,223.3c0-5.7,0.2-8.5,5.9-8.5h0.9v1.3h-1c-3.9,0-4.2,1.8-4.4,4.6c0.6-0.8,1.7-1.2,3.2-1.2
				c3.1,0,3.6,1.7,3.6,4.5c0,3.3-0.8,5-4,5C163.2,229,162.8,227,162.8,223.3z M169.7,224c0-2.2-0.5-3.3-2.6-3.3
				c-1.7,0-2.9,0.9-2.9,3.2c0,2.7,0.5,3.9,2.9,3.9C169.2,227.8,169.7,226.5,169.7,224z"/>
			<path class="st2" d="M172.6,228.2l0.6-1.1c0.7,0.4,1.6,0.7,3,0.7c1.9,0,2.8-0.6,2.8-3.4c0-2.8-0.9-3.3-2.6-3.3
				c-1.1,0-1.9,0.4-2.4,0.8l-1.1-0.3l0.3-6.7h6.4v1.3h-5.2l-0.2,4.3c0.5-0.4,1.3-0.6,2.5-0.6c2.5,0,3.6,0.9,3.6,4.6
				c0,3.9-1.3,4.8-4.1,4.8C174.6,229,173.5,228.7,172.6,228.2z"/>
		</g>
	</g>
	<g>
		<g class="st3">
			<path class="st2" d="M48.3,337.4h1.5l4.3,14.2h-1.4l-1-3.2h-5.4l-0.9,3.2h-1.4L48.3,337.4z M51.3,347.1l-2.3-7.6l-2.3,7.6H51.3z"
				/>
			<path class="st2" d="M55.6,346c0-5.7,0.2-8.5,5.9-8.5h0.9v1.3h-1c-3.9,0-4.2,1.8-4.4,4.6c0.6-0.8,1.7-1.2,3.2-1.2
				c3.1,0,3.6,1.7,3.6,4.5c0,3.3-0.8,5-4,5C56,351.8,55.6,349.8,55.6,346z M62.5,346.7c0-2.2-0.5-3.3-2.6-3.3
				c-1.7,0-2.9,0.9-2.9,3.2c0,2.7,0.5,3.9,2.9,3.9C62,350.5,62.5,349.2,62.5,346.7z"/>
			<path class="st2" d="M65.4,347.1l4.9-9.6h1.5l-4.9,9.5H71l0.3-4.4h1v4.4h1.9v1.2h-1.9v3.3H71v-3.3h-5.5V347.1z"/>
			<path class="st2" d="M75.3,350.9l0.6-1.1c0.7,0.4,1.6,0.7,3,0.7c1.9,0,2.8-0.6,2.8-3.4c0-2.8-0.9-3.3-2.6-3.3
				c-1.1,0-1.9,0.4-2.4,0.8l-1.1-0.3l0.3-6.7h6.4v1.3h-5.2l-0.2,4.3c0.5-0.4,1.3-0.6,2.5-0.6c2.5,0,3.6,0.9,3.6,4.6
				c0,3.9-1.3,4.8-4.1,4.8C77.3,351.8,76.2,351.4,75.3,350.9z"/>
		</g>
	</g>
	<g>
		<g class="st3">
			<path class="st2" d="M215.7,483.7h1.5l4.3,14.2h-1.4l-1-3.2h-5.4l-0.9,3.2h-1.4L215.7,483.7z M218.7,493.3l-2.3-7.6l-2.3,7.6
				H218.7z"/>
			<path class="st2" d="M223,492.2c0-5.7,0.2-8.5,5.9-8.5h0.9v1.3h-1c-3.9,0-4.2,1.8-4.4,4.6c0.6-0.8,1.7-1.2,3.2-1.2
				c3.1,0,3.6,1.7,3.6,4.5c0,3.3-0.8,5-4,5C223.5,498,223,496,223,492.2z M229.9,493c0-2.2-0.5-3.3-2.6-3.3c-1.7,0-2.9,0.9-2.9,3.2
				c0,2.7,0.5,3.9,2.9,3.9C229.5,496.7,229.9,495.5,229.9,493z"/>
			<path class="st2" d="M233.1,493.8c0-1.8,0.2-3.2,2-3.8c-1.4-0.5-1.6-1.7-1.6-3.1c0-1.8,0.6-3.4,3.8-3.4c3.2,0,3.8,1.6,3.8,3.4
				c0,1.4-0.2,2.6-1.6,3.1c1.8,0.5,2,2,2,3.8c0,2.2-0.6,4.1-4.2,4.1C233.7,498,233.1,496.1,233.1,493.8z M240.1,493.7
				c0-1.7-0.4-2.9-2.8-2.9c-2.3,0-2.8,1.2-2.8,2.9c0,1.7,0.5,3,2.8,3C239.7,496.7,240.1,495.4,240.1,493.7z M239.8,487.2
				c0-1.4-0.5-2.4-2.4-2.4c-2,0-2.4,1-2.4,2.4c0,1.4,0.5,2.3,2.4,2.3C239.3,489.5,239.8,488.6,239.8,487.2z"/>
		</g>
	</g>
	<g>
		<g class="st3">
			<path class="st2" d="M134,480.7h1.5l4.3,14.2h-1.4l-1-3.2H132l-0.9,3.2h-1.4L134,480.7z M137,490.3l-2.3-7.6l-2.3,7.6H137z"/>
			<path class="st2" d="M141.3,489.3c0-5.7,0.2-8.5,5.9-8.5h0.9v1.3h-1c-3.9,0-4.2,1.8-4.4,4.6c0.6-0.8,1.7-1.2,3.2-1.2
				c3.1,0,3.6,1.7,3.6,4.5c0,3.3-0.8,5-4,5C141.8,495,141.3,493,141.3,489.3z M148.2,490c0-2.2-0.5-3.3-2.6-3.3
				c-1.7,0-2.9,0.9-2.9,3.2c0,2.7,0.5,3.9,2.9,3.9C147.7,493.7,148.2,492.5,148.2,490z"/>
			<path class="st2" d="M153,482h-2.1v-1.3h3.5v14.1H153V482z"/>
		</g>
	</g>
	<g>
		<g class="st3">
			<path class="st2" d="M205.5,112h1.5l4.3,14.2h-1.4l-1-3.2h-5.4l-0.9,3.2h-1.4L205.5,112z M208.5,121.7l-2.3-7.6l-2.3,7.6H208.5z"
				/>
			<path class="st2" d="M212.8,120.6c0-5.7,0.2-8.5,5.9-8.5h0.9v1.3h-1c-3.9,0-4.2,1.8-4.4,4.6c0.6-0.8,1.7-1.2,3.2-1.2
				c3.1,0,3.6,1.7,3.6,4.5c0,3.3-0.8,5-4,5C213.3,126.3,212.8,124.4,212.8,120.6z M219.7,121.3c0-2.2-0.5-3.3-2.6-3.3
				c-1.7,0-2.9,0.9-2.9,3.2c0,2.7,0.5,3.9,2.9,3.9C219.2,125.1,219.7,123.8,219.7,121.3z"/>
			<path class="st2" d="M222.7,121.7l4.9-9.6h1.5l-4.9,9.5h4.1l0.3-4.4h1v4.4h1.9v1.2h-1.9v3.3h-1.3v-3.3h-5.5V121.7z"/>
			<path class="st2" d="M234.6,113.4h-2.1v-1.3h3.5v14.1h-1.4V113.4z"/>
		</g>
	</g>
	<line class="st7" x1="184.6" y1="114.4" x2="184.6" y2="105.9"/>
	<g>
		<g class="st3">
			<path class="st4" d="M38.8,86.7h4.7c2.9,0,4.1,1.4,4.1,4.1c0,2.7-1.2,4.4-4.1,4.4h-2.6v4.8h-2.1V86.7z M43.4,93.3
				c1.5,0,2.1-0.6,2.1-2.4c0-1.8-0.7-2.4-2.1-2.4h-2.6v4.8H43.4z"/>
			<path class="st4" d="M48.4,95c0-3.2,0.8-5.2,4.1-5.2c3.6,0,3.6,2.3,3.6,6.2h-5.7c0.1,1.7,0.5,2.5,2.2,2.5c1.3,0,2-0.3,2.6-0.6
				l0.8,1.5c-0.8,0.5-1.9,0.8-3.5,0.8C49.1,100.2,48.4,98.2,48.4,95z M50.4,94.2h3.9c0-1.6-0.1-2.6-1.8-2.6
				C50.8,91.6,50.4,92.5,50.4,94.2z"/>
			<path class="st4" d="M57.8,101.2h1c0.5,0,0.7-0.2,0.8-0.6l0.2-0.6L56.7,90h2.1l2.1,7.2l2-7.2h2l-3.4,11.1
				c-0.4,1.5-1.2,1.8-2.7,1.8h-1V101.2z"/>
			<path class="st4" d="M65.9,90.1l1.6-0.1l0.2,1.1c0.4-0.6,1.2-1.1,2.8-1.1v1.9c-2.4,0-2.6,1.5-2.6,3.2v5h-2V90.1z"/>
			<path class="st4" d="M71,95c0-3.2,0.8-5.2,4.1-5.2c3.6,0,3.6,2.3,3.6,6.2h-5.7c0.1,1.7,0.5,2.5,2.2,2.5c1.3,0,2-0.3,2.6-0.6
				l0.8,1.5c-0.8,0.5-1.9,0.8-3.5,0.8C71.6,100.2,71,98.2,71,95z M72.9,94.2h3.9c0-1.6-0.1-2.6-1.8-2.6C73.4,91.6,73,92.5,72.9,94.2
				z"/>
			<path class="st4" d="M80.2,86.2h2v4.6c0.4-0.6,1.1-1,2.8-1c2.5,0,2.9,1.5,2.9,3.7v6.6h-2v-6.1c0-1.5-0.2-2.2-1.6-2.2
				c-1.7,0-2.1,0.9-2.1,3v5.4h-2V86.2z"/>
			<path class="st4" d="M89.4,95c0-3,0.7-5.2,4.2-5.2c3.5,0,4.2,2.2,4.2,5.2c0,3.1-0.7,5.2-4.2,5.2C90.1,100.2,89.4,98,89.4,95z
				 M95.7,95c0-2-0.2-3.4-2.1-3.4c-1.9,0-2.1,1.4-2.1,3.4c0,2,0.2,3.4,2.1,3.4C95.5,98.4,95.7,97,95.7,95z"/>
			<path class="st4" d="M99.3,90.1l1.6-0.1L101,91c0.4-0.6,1.2-1.1,2.8-1.1v1.9c-2.4,0-2.6,1.5-2.6,3.2v5h-2V90.1z"/>
			<path class="st4" d="M104.2,97c0-2.9,1.7-3.7,5.2-3.7h0.4c0-1.2-0.3-1.7-1.6-1.7c-1.1,0-1.9,0.3-2.5,0.5l-0.8-1.6
				c0.8-0.4,2-0.7,3.5-0.7c2.7,0,3.4,1,3.4,3.5v4.1c0,0.7,0.1,0.9,0.8,0.9v1.8c-0.2,0-0.4,0-0.6,0c-1.1,0-1.6-0.2-1.8-0.9
				c-0.6,0.7-1.5,1-2.8,1C104.8,100.1,104.2,98.9,104.2,97z M109.7,96.2v-1.2h-0.4c-2.3,0-3.3,0.3-3.3,1.9c0,1.3,0.5,1.7,1.5,1.7
				C108.8,98.5,109.7,98,109.7,96.2z"/>
			<path class="st4" d="M113.6,95c0-2.8,0.4-5.2,3.4-5.2c1.6,0,2.3,0.3,2.8,0.9v-4.5h2V100l-1.6,0.1l-0.2-1
				c-0.5,0.7-1.3,1.1-3.1,1.1C113.9,100.2,113.6,97.7,113.6,95z M119.8,95c0-2-0.2-3.3-2.2-3.3c-1.7,0-2,1.3-2,3.3
				c0,2.1,0.2,3.4,2,3.4C119.6,98.4,119.8,97,119.8,95z"/>
			<path class="st4" d="M123.3,95c0-3.2,0.8-5.2,4.1-5.2c3.6,0,3.6,2.3,3.6,6.2h-5.7c0.1,1.7,0.5,2.5,2.2,2.5c1.3,0,2-0.3,2.6-0.6
				l0.8,1.5c-0.8,0.5-1.9,0.8-3.5,0.8C124,100.2,123.3,98.2,123.3,95z M125.3,94.2h3.9c0-1.6-0.1-2.6-1.8-2.6
				C125.7,91.6,125.3,92.5,125.3,94.2z"/>
			<path class="st10" d="M105,108.1l1.4-0.1l0.1,1c0.4-0.7,1.2-1.2,3-1.2c2.6,0,2.9,1.5,2.9,3.7v6.5h-1.7v-6.1
				c0-1.6-0.2-2.4-1.8-2.4c-1.9,0-2.2,1.1-2.2,3.3v5.3H105V108.1z"/>
			<path class="st10" d="M114.1,108.8c0-2.4,0.6-4.2,3.3-4.2c2.7,0,3.3,1.9,3.3,4.2c0,2.4-0.6,4.2-3.3,4.2
				C114.7,113,114.1,111.2,114.1,108.8z M119.3,108.8c0-1.7-0.3-2.9-1.9-2.9c-1.6,0-1.9,1.2-1.9,2.9c0,1.7,0.3,2.9,1.9,2.9
				C119,111.7,119.3,110.5,119.3,108.8z"/>
			<path class="st10" d="M122.5,112.6c0-5.3,0.3-7.9,5.8-7.9h1v1.5h-1.1c-3.5,0-3.8,1.5-3.9,3.9c0.5-0.7,1.5-1.1,3.1-1.1
				c3,0,3.5,1.7,3.5,4.4c0,3.2-0.8,4.8-4,4.8C123,118.2,122.5,116.2,122.5,112.6z M129.1,113.4c0-1.9-0.5-2.9-2.3-2.9
				c-1.5,0-2.6,0.8-2.6,2.8c0,2.3,0.4,3.4,2.6,3.4C128.7,116.7,129.1,115.6,129.1,113.4z"/>
		</g>
	</g>
	<g>
		<g>
			<g class="st3">
				<path class="st4" d="M247.5,115.5l1-1.6c0.7,0.4,1.9,0.9,3.5,0.9c1.7,0,2.4-0.6,2.4-1.8c0-1.4-0.7-1.7-2.9-2.6
					c-2.3-0.9-3.5-1.7-3.5-3.9c0-2.3,1.5-3.6,4.2-3.6c1.6,0,2.7,0.3,3.7,0.8l-0.9,1.8c-0.7-0.3-1.5-0.6-2.8-0.6
					c-1.5,0-2.2,0.6-2.2,1.6c0,1.1,0.5,1.5,2.4,2.2c2.9,1.1,4,1.8,4,4.3c0,2.3-1.4,3.6-4.4,3.6C250,116.6,248.6,116.1,247.5,115.5z"
					/>
				<path class="st4" d="M257.5,113.4c0-2.9,1.7-3.7,5.2-3.7h0.4c0-1.2-0.3-1.7-1.6-1.7c-1.1,0-1.9,0.3-2.5,0.5l-0.8-1.6
					c0.8-0.4,2-0.7,3.5-0.7c2.7,0,3.4,1,3.4,3.5v4.1c0,0.7,0.1,0.9,0.8,0.9v1.8c-0.2,0-0.4,0-0.6,0c-1.1,0-1.6-0.2-1.8-0.9
					c-0.6,0.7-1.5,1-2.8,1C258.2,116.5,257.5,115.3,257.5,113.4z M263.1,112.6v-1.2h-0.4c-2.3,0-3.3,0.3-3.3,1.9
					c0,1.3,0.5,1.7,1.5,1.7C262.2,114.9,263.1,114.4,263.1,112.6z"/>
				<path class="st4" d="M267.3,106.5l1.6-0.1l0.2,0.9c0.4-0.6,1.2-1.1,3-1.1c1.7,0,2.2,0.5,2.4,1.1c0.5-0.7,1.3-1.1,3.1-1.1
					c2.6,0,2.8,1.5,2.8,3.7v6.6h-2v-6.1c0-1.5-0.1-2.2-1.5-2.2c-1.7,0-2,0.9-2,3v5.4h-2v-6.1c0-1.5-0.1-2.2-1.5-2.2
					c-1.7,0-2,0.9-2,3v5.4h-2V106.5z"/>
				<path class="st4" d="M281.7,111.4c0-3.2,0.8-5.2,4.1-5.2c3.6,0,3.6,2.3,3.6,6.2h-5.7c0.1,1.7,0.5,2.5,2.2,2.5
					c1.3,0,2-0.3,2.6-0.6l0.8,1.5c-0.8,0.5-1.9,0.8-3.5,0.8C282.4,116.6,281.7,114.6,281.7,111.4z M283.7,110.6h3.9
					c0-1.6-0.1-2.6-1.8-2.6C284.2,108,283.8,108.9,283.7,110.6z"/>
				<path class="st4" d="M290.2,115.8l0.8-1.6c0.7,0.3,1.7,0.6,2.8,0.6c1,0,1.5-0.3,1.5-1.2c0-0.8-0.5-1.1-2-1.7
					c-1.7-0.7-2.7-1.3-2.7-3c0-2,1.3-2.9,3.4-2.9c1.3,0,2.1,0.2,2.9,0.5l-0.8,1.7c-0.6-0.2-1.3-0.4-2.1-0.4c-1,0-1.4,0.4-1.4,1
					c0,0.7,0.5,1,1.9,1.5c1.8,0.7,2.8,1.3,2.8,3.2c0,1.9-1.2,2.8-3.4,2.8C292.4,116.6,291.2,116.3,290.2,115.8z"/>
				<path class="st10" d="M248.3,121.1h4.5c2.8,0,4,1.3,4,4.1c0,2.7-1.2,4.2-4,4.2H250v5.1h-1.7V121.1z M252.7,127.8
					c1.6,0,2.3-0.7,2.3-2.6s-0.7-2.6-2.3-2.6H250v5.1H252.7z"/>
				<path class="st10" d="M257.6,129.4c0-3.1,0.7-5.1,3.9-5.1c3.4,0,3.5,2.2,3.4,5.9h-5.8c0.1,1.9,0.5,2.9,2.4,2.9
					c1.3,0,1.9-0.3,2.5-0.6l0.6,1.3c-0.8,0.4-1.7,0.7-3.3,0.7C258.2,134.6,257.6,132.6,257.6,129.4z M259.3,128.7h4.2
					c0-1.8-0.1-2.9-1.9-2.9C259.7,125.7,259.3,126.8,259.3,128.7z M262.1,120.5h1.9l-2.4,2.9h-1.5L262.1,120.5z"/>
				<path class="st10" d="M266.1,131.4c0-2.9,1.7-3.7,5.1-3.7h0.4c0-1.3-0.3-2-1.8-2c-1,0-1.9,0.3-2.5,0.5l-0.7-1.4
					c0.8-0.4,1.9-0.7,3.3-0.7c2.7,0,3.3,1.1,3.3,3.5v4.2c0,0.8,0.1,1,0.8,1v1.5c-0.1,0-0.3,0-0.5,0c-1.1,0-1.5-0.2-1.7-1
					c-0.6,0.8-1.5,1-2.8,1C266.8,134.5,266.1,133.4,266.1,131.4z M271.6,130.6v-1.4h-0.4c-2.5,0-3.5,0.3-3.5,2.1
					c0,1.4,0.6,1.9,1.7,1.9C270.6,133.1,271.6,132.6,271.6,130.6z"/>
				<path class="st10" d="M277.6,130.7c-0.1,0.2-0.1,0.4-0.1,0.5c0,0.5,0.3,0.7,1.5,0.7c3,0,3.9,0.7,3.9,2.5c0,2.1-1.3,3-4,3
					c-2.8,0-4-0.6-4-2.4c0-1.2,0.5-2.1,1.7-2.4c-0.4-0.3-0.6-0.7-0.6-1.2c0-0.4,0.1-0.8,0.4-1.2c-0.7-0.5-1.1-1.3-1.1-2.6
					c0-2.4,1.3-3.3,3.5-3.3c0.3,0,0.5,0,0.8,0l3.2-0.5v1.4h-1.4c0.6,0.4,1,1.2,1,2.4c0,2.4-1.4,3.3-3.5,3.3
					C278.4,130.8,278,130.8,277.6,130.7z M281.2,134.5c0-0.9-0.4-1.3-2.3-1.3c-1.8,0-2.3,0.5-2.3,1.5c0,1.1,0.5,1.4,2.3,1.4
					C280.8,136.1,281.2,135.6,281.2,134.5z M280.7,127.6c0-1.3-0.6-1.9-1.9-1.9c-1.2,0-1.9,0.6-1.9,1.9c0,1.3,0.6,1.9,1.9,1.9
					C280.1,129.5,280.7,128.9,280.7,127.6z"/>
				<path class="st10" d="M283.9,129.4c0-3.1,0.7-5.1,3.9-5.1c3.4,0,3.5,2.2,3.4,5.9h-5.8c0.1,1.9,0.5,2.9,2.4,2.9
					c1.3,0,1.9-0.3,2.5-0.6l0.6,1.3c-0.8,0.4-1.7,0.7-3.3,0.7C284.4,134.6,283.9,132.6,283.9,129.4z M285.5,128.7h4.2
					c0-1.8-0.1-2.9-1.9-2.9C286,125.7,285.5,126.8,285.5,128.7z"/>
			</g>
		</g>
	</g>
	<g>
		<g>
			<line class="st9" x1="189.2" y1="105.9" x2="244.2" y2="105.9"/>
			<g>
				<polygon points="191.2,107.6 189.5,105.9 191.2,104.2 189.7,104.2 188,105.9 189.7,107.6 				"/>
			</g>
		</g>
	</g>
	<line class="st6" x1="184.6" y1="158.4" x2="184.6" y2="114.4"/>
	<g>
		<g class="st3">
			<path class="st4" d="M84.8,163l1-1.6c0.7,0.4,1.9,0.9,3.5,0.9c1.7,0,2.4-0.6,2.4-1.8c0-1.4-0.7-1.7-2.9-2.6
				c-2.3-0.9-3.5-1.7-3.5-3.9c0-2.3,1.5-3.6,4.2-3.6c1.6,0,2.7,0.3,3.7,0.8l-0.9,1.8c-0.7-0.3-1.5-0.6-2.8-0.6
				c-1.5,0-2.2,0.6-2.2,1.6c0,1.1,0.5,1.5,2.4,2.2c2.9,1.1,4,1.8,4,4.3c0,2.3-1.4,3.6-4.4,3.6C87.2,164.1,85.8,163.6,84.8,163z"/>
			<path class="st4" d="M94.7,160.9c0-2.9,1.7-3.7,5.2-3.7h0.4c0-1.2-0.3-1.7-1.6-1.7c-1.1,0-1.9,0.3-2.5,0.5l-0.8-1.6
				c0.8-0.4,2-0.7,3.5-0.7c2.7,0,3.4,1,3.4,3.5v4.1c0,0.7,0.1,0.9,0.8,0.9v1.8c-0.2,0-0.4,0-0.6,0c-1.1,0-1.6-0.2-1.8-0.9
				c-0.6,0.7-1.5,1-2.8,1C95.4,164.1,94.7,162.8,94.7,160.9z M100.3,160.1v-1.2h-0.4c-2.3,0-3.3,0.3-3.3,1.9c0,1.3,0.5,1.7,1.5,1.7
				C99.4,162.4,100.3,161.9,100.3,160.1z"/>
			<path class="st4" d="M107.1,164c-1.8,0-2.4-0.6-2.4-2.5v-11.3h2v11.1c0,0.8,0.1,1,1.2,1v1.8C107.7,164,107.5,164,107.1,164z"/>
			<path class="st4" d="M109.2,150.6h2v2.2h-2V150.6z M109.2,153.9h2V164h-2V153.9z"/>
			<path class="st4" d="M112.9,158.9c0-3.2,0.8-5.2,4.1-5.2c3.6,0,3.6,2.3,3.6,6.2h-5.7c0.1,1.7,0.5,2.5,2.2,2.5
				c1.3,0,2-0.3,2.6-0.6l0.8,1.5c-0.8,0.5-1.9,0.8-3.5,0.8C113.5,164.1,112.9,162.1,112.9,158.9z M114.8,158.1h3.9
				c0-1.6-0.1-2.6-1.8-2.6C115.3,155.5,114.9,156.4,114.8,158.1z"/>
			<path class="st4" d="M121.4,163.4l0.8-1.6c0.7,0.3,1.7,0.6,2.8,0.6c1,0,1.5-0.3,1.5-1.2c0-0.8-0.5-1.1-2-1.7
				c-1.7-0.7-2.7-1.3-2.7-3c0-2,1.3-2.9,3.4-2.9c1.3,0,2.1,0.2,2.9,0.5l-0.8,1.7c-0.6-0.2-1.3-0.4-2.1-0.4c-1,0-1.4,0.4-1.4,1
				c0,0.7,0.5,1,1.9,1.5c1.8,0.7,2.8,1.3,2.8,3.2c0,1.9-1.2,2.8-3.4,2.8C123.5,164.1,122.3,163.8,121.4,163.4z"/>
			<path class="st10" d="M104.3,172.1l1.4-0.1l0.1,1c0.4-0.7,1.2-1.2,3-1.2c2.6,0,2.9,1.5,2.9,3.7v6.5H110v-6.1
				c0-1.6-0.2-2.4-1.8-2.4c-1.9,0-2.2,1.1-2.2,3.3v5.3h-1.7V172.1z"/>
			<path class="st10" d="M113.4,172.7c0-2.4,0.6-4.2,3.3-4.2c2.7,0,3.3,1.9,3.3,4.2c0,2.4-0.6,4.2-3.3,4.2
				C114,177,113.4,175.1,113.4,172.7z M118.6,172.8c0-1.7-0.3-2.9-1.9-2.9c-1.6,0-1.9,1.2-1.9,2.9c0,1.7,0.3,2.9,1.9,2.9
				C118.3,175.7,118.6,174.4,118.6,172.8z"/>
			<path class="st10" d="M126.6,170.2h-5.5v-1.5h7.4v1.3l-4,12h-1.8L126.6,170.2z"/>
		</g>
	</g>
	<polyline class="st40" points="184.6,158.4 184.6,161.5 168.8,177.3 	"/>
	<g>
		<g>
			<line class="st9" x1="178" y1="158.4" x2="132" y2="158.4"/>
			<g>
				<polygon points="176,156.7 177.7,158.4 176,160.1 177.5,160.1 179.2,158.4 177.5,156.7 				"/>
			</g>
		</g>
	</g>
	<g>
		<g class="st3">
			<path class="st4" d="M252.2,74.9v-8.8h2.1v8.6c0,2,0.5,3,2.6,3c2.1,0,2.7-1,2.7-3v-8.6h2v8.8c0,3-1.1,4.7-4.7,4.7
				C253.3,79.6,252.2,77.9,252.2,74.9z"/>
			<path class="st4" d="M263.6,69.5l1.6-0.1l0.2,1.1c0.4-0.6,1.2-1.1,2.8-1.1v1.9c-2.4,0-2.6,1.5-2.6,3.2v5h-2V69.5z"/>
			<path class="st4" d="M268.6,69.4h1.6l0.3-2.5l1.6-0.3v2.9h2.3v1.8h-2.3v5.3c0,0.8,0.1,1.3,1.2,1.3h1.1v1.8
				c-0.3,0-1.1,0.1-1.4,0.1c-2.4,0-3-0.8-3-2.9v-5.5h-1.6V69.4z"/>
			<path class="st10" d="M252.2,87.5l1.4-0.1l0.1,1c0.4-0.7,1.2-1.2,3-1.2c2.6,0,2.9,1.5,2.9,3.7v6.5h-1.7v-6.1
				c0-1.6-0.2-2.4-1.8-2.4c-1.9,0-2.2,1.1-2.2,3.3v5.3h-1.7V87.5z"/>
			<path class="st10" d="M261.3,88.2c0-2.4,0.6-4.2,3.3-4.2c2.7,0,3.3,1.9,3.3,4.2c0,2.4-0.6,4.2-3.3,4.2
				C261.9,92.4,261.3,90.6,261.3,88.2z M266.5,88.2c0-1.7-0.3-2.9-1.9-2.9c-1.6,0-1.9,1.2-1.9,2.9c0,1.7,0.3,2.9,1.9,2.9
				C266.2,91.1,266.5,89.9,266.5,88.2z"/>
			<path class="st10" d="M268.6,93.1l4.7-9h1.8l-4.6,8.9h3.6l0.3-4.1h1.2V93h1.8v1.4h-1.8v3H274v-3h-5.3V93.1z"/>
		</g>
	</g>
	<g>
		<g>
			<line class="st9" x1="172.7" y1="93.9" x2="247.7" y2="93.9"/>
			<g>
				<polygon points="174.7,95.6 173,93.9 174.7,92.2 173.2,92.2 171.5,93.9 173.2,95.6 				"/>
			</g>
		</g>
	</g>
	<g>
		<g>
			<line class="st9" x1="180.2" y1="114.7" x2="136.2" y2="114.7"/>
			<g>
				<polygon points="178.3,113 180,114.7 178.3,116.4 179.7,116.4 181.4,114.7 179.7,113 				"/>
			</g>
		</g>
	</g>
	<line class="st40" x1="142.2" y1="203.9" x2="168.8" y2="177.3"/>
	<line class="st40" x1="121" y1="225" x2="142.2" y2="203.9"/>
	<line class="st40" x1="109.9" y1="236.2" x2="121.2" y2="224.9"/>
	<g>
		<g class="st3">
			<path class="st4" d="M196,229.3h4.7c2.9,0,4.1,1.4,4.1,4.1c0,2.7-1.2,4.4-4.1,4.4H198v4.8H196V229.3z M200.6,236
				c1.5,0,2.1-0.6,2.1-2.4c0-1.8-0.7-2.4-2.1-2.4H198v4.8H200.6z"/>
			<path class="st4" d="M205.5,239.6c0-2.9,1.7-3.7,5.2-3.7h0.4c0-1.2-0.3-1.7-1.6-1.7c-1.1,0-1.9,0.3-2.5,0.5l-0.8-1.6
				c0.8-0.4,2-0.7,3.5-0.7c2.7,0,3.4,1,3.4,3.5v4.1c0,0.7,0.1,0.9,0.8,0.9v1.8c-0.2,0-0.4,0-0.6,0c-1.1,0-1.6-0.2-1.8-0.9
				c-0.6,0.7-1.5,1-2.8,1C206.2,242.8,205.5,241.5,205.5,239.6z M211.1,238.8v-1.2h-0.4c-2.3,0-3.3,0.3-3.3,1.9
				c0,1.3,0.5,1.7,1.5,1.7C210.2,241.1,211.1,240.6,211.1,238.8z"/>
			<path class="st4" d="M215.3,238.8v-6.2h2v6.1c0,1.5,0.1,2.3,1.8,2.3c1.6,0,1.8-0.8,1.8-2.3v-6.1h2v6.2c0,2.8-0.6,4-3.8,4
				C216,242.8,215.3,241.6,215.3,238.8z"/>
			<path class="st4" d="M227.5,237.6c0-3.2,0.7-5.2,4.1-5.2c1.1,0,1.9,0.2,2.6,0.5l-0.9,1.7c-0.5-0.3-1-0.4-1.6-0.4
				c-1.7,0-2.2,1.1-2.2,3.3c0,2.3,0.4,3.4,2.2,3.4c0.7,0,1.3-0.2,1.8-0.5l0.8,1.5c-0.9,0.5-1.7,0.7-2.8,0.7
				C228.3,242.8,227.5,240.8,227.5,237.6z"/>
			<path class="st4" d="M234.9,237.6c0-3.2,0.8-5.2,4.1-5.2c3.6,0,3.6,2.3,3.6,6.2h-5.7c0.1,1.7,0.5,2.5,2.2,2.5
				c1.3,0,2-0.3,2.6-0.6l0.8,1.5c-0.8,0.5-1.9,0.8-3.5,0.8C235.6,242.8,234.9,240.8,234.9,237.6z M236.9,236.8h3.9
				c0-1.6-0.1-2.6-1.8-2.6C237.4,234.2,237,235.1,236.9,236.8z"/>
			<path class="st4" d="M244.2,232.7l1.6-0.1l0.2,0.9c0.5-0.6,1.2-1.1,3-1.1c2.5,0,2.9,1.5,2.9,3.7v6.6h-2v-6.1
				c0-1.5-0.2-2.2-1.6-2.2c-1.8,0-2.1,1-2.1,3v5.4h-2V232.7z"/>
			<path class="st4" d="M253.1,232.6h1.6l0.3-2.5l1.6-0.3v2.9h2.3v1.8h-2.3v5.3c0,0.8,0.1,1.3,1.2,1.3h1.1v1.8
				c-0.3,0-1.1,0.1-1.4,0.1c-2.4,0-3-0.8-3-2.9v-5.5h-1.6V232.6z"/>
			<path class="st4" d="M260.6,232.7l1.6-0.1l0.2,1.1c0.4-0.6,1.2-1.1,2.8-1.1v1.9c-2.4,0-2.6,1.5-2.6,3.2v5h-2V232.7z"/>
			<path class="st4" d="M265.7,237.6c0-3.2,0.8-5.2,4.1-5.2c3.6,0,3.6,2.3,3.6,6.2h-5.7c0.1,1.7,0.5,2.5,2.2,2.5
				c1.3,0,2-0.3,2.6-0.6l0.8,1.5c-0.8,0.5-1.9,0.8-3.5,0.8C266.3,242.8,265.7,240.8,265.7,237.6z M267.6,236.8h3.9
				c0-1.6-0.1-2.6-1.8-2.6C268.1,234.2,267.7,235.1,267.6,236.8z"/>
			<path class="st10" d="M195.9,250.8l1.4-0.1l0.1,1c0.4-0.7,1.2-1.2,3-1.2c2.6,0,2.9,1.5,2.9,3.7v6.5h-1.7v-6.1
				c0-1.6-0.2-2.4-1.8-2.4c-1.9,0-2.2,1.1-2.2,3.3v5.3h-1.7V250.8z"/>
			<path class="st10" d="M205,251.4c0-2.4,0.6-4.2,3.3-4.2c2.7,0,3.3,1.9,3.3,4.2c0,2.4-0.6,4.2-3.3,4.2
				C205.6,255.7,205,253.8,205,251.4z M210.2,251.5c0-1.7-0.3-2.9-1.9-2.9c-1.6,0-1.9,1.2-1.9,2.9c0,1.7,0.3,2.9,1.9,2.9
				C209.9,254.4,210.2,253.1,210.2,251.5z"/>
			<path class="st10" d="M214.8,248.9h-1.9v-1.5h3.6v13.3h-1.7V248.9z"/>
			<path class="st10" d="M219,254c0-4.6,0.6-6.8,4.3-6.8c3.6,0,4.2,2.3,4.2,6.8c0,4.6-0.6,6.8-4.2,6.8
				C219.7,260.8,219,258.6,219,254z M225.9,254c0-3.8-0.5-5.2-2.5-5.2c-2.1,0-2.6,1.4-2.6,5.2c0,3.8,0.5,5.2,2.6,5.2
				C225.4,259.2,225.9,257.8,225.9,254z"/>
		</g>
	</g>
	<polyline class="st6" points="107.5,238.6 106.5,239.6 106.5,248.6 	"/>
	<line class="st40" x1="115.2" y1="230.9" x2="107.5" y2="238.6"/>
	<g>
		<g>
			<line class="st9" x1="116.4" y1="238.1" x2="191.4" y2="238.1"/>
			<g>
				<polygon points="118.4,239.8 116.7,238.1 118.4,236.4 116.9,236.4 115.2,238.1 116.9,239.8 				"/>
			</g>
		</g>
	</g>
	<line class="st40" x1="106.5" y1="294.8" x2="106.5" y2="248.6"/>
	<line class="st40" x1="106.5" y1="299.4" x2="106.5" y2="290.1"/>
	<line class="st40" x1="106.5" y1="309.5" x2="106.5" y2="299.4"/>
	<line class="st7" x1="106.5" y1="395.5" x2="106.5" y2="379.7"/>
	<line class="st7" x1="106.5" y1="399.8" x2="106.5" y2="395.5"/>
	<line class="st40" x1="106.5" y1="318.8" x2="106.5" y2="309.5"/>
	<line class="st6" x1="106.5" y1="340.4" x2="106.5" y2="329.4"/>
	<line class="st6" x1="106.5" y1="379.7" x2="106.5" y2="340.1"/>
	<line class="st6" x1="106.5" y1="324.1" x2="106.5" y2="318.8"/>
	<line class="st6" x1="106.5" y1="329.4" x2="106.5" y2="324.1"/>
	<line class="st7" x1="169.2" y1="465.9" x2="165.8" y2="462.6"/>
	<polyline class="st7" points="109,405.7 106.5,403.3 106.5,399.8 	"/>
	<g>
		<g class="st3">
			<path class="st4" d="M250.6,448.8h2.6l3.1,9.8l3.1-9.8h2.6v13.3H260v-9.5l-3,9.5h-1.5l-3-9.5v9.5h-1.9V448.8z"/>
			<path class="st4" d="M264.1,458.3v-6.2h2v6.1c0,1.5,0.1,2.3,1.8,2.3c1.6,0,1.8-0.8,1.8-2.3v-6.1h2v6.2c0,2.8-0.6,4-3.8,4
				C264.8,462.3,264.1,461.1,264.1,458.3z"/>
			<path class="st4" d="M273.5,452.2l1.6-0.1l0.2,1.1c0.4-0.6,1.2-1.1,2.8-1.1v1.9c-2.4,0-2.6,1.5-2.6,3.2v5h-2V452.2z"/>
			<path class="st4" d="M278.6,457.1c0-3.2,0.8-5.2,4.1-5.2c3.6,0,3.6,2.3,3.6,6.2h-5.7c0.1,1.7,0.5,2.5,2.2,2.5
				c1.3,0,2-0.3,2.6-0.6l0.8,1.5c-0.8,0.5-1.9,0.8-3.5,0.8C279.2,462.3,278.6,460.3,278.6,457.1z M280.5,456.3h3.9
				c0-1.6-0.1-2.6-1.8-2.6C281,453.7,280.6,454.7,280.5,456.3z"/>
			<path class="st4" d="M287.1,452.1h1.6l0.3-2.5l1.6-0.3v2.9h2.3v1.8h-2.3v5.3c0,0.8,0.1,1.3,1.2,1.3h1.1v1.8
				c-0.3,0-1.1,0.1-1.4,0.1c-2.4,0-3-0.8-3-2.9v-5.5h-1.6V452.1z"/>
			<path class="st4" d="M294,455.5h5v1.9h-5V455.5z"/>
			<path class="st4" d="M250.4,470.2l1.6-0.1l0.2,0.9c0.5-0.6,1.2-1.1,3-1.1c2.5,0,2.9,1.5,2.9,3.7v6.6h-2v-6.1
				c0-1.5-0.2-2.2-1.6-2.2c-1.8,0-2.1,1-2.1,3v5.4h-2V470.2z"/>
			<path class="st4" d="M259.6,475.1c0-3,0.7-5.2,4.2-5.2c3.5,0,4.2,2.2,4.2,5.2c0,3.1-0.7,5.2-4.2,5.2
				C260.3,480.3,259.6,478.2,259.6,475.1z M265.9,475.2c0-2-0.2-3.4-2.1-3.4c-1.9,0-2.1,1.4-2.1,3.4c0,2,0.2,3.4,2.1,3.4
				C265.7,478.6,265.9,477.2,265.9,475.2z"/>
			<path class="st4" d="M269.5,470.2l1.6-0.1l0.2,1.1c0.4-0.6,1.2-1.1,2.8-1.1v1.9c-2.4,0-2.6,1.5-2.6,3.2v5h-2V470.2z"/>
			<path class="st4" d="M274.6,475.1c0-2.8,0.4-5.2,3.4-5.2c1.6,0,2.3,0.3,2.8,0.9v-4.5h2v13.8l-1.6,0.1l-0.2-1
				c-0.5,0.7-1.3,1.1-3.1,1.1C274.9,480.3,274.6,477.9,274.6,475.1z M280.7,475.1c0-2-0.2-3.3-2.2-3.3c-1.7,0-2,1.3-2,3.3
				c0,2.1,0.2,3.4,2,3.4C280.5,478.5,280.7,477.2,280.7,475.1z"/>
			<path class="st10" d="M250.4,488.3l1.4-0.1l0.1,1c0.4-0.7,1.2-1.2,3-1.2c2.6,0,2.9,1.5,2.9,3.7v6.5h-1.7v-6.1
				c0-1.6-0.2-2.4-1.8-2.4c-1.9,0-2.2,1.1-2.2,3.3v5.3h-1.7V488.3z"/>
			<path class="st10" d="M259.6,489c0-2.4,0.6-4.2,3.3-4.2c2.7,0,3.3,1.9,3.3,4.2c0,2.4-0.6,4.2-3.3,4.2
				C260.2,493.2,259.6,491.3,259.6,489z M264.8,489c0-1.7-0.3-2.9-1.9-2.9c-1.6,0-1.9,1.2-1.9,2.9c0,1.7,0.3,2.9,1.9,2.9
				C264.5,491.9,264.8,490.6,264.8,489z"/>
			<path class="st10" d="M267.5,497.5l0.8-1.4c0.8,0.4,1.5,0.7,2.6,0.7c1.8,0,2.4-0.6,2.4-2.6c0-1.5-0.3-2.4-2.5-2.4h-1.6v-1.5h1.7
				c1.7,0,2.1-0.8,2.1-2c0-1.7-0.6-2-2.1-2c-0.9,0-1.8,0.3-2.5,0.6l-0.7-1.4c0.9-0.5,2.1-0.8,3.5-0.8c2.3,0,3.5,0.6,3.5,3.2
				c0,1.8-0.4,2.6-1.4,3c1.3,0.4,1.7,1.2,1.7,3.4c0,3-1.3,4-4,4C269.4,498.3,268.5,498,267.5,497.5z"/>
			<path class="st10" d="M276.5,497.5l0.8-1.4c0.8,0.4,1.6,0.7,2.9,0.7c1.7,0,2.5-0.5,2.5-3c0-2.4-0.8-2.9-2.3-2.9
				c-1,0-1.7,0.3-2.1,0.7l-1.3-0.4l0.3-6.4h6.5v1.5h-5.1l-0.2,3.6c0.5-0.3,1.2-0.6,2.4-0.6c2.4,0,3.5,0.9,3.5,4.4
				c0,3.7-1.4,4.5-4.1,4.5C278.6,498.3,277.4,498,276.5,497.5z"/>
		</g>
	</g>
	<g>
		<g>
			<g class="st3">
				<path class="st4" d="M193.2,388.8h2.1v11.5h5.4v1.9h-7.5V388.8z"/>
				<path class="st4" d="M201.2,397.1c0-3.2,0.8-5.2,4.1-5.2c3.6,0,3.6,2.3,3.6,6.2h-5.7c0.1,1.7,0.5,2.5,2.2,2.5
					c1.3,0,2-0.3,2.6-0.6l0.8,1.5c-0.8,0.5-1.9,0.8-3.5,0.8C201.9,402.3,201.2,400.3,201.2,397.1z M203.1,396.3h3.9
					c0-1.6-0.1-2.6-1.8-2.6C203.6,393.7,203.2,394.7,203.1,396.3z"/>
				<path class="st4" d="M209.7,401.6l0.8-1.6c0.7,0.3,1.7,0.6,2.8,0.6c1,0,1.5-0.3,1.5-1.2c0-0.8-0.5-1.1-2-1.7
					c-1.7-0.7-2.7-1.3-2.7-3c0-2,1.3-2.9,3.4-2.9c1.3,0,2.1,0.2,2.9,0.5l-0.8,1.7c-0.6-0.2-1.3-0.4-2.1-0.4c-1,0-1.4,0.4-1.4,1
					c0,0.7,0.5,1,1.9,1.5c1.8,0.7,2.8,1.3,2.8,3.2c0,1.9-1.2,2.8-3.4,2.8C211.9,402.3,210.6,402.1,209.7,401.6z"/>
				<path class="st4" d="M217.3,392.1h1.6l0.3-2.5l1.6-0.3v2.9h2.3v1.8h-2.3v5.3c0,0.8,0.1,1.3,1.2,1.3h1.1v1.8
					c-0.3,0-1.1,0.1-1.4,0.1c-2.4,0-3-0.8-3-2.9v-5.5h-1.6V392.1z"/>
				<path class="st4" d="M224.1,397.1c0-3.2,0.8-5.2,4.1-5.2c3.6,0,3.6,2.3,3.6,6.2h-5.7c0.1,1.7,0.5,2.5,2.2,2.5
					c1.3,0,2-0.3,2.6-0.6l0.8,1.5c-0.8,0.5-1.9,0.8-3.5,0.8C224.8,402.3,224.1,400.3,224.1,397.1z M226.1,396.3h3.9
					c0-1.6-0.1-2.6-1.8-2.6C226.5,393.7,226.1,394.7,226.1,396.3z"/>
				<path class="st4" d="M235.8,402.2c-1.8,0-2.4-0.6-2.4-2.5v-11.3h2v11.1c0,0.8,0.1,1,1.2,1v1.8
					C236.4,402.2,236.2,402.2,235.8,402.2z"/>
				<path class="st4" d="M240.5,402.2c-1.8,0-2.4-0.6-2.4-2.5v-11.3h2v11.1c0,0.8,0.1,1,1.2,1v1.8
					C241.1,402.2,240.9,402.2,240.5,402.2z"/>
				<path class="st4" d="M242.1,397.1c0-3.2,0.8-5.2,4.1-5.2c3.6,0,3.6,2.3,3.6,6.2H244c0.1,1.7,0.5,2.5,2.2,2.5
					c1.3,0,2-0.3,2.6-0.6l0.8,1.5c-0.8,0.5-1.9,0.8-3.5,0.8C242.7,402.3,242.1,400.3,242.1,397.1z M244,396.3h3.9
					c0-1.6-0.1-2.6-1.8-2.6C244.5,393.7,244.1,394.7,244,396.3z"/>
				<path class="st10" d="M193.2,406.8h4.5c2.8,0,4,1.3,4,4.1c0,2.7-1.2,4.2-4,4.2h-2.8v5.1h-1.7V406.8z M197.7,413.6
					c1.6,0,2.3-0.7,2.3-2.6s-0.7-2.6-2.3-2.6h-2.7v5.1H197.7z"/>
				<path class="st10" d="M202.6,415.2c0-3.1,0.7-5.1,3.9-5.1c3.4,0,3.5,2.2,3.4,5.9h-5.8c0.1,1.9,0.5,2.9,2.4,2.9
					c1.3,0,1.9-0.3,2.5-0.6l0.6,1.3c-0.8,0.4-1.7,0.7-3.3,0.7C203.1,420.3,202.6,418.3,202.6,415.2z M204.2,414.4h4.2
					c0-1.8-0.1-2.9-1.9-2.9C204.7,411.5,204.2,412.6,204.2,414.4z M207,406.2h1.9l-2.4,2.9H205L207,406.2z"/>
				<path class="st10" d="M211,417.2c0-2.9,1.7-3.7,5.1-3.7h0.4c0-1.3-0.3-2-1.8-2c-1,0-1.9,0.3-2.5,0.5l-0.7-1.4
					c0.8-0.4,1.9-0.7,3.3-0.7c2.7,0,3.3,1.1,3.3,3.5v4.2c0,0.8,0.1,1,0.8,1v1.5c-0.1,0-0.3,0-0.5,0c-1.1,0-1.5-0.2-1.7-1
					c-0.6,0.8-1.5,1-2.8,1C211.7,420.3,211,419.1,211,417.2z M216.5,416.3v-1.4h-0.4c-2.5,0-3.5,0.3-3.5,2.1c0,1.4,0.6,1.9,1.7,1.9
					C215.5,418.9,216.5,418.4,216.5,416.3z"/>
				<path class="st10" d="M222.5,416.5c-0.1,0.2-0.1,0.4-0.1,0.5c0,0.5,0.3,0.7,1.5,0.7c3,0,3.9,0.7,3.9,2.5c0,2.1-1.3,3-4,3
					c-2.8,0-4-0.6-4-2.4c0-1.2,0.5-2.1,1.7-2.4c-0.4-0.3-0.6-0.7-0.6-1.2c0-0.4,0.1-0.8,0.4-1.2c-0.7-0.5-1.1-1.3-1.1-2.6
					c0-2.4,1.3-3.3,3.5-3.3c0.3,0,0.5,0,0.8,0l3.2-0.5v1.4h-1.4c0.6,0.4,1,1.2,1,2.4c0,2.4-1.4,3.3-3.5,3.3
					C223.3,416.6,222.9,416.6,222.5,416.5z M226.1,420.3c0-0.9-0.4-1.3-2.3-1.3c-1.8,0-2.3,0.5-2.3,1.5c0,1.1,0.5,1.4,2.3,1.4
					C225.7,421.9,226.1,421.4,226.1,420.3z M225.6,413.4c0-1.3-0.6-1.9-1.9-1.9c-1.2,0-1.9,0.6-1.9,1.9s0.6,1.9,1.9,1.9
					C225,415.2,225.6,414.7,225.6,413.4z"/>
				<path class="st10" d="M228.8,415.2c0-3.1,0.7-5.1,3.9-5.1c3.4,0,3.5,2.2,3.4,5.9h-5.8c0.1,1.9,0.5,2.9,2.4,2.9
					c1.3,0,1.9-0.3,2.5-0.6l0.6,1.3c-0.8,0.4-1.7,0.7-3.3,0.7C229.4,420.3,228.8,418.3,228.8,415.2z M230.4,414.4h4.2
					c0-1.8-0.1-2.9-1.9-2.9C230.9,411.5,230.5,412.6,230.4,414.4z"/>
			</g>
		</g>
	</g>
	<g>
		<g>
			<line class="st9" x1="113.5" y1="395.5" x2="188.5" y2="395.5"/>
			<g>
				<polygon points="115.5,397.2 113.8,395.5 115.5,393.8 114,393.8 112.3,395.5 114,397.2 				"/>
			</g>
		</g>
	</g>
	<g>
		<g>
			<line class="st9" x1="101.8" y1="248.4" x2="88.8" y2="248.4"/>
			<g>
				<polygon points="99.9,246.7 101.6,248.4 99.9,250.1 101.3,250.1 103,248.4 101.3,246.7 				"/>
			</g>
		</g>
	</g>
	<g>
		<g class="st3">
			<path class="st4" d="M1.9,252.2l1-1.6c0.7,0.4,1.9,0.9,3.5,0.9c1.7,0,2.4-0.6,2.4-1.8c0-1.4-0.7-1.7-2.9-2.6
				c-2.3-0.9-3.5-1.7-3.5-3.9c0-2.3,1.5-3.6,4.2-3.6c1.6,0,2.7,0.3,3.7,0.8l-0.9,1.8c-0.7-0.3-1.5-0.6-2.8-0.6
				c-1.5,0-2.2,0.6-2.2,1.6c0,1.1,0.5,1.5,2.4,2.2c2.9,1.1,4,1.8,4,4.3c0,2.3-1.4,3.6-4.4,3.6C4.3,253.4,2.9,252.9,1.9,252.2z"/>
			<path class="st4" d="M12,248.2c0-3,0.7-5.2,4.2-5.2c3.5,0,4.2,2.2,4.2,5.2c0,3.1-0.7,5.2-4.2,5.2C12.7,253.4,12,251.2,12,248.2z
				 M18.2,248.2c0-2-0.2-3.4-2.1-3.4c-1.9,0-2.1,1.4-2.1,3.4c0,2,0.2,3.4,2.1,3.4C18,251.6,18.2,250.2,18.2,248.2z"/>
			<path class="st4" d="M21.7,249.4v-6.2h2v6.1c0,1.5,0.1,2.3,1.8,2.3c1.6,0,1.8-0.8,1.8-2.3v-6.1h2v6.2c0,2.8-0.6,4-3.8,4
				C22.5,253.4,21.7,252.1,21.7,249.4z"/>
			<path class="st4" d="M31.2,243.3l1.6-0.1l0.2,0.9c0.4-0.6,1.2-1.1,3-1.1c1.7,0,2.2,0.5,2.4,1.1c0.5-0.7,1.3-1.1,3.1-1.1
				c2.6,0,2.8,1.5,2.8,3.7v6.6h-2v-6.1c0-1.5-0.1-2.2-1.5-2.2c-1.7,0-2,0.9-2,3v5.4h-2v-6.1c0-1.5-0.1-2.2-1.5-2.2c-1.7,0-2,0.9-2,3
				v5.4h-2V243.3z"/>
			<path class="st4" d="M45.6,248.2c0-3,0.7-5.2,4.2-5.2c3.5,0,4.2,2.2,4.2,5.2c0,3.1-0.7,5.2-4.2,5.2
				C46.4,253.4,45.6,251.2,45.6,248.2z M51.9,248.2c0-2-0.2-3.4-2.1-3.4c-1.9,0-2.1,1.4-2.1,3.4c0,2,0.2,3.4,2.1,3.4
				C51.7,251.6,51.9,250.2,51.9,248.2z"/>
			<path class="st4" d="M55.4,249.4v-6.2h2v6.1c0,1.5,0.1,2.3,1.8,2.3c1.6,0,1.8-0.8,1.8-2.3v-6.1h2v6.2c0,2.8-0.6,4-3.8,4
				C56.1,253.4,55.4,252.1,55.4,249.4z"/>
			<path class="st4" d="M67.4,253.2c-1.8,0-2.4-0.6-2.4-2.5v-11.3h2v11.1c0,0.8,0.1,1,1.2,1v1.8C68,253.2,67.8,253.2,67.4,253.2z"/>
			<path class="st4" d="M69,248.2c0-3,0.7-5.2,4.2-5.2c3.5,0,4.2,2.2,4.2,5.2c0,3.1-0.7,5.2-4.2,5.2C69.7,253.4,69,251.2,69,248.2z
				 M75.3,248.2c0-2-0.2-3.4-2.1-3.4c-1.9,0-2.1,1.4-2.1,3.4c0,2,0.2,3.4,2.1,3.4C75.1,251.6,75.3,250.2,75.3,248.2z"/>
			<path class="st4" d="M78.8,249.4v-6.2h2v6.1c0,1.5,0.1,2.3,1.8,2.3c1.6,0,1.8-0.8,1.8-2.3v-6.1h2v6.2c0,2.8-0.6,4-3.8,4
				C79.5,253.4,78.8,252.1,78.8,249.4z"/>
			<path class="st10" d="M59.5,261.3l1.4-0.1l0.1,1c0.4-0.7,1.2-1.2,3-1.2c2.6,0,2.9,1.5,2.9,3.7v6.5h-1.7v-6.1
				c0-1.6-0.2-2.4-1.8-2.4c-1.9,0-2.2,1.1-2.2,3.3v5.3h-1.7V261.3z"/>
			<path class="st10" d="M68.7,262c0-2.4,0.6-4.2,3.3-4.2c2.7,0,3.3,1.9,3.3,4.2c0,2.4-0.6,4.2-3.3,4.2
				C69.3,266.2,68.7,264.4,68.7,262z M73.8,262c0-1.7-0.3-2.9-1.9-2.9c-1.6,0-1.9,1.2-1.9,2.9c0,1.7,0.3,2.9,1.9,2.9
				C73.6,264.9,73.8,263.7,73.8,262z"/>
			<path class="st10" d="M78.4,259.4h-1.9v-1.5h3.6v13.3h-1.7V259.4z"/>
			<path class="st10" d="M84,259.4h-1.9v-1.5h3.6v13.3H84V259.4z"/>
		</g>
	</g>
	<g>
		<g>
			<line class="st9" x1="101.8" y1="318.7" x2="86.8" y2="318.7"/>
			<g>
				<polygon points="99.9,317 101.6,318.7 99.9,320.4 101.3,320.4 103,318.7 101.3,317 				"/>
			</g>
		</g>
	</g>
	<g>
		<g class="st3">
			<path class="st4" d="M24.1,296.4c0-4.1,0.9-6.8,5.2-6.8c1.4,0,2.6,0.3,3.4,0.9l-1.1,1.7c-0.5-0.3-1.3-0.6-2.3-0.6
				c-2.3,0-3,1.4-3,4.8s0.7,4.9,3,4.9c1.1,0,1.8-0.2,2.5-0.7l1,1.6c-1,0.6-1.9,1-3.6,1C25.1,303.3,24.1,300.6,24.1,296.4z"/>
			<path class="st4" d="M33.4,300.1c0-2.9,1.7-3.7,5.2-3.7H39c0-1.2-0.3-1.7-1.6-1.7c-1.1,0-1.9,0.3-2.5,0.5l-0.8-1.6
				c0.8-0.4,2-0.7,3.5-0.7c2.7,0,3.4,1,3.4,3.5v4.1c0,0.7,0.1,0.9,0.8,0.9v1.8c-0.2,0-0.4,0-0.6,0c-1.1,0-1.6-0.2-1.8-0.9
				c-0.6,0.7-1.5,1-2.8,1C34.1,303.2,33.4,302,33.4,300.1z M39,299.2V298h-0.4c-2.3,0-3.3,0.3-3.3,1.9c0,1.3,0.5,1.7,1.5,1.7
				C38.1,301.5,39,301.1,39,299.2z"/>
			<path class="st4" d="M43.2,293.2l1.6-0.1L45,294c0.5-0.7,1.4-1.1,3.1-1.1c3,0,3.3,2.4,3.3,5.2c0,2.8-0.4,5.2-3.4,5.2
				c-1.6,0-2.3-0.3-2.8-0.9v3.7h-2V293.2z M49.4,298.1c0-2-0.2-3.4-2-3.4c-2,0-2.2,1.4-2.2,3.4s0.2,3.3,2.2,3.3
				C49.1,301.5,49.4,300.2,49.4,298.1z"/>
			<path class="st4" d="M51.9,293H54l2.2,7.5l2.1-7.5h2l-3.2,10.1H55L51.9,293z"/>
			<path class="st4" d="M60.7,298.1c0-3.2,0.8-5.2,4.1-5.2c3.6,0,3.6,2.3,3.6,6.2h-5.7c0.1,1.7,0.5,2.5,2.2,2.5c1.3,0,2-0.3,2.6-0.6
				l0.8,1.5c-0.8,0.5-1.9,0.8-3.5,0.8C61.4,303.2,60.7,301.3,60.7,298.1z M62.7,297.3h3.9c0-1.6-0.1-2.6-1.8-2.6
				C63.2,294.6,62.8,295.6,62.7,297.3z"/>
			<path class="st4" d="M70,293.2l1.6-0.1l0.2,1.1c0.4-0.6,1.2-1.1,2.8-1.1v1.9c-2.4,0-2.6,1.5-2.6,3.2v5h-2V293.2z"/>
			<path class="st4" d="M75.6,293.2l1.6-0.1l0.2,0.9c0.5-0.6,1.2-1.1,3-1.1c2.5,0,2.9,1.5,2.9,3.7v6.6h-2V297c0-1.5-0.2-2.2-1.6-2.2
				c-1.8,0-2.1,1-2.1,3v5.4h-2V293.2z"/>
			<path class="st10" d="M52.9,311.2l1.4-0.1l0.1,1c0.4-0.7,1.2-1.2,3-1.2c2.6,0,2.9,1.5,2.9,3.7v6.5h-1.7V315
				c0-1.6-0.2-2.4-1.8-2.4c-1.9,0-2.2,1.1-2.2,3.3v5.3h-1.7V311.2z"/>
			<path class="st10" d="M62.1,311.9c0-2.4,0.6-4.2,3.3-4.2c2.7,0,3.3,1.9,3.3,4.2c0,2.4-0.6,4.2-3.3,4.2
				C62.6,316.1,62.1,314.3,62.1,311.9z M67.2,311.9c0-1.7-0.3-2.9-1.9-2.9c-1.6,0-1.9,1.2-1.9,2.9c0,1.7,0.3,2.9,1.9,2.9
				C67,314.8,67.2,313.6,67.2,311.9z"/>
			<path class="st10" d="M71.8,309.3h-1.9v-1.5h3.6v13.3h-1.7V309.3z"/>
			<path class="st10" d="M75.6,320.4l0.8-1.4c0.8,0.4,1.6,0.7,2.9,0.7c1.7,0,2.5-0.5,2.5-3c0-2.4-0.8-2.9-2.3-2.9
				c-1,0-1.7,0.3-2.1,0.7l-1.3-0.4l0.3-6.4h6.5v1.5h-5.1l-0.2,3.6c0.5-0.3,1.2-0.6,2.4-0.6c2.4,0,3.5,0.9,3.5,4.4
				c0,3.7-1.4,4.5-4.1,4.5C77.7,321.3,76.6,320.9,75.6,320.4z"/>
		</g>
	</g>
	<g>
		<g>
			<line class="st9" x1="114" y1="379.6" x2="158" y2="379.6"/>
			<g>
				<polygon points="115.9,381.3 114.2,379.6 115.9,377.9 114.5,377.9 112.8,379.6 114.5,381.3 				"/>
			</g>
		</g>
	</g>
	<g>
		<g class="st3">
			<path class="st4" d="M161,361l1-1.6c0.7,0.4,1.9,0.9,3.5,0.9c1.7,0,2.4-0.6,2.4-1.8c0-1.4-0.7-1.7-2.9-2.6
				c-2.3-0.9-3.5-1.7-3.5-3.9c0-2.3,1.5-3.6,4.2-3.6c1.6,0,2.7,0.3,3.7,0.8l-0.9,1.8c-0.7-0.3-1.5-0.6-2.8-0.6
				c-1.5,0-2.2,0.6-2.2,1.6c0,1.1,0.5,1.5,2.4,2.2c2.9,1.1,4,1.8,4,4.3c0,2.3-1.4,3.6-4.4,3.6C163.5,362.2,162,361.7,161,361z"/>
			<path class="st4" d="M171,359c0-2.9,1.7-3.7,5.2-3.7h0.4c0-1.2-0.3-1.7-1.6-1.7c-1.1,0-1.9,0.3-2.5,0.5l-0.8-1.6
				c0.8-0.4,2-0.7,3.5-0.7c2.7,0,3.4,1,3.4,3.5v4.1c0,0.7,0.1,0.9,0.8,0.9v1.8c-0.2,0-0.4,0-0.6,0c-1.1,0-1.6-0.2-1.8-0.9
				c-0.6,0.7-1.5,1-2.8,1C171.7,362.1,171,360.9,171,359z M176.6,358.1v-1.2h-0.4c-2.3,0-3.3,0.3-3.3,1.9c0,1.3,0.5,1.7,1.5,1.7
				C175.7,360.5,176.6,360,176.6,358.1z"/>
			<path class="st4" d="M180.9,348.7h2v2.2h-2V348.7z M180.9,352h2V362h-2V352z"/>
			<path class="st4" d="M184.9,352.1l1.6-0.1l0.2,0.9c0.5-0.6,1.2-1.1,3-1.1c2.5,0,2.9,1.5,2.9,3.7v6.6h-2v-6.1
				c0-1.5-0.2-2.2-1.6-2.2c-1.8,0-2.1,1-2.1,3v5.4h-2V352.1z"/>
			<path class="st4" d="M193.8,352h1.6l0.3-2.5l1.6-0.3v2.9h2.3v1.8h-2.3v5.3c0,0.8,0.1,1.3,1.2,1.3h1.1v1.8c-0.3,0-1.1,0.1-1.4,0.1
				c-2.4,0-3-0.8-3-2.9v-5.5h-1.6V352z"/>
			<path class="st4" d="M200.7,355.3h5v1.9h-5V355.3z"/>
			<path class="st4" d="M206.9,355.4c0-4.9,1.4-6.8,5.3-6.8c1.6,0,2.8,0.4,3.6,1l-1.1,1.7c-0.6-0.3-1.4-0.7-2.6-0.7
				c-2.1,0-3.1,0.9-3.1,4.9c0,3.7,0.7,5,3,5c2,0,2.4-0.9,2.4-3.8v-0.4h-3v-1.8h5v1.9c0,4.4-0.9,5.9-4.6,5.9
				C208,362.2,206.9,359.8,206.9,355.4z"/>
			<path class="st4" d="M217.5,359c0-2.9,1.7-3.7,5.2-3.7h0.4c0-1.2-0.3-1.7-1.6-1.7c-1.1,0-1.9,0.3-2.5,0.5l-0.8-1.6
				c0.8-0.4,2-0.7,3.5-0.7c2.7,0,3.4,1,3.4,3.5v4.1c0,0.7,0.1,0.9,0.8,0.9v1.8c-0.2,0-0.4,0-0.6,0c-1.1,0-1.6-0.2-1.8-0.9
				c-0.6,0.7-1.5,1-2.8,1C218.2,362.1,217.5,360.9,217.5,359z M223.1,358.1v-1.2h-0.4c-2.3,0-3.3,0.3-3.3,1.9c0,1.3,0.5,1.7,1.5,1.7
				C222.2,360.5,223.1,360,223.1,358.1z"/>
			<path class="st4" d="M227.3,358.2V352h2v6.1c0,1.5,0.1,2.3,1.8,2.3c1.6,0,1.8-0.8,1.8-2.3V352h2v6.2c0,2.8-0.6,4-3.8,4
				C228,362.2,227.3,360.9,227.3,358.2z"/>
			<path class="st4" d="M236.3,356.9c0-2.8,0.4-5.2,3.4-5.2c1.6,0,2.3,0.3,2.8,0.9v-4.5h2v13.8l-1.6,0.1l-0.2-1
				c-0.5,0.7-1.3,1.1-3.1,1.1C236.7,362.1,236.3,359.7,236.3,356.9z M242.5,357c0-2-0.2-3.3-2.2-3.3c-1.7,0-2,1.3-2,3.3
				c0,2.1,0.2,3.4,2,3.4C242.3,360.4,242.5,359,242.5,357z"/>
			<path class="st4" d="M246.1,357c0-3.2,0.8-5.2,4.1-5.2c3.6,0,3.6,2.3,3.6,6.2H248c0.1,1.7,0.5,2.5,2.2,2.5c1.3,0,2-0.3,2.6-0.6
				l0.8,1.5c-0.8,0.5-1.9,0.8-3.5,0.8C246.7,362.1,246.1,360.2,246.1,357z M248,356.2h3.9c0-1.6-0.1-2.6-1.8-2.6
				C248.5,353.6,248.1,354.5,248,356.2z"/>
			<path class="st4" d="M255.3,352.1l1.6-0.1l0.2,0.9c0.5-0.6,1.2-1.1,3-1.1c2.5,0,2.9,1.5,2.9,3.7v6.6h-2v-6.1
				c0-1.5-0.2-2.2-1.6-2.2c-1.8,0-2.1,1-2.1,3v5.4h-2V352.1z"/>
			<path class="st4" d="M264.2,361.4l0.8-1.6c0.7,0.3,1.7,0.6,2.8,0.6c1,0,1.5-0.3,1.5-1.2c0-0.8-0.5-1.1-2-1.7
				c-1.7-0.7-2.7-1.3-2.7-3c0-2,1.3-2.9,3.4-2.9c1.3,0,2.1,0.2,2.9,0.5l-0.8,1.7c-0.6-0.2-1.3-0.4-2.1-0.4c-1,0-1.4,0.4-1.4,1
				c0,0.7,0.5,1,1.9,1.5c1.8,0.7,2.8,1.3,2.8,3.2c0,1.9-1.2,2.8-3.4,2.8C266.3,362.1,265.1,361.9,264.2,361.4z"/>
			<path class="st10" d="M161.6,370.1l1.4-0.1l0.1,1c0.4-0.7,1.2-1.2,3-1.2c2.6,0,2.9,1.5,2.9,3.7v6.5h-1.7v-6.1
				c0-1.6-0.2-2.4-1.8-2.4c-1.9,0-2.2,1.1-2.2,3.3v5.3h-1.7V370.1z"/>
			<path class="st10" d="M170.8,370.8c0-2.4,0.6-4.2,3.3-4.2s3.3,1.9,3.3,4.2c0,2.4-0.6,4.2-3.3,4.2S170.8,373.2,170.8,370.8z
				 M175.9,370.8c0-1.7-0.3-2.9-1.9-2.9c-1.6,0-1.9,1.2-1.9,2.9c0,1.7,0.3,2.9,1.9,2.9C175.7,373.7,175.9,372.5,175.9,370.8z"/>
			<path class="st10" d="M180.5,368.2h-1.9v-1.5h3.6V380h-1.7V368.2z"/>
			<path class="st10" d="M184.6,376.2c0-1.6,0.2-3,1.8-3.5c-1.3-0.5-1.5-1.6-1.5-2.9c0-1.7,0.6-3.2,3.8-3.2s3.8,1.5,3.8,3.2
				c0,1.3-0.2,2.4-1.5,2.9c1.7,0.5,1.8,1.9,1.8,3.5c0,2.1-0.5,3.9-4.2,3.9C185.2,380.2,184.6,378.3,184.6,376.2z M191.3,376
				c0-1.5-0.4-2.5-2.5-2.5c-2.1,0-2.5,1-2.5,2.5c0,1.5,0.4,2.6,2.5,2.6C190.9,378.7,191.3,377.6,191.3,376z M191,370
				c0-1.2-0.4-2-2.1-2c-1.7,0-2.2,0.8-2.2,2c0,1.2,0.5,2,2.2,2C190.6,372.1,191,371.3,191,370z"/>
		</g>
	</g>
	<g>
		<g>
			<line class="st9" x1="105.3" y1="409.2" x2="78.3" y2="409.2"/>
			<g>
				<polygon points="103.4,407.5 105.1,409.2 103.4,410.9 104.8,410.9 106.5,409.2 104.8,407.5 				"/>
			</g>
		</g>
	</g>
	<g>
		<g class="st3">
			<path class="st4" d="M27.4,415.5l1-1.6c0.7,0.4,1.9,0.9,3.5,0.9c1.7,0,2.4-0.6,2.4-1.8c0-1.4-0.7-1.7-2.9-2.6
				c-2.3-0.9-3.5-1.7-3.5-3.9c0-2.3,1.5-3.6,4.2-3.6c1.6,0,2.7,0.3,3.7,0.8l-0.9,1.8c-0.7-0.3-1.5-0.6-2.8-0.6
				c-1.5,0-2.2,0.6-2.2,1.6c0,1.1,0.5,1.5,2.4,2.2c2.9,1.1,4,1.8,4,4.3c0,2.3-1.4,3.6-4.4,3.6C29.9,416.6,28.4,416.1,27.4,415.5z"/>
			<path class="st4" d="M37.4,413.4c0-2.9,1.7-3.7,5.2-3.7H43c0-1.2-0.3-1.7-1.6-1.7c-1.1,0-1.9,0.3-2.5,0.5l-0.8-1.6
				c0.8-0.4,2-0.7,3.5-0.7c2.7,0,3.4,1,3.4,3.5v4.1c0,0.7,0.1,0.9,0.8,0.9v1.8c-0.2,0-0.4,0-0.6,0c-1.1,0-1.6-0.2-1.8-0.9
				c-0.6,0.7-1.5,1-2.8,1C38.1,416.5,37.4,415.3,37.4,413.4z M43,412.6v-1.2h-0.4c-2.3,0-3.3,0.3-3.3,1.9c0,1.3,0.5,1.7,1.5,1.7
				C42.1,414.9,43,414.4,43,412.6z"/>
			<path class="st4" d="M47.3,403.1h2v2.2h-2V403.1z M47.3,406.4h2v10.1h-2V406.4z"/>
			<path class="st4" d="M51.3,406.5l1.6-0.1l0.2,0.9c0.5-0.6,1.2-1.1,3-1.1c2.5,0,2.9,1.5,2.9,3.7v6.6h-2v-6.1
				c0-1.5-0.2-2.2-1.6-2.2c-1.8,0-2.1,1-2.1,3v5.4h-2V406.5z"/>
			<path class="st4" d="M60.2,406.4h1.6l0.3-2.5l1.6-0.3v2.9h2.3v1.8h-2.3v5.3c0,0.8,0.1,1.3,1.2,1.3h1.1v1.8
				c-0.3,0-1.1,0.1-1.4,0.1c-2.4,0-3-0.8-3-2.9v-5.5h-1.6V406.4z"/>
			<path class="st4" d="M67.1,409.7h5v1.9h-5V409.7z"/>
			<path class="st4" d="M15,421.1h2.6l3.1,9.8l3.1-9.8h2.6v13.3h-2.1V425l-3,9.5h-1.5l-3-9.5v9.5H15V421.1z"/>
			<path class="st4" d="M28.1,431.4c0-2.9,1.7-3.7,5.2-3.7h0.4c0-1.2-0.3-1.7-1.6-1.7c-1.1,0-1.9,0.3-2.5,0.5l-0.8-1.6
				c0.8-0.4,2-0.7,3.5-0.7c2.7,0,3.4,1,3.4,3.5v4.1c0,0.7,0.1,0.9,0.8,0.9v1.8c-0.2,0-0.4,0-0.6,0c-1.1,0-1.6-0.2-1.8-0.9
				c-0.6,0.7-1.5,1-2.8,1C28.8,434.5,28.1,433.3,28.1,431.4z M33.7,430.6v-1.2h-0.4c-2.3,0-3.3,0.3-3.3,1.9c0,1.3,0.5,1.7,1.5,1.7
				C32.8,432.9,33.7,432.4,33.7,430.6z"/>
			<path class="st4" d="M38,424.5l1.6-0.1l0.2,1.1c0.4-0.6,1.2-1.1,2.8-1.1v1.9c-2.4,0-2.6,1.5-2.6,3.2v5h-2V424.5z"/>
			<path class="st4" d="M43,424.4h1.6l0.3-2.5l1.6-0.3v2.9h2.3v1.8h-2.3v5.3c0,0.8,0.1,1.3,1.2,1.3h1.1v1.8c-0.3,0-1.1,0.1-1.4,0.1
				c-2.4,0-3-0.8-3-2.9v-5.5H43V424.4z"/>
			<path class="st4" d="M49.8,429.4c0-3,0.7-5.2,4.2-5.2c3.5,0,4.2,2.2,4.2,5.2c0,3.1-0.7,5.2-4.2,5.2
				C50.5,434.6,49.8,432.4,49.8,429.4z M56,429.4c0-2-0.2-3.4-2.1-3.4c-1.9,0-2.1,1.4-2.1,3.4c0,2,0.2,3.4,2.1,3.4
				C55.9,432.8,56,431.4,56,429.4z"/>
			<path class="st4" d="M59.6,424.5l1.6-0.1l0.2,1.1c0.4-0.6,1.2-1.1,2.8-1.1v1.9c-2.4,0-2.6,1.5-2.6,3.2v5h-2V424.5z"/>
			<path class="st4" d="M65.6,435.6h1c0.5,0,0.7-0.2,0.8-0.6l0.2-0.6l-3.1-10.1h2.1l2.1,7.2l2-7.2h2l-3.4,11.1
				c-0.4,1.5-1.2,1.8-2.7,1.8h-1V435.6z"/>
			<path class="st10" d="M37,442.5l1.4-0.1l0.1,1c0.4-0.7,1.2-1.2,3-1.2c2.6,0,2.9,1.5,2.9,3.7v6.5h-1.7v-6.1c0-1.6-0.2-2.4-1.8-2.4
				c-1.9,0-2.2,1.1-2.2,3.3v5.3H37V442.5z"/>
			<path class="st10" d="M46.2,443.2c0-2.4,0.6-4.2,3.3-4.2c2.7,0,3.3,1.9,3.3,4.2c0,2.4-0.6,4.2-3.3,4.2
				C46.8,447.4,46.2,445.6,46.2,443.2z M51.4,443.2c0-1.7-0.3-2.9-1.9-2.9c-1.6,0-1.9,1.2-1.9,2.9c0,1.7,0.3,2.9,1.9,2.9
				C51.1,446.1,51.4,444.9,51.4,443.2z"/>
			<path class="st10" d="M53.8,451.1l3-3.7c2.4-2.9,2.6-3.6,2.6-4.9c0-1.3-0.5-1.9-2-1.9c-1.1,0-2,0.3-2.7,0.6l-0.7-1.4
				c0.9-0.5,2-0.8,3.7-0.8c2.5,0,3.4,1.1,3.4,3.3c0,1.9-0.5,2.9-3.1,6.1l-2.1,2.6h5.3v1.5h-7.4V451.1z"/>
			<path class="st10" d="M63.2,445.8c0-4.6,0.6-6.8,4.3-6.8c3.6,0,4.2,2.3,4.2,6.8c0,4.6-0.6,6.8-4.2,6.8
				C63.8,452.6,63.2,450.4,63.2,445.8z M70,445.8c0-3.8-0.5-5.2-2.5-5.2c-2.1,0-2.6,1.4-2.6,5.2c0,3.8,0.5,5.2,2.6,5.2
				C69.5,451,70,449.6,70,445.8z"/>
		</g>
	</g>
	<g>
		<g>
			<g class="st3">
				<path class="st4" d="M75.8,468.3h2.6l3.1,9.8l3.1-9.8h2.6v13.3h-2.1v-9.5l-3,9.5h-1.5l-3-9.5v9.5h-1.9V468.3z"/>
				<path class="st4" d="M89.3,477.8v-6.2h2v6.1c0,1.5,0.1,2.3,1.8,2.3c1.6,0,1.8-0.8,1.8-2.3v-6.1h2v6.2c0,2.8-0.6,4-3.8,4
					C90,481.8,89.3,480.5,89.3,477.8z"/>
				<path class="st4" d="M98.7,471.7l1.6-0.1l0.2,1.1c0.4-0.6,1.2-1.1,2.8-1.1v1.9c-2.4,0-2.6,1.5-2.6,3.2v5h-2V471.7z"/>
				<path class="st4" d="M103.8,476.6c0-3.2,0.8-5.2,4.1-5.2c3.6,0,3.6,2.3,3.6,6.2h-5.7c0.1,1.7,0.5,2.5,2.2,2.5
					c1.3,0,2-0.3,2.6-0.6l0.8,1.5c-0.8,0.5-1.9,0.8-3.5,0.8C104.5,481.8,103.8,479.8,103.8,476.6z M105.8,475.8h3.9
					c0-1.6-0.1-2.6-1.8-2.6C106.2,473.2,105.8,474.1,105.8,475.8z"/>
				<path class="st4" d="M112.4,471.6h1.6l0.3-2.5l1.6-0.3v2.9h2.3v1.8h-2.3v5.3c0,0.8,0.1,1.3,1.2,1.3h1.1v1.8
					c-0.3,0-1.1,0.1-1.4,0.1c-2.4,0-3-0.8-3-2.9v-5.5h-1.6V471.6z"/>
				<path class="st10" d="M75.4,486.3h4.5c2.8,0,4,1.3,4,4.1c0,2.7-1.2,4.2-4,4.2h-2.8v5.1h-1.7V486.3z M79.8,493
					c1.6,0,2.3-0.7,2.3-2.6s-0.7-2.6-2.3-2.6h-2.7v5.1H79.8z"/>
				<path class="st10" d="M84.7,494.6c0-3.1,0.7-5.1,3.9-5.1c3.4,0,3.5,2.2,3.4,5.9h-5.8c0.1,1.9,0.5,2.9,2.4,2.9
					c1.3,0,1.9-0.3,2.5-0.6l0.6,1.3c-0.8,0.4-1.7,0.7-3.3,0.7C85.3,499.8,84.7,497.8,84.7,494.6z M86.4,493.9h4.2
					c0-1.8-0.1-2.9-1.9-2.9C86.8,491,86.4,492,86.4,493.9z M89.2,485.7h1.9l-2.4,2.9h-1.5L89.2,485.7z"/>
				<path class="st10" d="M93.2,496.6c0-2.9,1.7-3.7,5.1-3.7h0.4c0-1.3-0.3-2-1.8-2c-1,0-1.9,0.3-2.5,0.5l-0.7-1.4
					c0.8-0.4,1.9-0.7,3.3-0.7c2.7,0,3.3,1.1,3.3,3.5v4.2c0,0.8,0.1,1,0.8,1v1.5c-0.1,0-0.3,0-0.5,0c-1.1,0-1.5-0.2-1.7-1
					c-0.6,0.8-1.5,1-2.8,1C93.9,499.7,93.2,498.6,93.2,496.6z M98.7,495.8v-1.4h-0.4c-2.5,0-3.5,0.3-3.5,2.1c0,1.4,0.6,1.9,1.7,1.9
					C97.7,498.3,98.7,497.8,98.7,495.8z"/>
				<path class="st10" d="M104.7,495.9c-0.1,0.2-0.1,0.4-0.1,0.5c0,0.5,0.3,0.7,1.5,0.7c3,0,3.9,0.7,3.9,2.5c0,2.1-1.3,3-4,3
					c-2.8,0-4-0.6-4-2.4c0-1.2,0.5-2.1,1.7-2.4c-0.4-0.3-0.6-0.7-0.6-1.2c0-0.4,0.1-0.8,0.4-1.2c-0.7-0.5-1.1-1.3-1.1-2.6
					c0-2.4,1.3-3.3,3.5-3.3c0.3,0,0.5,0,0.8,0l3.2-0.5v1.4h-1.4c0.6,0.4,1,1.2,1,2.4c0,2.4-1.4,3.3-3.5,3.3
					C105.5,496,105.1,496,104.7,495.9z M108.3,499.7c0-0.9-0.4-1.3-2.3-1.3c-1.8,0-2.3,0.5-2.3,1.5c0,1.1,0.5,1.4,2.3,1.4
					C107.9,501.3,108.3,500.9,108.3,499.7z M107.8,492.8c0-1.3-0.6-1.9-1.9-1.9c-1.2,0-1.9,0.6-1.9,1.9s0.6,1.9,1.9,1.9
					C107.2,494.7,107.8,494.1,107.8,492.8z"/>
				<path class="st10" d="M110.9,494.6c0-3.1,0.7-5.1,3.9-5.1c3.4,0,3.5,2.2,3.4,5.9h-5.8c0.1,1.9,0.5,2.9,2.4,2.9
					c1.3,0,1.9-0.3,2.5-0.6l0.6,1.3c-0.8,0.4-1.7,0.7-3.3,0.7C111.5,499.8,110.9,497.8,110.9,494.6z M112.6,493.9h4.2
					c0-1.8-0.1-2.9-1.9-2.9C113.1,491,112.6,492,112.6,493.9z"/>
			</g>
		</g>
	</g>
	<g>
		<g>
			<line class="st9" x1="170.9" y1="460" x2="245.9" y2="460"/>
			<g>
				<polygon points="172.9,461.7 171.2,460 172.9,458.3 171.4,458.3 169.7,460 171.4,461.7 				"/>
			</g>
		</g>
	</g>
	<g>
		<g>
			<line class="st9" x1="164.6" y1="469.4" x2="120.6" y2="469.4"/>
			<g>
				<polygon points="162.7,467.7 164.4,469.4 162.7,471.1 164.1,471.1 165.8,469.4 164.1,467.7 				"/>
			</g>
		</g>
	</g>
	<g>
		<g>
			<g class="st3">
				<path class="st32" d="M23.9,568.4h-14v-14h14V568.4z"/>
				<path class="st41" d="M26.1,565.8l0.6-0.8c0.4,0.3,1.4,0.8,2.7,0.8c1.3,0,2.2-0.7,2.2-2.1c0-1-0.7-1.5-1.9-2.2
					c-1.2-0.7-2-1.3-2-2.5c0-1.9,1.3-2.9,3.1-2.9c1.3,0,2.1,0.3,2.6,0.6l-0.5,0.9c-0.5-0.3-1.2-0.5-2.2-0.5c-1.3,0-2,0.7-2,1.9
					c0,0.8,0.4,1.2,1.6,1.8c1.4,0.8,2.3,1.5,2.3,2.8c0,2.1-1.4,3.1-3.2,3.1C27.8,566.7,26.8,566.3,26.1,565.8z"/>
				<path class="st41" d="M33.8,564.2c0-0.5,0.1-1.1,0.2-1.7c0.4-2.4,1.3-3.7,3.2-3.7c1.8,0,2.3,0.8,2.3,2c0,0.6-0.2,1.6-0.3,2.4
					h-4.3c-0.1,0.4-0.1,0.7-0.1,1c0,1,0.4,1.7,1.7,1.7c0.7,0,1.2-0.1,1.7-0.3l0.3,0.8c-0.6,0.2-1.3,0.4-2.1,0.4
					C34.4,566.7,33.8,565.7,33.8,564.2z M35,562.2h3.4c0.1-0.5,0.2-1,0.2-1.3c0-0.7-0.3-1.2-1.4-1.2C35.8,559.7,35.3,560.7,35,562.2
					z"/>
				<path class="st41" d="M40.1,564.2c0-0.5,0.1-1.1,0.2-1.7c0.4-2.4,1.2-3.7,3.2-3.7c1,0,1.5,0.2,1.9,0.4l-0.6,0.8
					c-0.3-0.2-0.7-0.3-1.4-0.3c-1.4,0-1.9,1-2.2,2.9c-0.1,0.6-0.2,1.1-0.2,1.5c0,1.1,0.4,1.7,1.6,1.7c0.4,0,0.8-0.1,1.3-0.3l0.3,0.8
					c-0.6,0.3-1.2,0.3-1.8,0.3C40.7,566.7,40.1,565.7,40.1,564.2z"/>
				<path class="st41" d="M46.2,558.9h1.2l0.5-2.2l0.9-0.2l-0.4,2.3h1.8l-0.2,0.9h-1.8l-0.8,4.8c-0.1,0.7-0.1,1.1,0.8,1.1h0.8
					l-0.2,0.9c-0.1,0-0.8,0-0.9,0c-1.6,0-1.8-0.7-1.6-2.1l0.8-4.7H46L46.2,558.9z"/>
				<path class="st41" d="M51.6,558.9h1l-1.4,7.7h-1L51.6,558.9z M52,556.4h1l-0.3,1.5h-1L52,556.4z"/>
				<path class="st41" d="M53.2,564.1c0-0.5,0.1-1,0.2-1.6c0.4-2.2,1.2-3.7,3.4-3.7c2,0,2.6,1.1,2.6,2.6c0,0.5-0.1,1.1-0.2,1.7
					c-0.4,2.3-1.1,3.7-3.4,3.7C53.8,566.7,53.2,565.6,53.2,564.1z M58.1,562.9c0.1-0.5,0.2-1.1,0.2-1.5c0-1-0.4-1.7-1.6-1.7
					c-1.6,0-2,1.3-2.3,2.9c-0.1,0.5-0.2,1-0.2,1.4c0,1,0.4,1.8,1.6,1.8C57.4,565.8,57.8,564.6,58.1,562.9z"/>
				<path class="st41" d="M61.1,559l0.8-0.1l-0.1,0.7c0.4-0.5,1.1-0.8,2.1-0.8c2.3,0,2.2,1.4,1.9,3l-0.9,4.9h-1l0.8-4.8
					c0.3-1.3,0.3-2.1-1.3-2.1c-1.3,0-1.8,1-2.1,2.8l-0.7,4.1h-1L61.1,559z"/>
				<path class="st41" d="M66.2,566.1l0.5-0.8c0.4,0.3,1,0.6,2,0.6c0.7,0,1.4-0.3,1.4-1.4c0-0.6-0.4-0.9-1.3-1.5
					c-0.9-0.6-1.6-1.1-1.6-2c0-1.6,1.1-2.2,2.4-2.2c1,0,1.7,0.2,2.1,0.5l-0.5,0.8c-0.4-0.2-0.8-0.4-1.6-0.4c-0.8,0-1.3,0.4-1.3,1.3
					c0,0.6,0.5,0.9,1.2,1.4c1,0.6,1.5,1.1,1.5,2.1c0,1.7-1.2,2.3-2.4,2.3C67.5,566.7,66.7,566.4,66.2,566.1z"/>
				<path class="st41" d="M76.2,566.6c-1.4,0-1.6-0.6-1.4-1.8l1.6-9h1l-1.6,9c-0.1,0.6-0.1,0.9,0.8,0.9l-0.2,0.9
					C76.5,566.6,76.4,566.6,76.2,566.6z"/>
				<path class="st41" d="M77.8,564.2c0-0.5,0.1-1.1,0.2-1.7c0.4-2.4,1.3-3.7,3.2-3.7c1.8,0,2.3,0.8,2.3,2c0,0.6-0.2,1.6-0.3,2.4
					h-4.3c-0.1,0.4-0.1,0.7-0.1,1c0,1,0.4,1.7,1.7,1.7c0.7,0,1.2-0.1,1.7-0.3l0.3,0.8c-0.6,0.2-1.3,0.4-2.1,0.4
					C78.4,566.7,77.8,565.7,77.8,564.2z M79,562.2h3.4c0.1-0.5,0.2-1,0.2-1.3c0-0.7-0.3-1.2-1.4-1.2C79.8,559.7,79.3,560.7,79,562.2
					z"/>
				<path class="st41" d="M83.5,566.1l0.5-0.8c0.4,0.3,1,0.6,2,0.6c0.7,0,1.4-0.3,1.4-1.4c0-0.6-0.4-0.9-1.3-1.5
					c-0.9-0.6-1.6-1.1-1.6-2c0-1.6,1.1-2.2,2.4-2.2c1,0,1.7,0.2,2.1,0.5l-0.5,0.8c-0.4-0.2-0.8-0.4-1.6-0.4c-0.8,0-1.3,0.4-1.3,1.3
					c0,0.6,0.5,0.9,1.2,1.4c1,0.6,1.5,1.1,1.5,2.1c0,1.7-1.2,2.3-2.4,2.3C84.8,566.7,84,566.4,83.5,566.1z"/>
				<path class="st41" d="M93.1,559l0.8-0.1l-0.1,0.7c0.4-0.5,1.1-0.8,2.1-0.8c1.1,0,1.6,0.2,1.8,0.9c0.4-0.6,1.2-0.9,2.3-0.9
					c2.2,0,2.1,1.4,1.8,3l-0.9,4.9h-1l0.8-4.8c0.2-1.3,0.3-2.1-1.2-2.1c-1.3,0-1.7,1-2,2.8l-0.7,4.1h-1l0.8-4.8
					c0.3-1.3,0.3-2.1-1.2-2.1c-1.3,0-1.7,1-2,2.8l-0.7,4.1h-1L93.1,559z"/>
				<path class="st41" d="M102.7,564.1c0-0.5,0.1-1,0.2-1.6c0.4-2.2,1.2-3.7,3.4-3.7c2,0,2.6,1.1,2.6,2.6c0,0.5-0.1,1.1-0.2,1.7
					c-0.4,2.3-1.1,3.7-3.4,3.7C103.3,566.7,102.7,565.6,102.7,564.1z M107.6,562.9c0.1-0.5,0.2-1.1,0.2-1.5c0-1-0.4-1.7-1.6-1.7
					c-1.6,0-2,1.3-2.3,2.9c-0.1,0.5-0.2,1-0.2,1.4c0,1,0.4,1.8,1.6,1.8C106.9,565.8,107.3,564.6,107.6,562.9z"/>
				<path class="st41" d="M110.7,558.9h1l-1.4,7.7h-1L110.7,558.9z M111.2,556.4h1l-0.3,1.5h-1L111.2,556.4z"/>
				<path class="st41" d="M113.4,559l0.8-0.1l-0.1,0.7c0.4-0.5,1.1-0.8,2.1-0.8c2.3,0,2.2,1.4,1.9,3l-0.9,4.9h-1l0.8-4.8
					c0.3-1.3,0.3-2.1-1.3-2.1c-1.3,0-1.8,1-2.1,2.8l-0.7,4.1h-1L113.4,559z"/>
				<path class="st41" d="M118.5,566.1l0.5-0.8c0.4,0.3,1,0.6,2,0.6c0.7,0,1.4-0.3,1.4-1.4c0-0.6-0.4-0.9-1.3-1.5
					c-0.9-0.6-1.6-1.1-1.6-2c0-1.6,1.1-2.2,2.4-2.2c1,0,1.7,0.2,2.1,0.5l-0.5,0.8c-0.4-0.2-0.8-0.4-1.6-0.4c-0.8,0-1.3,0.4-1.3,1.3
					c0,0.6,0.5,0.9,1.2,1.4c1,0.6,1.5,1.1,1.5,2.1c0,1.7-1.2,2.3-2.4,2.3C119.8,566.7,119.1,566.4,118.5,566.1z"/>
				<path class="st41" d="M127,564.2c0-0.5,0.1-1.1,0.2-1.7c0.4-2.4,1.2-3.7,3.2-3.7c1,0,1.5,0.2,1.9,0.4l-0.6,0.8
					c-0.3-0.2-0.7-0.3-1.4-0.3c-1.4,0-1.9,1-2.2,2.9c-0.1,0.6-0.2,1.1-0.2,1.5c0,1.1,0.4,1.7,1.6,1.7c0.4,0,0.8-0.1,1.3-0.3l0.3,0.8
					c-0.6,0.3-1.2,0.3-1.8,0.3C127.6,566.7,127,565.7,127,564.2z"/>
				<path class="st41" d="M134.3,555.9h1l-0.7,3.7c0.4-0.4,1-0.8,2-0.8c2.3,0,2.2,1.4,1.9,3l-0.9,4.9h-1l0.8-4.8
					c0.2-1.3,0.3-2.1-1.3-2.1c-1.4,0-1.8,1-2.1,2.8l-0.7,4.1h-1L134.3,555.9z"/>
				<path class="st41" d="M139.5,564.2c0-0.5,0.1-1.1,0.2-1.7c0.4-2.4,1.3-3.7,3.2-3.7c1.8,0,2.3,0.8,2.3,2c0,0.6-0.2,1.6-0.3,2.4
					h-4.3c-0.1,0.4-0.1,0.7-0.1,1c0,1,0.4,1.7,1.7,1.7c0.7,0,1.2-0.1,1.7-0.3l0.3,0.8c-0.6,0.2-1.3,0.4-2.1,0.4
					C140.1,566.7,139.5,565.7,139.5,564.2z M140.7,562.2h3.4c0.1-0.5,0.2-1,0.2-1.3c0-0.7-0.3-1.2-1.4-1.2
					C141.5,559.7,141,560.7,140.7,562.2z M141.6,555.9h1.1l1.2,2.2H143L141.6,555.9z"/>
				<path class="st41" d="M147,559l0.8-0.1l-0.1,0.8c0.4-0.5,1.1-0.9,2.3-0.9l-0.2,1c-1.9,0-2.2,1.3-2.5,2.8l-0.7,4h-1L147,559z"/>
				<path class="st41" d="M149.6,564.2c0-0.5,0.1-1.1,0.2-1.7c0.4-2.4,1.3-3.7,3.2-3.7c1.8,0,2.3,0.8,2.3,2c0,0.6-0.2,1.6-0.3,2.4
					h-4.3c-0.1,0.4-0.1,0.7-0.1,1c0,1,0.4,1.7,1.7,1.7c0.7,0,1.2-0.1,1.7-0.3l0.3,0.8c-0.6,0.2-1.3,0.4-2.1,0.4
					C150.2,566.7,149.6,565.7,149.6,564.2z M150.8,562.2h3.4c0.1-0.5,0.2-1,0.2-1.3c0-0.7-0.3-1.2-1.4-1.2
					C151.6,559.7,151.1,560.7,150.8,562.2z"/>
				<path class="st41" d="M155.3,566.1l0.5-0.8c0.4,0.3,1,0.6,2,0.6c0.7,0,1.4-0.3,1.4-1.4c0-0.6-0.4-0.9-1.3-1.5
					c-0.9-0.6-1.6-1.1-1.6-2c0-1.6,1.1-2.2,2.4-2.2c1,0,1.7,0.2,2.1,0.5l-0.5,0.8c-0.3-0.2-0.8-0.4-1.6-0.4c-0.8,0-1.3,0.4-1.3,1.3
					c0,0.6,0.5,0.9,1.2,1.4c1,0.6,1.5,1.1,1.5,2.1c0,1.7-1.2,2.3-2.4,2.3C156.6,566.7,155.8,566.4,155.3,566.1z"/>
				<path class="st10" d="M182.8,568.4h-14v-14h14V568.4z"/>
				<path class="st41" d="M185,565.8l0.6-0.8c0.4,0.3,1.4,0.8,2.7,0.8c1.3,0,2.2-0.7,2.2-2.1c0-1-0.7-1.5-1.9-2.2
					c-1.2-0.7-2-1.3-2-2.5c0-1.9,1.3-2.9,3.1-2.9c1.3,0,2.1,0.3,2.6,0.6l-0.5,0.9c-0.5-0.3-1.2-0.5-2.2-0.5c-1.3,0-2,0.7-2,1.9
					c0,0.8,0.4,1.2,1.6,1.8c1.4,0.8,2.3,1.5,2.3,2.8c0,2.1-1.4,3.1-3.2,3.1C186.7,566.7,185.6,566.3,185,565.8z"/>
				<path class="st41" d="M192.6,564.2c0-0.5,0.1-1.1,0.2-1.7c0.4-2.4,1.3-3.7,3.2-3.7c1.8,0,2.3,0.8,2.3,2c0,0.6-0.2,1.6-0.3,2.4
					h-4.3c-0.1,0.4-0.1,0.7-0.1,1c0,1,0.4,1.7,1.7,1.7c0.7,0,1.2-0.1,1.7-0.3l0.3,0.8c-0.6,0.2-1.3,0.4-2.1,0.4
					C193.2,566.7,192.6,565.7,192.6,564.2z M193.8,562.2h3.4c0.1-0.5,0.2-1,0.2-1.3c0-0.7-0.3-1.2-1.4-1.2
					C194.6,559.7,194.1,560.7,193.8,562.2z"/>
				<path class="st41" d="M199,564.2c0-0.5,0.1-1.1,0.2-1.7c0.4-2.4,1.2-3.7,3.2-3.7c1,0,1.5,0.2,1.9,0.4l-0.6,0.8
					c-0.3-0.2-0.7-0.3-1.4-0.3c-1.4,0-1.9,1-2.2,2.9c-0.1,0.6-0.2,1.1-0.2,1.5c0,1.1,0.4,1.7,1.6,1.7c0.4,0,0.8-0.1,1.3-0.3l0.3,0.8
					c-0.6,0.3-1.2,0.3-1.8,0.3C199.6,566.7,199,565.7,199,564.2z"/>
				<path class="st41" d="M205,558.9h1.2l0.5-2.2l0.9-0.2l-0.4,2.3h1.8l-0.2,0.9H207l-0.8,4.8c-0.1,0.7-0.1,1.1,0.8,1.1h0.8
					l-0.2,0.9c-0.1,0-0.8,0-0.9,0c-1.6,0-1.8-0.7-1.6-2.1l0.8-4.7h-1.2L205,558.9z"/>
				<path class="st41" d="M210.4,558.9h1l-1.4,7.7h-1L210.4,558.9z M210.9,556.4h1l-0.3,1.5h-1L210.9,556.4z"/>
				<path class="st41" d="M212,564.1c0-0.5,0.1-1,0.2-1.6c0.4-2.2,1.2-3.7,3.4-3.7c2,0,2.6,1.1,2.6,2.6c0,0.5-0.1,1.1-0.2,1.7
					c-0.4,2.3-1.1,3.7-3.4,3.7C212.6,566.7,212,565.6,212,564.1z M216.9,562.9c0.1-0.5,0.2-1.1,0.2-1.5c0-1-0.3-1.7-1.6-1.7
					c-1.6,0-2,1.3-2.3,2.9c-0.1,0.5-0.2,1-0.2,1.4c0,1,0.4,1.8,1.6,1.8C216.2,565.8,216.6,564.6,216.9,562.9z"/>
				<path class="st41" d="M219.9,559l0.8-0.1l-0.1,0.7c0.4-0.5,1.1-0.8,2.1-0.8c2.3,0,2.2,1.4,1.9,3l-0.9,4.9h-1l0.8-4.8
					c0.3-1.3,0.3-2.1-1.3-2.1c-1.3,0-1.8,1-2.1,2.8l-0.7,4.1h-1L219.9,559z"/>
				<path class="st41" d="M225,566.1l0.5-0.8c0.4,0.3,1,0.6,2,0.6c0.7,0,1.4-0.3,1.4-1.4c0-0.6-0.4-0.9-1.3-1.5
					c-0.9-0.6-1.6-1.1-1.6-2c0-1.6,1.1-2.2,2.4-2.2c1,0,1.7,0.2,2.1,0.5l-0.5,0.8c-0.3-0.2-0.8-0.4-1.6-0.4c-0.8,0-1.3,0.4-1.3,1.3
					c0,0.6,0.5,0.9,1.2,1.4c1,0.6,1.5,1.1,1.5,2.1c0,1.7-1.2,2.3-2.4,2.3C226.3,566.7,225.6,566.4,225,566.1z"/>
				<path class="st41" d="M235,566.6c-1.4,0-1.6-0.6-1.4-1.8l1.6-9h1l-1.6,9c-0.1,0.6-0.1,0.9,0.8,0.9l-0.2,0.9
					C235.3,566.6,235.2,566.6,235,566.6z"/>
				<path class="st41" d="M236.6,564.2c0-0.5,0.1-1.1,0.2-1.7c0.4-2.4,1.3-3.7,3.2-3.7c1.8,0,2.3,0.8,2.3,2c0,0.6-0.2,1.6-0.3,2.4
					h-4.3c-0.1,0.4-0.1,0.7-0.1,1c0,1,0.4,1.7,1.7,1.7c0.7,0,1.2-0.1,1.7-0.3l0.3,0.8c-0.6,0.2-1.3,0.4-2.1,0.4
					C237.2,566.7,236.6,565.7,236.6,564.2z M237.9,562.2h3.4c0.1-0.5,0.2-1,0.2-1.3c0-0.7-0.3-1.2-1.4-1.2
					C238.6,559.7,238.2,560.7,237.9,562.2z"/>
				<path class="st41" d="M242.3,566.1l0.5-0.8c0.4,0.3,1,0.6,2,0.6c0.7,0,1.4-0.3,1.4-1.4c0-0.6-0.4-0.9-1.3-1.5
					c-0.9-0.6-1.6-1.1-1.6-2c0-1.6,1.1-2.2,2.4-2.2c1,0,1.7,0.2,2.1,0.5l-0.5,0.8c-0.3-0.2-0.8-0.4-1.6-0.4c-0.8,0-1.3,0.4-1.3,1.3
					c0,0.6,0.5,0.9,1.2,1.4c1,0.6,1.5,1.1,1.5,2.1c0,1.7-1.2,2.3-2.4,2.3C243.6,566.7,242.9,566.4,242.3,566.1z"/>
				<path class="st41" d="M251.9,559l0.8-0.1l-0.1,0.7c0.5-0.5,1.2-0.8,2.3-0.8c1.7,0,2.2,1,2.2,2.4c0,0.6-0.1,1.2-0.2,1.8
					c-0.4,2.1-1,3.7-2.9,3.7c-1.4,0-2-0.4-2.3-1l-0.5,3.1h-1L251.9,559z M255.9,562.9c0.1-0.6,0.2-1.1,0.2-1.6c0-1-0.3-1.6-1.5-1.6
					c-1.7,0-2,1.2-2.3,2.9c-0.1,0.5-0.2,1-0.2,1.5c0,1,0.4,1.7,1.7,1.7C255.2,565.8,255.6,564.7,255.9,562.9z"/>
				<path class="st41" d="M259.3,566.6c-1.4,0-1.6-0.6-1.4-1.8l1.6-9h1l-1.6,9c-0.1,0.6-0.1,0.9,0.8,0.9l-0.2,0.9
					C259.6,566.6,259.5,566.6,259.3,566.6z"/>
				<path class="st41" d="M261.2,563.7l0.8-4.8h1l-0.8,4.8c-0.2,1.2-0.3,2.1,1.3,2.1c1.3,0,1.5-0.6,1.8-1.9l0.9-5h1l-0.9,5.1
					c-0.3,1.9-0.8,2.7-2.8,2.7C261.1,566.7,260.9,565.6,261.2,563.7z"/>
				<path class="st41" d="M267,566.1l0.5-0.8c0.4,0.3,1,0.6,2,0.6c0.7,0,1.4-0.3,1.4-1.4c0-0.6-0.4-0.9-1.3-1.5
					c-0.9-0.6-1.6-1.1-1.6-2c0-1.6,1.1-2.2,2.4-2.2c1,0,1.7,0.2,2.1,0.5l-0.5,0.8c-0.3-0.2-0.8-0.4-1.6-0.4c-0.8,0-1.3,0.4-1.3,1.3
					c0,0.6,0.5,0.9,1.2,1.4c1,0.6,1.5,1.1,1.5,2.1c0,1.7-1.2,2.3-2.4,2.3C268.3,566.7,267.6,566.4,267,566.1z"/>
				<path class="st41" d="M275.5,564.2c0-0.5,0.1-1.1,0.2-1.7c0.4-2.4,1.2-3.7,3.2-3.7c1,0,1.5,0.2,1.9,0.4l-0.6,0.8
					c-0.3-0.2-0.7-0.3-1.4-0.3c-1.4,0-1.9,1-2.2,2.9c-0.1,0.6-0.2,1.1-0.2,1.5c0,1.1,0.4,1.7,1.6,1.7c0.4,0,0.8-0.1,1.3-0.3l0.3,0.8
					c-0.6,0.3-1.2,0.3-1.8,0.3C276.1,566.7,275.5,565.7,275.5,564.2z"/>
				<path class="st41" d="M282.8,555.9h1l-0.7,3.7c0.4-0.4,1-0.8,2-0.8c2.3,0,2.2,1.4,1.9,3l-0.9,4.9h-1l0.8-4.8
					c0.2-1.3,0.3-2.1-1.3-2.1c-1.4,0-1.8,1-2.1,2.8l-0.7,4.1h-1L282.8,555.9z"/>
				<path class="st41" d="M288,564.2c0-0.5,0.1-1.1,0.2-1.7c0.4-2.4,1.3-3.7,3.2-3.7c1.8,0,2.3,0.8,2.3,2c0,0.6-0.2,1.6-0.3,2.4
					h-4.3c-0.1,0.4-0.1,0.7-0.1,1c0,1,0.4,1.7,1.7,1.7c0.7,0,1.2-0.1,1.7-0.3l0.3,0.8c-0.6,0.2-1.3,0.4-2.1,0.4
					C288.6,566.7,288,565.7,288,564.2z M289.2,562.2h3.4c0.1-0.5,0.2-1,0.2-1.3c0-0.7-0.3-1.2-1.4-1.2
					C290,559.7,289.5,560.7,289.2,562.2z M290.1,555.9h1.1l1.2,2.2h-0.9L290.1,555.9z"/>
				<path class="st41" d="M295.5,559l0.8-0.1l-0.1,0.8c0.4-0.5,1.1-0.9,2.3-0.9l-0.2,1c-1.9,0-2.2,1.3-2.5,2.8l-0.7,4h-1L295.5,559z
					"/>
				<path class="st41" d="M298.1,564.2c0-0.5,0.1-1.1,0.2-1.7c0.4-2.4,1.3-3.7,3.2-3.7c1.8,0,2.3,0.8,2.3,2c0,0.6-0.2,1.6-0.3,2.4
					h-4.3c-0.1,0.4-0.1,0.7-0.1,1c0,1,0.4,1.7,1.7,1.7c0.7,0,1.2-0.1,1.7-0.3l0.3,0.8c-0.6,0.2-1.3,0.4-2.1,0.4
					C298.7,566.7,298.1,565.7,298.1,564.2z M299.3,562.2h3.4c0.1-0.5,0.2-1,0.2-1.3c0-0.7-0.3-1.2-1.4-1.2
					C300.1,559.7,299.7,560.7,299.3,562.2z"/>
				<path class="st41" d="M303.8,566.1l0.5-0.8c0.4,0.3,1,0.6,2,0.6c0.7,0,1.4-0.3,1.4-1.4c0-0.6-0.4-0.9-1.3-1.5
					c-0.9-0.6-1.6-1.1-1.6-2c0-1.6,1.1-2.2,2.4-2.2c1,0,1.7,0.2,2.1,0.5l-0.5,0.8c-0.3-0.2-0.8-0.4-1.6-0.4c-0.8,0-1.3,0.4-1.3,1.3
					c0,0.6,0.5,0.9,1.2,1.4c1,0.6,1.5,1.1,1.5,2.1c0,1.7-1.2,2.3-2.4,2.3C305.1,566.7,304.3,566.4,303.8,566.1z"/>
			</g>
		</g>
	</g>
	<line class="st42" x1="6" y1="551.4" x2="312.1" y2="551.4"/>
	<line class="st42" x1="312.1" y1="571.9" x2="6" y2="571.9"/>
</g>
<g id="A62">
</g>
</svg>
