<?xml version="1.0" encoding="utf-8"?>
<!-- Generator: Adobe Illustrator 21.1.0, SVG Export Plug-In . SVG Version: 6.00 Build 0)  -->
<svg version="1.1" xmlns="http://www.w3.org/2000/svg" xmlns:xlink="http://www.w3.org/1999/xlink" x="0px" y="0px"
	 viewBox="0 0 320 576" style="enable-background:new 0 0 320 576;" xml:space="preserve">
<style type="text/css">
	.st0{display:none;}
	.st1{display:inline;fill:none;stroke:#E6E6E6;stroke-width:7;stroke-miterlimit:10;}
	.st2{display:inline;fill:#E6E6E6;}
	.st3{display:inline;fill:none;stroke:#FEABA6;stroke-width:9.8873;stroke-miterlimit:10;}
	.st4{display:inline;fill:none;stroke:#70C25C;stroke-width:9.8873;stroke-miterlimit:10;}
	.st5{display:inline;fill:none;stroke:#C5C6C8;stroke-width:7;stroke-miterlimit:10;}
	.st6{display:inline;fill:none;stroke:#D42E1A;stroke-width:9.8873;stroke-miterlimit:10;}
	.st7{display:inline;}
	.st8{fill:#E6E6E6;}
	.st9{font-family:'AntennaCond-Light';}
	.st10{font-size:19px;}
	.st11{font-family:'AntennaCond-Regular';}
	.st12{fill:#808080;}
	.st13{font-size:27px;}
	.st14{fill:#FFFFFF;stroke:#000000;stroke-width:0.5;stroke-miterlimit:10;}
	.st15{fill:none;stroke:#000000;stroke-miterlimit:10;}
	.st16{enable-background:new    ;}
	.st17{font-family:'AntennaCond-Medium';}
	.st18{font-size:18px;}
	.st19{fill:#D42E1A;}
	.st20{fill:#70C25C;}
	.st21{font-family:'Webdings';}
	.st22{font-size:14px;}
	.st23{font-family:'AntennaCond-LightItalic';}
	.st24{fill:#4D4D4D;}
	.st25{display:inline;fill:none;stroke:#808080;stroke-width:0.75;stroke-miterlimit:10;}
	.st26{display:inline;fill:none;stroke:#000000;stroke-width:4;stroke-miterlimit:10;}
	.st27{fill:none;stroke:#E6E6E6;stroke-width:7;stroke-miterlimit:10;}
	.st28{fill:none;stroke:#FEABA6;stroke-width:9.8873;stroke-miterlimit:10;}
	.st29{fill:none;stroke:#70C25C;stroke-width:9.8873;stroke-miterlimit:10;}
	.st30{fill:none;stroke:#C5C6C8;stroke-width:7;stroke-miterlimit:10;}
	.st31{fill:none;stroke:#D42E1A;stroke-width:9.8873;stroke-miterlimit:10;}
	.st32{fill:none;stroke:#808080;stroke-width:0.75;stroke-miterlimit:10;}
	.st33{fill:none;stroke:#000000;stroke-width:4;stroke-miterlimit:10;}
	.st34{fill:#B0B2B3;}
	.st35{fill:none;stroke:#4A170D;stroke-width:9.8873;stroke-miterlimit:10;}
	.st36{fill:none;stroke:#FFFFFF;stroke-width:3.5406;stroke-miterlimit:10;}
	.st37{fill:none;stroke:#C5C6C8;stroke-width:16.301;stroke-miterlimit:10;}
	.st38{display:inline;fill:none;stroke:#C5C6C8;stroke-width:16.301;stroke-miterlimit:10;}
	.st39{display:inline;enable-background:new    ;}
	.st40{fill:none;stroke:#C5C6C8;stroke-width:13.3148;stroke-miterlimit:10;}
	.st41{fill:none;stroke:#C6C6C6;stroke-width:7;stroke-miterlimit:10;}
	.st42{fill:none;stroke:#FFFFFF;stroke-width:3.3287;stroke-miterlimit:10;}
	.st43{display:inline;fill:none;stroke:#C5C6C8;stroke-width:13.3148;stroke-miterlimit:10;}
	.st44{display:inline;fill:none;stroke:#C6C6C6;stroke-width:7;stroke-miterlimit:10;}
	.st45{display:inline;fill:none;stroke:#FFFFFF;stroke-width:3.3287;stroke-miterlimit:10;}
	.st46{fill:none;stroke:#FFFFFF;stroke-width:2.4718;stroke-miterlimit:10;}
	.st47{fill:none;stroke:#79170D;stroke-width:9.8873;stroke-miterlimit:10;}
	.st48{font-size:20px;}
</style>
<g id="A63_Source" class="st0">
	<polyline class="st1" points="147.1,434.4 163.1,441 213,416.7 	"/>
	<ellipse transform="matrix(0.7071 -0.7071 0.7071 0.7071 2.9119 149.5171)" class="st2" cx="181.9" cy="71.2" rx="7.5" ry="7.5"/>
	<line class="st1" x1="245.7" y1="71.6" x2="200.8" y2="72.3"/>
	<path class="st3" d="M156.9,390c-7.9,10.1-13.4,24-9.9,42.2L123.8,443"/>
	<path class="st4" d="M198.5,312l-5.5,6.9l-7.7,49.5c0,0-16.8,6.6-28.4,21.6"/>
	<polyline class="st4" points="246.5,158.1 235.7,219.2 214.1,292.2 198.5,312 	"/>
	<polyline class="st5" points="301,19.6 245,73.6 250.1,137.9 246.5,158.1 	"/>
	<polyline class="st1" points="84.5,474.4 75,477.1 63.4,480.4 	"/>
	<polyline class="st5" points="90.9,469.6 85,474.3 84.5,474.4 	"/>
	<polyline class="st3" points="100.9,463.5 95.5,466 90.9,469.6 	"/>
	<polyline class="st3" points="113.7,447 109.4,452.1 103.8,456.5 103.8,462.1 100.9,463.5 	"/>
	<polyline class="st6" points="125,442.6 123.8,443.5 116.6,443.5 113.7,447 	"/>
	<line class="st6" x1="157.8" y1="388.6" x2="156.3" y2="391"/>
	<polyline class="st6" points="159.6,385.9 159.3,386.2 157.8,388.6 	"/>
	<line class="st1" x1="303.7" y1="15.6" x2="315" y2="0.9"/>
	<line class="st1" x1="303.7" y1="19.6" x2="315.7" y2="44.2"/>
	<ellipse transform="matrix(0.7071 -0.7071 0.7071 0.7071 -187.0829 271.31)" class="st2" cx="234" cy="361.5" rx="7.5" ry="7.5"/>
	
		<ellipse transform="matrix(0.7071 -0.7071 0.7071 0.7071 -261.7514 218.8157)" class="st2" cx="133.3" cy="425.4" rx="7.5" ry="7.5"/>
	<g class="st7">
		<text transform="matrix(1 0 0 1 161.9803 421.1783)" class="st8 st9 st10">A64</text>
	</g>
	<g class="st7">
		<text transform="matrix(1 0 0 1 283.687 68.0116)" class="st8 st9 st10">A62</text>
	</g>
	<g class="st7">
		<text transform="matrix(1 0 0 1 196.6491 97.503)" class="st8 st9 st10">A660</text>
	</g>
	<text transform="matrix(1 0 0 1 246.5442 368.9842)" class="st2 st11 st10">DAX</text>
	<text transform="matrix(1 0 0 1 44.8314 431.4842)" class="st2 st11 st10">BAYONNE</text>
	<text transform="matrix(1 0 0 1 96.7525 56.8482)" class="st2 st11 st10">ARCACHON</text>
	<g class="st7">
		<text transform="matrix(1 0 0 1 12.8744 542.1119)" class="st12 st11 st13">ESPAGNE</text>
	</g>
	<g class="st7">
		<g>
			
				<ellipse transform="matrix(0.7071 -0.7071 0.7071 0.7071 77.7195 218.5713)" class="st14" cx="302.7" cy="15.5" rx="9.1" ry="9.1"/>
		</g>
	</g>
	<g class="st7">
		<g>
			<polyline class="st15" points="109.8,444.4 53.2,444.4 53.2,411.1 			"/>
			<g>
				<polygon points="107.9,442.7 109.6,444.4 107.9,446.1 109.3,446.1 111,444.4 109.3,442.7 				"/>
			</g>
		</g>
	</g>
	<g class="st7">
		<g>
			<text transform="matrix(1 0 0 1 3.9512 390.8827)" class="st16"><tspan x="0" y="0" class="st12 st17 st18">La Négresse</tspan><tspan x="40.7" y="18" class="st19 st11 st18">Péage </tspan></text>
		</g>
	</g>
	<g class="st7">
		<g>
			<polyline class="st15" points="155.5,390.2 125.9,390.2 125.9,367.2 			"/>
			<g>
				<polygon points="153.6,388.5 155.3,390.2 153.6,391.9 155,391.9 156.7,390.2 155,388.5 				"/>
			</g>
		</g>
	</g>
	<g class="st7">
		<g>
			<text transform="matrix(1 0 0 1 19.3052 343.1904)" class="st16"><tspan x="0" y="0" class="st12 st17 st18">Bénesse-Maremne</tspan><tspan x="90" y="18" class="st19 st11 st18">Péage </tspan></text>
		</g>
	</g>
	<g class="st7">
		<g>
			<polyline class="st15" points="90,469 147.7,469 147.7,479.1 			"/>
			<g>
				<polygon points="91.9,467.3 90.2,469 91.9,470.7 90.5,470.7 88.8,469 90.5,467.3 				"/>
			</g>
		</g>
	</g>
	<g class="st7">
		<g>
			<text transform="matrix(1 0 0 1 128.6326 496.7809)" class="st16"><tspan x="0" y="0" class="st12 st17 st18">Biriatou</tspan><tspan x="0" y="18" class="st19 st11 st18">Péage</tspan></text>
		</g>
	</g>
	<g class="st7">
		<g>
			<line class="st15" x1="125" y1="443" x2="212.7" y2="443"/>
			<g>
				<polygon points="126.9,441.3 125.2,443 126.9,444.7 125.5,444.7 123.8,443 125.5,441.3 				"/>
			</g>
		</g>
	</g>
	<g class="st7">
		<text transform="matrix(1 0 0 1 215.6527 448.1192)" class="st16"><tspan x="0" y="0" class="st12 st17 st18">Bayonne sud</tspan><tspan x="0" y="18" class="st19 st11 st18">n°5</tspan></text>
	</g>
	<g class="st7">
		<g>
			<line class="st15" x1="161.4" y1="387.4" x2="203.5" y2="387.4"/>
			<g>
				<polygon points="163.3,385.7 161.6,387.4 163.3,389.1 161.9,389.1 160.2,387.4 161.9,385.7 				"/>
			</g>
		</g>
	</g>
	<g class="st7">
		<text transform="matrix(1 0 0 1 205.7682 393.4362)" class="st16"><tspan x="0" y="0" class="st12 st17 st18">Capbreton</tspan><tspan x="0" y="18" class="st19 st11 st18">n°8</tspan></text>
	</g>
	<g class="st7">
		<g>
			<text transform="matrix(1 0 0 1 9.4224 564.5509)" class="st16"><tspan x="0" y="0" class="st20 st21 st22"></tspan><tspan x="14" y="1" class="st12 st23 st22"> </tspan><tspan x="16.6" y="1" class="st24 st23 st22">Sections les moins chères   </tspan><tspan x="159.4" y="0" class="st19 st21 st22"></tspan><tspan x="173.4" y="1" class="st12 st23 st22"> </tspan><tspan x="176" y="1" class="st24 st23 st22">Sections les plus chères</tspan></text>
		</g>
	</g>
	<line class="st25" x1="5.5" y1="550.4" x2="311.6" y2="550.4"/>
	<line class="st25" x1="311.6" y1="570.8" x2="5.5" y2="570.8"/>
	<g class="st7">
		<text transform="matrix(1 0 0 1 161.3744 21.6119)" class="st12 st11 st13">BORDEAUX</text>
	</g>
	<g class="st7">
		<g>
			<polyline class="st15" points="177.3,313.7 144.7,313.7 144.7,306.9 			"/>
			<g>
				<polygon points="175.4,312 177.1,313.7 175.4,315.4 176.8,315.4 178.5,313.7 176.8,312 				"/>
			</g>
		</g>
	</g>
	<g class="st7">
		<text transform="matrix(1 0 0 1 112.5963 284.4806)" class="st16"><tspan x="0" y="0" class="st12 st17 st18">Castets</tspan><tspan x="24.6" y="18" class="st19 st11 st18">n°12</tspan></text>
	</g>
	<g class="st7">
		<g>
			<line class="st15" x1="229.2" y1="157.6" x2="205.1" y2="157.6"/>
			<g>
				<polygon points="227.3,155.9 229,157.6 227.3,159.3 228.7,159.3 230.4,157.6 228.7,155.9 				"/>
			</g>
		</g>
	</g>
	<g class="st7">
		<text transform="matrix(1 0 0 1 55.0395 165.5803)" class="st16"><tspan x="0" y="0" class="st12 st17 st18">Saugnacq-et-Muret</tspan><tspan x="113.9" y="18" class="st19 st11 st18">n°18</tspan></text>
	</g>
	<line class="st26" x1="264.3" y1="158.2" x2="233" y2="158.2"/>
	<line class="st26" x1="212.3" y1="313.2" x2="181" y2="313.2"/>
</g>
<g id="A63">
	<polyline class="st27" points="147.1,434.4 163.1,441 213,416.7 	"/>
	<ellipse transform="matrix(0.7071 -0.7071 0.7071 0.7071 2.9119 149.5171)" class="st8" cx="181.9" cy="71.2" rx="7.5" ry="7.5"/>
	<line class="st27" x1="245.7" y1="71.6" x2="200.8" y2="72.3"/>
	<path class="st28" d="M156.9,390c-7.9,10.1-13.4,24-9.9,42.2L123.8,443"/>
	<path class="st29" d="M198.5,312l-5.5,6.9l-7.7,49.5c0,0-16.8,6.6-28.4,21.6"/>
	<polyline class="st29" points="246.5,158.1 235.7,219.2 214.1,292.2 198.5,312 	"/>
	<polyline class="st30" points="301,19.6 245,73.6 250.1,137.9 246.5,158.1 	"/>
	<polyline class="st27" points="84.5,474.4 75,477.1 63.4,480.4 	"/>
	<polyline class="st30" points="90.9,469.6 85,474.3 84.5,474.4 	"/>
	<polyline class="st28" points="100.9,463.5 95.5,466 90.9,469.6 	"/>
	<polyline class="st28" points="113.7,447 109.4,452.1 103.8,456.5 103.8,462.1 100.9,463.5 	"/>
	<polyline class="st31" points="125,442.6 123.8,443.5 116.6,443.5 113.7,447 	"/>
	<line class="st31" x1="157.8" y1="388.6" x2="156.3" y2="391"/>
	<polyline class="st31" points="159.6,385.9 159.3,386.2 157.8,388.6 	"/>
	<line class="st27" x1="303.7" y1="15.6" x2="315" y2="0.9"/>
	<line class="st27" x1="303.7" y1="19.6" x2="315.7" y2="44.2"/>
	<ellipse transform="matrix(0.7071 -0.7071 0.7071 0.7071 -187.0829 271.31)" class="st8" cx="234" cy="361.5" rx="7.5" ry="7.5"/>
	
		<ellipse transform="matrix(0.7071 -0.7071 0.7071 0.7071 -261.7514 218.8157)" class="st8" cx="133.3" cy="425.4" rx="7.5" ry="7.5"/>
	<g>
		<g class="st16">
			<path class="st8" d="M166.7,407h1.5l4.3,14.2h-1.4l-1-3.2h-5.4l-0.9,3.2h-1.4L166.7,407z M169.7,416.7l-2.3-7.6l-2.3,7.6H169.7z"
				/>
			<path class="st8" d="M174,415.6c0-5.7,0.2-8.5,5.9-8.5h0.9v1.3h-1c-3.9,0-4.2,1.8-4.4,4.6c0.6-0.8,1.7-1.2,3.2-1.2
				c3.1,0,3.6,1.7,3.6,4.5c0,3.3-0.8,5-4,5C174.5,421.3,174,419.4,174,415.6z M180.9,416.3c0-2.2-0.5-3.3-2.6-3.3
				c-1.7,0-2.9,0.9-2.9,3.2c0,2.7,0.5,3.9,2.9,3.9C180.4,420.1,180.9,418.8,180.9,416.3z"/>
			<path class="st8" d="M183.9,416.7l4.9-9.6h1.5l-4.9,9.5h4.1l0.3-4.4h1v4.4h1.9v1.2h-1.9v3.3h-1.3v-3.3h-5.5V416.7z"/>
		</g>
	</g>
	<g>
		<g class="st16">
			<path class="st8" d="M288.4,53.8h1.5l4.3,14.2h-1.4l-1-3.2h-5.4l-0.9,3.2h-1.4L288.4,53.8z M291.4,63.5l-2.3-7.6l-2.3,7.6H291.4z
				"/>
			<path class="st8" d="M295.7,62.4c0-5.7,0.2-8.5,5.9-8.5h0.9v1.3h-1c-3.9,0-4.2,1.8-4.4,4.6c0.6-0.8,1.7-1.2,3.2-1.2
				c3.1,0,3.6,1.7,3.6,4.5c0,3.3-0.8,5-4,5C296.2,68.2,295.7,66.2,295.7,62.4z M302.6,63.1c0-2.2-0.5-3.3-2.6-3.3
				c-1.7,0-2.9,0.9-2.9,3.2c0,2.7,0.5,3.9,2.9,3.9C302.2,66.9,302.6,65.6,302.6,63.1z"/>
			<path class="st8" d="M305.5,66.9l2.9-3.9c2.6-3.4,2.9-4.2,2.9-5.7c0-1.5-0.5-2.2-2.2-2.2c-1.2,0-2.1,0.2-2.9,0.6l-0.6-1.2
				c0.9-0.5,2-0.8,3.6-0.8c2.5,0,3.4,1.1,3.4,3.4c0,2-0.6,3.1-3.3,6.6l-2.3,3h5.7V68h-7.4V66.9z"/>
		</g>
	</g>
	<g>
		<g class="st16">
			<path class="st8" d="M201.4,83.3h1.5l4.3,14.2h-1.4l-1-3.2h-5.4l-0.9,3.2h-1.4L201.4,83.3z M204.4,93l-2.3-7.6l-2.3,7.6H204.4z"
				/>
			<path class="st8" d="M208.7,91.9c0-5.7,0.2-8.5,5.9-8.5h0.9v1.3h-1c-3.9,0-4.2,1.8-4.4,4.6c0.6-0.8,1.7-1.2,3.2-1.2
				c3.1,0,3.6,1.7,3.6,4.5c0,3.3-0.8,5-4,5C209.2,97.7,208.7,95.7,208.7,91.9z M215.6,92.6c0-2.2-0.5-3.3-2.6-3.3
				c-1.7,0-2.9,0.9-2.9,3.2c0,2.7,0.5,3.9,2.9,3.9C215.1,96.4,215.6,95.1,215.6,92.6z"/>
			<path class="st8" d="M218.9,91.9c0-5.7,0.2-8.5,5.9-8.5h0.9v1.3h-1c-3.9,0-4.2,1.8-4.4,4.6c0.6-0.8,1.7-1.2,3.2-1.2
				c3.1,0,3.6,1.7,3.6,4.5c0,3.3-0.8,5-4,5C219.4,97.7,218.9,95.7,218.9,91.9z M225.8,92.6c0-2.2-0.5-3.3-2.6-3.3
				c-1.7,0-2.9,0.9-2.9,3.2c0,2.7,0.5,3.9,2.9,3.9C225.3,96.4,225.8,95.1,225.8,92.6z"/>
			<path class="st8" d="M229.2,90.5c0-5,0.7-7.2,4.3-7.2c3.5,0,4.3,2.3,4.3,7.2c0,5-0.7,7.2-4.3,7.2
				C229.9,97.7,229.2,95.5,229.2,90.5z M236.4,90.5c0-4.3-0.6-5.8-2.9-5.8c-2.3,0-2.9,1.6-2.9,5.8c0,4.3,0.5,5.9,2.9,5.9
				C235.8,96.4,236.4,94.7,236.4,90.5z"/>
		</g>
	</g>
	<g class="st16">
		<path class="st8" d="M247.8,354.9h4c4.4,0,5.5,2.3,5.5,7c0,4.8-1.1,7-5.6,7h-3.9V354.9z M251.8,367.4c3,0,3.6-1.7,3.6-5.4
			c0-3.6-0.6-5.4-3.6-5.4h-2.2v10.8H251.8z"/>
		<path class="st8" d="M262.2,354.8h1.9l4.3,14.2h-1.9l-0.9-2.9h-5.2l-0.8,2.9h-1.8L262.2,354.8z M265.2,364.4l-2.1-7l-2.1,7H265.2z
			"/>
		<path class="st8" d="M274.3,363.3l-3,5.7h-2l4-7.4l-3.7-6.7h2l2.8,5.1l2.6-5.1h2l-3.7,6.7l4,7.4h-2L274.3,363.3z"/>
	</g>
	<g class="st16">
		<path class="st8" d="M46.1,417.4h4.5c2.8,0,4.1,1,4.1,3.6c0,1.8-0.7,2.8-1.7,3.1c1.3,0.4,2,1.4,2,3.5c0,2.9-1.7,3.9-4.3,3.9h-4.6
			V417.4z M50.5,423.4c1.5,0,2.3-0.5,2.3-2.2c0-1.7-0.8-2.2-2.3-2.2h-2.6v4.4H50.5z M50.6,429.9c1.5,0,2.5-0.5,2.5-2.4
			c0-1.9-1-2.4-2.5-2.4h-2.8v4.8H50.6z"/>
		<path class="st8" d="M60.1,417.3h1.9l4.3,14.2h-1.9l-0.9-2.9h-5.2l-0.8,2.9h-1.8L60.1,417.3z M63.2,426.9l-2.1-7l-2.1,7H63.2z"/>
		<path class="st8" d="M69.8,426.4l-4.4-9h2l3.3,7l3.4-7H76l-4.4,9v5.1h-1.8V426.4z"/>
		<path class="st8" d="M76.3,424.5c0-3.9,0.6-7.2,5.4-7.2c4.7,0,5.3,3.3,5.3,7.2s-0.6,7.2-5.3,7.2C76.9,431.6,76.3,428.3,76.3,424.5
			z M85.1,424.5c0-3.2-0.3-5.5-3.5-5.5c-3.2,0-3.5,2.3-3.5,5.5c0,3.2,0.3,5.5,3.5,5.5C84.8,430,85.1,427.7,85.1,424.5z"/>
		<path class="st8" d="M88.9,417.4h2l5.7,10.4v-10.4h1.8v14.1h-1.7l-6-10.9v10.9h-1.7V417.4z"/>
		<path class="st8" d="M100.8,417.4h2l5.7,10.4v-10.4h1.8v14.1h-1.7l-6-10.9v10.9h-1.7V417.4z"/>
		<path class="st8" d="M112.7,417.4h7.7v1.7h-5.9v4.3h5.6v1.7h-5.6v4.8h6v1.7h-7.8V417.4z"/>
	</g>
	<g class="st16">
		<path class="st8" d="M101.5,42.7h1.9l4.3,14.2h-1.9l-0.9-2.9h-5.2L99,56.8h-1.8L101.5,42.7z M104.5,52.3l-2.1-7l-2.1,7H104.5z"/>
		<path class="st8" d="M113.7,51.4h-2.6v5.4h-1.8V42.8h4.7c2.9,0,4.2,1.4,4.2,4.2c0,2.3-0.8,3.8-2.7,4.3l2.5,5.6h-1.9L113.7,51.4z
			 M114,49.8c1.7,0,2.4-0.7,2.4-2.7c0-1.9-0.7-2.6-2.4-2.6h-2.9v5.3H114z"/>
		<path class="st8" d="M119.6,49.8c0-4.3,0.9-7.2,5.3-7.2c1.5,0,2.6,0.4,3.4,0.9l-1,1.5c-0.5-0.3-1.3-0.6-2.5-0.6
			c-2.6,0-3.3,1.7-3.3,5.5c0,3.7,0.7,5.5,3.4,5.5c1.2,0,1.9-0.3,2.7-0.8l0.9,1.4c-1,0.6-2,1-3.7,1C120.6,57,119.6,54.2,119.6,49.8z"
			/>
		<path class="st8" d="M133.5,42.7h1.9l4.3,14.2h-1.9l-0.9-2.9h-5.2l-0.8,2.9h-1.8L133.5,42.7z M136.6,52.3l-2.1-7l-2.1,7H136.6z"/>
		<path class="st8" d="M140.3,49.8c0-4.3,0.9-7.2,5.3-7.2c1.5,0,2.6,0.4,3.4,0.9l-1,1.5c-0.5-0.3-1.3-0.6-2.5-0.6
			c-2.6,0-3.3,1.7-3.3,5.5c0,3.7,0.7,5.5,3.4,5.5c1.2,0,1.9-0.3,2.7-0.8l0.9,1.4c-1,0.6-2,1-3.7,1C141.3,57,140.3,54.2,140.3,49.8z"
			/>
		<path class="st8" d="M150.8,42.8h1.8v5.9h5.8v-5.9h1.8v14.1h-1.8v-6.4h-5.8v6.4h-1.8V42.8z"/>
		<path class="st8" d="M162.2,49.8c0-3.9,0.6-7.2,5.4-7.2c4.7,0,5.3,3.3,5.3,7.2s-0.6,7.2-5.3,7.2C162.8,57,162.2,53.7,162.2,49.8z
			 M171,49.9c0-3.2-0.3-5.5-3.5-5.5c-3.2,0-3.5,2.3-3.5,5.5c0,3.2,0.3,5.5,3.5,5.5C170.7,55.3,171,53,171,49.9z"/>
		<path class="st8" d="M174.7,42.8h2l5.7,10.4V42.8h1.8v14.1h-1.7l-6-10.9v10.9h-1.7V42.8z"/>
	</g>
	<g>
		<g>
			<path class="st12" d="M14.6,522.1h11v2.4h-8.4v6.1h8v2.4h-8v6.8h8.5v2.3H14.6V522.1z"/>
			<path class="st12" d="M27.3,540.7l1.3-2c1,0.6,2.7,1.4,5.2,1.4c2.6,0,3.8-1.1,3.8-3c0-2.3-1.2-2.9-4.4-4.2
				c-3.3-1.4-5.1-2.6-5.1-5.7c0-3.2,2.1-5.2,6-5.2c2.3,0,3.9,0.4,5.3,1.1l-1.1,2.2c-1-0.5-2.3-0.9-4.2-0.9c-2.4,0-3.5,1.1-3.5,2.7
				c0,1.9,0.8,2.4,3.7,3.6c4.1,1.7,5.8,2.7,5.8,6.3c0,3.3-2.1,5.3-6.3,5.3C30.7,542.3,28.6,541.6,27.3,540.7z"/>
			<path class="st12" d="M42.8,522.1h6.8c4.2,0,5.9,2,5.9,6.1c0,4-1.8,6.3-6,6.3h-4.2v7.6h-2.6V522.1z M49.5,532.2
				c2.4,0,3.5-1,3.5-3.9s-1.1-3.8-3.5-3.8h-4.1v7.7H49.5z"/>
			<path class="st12" d="M61,522h2.8l6.2,20.1h-2.6L66,538h-7.4l-1.2,4.2h-2.6L61,522z M65.3,535.6l-3-9.9l-3,9.9H65.3z"/>
			<path class="st12" d="M70.6,532.1c0-7.4,2-10.2,7.6-10.2c2.4,0,4,0.6,5.2,1.4l-1.3,2.2c-0.9-0.5-2.1-1-4-1
				c-3.3,0-4.9,1.6-4.9,7.8c0,5.8,1.1,7.9,4.8,7.9c3.2,0,3.9-1.3,3.9-6.3v-0.7h-4.7v-2.3h7.2v2.6c0,6.8-1.3,8.9-6.6,8.9
				C72.2,542.3,70.6,538.9,70.6,532.1z"/>
			<path class="st12" d="M87.1,522.1h2.8l8.1,14.8v-14.8h2.5v20h-2.4l-8.5-15.5v15.5h-2.5V522.1z"/>
			<path class="st12" d="M104,522.1h11v2.4h-8.4v6.1h8v2.4h-8v6.8h8.5v2.3H104V522.1z"/>
		</g>
	</g>
	<g>
		<g>
			
				<ellipse transform="matrix(0.7071 -0.7071 0.7071 0.7071 77.7195 218.5713)" class="st14" cx="302.7" cy="15.5" rx="9.1" ry="9.1"/>
		</g>
	</g>
	<g>
		<g>
			<polyline class="st15" points="109.8,444.4 53.2,444.4 53.2,411.1 			"/>
			<g>
				<polygon points="107.9,442.7 109.6,444.4 107.9,446.1 109.3,446.1 111,444.4 109.3,442.7 				"/>
			</g>
		</g>
	</g>
	<g>
		<g>
			<g class="st16">
				<path class="st12" d="M5.6,377.5h2.1V389H13v1.9H5.6V377.5z"/>
				<path class="st12" d="M13.7,387.9c0-2.9,1.7-3.7,5.2-3.7h0.4c0-1.2-0.3-1.7-1.6-1.7c-1.1,0-1.9,0.3-2.5,0.5l-0.8-1.6
					c0.8-0.4,2-0.7,3.5-0.7c2.7,0,3.4,1,3.4,3.5v4.1c0,0.7,0.1,0.9,0.8,0.9v1.8c-0.2,0-0.4,0-0.6,0c-1.1,0-1.6-0.2-1.8-0.9
					c-0.6,0.7-1.5,1-2.8,1C14.3,391,13.7,389.8,13.7,387.9z M19.2,387v-1.2h-0.4c-2.3,0-3.3,0.3-3.3,1.9c0,1.3,0.5,1.7,1.5,1.7
					C18.3,389.3,19.2,388.8,19.2,387z"/>
				<path class="st12" d="M26.8,377.5H29l5.1,9.2v-9.2h2v13.3h-1.9l-5.4-9.7v9.7h-2V377.5z"/>
				<path class="st12" d="M37.8,385.8c0-3.2,0.8-5.2,4.1-5.2c3.6,0,3.6,2.3,3.6,6.2h-5.7c0.1,1.7,0.5,2.5,2.2,2.5
					c1.3,0,2-0.3,2.6-0.6l0.8,1.5c-0.8,0.5-1.9,0.8-3.5,0.8C38.5,391,37.8,389,37.8,385.8z M39.8,385h3.9c0-1.6-0.1-2.6-1.8-2.6
					C40.2,382.4,39.8,383.4,39.8,385z M42.3,376.8h2.3l-2.5,3h-1.7L42.3,376.8z"/>
				<path class="st12" d="M49.3,387.2c-0.1,0.1-0.1,0.3-0.1,0.5c0,0.5,0.3,0.6,1.5,0.6c3.2,0,4.1,0.6,4.1,2.6c0,2.2-1.3,3-4.2,3
					c-3,0-4.2-0.5-4.2-2.4c0-1.2,0.5-2,1.7-2.3c-0.4-0.3-0.6-0.8-0.6-1.3c0-0.4,0.1-0.8,0.4-1.2c-0.7-0.5-1.1-1.4-1.1-2.6
					c0-2.4,1.4-3.4,3.7-3.4c0.2,0,0.5,0,0.7,0l3.4-0.6v1.6h-1.4c0.6,0.4,1,1.2,1,2.4c0,2.5-1.5,3.3-3.7,3.3
					C50.1,387.3,49.7,387.3,49.3,387.2z M52.7,391c0-0.8-0.4-1.1-2.2-1.1c-1.7,0-2.2,0.4-2.2,1.3c0,1,0.5,1.2,2.2,1.2
					C52.3,392.4,52.7,392,52.7,391z M52.2,384c0-1.2-0.5-1.7-1.7-1.7c-1.2,0-1.7,0.5-1.7,1.7s0.6,1.7,1.7,1.7
					C51.7,385.7,52.2,385.2,52.2,384z"/>
				<path class="st12" d="M56.3,380.9l1.6-0.1l0.2,1.1c0.4-0.6,1.2-1.1,2.8-1.1v1.9c-2.4,0-2.6,1.5-2.6,3.2v5h-2V380.9z"/>
				<path class="st12" d="M61.3,385.8c0-3.2,0.8-5.2,4.1-5.2c3.6,0,3.6,2.3,3.6,6.2h-5.7c0.1,1.7,0.5,2.5,2.2,2.5
					c1.3,0,2-0.3,2.6-0.6l0.8,1.5c-0.8,0.5-1.9,0.8-3.5,0.8C62,391,61.3,389,61.3,385.8z M63.3,385h3.9c0-1.6-0.1-2.6-1.8-2.6
					C63.7,382.4,63.4,383.4,63.3,385z"/>
				<path class="st12" d="M69.8,390.3l0.8-1.6c0.7,0.3,1.7,0.6,2.8,0.6c1,0,1.5-0.3,1.5-1.2c0-0.8-0.5-1.1-2-1.7
					c-1.7-0.7-2.7-1.3-2.7-3c0-2,1.3-2.9,3.4-2.9c1.3,0,2.1,0.2,2.9,0.5l-0.8,1.7c-0.6-0.2-1.3-0.4-2.1-0.4c-1,0-1.4,0.4-1.4,1
					c0,0.7,0.5,1,1.9,1.5c1.8,0.7,2.8,1.3,2.8,3.2c0,1.9-1.2,2.8-3.4,2.8C72,391,70.7,390.8,69.8,390.3z"/>
				<path class="st12" d="M77.4,390.3l0.8-1.6c0.7,0.3,1.7,0.6,2.8,0.6c1,0,1.5-0.3,1.5-1.2c0-0.8-0.5-1.1-2-1.7
					c-1.7-0.7-2.7-1.3-2.7-3c0-2,1.3-2.9,3.4-2.9c1.3,0,2.1,0.2,2.9,0.5l-0.8,1.7c-0.6-0.2-1.3-0.4-2.1-0.4c-1,0-1.4,0.4-1.4,1
					c0,0.7,0.5,1,1.9,1.5c1.8,0.7,2.8,1.3,2.8,3.2c0,1.9-1.2,2.8-3.4,2.8C79.6,391,78.3,390.8,77.4,390.3z"/>
				<path class="st12" d="M85.2,385.8c0-3.2,0.8-5.2,4.1-5.2c3.6,0,3.6,2.3,3.6,6.2h-5.7c0.1,1.7,0.5,2.5,2.2,2.5
					c1.3,0,2-0.3,2.6-0.6l0.8,1.5c-0.8,0.5-1.9,0.8-3.5,0.8C85.9,391,85.2,389,85.2,385.8z M87.2,385H91c0-1.6-0.1-2.6-1.8-2.6
					C87.6,382.4,87.2,383.4,87.2,385z"/>
				<path class="st19" d="M46.7,395.5h4.5c2.8,0,4,1.3,4,4.1c0,2.7-1.2,4.2-4,4.2h-2.8v5.1h-1.7V395.5z M51.1,402.3
					c1.6,0,2.3-0.7,2.3-2.6s-0.7-2.6-2.3-2.6h-2.7v5.1H51.1z"/>
				<path class="st19" d="M56,403.9c0-3.1,0.7-5.1,3.9-5.1c3.4,0,3.5,2.2,3.4,5.9h-5.8c0.1,1.9,0.5,2.9,2.4,2.9
					c1.3,0,1.9-0.3,2.5-0.6l0.6,1.3c-0.8,0.4-1.7,0.7-3.3,0.7C56.6,409,56,407,56,403.9z M57.7,403.1h4.2c0-1.8-0.1-2.9-1.9-2.9
					C58.1,400.2,57.7,401.3,57.7,403.1z M60.5,394.9h1.9l-2.4,2.9h-1.5L60.5,394.9z"/>
				<path class="st19" d="M64.5,405.9c0-2.9,1.7-3.7,5.1-3.7H70c0-1.3-0.3-2-1.8-2c-1,0-1.9,0.3-2.5,0.5l-0.7-1.4
					c0.8-0.4,1.9-0.7,3.3-0.7c2.7,0,3.3,1.1,3.3,3.5v4.2c0,0.8,0.1,1,0.8,1v1.5c-0.1,0-0.3,0-0.5,0c-1.1,0-1.5-0.2-1.7-1
					c-0.6,0.8-1.5,1-2.8,1C65.2,409,64.5,407.8,64.5,405.9z M70,405v-1.4h-0.4c-2.5,0-3.5,0.3-3.5,2.1c0,1.4,0.6,1.9,1.7,1.9
					C69,407.6,70,407.1,70,405z"/>
				<path class="st19" d="M76,405.2c-0.1,0.2-0.1,0.4-0.1,0.5c0,0.5,0.3,0.7,1.5,0.7c3,0,3.9,0.7,3.9,2.5c0,2.1-1.3,3-4,3
					c-2.8,0-4-0.6-4-2.4c0-1.2,0.5-2.1,1.7-2.4c-0.4-0.3-0.6-0.7-0.6-1.2c0-0.4,0.1-0.8,0.4-1.2c-0.7-0.5-1.1-1.3-1.1-2.6
					c0-2.4,1.3-3.3,3.5-3.3c0.3,0,0.5,0,0.8,0l3.2-0.5v1.4h-1.4c0.6,0.4,1,1.2,1,2.4c0,2.4-1.4,3.3-3.5,3.3
					C76.8,405.3,76.4,405.3,76,405.2z M79.6,409c0-0.9-0.4-1.3-2.3-1.3c-1.8,0-2.3,0.5-2.3,1.5c0,1.1,0.5,1.4,2.3,1.4
					C79.2,410.6,79.6,410.1,79.6,409z M79.1,402.1c0-1.3-0.6-1.9-1.9-1.9c-1.2,0-1.9,0.6-1.9,1.9s0.6,1.9,1.9,1.9
					C78.5,403.9,79.1,403.4,79.1,402.1z"/>
				<path class="st19" d="M82.2,403.9c0-3.1,0.7-5.1,3.9-5.1c3.4,0,3.5,2.2,3.4,5.9h-5.8c0.1,1.9,0.5,2.9,2.4,2.9
					c1.3,0,1.9-0.3,2.5-0.6l0.6,1.3c-0.8,0.4-1.7,0.7-3.3,0.7C82.8,409,82.2,407,82.2,403.9z M83.9,403.1H88c0-1.8-0.1-2.9-1.9-2.9
					C84.4,400.2,83.9,401.3,83.9,403.1z"/>
			</g>
		</g>
	</g>
	<g>
		<g>
			<polyline class="st15" points="155.5,390.2 125.9,390.2 125.9,367.2 			"/>
			<g>
				<polygon points="153.6,388.5 155.3,390.2 153.6,391.9 155,391.9 156.7,390.2 155,388.5 				"/>
			</g>
		</g>
	</g>
	<g>
		<g>
			<g class="st16">
				<path class="st12" d="M20.7,329.8h4.4c2.8,0,4,1.1,4,3.4c0,1.7-0.6,2.6-1.7,3c1.3,0.4,1.9,1.4,1.9,3.3c0,2.7-1.6,3.7-4.2,3.7
					h-4.6V329.8z M25.1,335.4c1.3,0,2-0.5,2-1.9s-0.7-1.9-2-1.9h-2.3v3.8H25.1z M25.3,341.4c1.3,0,2.1-0.5,2.1-2.1
					c0-1.6-0.8-2.1-2.1-2.1h-2.5v4.1H25.3z"/>
				<path class="st12" d="M30.7,338.1c0-3.2,0.8-5.2,4.1-5.2c3.6,0,3.6,2.3,3.6,6.2h-5.7c0.1,1.7,0.5,2.5,2.2,2.5
					c1.3,0,2-0.3,2.6-0.6l0.8,1.5c-0.8,0.5-1.9,0.8-3.5,0.8C31.4,343.3,30.7,341.3,30.7,338.1z M32.7,337.3h3.9
					c0-1.6-0.1-2.6-1.8-2.6C33.1,334.7,32.7,335.7,32.7,337.3z M35.2,329.1h2.3l-2.5,3h-1.7L35.2,329.1z"/>
				<path class="st12" d="M39.9,333.3l1.6-0.1l0.2,0.9c0.5-0.6,1.2-1.1,3-1.1c2.5,0,2.9,1.5,2.9,3.7v6.6h-2v-6.1
					c0-1.5-0.2-2.2-1.6-2.2c-1.8,0-2.1,1-2.1,3v5.4h-2V333.3z"/>
				<path class="st12" d="M49.1,338.1c0-3.2,0.8-5.2,4.1-5.2c3.6,0,3.6,2.3,3.6,6.2h-5.7c0.1,1.7,0.5,2.5,2.2,2.5
					c1.3,0,2-0.3,2.6-0.6l0.8,1.5c-0.8,0.5-1.9,0.8-3.5,0.8C49.8,343.3,49.1,341.3,49.1,338.1z M51.1,337.3h3.9
					c0-1.6-0.1-2.6-1.8-2.6C51.5,334.7,51.1,335.7,51.1,337.3z"/>
				<path class="st12" d="M57.6,342.6l0.8-1.6c0.7,0.3,1.7,0.6,2.8,0.6c1,0,1.5-0.3,1.5-1.2c0-0.8-0.5-1.1-2-1.7
					c-1.7-0.7-2.7-1.3-2.7-3c0-2,1.3-2.9,3.4-2.9c1.3,0,2.1,0.2,2.9,0.5l-0.8,1.7c-0.6-0.2-1.3-0.4-2.1-0.4c-1,0-1.4,0.4-1.4,1
					c0,0.7,0.5,1,1.9,1.5c1.8,0.7,2.8,1.3,2.8,3.2c0,1.9-1.2,2.8-3.4,2.8C59.8,343.3,58.5,343.1,57.6,342.6z"/>
				<path class="st12" d="M65.2,342.6L66,341c0.7,0.3,1.7,0.6,2.8,0.6c1,0,1.5-0.3,1.5-1.2c0-0.8-0.5-1.1-2-1.7
					c-1.7-0.7-2.7-1.3-2.7-3c0-2,1.3-2.9,3.4-2.9c1.3,0,2.1,0.2,2.9,0.5l-0.8,1.7c-0.6-0.2-1.3-0.4-2.1-0.4c-1,0-1.4,0.4-1.4,1
					c0,0.7,0.5,1,1.9,1.5c1.8,0.7,2.8,1.3,2.8,3.2c0,1.9-1.2,2.8-3.4,2.8C67.4,343.3,66.1,343.1,65.2,342.6z"/>
				<path class="st12" d="M73,338.1c0-3.2,0.8-5.2,4.1-5.2c3.6,0,3.6,2.3,3.6,6.2H75c0.1,1.7,0.5,2.5,2.2,2.5c1.3,0,2-0.3,2.6-0.6
					l0.8,1.5c-0.8,0.5-1.9,0.8-3.5,0.8C73.7,343.3,73,341.3,73,338.1z M75,337.3h3.9c0-1.6-0.1-2.6-1.8-2.6
					C75.4,334.7,75,335.7,75,337.3z"/>
				<path class="st12" d="M81.9,336.5h5v1.9h-5V336.5z"/>
				<path class="st12" d="M88.7,329.8h2.6l3.1,9.8l3.1-9.8h2.6v13.3h-2.1v-9.5l-3,9.5h-1.5l-3-9.5v9.5h-1.9V329.8z"/>
				<path class="st12" d="M101.8,340.2c0-2.9,1.7-3.7,5.2-3.7h0.4c0-1.2-0.3-1.7-1.6-1.7c-1.1,0-1.9,0.3-2.5,0.5l-0.8-1.6
					c0.8-0.4,2-0.7,3.5-0.7c2.7,0,3.4,1,3.4,3.5v4.1c0,0.7,0.1,0.9,0.8,0.9v1.8c-0.2,0-0.4,0-0.6,0c-1.1,0-1.6-0.2-1.8-0.9
					c-0.6,0.7-1.5,1-2.8,1C102.5,343.3,101.8,342.1,101.8,340.2z M107.4,339.3v-1.2H107c-2.3,0-3.3,0.3-3.3,1.9
					c0,1.3,0.5,1.7,1.5,1.7C106.5,341.6,107.4,341.2,107.4,339.3z"/>
				<path class="st12" d="M111.6,333.3l1.6-0.1l0.2,1.1c0.4-0.6,1.2-1.1,2.8-1.1v1.9c-2.4,0-2.6,1.5-2.6,3.2v5h-2V333.3z"/>
				<path class="st12" d="M116.7,338.1c0-3.2,0.8-5.2,4.1-5.2c3.6,0,3.6,2.3,3.6,6.2h-5.7c0.1,1.7,0.5,2.5,2.2,2.5
					c1.3,0,2-0.3,2.6-0.6l0.8,1.5c-0.8,0.5-1.9,0.8-3.5,0.8C117.4,343.3,116.7,341.3,116.7,338.1z M118.7,337.3h3.9
					c0-1.6-0.1-2.6-1.8-2.6C119.1,334.7,118.7,335.7,118.7,337.3z"/>
				<path class="st12" d="M125.9,333.3l1.6-0.1l0.2,0.9c0.4-0.6,1.2-1.1,3-1.1c1.7,0,2.2,0.5,2.4,1.1c0.5-0.7,1.3-1.1,3.1-1.1
					c2.6,0,2.8,1.5,2.8,3.7v6.6h-2v-6.1c0-1.5-0.1-2.2-1.5-2.2c-1.7,0-2,0.9-2,3v5.4h-2v-6.1c0-1.5-0.1-2.2-1.5-2.2
					c-1.7,0-2,0.9-2,3v5.4h-2V333.3z"/>
				<path class="st12" d="M140.7,333.3l1.6-0.1l0.2,0.9c0.5-0.6,1.2-1.1,3-1.1c2.5,0,2.9,1.5,2.9,3.7v6.6h-2v-6.1
					c0-1.5-0.2-2.2-1.6-2.2c-1.8,0-2.1,1-2.1,3v5.4h-2V333.3z"/>
				<path class="st12" d="M149.9,338.1c0-3.2,0.8-5.2,4.1-5.2c3.6,0,3.6,2.3,3.6,6.2h-5.7c0.1,1.7,0.5,2.5,2.2,2.5
					c1.3,0,2-0.3,2.6-0.6l0.8,1.5c-0.8,0.5-1.9,0.8-3.5,0.8C150.6,343.3,149.9,341.3,149.9,338.1z M151.9,337.3h3.9
					c0-1.6-0.1-2.6-1.8-2.6C152.3,334.7,151.9,335.7,151.9,337.3z"/>
				<path class="st19" d="M111.4,347.8h4.5c2.8,0,4,1.3,4,4.1c0,2.7-1.2,4.2-4,4.2h-2.8v5.1h-1.7V347.8z M115.9,354.6
					c1.6,0,2.3-0.7,2.3-2.6s-0.7-2.6-2.3-2.6h-2.7v5.1H115.9z"/>
				<path class="st19" d="M120.8,356.2c0-3.1,0.7-5.1,3.9-5.1c3.4,0,3.5,2.2,3.4,5.9h-5.8c0.1,1.9,0.5,2.9,2.4,2.9
					c1.3,0,1.9-0.3,2.5-0.6l0.6,1.3c-0.8,0.4-1.7,0.7-3.3,0.7C121.3,361.3,120.8,359.3,120.8,356.2z M122.4,355.4h4.2
					c0-1.8-0.1-2.9-1.9-2.9C122.9,352.5,122.4,353.6,122.4,355.4z M125.2,347.2h1.9l-2.4,2.9h-1.5L125.2,347.2z"/>
				<path class="st19" d="M129.2,358.2c0-2.9,1.7-3.7,5.1-3.7h0.4c0-1.3-0.3-2-1.8-2c-1,0-1.9,0.3-2.5,0.5l-0.7-1.4
					c0.8-0.4,1.9-0.7,3.3-0.7c2.7,0,3.3,1.1,3.3,3.5v4.2c0,0.8,0.1,1,0.8,1v1.5c-0.1,0-0.3,0-0.5,0c-1.1,0-1.5-0.2-1.7-1
					c-0.6,0.8-1.5,1-2.8,1C129.9,361.3,129.2,360.1,129.2,358.2z M134.7,357.3v-1.4h-0.4c-2.5,0-3.5,0.3-3.5,2.1
					c0,1.4,0.6,1.9,1.7,1.9C133.7,359.9,134.7,359.4,134.7,357.3z"/>
				<path class="st19" d="M140.7,357.5c-0.1,0.2-0.1,0.4-0.1,0.5c0,0.5,0.3,0.7,1.5,0.7c3,0,3.9,0.7,3.9,2.5c0,2.1-1.3,3-4,3
					c-2.8,0-4-0.6-4-2.4c0-1.2,0.5-2.1,1.7-2.4c-0.4-0.3-0.6-0.7-0.6-1.2c0-0.4,0.1-0.8,0.4-1.2c-0.7-0.5-1.1-1.3-1.1-2.6
					c0-2.4,1.3-3.3,3.5-3.3c0.3,0,0.5,0,0.8,0l3.2-0.5v1.4h-1.4c0.6,0.4,1,1.2,1,2.4c0,2.4-1.4,3.3-3.5,3.3
					C141.5,357.6,141.1,357.6,140.7,357.5z M144.3,361.3c0-0.9-0.4-1.3-2.3-1.3c-1.8,0-2.3,0.5-2.3,1.5c0,1.1,0.5,1.4,2.3,1.4
					C143.9,362.9,144.3,362.4,144.3,361.3z M143.8,354.4c0-1.3-0.6-1.9-1.9-1.9c-1.2,0-1.9,0.6-1.9,1.9s0.6,1.9,1.9,1.9
					C143.2,356.2,143.8,355.7,143.8,354.4z"/>
				<path class="st19" d="M147,356.2c0-3.1,0.7-5.1,3.9-5.1c3.4,0,3.5,2.2,3.4,5.9h-5.8c0.1,1.9,0.5,2.9,2.4,2.9
					c1.3,0,1.9-0.3,2.5-0.6l0.6,1.3c-0.8,0.4-1.7,0.7-3.3,0.7C147.6,361.3,147,359.3,147,356.2z M148.6,355.4h4.2
					c0-1.8-0.1-2.9-1.9-2.9C149.1,352.5,148.7,353.6,148.6,355.4z"/>
			</g>
		</g>
	</g>
	<g>
		<g>
			<polyline class="st15" points="90,469 147.7,469 147.7,479.1 			"/>
			<g>
				<polygon points="91.9,467.3 90.2,469 91.9,470.7 90.5,470.7 88.8,469 90.5,467.3 				"/>
			</g>
		</g>
	</g>
	<g>
		<g>
			<g class="st16">
				<path class="st12" d="M129.8,483.4h4.4c2.8,0,4,1.1,4,3.4c0,1.7-0.6,2.6-1.7,3c1.3,0.4,1.9,1.4,1.9,3.3c0,2.7-1.6,3.7-4.2,3.7
					h-4.6V483.4z M134.1,489c1.3,0,2-0.5,2-1.9s-0.7-1.9-2-1.9h-2.3v3.8H134.1z M134.3,495c1.3,0,2.1-0.5,2.1-2.1
					c0-1.6-0.8-2.1-2.1-2.1h-2.5v4.1H134.3z"/>
				<path class="st12" d="M140.2,483.4h2v2.2h-2V483.4z M140.2,486.7h2v10.1h-2V486.7z"/>
				<path class="st12" d="M144.2,486.8l1.6-0.1l0.2,1.1c0.4-0.6,1.2-1.1,2.8-1.1v1.9c-2.4,0-2.6,1.5-2.6,3.2v5h-2V486.8z"/>
				<path class="st12" d="M150,483.4h2v2.2h-2V483.4z M150,486.7h2v10.1h-2V486.7z"/>
				<path class="st12" d="M153.6,493.8c0-2.9,1.7-3.7,5.2-3.7h0.4c0-1.2-0.3-1.7-1.6-1.7c-1.1,0-1.9,0.3-2.5,0.5l-0.8-1.6
					c0.8-0.4,2-0.7,3.5-0.7c2.7,0,3.4,1,3.4,3.5v4.1c0,0.7,0.1,0.9,0.8,0.9v1.8c-0.2,0-0.4,0-0.6,0c-1.1,0-1.6-0.2-1.8-0.9
					c-0.6,0.7-1.5,1-2.8,1C154.2,496.9,153.6,495.7,153.6,493.8z M159.1,492.9v-1.2h-0.4c-2.3,0-3.3,0.3-3.3,1.9
					c0,1.3,0.5,1.7,1.5,1.7C158.2,495.2,159.1,494.7,159.1,492.9z"/>
				<path class="st12" d="M162.7,486.7h1.6l0.3-2.5l1.6-0.3v2.9h2.3v1.8h-2.3v5.3c0,0.8,0.1,1.3,1.2,1.3h1.1v1.8
					c-0.3,0-1.1,0.1-1.4,0.1c-2.4,0-3-0.8-3-2.9v-5.5h-1.6V486.7z"/>
				<path class="st12" d="M169.5,491.7c0-3,0.7-5.2,4.2-5.2c3.5,0,4.2,2.2,4.2,5.2c0,3.1-0.7,5.2-4.2,5.2
					C170.2,496.9,169.5,494.8,169.5,491.7z M175.8,491.8c0-2-0.2-3.4-2.1-3.4c-1.9,0-2.1,1.4-2.1,3.4c0,2,0.2,3.4,2.1,3.4
					C175.6,495.2,175.8,493.8,175.8,491.8z"/>
				<path class="st12" d="M179.3,492.9v-6.2h2v6.1c0,1.5,0.1,2.3,1.8,2.3c1.6,0,1.8-0.8,1.8-2.3v-6.1h2v6.2c0,2.8-0.6,4-3.8,4
					C180,496.9,179.3,495.7,179.3,492.9z"/>
				<path class="st19" d="M129.8,501.4h4.5c2.8,0,4,1.3,4,4.1c0,2.7-1.2,4.2-4,4.2h-2.8v5.1h-1.7V501.4z M134.3,508.2
					c1.6,0,2.3-0.7,2.3-2.6s-0.7-2.6-2.3-2.6h-2.7v5.1H134.3z"/>
				<path class="st19" d="M139.2,509.8c0-3.1,0.7-5.1,3.9-5.1c3.4,0,3.5,2.2,3.4,5.9h-5.8c0.1,1.9,0.5,2.9,2.4,2.9
					c1.3,0,1.9-0.3,2.5-0.6l0.6,1.3c-0.8,0.4-1.7,0.7-3.3,0.7C139.8,514.9,139.2,512.9,139.2,509.8z M140.8,509h4.2
					c0-1.8-0.1-2.9-1.9-2.9C141.3,506.1,140.9,507.2,140.8,509z M143.6,500.8h1.9l-2.4,2.9h-1.5L143.6,500.8z"/>
				<path class="st19" d="M147.6,511.8c0-2.9,1.7-3.7,5.1-3.7h0.4c0-1.3-0.3-2-1.8-2c-1,0-1.9,0.3-2.5,0.5l-0.7-1.4
					c0.8-0.4,1.9-0.7,3.3-0.7c2.7,0,3.3,1.1,3.3,3.5v4.2c0,0.8,0.1,1,0.8,1v1.5c-0.1,0-0.3,0-0.5,0c-1.1,0-1.5-0.2-1.7-1
					c-0.6,0.8-1.5,1-2.8,1C148.3,514.9,147.6,513.7,147.6,511.8z M153.2,510.9v-1.4h-0.4c-2.5,0-3.5,0.3-3.5,2.1
					c0,1.4,0.6,1.9,1.7,1.9C152.1,513.5,153.2,513,153.2,510.9z"/>
				<path class="st19" d="M159.1,511.1c-0.1,0.2-0.1,0.4-0.1,0.5c0,0.5,0.3,0.7,1.5,0.7c3,0,3.9,0.7,3.9,2.5c0,2.1-1.3,3-4,3
					c-2.8,0-4-0.6-4-2.4c0-1.2,0.5-2.1,1.7-2.4c-0.4-0.3-0.6-0.7-0.6-1.2c0-0.4,0.1-0.8,0.4-1.2c-0.7-0.5-1.1-1.3-1.1-2.6
					c0-2.4,1.3-3.3,3.5-3.3c0.3,0,0.5,0,0.8,0l3.2-0.5v1.4h-1.4c0.6,0.4,1,1.2,1,2.4c0,2.4-1.4,3.3-3.5,3.3
					C159.9,511.2,159.5,511.2,159.1,511.1z M162.7,514.9c0-0.9-0.4-1.3-2.3-1.3c-1.8,0-2.3,0.5-2.3,1.5c0,1.1,0.5,1.4,2.3,1.4
					C162.3,516.5,162.7,516,162.7,514.9z M162.3,508c0-1.3-0.6-1.9-1.9-1.9c-1.2,0-1.9,0.6-1.9,1.9s0.6,1.9,1.9,1.9
					C161.6,509.8,162.3,509.3,162.3,508z"/>
				<path class="st19" d="M165.4,509.8c0-3.1,0.7-5.1,3.9-5.1c3.4,0,3.5,2.2,3.4,5.9H167c0.1,1.9,0.5,2.9,2.4,2.9
					c1.3,0,1.9-0.3,2.5-0.6l0.6,1.3c-0.8,0.4-1.7,0.7-3.3,0.7C166,514.9,165.4,512.9,165.4,509.8z M167,509h4.2
					c0-1.8-0.1-2.9-1.9-2.9C167.5,506.1,167.1,507.2,167,509z"/>
			</g>
		</g>
	</g>
	<g>
		<g>
			<line class="st15" x1="125" y1="443" x2="212.7" y2="443"/>
			<g>
				<polygon points="126.9,441.3 125.2,443 126.9,444.7 125.5,444.7 123.8,443 125.5,441.3 				"/>
			</g>
		</g>
	</g>
	<g>
		<g class="st16">
			<path class="st12" d="M216.8,434.8h4.4c2.8,0,4,1.1,4,3.4c0,1.7-0.6,2.6-1.7,3c1.3,0.4,1.9,1.3,1.9,3.3c0,2.7-1.6,3.7-4.2,3.7
				h-4.6V434.8z M221.2,440.4c1.3,0,2-0.5,2-1.9c0-1.4-0.7-1.9-2-1.9h-2.3v3.8H221.2z M221.3,446.3c1.3,0,2.1-0.4,2.1-2.1
				c0-1.6-0.8-2.1-2.1-2.1h-2.5v4.1H221.3z"/>
			<path class="st12" d="M226.7,445.1c0-2.9,1.7-3.7,5.2-3.7h0.4c0-1.2-0.3-1.7-1.6-1.7c-1.1,0-1.9,0.3-2.5,0.5l-0.8-1.6
				c0.8-0.4,2-0.7,3.5-0.7c2.7,0,3.4,1,3.4,3.5v4.1c0,0.7,0.1,0.9,0.8,0.9v1.8c-0.2,0-0.4,0-0.6,0c-1.1,0-1.6-0.2-1.8-0.9
				c-0.6,0.7-1.5,1-2.8,1C227.4,448.2,226.7,447,226.7,445.1z M232.3,444.2V443h-0.4c-2.3,0-3.3,0.3-3.3,1.9c0,1.3,0.5,1.7,1.5,1.7
				C231.4,446.6,232.3,446.1,232.3,444.2z"/>
			<path class="st12" d="M236.4,449.3h1c0.5,0,0.7-0.2,0.8-0.6l0.2-0.6l-3.1-10.1h2.1l2.1,7.2l2-7.2h2l-3.4,11.1
				c-0.5,1.5-1.2,1.8-2.7,1.8h-1V449.3z"/>
			<path class="st12" d="M243.9,443.1c0-3,0.7-5.2,4.2-5.2c3.5,0,4.2,2.2,4.2,5.2c0,3.1-0.7,5.2-4.2,5.2
				C244.6,448.3,243.9,446.1,243.9,443.1z M250.2,443.1c0-2-0.2-3.4-2.1-3.4c-1.9,0-2.1,1.4-2.1,3.4c0,2,0.2,3.4,2.1,3.4
				C250,446.5,250.2,445.1,250.2,443.1z"/>
			<path class="st12" d="M253.8,438.2l1.6-0.1l0.2,0.9c0.5-0.6,1.2-1.1,3-1.1c2.5,0,2.9,1.5,2.9,3.7v6.6h-2V442
				c0-1.5-0.2-2.2-1.6-2.2c-1.8,0-2.1,1-2.1,3v5.4h-2V438.2z"/>
			<path class="st12" d="M263.4,438.2l1.6-0.1l0.2,0.9c0.5-0.6,1.2-1.1,3-1.1c2.5,0,2.9,1.5,2.9,3.7v6.6h-2V442
				c0-1.5-0.2-2.2-1.6-2.2c-1.8,0-2.1,1-2.1,3v5.4h-2V438.2z"/>
			<path class="st12" d="M272.5,443.1c0-3.2,0.8-5.2,4.1-5.2c3.6,0,3.6,2.3,3.6,6.2h-5.7c0.1,1.7,0.5,2.5,2.2,2.5
				c1.3,0,2-0.3,2.6-0.6l0.8,1.5c-0.8,0.4-1.9,0.8-3.5,0.8C273.2,448.2,272.5,446.3,272.5,443.1z M274.5,442.3h3.9
				c0-1.6-0.1-2.6-1.8-2.6C275,439.7,274.6,440.6,274.5,442.3z"/>
			<path class="st12" d="M284.2,447.5l0.8-1.6c0.7,0.3,1.7,0.6,2.8,0.6c1,0,1.5-0.3,1.5-1.2s-0.5-1.1-2-1.7c-1.7-0.7-2.7-1.3-2.7-3
				c0-2,1.3-2.9,3.4-2.9c1.3,0,2.1,0.2,2.9,0.5l-0.8,1.7c-0.6-0.2-1.3-0.4-2.1-0.4c-1,0-1.4,0.4-1.4,1c0,0.7,0.5,1,1.9,1.5
				c1.8,0.7,2.8,1.3,2.8,3.2c0,1.9-1.2,2.8-3.4,2.8C286.4,448.2,285.2,448,284.2,447.5z"/>
			<path class="st12" d="M292.5,444.3v-6.2h2v6.1c0,1.5,0.1,2.3,1.8,2.3c1.6,0,1.8-0.8,1.8-2.3v-6.1h2v6.2c0,2.8-0.6,4-3.8,4
				C293.2,448.3,292.5,447,292.5,444.3z"/>
			<path class="st12" d="M301.5,443c0-2.8,0.4-5.2,3.4-5.2c1.6,0,2.3,0.3,2.8,0.9v-4.5h2V448l-1.6,0.1l-0.2-1
				c-0.5,0.7-1.3,1.1-3.1,1.1C301.9,448.2,301.5,445.8,301.5,443z M307.7,443.1c0-2-0.2-3.3-2.2-3.3c-1.7,0-2,1.3-2,3.3
				c0,2.1,0.2,3.4,2,3.4C307.5,446.5,307.7,445.1,307.7,443.1z"/>
			<path class="st19" d="M216.7,456.2l1.4-0.1l0.1,1c0.4-0.7,1.2-1.2,3-1.2c2.6,0,2.9,1.5,2.9,3.7v6.5h-1.7V460
				c0-1.6-0.2-2.4-1.8-2.4c-1.9,0-2.2,1.1-2.2,3.3v5.3h-1.7V456.2z"/>
			<path class="st19" d="M225.8,456.9c0-2.4,0.6-4.2,3.3-4.2c2.7,0,3.3,1.9,3.3,4.2c0,2.4-0.6,4.2-3.3,4.2
				C226.4,461.1,225.8,459.3,225.8,456.9z M231,456.9c0-1.7-0.3-2.9-1.9-2.9c-1.6,0-1.9,1.2-1.9,2.9s0.3,2.9,1.9,2.9
				C230.7,459.8,231,458.6,231,456.9z"/>
			<path class="st19" d="M233.8,465.4l0.8-1.4c0.8,0.4,1.6,0.7,2.9,0.7c1.7,0,2.5-0.5,2.5-3c0-2.4-0.8-2.9-2.3-2.9
				c-1,0-1.7,0.3-2.1,0.7l-1.3-0.4l0.3-6.4h6.5v1.5H236l-0.2,3.6c0.5-0.3,1.2-0.6,2.4-0.6c2.4,0,3.5,0.9,3.5,4.4
				c0,3.7-1.4,4.5-4.1,4.5C235.9,466.3,234.8,465.9,233.8,465.4z"/>
		</g>
	</g>
	<g>
		<g>
			<line class="st15" x1="161.4" y1="387.4" x2="203.5" y2="387.4"/>
			<g>
				<polygon points="163.3,385.7 161.6,387.4 163.3,389.1 161.9,389.1 160.2,387.4 161.9,385.7 				"/>
			</g>
		</g>
	</g>
	<g>
		<g class="st16">
			<path class="st12" d="M206.3,386.8c0-4.1,0.9-6.8,5.2-6.8c1.4,0,2.6,0.3,3.4,0.9l-1.1,1.7c-0.5-0.3-1.3-0.6-2.3-0.6
				c-2.3,0-3,1.4-3,4.8s0.7,4.9,3,4.9c1.1,0,1.8-0.2,2.5-0.7l1,1.6c-1,0.6-1.9,1-3.6,1C207.3,393.6,206.3,390.9,206.3,386.8z"/>
			<path class="st12" d="M215.6,390.4c0-2.9,1.7-3.7,5.2-3.7h0.4c0-1.2-0.3-1.7-1.6-1.7c-1.1,0-1.9,0.3-2.5,0.5l-0.8-1.6
				c0.8-0.4,2-0.7,3.5-0.7c2.7,0,3.4,1,3.4,3.5v4.1c0,0.7,0.1,0.9,0.8,0.9v1.8c-0.2,0-0.4,0-0.6,0c-1.1,0-1.6-0.2-1.8-0.9
				c-0.6,0.7-1.5,1-2.8,1C216.3,393.5,215.6,392.3,215.6,390.4z M221.2,389.6v-1.2h-0.4c-2.3,0-3.3,0.3-3.3,1.9
				c0,1.3,0.5,1.7,1.5,1.7C220.3,391.9,221.2,391.4,221.2,389.6z"/>
			<path class="st12" d="M225.5,383.5l1.6-0.1l0.1,0.9c0.5-0.7,1.4-1.1,3.1-1.1c3,0,3.3,2.4,3.3,5.2c0,2.8-0.4,5.2-3.4,5.2
				c-1.6,0-2.3-0.3-2.8-0.9v3.7h-2V383.5z M231.6,388.5c0-2-0.2-3.4-2-3.4c-2,0-2.2,1.4-2.2,3.4s0.2,3.3,2.2,3.3
				C231.3,391.8,231.6,390.5,231.6,388.5z"/>
			<path class="st12" d="M235.2,379.6h2v4.7c0.5-0.7,1.3-1.1,2.8-1.1c3,0,3.3,2.4,3.3,5.2c0,2.8-0.4,5.2-3.4,5.2c-1.9,0-2.4-0.4-3-1
				l-0.3,1l-1.5-0.1V379.6z M241.4,388.5c0-2-0.2-3.4-2-3.4c-2,0-2.2,1.4-2.2,3.4s0.2,3.3,2.2,3.3
				C241.1,391.8,241.4,390.5,241.4,388.5z"/>
			<path class="st12" d="M244.9,383.5l1.6-0.1l0.2,1.1c0.4-0.6,1.2-1.1,2.8-1.1v1.9c-2.4,0-2.6,1.5-2.6,3.2v5h-2V383.5z"/>
			<path class="st12" d="M250,388.4c0-3.2,0.8-5.2,4.1-5.2c3.6,0,3.6,2.3,3.6,6.2H252c0.1,1.7,0.5,2.5,2.2,2.5c1.3,0,2-0.3,2.6-0.6
				l0.8,1.5c-0.8,0.5-1.9,0.8-3.5,0.8C250.7,393.6,250,391.6,250,388.4z M252,387.6h3.9c0-1.6-0.1-2.6-1.8-2.6
				C252.4,385,252,385.9,252,387.6z"/>
			<path class="st12" d="M258.5,383.4h1.6l0.3-2.5l1.6-0.3v2.9h2.3v1.8h-2.3v5.3c0,0.8,0.1,1.3,1.2,1.3h1.1v1.8
				c-0.3,0-1.1,0.1-1.4,0.1c-2.4,0-3-0.8-3-2.9v-5.5h-1.6V383.4z"/>
			<path class="st12" d="M265.3,388.4c0-3,0.7-5.2,4.2-5.2c3.5,0,4.2,2.2,4.2,5.2c0,3.1-0.7,5.2-4.2,5.2
				C266.1,393.6,265.3,391.4,265.3,388.4z M271.6,388.4c0-2-0.2-3.4-2.1-3.4c-1.9,0-2.1,1.4-2.1,3.4c0,2,0.2,3.4,2.1,3.4
				C271.4,391.8,271.6,390.4,271.6,388.4z"/>
			<path class="st12" d="M275.2,383.5l1.6-0.1l0.2,0.9c0.5-0.6,1.2-1.1,3-1.1c2.5,0,2.9,1.5,2.9,3.7v6.6h-2v-6.1
				c0-1.5-0.2-2.2-1.6-2.2c-1.8,0-2.1,1-2.1,3v5.4h-2V383.5z"/>
			<path class="st19" d="M206.8,401.5l1.4-0.1l0.1,1c0.4-0.7,1.2-1.2,3-1.2c2.6,0,2.9,1.5,2.9,3.7v6.5h-1.7v-6.1
				c0-1.6-0.2-2.4-1.8-2.4c-1.9,0-2.2,1.1-2.2,3.3v5.3h-1.7V401.5z"/>
			<path class="st19" d="M216,402.2c0-2.4,0.6-4.2,3.3-4.2c2.7,0,3.3,1.9,3.3,4.2c0,2.4-0.6,4.2-3.3,4.2
				C216.5,406.4,216,404.6,216,402.2z M221.1,402.2c0-1.7-0.3-2.9-1.9-2.9c-1.6,0-1.9,1.2-1.9,2.9c0,1.7,0.3,2.9,1.9,2.9
				C220.9,405.1,221.1,403.9,221.1,402.2z"/>
			<path class="st19" d="M224.2,407.6c0-1.6,0.2-3,1.8-3.5c-1.3-0.5-1.5-1.6-1.5-2.9c0-1.7,0.6-3.2,3.8-3.2s3.8,1.5,3.8,3.2
				c0,1.3-0.2,2.4-1.5,2.9c1.7,0.5,1.8,1.9,1.8,3.5c0,2.1-0.5,3.9-4.2,3.9C224.7,411.6,224.2,409.7,224.2,407.6z M230.9,407.5
				c0-1.5-0.4-2.5-2.5-2.5c-2.1,0-2.5,1-2.5,2.5c0,1.5,0.4,2.6,2.5,2.6C230.5,410.1,230.9,409,230.9,407.5z M230.5,401.4
				c0-1.2-0.4-2-2.1-2c-1.7,0-2.2,0.8-2.2,2c0,1.2,0.5,2,2.2,2C230.1,403.5,230.5,402.7,230.5,401.4z"/>
		</g>
	</g>
	<g>
		<g>
			<g class="st16">
				<path class="st20" d="M23.4,567.4h-14v-14h14V567.4z"/>
				<path class="st24" d="M25.6,564.7l0.6-0.8c0.4,0.3,1.4,0.8,2.7,0.8c1.3,0,2.2-0.7,2.2-2.1c0-1-0.7-1.5-1.9-2.2
					c-1.2-0.7-2-1.3-2-2.5c0-1.9,1.3-2.9,3.1-2.9c1.3,0,2.1,0.3,2.6,0.6l-0.5,0.9c-0.5-0.3-1.2-0.5-2.2-0.5c-1.3,0-2,0.7-2,1.9
					c0,0.8,0.4,1.2,1.6,1.8c1.4,0.8,2.3,1.5,2.3,2.8c0,2.1-1.4,3.1-3.2,3.1C27.3,565.7,26.3,565.2,25.6,564.7z"/>
				<path class="st24" d="M33.3,563.1c0-0.5,0.1-1.1,0.2-1.7c0.4-2.4,1.3-3.7,3.2-3.7c1.8,0,2.3,0.8,2.3,2c0,0.6-0.2,1.6-0.3,2.4
					h-4.3c-0.1,0.4-0.1,0.7-0.1,1c0,1,0.4,1.7,1.7,1.7c0.7,0,1.2-0.1,1.7-0.3l0.3,0.8c-0.6,0.2-1.3,0.4-2.1,0.4
					C33.9,565.6,33.3,564.6,33.3,563.1z M34.5,561.2h3.4c0.1-0.5,0.2-1,0.2-1.3c0-0.7-0.3-1.2-1.4-1.2
					C35.3,558.6,34.8,559.6,34.5,561.2z"/>
				<path class="st24" d="M39.6,563.1c0-0.5,0.1-1.1,0.2-1.7c0.4-2.4,1.2-3.7,3.2-3.7c1,0,1.5,0.2,1.9,0.4l-0.6,0.8
					c-0.3-0.2-0.7-0.3-1.4-0.3c-1.4,0-1.9,1-2.2,2.9c-0.1,0.6-0.2,1.1-0.2,1.5c0,1.1,0.4,1.7,1.6,1.7c0.4,0,0.8-0.1,1.3-0.3l0.3,0.8
					c-0.6,0.3-1.2,0.3-1.8,0.3C40.2,565.7,39.6,564.7,39.6,563.1z"/>
				<path class="st24" d="M45.7,557.8h1.2l0.5-2.2l0.9-0.2l-0.4,2.3h1.8l-0.2,0.9h-1.8l-0.8,4.8c-0.1,0.7-0.1,1.1,0.8,1.1h0.8
					l-0.2,0.9c-0.1,0-0.8,0-0.9,0c-1.6,0-1.8-0.7-1.6-2.1l0.8-4.7h-1.2L45.7,557.8z"/>
				<path class="st24" d="M51.1,557.8h1l-1.4,7.7h-1L51.1,557.8z M51.5,555.3h1l-0.3,1.5h-1L51.5,555.3z"/>
				<path class="st24" d="M52.7,563c0-0.5,0.1-1,0.2-1.6c0.4-2.2,1.2-3.7,3.4-3.7c2,0,2.6,1.1,2.6,2.6c0,0.5-0.1,1.1-0.2,1.7
					c-0.4,2.3-1.1,3.7-3.4,3.7C53.3,565.7,52.7,564.5,52.7,563z M57.6,561.8c0.1-0.5,0.2-1.1,0.2-1.5c0-1-0.4-1.7-1.6-1.7
					c-1.6,0-2,1.3-2.3,2.9c-0.1,0.5-0.2,1-0.2,1.4c0,1,0.4,1.8,1.6,1.8C56.9,564.8,57.3,563.6,57.6,561.8z"/>
				<path class="st24" d="M60.6,557.9l0.8-0.1l-0.1,0.7c0.4-0.5,1.1-0.8,2.1-0.8c2.3,0,2.2,1.4,1.9,3l-0.9,4.9h-1l0.8-4.8
					c0.3-1.3,0.3-2.1-1.3-2.1c-1.3,0-1.8,1-2.1,2.8l-0.7,4.1h-1L60.6,557.9z"/>
				<path class="st24" d="M65.7,565l0.5-0.8c0.4,0.3,1,0.6,2,0.6c0.7,0,1.4-0.3,1.4-1.4c0-0.6-0.4-0.9-1.3-1.5
					c-0.9-0.6-1.6-1.1-1.6-2c0-1.6,1.1-2.2,2.4-2.2c1,0,1.7,0.2,2.1,0.5l-0.5,0.8c-0.4-0.2-0.8-0.4-1.6-0.4c-0.8,0-1.3,0.4-1.3,1.3
					c0,0.6,0.5,0.9,1.2,1.4c1,0.6,1.5,1.1,1.5,2.1c0,1.7-1.2,2.3-2.4,2.3C67,565.6,66.2,565.3,65.7,565z"/>
				<path class="st24" d="M75.7,565.6c-1.4,0-1.6-0.6-1.4-1.8l1.6-8.9h1l-1.6,9c-0.1,0.6-0.1,0.9,0.8,0.9l-0.2,0.9
					C76,565.6,75.9,565.6,75.7,565.6z"/>
				<path class="st24" d="M77.3,563.1c0-0.5,0.1-1.1,0.2-1.7c0.4-2.4,1.3-3.7,3.2-3.7c1.8,0,2.3,0.8,2.3,2c0,0.6-0.2,1.6-0.3,2.4
					h-4.3c-0.1,0.4-0.1,0.7-0.1,1c0,1,0.4,1.7,1.7,1.7c0.7,0,1.2-0.1,1.7-0.3l0.3,0.8c-0.6,0.2-1.3,0.4-2.1,0.4
					C77.9,565.6,77.3,564.6,77.3,563.1z M78.5,561.2h3.4c0.1-0.5,0.2-1,0.2-1.3c0-0.7-0.3-1.2-1.4-1.2
					C79.3,558.6,78.8,559.6,78.5,561.2z"/>
				<path class="st24" d="M83,565l0.5-0.8c0.4,0.3,1,0.6,2,0.6c0.7,0,1.4-0.3,1.4-1.4c0-0.6-0.4-0.9-1.3-1.5c-0.9-0.6-1.6-1.1-1.6-2
					c0-1.6,1.1-2.2,2.4-2.2c1,0,1.7,0.2,2.1,0.5L88,559c-0.4-0.2-0.8-0.4-1.6-0.4c-0.8,0-1.3,0.4-1.3,1.3c0,0.6,0.5,0.9,1.2,1.4
					c1,0.6,1.5,1.1,1.5,2.1c0,1.7-1.2,2.3-2.4,2.3C84.3,565.6,83.5,565.3,83,565z"/>
				<path class="st24" d="M92.6,557.9l0.8-0.1l-0.1,0.7c0.4-0.5,1.1-0.8,2.1-0.8c1.1,0,1.6,0.2,1.8,0.9c0.4-0.6,1.2-0.9,2.3-0.9
					c2.2,0,2.1,1.4,1.8,3l-0.9,4.9h-1l0.8-4.8c0.2-1.3,0.3-2.1-1.2-2.1c-1.3,0-1.7,1-2,2.8l-0.7,4.1h-1l0.8-4.8
					c0.3-1.3,0.3-2.1-1.2-2.1c-1.3,0-1.7,1-2,2.8l-0.7,4.1h-1L92.6,557.9z"/>
				<path class="st24" d="M102.2,563c0-0.5,0.1-1,0.2-1.6c0.4-2.2,1.2-3.7,3.4-3.7c2,0,2.6,1.1,2.6,2.6c0,0.5-0.1,1.1-0.2,1.7
					c-0.4,2.3-1.1,3.7-3.4,3.7C102.8,565.7,102.2,564.5,102.2,563z M107.1,561.8c0.1-0.5,0.2-1.1,0.2-1.5c0-1-0.4-1.7-1.6-1.7
					c-1.6,0-2,1.3-2.3,2.9c-0.1,0.5-0.2,1-0.2,1.4c0,1,0.4,1.8,1.6,1.8C106.4,564.8,106.8,563.6,107.1,561.8z"/>
				<path class="st24" d="M110.2,557.8h1l-1.4,7.7h-1L110.2,557.8z M110.7,555.3h1l-0.3,1.5h-1L110.7,555.3z"/>
				<path class="st24" d="M112.9,557.9l0.8-0.1l-0.1,0.7c0.4-0.5,1.1-0.8,2.1-0.8c2.3,0,2.2,1.4,1.9,3l-0.9,4.9h-1l0.8-4.8
					c0.3-1.3,0.3-2.1-1.3-2.1c-1.3,0-1.8,1-2.1,2.8l-0.7,4.1h-1L112.9,557.9z"/>
				<path class="st24" d="M118,565l0.5-0.8c0.4,0.3,1,0.6,2,0.6c0.7,0,1.4-0.3,1.4-1.4c0-0.6-0.4-0.9-1.3-1.5
					c-0.9-0.6-1.6-1.1-1.6-2c0-1.6,1.1-2.2,2.4-2.2c1,0,1.7,0.2,2.1,0.5l-0.5,0.8c-0.4-0.2-0.8-0.4-1.6-0.4c-0.8,0-1.3,0.4-1.3,1.3
					c0,0.6,0.5,0.9,1.2,1.4c1,0.6,1.5,1.1,1.5,2.1c0,1.7-1.2,2.3-2.4,2.3C119.3,565.6,118.6,565.3,118,565z"/>
				<path class="st24" d="M126.5,563.1c0-0.5,0.1-1.1,0.2-1.7c0.4-2.4,1.2-3.7,3.2-3.7c1,0,1.5,0.2,1.9,0.4l-0.6,0.8
					c-0.3-0.2-0.7-0.3-1.4-0.3c-1.4,0-1.9,1-2.2,2.9c-0.1,0.6-0.2,1.1-0.2,1.5c0,1.1,0.4,1.7,1.6,1.7c0.4,0,0.8-0.1,1.3-0.3l0.3,0.8
					c-0.6,0.3-1.2,0.3-1.8,0.3C127.1,565.7,126.5,564.7,126.5,563.1z"/>
				<path class="st24" d="M133.8,554.8h1l-0.7,3.7c0.4-0.4,1-0.8,2-0.8c2.3,0,2.2,1.4,1.9,3l-0.9,4.9h-1l0.8-4.8
					c0.2-1.3,0.3-2.1-1.3-2.1c-1.4,0-1.8,1-2.1,2.8l-0.7,4.1h-1L133.8,554.8z"/>
				<path class="st24" d="M139,563.1c0-0.5,0.1-1.1,0.2-1.7c0.4-2.4,1.3-3.7,3.2-3.7c1.8,0,2.3,0.8,2.3,2c0,0.6-0.2,1.6-0.3,2.4
					h-4.3c-0.1,0.4-0.1,0.7-0.1,1c0,1,0.4,1.7,1.7,1.7c0.7,0,1.2-0.1,1.7-0.3l0.3,0.8c-0.6,0.2-1.3,0.4-2.1,0.4
					C139.6,565.6,139,564.6,139,563.1z M140.2,561.2h3.4c0.1-0.5,0.2-1,0.2-1.3c0-0.7-0.3-1.2-1.4-1.2
					C141,558.6,140.5,559.6,140.2,561.2z M141.1,554.8h1.1l1.2,2.2h-0.9L141.1,554.8z"/>
				<path class="st24" d="M146.5,557.9l0.8-0.1l-0.1,0.8c0.4-0.5,1.1-0.9,2.3-0.9l-0.2,1c-1.9,0-2.2,1.3-2.5,2.8l-0.7,4h-1
					L146.5,557.9z"/>
				<path class="st24" d="M149.1,563.1c0-0.5,0.1-1.1,0.2-1.7c0.4-2.4,1.3-3.7,3.2-3.7c1.8,0,2.3,0.8,2.3,2c0,0.6-0.2,1.6-0.3,2.4
					h-4.3c-0.1,0.4-0.1,0.7-0.1,1c0,1,0.4,1.7,1.7,1.7c0.7,0,1.2-0.1,1.7-0.3l0.3,0.8c-0.6,0.2-1.3,0.4-2.1,0.4
					C149.7,565.6,149.1,564.6,149.1,563.1z M150.3,561.2h3.4c0.1-0.5,0.2-1,0.2-1.3c0-0.7-0.3-1.2-1.4-1.2
					C151.1,558.6,150.6,559.6,150.3,561.2z"/>
				<path class="st24" d="M154.8,565l0.5-0.8c0.4,0.3,1,0.6,2,0.6c0.7,0,1.4-0.3,1.4-1.4c0-0.6-0.4-0.9-1.3-1.5
					c-0.9-0.6-1.6-1.1-1.6-2c0-1.6,1.1-2.2,2.4-2.2c1,0,1.7,0.2,2.1,0.5l-0.5,0.8c-0.3-0.2-0.8-0.4-1.6-0.4c-0.8,0-1.3,0.4-1.3,1.3
					c0,0.6,0.5,0.9,1.2,1.4c1,0.6,1.5,1.1,1.5,2.1c0,1.7-1.2,2.3-2.4,2.3C156.1,565.6,155.3,565.3,154.8,565z"/>
				<path class="st19" d="M182.3,567.4h-14v-14h14V567.4z"/>
				<path class="st24" d="M184.5,564.7l0.6-0.8c0.4,0.3,1.4,0.8,2.7,0.8c1.3,0,2.2-0.7,2.2-2.1c0-1-0.7-1.5-1.9-2.2
					c-1.2-0.7-2-1.3-2-2.5c0-1.9,1.3-2.9,3.1-2.9c1.3,0,2.1,0.3,2.6,0.6l-0.5,0.9c-0.5-0.3-1.2-0.5-2.2-0.5c-1.3,0-2,0.7-2,1.9
					c0,0.8,0.4,1.2,1.6,1.8c1.4,0.8,2.3,1.5,2.3,2.8c0,2.1-1.4,3.1-3.2,3.1C186.2,565.7,185.1,565.2,184.5,564.7z"/>
				<path class="st24" d="M192.1,563.1c0-0.5,0.1-1.1,0.2-1.7c0.4-2.4,1.3-3.7,3.2-3.7c1.8,0,2.3,0.8,2.3,2c0,0.6-0.2,1.6-0.3,2.4
					h-4.3c-0.1,0.4-0.1,0.7-0.1,1c0,1,0.4,1.7,1.7,1.7c0.7,0,1.2-0.1,1.7-0.3l0.3,0.8c-0.6,0.2-1.3,0.4-2.1,0.4
					C192.7,565.6,192.1,564.6,192.1,563.1z M193.3,561.2h3.4c0.1-0.5,0.2-1,0.2-1.3c0-0.7-0.3-1.2-1.4-1.2
					C194.1,558.6,193.6,559.6,193.3,561.2z"/>
				<path class="st24" d="M198.5,563.1c0-0.5,0.1-1.1,0.2-1.7c0.4-2.4,1.2-3.7,3.2-3.7c1,0,1.5,0.2,1.9,0.4l-0.6,0.8
					c-0.3-0.2-0.7-0.3-1.4-0.3c-1.4,0-1.9,1-2.2,2.9c-0.1,0.6-0.2,1.1-0.2,1.5c0,1.1,0.4,1.7,1.6,1.7c0.4,0,0.8-0.1,1.3-0.3l0.3,0.8
					c-0.6,0.3-1.2,0.3-1.8,0.3C199.1,565.7,198.5,564.7,198.5,563.1z"/>
				<path class="st24" d="M204.5,557.8h1.2l0.5-2.2l0.9-0.2l-0.4,2.3h1.8l-0.2,0.9h-1.8l-0.8,4.8c-0.1,0.7-0.1,1.1,0.8,1.1h0.8
					l-0.2,0.9c-0.1,0-0.8,0-0.9,0c-1.6,0-1.8-0.7-1.6-2.1l0.8-4.7h-1.2L204.5,557.8z"/>
				<path class="st24" d="M209.9,557.8h1l-1.4,7.7h-1L209.9,557.8z M210.4,555.3h1l-0.3,1.5h-1L210.4,555.3z"/>
				<path class="st24" d="M211.5,563c0-0.5,0.1-1,0.2-1.6c0.4-2.2,1.2-3.7,3.4-3.7c2,0,2.6,1.1,2.6,2.6c0,0.5-0.1,1.1-0.2,1.7
					c-0.4,2.3-1.1,3.7-3.4,3.7C212.1,565.7,211.5,564.5,211.5,563z M216.4,561.8c0.1-0.5,0.2-1.1,0.2-1.5c0-1-0.3-1.7-1.6-1.7
					c-1.6,0-2,1.3-2.3,2.9c-0.1,0.5-0.2,1-0.2,1.4c0,1,0.4,1.8,1.6,1.8C215.7,564.8,216.1,563.6,216.4,561.8z"/>
				<path class="st24" d="M219.4,557.9l0.8-0.1l-0.1,0.7c0.4-0.5,1.1-0.8,2.1-0.8c2.3,0,2.2,1.4,1.9,3l-0.9,4.9h-1l0.8-4.8
					c0.3-1.3,0.3-2.1-1.3-2.1c-1.3,0-1.8,1-2.1,2.8l-0.7,4.1h-1L219.4,557.9z"/>
				<path class="st24" d="M224.5,565l0.5-0.8c0.4,0.3,1,0.6,2,0.6c0.7,0,1.4-0.3,1.4-1.4c0-0.6-0.4-0.9-1.3-1.5
					c-0.9-0.6-1.6-1.1-1.6-2c0-1.6,1.1-2.2,2.4-2.2c1,0,1.7,0.2,2.1,0.5l-0.5,0.8c-0.3-0.2-0.8-0.4-1.6-0.4c-0.8,0-1.3,0.4-1.3,1.3
					c0,0.6,0.5,0.9,1.2,1.4c1,0.6,1.5,1.1,1.5,2.1c0,1.7-1.2,2.3-2.4,2.3C225.8,565.6,225.1,565.3,224.5,565z"/>
				<path class="st24" d="M234.5,565.6c-1.4,0-1.6-0.6-1.4-1.8l1.6-8.9h1l-1.6,9c-0.1,0.6-0.1,0.9,0.8,0.9l-0.2,0.9
					C234.8,565.6,234.7,565.6,234.5,565.6z"/>
				<path class="st24" d="M236.2,563.1c0-0.5,0.1-1.1,0.2-1.7c0.4-2.4,1.3-3.7,3.2-3.7c1.8,0,2.3,0.8,2.3,2c0,0.6-0.2,1.6-0.3,2.4
					h-4.3c-0.1,0.4-0.1,0.7-0.1,1c0,1,0.4,1.7,1.7,1.7c0.7,0,1.2-0.1,1.7-0.3l0.3,0.8c-0.6,0.2-1.3,0.4-2.1,0.4
					C236.7,565.6,236.2,564.6,236.2,563.1z M237.4,561.2h3.4c0.1-0.5,0.2-1,0.2-1.3c0-0.7-0.3-1.2-1.4-1.2
					C238.1,558.6,237.7,559.6,237.4,561.2z"/>
				<path class="st24" d="M241.8,565l0.5-0.8c0.4,0.3,1,0.6,2,0.6c0.7,0,1.4-0.3,1.4-1.4c0-0.6-0.4-0.9-1.3-1.5
					c-0.9-0.6-1.6-1.1-1.6-2c0-1.6,1.1-2.2,2.4-2.2c1,0,1.7,0.2,2.1,0.5l-0.5,0.8c-0.3-0.2-0.8-0.4-1.6-0.4c-0.8,0-1.3,0.4-1.3,1.3
					c0,0.6,0.5,0.9,1.2,1.4c1,0.6,1.5,1.1,1.5,2.1c0,1.7-1.2,2.3-2.4,2.3C243.1,565.6,242.4,565.3,241.8,565z"/>
				<path class="st24" d="M251.4,557.9l0.8-0.1l-0.1,0.7c0.5-0.5,1.2-0.8,2.3-0.8c1.7,0,2.2,1,2.2,2.4c0,0.6-0.1,1.2-0.2,1.8
					c-0.4,2.1-1,3.7-2.9,3.7c-1.4,0-2-0.4-2.3-1l-0.5,3.1h-1L251.4,557.9z M255.4,561.9c0.1-0.6,0.2-1.1,0.2-1.6
					c0-1-0.3-1.6-1.5-1.6c-1.7,0-2,1.2-2.3,2.9c-0.1,0.5-0.2,1-0.2,1.5c0,1,0.4,1.7,1.7,1.7C254.7,564.7,255.1,563.6,255.4,561.9z"
					/>
				<path class="st24" d="M258.8,565.6c-1.4,0-1.6-0.6-1.4-1.8l1.6-8.9h1l-1.6,9c-0.1,0.6-0.1,0.9,0.8,0.9l-0.2,0.9
					C259.1,565.6,259,565.6,258.8,565.6z"/>
				<path class="st24" d="M260.7,562.6l0.8-4.8h1l-0.8,4.8c-0.2,1.2-0.3,2.1,1.3,2.1c1.3,0,1.5-0.6,1.8-1.9l0.9-5h1l-0.9,5.1
					c-0.3,1.9-0.8,2.7-2.8,2.7C260.6,565.7,260.4,564.5,260.7,562.6z"/>
				<path class="st24" d="M266.5,565l0.5-0.8c0.4,0.3,1,0.6,2,0.6c0.7,0,1.4-0.3,1.4-1.4c0-0.6-0.4-0.9-1.3-1.5
					c-0.9-0.6-1.6-1.1-1.6-2c0-1.6,1.1-2.2,2.4-2.2c1,0,1.7,0.2,2.1,0.5l-0.5,0.8c-0.3-0.2-0.8-0.4-1.6-0.4c-0.8,0-1.3,0.4-1.3,1.3
					c0,0.6,0.5,0.9,1.2,1.4c1,0.6,1.5,1.1,1.5,2.1c0,1.7-1.2,2.3-2.4,2.3C267.8,565.6,267.1,565.3,266.5,565z"/>
				<path class="st24" d="M275,563.1c0-0.5,0.1-1.1,0.2-1.7c0.4-2.4,1.2-3.7,3.2-3.7c1,0,1.5,0.2,1.9,0.4l-0.6,0.8
					c-0.3-0.2-0.7-0.3-1.4-0.3c-1.4,0-1.9,1-2.2,2.9c-0.1,0.6-0.2,1.1-0.2,1.5c0,1.1,0.4,1.7,1.6,1.7c0.4,0,0.8-0.1,1.3-0.3l0.3,0.8
					c-0.6,0.3-1.2,0.3-1.8,0.3C275.6,565.7,275,564.7,275,563.1z"/>
				<path class="st24" d="M282.3,554.8h1l-0.7,3.7c0.4-0.4,1-0.8,2-0.8c2.3,0,2.2,1.4,1.9,3l-0.9,4.9h-1l0.8-4.8
					c0.2-1.3,0.3-2.1-1.3-2.1c-1.4,0-1.8,1-2.1,2.8l-0.7,4.1h-1L282.3,554.8z"/>
				<path class="st24" d="M287.5,563.1c0-0.5,0.1-1.1,0.2-1.7c0.4-2.4,1.3-3.7,3.2-3.7c1.8,0,2.3,0.8,2.3,2c0,0.6-0.2,1.6-0.3,2.4
					h-4.3c-0.1,0.4-0.1,0.7-0.1,1c0,1,0.4,1.7,1.7,1.7c0.7,0,1.2-0.1,1.7-0.3l0.3,0.8c-0.6,0.2-1.3,0.4-2.1,0.4
					C288.1,565.6,287.5,564.6,287.5,563.1z M288.7,561.2h3.4c0.1-0.5,0.2-1,0.2-1.3c0-0.7-0.3-1.2-1.4-1.2
					C289.5,558.6,289,559.6,288.7,561.2z M289.6,554.8h1.1l1.2,2.2H291L289.6,554.8z"/>
				<path class="st24" d="M295,557.9l0.8-0.1l-0.1,0.8c0.4-0.5,1.1-0.9,2.3-0.9l-0.2,1c-1.9,0-2.2,1.3-2.5,2.8l-0.7,4h-1L295,557.9z
					"/>
				<path class="st24" d="M297.6,563.1c0-0.5,0.1-1.1,0.2-1.7c0.4-2.4,1.3-3.7,3.2-3.7c1.8,0,2.3,0.8,2.3,2c0,0.6-0.2,1.6-0.3,2.4
					h-4.3c-0.1,0.4-0.1,0.7-0.1,1c0,1,0.4,1.7,1.7,1.7c0.7,0,1.2-0.1,1.7-0.3l0.3,0.8c-0.6,0.2-1.3,0.4-2.1,0.4
					C298.2,565.6,297.6,564.6,297.6,563.1z M298.8,561.2h3.4c0.1-0.5,0.2-1,0.2-1.3c0-0.7-0.3-1.2-1.4-1.2
					C299.6,558.6,299.2,559.6,298.8,561.2z"/>
				<path class="st24" d="M303.3,565l0.5-0.8c0.4,0.3,1,0.6,2,0.6c0.7,0,1.4-0.3,1.4-1.4c0-0.6-0.4-0.9-1.3-1.5
					c-0.9-0.6-1.6-1.1-1.6-2c0-1.6,1.1-2.2,2.4-2.2c1,0,1.7,0.2,2.1,0.5l-0.5,0.8c-0.3-0.2-0.8-0.4-1.6-0.4c-0.8,0-1.3,0.4-1.3,1.3
					c0,0.6,0.5,0.9,1.2,1.4c1,0.6,1.5,1.1,1.5,2.1c0,1.7-1.2,2.3-2.4,2.3C304.6,565.6,303.8,565.3,303.3,565z"/>
			</g>
		</g>
	</g>
	<line class="st32" x1="5.5" y1="550.4" x2="311.6" y2="550.4"/>
	<line class="st32" x1="311.6" y1="570.8" x2="5.5" y2="570.8"/>
	<g>
		<g>
			<path class="st12" d="M163.1,1.6h6.4c3.9,0,5.8,1.5,5.8,5c0,2.6-1,3.9-2.5,4.5c1.9,0.6,2.9,2,2.9,5c0,4.1-2.3,5.5-6.1,5.5h-6.5
				V1.6z M169.4,10.1c2.1,0,3.3-0.7,3.3-3.2c0-2.4-1.2-3.1-3.3-3.1h-3.7v6.2H169.4z M169.6,19.4c2.1,0,3.5-0.7,3.5-3.5
				c0-2.7-1.4-3.4-3.5-3.4h-3.9v6.9H169.6z"/>
			<path class="st12" d="M177.7,11.6c0-5.5,0.9-10.2,7.6-10.2c6.7,0,7.6,4.7,7.6,10.2s-0.8,10.2-7.6,10.2
				C178.5,21.8,177.7,17.2,177.7,11.6z M190.2,11.7c0-4.5-0.5-7.8-4.9-7.8c-4.5,0-5,3.3-5,7.8s0.5,7.8,5,7.8
				C189.7,19.5,190.2,16.2,190.2,11.7z"/>
			<path class="st12" d="M201.7,13.9h-3.6v7.7h-2.6v-20h6.7c4.2,0,5.9,2,5.9,6c0,3.2-1.2,5.4-3.9,6.1l3.6,8h-2.7L201.7,13.9z
				 M202.1,11.5c2.4,0,3.4-1,3.4-3.8c0-2.8-1-3.8-3.4-3.8h-4.1v7.6H202.1z"/>
			<path class="st12" d="M211.1,1.6h5.7c6.3,0,7.9,3.2,7.9,10c0,6.9-1.5,10-8,10h-5.6V1.6z M216.9,19.3c4.3,0,5.2-2.5,5.2-7.7
				c0-5.2-0.8-7.6-5.1-7.6h-3.2v15.3H216.9z"/>
			<path class="st12" d="M227.3,1.6h11V4h-8.4v6.1h8v2.4h-8v6.8h8.5v2.3h-11.1V1.6z"/>
			<path class="st12" d="M246,1.5h2.8l6.2,20.1h-2.6l-1.2-4.2h-7.4l-1.2,4.2h-2.6L246,1.5z M250.3,15.1l-3-9.9l-3,9.9H250.3z"/>
			<path class="st12" d="M256.4,14.9V1.6h2.6v13.1c0,3.1,0.8,4.7,4.2,4.7c3.4,0,4.3-1.6,4.3-4.7V1.6h2.5v13.3c0,4.4-1.5,6.9-6.8,6.9
				C258,21.9,256.4,19.4,256.4,14.9z"/>
			<path class="st12" d="M279.1,13.5l-4.2,8.1H272l5.7-10.5l-5.2-9.5h2.9l3.9,7.2l3.8-7.2h2.8l-5.2,9.6l5.7,10.4h-2.9L279.1,13.5z"
				/>
		</g>
	</g>
	<g>
		<g>
			<polyline class="st15" points="177.3,313.7 144.7,313.7 144.7,306.9 			"/>
			<g>
				<polygon points="175.4,312 177.1,313.7 175.4,315.4 176.8,315.4 178.5,313.7 176.8,312 				"/>
			</g>
		</g>
	</g>
	<g>
		<g class="st16">
			<path class="st12" d="M113.8,277.8c0-4.1,0.9-6.8,5.2-6.8c1.4,0,2.6,0.3,3.4,0.9l-1.1,1.7c-0.5-0.3-1.3-0.6-2.3-0.6
				c-2.3,0-3,1.4-3,4.8s0.7,4.9,3,4.9c1.1,0,1.8-0.2,2.5-0.7l1,1.6c-1,0.6-1.9,1-3.6,1C114.8,284.6,113.8,282,113.8,277.8z"/>
			<path class="st12" d="M123.1,281.5c0-2.9,1.7-3.7,5.2-3.7h0.4c0-1.2-0.3-1.7-1.6-1.7c-1.1,0-1.9,0.3-2.5,0.5l-0.8-1.6
				c0.8-0.4,2-0.7,3.5-0.7c2.7,0,3.4,1,3.4,3.5v4.1c0,0.7,0.1,0.9,0.8,0.9v1.8c-0.2,0-0.4,0-0.6,0c-1.1,0-1.6-0.2-1.8-0.9
				c-0.6,0.7-1.5,1-2.8,1C123.8,284.6,123.1,283.4,123.1,281.5z M128.7,280.6v-1.2h-0.4c-2.3,0-3.3,0.3-3.3,1.9
				c0,1.3,0.5,1.7,1.5,1.7C127.8,282.9,128.7,282.4,128.7,280.6z"/>
			<path class="st12" d="M132.2,283.9l0.8-1.6c0.7,0.3,1.7,0.6,2.8,0.6c1,0,1.5-0.3,1.5-1.2s-0.5-1.1-2-1.7c-1.7-0.7-2.7-1.3-2.7-3
				c0-2,1.3-2.9,3.4-2.9c1.3,0,2.1,0.2,2.9,0.5l-0.8,1.7c-0.6-0.2-1.3-0.4-2.1-0.4c-1,0-1.4,0.4-1.4,1c0,0.7,0.5,1,1.9,1.5
				c1.8,0.7,2.8,1.3,2.8,3.2c0,1.9-1.2,2.8-3.4,2.8C134.4,284.6,133.1,284.4,132.2,283.9z"/>
			<path class="st12" d="M139.8,274.4h1.6l0.3-2.5l1.6-0.3v2.9h2.3v1.8h-2.3v5.3c0,0.8,0.1,1.3,1.2,1.3h1.1v1.8
				c-0.3,0-1.1,0.1-1.4,0.1c-2.4,0-3-0.8-3-2.9v-5.5h-1.6V274.4z"/>
			<path class="st12" d="M146.6,279.4c0-3.2,0.8-5.2,4.1-5.2c3.6,0,3.6,2.3,3.6,6.2h-5.7c0.1,1.7,0.5,2.5,2.2,2.5
				c1.3,0,2-0.3,2.6-0.6l0.8,1.5c-0.8,0.4-1.9,0.8-3.5,0.8C147.3,284.6,146.6,282.6,146.6,279.4z M148.6,278.6h3.9
				c0-1.6-0.1-2.6-1.8-2.6C149,276,148.6,277,148.6,278.6z"/>
			<path class="st12" d="M155.1,274.4h1.6l0.3-2.5l1.6-0.3v2.9h2.3v1.8h-2.3v5.3c0,0.8,0.1,1.3,1.2,1.3h1.1v1.8
				c-0.3,0-1.1,0.1-1.4,0.1c-2.4,0-3-0.8-3-2.9v-5.5h-1.6V274.4z"/>
			<path class="st12" d="M162,283.9l0.8-1.6c0.7,0.3,1.7,0.6,2.8,0.6c1,0,1.5-0.3,1.5-1.2s-0.5-1.1-2-1.7c-1.7-0.7-2.7-1.3-2.7-3
				c0-2,1.3-2.9,3.4-2.9c1.3,0,2.1,0.2,2.9,0.5l-0.8,1.7c-0.6-0.2-1.3-0.4-2.1-0.4c-1,0-1.4,0.4-1.4,1c0,0.7,0.5,1,1.9,1.5
				c1.8,0.7,2.8,1.3,2.8,3.2c0,1.9-1.2,2.8-3.4,2.8C164.1,284.6,162.9,284.4,162,283.9z"/>
			<path class="st19" d="M138.4,292.6l1.4-0.1l0.1,1c0.4-0.7,1.2-1.2,3-1.2c2.6,0,2.9,1.5,2.9,3.7v6.5h-1.7v-6.1
				c0-1.6-0.2-2.4-1.8-2.4c-1.9,0-2.2,1.1-2.2,3.3v5.3h-1.7V292.6z"/>
			<path class="st19" d="M147.6,293.2c0-2.4,0.6-4.2,3.3-4.2c2.7,0,3.3,1.9,3.3,4.2c0,2.4-0.6,4.2-3.3,4.2
				C148.2,297.5,147.6,295.6,147.6,293.2z M152.8,293.3c0-1.7-0.3-2.9-1.9-2.9c-1.6,0-1.9,1.2-1.9,2.9s0.3,2.9,1.9,2.9
				C152.5,296.2,152.8,294.9,152.8,293.3z"/>
			<path class="st19" d="M157.3,290.7h-1.9v-1.5h3.6v13.3h-1.7V290.7z"/>
			<path class="st19" d="M161,301.1l3-3.7c2.4-2.9,2.6-3.6,2.6-4.9c0-1.3-0.5-1.9-2-1.9c-1.1,0-2,0.3-2.7,0.6l-0.7-1.4
				c0.9-0.5,2-0.8,3.7-0.8c2.5,0,3.4,1.1,3.4,3.3c0,1.9-0.5,2.9-3.1,6.1l-2.1,2.6h5.3v1.5H161V301.1z"/>
		</g>
	</g>
	<g>
		<g>
			<line class="st15" x1="229.2" y1="157.6" x2="205.1" y2="157.6"/>
			<g>
				<polygon points="227.3,155.9 229,157.6 227.3,159.3 228.7,159.3 230.4,157.6 228.7,155.9 				"/>
			</g>
		</g>
	</g>
	<g>
		<g class="st16">
			<path class="st12" d="M56.5,164.6l1-1.6c0.7,0.4,1.9,0.9,3.5,0.9c1.7,0,2.4-0.6,2.4-1.8c0-1.4-0.7-1.7-2.9-2.6
				c-2.3-0.9-3.5-1.7-3.5-3.9c0-2.3,1.5-3.6,4.2-3.6c1.6,0,2.7,0.3,3.7,0.8l-0.9,1.8c-0.7-0.3-1.5-0.6-2.8-0.6
				c-1.5,0-2.2,0.6-2.2,1.6c0,1.1,0.5,1.5,2.4,2.2c2.9,1.1,4,1.8,4,4.3c0,2.3-1.4,3.6-4.4,3.6C59,165.7,57.5,165.3,56.5,164.6z"/>
			<path class="st12" d="M66.5,162.6c0-2.9,1.7-3.7,5.2-3.7H72c0-1.2-0.3-1.7-1.6-1.7c-1.1,0-1.9,0.3-2.5,0.5l-0.8-1.6
				c0.8-0.4,2-0.7,3.5-0.7c2.7,0,3.4,1,3.4,3.5v4.1c0,0.7,0.1,0.9,0.8,0.9v1.8c-0.2,0-0.4,0-0.6,0c-1.1,0-1.6-0.2-1.8-0.9
				c-0.6,0.7-1.5,1-2.8,1C67.1,165.7,66.5,164.5,66.5,162.6z M72,161.7v-1.2h-0.4c-2.3,0-3.3,0.3-3.3,1.9c0,1.3,0.5,1.7,1.5,1.7
				C71.1,164,72,163.5,72,161.7z"/>
			<path class="st12" d="M76.2,161.7v-6.2h2v6.1c0,1.5,0.1,2.3,1.8,2.3c1.6,0,1.8-0.8,1.8-2.3v-6.1h2v6.2c0,2.8-0.6,4-3.8,4
				C76.9,165.7,76.2,164.5,76.2,161.7z"/>
			<path class="st12" d="M87.8,161.9c-0.1,0.1-0.1,0.3-0.1,0.5c0,0.5,0.3,0.6,1.5,0.6c3.2,0,4.1,0.6,4.1,2.6c0,2.2-1.3,3-4.2,3
				c-3,0-4.2-0.5-4.2-2.4c0-1.2,0.5-2,1.7-2.3c-0.4-0.3-0.6-0.8-0.6-1.3c0-0.4,0.1-0.8,0.4-1.2c-0.7-0.5-1.1-1.4-1.1-2.6
				c0-2.4,1.4-3.4,3.7-3.4c0.2,0,0.5,0,0.7,0l3.4-0.6v1.6h-1.4c0.6,0.4,1,1.2,1,2.4c0,2.5-1.5,3.3-3.7,3.3
				C88.6,162,88.2,162,87.8,161.9z M91.3,165.7c0-0.8-0.4-1.1-2.2-1.1c-1.7,0-2.2,0.4-2.2,1.3c0,1,0.5,1.2,2.2,1.2
				C90.9,167.1,91.3,166.7,91.3,165.7z M90.8,158.7c0-1.2-0.5-1.7-1.7-1.7c-1.2,0-1.7,0.5-1.7,1.7s0.6,1.7,1.7,1.7
				C90.3,160.4,90.8,159.9,90.8,158.7z"/>
			<path class="st12" d="M94.8,155.6l1.6-0.1l0.2,0.9c0.5-0.6,1.2-1.1,3-1.1c2.5,0,2.9,1.5,2.9,3.7v6.6h-2v-6.1
				c0-1.5-0.2-2.2-1.6-2.2c-1.8,0-2.1,1-2.1,3v5.4h-2V155.6z"/>
			<path class="st12" d="M104,162.6c0-2.9,1.7-3.7,5.2-3.7h0.4c0-1.2-0.3-1.7-1.6-1.7c-1.1,0-1.9,0.3-2.5,0.5l-0.8-1.6
				c0.8-0.4,2-0.7,3.5-0.7c2.7,0,3.4,1,3.4,3.5v4.1c0,0.7,0.1,0.9,0.8,0.9v1.8c-0.2,0-0.4,0-0.6,0c-1.1,0-1.6-0.2-1.8-0.9
				c-0.6,0.7-1.5,1-2.8,1C104.6,165.7,104,164.5,104,162.6z M109.5,161.7v-1.2h-0.4c-2.3,0-3.3,0.3-3.3,1.9c0,1.3,0.5,1.7,1.5,1.7
				C108.6,164,109.5,163.5,109.5,161.7z"/>
			<path class="st12" d="M113.4,160.5c0-3.2,0.7-5.2,4.1-5.2c1.1,0,1.9,0.2,2.6,0.5l-0.9,1.7c-0.5-0.3-1-0.4-1.6-0.4
				c-1.7,0-2.2,1.1-2.2,3.3c0,2.3,0.4,3.4,2.2,3.4c0.7,0,1.3-0.2,1.8-0.5l0.8,1.5c-0.9,0.5-1.7,0.7-2.8,0.7
				C114.1,165.7,113.4,163.7,113.4,160.5z"/>
			<path class="st12" d="M127,164.7c-0.5,0.7-1.2,1-2.8,1c-3,0-3.3-2.4-3.3-5.2c0-2.8,0.4-5.2,3.4-5.2c1.9,0,2.5,0.4,3,1l0.3-0.9
				l1.5,0.1v12.9h-2V164.7z M127,160.5c0-2-0.2-3.3-2.2-3.3c-1.7,0-2,1.3-2,3.3c0,2.1,0.2,3.4,2,3.4
				C126.8,163.9,127,162.6,127,160.5z"/>
			<path class="st12" d="M130.6,158.9h5v1.9h-5V158.9z"/>
			<path class="st12" d="M136.9,160.5c0-3.2,0.8-5.2,4.1-5.2c3.6,0,3.6,2.3,3.6,6.2h-5.7c0.1,1.7,0.5,2.5,2.2,2.5
				c1.3,0,2-0.3,2.6-0.6l0.8,1.5c-0.8,0.5-1.9,0.8-3.5,0.8C137.6,165.7,136.9,163.7,136.9,160.5z M138.8,159.7h3.9
				c0-1.6-0.1-2.6-1.8-2.6C139.3,157.1,138.9,158.1,138.8,159.7z"/>
			<path class="st12" d="M145.4,155.5h1.6l0.3-2.5l1.6-0.3v2.9h2.3v1.8H149v5.3c0,0.8,0.1,1.3,1.2,1.3h1.1v1.8
				c-0.3,0-1.1,0.1-1.4,0.1c-2.4,0-3-0.8-3-2.9v-5.5h-1.6V155.5z"/>
			<path class="st12" d="M152.3,158.9h5v1.9h-5V158.9z"/>
			<path class="st12" d="M159.1,152.2h2.6l3.1,9.8l3.1-9.8h2.6v13.3h-2.1v-9.5l-3,9.5H164l-3-9.5v9.5h-1.9V152.2z"/>
			<path class="st12" d="M172.6,161.7v-6.2h2v6.1c0,1.5,0.1,2.3,1.8,2.3c1.6,0,1.8-0.8,1.8-2.3v-6.1h2v6.2c0,2.8-0.6,4-3.8,4
				C173.3,165.7,172.6,164.5,172.6,161.7z"/>
			<path class="st12" d="M182,155.6l1.6-0.1l0.2,1.1c0.4-0.6,1.2-1.1,2.8-1.1v1.9c-2.4,0-2.6,1.5-2.6,3.2v5h-2V155.6z"/>
			<path class="st12" d="M187.1,160.5c0-3.2,0.8-5.2,4.1-5.2c3.6,0,3.6,2.3,3.6,6.2h-5.7c0.1,1.7,0.5,2.5,2.2,2.5
				c1.3,0,2-0.3,2.6-0.6l0.8,1.5c-0.8,0.5-1.9,0.8-3.5,0.8C187.8,165.7,187.1,163.7,187.1,160.5z M189.1,159.7h3.9
				c0-1.6-0.1-2.6-1.8-2.6C189.5,157.1,189.1,158.1,189.1,159.7z"/>
			<path class="st12" d="M195.7,155.5h1.6l0.3-2.5l1.6-0.3v2.9h2.3v1.8h-2.3v5.3c0,0.8,0.1,1.3,1.2,1.3h1.1v1.8
				c-0.3,0-1.1,0.1-1.4,0.1c-2.4,0-3-0.8-3-2.9v-5.5h-1.6V155.5z"/>
			<path class="st19" d="M170,173.7l1.4-0.1l0.1,1c0.4-0.7,1.2-1.2,3-1.2c2.6,0,2.9,1.5,2.9,3.7v6.5h-1.7v-6.1
				c0-1.6-0.2-2.4-1.8-2.4c-1.9,0-2.2,1.1-2.2,3.3v5.3H170V173.7z"/>
			<path class="st19" d="M179.1,174.3c0-2.4,0.6-4.2,3.3-4.2c2.7,0,3.3,1.9,3.3,4.2c0,2.4-0.6,4.2-3.3,4.2
				C179.7,178.6,179.1,176.7,179.1,174.3z M184.3,174.4c0-1.7-0.3-2.9-1.9-2.9c-1.6,0-1.9,1.2-1.9,2.9c0,1.7,0.3,2.9,1.9,2.9
				C184,177.3,184.3,176,184.3,174.4z"/>
			<path class="st19" d="M188.9,171.8h-1.9v-1.5h3.6v13.3h-1.7V171.8z"/>
			<path class="st19" d="M193,179.8c0-1.6,0.2-3,1.8-3.5c-1.3-0.5-1.5-1.6-1.5-2.9c0-1.7,0.6-3.2,3.8-3.2s3.8,1.5,3.8,3.2
				c0,1.3-0.2,2.4-1.5,2.9c1.7,0.5,1.8,1.9,1.8,3.5c0,2.1-0.5,3.9-4.2,3.9C193.5,183.7,193,181.9,193,179.8z M199.7,179.6
				c0-1.5-0.4-2.5-2.5-2.5c-2.1,0-2.5,1-2.5,2.5c0,1.5,0.4,2.6,2.5,2.6C199.3,182.2,199.7,181.1,199.7,179.6z M199.3,173.6
				c0-1.2-0.4-2-2.1-2c-1.7,0-2.2,0.8-2.2,2c0,1.2,0.5,2,2.2,2C198.9,175.6,199.3,174.8,199.3,173.6z"/>
		</g>
	</g>
	<line class="st33" x1="264.3" y1="158.2" x2="233" y2="158.2"/>
	<line class="st33" x1="212.3" y1="313.2" x2="181" y2="313.2"/>
</g>
<g id="A20">
</g>
<g id="A837">
</g>
<g id="A10">
</g>
<g id="A89">
</g>
<g id="A65_Source">
</g>
<g id="A65" class="st0">
</g>
<g id="A64_Source">
</g>
<g id="A64" class="st0">
</g>
<g id="A62">
</g>
<g id="TEXTE_MASQUE" class="st0">
	<g class="st7">
		<g>
			<line class="st15" x1="115.2" y1="440.7" x2="82.5" y2="440.7"/>
			<g>
				<polygon points="113.3,439 115,440.7 113.3,442.4 114.7,442.4 116.4,440.7 114.7,439 				"/>
			</g>
		</g>
	</g>
	<g class="st7">
		<text transform="matrix(1 0 0 1 -40.5707 440.2088)" class="st16"><tspan x="0" y="0" class="st12 st17 st18">Biarritz sud </tspan><tspan x="87" y="0" class="st19 st11 st48">n°4</tspan></text>
	</g>
	<g class="st7">
		<g>
			<line class="st15" x1="83.1" y1="475.2" x2="115.8" y2="475.2"/>
			<g>
				<polygon points="85,473.5 83.3,475.2 85,476.9 83.6,476.9 81.9,475.2 83.6,473.5 				"/>
			</g>
		</g>
	</g>
	<g class="st7">
		<text transform="matrix(1 0 0 1 118.7556 486.0438)" class="st16"><tspan x="0" y="0" class="st12 st17 st18">Biriatou </tspan><tspan x="62.7" y="0" class="st19 st11 st48">n°1</tspan></text>
	</g>
	<g class="st7">
		<g>
			<line class="st15" x1="141.6" y1="438.4" x2="401" y2="438.4"/>
			<g>
				<polygon points="143.5,436.7 141.8,438.4 143.5,440.1 142.1,440.1 140.4,438.4 142.1,436.7 				"/>
			</g>
		</g>
	</g>
	<g class="st7">
		<g>
			<line class="st15" x1="145.5" y1="419.5" x2="112.8" y2="419.5"/>
			<g>
				<polygon points="143.6,417.8 145.3,419.5 143.6,421.2 145,421.2 146.7,419.5 145,417.8 				"/>
			</g>
		</g>
	</g>
	<g class="st7">
		<text transform="matrix(1 0 0 1 -30.1603 418.9737)" class="st16"><tspan x="0" y="0" class="st12 st17 st18">Bayonne nord </tspan><tspan x="106.6" y="0" class="st19 st11 st48">n°6</tspan></text>
	</g>
	<g class="st7">
		<g>
			<line class="st15" x1="147.9" y1="410.4" x2="265.6" y2="410.4"/>
			<g>
				<polygon points="149.8,408.7 148.1,410.4 149.8,412.1 148.4,412.1 146.7,410.4 148.4,408.7 				"/>
			</g>
		</g>
	</g>
	<g class="st7">
		<text transform="matrix(1 0 0 1 268.6016 415.6029)" class="st16"><tspan x="0" y="0" class="st12 st17 st18">Ondres </tspan><tspan x="56.1" y="0" class="st19 st11 st48">n°7</tspan></text>
	</g>
	<g class="st7">
		<g>
			<line class="st15" x1="182.5" y1="369" x2="149.8" y2="369"/>
			<g>
				<polygon points="180.6,367.3 182.3,369 180.6,370.7 182,370.7 183.7,369 182,367.3 				"/>
			</g>
		</g>
	</g>
	<g class="st7">
		<text transform="matrix(1 0 0 1 -89.4899 379.8104)" class="st16"><tspan x="0" y="0" class="st12 st17 st18">Saint-Geours-de-Maremne </tspan><tspan x="202.9" y="0" class="st19 st11 st48">n°9</tspan></text>
	</g>
	<g class="st7">
		<g>
			<line class="st15" x1="184.7" y1="363.2" x2="152.1" y2="363.2"/>
			<g>
				<polygon points="182.8,361.5 184.5,363.2 182.8,364.9 184.2,364.9 185.9,363.2 184.2,361.5 				"/>
			</g>
		</g>
	</g>
	<g class="st7">
		<text transform="matrix(1 0 0 1 43.3437 362.6718)" class="st16"><tspan x="0" y="0" class="st12 st17 st18">Souston </tspan><tspan x="65.5" y="0" class="st19 st11 st48">n°10</tspan></text>
	</g>
	<g class="st7">
		<text transform="matrix(1 0 0 1 237.5871 338.4095)" class="st16"><tspan x="0" y="0" class="st12 st17 st18">Magesq </tspan><tspan x="61.6" y="0" class="st19 st11 st48">n°11</tspan></text>
	</g>
	<g class="st7">
		<g>
			<line class="st15" x1="226.2" y1="280" x2="193.6" y2="280"/>
			<g>
				<polygon points="224.3,278.3 226,280 224.3,281.7 225.7,281.7 227.4,280 225.7,278.3 				"/>
			</g>
		</g>
	</g>
	<g class="st7">
		<text transform="matrix(1 0 0 1 80.5465 279.4931)" class="st16"><tspan x="0" y="0" class="st12 st17 st18">Lesperon </tspan><tspan x="71.7" y="0" class="st19 st11 st48">n°13</tspan></text>
	</g>
	<g class="st7">
		<g>
			<line class="st15" x1="254.8" y1="221.6" x2="222.2" y2="221.6"/>
			<g>
				<polygon points="252.9,219.9 254.6,221.6 252.9,223.3 254.3,223.3 256,221.6 254.3,219.9 				"/>
			</g>
		</g>
	</g>
	<g class="st7">
		<text transform="matrix(1 0 0 1 87.7857 221.5664)" class="st16"><tspan x="0" y="0" class="st12 st17 st18">Labouheyre </tspan><tspan x="91.3" y="0" class="st19 st11 st48">n°16</tspan></text>
	</g>
	<g class="st7">
		<g>
			<line class="st15" x1="242.3" y1="236.1" x2="209.6" y2="236.1"/>
			<g>
				<polygon points="240.4,234.4 242.1,236.1 240.4,237.8 241.8,237.8 243.5,236.1 241.8,234.4 				"/>
			</g>
		</g>
	</g>
	<g class="st7">
		<text transform="matrix(1 0 0 1 98.2833 244.5702)" class="st16"><tspan x="0" y="0" class="st12 st17 st18">Escource </tspan><tspan x="69.1" y="0" class="st19 st11 st48">n°15</tspan></text>
	</g>
	<g class="st7">
		<g>
			<line class="st15" x1="265.1" y1="177.5" x2="232.4" y2="177.5"/>
			<g>
				<polygon points="263.2,175.8 264.9,177.5 263.2,179.2 264.6,179.2 266.3,177.5 264.6,175.8 				"/>
			</g>
		</g>
	</g>
	<g class="st7">
		<g>
			<line class="st15" x1="278.3" y1="138.6" x2="254.1" y2="138.6"/>
			<g>
				<polygon points="276.4,136.9 278.1,138.6 276.4,140.3 277.8,140.3 279.5,138.6 277.8,136.9 				"/>
			</g>
		</g>
	</g>
	<g class="st7">
		<text transform="matrix(1 0 0 1 118.7778 140.9111)" class="st16"><tspan x="0" y="0" class="st12 st17 st18">Belin-Béliet </tspan><tspan x="91.3" y="0" class="st19 st11 st48">n°20</tspan></text>
	</g>
	<g class="st7">
		<g>
			<line class="st15" x1="275.6" y1="117.1" x2="251.5" y2="117.1"/>
			<g>
				<polygon points="273.7,115.4 275.4,117.1 273.7,118.8 275.1,118.8 276.8,117.1 275.1,115.4 				"/>
			</g>
		</g>
	</g>
	<g class="st7">
		<g>
			<line class="st15" x1="274.4" y1="92.6" x2="261.6" y2="92.6"/>
			<g>
				<polygon points="272.5,90.9 274.2,92.6 272.5,94.3 273.9,94.3 275.6,92.6 273.9,90.9 				"/>
			</g>
		</g>
	</g>
	<g class="st7">
		<text transform="matrix(1 0 0 1 164.4702 119.3972)" class="st16"><tspan x="0" y="0" class="st12 st17 st18">Salles </tspan><tspan x="48.5" y="0" class="st19 st11 st48">n°21</tspan></text>
	</g>
	<g class="st7">
		<g>
			<line class="st15" x1="277.6" y1="63.4" x2="253.4" y2="63.4"/>
			<g>
				<polygon points="275.7,61.7 277.4,63.4 275.7,65.1 277.1,65.1 278.8,63.4 277.1,61.7 				"/>
			</g>
		</g>
	</g>
	<g class="st7">
		<text transform="matrix(1 0 0 1 157.905 58.8423)" class="st16"><tspan x="0" y="0" class="st12 st17 st18">Le Barp </tspan><tspan x="59.4" y="0" class="st19 st11 st48">n°23</tspan></text>
	</g>
	<g class="st7">
		<g>
			<line class="st15" x1="306.1" y1="40.7" x2="281.9" y2="40.7"/>
			<g>
				<polygon points="304.2,39 305.9,40.7 304.2,42.4 305.6,42.4 307.3,40.7 305.6,39 				"/>
			</g>
		</g>
	</g>
	<g class="st7">
		<text transform="matrix(1 0 0 1 186.6388 38.9612)" class="st16"><tspan x="0" y="0" class="st12 st17 st18">Cestas </tspan><tspan x="53" y="0" class="st19 st11 st48">n°25</tspan></text>
	</g>
	<g class="st7">
		<text transform="matrix(1 0 0 1 63.8272 92.6123)" class="st16"><tspan x="0" y="0" class="st12 st17 st18">Échangeur Arcachon </tspan><tspan x="155.6" y="0" class="st19 st11 st48">n°22</tspan></text>
	</g>
	<g class="st7">
		<g>
			<line class="st15" x1="200.9" y1="338.4" x2="233.6" y2="338.4"/>
			<g>
				<polygon points="202.8,336.7 201.1,338.4 202.8,340.1 201.4,340.1 199.7,338.4 201.4,336.7 				"/>
			</g>
		</g>
	</g>
	<g class="st7">
		<text transform="matrix(1 0 0 1 277.087 264.3163)" class="st16"><tspan x="0" y="0" class="st12 st17 st18">Onesse-et-</tspan><tspan x="0" y="21" class="st12 st17 st18">Laharie </tspan><tspan x="59" y="21" class="st19 st11 st48">n°14</tspan></text>
	</g>
	<g class="st7">
		<g>
			<line class="st15" x1="240.4" y1="264.3" x2="273.1" y2="264.3"/>
			<g>
				<polygon points="242.3,262.6 240.6,264.3 242.3,266 240.9,266 239.2,264.3 240.9,262.6 				"/>
			</g>
		</g>
	</g>
	<g class="st7">
		<g>
			<line class="st15" x1="296" y1="56.7" x2="328.7" y2="56.7"/>
			<g>
				<polygon points="297.9,55 296.2,56.7 297.9,58.4 296.5,58.4 294.8,56.7 296.5,55 				"/>
			</g>
		</g>
	</g>
	<g class="st7">
		<text transform="matrix(1 0 0 1 107.9795 186.0007)" class="st16"><tspan x="0" y="0" class="st12 st17 st18">Biscarrosse </tspan><tspan x="87.3" y="0" class="st19 st11 st48">n°17</tspan></text>
	</g>
	<g class="st7">
		<g>
			<polyline class="st15" points="98,460.8 23.3,460.8 23.3,488.6 			"/>
			<g>
				<polygon points="96.1,459.1 97.8,460.8 96.1,462.5 97.5,462.5 99.2,460.8 97.5,459.1 				"/>
			</g>
		</g>
	</g>
	<g class="st7">
		<text transform="matrix(1 0 0 1 6.1124 503.6075)" class="st16"><tspan x="0" y="0" class="st12 st17 st18">Saint-Jean-</tspan><tspan x="0" y="18" class="st12 st17 st18">de-Luz sud</tspan><tspan x="0" y="36" class="st19 st11 st18">n°2</tspan></text>
	</g>
</g>
</svg>
