<?xml version="1.0" encoding="utf-8"?>
<!-- Generator: Adobe Illustrator 21.1.0, SVG Export Plug-In . SVG Version: 6.00 Build 0)  -->
<svg version="1.1" xmlns="http://www.w3.org/2000/svg" xmlns:xlink="http://www.w3.org/1999/xlink" x="0px" y="0px"
	 viewBox="0 0 320 512" style="enable-background:new 0 0 320 512;" xml:space="preserve">
<style type="text/css">
	.st0{fill:none;stroke:#C5C6C8;stroke-width:7;stroke-miterlimit:10;}
	.st1{fill:none;stroke:#E6E6E6;stroke-width:7;stroke-miterlimit:10;}
	.st2{fill:#E6E6E6;}
	.st3{enable-background:new    ;}
	.st4{fill:#808080;}
	.st5{fill:none;stroke:#4A170D;stroke-width:9.8873;stroke-miterlimit:10;}
	.st6{fill:none;stroke:#FEABA6;stroke-width:9.8873;stroke-miterlimit:10;}
	.st7{fill:none;stroke:#D42E1A;stroke-width:9.8873;stroke-miterlimit:10;}
	.st8{fill:#FFFFFF;stroke:#000000;stroke-width:0.5;stroke-miterlimit:10;}
	.st9{fill:none;stroke:#000000;stroke-miterlimit:10;}
	.st10{fill:#D42E1A;}
	.st11{fill:#B0B2B3;}
	.st12{fill:none;stroke:#FFFFFF;stroke-width:3.5406;stroke-miterlimit:10;}
	.st13{display:none;}
	.st14{display:inline;fill:none;stroke:#C5C6C8;stroke-width:16.301;stroke-miterlimit:10;}
	.st15{display:inline;fill:none;stroke:#C5C6C8;stroke-width:7;stroke-miterlimit:10;}
	.st16{display:inline;fill:none;stroke:#E6E6E6;stroke-width:7;stroke-miterlimit:10;}
	.st17{display:inline;}
	.st18{display:inline;fill:#E6E6E6;}
	.st19{font-family:'AntennaCond-Regular';}
	.st20{font-size:19px;}
	.st21{font-size:27px;}
	.st22{display:inline;fill:none;stroke:#FEABA6;stroke-width:9.8873;stroke-miterlimit:10;}
	.st23{display:inline;fill:none;stroke:#70C25C;stroke-width:9.8873;stroke-miterlimit:10;}
	.st24{display:inline;fill:none;stroke:#D42E1A;stroke-width:9.8873;stroke-miterlimit:10;}
	.st25{font-family:'AntennaCond-Light';}
	.st26{font-family:'AntennaCond-Medium';}
	.st27{font-size:18px;}
	.st28{font-size:20px;}
	.st29{fill:#70C25C;}
	.st30{font-family:'Webdings';}
	.st31{font-size:14px;}
	.st32{font-family:'AntennaCond-LightItalic';}
	.st33{fill:#4D4D4D;}
	.st34{display:inline;fill:none;stroke:#808080;stroke-width:0.75;stroke-miterlimit:10;}
	.st35{fill:none;stroke:#C5C6C8;stroke-width:16.301;stroke-miterlimit:10;}
	.st36{fill:none;stroke:#70C25C;stroke-width:9.8873;stroke-miterlimit:10;}
	.st37{fill:none;stroke:#808080;stroke-width:0.75;stroke-miterlimit:10;}
	.st38{fill:none;stroke:#C5C6C8;stroke-width:13.3148;stroke-miterlimit:10;}
	.st39{fill:none;stroke:#C6C6C6;stroke-width:7;stroke-miterlimit:10;}
	.st40{fill:none;stroke:#FFFFFF;stroke-width:3.3287;stroke-miterlimit:10;}
	.st41{display:inline;fill:none;stroke:#C5C6C8;stroke-width:13.3148;stroke-miterlimit:10;}
	.st42{display:inline;fill:none;stroke:#C6C6C6;stroke-width:7;stroke-miterlimit:10;}
	.st43{display:inline;fill:none;stroke:#FFFFFF;stroke-width:3.3287;stroke-miterlimit:10;}
	.st44{display:inline;enable-background:new    ;}
	.st45{fill:none;stroke:#FFFFFF;stroke-width:2.4718;stroke-miterlimit:10;}
	.st46{fill:none;stroke:#79170D;stroke-width:9.8873;stroke-miterlimit:10;}
</style>
<g id="A63">
</g>
<g id="A20">
</g>
<g id="A837">
</g>
<g id="A10">
</g>
<g id="A89">
</g>
<g id="A65_Source" class="st13">
	<polyline class="st15" points="193.6,133.9 193.6,237.2 163.4,267.4 163.4,398.5 134,429.9 	"/>
	<line class="st16" x1="162" y1="457.9" x2="104.3" y2="400.2"/>
	<polyline class="st16" points="97,43.3 193.6,133.9 219.1,133.9 245.6,160.7 	"/>
	<g class="st17">
		<g>
			
				<ellipse transform="matrix(0.7071 -0.7071 0.7071 0.7071 -49.6587 194.1315)" class="st8" cx="209.5" cy="157" rx="9.1" ry="9.1"/>
		</g>
	</g>
	<g class="st17">
		<g>
			
				<ellipse transform="matrix(0.7071 -0.7071 0.7071 0.7071 -288.3054 225.9479)" class="st8" cx="128.6" cy="461" rx="9.1" ry="9.1"/>
		</g>
	</g>
	<text transform="matrix(1 0 0 1 52.5724 29.6845)" class="st18 st19 st20">BORDEAUX</text>
	<ellipse transform="matrix(0.7071 -0.7071 0.7071 0.7071 -0.9318 78.737)" class="st18" cx="94.6" cy="40.5" rx="7.5" ry="7.5"/>
	<text transform="matrix(1 0 0 1 3.0178 303.0179)" class="st18 st19 st20">MONT-DE-MARSAN</text>
	
		<ellipse transform="matrix(0.7071 -0.7071 0.7071 0.7071 -155.5586 181.4349)" class="st18" cx="141.2" cy="278.5" rx="7.5" ry="7.5"/>
	<g class="st17">
		<text transform="matrix(1 0 0 1 197.6972 126.3448)" class="st4 st19 st21">BAZAS</text>
	</g>
	<g class="st17">
		<text transform="matrix(1 0 0 1 67.4234 471.6782)" class="st4 st19 st21">PAU</text>
	</g>
	<line class="st22" x1="193.6" y1="149.6" x2="193.6" y2="198.1"/>
	<polyline class="st22" points="176,254.8 193.6,237.2 193.6,198.1 	"/>
	<polyline class="st23" points="163.4,315.1 163.4,267.4 164.5,266.3 	"/>
	<line class="st23" x1="164.5" y1="266.3" x2="176" y2="254.8"/>
	<line class="st23" x1="163.4" y1="322.4" x2="163.4" y2="315.1"/>
	<line class="st23" x1="163.4" y1="369.5" x2="163.4" y2="322.4"/>
	<polyline class="st24" points="161.5,400.5 163.4,398.5 163.4,367.8 	"/>
	<g class="st17">
		<text transform="matrix(1 0 0 1 161.1445 101.5274)" class="st2 st25 st20">A62</text>
	</g>
	<g class="st17">
		<text transform="matrix(1 0 0 1 75.3893 426.8605)" class="st2 st25 st20">A64</text>
	</g>
	<g class="st17">
		<text transform="matrix(1 0 0 1 94.8747 155.2449)" class="st3"><tspan x="0" y="0" class="st4 st26 st27">Bazas</tspan><tspan x="18.7" y="21" class="st10 st19 st28">n°1</tspan></text>
	</g>
	<g class="st17">
		<text transform="matrix(1 0 0 1 249.5351 203.5794)" class="st3"><tspan x="0" y="0" class="st4 st26 st27">Captieux</tspan><tspan x="0" y="21" class="st10 st19 st28">n°2</tspan></text>
	</g>
	<g class="st17">
		<g>
			<line class="st9" x1="199.4" y1="198.1" x2="246" y2="198.1"/>
			<g>
				<polygon points="201.4,199.8 199.7,198.1 201.4,196.4 199.9,196.4 198.2,198.1 199.9,199.8 				"/>
			</g>
		</g>
	</g>
	<g class="st17">
		<text transform="matrix(1 0 0 1 214.1134 403.8084)" class="st3"><tspan x="0" y="0" class="st4 st26 st27">Morlaàs</tspan><tspan x="0" y="21" class="st10 st19 st28">n°9</tspan></text>
	</g>
	<g class="st17">
		<g>
			<line class="st9" x1="164" y1="398.3" x2="210.6" y2="398.3"/>
			<g>
				<polygon points="166,400 164.3,398.3 166,396.6 164.5,396.6 162.8,398.3 164.5,400 				"/>
			</g>
		</g>
	</g>
	<g class="st17">
		<text transform="matrix(1 0 0 1 42.4014 254.8115)" class="st3"><tspan x="0" y="0" class="st4 st26 st27">Roquefort</tspan><tspan x="47.1" y="21" class="st10 st19 st28">n°3</tspan></text>
	</g>
	<g class="st17">
		<g>
			<line class="st9" x1="171" y1="251.4" x2="124.4" y2="251.4"/>
			<g>
				<polygon points="169,253.1 170.7,251.4 169,249.7 170.5,249.7 172.2,251.4 170.5,253.1 				"/>
			</g>
		</g>
	</g>
	<g class="st17">
		<g>
			<line class="st9" x1="190" y1="149.6" x2="146" y2="149.6"/>
			<g>
				<polygon points="188.1,147.9 189.8,149.6 188.1,151.3 189.5,151.3 191.2,149.6 189.5,147.9 				"/>
			</g>
		</g>
	</g>
	<g class="st17">
		<text transform="matrix(1 0 0 1 78.5505 375.1834)" class="st3"><tspan x="0" y="0" class="st4 st26 st27">Garlin</tspan><tspan x="13.4" y="21" class="st10 st19 st28">n°8</tspan></text>
	</g>
	<g class="st17">
		<g>
			<line class="st9" x1="159.2" y1="369.5" x2="129.4" y2="369.5"/>
			<g>
				<polygon points="157.3,367.8 159,369.5 157.3,371.2 158.7,371.2 160.4,369.5 158.7,367.8 				"/>
			</g>
		</g>
	</g>
	<g class="st17">
		<g>
			<text transform="matrix(1 0 0 1 9.9225 501.2831)" class="st3"><tspan x="0" y="0" class="st29 st30 st31"></tspan><tspan x="14" y="1" class="st4 st32 st31"> </tspan><tspan x="16.6" y="1" class="st33 st32 st31">Sections les moins chères   </tspan><tspan x="159.4" y="0" class="st10 st30 st31"></tspan><tspan x="173.4" y="1" class="st4 st32 st31"> </tspan><tspan x="176" y="1" class="st33 st32 st31">Sections les plus chères</tspan></text>
		</g>
	</g>
	<line class="st34" x1="6" y1="487.1" x2="312.1" y2="487.1"/>
	<line class="st34" x1="312.1" y1="507.6" x2="6" y2="507.6"/>
</g>
<g id="A65">
	<polyline class="st0" points="193.6,133.9 193.6,237.2 163.4,267.4 163.4,398.5 134,429.9 	"/>
	<line class="st1" x1="162" y1="457.9" x2="104.3" y2="400.2"/>
	<polyline class="st1" points="97,43.3 193.6,133.9 219.1,133.9 245.6,160.7 	"/>
	<g>
		<g>
			
				<ellipse transform="matrix(0.7071 -0.7071 0.7071 0.7071 -49.6587 194.1315)" class="st8" cx="209.5" cy="157" rx="9.1" ry="9.1"/>
		</g>
	</g>
	<g>
		<g>
			
				<ellipse transform="matrix(0.7071 -0.7071 0.7071 0.7071 -288.3054 225.9479)" class="st8" cx="128.6" cy="461" rx="9.1" ry="9.1"/>
		</g>
	</g>
	<g class="st3">
		<path class="st2" d="M53.8,15.6h4.5c2.8,0,4.1,1,4.1,3.6c0,1.8-0.7,2.8-1.7,3.1c1.3,0.4,2,1.4,2,3.5c0,2.9-1.7,3.9-4.3,3.9h-4.6
			V15.6z M58.2,21.6c1.5,0,2.3-0.5,2.3-2.2c0-1.7-0.8-2.2-2.3-2.2h-2.6v4.4H58.2z M58.4,28.1c1.5,0,2.5-0.5,2.5-2.4
			c0-1.9-1-2.4-2.5-2.4h-2.8v4.8H58.4z"/>
		<path class="st2" d="M64,22.7c0-3.9,0.6-7.2,5.4-7.2c4.7,0,5.3,3.3,5.3,7.2c0,3.9-0.6,7.2-5.3,7.2C64.6,29.8,64,26.5,64,22.7z
			 M72.9,22.7c0-3.2-0.3-5.5-3.5-5.5c-3.2,0-3.5,2.3-3.5,5.5c0,3.2,0.3,5.5,3.5,5.5C72.5,28.2,72.9,25.9,72.9,22.7z"/>
		<path class="st2" d="M81,24.3h-2.6v5.4h-1.8V15.6h4.7c2.9,0,4.2,1.4,4.2,4.2c0,2.3-0.8,3.8-2.7,4.3l2.5,5.6h-1.9L81,24.3z
			 M81.3,22.6c1.7,0,2.4-0.7,2.4-2.7c0-1.9-0.7-2.6-2.4-2.6h-2.9v5.3H81.3z"/>
		<path class="st2" d="M87.6,15.6h4c4.4,0,5.5,2.3,5.5,7c0,4.8-1.1,7-5.6,7h-3.9V15.6z M91.6,28.1c3,0,3.6-1.7,3.6-5.4
			c0-3.6-0.6-5.4-3.6-5.4h-2.2v10.8H91.6z"/>
		<path class="st2" d="M99,15.6h7.7v1.7h-5.9v4.3h5.6v1.7h-5.6V28h6v1.7H99V15.6z"/>
		<path class="st2" d="M112.1,15.5h1.9l4.3,14.2h-1.9l-0.9-2.9h-5.2l-0.8,2.9h-1.8L112.1,15.5z M115.2,25.1l-2.1-7l-2.1,7H115.2z"/>
		<path class="st2" d="M119.4,25v-9.4h1.8v9.3c0,2.2,0.6,3.3,3,3.3c2.4,0,3-1.1,3-3.3v-9.3h1.8V25c0,3.1-1,4.9-4.8,4.9
			C120.6,29.9,119.4,28.1,119.4,25z"/>
		<path class="st2" d="M135.4,24l-3,5.7h-2l4-7.4l-3.7-6.7h2l2.8,5.1l2.6-5.1h2l-3.7,6.7l4,7.4h-2L135.4,24z"/>
	</g>
	<ellipse transform="matrix(0.7071 -0.7071 0.7071 0.7071 -0.9318 78.737)" class="st2" cx="94.6" cy="40.5" rx="7.5" ry="7.5"/>
	<g class="st3">
		<path class="st2" d="M4.3,288.9h2.3l3.5,10.9l3.5-10.9h2.3V303h-1.8v-10.6L10.7,303H9.3l-3.4-10.6V303H4.3V288.9z"/>
		<path class="st2" d="M17.7,296c0-3.9,0.6-7.2,5.4-7.2c4.7,0,5.3,3.3,5.3,7.2c0,3.9-0.6,7.2-5.3,7.2
			C18.4,303.2,17.7,299.9,17.7,296z M26.6,296c0-3.2-0.3-5.5-3.5-5.5c-3.2,0-3.5,2.3-3.5,5.5c0,3.2,0.3,5.5,3.5,5.5
			C26.3,301.5,26.6,299.2,26.6,296z"/>
		<path class="st2" d="M30.3,288.9h2l5.7,10.4v-10.4h1.8V303H38l-6-10.9V303h-1.7V288.9z"/>
		<path class="st2" d="M45.2,290.6h-4v-1.7H51v1.7h-4V303h-1.8V290.6z"/>
		<path class="st2" d="M51.1,296.2h5.3v1.7h-5.3V296.2z"/>
		<path class="st2" d="M58.4,288.9h4c4.4,0,5.5,2.3,5.5,7c0,4.8-1.1,7-5.6,7h-3.9V288.9z M62.4,301.4c3,0,3.6-1.7,3.6-5.4
			c0-3.6-0.6-5.4-3.6-5.4h-2.2v10.8H62.4z"/>
		<path class="st2" d="M69.8,288.9h7.7v1.7h-5.9v4.3h5.6v1.7h-5.6v4.8h6v1.7h-7.8V288.9z"/>
		<path class="st2" d="M79.1,296.2h5.3v1.7h-5.3V296.2z"/>
		<path class="st2" d="M86.3,288.9h2.3l3.5,10.9l3.5-10.9H98V303h-1.8v-10.6L92.7,303h-1.3L88,292.4V303h-1.6V288.9z"/>
		<path class="st2" d="M103.9,288.8h1.9l4.3,14.2h-1.9l-0.9-2.9h-5.2l-0.8,2.9h-1.8L103.9,288.8z M107,298.4l-2.1-7l-2.1,7H107z"/>
		<path class="st2" d="M116.2,297.6h-2.6v5.4h-1.8v-14.1h4.7c2.9,0,4.2,1.4,4.2,4.2c0,2.3-0.8,3.8-2.7,4.3l2.5,5.6h-1.9L116.2,297.6
			z M116.5,295.9c1.7,0,2.4-0.7,2.4-2.7c0-1.9-0.7-2.6-2.4-2.6h-2.9v5.3H116.5z"/>
		<path class="st2" d="M121.8,302l0.9-1.4c0.7,0.4,1.9,1,3.6,1c1.8,0,2.7-0.8,2.7-2.1c0-1.6-0.8-2-3.1-2.9c-2.3-1-3.6-1.8-3.6-4
			c0-2.3,1.4-3.7,4.2-3.7c1.6,0,2.8,0.3,3.7,0.8l-0.8,1.6c-0.7-0.3-1.7-0.6-2.9-0.6c-1.7,0-2.5,0.7-2.5,1.9c0,1.3,0.6,1.7,2.6,2.6
			c2.9,1.2,4.1,1.9,4.1,4.5c0,2.3-1.5,3.7-4.4,3.7C124.2,303.2,122.8,302.6,121.8,302z"/>
		<path class="st2" d="M135.8,288.8h1.9l4.3,14.2h-1.9l-0.9-2.9h-5.2l-0.8,2.9h-1.8L135.8,288.8z M138.9,298.4l-2.1-7l-2.1,7H138.9z
			"/>
		<path class="st2" d="M143.7,288.9h2l5.7,10.4v-10.4h1.8V303h-1.7l-6-10.9V303h-1.7V288.9z"/>
	</g>
	
		<ellipse transform="matrix(0.7071 -0.7071 0.7071 0.7071 -155.5586 181.4349)" class="st2" cx="141.2" cy="278.5" rx="7.5" ry="7.5"/>
	<g>
		<g>
			<path class="st4" d="M199.5,106.3h6.4c3.9,0,5.8,1.5,5.8,5c0,2.6-1,3.9-2.5,4.5c1.9,0.6,2.9,2,2.9,5c0,4.1-2.3,5.5-6.1,5.5h-6.5
				V106.3z M205.7,114.9c2.1,0,3.3-0.7,3.3-3.2c0-2.4-1.2-3.1-3.3-3.1H202v6.2H205.7z M206,124.1c2.1,0,3.5-0.7,3.5-3.5
				c0-2.7-1.4-3.4-3.5-3.4H202v6.9H206z"/>
			<path class="st4" d="M219.4,106.2h2.8l6.2,20.1h-2.6l-1.2-4.2h-7.4l-1.2,4.2h-2.6L219.4,106.2z M223.8,119.8l-3-9.9l-3,9.9H223.8
				z"/>
			<path class="st4" d="M229.7,124.3l9.3-15.6h-8.9v-2.4h12v2.2l-9.2,15.5h9.5v2.3h-12.6V124.3z"/>
			<path class="st4" d="M249.7,106.2h2.8l6.2,20.1h-2.6l-1.2-4.2h-7.4l-1.2,4.2h-2.6L249.7,106.2z M254,119.8l-3-9.9l-3,9.9H254z"/>
			<path class="st4" d="M259.6,124.9l1.3-2c1,0.6,2.7,1.4,5.2,1.4c2.6,0,3.8-1.1,3.8-3c0-2.3-1.2-2.9-4.4-4.2
				c-3.3-1.4-5.1-2.6-5.1-5.7c0-3.2,2.1-5.2,6-5.2c2.3,0,3.9,0.4,5.3,1.1l-1.1,2.2c-1-0.5-2.3-0.9-4.2-0.9c-2.4,0-3.5,1.1-3.5,2.7
				c0,1.9,0.8,2.4,3.7,3.6c4.1,1.7,5.8,2.7,5.8,6.3c0,3.3-2.1,5.3-6.3,5.3C263.1,126.6,261,125.8,259.6,124.9z"/>
		</g>
	</g>
	<g>
		<g>
			<path class="st4" d="M69.2,451.7H76c4.2,0,5.9,2,5.9,6.1c0,4-1.8,6.3-6,6.3h-4.2v7.6h-2.6V451.7z M75.9,461.7
				c2.4,0,3.5-1,3.5-3.9s-1.1-3.8-3.5-3.8h-4.1v7.7H75.9z"/>
			<path class="st4" d="M87.3,451.5h2.8l6.2,20.1h-2.6l-1.2-4.2H85l-1.2,4.2h-2.6L87.3,451.5z M91.7,465.1l-3-9.9l-3,9.9H91.7z"/>
			<path class="st4" d="M97.7,465v-13.3h2.6v13.1c0,3.1,0.8,4.7,4.2,4.7c3.4,0,4.3-1.6,4.3-4.7v-13.1h2.5V465c0,4.4-1.5,6.9-6.8,6.9
				C99.3,471.9,97.7,469.4,97.7,465z"/>
		</g>
	</g>
	<line class="st6" x1="193.6" y1="149.6" x2="193.6" y2="198.1"/>
	<polyline class="st6" points="176,254.8 193.6,237.2 193.6,198.1 	"/>
	<polyline class="st36" points="163.4,315.1 163.4,267.4 164.5,266.3 	"/>
	<line class="st36" x1="164.5" y1="266.3" x2="176" y2="254.8"/>
	<line class="st36" x1="163.4" y1="322.4" x2="163.4" y2="315.1"/>
	<line class="st36" x1="163.4" y1="369.5" x2="163.4" y2="322.4"/>
	<polyline class="st7" points="161.5,400.5 163.4,398.5 163.4,367.8 	"/>
	<g>
		<g class="st3">
			<path class="st2" d="M165.9,87.4h1.5l4.3,14.2h-1.4l-1-3.2h-5.4l-0.9,3.2h-1.4L165.9,87.4z M168.9,97l-2.3-7.6l-2.3,7.6H168.9z"
				/>
			<path class="st2" d="M173.2,95.9c0-5.7,0.2-8.5,5.9-8.5h0.9v1.3h-1c-3.9,0-4.2,1.8-4.4,4.6c0.6-0.8,1.7-1.2,3.2-1.2
				c3.1,0,3.6,1.7,3.6,4.5c0,3.3-0.8,5-4,5C173.7,101.7,173.2,99.7,173.2,95.9z M180.1,96.7c0-2.2-0.5-3.3-2.6-3.3
				c-1.7,0-2.9,0.9-2.9,3.2c0,2.7,0.5,3.9,2.9,3.9C179.6,100.4,180.1,99.2,180.1,96.7z"/>
			<path class="st2" d="M182.9,100.4l2.9-3.9c2.6-3.4,2.9-4.2,2.9-5.7c0-1.5-0.5-2.2-2.2-2.2c-1.2,0-2.1,0.2-2.9,0.6l-0.6-1.2
				c0.9-0.5,2-0.8,3.6-0.8c2.5,0,3.4,1.1,3.4,3.4c0,2-0.6,3.1-3.3,6.6l-2.3,3h5.7v1.2h-7.4V100.4z"/>
		</g>
	</g>
	<g>
		<g class="st3">
			<path class="st2" d="M80.1,412.7h1.5l4.3,14.2h-1.4l-1-3.2h-5.4l-0.9,3.2h-1.4L80.1,412.7z M83.1,422.3l-2.3-7.6l-2.3,7.6H83.1z"
				/>
			<path class="st2" d="M87.4,421.3c0-5.7,0.2-8.5,5.9-8.5h0.9v1.3h-1c-3.9,0-4.2,1.8-4.4,4.6c0.6-0.8,1.7-1.2,3.2-1.2
				c3.1,0,3.6,1.7,3.6,4.5c0,3.3-0.8,5-4,5C87.9,427,87.4,425,87.4,421.3z M94.3,422c0-2.2-0.5-3.3-2.6-3.3c-1.7,0-2.9,0.9-2.9,3.2
				c0,2.7,0.5,3.9,2.9,3.9C93.9,425.8,94.3,424.5,94.3,422z"/>
			<path class="st2" d="M97.3,422.4l4.9-9.6h1.5l-4.9,9.5h4.1l0.3-4.4h1v4.4h1.9v1.2h-1.9v3.3h-1.3v-3.3h-5.5V422.4z"/>
		</g>
	</g>
	<g>
		<g class="st3">
			<path class="st4" d="M96.1,141.9h4.4c2.8,0,4,1.1,4,3.4c0,1.7-0.6,2.6-1.7,3c1.3,0.4,1.9,1.4,1.9,3.3c0,2.7-1.6,3.7-4.2,3.7h-4.6
				V141.9z M100.5,147.5c1.3,0,2-0.5,2-1.9s-0.7-1.9-2-1.9h-2.3v3.8H100.5z M100.7,153.5c1.3,0,2.1-0.5,2.1-2.1
				c0-1.6-0.8-2.1-2.1-2.1h-2.5v4.1H100.7z"/>
			<path class="st4" d="M106.1,152.2c0-2.9,1.7-3.7,5.2-3.7h0.4c0-1.2-0.3-1.7-1.6-1.7c-1.1,0-1.9,0.3-2.5,0.5l-0.8-1.6
				c0.8-0.4,2-0.7,3.5-0.7c2.7,0,3.4,1,3.4,3.5v4.1c0,0.7,0.1,0.9,0.8,0.9v1.8c-0.2,0-0.4,0-0.6,0c-1.1,0-1.6-0.2-1.8-0.9
				c-0.6,0.7-1.5,1-2.8,1C106.7,155.4,106.1,154.1,106.1,152.2z M111.6,151.4v-1.2h-0.4c-2.3,0-3.3,0.3-3.3,1.9
				c0,1.3,0.5,1.7,1.5,1.7C110.7,153.7,111.6,153.2,111.6,151.4z"/>
			<path class="st4" d="M115.2,153.9l4.3-6.9h-4.1v-1.8h6.6v1.4l-4.3,7h4.5v1.7h-7V153.9z"/>
			<path class="st4" d="M122.9,152.2c0-2.9,1.7-3.7,5.2-3.7h0.4c0-1.2-0.3-1.7-1.6-1.7c-1.1,0-1.9,0.3-2.5,0.5l-0.8-1.6
				c0.8-0.4,2-0.7,3.5-0.7c2.7,0,3.4,1,3.4,3.5v4.1c0,0.7,0.1,0.9,0.8,0.9v1.8c-0.2,0-0.4,0-0.6,0c-1.1,0-1.6-0.2-1.8-0.9
				c-0.6,0.7-1.5,1-2.8,1C123.6,155.4,122.9,154.1,122.9,152.2z M128.5,151.4v-1.2h-0.4c-2.3,0-3.3,0.3-3.3,1.9
				c0,1.3,0.5,1.7,1.5,1.7C127.6,153.7,128.5,153.2,128.5,151.4z"/>
			<path class="st4" d="M132,154.7l0.8-1.6c0.7,0.3,1.7,0.6,2.8,0.6c1,0,1.5-0.3,1.5-1.2c0-0.8-0.5-1.1-2-1.7
				c-1.7-0.7-2.7-1.3-2.7-3c0-2,1.3-2.9,3.4-2.9c1.3,0,2.1,0.2,2.9,0.5l-0.8,1.7c-0.6-0.2-1.3-0.4-2.1-0.4c-1,0-1.4,0.4-1.4,1
				c0,0.7,0.5,1,1.9,1.5c1.8,0.7,2.8,1.3,2.8,3.2c0,1.9-1.2,2.8-3.4,2.8C134.2,155.4,132.9,155.1,132,154.7z"/>
			<path class="st10" d="M114.7,165.2l1.5-0.1l0.2,1.1c0.5-0.8,1.3-1.3,3.3-1.3c2.8,0,3.2,1.7,3.2,4.1v7.2h-1.9v-6.8
				c0-1.8-0.2-2.7-2-2.7c-2.2,0-2.5,1.2-2.5,3.7v5.8h-1.9V165.2z"/>
			<path class="st10" d="M124.9,166c0-2.6,0.6-4.7,3.6-4.7s3.6,2.1,3.6,4.7c0,2.6-0.6,4.7-3.6,4.7S124.9,168.6,124.9,166z
				 M130.6,166c0-1.8-0.3-3.2-2.1-3.2c-1.8,0-2.1,1.4-2.1,3.2c0,1.8,0.3,3.2,2.1,3.2C130.4,169.2,130.6,167.9,130.6,166z"/>
			<path class="st10" d="M135.7,163.1h-2.2v-1.7h4v14.8h-1.9V163.1z"/>
		</g>
	</g>
	<g>
		<g class="st3">
			<path class="st4" d="M250.1,196.9c0-4.1,0.9-6.8,5.2-6.8c1.4,0,2.6,0.3,3.4,0.9l-1.1,1.7c-0.5-0.3-1.3-0.6-2.3-0.6
				c-2.3,0-3,1.4-3,4.8s0.7,4.9,3,4.9c1.1,0,1.8-0.2,2.5-0.7l1,1.6c-1,0.6-1.9,1-3.6,1C251.1,203.7,250.1,201.1,250.1,196.9z"/>
			<path class="st4" d="M259.4,200.6c0-2.9,1.7-3.7,5.2-3.7h0.4c0-1.2-0.3-1.7-1.6-1.7c-1.1,0-1.9,0.3-2.5,0.5l-0.8-1.6
				c0.8-0.4,2-0.7,3.5-0.7c2.7,0,3.4,1,3.4,3.5v4.1c0,0.7,0.1,0.9,0.8,0.9v1.8c-0.2,0-0.4,0-0.6,0c-1.1,0-1.6-0.2-1.8-0.9
				c-0.6,0.7-1.5,1-2.8,1C260.1,203.7,259.4,202.5,259.4,200.6z M265,199.7v-1.2h-0.4c-2.3,0-3.3,0.3-3.3,1.9c0,1.3,0.5,1.7,1.5,1.7
				C264.1,202,265,201.5,265,199.7z"/>
			<path class="st4" d="M269.2,193.6l1.6-0.1l0.1,0.9c0.5-0.7,1.4-1.1,3.1-1.1c3,0,3.3,2.4,3.3,5.2c0,2.8-0.4,5.2-3.4,5.2
				c-1.6,0-2.3-0.3-2.8-0.9v3.7h-2V193.6z M275.4,198.6c0-2-0.2-3.4-2-3.4c-2,0-2.2,1.4-2.2,3.4s0.2,3.3,2.2,3.3
				C275.1,201.9,275.4,200.7,275.4,198.6z"/>
			<path class="st4" d="M278.3,193.5h1.6l0.3-2.5l1.6-0.3v2.9h2.3v1.8h-2.3v5.3c0,0.8,0.1,1.3,1.2,1.3h1.1v1.8
				c-0.3,0-1.1,0.1-1.4,0.1c-2.4,0-3-0.8-3-2.9v-5.5h-1.6V193.5z"/>
			<path class="st4" d="M285.9,190.2h2v2.2h-2V190.2z M285.9,193.5h2v10.1h-2V193.5z"/>
			<path class="st4" d="M289.5,198.5c0-3.2,0.8-5.2,4.1-5.2c3.6,0,3.6,2.3,3.6,6.2h-5.7c0.1,1.7,0.5,2.5,2.2,2.5
				c1.3,0,2-0.3,2.6-0.6l0.8,1.5c-0.8,0.5-1.9,0.8-3.5,0.8C290.2,203.7,289.5,201.7,289.5,198.5z M291.5,197.7h3.9
				c0-1.6-0.1-2.6-1.8-2.6C291.9,195.1,291.5,196.1,291.5,197.7z"/>
			<path class="st4" d="M298.7,199.7v-6.2h2v6.1c0,1.5,0.1,2.3,1.8,2.3c1.6,0,1.8-0.8,1.8-2.3v-6.1h2v6.2c0,2.8-0.6,4-3.8,4
				C299.4,203.7,298.7,202.5,298.7,199.7z"/>
			<path class="st4" d="M311.1,200l-1.9,3.6h-2.1l3-5.3l-2.7-4.8h2.2l1.8,3.1l1.7-3.1h2.1l-2.7,4.9l3,5.2h-2.2L311.1,200z"/>
			<path class="st10" d="M250.7,213.6l1.5-0.1l0.2,1.1c0.5-0.8,1.3-1.3,3.3-1.3c2.8,0,3.2,1.7,3.2,4.1v7.2H257v-6.8
				c0-1.8-0.2-2.7-2-2.7c-2.2,0-2.5,1.2-2.5,3.7v5.8h-1.9V213.6z"/>
			<path class="st10" d="M260.9,214.3c0-2.6,0.6-4.7,3.6-4.7c3,0,3.6,2.1,3.6,4.7c0,2.6-0.6,4.7-3.6,4.7
				C261.5,219,260.9,217,260.9,214.3z M266.6,214.4c0-1.8-0.3-3.2-2.1-3.2c-1.8,0-2.1,1.4-2.1,3.2c0,1.8,0.3,3.2,2.1,3.2
				C266.3,217.6,266.6,216.2,266.6,214.4z"/>
			<path class="st10" d="M269.3,223.1l3.3-4.1c2.6-3.2,2.9-4,2.9-5.5c0-1.5-0.5-2.1-2.2-2.1c-1.2,0-2.2,0.3-3,0.7l-0.8-1.6
				c1-0.5,2.2-0.9,4.1-0.9c2.8,0,3.8,1.2,3.8,3.7c0,2.2-0.6,3.2-3.4,6.8l-2.3,2.9h5.9v1.7h-8.2V223.1z"/>
		</g>
	</g>
	<g>
		<g>
			<line class="st9" x1="199.4" y1="198.1" x2="246" y2="198.1"/>
			<g>
				<polygon points="201.4,199.8 199.7,198.1 201.4,196.4 199.9,196.4 198.2,198.1 199.9,199.8 				"/>
			</g>
		</g>
	</g>
	<g>
		<g class="st3">
			<path class="st4" d="M215.2,390.5h2.6l3.1,9.8l3.1-9.8h2.6v13.3h-2.1v-9.5l-3,9.5h-1.5l-3-9.5v9.5h-1.9V390.5z"/>
			<path class="st4" d="M228.4,398.7c0-3,0.7-5.2,4.2-5.2c3.5,0,4.2,2.2,4.2,5.2c0,3.1-0.7,5.2-4.2,5.2
				C229.1,404,228.4,401.8,228.4,398.7z M234.7,398.8c0-2-0.2-3.4-2.1-3.4c-1.9,0-2.1,1.4-2.1,3.4c0,2,0.2,3.4,2.1,3.4
				C234.5,402.2,234.7,400.8,234.7,398.8z"/>
			<path class="st4" d="M238.3,393.9l1.6-0.1l0.2,1.1c0.4-0.6,1.2-1.1,2.8-1.1v1.9c-2.4,0-2.6,1.5-2.6,3.2v5h-2V393.9z"/>
			<path class="st4" d="M246.5,403.8c-1.8,0-2.4-0.6-2.4-2.5V390h2V401c0,0.8,0.1,1,1.2,1v1.8C247.1,403.8,246.9,403.8,246.5,403.8z
				"/>
			<path class="st4" d="M248.1,400.8c0-2.9,1.7-3.7,5.2-3.7h0.4c0-1.2-0.3-1.7-1.6-1.7c-1.1,0-1.9,0.3-2.5,0.5l-0.8-1.6
				c0.8-0.4,2-0.7,3.5-0.7c2.7,0,3.4,1,3.4,3.5v4.1c0,0.7,0.1,0.9,0.8,0.9v1.8c-0.2,0-0.4,0-0.6,0c-1.1,0-1.6-0.2-1.8-0.9
				c-0.6,0.7-1.5,1-2.8,1C248.7,403.9,248.1,402.7,248.1,400.8z M253.6,399.9v-1.2h-0.4c-2.3,0-3.3,0.3-3.3,1.9
				c0,1.3,0.5,1.7,1.5,1.7C252.7,402.2,253.6,401.8,253.6,399.9z"/>
			<path class="st4" d="M257.5,400.8c0-2.9,1.7-3.7,5.2-3.7h0.4c0-1.2-0.3-1.7-1.6-1.7c-1.1,0-1.9,0.3-2.5,0.5l-0.8-1.6
				c0.8-0.4,2-0.7,3.5-0.7c2.7,0,3.4,1,3.4,3.5v4.1c0,0.7,0.1,0.9,0.8,0.9v1.8c-0.2,0-0.4,0-0.6,0c-1.1,0-1.6-0.2-1.8-0.9
				c-0.6,0.7-1.5,1-2.8,1C258.1,403.9,257.5,402.7,257.5,400.8z M258.7,389.7h2.3l2,3h-1.8L258.7,389.7z M263,399.9v-1.2h-0.4
				c-2.3,0-3.3,0.3-3.3,1.9c0,1.3,0.5,1.7,1.5,1.7C262.1,402.2,263,401.8,263,399.9z"/>
			<path class="st4" d="M266.5,403.2l0.8-1.6c0.7,0.3,1.7,0.6,2.8,0.6c1,0,1.5-0.3,1.5-1.2c0-0.8-0.5-1.1-2-1.7
				c-1.7-0.7-2.7-1.3-2.7-3c0-2,1.3-2.9,3.4-2.9c1.3,0,2.1,0.2,2.9,0.5l-0.8,1.7c-0.6-0.2-1.3-0.4-2.1-0.4c-1,0-1.4,0.4-1.4,1
				c0,0.7,0.5,1,1.9,1.5c1.8,0.7,2.8,1.3,2.8,3.2c0,1.9-1.2,2.8-3.4,2.8C268.7,403.9,267.5,403.7,266.5,403.2z"/>
			<path class="st10" d="M215.2,413.8l1.5-0.1l0.2,1.1c0.5-0.8,1.3-1.3,3.3-1.3c2.8,0,3.2,1.7,3.2,4.1v7.2h-1.9V418
				c0-1.8-0.2-2.7-2-2.7c-2.2,0-2.5,1.2-2.5,3.7v5.8h-1.9V413.8z"/>
			<path class="st10" d="M225.4,414.5c0-2.6,0.6-4.7,3.6-4.7c3,0,3.6,2.1,3.6,4.7c0,2.6-0.6,4.7-3.6,4.7
				C226.1,419.3,225.4,417.2,225.4,414.5z M231.2,414.6c0-1.8-0.3-3.2-2.1-3.2c-1.8,0-2.1,1.4-2.1,3.2c0,1.8,0.3,3.2,2.1,3.2
				C230.9,417.8,231.2,416.4,231.2,414.6z"/>
			<path class="st10" d="M236.1,423.1h1.3c3.7,0,4.2-1.6,4.4-4.3c-0.6,0.8-1.7,1.2-3.4,1.2c-3.3,0-3.9-1.9-3.9-4.8
				c0-3.5,0.9-5.4,4.5-5.4c4.2,0,4.7,2.2,4.7,6.2c0,6-0.4,8.8-6.4,8.8h-1.2V423.1z M241.8,415.3c0-2.6-0.5-3.7-2.8-3.7
				c-2.1,0-2.6,1.2-2.6,3.6c0,2.1,0.5,3.2,2.5,3.2C240.6,418.4,241.8,417.5,241.8,415.3z"/>
		</g>
	</g>
	<g>
		<g>
			<line class="st9" x1="164" y1="398.3" x2="210.6" y2="398.3"/>
			<g>
				<polygon points="166,400 164.3,398.3 166,396.6 164.5,396.6 162.8,398.3 164.5,400 				"/>
			</g>
		</g>
	</g>
	<g>
		<g class="st3">
			<path class="st4" d="M48.5,249.9h-2.2v4.9h-2.1v-13.3h4.7c2.9,0,4.1,1.4,4.1,4.1c0,2.1-0.7,3.6-2.4,4.1l2.3,5.1h-2.2L48.5,249.9z
				 M48.8,248c1.5,0,2.1-0.6,2.1-2.4c0-1.7-0.6-2.3-2.1-2.3h-2.6v4.7H48.8z"/>
			<path class="st4" d="M54.1,249.8c0-3,0.7-5.2,4.2-5.2c3.5,0,4.2,2.2,4.2,5.2c0,3.1-0.7,5.2-4.2,5.2
				C54.8,255,54.1,252.8,54.1,249.8z M60.3,249.8c0-2-0.2-3.4-2.1-3.4c-1.9,0-2.1,1.4-2.1,3.4c0,2,0.2,3.4,2.1,3.4
				C60.2,253.2,60.3,251.8,60.3,249.8z"/>
			<path class="st4" d="M69.7,253.9c-0.5,0.7-1.2,1-2.8,1c-3,0-3.3-2.4-3.3-5.2c0-2.8,0.4-5.2,3.4-5.2c1.9,0,2.5,0.4,3,1l0.3-0.9
				l1.5,0.1v12.9h-2V253.9z M69.7,249.8c0-2-0.2-3.3-2.2-3.3c-1.7,0-2,1.3-2,3.3c0,2.1,0.2,3.4,2,3.4
				C69.5,253.2,69.7,251.8,69.7,249.8z"/>
			<path class="st4" d="M73.6,251v-6.2h2v6.1c0,1.5,0.1,2.3,1.8,2.3c1.6,0,1.8-0.8,1.8-2.3v-6.1h2v6.2c0,2.8-0.6,4-3.8,4
				C74.3,255,73.6,253.7,73.6,251z"/>
			<path class="st4" d="M82.7,249.8c0-3.2,0.8-5.2,4.1-5.2c3.6,0,3.6,2.3,3.6,6.2h-5.7c0.1,1.7,0.5,2.5,2.2,2.5c1.3,0,2-0.3,2.6-0.6
				l0.8,1.5c-0.8,0.5-1.9,0.8-3.5,0.8C83.3,254.9,82.7,253,82.7,249.8z M84.6,249h3.9c0-1.6-0.1-2.6-1.8-2.6
				C85.1,246.3,84.7,247.3,84.6,249z"/>
			<path class="st4" d="M91,244.7h1.6v-0.9c0-1.8,0.9-2.9,3.1-2.9c0.5,0,1,0,1.2,0v1.7h-1.1c-1.1,0-1.2,0.5-1.2,1.3v0.7h2.3v1.8
				h-2.3v8.3h-2v-8.3H91V244.7z"/>
			<path class="st4" d="M97.4,249.8c0-3,0.7-5.2,4.2-5.2c3.5,0,4.2,2.2,4.2,5.2c0,3.1-0.7,5.2-4.2,5.2
				C98.2,255,97.4,252.8,97.4,249.8z M103.7,249.8c0-2-0.2-3.4-2.1-3.4c-1.9,0-2.1,1.4-2.1,3.4c0,2,0.2,3.4,2.1,3.4
				C103.5,253.2,103.7,251.8,103.7,249.8z"/>
			<path class="st4" d="M107.3,244.9l1.6-0.1l0.2,1.1c0.4-0.6,1.2-1.1,2.8-1.1v1.9c-2.4,0-2.6,1.5-2.6,3.2v5h-2V244.9z"/>
			<path class="st4" d="M112.3,244.7h1.6l0.3-2.5l1.6-0.3v2.9h2.3v1.8h-2.3v5.3c0,0.8,0.1,1.3,1.2,1.3h1.1v1.8
				c-0.3,0-1.1,0.1-1.4,0.1c-2.4,0-3-0.8-3-2.9v-5.5h-1.6V244.7z"/>
			<path class="st10" d="M90.6,264.8l1.5-0.1l0.2,1.1c0.5-0.8,1.3-1.3,3.3-1.3c2.8,0,3.2,1.7,3.2,4.1v7.2H97V269
				c0-1.8-0.2-2.7-2-2.7c-2.2,0-2.5,1.2-2.5,3.7v5.8h-1.9V264.8z"/>
			<path class="st10" d="M100.8,265.5c0-2.6,0.6-4.7,3.6-4.7s3.6,2.1,3.6,4.7c0,2.6-0.6,4.7-3.6,4.7S100.8,268.2,100.8,265.5z
				 M106.5,265.6c0-1.8-0.3-3.2-2.1-3.2c-1.8,0-2.1,1.4-2.1,3.2c0,1.8,0.3,3.2,2.1,3.2C106.3,268.8,106.5,267.4,106.5,265.6z"/>
			<path class="st10" d="M109.6,275l0.9-1.5c0.9,0.5,1.7,0.8,2.9,0.8c2,0,2.7-0.7,2.7-2.9c0-1.6-0.3-2.6-2.8-2.6h-1.8V267h1.9
				c1.9,0,2.3-0.9,2.3-2.2c0-1.8-0.7-2.2-2.3-2.2c-1,0-2,0.3-2.8,0.7l-0.8-1.5c1-0.6,2.3-0.9,3.9-0.9c2.5,0,3.9,0.7,3.9,3.6
				c0,2-0.5,2.9-1.6,3.3c1.5,0.4,1.9,1.4,1.9,3.8c0,3.3-1.4,4.4-4.4,4.4C111.7,276,110.7,275.6,109.6,275z"/>
		</g>
	</g>
	<g>
		<g>
			<line class="st9" x1="171" y1="251.4" x2="124.4" y2="251.4"/>
			<g>
				<polygon points="169,253.1 170.7,251.4 169,249.7 170.5,249.7 172.2,251.4 170.5,253.1 				"/>
			</g>
		</g>
	</g>
	<g>
		<g>
			<line class="st9" x1="190" y1="149.6" x2="146" y2="149.6"/>
			<g>
				<polygon points="188.1,147.9 189.8,149.6 188.1,151.3 189.5,151.3 191.2,149.6 189.5,147.9 				"/>
			</g>
		</g>
	</g>
	<g>
		<g class="st3">
			<path class="st4" d="M79.3,368.5c0-4.9,1.4-6.8,5.3-6.8c1.6,0,2.8,0.4,3.6,1l-1.1,1.7c-0.6-0.3-1.4-0.7-2.6-0.7
				c-2.1,0-3.1,0.9-3.1,4.9c0,3.7,0.7,5,3,5c2,0,2.4-0.9,2.4-3.8v-0.4h-3v-1.8h5v1.9c0,4.4-0.9,5.9-4.6,5.9
				C80.3,375.3,79.3,372.9,79.3,368.5z"/>
			<path class="st4" d="M89.9,372.2c0-2.9,1.7-3.7,5.2-3.7h0.4c0-1.2-0.3-1.7-1.6-1.7c-1.1,0-1.9,0.3-2.5,0.5l-0.8-1.6
				c0.8-0.4,2-0.7,3.5-0.7c2.7,0,3.4,1,3.4,3.5v4.1c0,0.7,0.1,0.9,0.8,0.9v1.8c-0.2,0-0.4,0-0.6,0c-1.1,0-1.6-0.2-1.8-0.9
				c-0.6,0.7-1.5,1-2.8,1C90.6,375.3,89.9,374.1,89.9,372.2z M95.5,371.3v-1.2h-0.4c-2.3,0-3.3,0.3-3.3,1.9c0,1.3,0.5,1.7,1.5,1.7
				C94.5,373.6,95.5,373.1,95.5,371.3z"/>
			<path class="st4" d="M99.7,365.2l1.6-0.1l0.2,1.1c0.4-0.6,1.2-1.1,2.8-1.1v1.9c-2.4,0-2.6,1.5-2.6,3.2v5h-2V365.2z"/>
			<path class="st4" d="M107.9,375.2c-1.8,0-2.4-0.6-2.4-2.5v-11.3h2v11.1c0,0.8,0.1,1,1.2,1v1.8
				C108.5,375.2,108.3,375.2,107.9,375.2z"/>
			<path class="st4" d="M110.1,361.8h2v2.2h-2V361.8z M110.1,365.1h2v10.1h-2V365.1z"/>
			<path class="st4" d="M114.1,365.2l1.6-0.1l0.2,0.9c0.5-0.6,1.2-1.1,3-1.1c2.5,0,2.9,1.5,2.9,3.7v6.6h-2v-6.1
				c0-1.5-0.2-2.2-1.6-2.2c-1.8,0-2.1,1-2.1,3v5.4h-2V365.2z"/>
			<path class="st10" d="M93.1,385.2l1.5-0.1l0.2,1.1c0.5-0.8,1.3-1.3,3.3-1.3c2.8,0,3.2,1.7,3.2,4.1v7.2h-1.9v-6.8
				c0-1.8-0.2-2.7-2-2.7c-2.2,0-2.5,1.2-2.5,3.7v5.8h-1.9V385.2z"/>
			<path class="st10" d="M103.3,385.9c0-2.6,0.6-4.7,3.6-4.7s3.6,2.1,3.6,4.7c0,2.6-0.6,4.7-3.6,4.7S103.3,388.6,103.3,385.9z
				 M109,386c0-1.8-0.3-3.2-2.1-3.2c-1.8,0-2.1,1.4-2.1,3.2c0,1.8,0.3,3.2,2.1,3.2C108.7,389.2,109,387.8,109,386z"/>
			<path class="st10" d="M112.5,392c0-1.8,0.2-3.4,2-3.9c-1.4-0.6-1.6-1.8-1.6-3.2c0-1.9,0.7-3.6,4.2-3.6c3.5,0,4.2,1.7,4.2,3.6
				c0,1.4-0.2,2.7-1.6,3.2c1.9,0.6,2,2.1,2,3.9c0,2.3-0.6,4.4-4.6,4.4C113.1,396.3,112.5,394.3,112.5,392z M119.9,391.8
				c0-1.7-0.4-2.8-2.7-2.8c-2.3,0-2.7,1.1-2.7,2.8c0,1.7,0.4,2.9,2.7,2.9C119.4,394.7,119.9,393.5,119.9,391.8z M119.5,385.1
				c0-1.4-0.5-2.2-2.4-2.2c-1.9,0-2.4,0.9-2.4,2.2c0,1.4,0.5,2.3,2.4,2.3C119,387.3,119.5,386.5,119.5,385.1z"/>
		</g>
	</g>
	<g>
		<g>
			<line class="st9" x1="159.2" y1="369.5" x2="129.4" y2="369.5"/>
			<g>
				<polygon points="157.3,367.8 159,369.5 157.3,371.2 158.7,371.2 160.4,369.5 158.7,367.8 				"/>
			</g>
		</g>
	</g>
	<g>
		<g>
			<g class="st3">
				<path class="st29" d="M23.9,504.1h-14v-14h14V504.1z"/>
				<path class="st33" d="M26.1,501.5l0.6-0.8c0.4,0.3,1.4,0.8,2.7,0.8c1.3,0,2.2-0.7,2.2-2.1c0-1-0.7-1.5-1.9-2.2
					c-1.2-0.7-2-1.3-2-2.5c0-1.9,1.3-2.9,3.1-2.9c1.3,0,2.1,0.3,2.6,0.6l-0.5,0.9c-0.5-0.3-1.2-0.5-2.2-0.5c-1.3,0-2,0.7-2,1.9
					c0,0.8,0.4,1.2,1.6,1.8c1.4,0.8,2.3,1.5,2.3,2.8c0,2.1-1.4,3.1-3.2,3.1C27.8,502.4,26.8,501.9,26.1,501.5z"/>
				<path class="st33" d="M33.8,499.9c0-0.5,0.1-1.1,0.2-1.7c0.4-2.4,1.3-3.7,3.2-3.7c1.8,0,2.3,0.8,2.3,2c0,0.6-0.2,1.6-0.3,2.4
					h-4.3c-0.1,0.4-0.1,0.7-0.1,1c0,1,0.4,1.7,1.7,1.7c0.7,0,1.2-0.1,1.7-0.3l0.3,0.8c-0.6,0.2-1.3,0.4-2.1,0.4
					C34.4,502.4,33.8,501.4,33.8,499.9z M35,497.9h3.4c0.1-0.5,0.2-1,0.2-1.3c0-0.7-0.3-1.2-1.4-1.2C35.8,495.3,35.3,496.3,35,497.9
					z"/>
				<path class="st33" d="M40.1,499.9c0-0.5,0.1-1.1,0.2-1.7c0.4-2.4,1.2-3.7,3.2-3.7c1,0,1.5,0.2,1.9,0.4l-0.6,0.8
					c-0.3-0.2-0.7-0.3-1.4-0.3c-1.4,0-1.9,1-2.2,2.9c-0.1,0.6-0.2,1.1-0.2,1.5c0,1.1,0.4,1.7,1.6,1.7c0.4,0,0.8-0.1,1.3-0.3l0.3,0.8
					c-0.6,0.3-1.2,0.3-1.8,0.3C40.7,502.4,40.1,501.4,40.1,499.9z"/>
				<path class="st33" d="M46.2,494.6h1.2l0.5-2.2l0.9-0.2l-0.4,2.3h1.8l-0.2,0.9h-1.8l-0.8,4.8c-0.1,0.7-0.1,1.1,0.8,1.1h0.8
					l-0.2,0.9c-0.1,0-0.8,0-0.9,0c-1.6,0-1.8-0.7-1.6-2.1l0.8-4.7H46L46.2,494.6z"/>
				<path class="st33" d="M51.6,494.6h1l-1.4,7.7h-1L51.6,494.6z M52,492.1h1l-0.3,1.5h-1L52,492.1z"/>
				<path class="st33" d="M53.2,499.8c0-0.5,0.1-1,0.2-1.6c0.4-2.2,1.2-3.7,3.4-3.7c2,0,2.6,1.1,2.6,2.6c0,0.5-0.1,1.1-0.2,1.7
					c-0.4,2.3-1.1,3.7-3.4,3.7C53.8,502.4,53.2,501.3,53.2,499.8z M58.1,498.6c0.1-0.5,0.2-1.1,0.2-1.5c0-1-0.4-1.7-1.6-1.7
					c-1.6,0-2,1.3-2.3,2.9c-0.1,0.5-0.2,1-0.2,1.4c0,1,0.4,1.8,1.6,1.8C57.4,501.5,57.8,500.3,58.1,498.6z"/>
				<path class="st33" d="M61.1,494.6l0.8-0.1l-0.1,0.7c0.4-0.5,1.1-0.8,2.1-0.8c2.3,0,2.2,1.4,1.9,3l-0.9,4.9h-1l0.8-4.8
					c0.3-1.3,0.3-2.1-1.3-2.1c-1.3,0-1.8,1-2.1,2.8l-0.7,4.1h-1L61.1,494.6z"/>
				<path class="st33" d="M66.2,501.7l0.5-0.8c0.4,0.3,1,0.6,2,0.6c0.7,0,1.4-0.3,1.4-1.4c0-0.6-0.4-0.9-1.3-1.5
					c-0.9-0.6-1.6-1.1-1.6-2c0-1.6,1.1-2.2,2.4-2.2c1,0,1.7,0.2,2.1,0.5l-0.5,0.8c-0.4-0.2-0.8-0.4-1.6-0.4c-0.8,0-1.3,0.4-1.3,1.3
					c0,0.6,0.5,0.9,1.2,1.4c1,0.6,1.5,1.1,1.5,2.1c0,1.7-1.2,2.3-2.4,2.3C67.5,502.4,66.7,502.1,66.2,501.7z"/>
				<path class="st33" d="M76.2,502.3c-1.4,0-1.6-0.6-1.4-1.8l1.6-9h1l-1.6,9c-0.1,0.6-0.1,0.9,0.8,0.9l-0.2,0.9
					C76.5,502.3,76.4,502.3,76.2,502.3z"/>
				<path class="st33" d="M77.8,499.9c0-0.5,0.1-1.1,0.2-1.7c0.4-2.4,1.3-3.7,3.2-3.7c1.8,0,2.3,0.8,2.3,2c0,0.6-0.2,1.6-0.3,2.4
					h-4.3c-0.1,0.4-0.1,0.7-0.1,1c0,1,0.4,1.7,1.7,1.7c0.7,0,1.2-0.1,1.7-0.3l0.3,0.8c-0.6,0.2-1.3,0.4-2.1,0.4
					C78.4,502.4,77.8,501.4,77.8,499.9z M79,497.9h3.4c0.1-0.5,0.2-1,0.2-1.3c0-0.7-0.3-1.2-1.4-1.2C79.8,495.3,79.3,496.3,79,497.9
					z"/>
				<path class="st33" d="M83.5,501.7l0.5-0.8c0.4,0.3,1,0.6,2,0.6c0.7,0,1.4-0.3,1.4-1.4c0-0.6-0.4-0.9-1.3-1.5
					c-0.9-0.6-1.6-1.1-1.6-2c0-1.6,1.1-2.2,2.4-2.2c1,0,1.7,0.2,2.1,0.5l-0.5,0.8c-0.4-0.2-0.8-0.4-1.6-0.4c-0.8,0-1.3,0.4-1.3,1.3
					c0,0.6,0.5,0.9,1.2,1.4c1,0.6,1.5,1.1,1.5,2.1c0,1.7-1.2,2.3-2.4,2.3C84.8,502.4,84,502.1,83.5,501.7z"/>
				<path class="st33" d="M93.1,494.6l0.8-0.1l-0.1,0.7c0.4-0.5,1.1-0.8,2.1-0.8c1.1,0,1.6,0.2,1.8,0.9c0.4-0.6,1.2-0.9,2.3-0.9
					c2.2,0,2.1,1.4,1.8,3l-0.9,4.9h-1l0.8-4.8c0.2-1.3,0.3-2.1-1.2-2.1c-1.3,0-1.7,1-2,2.8l-0.7,4.1h-1l0.8-4.8
					c0.3-1.3,0.3-2.1-1.2-2.1c-1.3,0-1.7,1-2,2.8l-0.7,4.1h-1L93.1,494.6z"/>
				<path class="st33" d="M102.7,499.8c0-0.5,0.1-1,0.2-1.6c0.4-2.2,1.2-3.7,3.4-3.7c2,0,2.6,1.1,2.6,2.6c0,0.5-0.1,1.1-0.2,1.7
					c-0.4,2.3-1.1,3.7-3.4,3.7C103.3,502.4,102.7,501.3,102.7,499.8z M107.6,498.6c0.1-0.5,0.2-1.1,0.2-1.5c0-1-0.4-1.7-1.6-1.7
					c-1.6,0-2,1.3-2.3,2.9c-0.1,0.5-0.2,1-0.2,1.4c0,1,0.4,1.8,1.6,1.8C106.9,501.5,107.3,500.3,107.6,498.6z"/>
				<path class="st33" d="M110.7,494.6h1l-1.4,7.7h-1L110.7,494.6z M111.2,492.1h1l-0.3,1.5h-1L111.2,492.1z"/>
				<path class="st33" d="M113.4,494.6l0.8-0.1l-0.1,0.7c0.4-0.5,1.1-0.8,2.1-0.8c2.3,0,2.2,1.4,1.9,3l-0.9,4.9h-1l0.8-4.8
					c0.3-1.3,0.3-2.1-1.3-2.1c-1.3,0-1.8,1-2.1,2.8l-0.7,4.1h-1L113.4,494.6z"/>
				<path class="st33" d="M118.5,501.7l0.5-0.8c0.4,0.3,1,0.6,2,0.6c0.7,0,1.4-0.3,1.4-1.4c0-0.6-0.4-0.9-1.3-1.5
					c-0.9-0.6-1.6-1.1-1.6-2c0-1.6,1.1-2.2,2.4-2.2c1,0,1.7,0.2,2.1,0.5l-0.5,0.8c-0.4-0.2-0.8-0.4-1.6-0.4c-0.8,0-1.3,0.4-1.3,1.3
					c0,0.6,0.5,0.9,1.2,1.4c1,0.6,1.5,1.1,1.5,2.1c0,1.7-1.2,2.3-2.4,2.3C119.8,502.4,119.1,502.1,118.5,501.7z"/>
				<path class="st33" d="M127,499.9c0-0.5,0.1-1.1,0.2-1.7c0.4-2.4,1.2-3.7,3.2-3.7c1,0,1.5,0.2,1.9,0.4l-0.6,0.8
					c-0.3-0.2-0.7-0.3-1.4-0.3c-1.4,0-1.9,1-2.2,2.9c-0.1,0.6-0.2,1.1-0.2,1.5c0,1.1,0.4,1.7,1.6,1.7c0.4,0,0.8-0.1,1.3-0.3l0.3,0.8
					c-0.6,0.3-1.2,0.3-1.8,0.3C127.6,502.4,127,501.4,127,499.9z"/>
				<path class="st33" d="M134.3,491.5h1l-0.7,3.7c0.4-0.4,1-0.8,2-0.8c2.3,0,2.2,1.4,1.9,3l-0.9,4.9h-1l0.8-4.8
					c0.2-1.3,0.3-2.1-1.3-2.1c-1.4,0-1.8,1-2.1,2.8l-0.7,4.1h-1L134.3,491.5z"/>
				<path class="st33" d="M139.5,499.9c0-0.5,0.1-1.1,0.2-1.7c0.4-2.4,1.3-3.7,3.2-3.7c1.8,0,2.3,0.8,2.3,2c0,0.6-0.2,1.6-0.3,2.4
					h-4.3c-0.1,0.4-0.1,0.7-0.1,1c0,1,0.4,1.7,1.7,1.7c0.7,0,1.2-0.1,1.7-0.3l0.3,0.8c-0.6,0.2-1.3,0.4-2.1,0.4
					C140.1,502.4,139.5,501.4,139.5,499.9z M140.7,497.9h3.4c0.1-0.5,0.2-1,0.2-1.3c0-0.7-0.3-1.2-1.4-1.2
					C141.5,495.3,141,496.3,140.7,497.9z M141.6,491.6h1.1l1.2,2.2H143L141.6,491.6z"/>
				<path class="st33" d="M147,494.6l0.8-0.1l-0.1,0.8c0.4-0.5,1.1-0.9,2.3-0.9l-0.2,1c-1.9,0-2.2,1.3-2.5,2.8l-0.7,4h-1L147,494.6z
					"/>
				<path class="st33" d="M149.6,499.9c0-0.5,0.1-1.1,0.2-1.7c0.4-2.4,1.3-3.7,3.2-3.7c1.8,0,2.3,0.8,2.3,2c0,0.6-0.2,1.6-0.3,2.4
					h-4.3c-0.1,0.4-0.1,0.7-0.1,1c0,1,0.4,1.7,1.7,1.7c0.7,0,1.2-0.1,1.7-0.3l0.3,0.8c-0.6,0.2-1.3,0.4-2.1,0.4
					C150.2,502.4,149.6,501.4,149.6,499.9z M150.8,497.9h3.4c0.1-0.5,0.2-1,0.2-1.3c0-0.7-0.3-1.2-1.4-1.2
					C151.6,495.3,151.1,496.3,150.8,497.9z"/>
				<path class="st33" d="M155.3,501.7l0.5-0.8c0.4,0.3,1,0.6,2,0.6c0.7,0,1.4-0.3,1.4-1.4c0-0.6-0.4-0.9-1.3-1.5
					c-0.9-0.6-1.6-1.1-1.6-2c0-1.6,1.1-2.2,2.4-2.2c1,0,1.7,0.2,2.1,0.5l-0.5,0.8c-0.3-0.2-0.8-0.4-1.6-0.4c-0.8,0-1.3,0.4-1.3,1.3
					c0,0.6,0.5,0.9,1.2,1.4c1,0.6,1.5,1.1,1.5,2.1c0,1.7-1.2,2.3-2.4,2.3C156.6,502.4,155.8,502.1,155.3,501.7z"/>
				<path class="st10" d="M182.8,504.1h-14v-14h14V504.1z"/>
				<path class="st33" d="M185,501.5l0.6-0.8c0.4,0.3,1.4,0.8,2.7,0.8c1.3,0,2.2-0.7,2.2-2.1c0-1-0.7-1.5-1.9-2.2
					c-1.2-0.7-2-1.3-2-2.5c0-1.9,1.3-2.9,3.1-2.9c1.3,0,2.1,0.3,2.6,0.6l-0.5,0.9c-0.5-0.3-1.2-0.5-2.2-0.5c-1.3,0-2,0.7-2,1.9
					c0,0.8,0.4,1.2,1.6,1.8c1.4,0.8,2.3,1.5,2.3,2.8c0,2.1-1.4,3.1-3.2,3.1C186.7,502.4,185.6,501.9,185,501.5z"/>
				<path class="st33" d="M192.6,499.9c0-0.5,0.1-1.1,0.2-1.7c0.4-2.4,1.3-3.7,3.2-3.7c1.8,0,2.3,0.8,2.3,2c0,0.6-0.2,1.6-0.3,2.4
					h-4.3c-0.1,0.4-0.1,0.7-0.1,1c0,1,0.4,1.7,1.7,1.7c0.7,0,1.2-0.1,1.7-0.3l0.3,0.8c-0.6,0.2-1.3,0.4-2.1,0.4
					C193.2,502.4,192.6,501.4,192.6,499.9z M193.8,497.9h3.4c0.1-0.5,0.2-1,0.2-1.3c0-0.7-0.3-1.2-1.4-1.2
					C194.6,495.3,194.1,496.3,193.8,497.9z"/>
				<path class="st33" d="M199,499.9c0-0.5,0.1-1.1,0.2-1.7c0.4-2.4,1.2-3.7,3.2-3.7c1,0,1.5,0.2,1.9,0.4l-0.6,0.8
					c-0.3-0.2-0.7-0.3-1.4-0.3c-1.4,0-1.9,1-2.2,2.9c-0.1,0.6-0.2,1.1-0.2,1.5c0,1.1,0.4,1.7,1.6,1.7c0.4,0,0.8-0.1,1.3-0.3l0.3,0.8
					c-0.6,0.3-1.2,0.3-1.8,0.3C199.6,502.4,199,501.4,199,499.9z"/>
				<path class="st33" d="M205,494.6h1.2l0.5-2.2l0.9-0.2l-0.4,2.3h1.8l-0.2,0.9H207l-0.8,4.8c-0.1,0.7-0.1,1.1,0.8,1.1h0.8
					l-0.2,0.9c-0.1,0-0.8,0-0.9,0c-1.6,0-1.8-0.7-1.6-2.1l0.8-4.7h-1.2L205,494.6z"/>
				<path class="st33" d="M210.4,494.6h1l-1.4,7.7h-1L210.4,494.6z M210.9,492.1h1l-0.3,1.5h-1L210.9,492.1z"/>
				<path class="st33" d="M212,499.8c0-0.5,0.1-1,0.2-1.6c0.4-2.2,1.2-3.7,3.4-3.7c2,0,2.6,1.1,2.6,2.6c0,0.5-0.1,1.1-0.2,1.7
					c-0.4,2.3-1.1,3.7-3.4,3.7C212.6,502.4,212,501.3,212,499.8z M216.9,498.6c0.1-0.5,0.2-1.1,0.2-1.5c0-1-0.3-1.7-1.6-1.7
					c-1.6,0-2,1.3-2.3,2.9c-0.1,0.5-0.2,1-0.2,1.4c0,1,0.4,1.8,1.6,1.8C216.2,501.5,216.6,500.3,216.9,498.6z"/>
				<path class="st33" d="M219.9,494.6l0.8-0.1l-0.1,0.7c0.4-0.5,1.1-0.8,2.1-0.8c2.3,0,2.2,1.4,1.9,3l-0.9,4.9h-1l0.8-4.8
					c0.3-1.3,0.3-2.1-1.3-2.1c-1.3,0-1.8,1-2.1,2.8l-0.7,4.1h-1L219.9,494.6z"/>
				<path class="st33" d="M225,501.7l0.5-0.8c0.4,0.3,1,0.6,2,0.6c0.7,0,1.4-0.3,1.4-1.4c0-0.6-0.4-0.9-1.3-1.5
					c-0.9-0.6-1.6-1.1-1.6-2c0-1.6,1.1-2.2,2.4-2.2c1,0,1.7,0.2,2.1,0.5l-0.5,0.8c-0.3-0.2-0.8-0.4-1.6-0.4c-0.8,0-1.3,0.4-1.3,1.3
					c0,0.6,0.5,0.9,1.2,1.4c1,0.6,1.5,1.1,1.5,2.1c0,1.7-1.2,2.3-2.4,2.3C226.3,502.4,225.6,502.1,225,501.7z"/>
				<path class="st33" d="M235,502.3c-1.4,0-1.6-0.6-1.4-1.8l1.6-9h1l-1.6,9c-0.1,0.6-0.1,0.9,0.8,0.9l-0.2,0.9
					C235.3,502.3,235.2,502.3,235,502.3z"/>
				<path class="st33" d="M236.7,499.9c0-0.5,0.1-1.1,0.2-1.7c0.4-2.4,1.3-3.7,3.2-3.7c1.8,0,2.3,0.8,2.3,2c0,0.6-0.2,1.6-0.3,2.4
					h-4.3c-0.1,0.4-0.1,0.7-0.1,1c0,1,0.4,1.7,1.7,1.7c0.7,0,1.2-0.1,1.7-0.3l0.3,0.8c-0.6,0.2-1.3,0.4-2.1,0.4
					C237.2,502.4,236.7,501.4,236.7,499.9z M237.9,497.9h3.4c0.1-0.5,0.2-1,0.2-1.3c0-0.7-0.3-1.2-1.4-1.2
					C238.6,495.3,238.2,496.3,237.9,497.9z"/>
				<path class="st33" d="M242.3,501.7l0.5-0.8c0.4,0.3,1,0.6,2,0.6c0.7,0,1.4-0.3,1.4-1.4c0-0.6-0.4-0.9-1.3-1.5
					c-0.9-0.6-1.6-1.1-1.6-2c0-1.6,1.1-2.2,2.4-2.2c1,0,1.7,0.2,2.1,0.5l-0.5,0.8c-0.3-0.2-0.8-0.4-1.6-0.4c-0.8,0-1.3,0.4-1.3,1.3
					c0,0.6,0.5,0.9,1.2,1.4c1,0.6,1.5,1.1,1.5,2.1c0,1.7-1.2,2.3-2.4,2.3C243.6,502.4,242.9,502.1,242.3,501.7z"/>
				<path class="st33" d="M251.9,494.6l0.8-0.1l-0.1,0.7c0.5-0.5,1.2-0.8,2.3-0.8c1.7,0,2.2,1,2.2,2.4c0,0.6-0.1,1.2-0.2,1.8
					c-0.4,2.1-1,3.7-2.9,3.7c-1.4,0-2-0.4-2.3-1l-0.5,3.1h-1L251.9,494.6z M255.9,498.6c0.1-0.6,0.2-1.1,0.2-1.6
					c0-1-0.3-1.6-1.5-1.6c-1.7,0-2,1.2-2.3,2.9c-0.1,0.5-0.2,1-0.2,1.5c0,1,0.4,1.7,1.7,1.7C255.2,501.5,255.6,500.3,255.9,498.6z"
					/>
				<path class="st33" d="M259.3,502.3c-1.4,0-1.6-0.6-1.4-1.8l1.6-9h1l-1.6,9c-0.1,0.6-0.1,0.9,0.8,0.9l-0.2,0.9
					C259.6,502.3,259.5,502.3,259.3,502.3z"/>
				<path class="st33" d="M261.2,499.3l0.8-4.8h1l-0.8,4.8c-0.2,1.2-0.3,2.1,1.3,2.1c1.3,0,1.5-0.6,1.8-1.9l0.9-5h1l-0.9,5.1
					c-0.3,1.9-0.8,2.7-2.8,2.7C261.1,502.4,260.9,501.2,261.2,499.3z"/>
				<path class="st33" d="M267,501.7l0.5-0.8c0.4,0.3,1,0.6,2,0.6c0.7,0,1.4-0.3,1.4-1.4c0-0.6-0.4-0.9-1.3-1.5
					c-0.9-0.6-1.6-1.1-1.6-2c0-1.6,1.1-2.2,2.4-2.2c1,0,1.7,0.2,2.1,0.5l-0.5,0.8c-0.3-0.2-0.8-0.4-1.6-0.4c-0.8,0-1.3,0.4-1.3,1.3
					c0,0.6,0.5,0.9,1.2,1.4c1,0.6,1.5,1.1,1.5,2.1c0,1.7-1.2,2.3-2.4,2.3C268.3,502.4,267.6,502.1,267,501.7z"/>
				<path class="st33" d="M275.5,499.9c0-0.5,0.1-1.1,0.2-1.7c0.4-2.4,1.2-3.7,3.2-3.7c1,0,1.5,0.2,1.9,0.4l-0.6,0.8
					c-0.3-0.2-0.7-0.3-1.4-0.3c-1.4,0-1.9,1-2.2,2.9c-0.1,0.6-0.2,1.1-0.2,1.5c0,1.1,0.4,1.7,1.6,1.7c0.4,0,0.8-0.1,1.3-0.3l0.3,0.8
					c-0.6,0.3-1.2,0.3-1.8,0.3C276.1,502.4,275.5,501.4,275.5,499.9z"/>
				<path class="st33" d="M282.8,491.5h1l-0.7,3.7c0.4-0.4,1-0.8,2-0.8c2.3,0,2.2,1.4,1.9,3l-0.9,4.9h-1l0.8-4.8
					c0.2-1.3,0.3-2.1-1.3-2.1c-1.4,0-1.8,1-2.1,2.8l-0.7,4.1h-1L282.8,491.5z"/>
				<path class="st33" d="M288,499.9c0-0.5,0.1-1.1,0.2-1.7c0.4-2.4,1.3-3.7,3.2-3.7c1.8,0,2.3,0.8,2.3,2c0,0.6-0.2,1.6-0.3,2.4
					h-4.3c-0.1,0.4-0.1,0.7-0.1,1c0,1,0.4,1.7,1.7,1.7c0.7,0,1.2-0.1,1.7-0.3l0.3,0.8c-0.6,0.2-1.3,0.4-2.1,0.4
					C288.6,502.4,288,501.4,288,499.9z M289.2,497.9h3.4c0.1-0.5,0.2-1,0.2-1.3c0-0.7-0.3-1.2-1.4-1.2
					C290,495.3,289.5,496.3,289.2,497.9z M290.1,491.6h1.1l1.2,2.2h-0.9L290.1,491.6z"/>
				<path class="st33" d="M295.5,494.6l0.8-0.1l-0.1,0.8c0.4-0.5,1.1-0.9,2.3-0.9l-0.2,1c-1.9,0-2.2,1.3-2.5,2.8l-0.7,4h-1
					L295.5,494.6z"/>
				<path class="st33" d="M298.1,499.9c0-0.5,0.1-1.1,0.2-1.7c0.4-2.4,1.3-3.7,3.2-3.7c1.8,0,2.3,0.8,2.3,2c0,0.6-0.2,1.6-0.3,2.4
					h-4.3c-0.1,0.4-0.1,0.7-0.1,1c0,1,0.4,1.7,1.7,1.7c0.7,0,1.2-0.1,1.7-0.3l0.3,0.8c-0.6,0.2-1.3,0.4-2.1,0.4
					C298.7,502.4,298.1,501.4,298.1,499.9z M299.3,497.9h3.4c0.1-0.5,0.2-1,0.2-1.3c0-0.7-0.3-1.2-1.4-1.2
					C300.1,495.3,299.7,496.3,299.3,497.9z"/>
				<path class="st33" d="M303.8,501.7l0.5-0.8c0.4,0.3,1,0.6,2,0.6c0.7,0,1.4-0.3,1.4-1.4c0-0.6-0.4-0.9-1.3-1.5
					c-0.9-0.6-1.6-1.1-1.6-2c0-1.6,1.1-2.2,2.4-2.2c1,0,1.7,0.2,2.1,0.5l-0.5,0.8c-0.3-0.2-0.8-0.4-1.6-0.4c-0.8,0-1.3,0.4-1.3,1.3
					c0,0.6,0.5,0.9,1.2,1.4c1,0.6,1.5,1.1,1.5,2.1c0,1.7-1.2,2.3-2.4,2.3C305.1,502.4,304.3,502.1,303.8,501.7z"/>
			</g>
		</g>
	</g>
	<line class="st37" x1="6" y1="487.1" x2="312.1" y2="487.1"/>
	<line class="st37" x1="312.1" y1="507.6" x2="6" y2="507.6"/>
</g>
<g id="A64_Source">
</g>
<g id="A64" class="st13">
</g>
<g id="A62">
</g>
<g id="TEXTE_MASQUE" class="st13">
	<g class="st17">
		<text transform="matrix(1 0 0 1 219.2996 307.8755)" class="st3"><tspan x="0" y="0" class="st4 st26 st27">Le Caloy</tspan><tspan x="0" y="21" class="st10 st19 st28">n°4</tspan></text>
	</g>
	<g class="st17">
		<g>
			<line class="st9" x1="169.2" y1="296.7" x2="215.8" y2="296.7"/>
			<g>
				<polygon points="171.2,298.4 169.5,296.7 171.2,295 169.7,295 168,296.7 169.7,298.4 				"/>
			</g>
		</g>
	</g>
	<g class="st17">
		<text transform="matrix(1 0 0 1 199.9695 352.1218)" class="st3"><tspan x="0" y="0" class="st4 st26 st27">Aire-sur-l’adour</tspan><tspan x="0" y="21" class="st10 st19 st28">n°7</tspan></text>
	</g>
	<g class="st17">
		<g>
			<line class="st9" x1="166.8" y1="349.4" x2="196.5" y2="349.4"/>
			<g>
				<polygon points="168.8,351.1 167.1,349.4 168.8,347.7 167.3,347.7 165.6,349.4 167.3,351.1 				"/>
			</g>
		</g>
	</g>
	<g class="st17">
		<text transform="matrix(1 0 0 1 3.3845 347.7461)" class="st3"><tspan x="0" y="0" class="st4 st26 st27">Aire-sur-l’Adour</tspan><tspan x="88.7" y="21" class="st10 st19 st28">n°6</tspan></text>
	</g>
	<g class="st17">
		<g>
			<line class="st9" x1="159.2" y1="342.1" x2="129.4" y2="342.1"/>
			<g>
				<polygon points="157.3,340.4 159,342.1 157.3,343.8 158.7,343.8 160.4,342.1 158.7,340.4 				"/>
			</g>
		</g>
	</g>
</g>
</svg>
