<?xml version="1.0" encoding="utf-8"?>
<!-- Generator: Adobe Illustrator 20.1.0, SVG Export Plug-In . SVG Version: 6.00 Build 0)  -->
<svg version="1.1" id="Calque_1" xmlns="http://www.w3.org/2000/svg" xmlns:xlink="http://www.w3.org/1999/xlink" x="0px" y="0px"
	 viewBox="0 0 100 90" style="enable-background:new 0 0 100 90;" xml:space="preserve">
<style type="text/css">
	.st0{fill:#D42E1A;}
</style>
<g>
	<polygon class="st0" points="44.7,9 43.4,9 36.2,21.3 38.4,21.3 	"/>
	<polygon class="st0" points="27.2,36.6 1.3,81 7.4,81 30.4,36.6 	"/>
	<polygon class="st0" points="9.4,81 39.3,81 45.2,36.6 31.4,36.6 	"/>
	<polygon class="st0" points="49.4,38.8 49.4,39.5 49.4,55.4 49.4,63.3 49.4,81 50.8,81 50.8,63.3 50.8,55.4 50.8,39.5 50.8,38.8 
		50.8,36.6 49.4,36.6 	"/>
	<polygon class="st0" points="60.9,21.3 54.8,9 51.5,9 53,21.3 	"/>
	<rect x="49.4" y="9" class="st0" width="1.4" height="12.3"/>
	<polygon class="st0" points="55,36.6 60.9,81 87.5,81 90.6,81 68.6,36.6 	"/>
	<polygon class="st0" points="47.2,21.3 48.8,9 45.2,9 39,21.3 	"/>
	<polygon class="st0" points="72.8,36.6 69.6,36.6 92.6,81 98.7,81 	"/>
	<polygon class="st0" points="63.8,21.3 56.6,9 55.2,9 61.6,21.3 	"/>
	<polygon class="st0" points="68.5,34.4 71.5,34.4 78.7,34.4 79.3,35.5 80,36.6 83,41.8 86.1,41.8 86.1,36.6 86.1,35.5 86.1,34.7 
		86.1,34.4 90.5,34.4 90.5,23.5 65.1,23.5 62.7,23.5 62,23.5 53.4,23.5 50.8,23.5 50.8,23.5 49.4,23.5 49.4,23.5 46.8,23.5 
		37.9,23.5 37.2,23.5 34.9,23.5 10,23.5 10,34.4 14.5,34.4 14.5,34.7 14.5,35.5 14.5,36.6 14.5,41.8 17.6,41.8 20.6,36.6 21.2,35.5 
		21.9,34.4 28.5,34.4 31.5,34.4 32.4,34.4 45.4,34.4 49.4,34.4 50.8,34.4 54.8,34.4 67.5,34.4 	"/>
</g>
</svg>
