<svg fill="#D42E1A" xmlns="http://www.w3.org/2000/svg" xmlns:xlink="http://www.w3.org/1999/xlink" version="1.1" preserveAspectRatio="none" x="0px" y="0px" viewBox="0 0 100 100"><defs><g id="e"><path fill="#D42E1A" stroke="none" d=" M 58.55 43.4 Q 58.7 44.05 59.15 44.6 59.95 45.65 61.05 45.65 62.15 45.65 62.95 44.6 63.75 43.6 63.75 42.15 63.75 40.7 62.95 39.65 62.7 39.35 62.45 39.15 61.8 38.65 61.05 38.65 59.95 38.65 59.15 39.65 58.35 40.7 58.35 42.15 58.35 42.8 58.55 43.4 Z"></path></g><g id="c"><path fill="#D42E1A" stroke="none" d=" M 51.5 54.2 L 51 53.85 50.05 53.4 48.7 53.05 Q 47.95 52.85 47.05 52.85 45.9 52.85 45.05 53.15 44.15 53.4 43.55 53.9 42.95 54.4 42.65 55.15 42.3 55.9 42.3 56.85 42.3 57.55 42.5 58.15 42.7 58.8 43.05 59.3 43.4 59.75 43.9 60.1 44.45 60.45 45.15 60.6 L 45.15 60.65 Q 44.35 60.75 43.65 61.1 43 61.4 42.55 61.9 42.1 62.4 41.85 63 41.6 63.6 41.6 64.3 41.6 65.5 42.05 66.4 42.5 67.35 43.3 67.95 44.1 68.6 45.25 68.9 46.35 69.25 47.7 69.25 L 50.45 68.85 51.8 68.2 52 67.95 52.1 67.7 52.15 67.3 52.15 66.65 52.05 65.85 Q 51.95 65.65 51.75 65.65 L 49.5 66.5 Q 48.9 66.65 48.1 66.65 47.4 66.65 46.9 66.5 46.4 66.35 46 66.05 45.65 65.8 45.5 65.35 45.3 64.95 45.3 64.45 45.3 63.9 45.5 63.45 45.75 63.05 46.15 62.7 46.6 62.4 47.2 62.25 47.85 62.05 48.75 62.05 L 50.35 62.05 50.55 61.85 50.65 61.5 50.7 60.85 50.65 60.3 50.55 59.95 50.4 59.75 50.15 59.7 48.75 59.7 Q 48.05 59.7 47.5 59.55 46.95 59.4 46.55 59.05 46.2 58.75 46 58.35 45.8 57.9 45.8 57.4 L 45.95 56.6 Q 46.1 56.25 46.35 56 46.6 55.75 47 55.6 47.45 55.4 48 55.4 48.65 55.4 49.2 55.6 L 51.4 56.65 Q 51.5 56.65 51.6 56.6 51.65 56.5 51.7 56.45 L 51.8 56.1 51.8 55 51.75 54.65 51.65 54.4 51.5 54.2 Z"></path></g><path id="f" stroke="#D42E1A" stroke-width="4" stroke-linejoin="round" stroke-linecap="round" fill="none" d=" M 16.05 64.6 Q 15.9 64.7 15.85 64.8 15.6 65.05 15.45 65.25 12.669921875 59.01171875 12.375 51.75 12.35 50.90703125 12.35 50.05 12.35 34.45 23.4 23.4 34.45 12.35 50.05 12.35 65.65 12.35 76.7 23.4 87.75 34.45 87.75 50.05 87.75 65.65 76.7 76.7 73.7609375 79.6390625 70.5 81.8 61.50078125 87.75 50.05 87.75 41.8244140625 87.75 34.85 84.65 31.128515625 87.75 26.15 87.75 20.45 87.75 16.4 83.7 12.35 79.65 12.35 73.95 12.35 71.9509765625 12.85 70.15 13.2400390625 68.7478515625 13.925 67.475 14.3984375 66.605859375 15 65.8 M 22.35 66.65 L 22.35 56.8 Q 22.4 55.55 23.5 54.5 24.55 53.5 25.7 53.55 26.95 53.6 27.95 54.55 28.95 55.55 29 56.8 L 29 66.65 M 34.85 84.65 Q 35.3873046875 84.2126953125 35.9 83.7 39.95 79.65 39.95 73.95 39.95 68.33828125 36.025 64.325 L 36 67.65 M 36.025 64.325 Q 35.9626953125 64.2626953125 35.9 64.2 33 61.3 29.25 60.5 M 12.85 70.15 L 18.1 73.9 M 21.95 60.8 Q 18.95 61.7 16.6 64.05"></path><path id="d" stroke="#D42E1A" stroke-width="4" stroke-linejoin="round" stroke-linecap="round" fill="none" d=" M 63.75 42.15 Q 63.75 43.6 62.95 44.6 62.15 45.65 61.05 45.65 59.95 45.65 59.15 44.6 58.7 44.05 58.55 43.4 58.35 42.8 58.35 42.15 58.35 40.7 59.15 39.65 59.95 38.65 61.05 38.65 61.8 38.65 62.45 39.15 62.7 39.35 62.95 39.65 63.75 40.7 63.75 42.15 Z"></path><path id="b" stroke="#D42E1A" stroke-width="4" stroke-linejoin="round" stroke-linecap="round" fill="none" d=" M 65.25 26 Q 68.631640625 26.568359375 71.475 29 74.318359375 31.431640625 74.75 34.5 M 43.5 34.5 Q 37.55 31.8 31.25 33.25 30.25 33.55 29.25 33.9"></path><path id="a" stroke="#D42E1A" stroke-width="5" stroke-linejoin="round" stroke-linecap="round" fill="none" d=" M 43.5 42.35 Q 38.65 37.95 33.75 42.45 33.6 42.65 33.5 42.85"></path></defs><g transform="matrix( 1, 0, 0, 1, 0,0) "><use xlink:href="#f"></use></g><g transform="matrix( 1, 0, 0, 1, 0,0) "><use xlink:href="#e"></use><use xlink:href="#d"></use></g><g transform="matrix( 1, 0, 0, 1, 0,0) "><use xlink:href="#c"></use><use xlink:href="#b"></use><use xlink:href="#a"></use></g></svg>